<?xml version="1.0" encoding="UTF-8"?>
<!DOCTYPE svg PUBLIC "-//W3C//DTD SVG 1.0//EN" "http://www.w3.org/TR/2001/REC-SVG-20010904/DTD/svg10.dtd">
<!-- Creator: CorelDRAW X6 -->
<svg xmlns="http://www.w3.org/2000/svg" xml:space="preserve" width="44px" height="41px" version="1.0" shape-rendering="geometricPrecision" text-rendering="geometricPrecision" image-rendering="optimizeQuality" fill-rule="evenodd" clip-rule="evenodd"
viewBox="0 0 4400 4061"
 xmlns:xlink="http://www.w3.org/1999/xlink">
 <g id="_0001.cgm:type:overlay">
  <metadata id="CorelCorpID_0Corel-Layer"/>
  <IC_ColorNameTable/>
  <PictureProperties/>
  <polygon fill="#A37B3A" fill-opacity="0.501961" points="341,3854 3238,957 3067,709 2864,479 2669,299 2470,149 2312,49 2229,2 2489,33 2685,77 2855,129 3192,279 3387,399 3539,511 3662,618 3753,707 3870,837 4021,1042 4130,1226 4207,1384 4267,1534 4320,1703 4361,1880 4384,2021 4398,2171 4331,2054 4262,1946 4162,1808 4041,1662 3951,1565 3873,1489 3759,1389 3610,1273 3493,1192 3443,1162 546,4059 "/>
  <polygon fill="#A37B3A" fill-opacity="0.501961" points="3620,4059 915,1353 248,2019 2,1773 4,1655 16,1534 42,1395 82,1256 137,1119 196,1002 275,876 374,750 467,653 606,535 753,438 926,352 1069,300 1250,257 1409,238 1541,235 1786,481 1120,1148 3826,3854 "/>
 </g>
</svg>
