<?xml version="1.0" encoding="UTF-8"?>
<!DOCTYPE svg PUBLIC "-//W3C//DTD SVG 1.0//EN" "http://www.w3.org/TR/2001/REC-SVG-20010904/DTD/svg10.dtd">
<!-- Creator: CorelDRAW X6 -->
<svg xmlns="http://www.w3.org/2000/svg" xml:space="preserve" width="84px" height="55px" version="1.0" shape-rendering="geometricPrecision" text-rendering="geometricPrecision" image-rendering="optimizeQuality" fill-rule="evenodd" clip-rule="evenodd"
viewBox="0 0 8400 5457"
 xmlns:xlink="http://www.w3.org/1999/xlink">
 <g id="_0013.cgm:type:overlay">
  <metadata id="CorelCorpID_0Corel-Layer"/>
  <IC_ColorNameTable/>
  <PictureProperties/>
  <polygon fill="#EAFFF3" fill-opacity="0.501961" stroke="#EBB7ED" stroke-width="747.771" stroke-linecap="square" stroke-linejoin="round" stroke-opacity="0.501961" points="374,5083 374,374 8026,374 8026,5083 "/>
  <polygon fill="#EBB7ED" fill-opacity="0.501961" stroke="#EBB7ED" stroke-width="209.494" stroke-linecap="square" stroke-linejoin="round" stroke-opacity="0.501961" points="6738,3928 6671,4012 6467,4198 6323,4290 6181,4356 5937,4425 5648,4448 5349,4418 5088,4339 4833,4198 4606,3999 4419,3748 4281,3450 4204,3136 4175,2745 4206,2349 4286,2030 4350,1873 4430,1723 4519,1592 4622,1472 4853,1275 5114,1139 5355,1070 5660,1034 5953,1044 6193,1089 6423,1175 6617,1295 6772,1438 6903,1612 6991,1787 7045,1966 7067,2097 6638,2097 6594,1933 6528,1797 6433,1674 6290,1556 6113,1469 5912,1423 5654,1415 5386,1457 5191,1534 5089,1599 4997,1678 4905,1781 4826,1894 4727,2097 4659,2338 4633,2541 4628,2802 4649,3060 4686,3248 4770,3469 4887,3655 5040,3815 5216,3933 5434,4014 5689,4046 5941,4025 6166,3953 6365,3834 6518,3682 6618,3519 6683,3328 6715,2976 5703,2976 5703,2612 7119,2612 7119,4359 6832,4359 "/>
  <polygon fill="#EBB7ED" fill-opacity="0.501961" stroke="#EBB7ED" stroke-width="209.494" stroke-linecap="square" stroke-linejoin="round" stroke-opacity="0.501961" points="3369,3156 3798,3156 3788,3297 3758,3466 3701,3640 3596,3847 3462,4024 3352,4130 3230,4222 3094,4301 2950,4364 2686,4430 2373,4449 2049,4411 1793,4324 1662,4253 1542,4167 1425,4061 1321,3941 1159,3677 1037,3346 981,3044 963,2692 993,2327 1062,2035 1194,1733 1374,1483 1595,1283 1837,1145 2081,1070 2403,1033 2700,1046 2935,1094 3159,1186 3359,1316 3530,1484 3655,1675 3719,1827 3758,1988 3772,2095 3342,2095 3318,1997 3261,1848 3184,1729 3050,1602 2865,1500 2650,1441 2387,1428 2174,1456 2011,1510 1841,1614 1689,1767 1571,1953 1478,2196 1429,2441 1411,2745 1430,3046 1480,3275 1571,3494 1700,3694 1857,3858 2010,3961 2186,4026 2411,4055 2633,4040 2818,3988 2962,3913 3093,3811 3194,3696 3273,3568 3323,3444 3355,3312 "/>
 </g>
</svg>
