<?xml version="1.0" encoding="UTF-8"?>
<!DOCTYPE svg PUBLIC "-//W3C//DTD SVG 1.0//EN" "http://www.w3.org/TR/2001/REC-SVG-20010904/DTD/svg10.dtd">
<!-- Creator: CorelDRAW X6 -->
<svg xmlns="http://www.w3.org/2000/svg" xml:space="preserve" width="74px" height="74px" version="1.0" shape-rendering="geometricPrecision" text-rendering="geometricPrecision" image-rendering="optimizeQuality" fill-rule="evenodd" clip-rule="evenodd"
viewBox="0 0 7400 7400"
 xmlns:xlink="http://www.w3.org/1999/xlink">
 <g id="_0029.cgm:type:overlay">
  <metadata id="CorelCorpID_0Corel-Layer"/>
  <IC_ColorNameTable/>
  <PictureProperties/>
  <path fill="none" fill-opacity="0.501961" stroke="#DE4BC9" stroke-width="353.982" stroke-linecap="square" stroke-linejoin="round" stroke-opacity="0.501961" d="M7223 3700c0,-1946 -1577,-3523 -3523,-3523 -1946,0 -3523,1577 -3523,3523 0,1946 1577,3523 3523,3523 1946,0 3523,-1577 3523,-3523z"/>
  <path fill="none" fill-opacity="0.501961" stroke="#EAFFF4" stroke-width="353.628" stroke-linecap="square" stroke-linejoin="round" stroke-opacity="0.501961" d="M3248 6017c23,250 245,434 494,411 250,-23 434,-245 410,-495 -23,-250 -245,-434 -494,-411 -250,23 -434,245 -410,495z"/>
  <polygon fill="#EAFFF4" fill-opacity="0.501961" points="1679,1678 1679,1112 5642,1112 5642,1678 "/>
  <polygon fill="#EAFFF4" fill-opacity="0.501961" points="3351,6267 1813,6267 1813,5701 3338,5701 "/>
  <polygon fill="#EAFFF4" fill-opacity="0.501961" points="4062,5701 5587,5701 5587,6267 4049,6267 "/>
  <polyline fill="none" fill-opacity="0.501961" stroke="#EAFFF4" stroke-width="353.628" stroke-linecap="round" stroke-linejoin="round" stroke-opacity="0.501961" points="2756,5701 2756,2587 4644,2587 4644,5701 "/>
  <line fill="none" fill-opacity="0.501961" stroke="#EAFFF4" stroke-width="353.628" stroke-linecap="round" stroke-linejoin="round" stroke-opacity="0.501961" x1="3700" y1="2587" x2="3700" y2= "1678" />
 </g>
</svg>
