<?xml version="1.0" encoding="UTF-8"?>
<!DOCTYPE svg PUBLIC "-//W3C//DTD SVG 1.0//EN" "http://www.w3.org/TR/2001/REC-SVG-20010904/DTD/svg10.dtd">
<!-- Creator: CorelDRAW X6 -->
<svg xmlns="http://www.w3.org/2000/svg" xml:space="preserve" width="52px" height="88px" version="1.0" shape-rendering="geometricPrecision" text-rendering="geometricPrecision" image-rendering="optimizeQuality" fill-rule="evenodd" clip-rule="evenodd"
viewBox="0 0 5200 8705"
 xmlns:xlink="http://www.w3.org/1999/xlink">
 <g id="_0039.cgm:type:overlay">
  <metadata id="CorelCorpID_0Corel-Layer"/>
  <IC_ColorNameTable/>
  <PictureProperties/>
  <polyline fill="none" fill-opacity="0.501961" stroke="#DE4BCB" stroke-width="234.331" stroke-linecap="round" stroke-linejoin="round" stroke-opacity="0.501961" points="5083,6105 5082,6019 5077,5932 5069,5846 5059,5760 5045,5674 5029,5589 5009,5505 4987,5421 4962,5338 4934,5256 4902,5175 4868,5095 4832,5017 4793,4940 4750,4864 4706,4790 4659,4717 4609,4646 4557,4576 4502,4509 4445,4444 4386,4381 4325,4319 4261,4260 4196,4204 4129,4149 4059,4097 3988,4047 3916,4000 3841,3955 3766,3913 3688,3874 3610,3837 3530,3803 3449,3772 3367,3744 3284,3719 3201,3696 3116,3677 3031,3660 2946,3647 2859,3636 2773,3629 2687,3624 2600,3622 2513,3624 2427,3629 2341,3636 2254,3647 2169,3660 2084,3677 1999,3696 1916,3719 1833,3744 1751,3772 1670,3803 1590,3837 1512,3874 1434,3913 1359,3955 1284,4000 1212,4047 1141,4097 1071,4149 1004,4204 939,4260 875,4319 814,4381 755,4444 698,4509 643,4576 591,4646 541,4717 494,4790 450,4864 407,4940 368,5017 332,5095 298,5175 267,5256 238,5338 213,5421 191,5505 171,5589 155,5674 142,5760 131,5846 123,5932 118,6019 117,6105 118,6192 123,6278 131,6365 142,6451 155,6537 171,6622 191,6706 213,6790 238,6873 267,6955 298,7035 332,7115 368,7194 407,7271 450,7347 494,7421 541,7494 591,7565 643,7634 698,7701 755,7767 814,7830 875,7892 939,7951 1004,8007 1071,8062 1141,8114 1212,8164 1284,8211 1359,8256 1434,8298 1512,8337 1590,8374 1670,8408 1751,8439 1833,8467 1916,8492 1999,8515 2084,8534 2169,8551 2254,8564 2341,8575 2427,8582 2513,8587 2600,8589 2687,8587 2773,8582 2859,8575 2946,8564 3031,8551 3116,8534 3201,8515 3284,8492 3367,8467 3449,8439 3530,8408 3610,8374 3688,8337 3766,8298 3841,8256 3916,8211 3988,8164 4059,8114 4129,8062 4196,8007 4261,7951 4325,7892 4386,7830 4445,7767 4502,7701 4557,7634 4609,7565 4659,7494 4706,7421 4750,7347 4793,7271 4832,7194 4868,7115 4902,7035 4934,6955 4962,6873 4987,6790 5009,6706 5029,6622 5045,6537 5059,6451 5069,6365 5077,6278 5082,6192 5083,6105 5083,6105 "/>
  <line fill="none" fill-opacity="0.501961" stroke="#DE4BCB" stroke-width="234.331" stroke-linecap="round" stroke-linejoin="round" stroke-opacity="0.501961" x1="2600" y1="117" x2="4921" y2= "5223" />
  <line fill="none" fill-opacity="0.501961" stroke="#DE4BCB" stroke-width="234.331" stroke-linecap="round" stroke-linejoin="round" stroke-opacity="0.501961" x1="2600" y1="117" x2="259" y2= "5277" />
 </g>
</svg>
