<?xml version="1.0" encoding="UTF-8"?>
<!DOCTYPE svg PUBLIC "-//W3C//DTD SVG 1.0//EN" "http://www.w3.org/TR/2001/REC-SVG-20010904/DTD/svg10.dtd">
<!-- Creator: CorelDRAW X6 -->
<svg xmlns="http://www.w3.org/2000/svg" xml:space="preserve" width="75px" height="76px" version="1.0" shape-rendering="geometricPrecision" text-rendering="geometricPrecision" image-rendering="optimizeQuality" fill-rule="evenodd" clip-rule="evenodd"
viewBox="0 0 7500 7637"
 xmlns:xlink="http://www.w3.org/1999/xlink">
 <g id="_0042.cgm:type:overlay">
  <metadata id="CorelCorpID_0Corel-Layer"/>
  <IC_ColorNameTable/>
  <PictureProperties/>
  <line fill="none" fill-opacity="0.501961" stroke="#DE4BC9" stroke-width="210.174" stroke-linecap="round" stroke-linejoin="round" stroke-opacity="0.501961" x1="297" y1="5001" x2="1480" y2= "3818" />
  <line fill="none" fill-opacity="0.501961" stroke="#DE4BC9" stroke-width="210.174" stroke-linecap="round" stroke-linejoin="round" stroke-opacity="0.501961" x1="1480" y1="3818" x2="297" y2= "2636" />
  <path fill="none" fill-opacity="0.501961" stroke="#DE4BC9" stroke-width="210.174" stroke-linecap="round" stroke-linejoin="round" stroke-opacity="0.501961" d="M7427 3870c-679,-939 -1820,-1531 -2990,-1531 -1155,0 -2253,563 -2946,1473"/>
  <path fill="none" fill-opacity="0.501961" stroke="#DE4BC9" stroke-width="210.174" stroke-linecap="round" stroke-linejoin="round" stroke-opacity="0.501961" d="M1491 3824c693,910 1791,1473 2946,1473 1170,0 2311,-592 2990,-1531"/>
  <path fill="none" fill-opacity="0.501961" stroke="#DE4BC9" stroke-width="210.174" stroke-linecap="round" stroke-linejoin="round" stroke-opacity="0.501961" d="M6988 1787c-672,-1052 -1885,-1710 -3142,-1710 -1242,0 -2411,628 -3098,1651"/>
  <path fill="none" fill-opacity="0.501961" stroke="#DE4BC9" stroke-width="210.174" stroke-linecap="round" stroke-linejoin="round" stroke-opacity="0.501961" d="M704 5850c672,1052 1885,1710 3142,1710 1242,0 2411,-628 3098,-1651"/>
  <path fill="none" fill-opacity="0.501961" stroke="#DE4BC9" stroke-width="210.174" stroke-linecap="round" stroke-linejoin="round" stroke-opacity="0.501961" d="M309 2605c-132,380 -205,804 -205,1213 0,380 73,804 190,1154"/>
  <path fill="none" fill-opacity="0.501961" stroke="#DE4BC9" stroke-width="210.174" stroke-linecap="round" stroke-linejoin="round" stroke-opacity="0.501961" d="M6944 5908c132,-205 278,-468 365,-687"/>
  <path fill="none" fill-opacity="0.501961" stroke="#DE4BC9" stroke-width="210.174" stroke-linecap="round" stroke-linejoin="round" stroke-opacity="0.501961" d="M7357 2540c-88,-227 -215,-500 -341,-699"/>
 </g>
</svg>
