<?xml version="1.0" encoding="UTF-8"?>
<!DOCTYPE svg PUBLIC "-//W3C//DTD SVG 1.0//EN" "http://www.w3.org/TR/2001/REC-SVG-20010904/DTD/svg10.dtd">
<!-- Creator: CorelDRAW X6 -->
<svg xmlns="http://www.w3.org/2000/svg" xml:space="preserve" width="68px" height="68px" version="1.0" shape-rendering="geometricPrecision" text-rendering="geometricPrecision" image-rendering="optimizeQuality" fill-rule="evenodd" clip-rule="evenodd"
viewBox="0 0 6800 6800"
 xmlns:xlink="http://www.w3.org/1999/xlink">
 <g id="_0052.cgm:type:overlay">
  <metadata id="CorelCorpID_0Corel-Layer"/>
  <IC_ColorNameTable/>
  <PictureProperties/>
  <path fill="#000040" fill-opacity="0.501961" stroke="#000040" stroke-width="706.102" stroke-linecap="square" stroke-linejoin="round" stroke-opacity="0.501961" d="M5900 3400c0,-1381 -1119,-2500 -2500,-2500 -1381,0 -2500,1119 -2500,2500 0,1381 1119,2500 2500,2500 1381,0 2500,-1119 2500,-2500z"/>
  <path fill="#EAFFF4" fill-opacity="0.501961" d="M1046 3400c0,-260 -211,-470 -470,-470 -260,0 -470,211 -470,470 0,260 211,470 470,470 260,0 470,-211 470,-470z"/>
  <path fill="#EAFFF4" fill-opacity="0.501961" d="M1259 4435c25,259 -164,489 -422,515 -259,26 -489,-163 -514,-422 -25,-259 164,-489 422,-515 259,-26 489,163 514,422z"/>
  <path fill="#EAFFF4" fill-opacity="0.501961" d="M1735 5065c184,184 184,482 0,665 -184,184 -481,183 -665,0 -184,-184 -184,-482 0,-665 184,-184 481,-184 665,0z"/>
  <path fill="#EAFFF4" fill-opacity="0.501961" d="M1881 6182c95,242 368,361 610,266 242,-95 361,-369 265,-611 -95,-242 -368,-361 -610,-266 -242,95 -361,369 -265,611z"/>
  <path fill="#EAFFF4" fill-opacity="0.501961" d="M2930 6225c0,-260 211,-470 470,-470 260,0 470,211 470,470 0,260 -211,470 -470,470 -260,0 -470,-211 -470,-470z"/>
  <path fill="#EAFFF4" fill-opacity="0.501961" d="M4949 5963c-26,-259 -256,-448 -515,-422 -259,25 -448,256 -422,514 26,259 256,448 515,422 259,-25 448,-256 422,-514z"/>
  <path fill="#EAFFF4" fill-opacity="0.501961" d="M5730 5064c-184,-184 -482,-184 -666,0 -184,184 -184,481 0,665 184,184 482,184 666,0 184,-184 184,-481 0,-665z"/>
  <path fill="#EAFFF4" fill-opacity="0.501961" d="M6447 4309c95,242 -24,515 -266,610 -242,95 -515,-24 -611,-265 -95,-242 24,-515 266,-610 242,-95 515,24 610,265z"/>
  <path fill="#EAFFF4" fill-opacity="0.501961" d="M6695 3400c0,-260 -211,-470 -470,-470 -260,0 -470,211 -470,470 0,260 211,470 470,470 260,0 470,-211 470,-470z"/>
  <path fill="#EAFFF4" fill-opacity="0.501961" d="M5541 2365c-25,-259 164,-489 422,-515 259,-26 489,163 514,422 25,259 -164,489 -422,515 -259,26 -489,-163 -514,-422z"/>
  <path fill="#EAFFF4" fill-opacity="0.501961" d="M5064 1736c-184,-184 -184,-482 0,-665 184,-184 481,-184 665,0 184,184 184,482 0,665 -184,184 -481,183 -665,0z"/>
  <path fill="#EAFFF4" fill-opacity="0.501961" d="M4919 618c-95,-242 -368,-361 -610,-266 -242,95 -361,369 -265,611 95,242 368,361 610,266 242,-95 361,-368 266,-610z"/>
  <path fill="#EAFFF4" fill-opacity="0.501961" d="M3870 575c0,260 -211,470 -470,470 -260,0 -470,-211 -470,-470 0,-260 211,-470 470,-470 260,0 470,211 470,470z"/>
  <path fill="#EAFFF4" fill-opacity="0.501961" d="M1851 837c26,259 256,448 515,422 259,-25 448,-256 422,-514 -26,-259 -256,-448 -515,-422 -259,25 -448,256 -422,514z"/>
  <path fill="#EAFFF4" fill-opacity="0.501961" d="M1070 1736c184,184 482,184 666,0 184,-184 184,-481 0,-665 -184,-184 -482,-184 -666,0 -184,184 -184,481 0,665z"/>
  <path fill="#EAFFF4" fill-opacity="0.501961" d="M352 2491c-95,-242 24,-515 266,-610 242,-95 515,24 610,265 95,242 -24,515 -266,610 -242,95 -515,-24 -611,-265z"/>
 </g>
</svg>
