<?xml version="1.0" encoding="UTF-8"?>
<!DOCTYPE svg PUBLIC "-//W3C//DTD SVG 1.0//EN" "http://www.w3.org/TR/2001/REC-SVG-20010904/DTD/svg10.dtd">
<!-- Creator: CorelDRAW X6 -->
<svg xmlns="http://www.w3.org/2000/svg" xml:space="preserve" width="121px" height="114px" version="1.0" shape-rendering="geometricPrecision" text-rendering="geometricPrecision" image-rendering="optimizeQuality" fill-rule="evenodd" clip-rule="evenodd"
viewBox="0 0 12100 11352"
 xmlns:xlink="http://www.w3.org/1999/xlink">
 <g id="_0071.cgm:type:overlay">
  <metadata id="CorelCorpID_0Corel-Layer"/>
  <IC_ColorNameTable/>
  <PictureProperties/>
  <line fill="none" fill-opacity="0.501961" stroke="#969F99" stroke-width="298.37" stroke-linecap="round" stroke-linejoin="round" stroke-opacity="0.501961" x1="5871" y1="11202" x2="5871" y2= "149" />
  <line fill="none" fill-opacity="0.501961" stroke="#969F99" stroke-width="298.37" stroke-linecap="round" stroke-linejoin="round" stroke-opacity="0.501961" x1="5871" y1="149" x2="7111" y2= "2626" />
  <line fill="none" fill-opacity="0.501961" stroke="#969F99" stroke-width="298.37" stroke-linecap="round" stroke-linejoin="round" stroke-opacity="0.501961" x1="4643" y1="2605" x2="5871" y2= "149" />
  <line fill="none" fill-opacity="0.501961" stroke="#969F99" stroke-width="298.37" stroke-linecap="round" stroke-linejoin="round" stroke-opacity="0.501961" x1="4643" y1="2605" x2="5871" y2= "149" />
  <line fill="none" fill-opacity="0.501961" stroke="#969F99" stroke-width="298.37" stroke-linecap="round" stroke-linejoin="round" stroke-opacity="0.501961" x1="4643" y1="2605" x2="5871" y2= "149" />
  <line fill="none" fill-opacity="0.501961" stroke="#969F99" stroke-width="298.37" stroke-linecap="round" stroke-linejoin="round" stroke-opacity="0.501961" x1="4643" y1="2605" x2="5871" y2= "149" />
  <line fill="none" fill-opacity="0.501961" stroke="#969F99" stroke-width="298.37" stroke-linecap="round" stroke-linejoin="round" stroke-opacity="0.501961" x1="5871" y1="9359" x2="7068" y2= "11203" />
  <line fill="none" fill-opacity="0.501961" stroke="#969F99" stroke-width="298.37" stroke-linecap="round" stroke-linejoin="round" stroke-opacity="0.501961" x1="5871" y1="9359" x2="4643" y2= "11202" />
  <line fill="none" fill-opacity="0.501961" stroke="#969F99" stroke-width="298.37" stroke-linecap="round" stroke-linejoin="round" stroke-opacity="0.501961" x1="5871" y1="7518" x2="4643" y2= "9359" />
  <line fill="none" fill-opacity="0.501961" stroke="#969F99" stroke-width="298.37" stroke-linecap="round" stroke-linejoin="round" stroke-opacity="0.501961" x1="5871" y1="7518" x2="7068" y2= "9361" />
  <polygon fill="#969F99" fill-opacity="0.501961" stroke="#969F99" stroke-width="89.7937" stroke-linecap="square" stroke-linejoin="round" stroke-opacity="0.501961" points="10983,8577 10428,8577 10428,7938 10983,7938 "/>
  <polygon fill="#969F99" fill-opacity="0.501961" stroke="#969F99" stroke-width="89.7937" stroke-linecap="square" stroke-linejoin="round" stroke-opacity="0.501961" points="12093,4062 12072,4296 12008,4510 11922,4724 11794,4916 11410,5408 11217,5663 11154,5834 11089,6004 11047,6197 11004,6389 10961,6623 10939,6838 10918,7094 10918,7349 10492,7349 10492,6838 10513,6496 10576,6176 10663,5855 10791,5556 11004,5258 11367,4745 11495,4532 11580,4361 11644,4190 11666,4041 11644,3827 11602,3635 11538,3485 11452,3357 11324,3271 11154,3208 10983,3166 10769,3144 10555,3166 10385,3208 10235,3271 10107,3379 10043,3485 9979,3592 9915,3742 9851,3891 9466,3891 9466,3763 9488,3656 9509,3528 9551,3421 9594,3314 9659,3229 9744,3122 9808,3037 9915,2973 10001,2909 10107,2844 10235,2802 10342,2760 10470,2738 10619,2717 10769,2717 10918,2717 11068,2738 11217,2781 11346,2824 11474,2866 11580,2931 11687,3016 11773,3101 11858,3208 11922,3293 11965,3401 12008,3528 12050,3635 12072,3785 12093,3912 "/>
  <polygon fill="#969F99" fill-opacity="0.501961" stroke="#969F99" stroke-width="89.7937" stroke-linecap="square" stroke-linejoin="round" stroke-opacity="0.501961" points="1524,8595 968,8595 968,7956 1524,7956 "/>
  <polygon fill="#969F99" fill-opacity="0.501961" stroke="#969F99" stroke-width="89.7937" stroke-linecap="square" stroke-linejoin="round" stroke-opacity="0.501961" points="2634,4079 2613,4315 2549,4528 2463,4741 2335,4934 1951,5425 1759,5680 1694,5852 1630,6022 1588,6214 1545,6406 1502,6642 1481,6855 1459,7112 1459,7368 1033,7368 1033,6855 1053,6514 1118,6194 1203,5873 1332,5574 1545,5275 1908,4763 2036,4550 2121,4378 2186,4208 2207,4058 2186,3845 2143,3652 2078,3503 1993,3375 1865,3289 1694,3226 1524,3183 1310,3162 1096,3183 926,3226 776,3289 648,3396 584,3503 520,3610 456,3759 392,3909 7,3909 7,3781 29,3674 50,3546 92,3439 136,3332 200,3247 285,3140 349,3054 456,2991 542,2927 648,2863 776,2820 883,2777 1011,2756 1161,2734 1310,2734 1459,2734 1609,2756 1759,2799 1887,2842 2015,2884 2121,2948 2228,3033 2314,3119 2399,3226 2463,3311 2506,3418 2549,3546 2591,3652 2613,3802 2634,3930 "/>
 </g>
</svg>
