<?xml version="1.0" encoding="UTF-8"?>
<!DOCTYPE svg PUBLIC "-//W3C//DTD SVG 1.0//EN" "http://www.w3.org/TR/2001/REC-SVG-20010904/DTD/svg10.dtd">
<!-- Creator: CorelDRAW X6 -->
<svg xmlns="http://www.w3.org/2000/svg" xml:space="preserve" width="144px" height="152px" version="1.0" shape-rendering="geometricPrecision" text-rendering="geometricPrecision" image-rendering="optimizeQuality" fill-rule="evenodd" clip-rule="evenodd"
viewBox="0 0 14400 15225"
 xmlns:xlink="http://www.w3.org/1999/xlink">
 <g id="_0086.cgm:type:overlay">
  <metadata id="CorelCorpID_0Corel-Layer"/>
  <IC_ColorNameTable/>
  <PictureProperties/>
  <line fill="none" fill-opacity="0.501961" stroke="#EBB7ED" stroke-width="237.108" stroke-linecap="round" stroke-linejoin="round" stroke-opacity="0.501961" x1="6610" y1="118" x2="7791" y2= "118" />
  <line fill="none" fill-opacity="0.501961" stroke="#EBB7ED" stroke-width="237.108" stroke-linecap="round" stroke-linejoin="round" stroke-opacity="0.501961" x1="6610" y1="118" x2="6610" y2= "4070" />
  <line fill="none" fill-opacity="0.501961" stroke="#EBB7ED" stroke-width="237.108" stroke-linecap="round" stroke-linejoin="round" stroke-opacity="0.501961" x1="7791" y1="118" x2="7791" y2= "4070" />
  <line fill="none" fill-opacity="0.501961" stroke="#EBB7ED" stroke-width="237.108" stroke-linecap="round" stroke-linejoin="round" stroke-opacity="0.501961" x1="6610" y1="4070" x2="2715" y2= "4070" />
  <line fill="none" fill-opacity="0.501961" stroke="#EBB7ED" stroke-width="237.108" stroke-linecap="round" stroke-linejoin="round" stroke-opacity="0.501961" x1="7791" y1="4070" x2="11686" y2= "4070" />
  <line fill="none" fill-opacity="0.501961" stroke="#EBB7ED" stroke-width="237.108" stroke-linecap="round" stroke-linejoin="round" stroke-opacity="0.501961" x1="2715" y1="4070" x2="2715" y2= "5723" />
  <line fill="none" fill-opacity="0.501961" stroke="#EBB7ED" stroke-width="237.108" stroke-linecap="round" stroke-linejoin="round" stroke-opacity="0.501961" x1="11686" y1="4070" x2="11686" y2= "5723" />
  <line fill="none" fill-opacity="0.501961" stroke="#EBB7ED" stroke-width="237.108" stroke-linecap="round" stroke-linejoin="round" stroke-opacity="0.501961" x1="2715" y1="5723" x2="6610" y2= "5723" />
  <line fill="none" fill-opacity="0.501961" stroke="#EBB7ED" stroke-width="237.108" stroke-linecap="round" stroke-linejoin="round" stroke-opacity="0.501961" x1="11686" y1="5723" x2="7791" y2= "5723" />
  <line fill="none" fill-opacity="0.501961" stroke="#EBB7ED" stroke-width="237.108" stroke-linecap="round" stroke-linejoin="round" stroke-opacity="0.501961" x1="6610" y1="5723" x2="6610" y2= "13514" />
  <line fill="none" fill-opacity="0.501961" stroke="#EBB7ED" stroke-width="237.108" stroke-linecap="round" stroke-linejoin="round" stroke-opacity="0.501961" x1="7791" y1="5723" x2="7791" y2= "13514" />
  <line fill="none" fill-opacity="0.501961" stroke="#EBB7ED" stroke-width="237.108" stroke-linecap="round" stroke-linejoin="round" stroke-opacity="0.501961" x1="120" y1="11388" x2="2007" y2= "11388" />
  <line fill="none" fill-opacity="0.501961" stroke="#EBB7ED" stroke-width="237.108" stroke-linecap="round" stroke-linejoin="round" stroke-opacity="0.501961" x1="14281" y1="11388" x2="12393" y2= "11388" />
  <path fill="none" fill-opacity="0.501961" stroke="#EBB7ED" stroke-width="237.108" stroke-linecap="round" stroke-linejoin="round" stroke-opacity="0.501961" d="M1933 11336c1280,1086 3025,1900 4693,2172"/>
  <polyline fill="none" fill-opacity="0.501961" stroke="#EBB7ED" stroke-width="237.108" stroke-linecap="round" stroke-linejoin="round" stroke-opacity="0.501961" points="118,11388 574,11770 1054,12144 1546,12502 2051,12843 2568,13166 3095,13470 3633,13756 4180,14023 4737,14271 5301,14499 5873,14707 6453,14896 7200,15106 "/>
  <polyline fill="none" fill-opacity="0.501961" stroke="#EBB7ED" stroke-width="237.108" stroke-linecap="round" stroke-linejoin="round" stroke-opacity="0.501961" points="7200,15105 7795,14935 8402,14737 9001,14519 9593,14280 10175,14021 10749,13741 11311,13442 11864,13123 12404,12785 12934,12428 13450,12053 14281,11388 "/>
  <path fill="none" fill-opacity="0.501961" stroke="#EBB7ED" stroke-width="237.108" stroke-linecap="round" stroke-linejoin="round" stroke-opacity="0.501961" d="M7671 13524c1691,-203 3348,-947 4633,-2063"/>
  <polygon fill="#EBB7ED" fill-opacity="0.501961" points="1637,14249 970,13582 12487,2064 13154,2732 "/>
 </g>
</svg>
