<?xml version="1.0" encoding="UTF-8"?>
<!DOCTYPE svg PUBLIC "-//W3C//DTD SVG 1.0//EN" "http://www.w3.org/TR/2001/REC-SVG-20010904/DTD/svg10.dtd">
<!-- Creator: CorelDRAW X6 -->
<svg xmlns="http://www.w3.org/2000/svg" xml:space="preserve" width="98px" height="98px" version="1.0" shape-rendering="geometricPrecision" text-rendering="geometricPrecision" image-rendering="optimizeQuality" fill-rule="evenodd" clip-rule="evenodd"
viewBox="0 0 9800 9800"
 xmlns:xlink="http://www.w3.org/1999/xlink">
 <g id="_0090.cgm:type:overlay">
  <metadata id="CorelCorpID_0Corel-Layer"/>
  <IC_ColorNameTable/>
  <PictureProperties/>
  <path fill="none" fill-opacity="0.501961" stroke="#A37B3A" stroke-width="236.093" stroke-linecap="square" stroke-linejoin="round" stroke-opacity="0.501961" d="M9682 4900c0,-2641 -2141,-4782 -4782,-4782 -2641,0 -4782,2141 -4782,4782 0,2641 2141,4782 4782,4782 2641,0 4782,-2141 4782,-4782z"/>
  <polyline fill="none" fill-opacity="0.501961" stroke="#A37B3A" stroke-width="236.093" stroke-linecap="round" stroke-linejoin="round" stroke-opacity="0.501961" points="4302,1911 4302,3704 1314,6096 4302,6096 4302,7291 3107,8187 6693,8187 5498,7291 5498,6096 8487,6096 5498,3704 5498,1911 5498,1911 "/>
  <path fill="none" fill-opacity="0.501961" stroke="#A37B3A" stroke-width="236.093" stroke-linecap="round" stroke-linejoin="round" stroke-opacity="0.501961" d="M5498 1911c0,-329 -268,-598 -598,-598 -329,0 -597,268 -597,598"/>
 </g>
</svg>
