<?xml version="1.0" encoding="UTF-8"?>
<!DOCTYPE svg PUBLIC "-//W3C//DTD SVG 1.0//EN" "http://www.w3.org/TR/2001/REC-SVG-20010904/DTD/svg10.dtd">
<!-- Creator: CorelDRAW X6 -->
<svg xmlns="http://www.w3.org/2000/svg" xml:space="preserve" width="202px" height="59px" version="1.0" shape-rendering="geometricPrecision" text-rendering="geometricPrecision" image-rendering="optimizeQuality" fill-rule="evenodd" clip-rule="evenodd"
viewBox="0 0 20200 5895"
 xmlns:xlink="http://www.w3.org/1999/xlink">
 <g id="_0091.cgm:type:overlay">
  <metadata id="CorelCorpID_0Corel-Layer"/>
  <IC_ColorNameTable/>
  <PictureProperties/>
  <polygon fill="#969F99" fill-opacity="0.501961" stroke="#969F99" stroke-width="90.1131" stroke-linecap="square" stroke-linejoin="round" stroke-opacity="0.501961" points="10553,5887 9995,5887 9995,5247 10553,5247 "/>
  <polygon fill="#969F99" fill-opacity="0.501961" stroke="#969F99" stroke-width="90.1131" stroke-linecap="square" stroke-linejoin="round" stroke-opacity="0.501961" points="11666,1357 11644,1593 11581,1807 11495,2021 11367,2214 10981,2707 10788,2964 10723,3135 10659,3306 10616,3499 10573,3693 10531,3928 10509,4142 10488,4399 10488,4656 10059,4656 10059,4142 10081,3800 10145,3478 10231,3157 10360,2856 10573,2557 10937,2042 11067,1829 11152,1657 11216,1485 11238,1335 11216,1121 11174,929 11109,778 11023,650 10894,564 10723,500 10553,458 10338,436 10123,458 9952,500 9802,564 9673,671 9609,778 9546,886 9482,1035 9417,1185 9031,1185 9031,1057 9052,949 9073,821 9116,714 9160,607 9223,521 9309,414 9374,328 9482,264 9566,199 9673,135 9802,92 9910,50 10038,29 10187,8 10338,8 10488,8 10638,29 10788,72 10917,115 11044,157 11152,222 11260,307 11345,393 11431,500 11495,585 11538,693 11581,821 11623,929 11644,1079 11666,1207 "/>
  <line fill="none" fill-opacity="0.501961" stroke="#969F99" stroke-width="295.883" stroke-linecap="round" stroke-linejoin="round" stroke-opacity="0.501961" x1="7953" y1="4615" x2="5589" y2= "2841" />
  <line fill="none" fill-opacity="0.501961" stroke="#969F99" stroke-width="295.883" stroke-linecap="round" stroke-linejoin="round" stroke-opacity="0.501961" x1="5589" y1="2841" x2="7953" y2= "1066" />
  <line fill="none" fill-opacity="0.501961" stroke="#969F99" stroke-width="295.883" stroke-linecap="round" stroke-linejoin="round" stroke-opacity="0.501961" x1="12247" y1="1066" x2="14612" y2= "2841" />
  <line fill="none" fill-opacity="0.501961" stroke="#969F99" stroke-width="295.883" stroke-linecap="round" stroke-linejoin="round" stroke-opacity="0.501961" x1="14612" y1="2841" x2="12247" y2= "4615" />
  <line fill="none" fill-opacity="0.501961" stroke="#969F99" stroke-width="295.883" stroke-linecap="round" stroke-linejoin="round" stroke-opacity="0.501961" x1="16032" y1="2841" x2="20052" y2= "2841" />
  <line fill="none" fill-opacity="0.501961" stroke="#969F99" stroke-width="295.883" stroke-linecap="round" stroke-linejoin="round" stroke-opacity="0.501961" x1="4169" y1="2841" x2="148" y2= "2841" />
 </g>
</svg>
