<?xml version="1.0" encoding="UTF-8"?>
<!DOCTYPE svg PUBLIC "-//W3C//DTD SVG 1.0//EN" "http://www.w3.org/TR/2001/REC-SVG-20010904/DTD/svg10.dtd">
<!-- Creator: CorelDRAW X6 -->
<svg xmlns="http://www.w3.org/2000/svg" xml:space="preserve" width="119px" height="78px" version="1.0" shape-rendering="geometricPrecision" text-rendering="geometricPrecision" image-rendering="optimizeQuality" fill-rule="evenodd" clip-rule="evenodd"
viewBox="0 0 11900 7798"
 xmlns:xlink="http://www.w3.org/1999/xlink">
 <g id="_0154.cgm:type:overlay">
  <metadata id="CorelCorpID_0Corel-Layer"/>
  <IC_ColorNameTable/>
  <PictureProperties/>
  <path fill="none" fill-opacity="0.501961" stroke="#DE4BC9" stroke-width="105.131" stroke-linecap="square" stroke-linejoin="round" stroke-opacity="0.501961" d="M6835 3898c0,-489 -396,-885 -885,-885 -489,0 -885,396 -885,885 0,489 396,885 885,885 489,0 885,-396 885,-885z"/>
  <line fill="none" fill-opacity="0.501961" stroke="#DE4BC9" stroke-width="105.131" stroke-linecap="round" stroke-linejoin="round" stroke-opacity="0.501961" x1="5065" y1="3898" x2="347" y2= "3898" />
  <polygon fill="#DE4BC9" fill-opacity="0.501961" points="493,3756 493,4048 52,3882 "/>
  <line fill="none" fill-opacity="0.501961" stroke="#DE4BC9" stroke-width="105.131" stroke-linecap="round" stroke-linejoin="round" stroke-opacity="0.501961" x1="6835" y1="3898" x2="11553" y2= "3898" />
  <polygon fill="#DE4BC9" fill-opacity="0.501961" points="11407,4025 11407,3733 11848,3898 "/>
  <polygon fill="#DE4BC9" fill-opacity="0.501961" points="5802,7304 6093,7304 5928,7745 "/>
  <line fill="none" fill-opacity="0.501961" stroke="#DE4BC9" stroke-width="105.131" stroke-linecap="round" stroke-linejoin="round" stroke-opacity="0.501961" x1="5950" y1="4783" x2="5950" y2= "7438" />
  <polygon fill="#DE4BC9" fill-opacity="0.501961" points="6090,493 5798,493 5964,53 "/>
  <line fill="none" fill-opacity="0.501961" stroke="#DE4BC9" stroke-width="105.131" stroke-linecap="round" stroke-linejoin="round" stroke-opacity="0.501961" x1="5950" y1="3014" x2="5950" y2= "359" />
  <polygon fill="#DE4BC9" fill-opacity="0.501961" points="1872,6068 2017,6321 1553,6397 "/>
  <line fill="none" fill-opacity="0.501961" stroke="#DE4BC9" stroke-width="105.131" stroke-linecap="round" stroke-linejoin="round" stroke-opacity="0.501961" x1="5192" y1="4354" x2="1821" y2= "6258" />
  <polygon fill="#DE4BC9" fill-opacity="0.501961" points="10022,1720 9876,1467 10341,1391 "/>
  <line fill="none" fill-opacity="0.501961" stroke="#DE4BC9" stroke-width="105.131" stroke-linecap="round" stroke-linejoin="round" stroke-opacity="0.501961" x1="6708" y1="3443" x2="10079" y2= "1539" />
  <polygon fill="#DE4BC9" fill-opacity="0.501961" points="2033,1454 1887,1706 1588,1342 "/>
  <line fill="none" fill-opacity="0.501961" stroke="#DE4BC9" stroke-width="105.131" stroke-linecap="round" stroke-linejoin="round" stroke-opacity="0.501961" x1="5176" y1="3469" x2="1843" y2= "1502" />
  <polygon fill="#DE4BC9" fill-opacity="0.501961" points="9867,6346 10013,6094 10312,6457 "/>
  <line fill="none" fill-opacity="0.501961" stroke="#DE4BC9" stroke-width="105.131" stroke-linecap="round" stroke-linejoin="round" stroke-opacity="0.501961" x1="6724" y1="4328" x2="10057" y2= "6294" />
  <polygon fill="#DE4BC9" fill-opacity="0.501961" points="4196,596 3943,741 3866,277 "/>
  <line fill="none" fill-opacity="0.501961" stroke="#DE4BC9" stroke-width="105.131" stroke-linecap="round" stroke-linejoin="round" stroke-opacity="0.501961" x1="5519" y1="3126" x2="4069" y2= "669" />
  <polygon fill="#DE4BC9" fill-opacity="0.501961" points="7696,7207 7949,7061 8026,7526 "/>
  <line fill="none" fill-opacity="0.501961" stroke="#DE4BC9" stroke-width="105.131" stroke-linecap="round" stroke-linejoin="round" stroke-opacity="0.501961" x1="6381" y1="4671" x2="7831" y2= "7128" />
  <polygon fill="#DE4BC9" fill-opacity="0.501961" points="7933,728 7680,581 8044,282 "/>
  <line fill="none" fill-opacity="0.501961" stroke="#DE4BC9" stroke-width="105.131" stroke-linecap="round" stroke-linejoin="round" stroke-opacity="0.501961" x1="6403" y1="3139" x2="7806" y2= "655" />
  <polygon fill="#DE4BC9" fill-opacity="0.501961" points="3967,7069 4220,7215 3856,7514 "/>
  <line fill="none" fill-opacity="0.501961" stroke="#DE4BC9" stroke-width="105.131" stroke-linecap="round" stroke-linejoin="round" stroke-opacity="0.501961" x1="5497" y1="4658" x2="4094" y2= "7142" />
 </g>
</svg>
