<?xml version="1.0" encoding="UTF-8"?>
<!DOCTYPE svg PUBLIC "-//W3C//DTD SVG 1.0//EN" "http://www.w3.org/TR/2001/REC-SVG-20010904/DTD/svg10.dtd">
<!-- Creator: CorelDRAW X6 -->
<svg xmlns="http://www.w3.org/2000/svg" xml:space="preserve" width="147px" height="147px" version="1.0" shape-rendering="geometricPrecision" text-rendering="geometricPrecision" image-rendering="optimizeQuality" fill-rule="evenodd" clip-rule="evenodd"
viewBox="0 0 14700 14659"
 xmlns:xlink="http://www.w3.org/1999/xlink">
 <g id="_0512.cgm:type:overlay">
  <metadata id="CorelCorpID_0Corel-Layer"/>
  <IC_ColorNameTable/>
  <PictureProperties/>
  <polygon fill="#DE4BC9" fill-opacity="0.501961" stroke="#DE4BC9" stroke-width="89.7534" stroke-linecap="square" stroke-linejoin="round" stroke-opacity="0.501961" points="727,4156 2027,4777 1943,4964 1808,5298 1695,5638 1649,5801 1564,6162 1530,6346 1517,6422 1481,6697 1469,6828 1450,7134 1448,7250 1448,7446 1453,7599 1461,7749 1476,7906 1493,8069 1514,8214 1536,8352 1562,8489 1592,8626 1638,8819 1665,8916 1692,9012 1744,9178 1798,9337 1858,9494 1906,9611 1965,9746 2027,9881 729,10505 608,10239 552,10107 443,9824 393,9680 356,9561 296,9366 264,9250 230,9131 199,8995 185,8943 161,8822 135,8694 114,8579 104,8521 86,8418 66,8269 52,8136 38,8007 28,7868 20,7739 10,7594 9,7445 7,7327 9,7202 14,7031 20,6912 28,6791 42,6629 56,6489 61,6443 78,6307 99,6170 112,6075 139,5942 161,5826 199,5662 227,5548 261,5412 308,5242 326,5185 353,5098 373,5035 409,4924 446,4825 451,4812 484,4727 544,4570 "/>
  <polygon fill="#DE4BC9" fill-opacity="0.501961" stroke="#DE4BC9" stroke-width="89.7534" stroke-linecap="square" stroke-linejoin="round" stroke-opacity="0.501961" points="1290,11476 2478,10664 2597,10831 2818,11113 3058,11383 3175,11502 3445,11758 3588,11879 3647,11927 3869,12097 3976,12172 4230,12342 4330,12402 4501,12499 4636,12571 4771,12639 4912,12706 5062,12772 5197,12825 5328,12876 5460,12922 5592,12966 5783,13020 5882,13047 5978,13071 6148,13109 6312,13139 6479,13168 6604,13184 6751,13202 6899,13216 6789,14651 6499,14622 6357,14607 6056,14559 5906,14530 5786,14503 5586,14456 5471,14427 5350,14396 5217,14357 5164,14341 5047,14303 4925,14261 4814,14220 4760,14200 4662,14164 4522,14107 4401,14054 4280,14000 4155,13940 4040,13883 3909,13819 3779,13746 3677,13690 3568,13623 3423,13534 3323,13468 3223,13402 3090,13309 2975,13228 2937,13200 2828,13116 2720,13029 2645,12968 2543,12881 2453,12805 2331,12690 2245,12607 2145,12509 2022,12385 1980,12340 1919,12272 1874,12224 1798,12138 1732,12057 1721,12044 1665,11976 1558,11844 "/>
  <polygon fill="#DE4BC9" fill-opacity="0.501961" stroke="#DE4BC9" stroke-width="89.7534" stroke-linecap="square" stroke-linejoin="round" stroke-opacity="0.501961" points="7912,14651 7801,13216 8007,13195 8360,13145 8713,13073 8875,13033 9231,12924 9409,12862 9481,12834 9737,12728 9857,12674 10130,12537 10233,12482 10403,12383 10533,12302 10657,12219 10787,12129 10920,12030 11033,11942 11142,11853 11249,11763 11352,11669 11495,11531 11567,11460 11636,11388 11754,11260 11863,11134 11970,11002 12048,10902 12136,10785 12222,10662 13412,11476 13240,11712 13156,11828 12964,12065 12863,12181 12781,12271 12640,12421 12557,12504 12470,12593 12367,12690 12329,12728 12238,12810 12140,12896 12050,12972 12005,13008 11926,13075 11806,13170 11698,13247 11592,13323 11478,13402 11370,13473 11249,13554 11120,13631 11021,13690 10910,13752 10759,13833 10652,13888 10545,13942 10398,14009 10269,14066 10226,14085 10100,14139 9971,14190 9882,14224 9755,14268 9642,14306 9481,14357 9368,14391 9231,14427 9064,14472 9003,14484 8916,14505 8852,14518 8737,14543 8634,14561 8620,14562 8530,14577 8362,14603 "/>
  <polygon fill="#DE4BC9" fill-opacity="0.501961" stroke="#DE4BC9" stroke-width="89.7534" stroke-linecap="square" stroke-linejoin="round" stroke-opacity="0.501961" points="13971,10505 12674,9881 12759,9694 12892,9361 13004,9021 13051,8858 13136,8497 13170,8312 13183,8236 13219,7962 13231,7831 13251,7527 13253,7408 13253,7212 13247,7060 13239,6910 13224,6753 13206,6590 13186,6445 13164,6307 13138,6172 13109,6034 13062,5840 13037,5743 13008,5646 12957,5480 12901,5323 12843,5164 12795,5047 12735,4912 12672,4777 13971,4154 14092,4422 14149,4553 14257,4836 14307,4979 14344,5098 14404,5294 14436,5408 14470,5527 14501,5666 14515,5716 14539,5838 14565,5967 14586,6082 14596,6138 14613,6241 14634,6389 14648,6523 14662,6652 14672,6792 14680,6920 14690,7065 14692,7214 14693,7331 14692,7457 14686,7628 14680,7749 14672,7868 14658,8029 14644,8170 14640,8216 14622,8352 14601,8491 14588,8585 14561,8716 14539,8833 14501,8998 14474,9111 14438,9249 14392,9416 14373,9475 14348,9561 14327,9624 14290,9734 14252,9833 14249,9847 14216,9932 14155,10089 "/>
  <polygon fill="#DE4BC9" fill-opacity="0.501961" stroke="#DE4BC9" stroke-width="89.7534" stroke-linecap="square" stroke-linejoin="round" stroke-opacity="0.501961" points="13412,3183 12221,3997 12104,3828 11882,3546 11642,3278 11527,3157 11255,2902 11112,2780 11053,2731 10832,2562 10724,2487 10470,2319 10370,2257 10199,2160 10064,2088 9930,2020 9788,1953 9638,1889 9503,1834 9370,1784 9240,1739 9108,1693 8916,1638 8819,1612 8722,1588 8551,1550 8386,1519 8220,1491 8094,1475 7949,1457 7801,1445 7910,7 8202,36 8343,54 8644,101 8795,128 8914,157 9114,202 9229,233 9349,263 9485,304 9535,318 9654,356 9775,398 9886,439 9940,458 10039,495 10178,552 10299,604 10420,658 10545,719 10661,776 10789,840 10922,914 11023,971 11132,1035 11277,1127 11377,1191 11478,1257 11611,1350 11725,1432 11763,1461 11871,1544 11980,1630 12055,1690 12156,1778 12247,1856 12369,1971 12456,2051 12555,2150 12678,2274 12720,2319 12782,2386 12825,2435 12903,2523 12968,2602 12979,2614 13037,2683 13141,2815 "/>
  <polygon fill="#DE4BC9" fill-opacity="0.501961" stroke="#DE4BC9" stroke-width="89.7534" stroke-linecap="square" stroke-linejoin="round" stroke-opacity="0.501961" points="6789,7 6899,1445 6693,1463 6340,1513 5987,1586 5824,1628 5469,1735 5290,1797 5219,1824 4963,1930 4843,1986 4570,2122 4467,2179 4297,2278 4167,2356 4041,2440 3913,2529 3780,2628 3667,2718 3558,2806 3453,2896 3348,2991 3203,3128 3133,3198 3064,3271 2946,3398 2837,3525 2729,3656 2652,3757 2564,3874 2478,3997 1290,3183 1459,2946 1544,2830 1737,2596 1836,2478 1919,2388 2060,2239 2143,2155 2229,2065 2332,1968 2370,1932 2462,1849 2560,1763 2651,1688 2695,1650 2776,1582 2894,1491 3001,1414 3108,1336 3223,1257 3330,1185 3451,1104 3578,1028 3678,969 3790,907 3941,826 4048,773 4155,719 4302,650 4430,593 4473,574 4600,520 4729,471 4820,434 4945,391 5058,353 5219,302 5330,270 5467,231 5636,187 5697,175 5785,155 5848,140 5963,118 6066,99 6080,97 6170,82 6336,58 "/>
 </g>
</svg>
