<?xml version="1.0" encoding="UTF-8"?>
<!DOCTYPE svg PUBLIC "-//W3C//DTD SVG 1.0//EN" "http://www.w3.org/TR/2001/REC-SVG-20010904/DTD/svg10.dtd">
<!-- Creator: CorelDRAW X6 -->
<svg xmlns="http://www.w3.org/2000/svg" xml:space="preserve" width="48px" height="42px" version="1.0" shape-rendering="geometricPrecision" text-rendering="geometricPrecision" image-rendering="optimizeQuality" fill-rule="evenodd" clip-rule="evenodd"
viewBox="0 0 4800 4185"
 xmlns:xlink="http://www.w3.org/1999/xlink">
 <g id="_0520.cgm:type:overlay">
  <metadata id="CorelCorpID_0Corel-Layer"/>
  <IC_ColorNameTable/>
  <PictureProperties/>
  <polyline fill="none" fill-opacity="0.501961" stroke="#DE4BC9" stroke-width="236.393" stroke-linecap="round" stroke-linejoin="round" stroke-opacity="0.501961" points="1513,3478 3287,3478 4174,1942 3287,406 1513,406 626,1942 1513,3478 "/>
  <polygon fill="#DE4BC9" fill-opacity="0.501961" stroke="#DE4BC9" stroke-width="210.732" stroke-linecap="square" stroke-linejoin="round" stroke-opacity="0.501961" points="1513,3478 1513,4080 3287,4080 3287,3478 "/>
  <polygon fill="#DE4BC9" fill-opacity="0.501961" stroke="#DE4BC9" stroke-width="210.732" stroke-linecap="square" stroke-linejoin="round" stroke-opacity="0.501961" points="4174,1942 4695,1641 3808,105 3287,406 "/>
  <polygon fill="#DE4BC9" fill-opacity="0.501961" stroke="#DE4BC9" stroke-width="210.732" stroke-linecap="square" stroke-linejoin="round" stroke-opacity="0.501961" points="1513,406 992,105 105,1641 626,1942 "/>
  <path fill="#DE4BC9" fill-opacity="0.501961" stroke="#DE4BC9" stroke-width="90.1109" stroke-linecap="square" stroke-linejoin="round" stroke-opacity="0.501961" d="M2873 1842c0,-261 -212,-473 -473,-473 -261,0 -473,212 -473,473 0,261 212,473 473,473 261,0 473,-212 473,-473z"/>
 </g>
</svg>
