<?xml version="1.0" encoding="UTF-8"?>
<!DOCTYPE svg PUBLIC "-//W3C//DTD SVG 1.0//EN" "http://www.w3.org/TR/2001/REC-SVG-20010904/DTD/svg10.dtd">
<!-- Creator: CorelDRAW X6 -->
<svg xmlns="http://www.w3.org/2000/svg" xml:space="preserve" width="184px" height="75px" version="1.0" shape-rendering="geometricPrecision" text-rendering="geometricPrecision" image-rendering="optimizeQuality" fill-rule="evenodd" clip-rule="evenodd"
viewBox="0 0 18400 7455"
 xmlns:xlink="http://www.w3.org/1999/xlink">
 <g id="_0680.cgm:type:overlay">
  <metadata id="CorelCorpID_0Corel-Layer"/>
  <IC_ColorNameTable/>
  <PictureProperties/>
  <path fill="#EAFFF4" fill-opacity="0.501961" d="M1151 6658c-111,-306 -450,-465 -757,-353 -307,111 -465,450 -353,757 111,306 450,465 757,353 306,-111 465,-450 353,-757z"/>
  <path fill="#EAFFF4" fill-opacity="0.501961" d="M3606 5764c-111,-306 -450,-465 -757,-353 -307,111 -465,450 -353,757 111,306 450,465 757,353 307,-111 465,-450 353,-756z"/>
  <path fill="#EAFFF4" fill-opacity="0.501961" d="M6062 4870c-112,-306 -451,-465 -758,-353 -306,111 -464,450 -352,756 112,306 451,465 758,353 306,-111 464,-450 352,-757z"/>
  <path fill="#EAFFF4" fill-opacity="0.501961" d="M8516 3977c-112,-306 -451,-465 -757,-353 -306,111 -463,450 -351,756 112,307 451,465 757,353 306,-111 463,-450 351,-757z"/>
  <path fill="#EAFFF4" fill-opacity="0.501961" d="M10972 3082c-112,-307 -451,-464 -757,-352 -306,112 -463,451 -351,758 112,306 451,464 757,352 306,-112 463,-451 351,-758z"/>
  <path fill="#EAFFF4" fill-opacity="0.501961" d="M13448 2181c-112,-306 -451,-464 -758,-352 -306,111 -464,450 -352,755 112,306 451,464 758,352 307,-111 464,-449 352,-755z"/>
  <path fill="#EAFFF4" fill-opacity="0.501961" d="M15904 1288c-112,-307 -451,-465 -758,-353 -306,111 -464,450 -352,757 112,306 451,465 758,353 306,-111 464,-450 352,-756z"/>
  <path fill="#EAFFF4" fill-opacity="0.501961" d="M18358 394c-112,-306 -451,-465 -757,-353 -306,111 -463,450 -351,756 112,306 451,465 757,353 306,-111 463,-450 351,-757z"/>
 </g>
</svg>
