<?xml version="1.0" encoding="UTF-8"?>
<!DOCTYPE svg PUBLIC "-//W3C//DTD SVG 1.0//EN" "http://www.w3.org/TR/2001/REC-SVG-20010904/DTD/svg10.dtd">
<!-- Creator: CorelDRAW X6 -->
<svg xmlns="http://www.w3.org/2000/svg" xml:space="preserve" width="653px" height="245px" version="1.0" shape-rendering="geometricPrecision" text-rendering="geometricPrecision" image-rendering="optimizeQuality" fill-rule="evenodd" clip-rule="evenodd"
viewBox="0 0 65300 24516"
 xmlns:xlink="http://www.w3.org/1999/xlink">
 <g id="_0704.cgm:type:overlay">
  <metadata id="CorelCorpID_0Corel-Layer"/>
  <IC_ColorNameTable/>
  <PictureProperties/>
  <path fill="none" fill-opacity="0.501961" stroke="#969F99" stroke-width="297.203" stroke-linecap="square" stroke-linejoin="round" stroke-opacity="0.501961" d="M4711 22548c87,484 547,805 1028,719 481,-87 801,-549 715,-1032 -87,-484 -547,-805 -1028,-719 -481,87 -801,549 -715,1032z"/>
  <path fill="none" fill-opacity="0.501961" stroke="#969F99" stroke-width="297.203" stroke-linecap="square" stroke-linejoin="round" stroke-opacity="0.501961" d="M13242 18833c-282,401 -186,954 213,1233 399,279 951,181 1233,-221 282,-401 186,-954 -213,-1233 -399,-279 -951,-181 -1233,221z"/>
  <path fill="none" fill-opacity="0.501961" stroke="#969F99" stroke-width="297.203" stroke-linecap="square" stroke-linejoin="round" stroke-opacity="0.501961" d="M23223 16134c84,481 -239,940 -723,1024 -484,84 -944,-238 -1028,-719 -84,-481 239,-940 723,-1024 484,-84 944,238 1028,719z"/>
  <path fill="none" fill-opacity="0.501961" stroke="#969F99" stroke-width="297.203" stroke-linecap="square" stroke-linejoin="round" stroke-opacity="0.501961" d="M31461 13744c-279,399 -832,495 -1233,213 -401,-282 -500,-834 -221,-1233 279,-399 832,-495 1233,-213 401,282 500,834 221,1233z"/>
  <path fill="none" fill-opacity="0.501961" stroke="#969F99" stroke-width="297.203" stroke-linecap="square" stroke-linejoin="round" stroke-opacity="0.501961" d="M38253 9993c-106,479 194,954 671,1060 477,106 950,-196 1056,-675 106,-479 -194,-954 -671,-1060 -477,-106 -950,196 -1056,675z"/>
  <path fill="none" fill-opacity="0.501961" stroke="#969F99" stroke-width="297.203" stroke-linecap="square" stroke-linejoin="round" stroke-opacity="0.501961" d="M46631 7290c84,481 543,801 1024,715 481,-87 803,-547 719,-1028 -84,-481 -543,-801 -1024,-715 -481,87 -803,547 -719,1028z"/>
  <path fill="none" fill-opacity="0.501961" stroke="#969F99" stroke-width="297.203" stroke-linecap="square" stroke-linejoin="round" stroke-opacity="0.501961" d="M56761 3928c84,481 -239,940 -723,1024 -483,84 -944,-238 -1028,-719 -84,-481 239,-940 723,-1024 484,-84 944,238 1028,719z"/>
  <path fill="none" fill-opacity="0.501961" stroke="#969F99" stroke-width="297.203" stroke-linecap="square" stroke-linejoin="round" stroke-opacity="0.501961" d="M64999 1538c-279,399 -832,495 -1233,213 -401,-282 -500,-834 -221,-1233 279,-399 832,-495 1233,-213 401,282 500,834 221,1233z"/>
  <line fill="none" fill-opacity="0.501961" stroke="#969F99" stroke-width="297.203" stroke-opacity="0.501961" x1="149" y1="24368" x2="4711" y2= "22548" />
  <line fill="none" fill-opacity="0.501961" stroke="#969F99" stroke-width="297.203" stroke-opacity="0.501961" x1="8531" y1="21315" x2="12985" y2= "19697" />
  <line fill="none" fill-opacity="0.501961" stroke="#969F99" stroke-width="297.203" stroke-opacity="0.501961" x1="17331" y1="18114" x2="21372" y2= "16644" />
  <line fill="none" fill-opacity="0.501961" stroke="#969F99" stroke-width="297.203" stroke-opacity="0.501961" x1="25312" y1="15210" x2="29754" y2= "13592" />
  <line fill="none" fill-opacity="0.501961" stroke="#969F99" stroke-width="297.203" stroke-opacity="0.501961" x1="33698" y1="12158" x2="38136" y2= "10543" />
  <line fill="none" fill-opacity="0.501961" stroke="#969F99" stroke-width="297.203" stroke-opacity="0.501961" x1="42081" y1="9105" x2="46631" y2= "7290" />
  <line fill="none" fill-opacity="0.501961" stroke="#969F99" stroke-width="297.203" stroke-opacity="0.501961" x1="50451" y1="6057" x2="54905" y2= "4438" />
  <line fill="none" fill-opacity="0.501961" stroke="#969F99" stroke-width="297.203" stroke-opacity="0.501961" x1="58838" y1="3008" x2="63292" y2= "1386" />
 </g>
</svg>
