<?xml version="1.0" encoding="UTF-8"?>
<!DOCTYPE svg PUBLIC "-//W3C//DTD SVG 1.0//EN" "http://www.w3.org/TR/2001/REC-SVG-20010904/DTD/svg10.dtd">
<!-- Creator: CorelDRAW X6 -->
<svg xmlns="http://www.w3.org/2000/svg" xml:space="preserve" width="2852px" height="1046px" version="1.0" shape-rendering="geometricPrecision" text-rendering="geometricPrecision" image-rendering="optimizeQuality" fill-rule="evenodd" clip-rule="evenodd"
viewBox="0 0 285200 104636"
 xmlns:xlink="http://www.w3.org/1999/xlink">
 <g id="_0735.cgm:type:overlay">
  <metadata id="CorelCorpID_0Corel-Layer"/>
  <IC_ColorNameTable/>
  <PictureProperties/>
  <line fill="none" fill-opacity="0.501961" stroke="#DE4BC9" stroke-width="298.827" stroke-opacity="0.501961" x1="158" y1="103827" x2="6821" y2= "101401" />
  <line fill="none" fill-opacity="0.501961" stroke="#DE4BC9" stroke-width="298.827" stroke-opacity="0.501961" x1="1811" y1="103230" x2="4166" y2= "104478" />
  <line fill="none" fill-opacity="0.501961" stroke="#DE4BC9" stroke-width="298.827" stroke-opacity="0.501961" x1="5151" y1="102016" x2="4166" y2= "104478" />
  <line fill="none" fill-opacity="0.501961" stroke="#DE4BC9" stroke-width="298.827" stroke-opacity="0.501961" x1="9212" y1="101384" x2="13800" y2= "99714" />
  <path fill="none" fill-opacity="0.501961" stroke="#DE4BC9" stroke-width="298.827" stroke-linecap="square" stroke-linejoin="round" stroke-opacity="0.501961" d="M16051 98887c-223,-612 -900,-926 -1512,-703 -612,223 -926,900 -703,1512 223,612 900,926 1512,703 612,-223 926,-900 703,-1512z"/>
  <line fill="none" fill-opacity="0.501961" stroke="#DE4BC9" stroke-width="298.827" stroke-opacity="0.501961" x1="18248" y1="97252" x2="24911" y2= "94826" />
  <line fill="none" fill-opacity="0.501961" stroke="#DE4BC9" stroke-width="298.827" stroke-opacity="0.501961" x1="19901" y1="96637" x2="22256" y2= "97903" />
  <line fill="none" fill-opacity="0.501961" stroke="#DE4BC9" stroke-width="298.827" stroke-opacity="0.501961" x1="23241" y1="95424" x2="22256" y2= "97903" />
  <line fill="none" fill-opacity="0.501961" stroke="#DE4BC9" stroke-width="298.827" stroke-opacity="0.501961" x1="27144" y1="94018" x2="33806" y2= "91592" />
  <line fill="none" fill-opacity="0.501961" stroke="#DE4BC9" stroke-width="298.827" stroke-opacity="0.501961" x1="28814" y1="93402" x2="31152" y2= "94650" />
  <line fill="none" fill-opacity="0.501961" stroke="#DE4BC9" stroke-width="298.827" stroke-opacity="0.501961" x1="32136" y1="92189" x2="31152" y2= "94650" />
  <line fill="none" fill-opacity="0.501961" stroke="#DE4BC9" stroke-width="298.827" stroke-opacity="0.501961" x1="36338" y1="90660" x2="43001" y2= "88234" />
  <line fill="none" fill-opacity="0.501961" stroke="#DE4BC9" stroke-width="298.827" stroke-opacity="0.501961" x1="37990" y1="90062" x2="40346" y2= "91310" />
  <line fill="none" fill-opacity="0.501961" stroke="#DE4BC9" stroke-width="298.827" stroke-opacity="0.501961" x1="41331" y1="88849" x2="40346" y2= "91310" />
  <line fill="none" fill-opacity="0.501961" stroke="#DE4BC9" stroke-width="298.827" stroke-opacity="0.501961" x1="45093" y1="88322" x2="49699" y2= "86652" />
  <path fill="none" fill-opacity="0.501961" stroke="#DE4BC9" stroke-width="298.827" stroke-linecap="square" stroke-linejoin="round" stroke-opacity="0.501961" d="M51949 85825c-223,-612 -900,-926 -1512,-703 -612,223 -926,900 -703,1512 223,612 900,926 1512,703 612,-223 926,-900 703,-1512z"/>
  <line fill="none" fill-opacity="0.501961" stroke="#DE4BC9" stroke-width="298.827" stroke-opacity="0.501961" x1="54129" y1="84190" x2="60792" y2= "81764" />
  <line fill="none" fill-opacity="0.501961" stroke="#DE4BC9" stroke-width="298.827" stroke-opacity="0.501961" x1="55799" y1="83575" x2="58137" y2= "84841" />
  <line fill="none" fill-opacity="0.501961" stroke="#DE4BC9" stroke-width="298.827" stroke-opacity="0.501961" x1="59122" y1="82362" x2="58137" y2= "84841" />
  <line fill="none" fill-opacity="0.501961" stroke="#DE4BC9" stroke-width="298.827" stroke-opacity="0.501961" x1="63042" y1="80938" x2="69687" y2= "78530" />
  <line fill="none" fill-opacity="0.501961" stroke="#DE4BC9" stroke-width="298.827" stroke-opacity="0.501961" x1="64694" y1="80340" x2="67050" y2= "81589" />
  <line fill="none" fill-opacity="0.501961" stroke="#DE4BC9" stroke-width="298.827" stroke-opacity="0.501961" x1="68035" y1="79127" x2="67050" y2= "81589" />
  <line fill="none" fill-opacity="0.501961" stroke="#DE4BC9" stroke-width="298.827" stroke-opacity="0.501961" x1="72219" y1="77598" x2="78881" y2= "75172" />
  <line fill="none" fill-opacity="0.501961" stroke="#DE4BC9" stroke-width="298.827" stroke-opacity="0.501961" x1="73889" y1="77000" x2="76227" y2= "78248" />
  <line fill="none" fill-opacity="0.501961" stroke="#DE4BC9" stroke-width="298.827" stroke-opacity="0.501961" x1="77211" y1="75787" x2="76227" y2= "78248" />
  <line fill="none" fill-opacity="0.501961" stroke="#DE4BC9" stroke-width="298.827" stroke-opacity="0.501961" x1="80991" y1="75260" x2="85579" y2= "73572" />
  <path fill="none" fill-opacity="0.501961" stroke="#DE4BC9" stroke-width="298.827" stroke-linecap="square" stroke-linejoin="round" stroke-opacity="0.501961" d="M87847 72763c-223,-612 -900,-926 -1512,-703 -612,223 -926,900 -703,1512 223,612 900,926 1512,703 612,-223 926,-900 703,-1512z"/>
  <line fill="none" fill-opacity="0.501961" stroke="#DE4BC9" stroke-width="298.827" stroke-opacity="0.501961" x1="90027" y1="71128" x2="96690" y2= "68702" />
  <line fill="none" fill-opacity="0.501961" stroke="#DE4BC9" stroke-width="298.827" stroke-opacity="0.501961" x1="91697" y1="70513" x2="94035" y2= "71779" />
  <line fill="none" fill-opacity="0.501961" stroke="#DE4BC9" stroke-width="298.827" stroke-opacity="0.501961" x1="95020" y1="69300" x2="94035" y2= "71779" />
  <line fill="none" fill-opacity="0.501961" stroke="#DE4BC9" stroke-width="298.827" stroke-opacity="0.501961" x1="98923" y1="67876" x2="105585" y2= "65450" />
  <line fill="none" fill-opacity="0.501961" stroke="#DE4BC9" stroke-width="298.827" stroke-opacity="0.501961" x1="100593" y1="67278" x2="102931" y2= "68527" />
  <line fill="none" fill-opacity="0.501961" stroke="#DE4BC9" stroke-width="298.827" stroke-opacity="0.501961" x1="103915" y1="66065" x2="102931" y2= "68527" />
  <line fill="none" fill-opacity="0.501961" stroke="#DE4BC9" stroke-width="298.827" stroke-opacity="0.501961" x1="108117" y1="64536" x2="114780" y2= "62110" />
  <line fill="none" fill-opacity="0.501961" stroke="#DE4BC9" stroke-width="298.827" stroke-opacity="0.501961" x1="109787" y1="63938" x2="112125" y2= "65186" />
  <line fill="none" fill-opacity="0.501961" stroke="#DE4BC9" stroke-width="298.827" stroke-opacity="0.501961" x1="113110" y1="62725" x2="112125" y2= "65186" />
  <line fill="none" fill-opacity="0.501961" stroke="#DE4BC9" stroke-width="298.827" stroke-opacity="0.501961" x1="116889" y1="62180" x2="121478" y2= "60510" />
  <path fill="none" fill-opacity="0.501961" stroke="#DE4BC9" stroke-width="298.827" stroke-linecap="square" stroke-linejoin="round" stroke-opacity="0.501961" d="M123728 59701c-223,-621 -900,-944 -1512,-721 -612,223 -926,908 -703,1529 223,621 900,944 1512,721 612,-223 927,-908 703,-1529z"/>
  <line fill="none" fill-opacity="0.501961" stroke="#DE4BC9" stroke-width="298.827" stroke-opacity="0.501961" x1="125925" y1="58067" x2="132571" y2= "55640" />
  <line fill="none" fill-opacity="0.501961" stroke="#DE4BC9" stroke-width="298.827" stroke-opacity="0.501961" x1="127578" y1="57451" x2="129934" y2= "58699" />
  <line fill="none" fill-opacity="0.501961" stroke="#DE4BC9" stroke-width="298.827" stroke-opacity="0.501961" x1="130918" y1="56238" x2="129934" y2= "58699" />
  <line fill="none" fill-opacity="0.501961" stroke="#DE4BC9" stroke-width="298.827" stroke-opacity="0.501961" x1="134821" y1="54814" x2="141484" y2= "52388" />
  <line fill="none" fill-opacity="0.501961" stroke="#DE4BC9" stroke-width="298.827" stroke-opacity="0.501961" x1="136491" y1="54217" x2="138829" y2= "55465" />
  <line fill="none" fill-opacity="0.501961" stroke="#DE4BC9" stroke-width="298.827" stroke-opacity="0.501961" x1="139814" y1="53003" x2="138829" y2= "55465" />
  <line fill="none" fill-opacity="0.501961" stroke="#DE4BC9" stroke-width="298.827" stroke-opacity="0.501961" x1="144015" y1="51474" x2="150660" y2= "49048" />
  <line fill="none" fill-opacity="0.501961" stroke="#DE4BC9" stroke-width="298.827" stroke-opacity="0.501961" x1="145668" y1="50876" x2="148023" y2= "52125" />
  <line fill="none" fill-opacity="0.501961" stroke="#DE4BC9" stroke-width="298.827" stroke-opacity="0.501961" x1="149008" y1="49663" x2="148023" y2= "52125" />
  <line fill="none" fill-opacity="0.501961" stroke="#DE4BC9" stroke-width="298.827" stroke-opacity="0.501961" x1="152770" y1="49118" x2="157376" y2= "47448" />
  <path fill="none" fill-opacity="0.501961" stroke="#DE4BC9" stroke-width="298.827" stroke-linecap="square" stroke-linejoin="round" stroke-opacity="0.501961" d="M159626 46622c-223,-612 -900,-926 -1512,-703 -612,223 -926,900 -703,1512 223,612 900,927 1512,703 612,-223 927,-900 703,-1512z"/>
  <line fill="none" fill-opacity="0.501961" stroke="#DE4BC9" stroke-width="298.827" stroke-opacity="0.501961" x1="161806" y1="44987" x2="168469" y2= "42579" />
  <line fill="none" fill-opacity="0.501961" stroke="#DE4BC9" stroke-width="298.827" stroke-opacity="0.501961" x1="163476" y1="44389" x2="165814" y2= "45638" />
  <line fill="none" fill-opacity="0.501961" stroke="#DE4BC9" stroke-width="298.827" stroke-opacity="0.501961" x1="166799" y1="43176" x2="165814" y2= "45638" />
  <line fill="none" fill-opacity="0.501961" stroke="#DE4BC9" stroke-width="298.827" stroke-opacity="0.501961" x1="170719" y1="41752" x2="177364" y2= "39326" />
  <line fill="none" fill-opacity="0.501961" stroke="#DE4BC9" stroke-width="298.827" stroke-opacity="0.501961" x1="172372" y1="41155" x2="174727" y2= "42403" />
  <line fill="none" fill-opacity="0.501961" stroke="#DE4BC9" stroke-width="298.827" stroke-opacity="0.501961" x1="175712" y1="39942" x2="174727" y2= "42403" />
  <line fill="none" fill-opacity="0.501961" stroke="#DE4BC9" stroke-width="298.827" stroke-opacity="0.501961" x1="179896" y1="38412" x2="186559" y2= "35986" />
  <line fill="none" fill-opacity="0.501961" stroke="#DE4BC9" stroke-width="298.827" stroke-opacity="0.501961" x1="181566" y1="37797" x2="183904" y2= "39063" />
  <line fill="none" fill-opacity="0.501961" stroke="#DE4BC9" stroke-width="298.827" stroke-opacity="0.501961" x1="184889" y1="36584" x2="183904" y2= "39063" />
  <line fill="none" fill-opacity="0.501961" stroke="#DE4BC9" stroke-width="298.827" stroke-opacity="0.501961" x1="188668" y1="36056" x2="193257" y2= "34386" />
  <path fill="none" fill-opacity="0.501961" stroke="#DE4BC9" stroke-width="298.827" stroke-linecap="square" stroke-linejoin="round" stroke-opacity="0.501961" d="M195524 33560c-223,-612 -900,-926 -1512,-703 -611,223 -926,900 -703,1512 223,612 900,926 1512,703 612,-223 926,-900 703,-1512z"/>
  <line fill="none" fill-opacity="0.501961" stroke="#DE4BC9" stroke-width="298.827" stroke-opacity="0.501961" x1="197704" y1="31925" x2="204367" y2= "29499" />
  <line fill="none" fill-opacity="0.501961" stroke="#DE4BC9" stroke-width="298.827" stroke-opacity="0.501961" x1="199374" y1="31327" x2="201713" y2= "32576" />
  <line fill="none" fill-opacity="0.501961" stroke="#DE4BC9" stroke-width="298.827" stroke-opacity="0.501961" x1="202697" y1="30114" x2="201713" y2= "32576" />
  <line fill="none" fill-opacity="0.501961" stroke="#DE4BC9" stroke-width="298.827" stroke-opacity="0.501961" x1="206600" y1="28690" x2="213263" y2= "26264" />
  <line fill="none" fill-opacity="0.501961" stroke="#DE4BC9" stroke-width="298.827" stroke-opacity="0.501961" x1="208270" y1="28093" x2="210608" y2= "29341" />
  <line fill="none" fill-opacity="0.501961" stroke="#DE4BC9" stroke-width="298.827" stroke-opacity="0.501961" x1="211593" y1="26880" x2="210608" y2= "29341" />
  <line fill="none" fill-opacity="0.501961" stroke="#DE4BC9" stroke-width="298.827" stroke-opacity="0.501961" x1="215794" y1="25350" x2="222457" y2= "22924" />
  <line fill="none" fill-opacity="0.501961" stroke="#DE4BC9" stroke-width="298.827" stroke-opacity="0.501961" x1="217464" y1="24735" x2="219802" y2= "26001" />
  <line fill="none" fill-opacity="0.501961" stroke="#DE4BC9" stroke-width="298.827" stroke-opacity="0.501961" x1="220787" y1="23522" x2="219802" y2= "26001" />
  <line fill="none" fill-opacity="0.501961" stroke="#DE4BC9" stroke-width="298.827" stroke-opacity="0.501961" x1="224567" y1="22995" x2="229155" y2= "21324" />
  <path fill="none" fill-opacity="0.501961" stroke="#DE4BC9" stroke-width="298.827" stroke-linecap="square" stroke-linejoin="round" stroke-opacity="0.501961" d="M231405 20498c-223,-612 -900,-927 -1512,-703 -612,223 -926,900 -703,1512 223,612 900,926 1512,703 612,-223 927,-900 703,-1512z"/>
  <line fill="none" fill-opacity="0.501961" stroke="#DE4BC9" stroke-width="298.827" stroke-opacity="0.501961" x1="233603" y1="18863" x2="240248" y2= "16437" />
  <line fill="none" fill-opacity="0.501961" stroke="#DE4BC9" stroke-width="298.827" stroke-opacity="0.501961" x1="235255" y1="18266" x2="237611" y2= "19514" />
  <line fill="none" fill-opacity="0.501961" stroke="#DE4BC9" stroke-width="298.827" stroke-opacity="0.501961" x1="238595" y1="17052" x2="237611" y2= "19514" />
  <line fill="none" fill-opacity="0.501961" stroke="#DE4BC9" stroke-width="298.827" stroke-opacity="0.501961" x1="242498" y1="15629" x2="249161" y2= "13202" />
  <line fill="none" fill-opacity="0.501961" stroke="#DE4BC9" stroke-width="298.827" stroke-opacity="0.501961" x1="244168" y1="15013" x2="246506" y2= "16279" />
  <line fill="none" fill-opacity="0.501961" stroke="#DE4BC9" stroke-width="298.827" stroke-opacity="0.501961" x1="247491" y1="13818" x2="246506" y2= "16279" />
  <line fill="none" fill-opacity="0.501961" stroke="#DE4BC9" stroke-width="298.827" stroke-opacity="0.501961" x1="251693" y1="12288" x2="258338" y2= "9862" />
  <line fill="none" fill-opacity="0.501961" stroke="#DE4BC9" stroke-width="298.827" stroke-opacity="0.501961" x1="253345" y1="11673" x2="255701" y2= "12939" />
  <line fill="none" fill-opacity="0.501961" stroke="#DE4BC9" stroke-width="298.827" stroke-opacity="0.501961" x1="256685" y1="10460" x2="255701" y2= "12939" />
  <line fill="none" fill-opacity="0.501961" stroke="#DE4BC9" stroke-width="298.827" stroke-opacity="0.501961" x1="260447" y1="9933" x2="265053" y2= "8263" />
  <path fill="none" fill-opacity="0.501961" stroke="#DE4BC9" stroke-width="298.827" stroke-linecap="square" stroke-linejoin="round" stroke-opacity="0.501961" d="M267304 7436c-223,-612 -900,-926 -1512,-703 -612,223 -927,900 -703,1512 223,612 900,927 1512,703 612,-223 926,-900 703,-1512z"/>
  <line fill="none" fill-opacity="0.501961" stroke="#DE4BC9" stroke-width="298.827" stroke-opacity="0.501961" x1="269483" y1="5801" x2="276146" y2= "3375" />
  <line fill="none" fill-opacity="0.501961" stroke="#DE4BC9" stroke-width="298.827" stroke-opacity="0.501961" x1="271154" y1="5204" x2="273492" y2= "6452" />
  <line fill="none" fill-opacity="0.501961" stroke="#DE4BC9" stroke-width="298.827" stroke-opacity="0.501961" x1="274476" y1="3991" x2="273492" y2= "6452" />
  <line fill="none" fill-opacity="0.501961" stroke="#DE4BC9" stroke-width="298.827" stroke-opacity="0.501961" x1="278397" y1="2567" x2="285042" y2= "141" />
  <line fill="none" fill-opacity="0.501961" stroke="#DE4BC9" stroke-width="298.827" stroke-opacity="0.501961" x1="280049" y1="1951" x2="282405" y2= "3217" />
  <line fill="none" fill-opacity="0.501961" stroke="#DE4BC9" stroke-width="298.827" stroke-opacity="0.501961" x1="283389" y1="738" x2="282405" y2= "3217" />
 </g>
</svg>
