<?xml version="1.0" encoding="UTF-8"?>
<!DOCTYPE svg PUBLIC "-//W3C//DTD SVG 1.0//EN" "http://www.w3.org/TR/2001/REC-SVG-20010904/DTD/svg10.dtd">
<!-- Creator: CorelDRAW X6 -->
<svg xmlns="http://www.w3.org/2000/svg" xml:space="preserve" width="309px" height="126px" version="1.0" shape-rendering="geometricPrecision" text-rendering="geometricPrecision" image-rendering="optimizeQuality" fill-rule="evenodd" clip-rule="evenodd"
viewBox="0 0 30900 12590"
 xmlns:xlink="http://www.w3.org/1999/xlink">
 <g id="_0743.cgm:type:overlay">
  <metadata id="CorelCorpID_0Corel-Layer"/>
  <IC_ColorNameTable/>
  <PictureProperties/>
  <polygon fill="#6B716E" fill-opacity="0.501961" points="1034,10787 1115,11010 450,11252 773,12138 2104,11655 1781,10766 1115,11010 1034,10787 1922,10464 2406,11796 631,12441 147,11110 "/>
  <polygon fill="#6B716E" fill-opacity="0.501961" points="5117,9301 5196,9524 4531,9766 4854,10653 6185,10169 5863,9281 5196,9524 5117,9301 6003,8978 6489,10311 4714,10955 4228,9624 "/>
  <polygon fill="#6B716E" fill-opacity="0.501961" points="9165,7829 9247,8050 8581,8292 8903,9180 10235,8695 9912,7808 9247,8050 9165,7829 10054,7506 10538,8836 8763,9483 8277,8150 "/>
  <polygon fill="#6B716E" fill-opacity="0.501961" points="13214,6354 13295,6576 12630,6818 12953,7706 14284,7222 13961,6334 13295,6576 13214,6354 14102,6031 14586,7362 12811,8008 12328,6678 "/>
  <polygon fill="#6B716E" fill-opacity="0.501961" points="17265,4880 17344,5101 16679,5345 17002,6232 18332,5748 18009,4860 17344,5101 17265,4880 18151,4557 18635,5888 16860,6534 16376,5204 "/>
  <polygon fill="#6B716E" fill-opacity="0.501961" points="21313,3406 21394,3629 20729,3871 21051,4757 22383,4274 22060,3387 21394,3629 21313,3406 22200,3083 22685,4415 20911,5062 20425,3729 "/>
  <polygon fill="#6B716E" fill-opacity="0.501961" points="25362,1934 25443,2155 24778,2397 25101,3285 26432,2799 26108,1913 25443,2155 25362,1934 26250,1610 26734,2941 24959,3587 24475,2255 "/>
  <polygon fill="#6B716E" fill-opacity="0.501961" points="29380,471 29460,692 28794,936 29118,1822 30448,1338 30125,450 29460,692 29380,471 30267,147 30751,1478 28976,2125 28492,794 "/>
 </g>
</svg>
