<?xml version="1.0" encoding="UTF-8"?>
<!DOCTYPE svg PUBLIC "-//W3C//DTD SVG 1.0//EN" "http://www.w3.org/TR/2001/REC-SVG-20010904/DTD/svg10.dtd">
<!-- Creator: CorelDRAW X6 -->
<svg xmlns="http://www.w3.org/2000/svg" xml:space="preserve" width="75px" height="38px" version="1.0" shape-rendering="geometricPrecision" text-rendering="geometricPrecision" image-rendering="optimizeQuality" fill-rule="evenodd" clip-rule="evenodd"
viewBox="0 0 7500 3856"
 xmlns:xlink="http://www.w3.org/1999/xlink">
 <g id="_1233.cgm:type:overlay">
  <metadata id="CorelCorpID_0Corel-Layer"/>
  <IC_ColorNameTable/>
  <PictureProperties/>
  <line fill="none" fill-opacity="0.501961" stroke="#EAFFF4" stroke-width="210.654" stroke-linecap="round" stroke-linejoin="round" stroke-opacity="0.501961" x1="105" y1="3750" x2="7395" y2= "3750" />
  <polygon fill="#EAFFF4" fill-opacity="0.501961" stroke="#EAFFF4" stroke-width="90.1789" stroke-linecap="square" stroke-linejoin="round" stroke-opacity="0.501961" points="3174,2439 3174,475 3968,475 4134,483 4239,501 4344,540 4423,591 4492,663 4543,756 4571,855 4578,969 4564,1082 4531,1172 4494,1232 4445,1286 4353,1352 4297,1379 4201,1547 4113,1525 3953,1517 3441,1517 3441,2200 3983,2200 4144,2183 4222,2156 4283,2118 4334,2064 4372,2000 4392,1932 4398,1849 4389,1763 4368,1698 4325,1632 4265,1579 4201,1547 4297,1379 4214,1225 4259,1176 4292,1109 4307,1048 4310,976 4302,906 4284,854 4248,799 4201,756 4150,730 4080,709 3931,697 3441,697 3441,1300 3909,1300 4084,1285 4160,1259 4214,1225 4297,1379 4370,1397 4483,1452 4560,1523 4621,1617 4658,1723 4671,1852 4658,1979 4621,2097 4560,2203 4482,2291 4386,2358 4274,2405 4157,2430 4009,2439 "/>
  <polyline fill="none" fill-opacity="0.501961" stroke="#EAFFF4" stroke-width="210.654" stroke-linecap="round" stroke-linejoin="round" stroke-opacity="0.501961" points="3750,3750 1016,105 6484,105 3750,3750 "/>
 </g>
</svg>
