<?xml version="1.0" encoding="UTF-8"?>
<!DOCTYPE svg PUBLIC "-//W3C//DTD SVG 1.0//EN" "http://www.w3.org/TR/2001/REC-SVG-20010904/DTD/svg10.dtd">
<!-- Creator: CorelDRAW X6 -->
<svg xmlns="http://www.w3.org/2000/svg" xml:space="preserve" width="346px" height="165px" version="1.0" shape-rendering="geometricPrecision" text-rendering="geometricPrecision" image-rendering="optimizeQuality" fill-rule="evenodd" clip-rule="evenodd"
viewBox="0 0 34600 16542"
 xmlns:xlink="http://www.w3.org/1999/xlink">
 <g id="_1238.cgm:type:overlay">
  <metadata id="CorelCorpID_0Corel-Layer"/>
  <IC_ColorNameTable/>
  <PictureProperties/>
  <polygon fill="#EBB7EE" fill-opacity="0.501961" points="25249,16516 29964,16516 29964,5914 32319,5914 27608,25 22894,5914 25249,5914 "/>
  <polygon fill="#EBB7EE" fill-opacity="0.501961" points="10037,14291 7758,2631 8918,2631 10713,11962 12554,2631 13804,2631 15715,11887 17530,2631 18650,2631 16339,14291 15169,14291 13168,4672 11252,14291 "/>
  <polygon fill="#EBB7EE" fill-opacity="0.501961" points="26,14291 26,2631 3370,2631 3268,3976 3268,3976 1216,3976 1216,12870 3268,12870 3921,12800 4396,12617 4798,12312 5200,11792 5556,11021 5718,10462 5824,9877 5900,9050 5919,8216 5886,7481 5800,6751 5703,6260 5559,5789 5212,5077 4792,4551 4386,4246 3932,4060 3268,3976 3370,2631 4060,2683 4526,2785 4918,2940 5534,3348 6052,3918 6493,4704 6856,5784 7057,6902 7133,8290 7068,9688 6873,10839 6697,11467 6470,12064 6232,12536 5955,12965 5624,13353 5260,13676 4870,13929 4462,14108 3911,14244 3322,14291 "/>
  <polygon fill="#DE4BC9" fill-opacity="0.501961" points="21652,12251 21652,12049 21652,11881 21668,11697 21698,11546 21744,11394 21790,11294 21835,11194 21895,11094 21970,10992 22136,10791 22393,10538 22530,10389 22650,10271 22727,10153 22787,10070 22832,9968 22847,9885 22876,9783 22876,9683 22876,9583 22861,9498 22847,9415 22815,9330 22769,9247 22727,9162 22681,9079 22621,9013 22544,8944 22470,8895 22393,8845 22319,8793 22241,8760 22152,8744 22062,8726 21970,8726 21790,8744 21638,8793 21487,8878 21350,8994 21290,9062 21244,9129 21199,9231 21156,9313 21110,9431 21079,9549 21049,9665 21033,9801 20430,9718 20458,9533 20490,9365 20536,9214 20595,9062 20655,8928 20732,8793 20808,8693 20913,8575 21019,8492 21124,8408 21244,8341 21367,8292 21501,8239 21652,8207 21804,8190 21955,8190 22136,8190 22287,8223 22438,8256 22590,8292 22727,8358 22847,8424 22966,8509 23073,8608 23163,8726 23255,8826 23315,8944 23376,9079 23420,9214 23450,9349 23481,9481 23481,9632 23466,9801 23450,9968 23404,10119 23330,10271 23239,10422 23118,10590 22952,10775 22769,10976 22530,11227 22393,11394 22319,11529 22258,11697 22227,11915 22212,12251 21652,12251 21547,13544 21547,12803 22212,12803 22212,13544 21547,13544 "/>
  <polygon fill="#DE4BC9" fill-opacity="0.501961" points="32667,12251 32667,12049 32667,11881 32682,11697 32712,11546 32758,11394 32803,11294 32849,11194 32909,11094 32984,10992 33150,10791 33407,10538 33544,10389 33664,10271 33741,10153 33801,10070 33846,9968 33861,9885 33890,9783 33890,9683 33890,9583 33876,9498 33861,9415 33830,9330 33784,9247 33741,9162 33695,9079 33635,9013 33558,8944 33484,8895 33407,8845 33332,8793 33255,8760 33167,8744 33076,8726 32984,8726 32803,8744 32652,8793 32501,8878 32365,8994 32304,9062 32258,9129 32215,9231 32170,9313 32124,9431 32093,9549 32064,9665 32047,9801 31444,9718 31473,9533 31505,9365 31549,9214 31610,9062 31670,8928 31746,8793 31822,8693 31927,8575 32033,8492 32138,8408 32258,8341 32381,8292 32516,8239 32667,8207 32819,8190 32970,8190 33150,8190 33301,8223 33452,8256 33604,8292 33741,8358 33861,8424 33981,8509 34087,8608 34178,8726 34270,8826 34330,8944 34390,9079 34435,9214 34464,9349 34495,9481 34495,9632 34481,9801 34464,9968 34418,10119 34344,10271 34253,10422 34133,10590 33966,10775 33784,10976 33544,11227 33407,11394 33332,11529 33273,11697 33241,11915 33227,12251 32667,12251 32562,13544 32562,12803 33227,12803 33227,13544 32562,13544 "/>
 </g>
</svg>
