<?xml version="1.0" encoding="UTF-8"?>
<!DOCTYPE svg PUBLIC "-//W3C//DTD SVG 1.0//EN" "http://www.w3.org/TR/2001/REC-SVG-20010904/DTD/svg10.dtd">
<!-- Creator: CorelDRAW X6 -->
<svg xmlns="http://www.w3.org/2000/svg" xml:space="preserve" width="863px" height="336px" version="1.0" shape-rendering="geometricPrecision" text-rendering="geometricPrecision" image-rendering="optimizeQuality" fill-rule="evenodd" clip-rule="evenodd"
viewBox="0 0 86300 33585"
 xmlns:xlink="http://www.w3.org/1999/xlink">
 <g id="_1403.cgm:type:overlay">
  <metadata id="CorelCorpID_0Corel-Layer"/>
  <IC_ColorNameTable/>
  <PictureProperties/>
  <line fill="none" fill-opacity="0.501961" stroke="#EAFFF4" stroke-width="1062.81" stroke-opacity="0.501961" x1="534" y1="33051" x2="5583" y2= "31211" />
  <polyline fill="none" fill-opacity="0.501961" stroke="#EAFFF4" stroke-width="1062.81" stroke-opacity="0.501961" points="9353,32506 6144,31010 7640,27801 10850,29297 9353,32506 "/>
  <line fill="none" fill-opacity="0.501961" stroke="#EAFFF4" stroke-width="1062.81" stroke-opacity="0.501961" x1="11236" y1="29154" x2="16290" y2= "27320" />
  <polyline fill="none" fill-opacity="0.501961" stroke="#EAFFF4" stroke-width="1062.81" stroke-opacity="0.501961" points="20055,28610 16845,27113 18342,23904 21551,25400 20055,28610 "/>
  <line fill="none" fill-opacity="0.501961" stroke="#EAFFF4" stroke-width="1062.81" stroke-opacity="0.501961" x1="22027" y1="25231" x2="26992" y2= "23423" />
  <polyline fill="none" fill-opacity="0.501961" stroke="#EAFFF4" stroke-width="1062.81" stroke-opacity="0.501961" points="30757,24718 27547,23217 29043,20007 32258,21503 30757,24718 "/>
  <line fill="none" fill-opacity="0.501961" stroke="#EAFFF4" stroke-width="1062.81" stroke-opacity="0.501961" x1="32729" y1="21334" x2="37694" y2= "19526" />
  <polyline fill="none" fill-opacity="0.501961" stroke="#EAFFF4" stroke-width="1062.81" stroke-opacity="0.501961" points="41458,20821 38249,19325 39745,16111 42960,17612 41458,20821 "/>
  <line fill="none" fill-opacity="0.501961" stroke="#EAFFF4" stroke-width="1062.81" stroke-opacity="0.501961" x1="43430" y1="17437" x2="48395" y2= "15629" />
  <polyline fill="none" fill-opacity="0.501961" stroke="#EAFFF4" stroke-width="1062.81" stroke-opacity="0.501961" points="52165,16925 48950,15428 50446,12219 53661,13715 52165,16925 "/>
  <line fill="none" fill-opacity="0.501961" stroke="#EAFFF4" stroke-width="1062.81" stroke-opacity="0.501961" x1="54047" y1="13573" x2="59097" y2= "11738" />
  <polyline fill="none" fill-opacity="0.501961" stroke="#EAFFF4" stroke-width="1062.81" stroke-opacity="0.501961" points="62867,13033 59652,11532 61153,8322 64363,9819 62867,13033 "/>
  <line fill="none" fill-opacity="0.501961" stroke="#EAFFF4" stroke-width="1062.81" stroke-opacity="0.501961" x1="64749" y1="9681" x2="69798" y2= "7841" />
  <polyline fill="none" fill-opacity="0.501961" stroke="#EAFFF4" stroke-width="1062.81" stroke-opacity="0.501961" points="73568,9137 70359,7640 71855,4425 75064,5922 73568,9137 "/>
  <line fill="none" fill-opacity="0.501961" stroke="#EAFFF4" stroke-width="1062.81" stroke-opacity="0.501961" x1="75450" y1="5784" x2="80500" y2= "3944" />
  <polyline fill="none" fill-opacity="0.501961" stroke="#EAFFF4" stroke-width="1062.81" stroke-opacity="0.501961" points="84270,5240 81060,3743 82557,529 85766,2030 84270,5240 "/>
 </g>
</svg>
