<?xml version="1.0" encoding="UTF-8"?>
<!DOCTYPE svg PUBLIC "-//W3C//DTD SVG 1.0//EN" "http://www.w3.org/TR/2001/REC-SVG-20010904/DTD/svg10.dtd">
<!-- Creator: CorelDRAW X6 -->
<svg xmlns="http://www.w3.org/2000/svg" xml:space="preserve" width="61px" height="61px" version="1.0" shape-rendering="geometricPrecision" text-rendering="geometricPrecision" image-rendering="optimizeQuality" fill-rule="evenodd" clip-rule="evenodd"
viewBox="0 0 6100 6100"
 xmlns:xlink="http://www.w3.org/1999/xlink">
 <g id="_2101.cgm:type:overlay">
  <metadata id="CorelCorpID_0Corel-Layer"/>
  <IC_ColorNameTable/>
  <PictureProperties/>
  <polygon fill="#960000" fill-opacity="0.501961" stroke="#960000" stroke-width="89.3919" stroke-linecap="square" stroke-linejoin="round" stroke-opacity="0.501961" points="2042,4809 2042,1291 3094,1291 3221,1295 3476,1304 3689,1335 3913,1406 4095,1511 4254,1659 4360,1827 4414,2000 4436,2223 4414,2444 4360,2618 4264,2778 4131,2915 4013,2996 3855,3070 3704,3123 3634,2815 3762,2760 3891,2664 3975,2554 4022,2432 4042,2253 4025,2071 3981,1941 3894,1819 3773,1725 3658,1677 3467,1638 3142,1618 3027,1618 2425,1618 2425,2887 3013,2887 3124,2887 3441,2860 3634,2815 3704,3123 4531,4809 4066,4809 3294,3215 2425,3215 2425,4809 "/>
  <polyline fill="none" fill-opacity="0.501961" stroke="#960000" stroke-width="234.859" stroke-linecap="round" stroke-linejoin="round" stroke-opacity="0.501961" points="1877,117 4223,117 5983,1877 5983,4223 4223,5983 1877,5983 117,4223 117,1877 1877,117 "/>
 </g>
</svg>
