<?xml version="1.0" encoding="UTF-8"?>
<!DOCTYPE svg PUBLIC "-//W3C//DTD SVG 1.0//EN" "http://www.w3.org/TR/2001/REC-SVG-20010904/DTD/svg10.dtd">
<!-- Creator: CorelDRAW X6 -->
<svg xmlns="http://www.w3.org/2000/svg" xml:space="preserve" width="45px" height="68px" version="1.0" shape-rendering="geometricPrecision" text-rendering="geometricPrecision" image-rendering="optimizeQuality" fill-rule="evenodd" clip-rule="evenodd"
viewBox="0 0 4500 6833"
 xmlns:xlink="http://www.w3.org/1999/xlink">
 <g id="_2102.cgm:type:overlay">
  <metadata id="CorelCorpID_0Corel-Layer"/>
  <IC_ColorNameTable/>
  <PictureProperties/>
  <polygon fill="#EAFFF4" fill-opacity="0.501961" points="402,6471 402,5761 4421,5761 4421,6471 "/>
  <line fill="none" fill-opacity="0.501961" stroke="#EAFFF4" stroke-width="827.423" stroke-linecap="round" stroke-linejoin="round" stroke-opacity="0.501961" x1="993" y1="5761" x2="1564" y2= "3533" />
  <line fill="none" fill-opacity="0.501961" stroke="#EAFFF4" stroke-width="827.423" stroke-linecap="round" stroke-linejoin="round" stroke-opacity="0.501961" x1="3830" y1="5761" x2="3260" y2= "3533" />
  <line fill="none" fill-opacity="0.501961" stroke="#EAFFF4" stroke-width="827.423" stroke-linecap="round" stroke-linejoin="round" stroke-opacity="0.501961" x1="775" y1="414" x2="4086" y2= "2733" />
  <path fill="none" fill-opacity="0.501961" stroke="#EAFFF4" stroke-width="827.423" stroke-linecap="round" stroke-linejoin="round" stroke-opacity="0.501961" d="M792 383c-127,185 -242,415 -305,635 -306,1070 317,2193 1388,2499 812,232 1704,-71 2194,-752"/>
  <polygon fill="#EAFFF4" fill-opacity="0.501961" points="2746,1548 2415,1316 3227,158 3558,389 "/>
  <path fill="#EAFFF4" fill-opacity="0.501961" stroke="#EAFFF4" stroke-width="90.0709" stroke-linecap="square" stroke-linejoin="round" stroke-opacity="0.501961" d="M3121 6116c0,-392 -317,-709 -709,-709 -392,0 -709,317 -709,709 0,392 317,709 709,709 392,0 709,-317 709,-709z"/>
 </g>
</svg>
