<?xml version="1.0" encoding="UTF-8"?>
<!DOCTYPE svg PUBLIC "-//W3C//DTD SVG 1.0//EN" "http://www.w3.org/TR/2001/REC-SVG-20010904/DTD/svg10.dtd">
<!-- Creator: CorelDRAW X6 -->
<svg xmlns="http://www.w3.org/2000/svg" xml:space="preserve" width="26px" height="72px" version="1.0" shape-rendering="geometricPrecision" text-rendering="geometricPrecision" image-rendering="optimizeQuality" fill-rule="evenodd" clip-rule="evenodd"
viewBox="0 0 2600 7326"
 xmlns:xlink="http://www.w3.org/1999/xlink">
 <g id="_2248.cgm:type:overlay">
  <metadata id="CorelCorpID_0Corel-Layer"/>
  <IC_ColorNameTable/>
  <PictureProperties/>
  <path fill="#C8AA50" fill-opacity="0.501961" stroke="#C8AA50" stroke-width="91.6883" stroke-linecap="square" stroke-linejoin="round" stroke-opacity="0.501961" d="M2599 1204c0,-664 -539,-1203 -1203,-1203 -664,0 -1203,539 -1203,1203 0,664 539,1203 1203,1203 664,0 1203,-539 1203,-1203z"/>
  <line fill="none" fill-opacity="0.501961" stroke="#C8AA50" stroke-width="240.652" stroke-linecap="round" stroke-linejoin="round" stroke-opacity="0.501961" x1="1476" y1="2626" x2="1476" y2= "2405" />
  <path fill="none" fill-opacity="0.501961" stroke="#C8AA50" stroke-width="240.652" stroke-linecap="round" stroke-linejoin="round" stroke-opacity="0.501961" d="M1530 6469c30,4 69,7 102,7 466,3 848,-376 851,-842 3,-466 -376,-848 -842,-851 -53,0 -112,6 -162,16"/>
  <path fill="none" fill-opacity="0.501961" stroke="#C8AA50" stroke-width="240.652" stroke-linecap="round" stroke-linejoin="round" stroke-opacity="0.501961" d="M1077 3143c-285,-41 -578,72 -765,295 -299,357 -253,892 104,1192 190,159 447,228 689,186"/>
  <path fill="none" fill-opacity="0.501961" stroke="#C8AA50" stroke-width="240.652" stroke-linecap="round" stroke-linejoin="round" stroke-opacity="0.501961" d="M1071 3142c2,0 5,0 6,0 227,0 412,-185 412,-412 0,-32 -6,-69 -13,-100"/>
  <line fill="none" fill-opacity="0.501961" stroke="#C8AA50" stroke-width="240.652" stroke-linecap="round" stroke-linejoin="round" stroke-opacity="0.501961" x1="1165" y1="4802" x2="1466" y2= "4802" />
  <line fill="none" fill-opacity="0.501961" stroke="#C8AA50" stroke-width="240.652" stroke-linecap="round" stroke-linejoin="round" stroke-opacity="0.501961" x1="1153" y1="6984" x2="1153" y2= "7206" />
  <path fill="none" fill-opacity="0.501961" stroke="#C8AA50" stroke-width="240.652" stroke-linecap="round" stroke-linejoin="round" stroke-opacity="0.501961" d="M1523 6470c-214,15 -383,195 -383,410 0,35 6,72 14,106"/>
 </g>
</svg>
