<?xml version="1.0" encoding="UTF-8"?>
<!DOCTYPE svg PUBLIC "-//W3C//DTD SVG 1.0//EN" "http://www.w3.org/TR/2001/REC-SVG-20010904/DTD/svg10.dtd">
<!-- Creator: CorelDRAW X6 -->
<svg xmlns="http://www.w3.org/2000/svg" xml:space="preserve" width="32px" height="46px" version="1.0" shape-rendering="geometricPrecision" text-rendering="geometricPrecision" image-rendering="optimizeQuality" fill-rule="evenodd" clip-rule="evenodd"
viewBox="0 0 3200 4602"
 xmlns:xlink="http://www.w3.org/1999/xlink">
 <g id="_2249.cgm:type:overlay">
  <metadata id="CorelCorpID_0Corel-Layer"/>
  <IC_ColorNameTable/>
  <PictureProperties/>
  <polygon fill="#EAFFF4" fill-opacity="0.501961" stroke="#EAFFF4" stroke-width="90.0576" stroke-linecap="square" stroke-linejoin="round" stroke-opacity="0.501961" points="2888,4601 2693,4316 2541,4061 2406,3793 2258,3421 2162,3078 2105,2721 2084,2301 2105,1881 2162,1524 2258,1181 2406,809 2541,540 2693,285 2888,1 3199,1 3034,305 2888,605 2786,854 2678,1186 2595,1550 2540,1938 2523,2300 2540,2662 2595,3052 2678,3416 2786,3747 2888,3996 3034,4297 3199,4601 "/>
  <polygon fill="#EAFFF4" fill-opacity="0.501961" stroke="#EAFFF4" stroke-width="90.0576" stroke-linecap="square" stroke-linejoin="round" stroke-opacity="0.501961" points="312,4601 1,4601 166,4297 312,3996 415,3747 522,3416 605,3052 660,2662 677,2300 660,1938 605,1550 522,1186 415,854 312,605 166,305 1,1 312,1 507,285 659,540 794,809 942,1181 1038,1524 1095,1881 1116,2301 1095,2721 1038,3078 942,3421 794,3793 659,4061 507,4316 "/>
 </g>
</svg>
