<?xml version="1.0" encoding="UTF-8"?>
<!DOCTYPE svg PUBLIC "-//W3C//DTD SVG 1.0//EN" "http://www.w3.org/TR/2001/REC-SVG-20010904/DTD/svg10.dtd">
<!-- Creator: CorelDRAW X6 -->
<svg xmlns="http://www.w3.org/2000/svg" xml:space="preserve" width="73px" height="73px" version="1.0" shape-rendering="geometricPrecision" text-rendering="geometricPrecision" image-rendering="optimizeQuality" fill-rule="evenodd" clip-rule="evenodd"
viewBox="0 0 7300 7300"
 xmlns:xlink="http://www.w3.org/1999/xlink">
 <g id="_2320.cgm:type:overlay">
  <metadata id="CorelCorpID_0Corel-Layer"/>
  <IC_ColorNameTable/>
  <PictureProperties/>
  <path fill="none" fill-opacity="0.501961" stroke="blue" stroke-width="236.204" stroke-linecap="square" stroke-linejoin="round" stroke-opacity="0.501961" d="M6013 3650c0,-1305 -1058,-2363 -2363,-2363 -1305,0 -2363,1058 -2363,2363 0,1305 1058,2363 2363,2363 1305,0 2363,-1058 2363,-2363z"/>
  <path fill="none" fill-opacity="0.501961" stroke="blue" stroke-width="236.204" stroke-linecap="square" stroke-linejoin="round" stroke-opacity="0.501961" d="M4832 3650c0,-653 -529,-1182 -1182,-1182 -653,0 -1182,529 -1182,1182 0,653 529,1182 1182,1182 653,0 1182,-529 1182,-1182z"/>
  <polygon fill="blue" fill-opacity="0.501961" points="105,3059 105,4241 1287,4241 1287,3059 "/>
  <polygon fill="blue" fill-opacity="0.501961" points="3059,105 3059,1287 4241,1287 4241,105 "/>
  <polygon fill="blue" fill-opacity="0.501961" points="6013,3059 6013,4241 7195,4241 7195,3059 "/>
  <polygon fill="blue" fill-opacity="0.501961" points="3059,6013 3059,7195 4241,7195 4241,6013 "/>
 </g>
</svg>
