<?xml version="1.0" encoding="UTF-8"?>
<!DOCTYPE svg PUBLIC "-//W3C//DTD SVG 1.0//EN" "http://www.w3.org/TR/2001/REC-SVG-20010904/DTD/svg10.dtd">
<!-- Creator: CorelDRAW X6 -->
<svg xmlns="http://www.w3.org/2000/svg" xml:space="preserve" width="781px" height="289px" version="1.0" shape-rendering="geometricPrecision" text-rendering="geometricPrecision" image-rendering="optimizeQuality" fill-rule="evenodd" clip-rule="evenodd"
viewBox="0 0 78100 28866"
 xmlns:xlink="http://www.w3.org/1999/xlink">
 <g id="_3036.cgm:type:overlay">
  <metadata id="CorelCorpID_0Corel-Layer"/>
  <IC_ColorNameTable/>
  <PictureProperties/>
  <line fill="none" fill-opacity="0.501961" stroke="#9BC8A3" stroke-width="709.036" stroke-opacity="0.501961" x1="383" y1="28512" x2="77746" y2= "355" />
  <polygon fill="#9BC8A3" fill-opacity="0.501961" points="412,28502 10,27391 1342,26907 1744,28018 "/>
  <polygon fill="#9BC8A3" fill-opacity="0.501961" points="10162,24952 9760,23845 11091,23357 11494,24468 "/>
  <polygon fill="#9BC8A3" fill-opacity="0.501961" points="19754,21459 19351,20353 20683,19869 21086,20975 "/>
  <polygon fill="#9BC8A3" fill-opacity="0.501961" points="29422,17943 29020,16831 30352,16347 30754,17459 "/>
  <polygon fill="#9BC8A3" fill-opacity="0.501961" points="39095,14421 38693,13315 40025,12826 40427,13937 "/>
  <polygon fill="#9BC8A3" fill-opacity="0.501961" points="48764,10905 48361,9793 49693,9309 50096,10416 "/>
  <polygon fill="#9BC8A3" fill-opacity="0.501961" points="58437,7383 58030,6272 59362,5788 59769,6899 "/>
  <polygon fill="#9BC8A3" fill-opacity="0.501961" points="68106,3862 67703,2755 69035,2266 69438,3378 "/>
 </g>
</svg>
