<?xml version="1.0" encoding="UTF-8"?>
<!DOCTYPE svg PUBLIC "-//W3C//DTD SVG 1.0//EN" "http://www.w3.org/TR/2001/REC-SVG-20010904/DTD/svg10.dtd">
<!-- Creator: CorelDRAW X6 -->
<svg xmlns="http://www.w3.org/2000/svg" xml:space="preserve" width="126px" height="61px" version="1.0" shape-rendering="geometricPrecision" text-rendering="geometricPrecision" image-rendering="optimizeQuality" fill-rule="evenodd" clip-rule="evenodd"
viewBox="0 0 12600 6083"
 xmlns:xlink="http://www.w3.org/1999/xlink">
 <g id="_3146.cgm:type:overlay">
  <metadata id="CorelCorpID_0Corel-Layer"/>
  <IC_ColorNameTable/>
  <PictureProperties/>
  <polygon fill="#EAFFF4" fill-opacity="0.501961" points="105,5978 332,4007 1773,5371 "/>
  <line fill="none" fill-opacity="0.501961" stroke="#EAFFF4" stroke-width="210.67" stroke-opacity="0.501961" x1="105" y1="5978" x2="1773" y2= "5371" />
  <polygon fill="#EAFFF4" fill-opacity="0.501961" points="1636,5421 1862,3451 3303,4815 "/>
  <line fill="none" fill-opacity="0.501961" stroke="#EAFFF4" stroke-width="210.67" stroke-opacity="0.501961" x1="1636" y1="5421" x2="3303" y2= "4815" />
  <polygon fill="#EAFFF4" fill-opacity="0.501961" points="3165,4865 3392,2894 4832,4258 "/>
  <line fill="none" fill-opacity="0.501961" stroke="#EAFFF4" stroke-width="210.67" stroke-opacity="0.501961" x1="3165" y1="4865" x2="4832" y2= "4258" />
  <polygon fill="#EAFFF4" fill-opacity="0.501961" points="4699,4306 4926,2336 6367,3700 "/>
  <line fill="none" fill-opacity="0.501961" stroke="#EAFFF4" stroke-width="210.67" stroke-opacity="0.501961" x1="4699" y1="4306" x2="6367" y2= "3700" />
  <polygon fill="#EAFFF4" fill-opacity="0.501961" points="6228,3750 6455,1779 7896,3143 "/>
  <line fill="none" fill-opacity="0.501961" stroke="#EAFFF4" stroke-width="210.67" stroke-opacity="0.501961" x1="6228" y1="3750" x2="7896" y2= "3143" />
  <polygon fill="#EAFFF4" fill-opacity="0.501961" points="7763,3192 7989,1221 9430,2585 "/>
  <line fill="none" fill-opacity="0.501961" stroke="#EAFFF4" stroke-width="210.67" stroke-opacity="0.501961" x1="7763" y1="3192" x2="9430" y2= "2585" />
  <polygon fill="#EAFFF4" fill-opacity="0.501961" points="9298,2632 9524,662 10965,2026 "/>
  <line fill="none" fill-opacity="0.501961" stroke="#EAFFF4" stroke-width="210.67" stroke-opacity="0.501961" x1="9298" y1="2632" x2="10965" y2= "2026" />
  <polygon fill="#EAFFF4" fill-opacity="0.501961" points="10827,2076 11054,105 12495,1469 "/>
  <line fill="none" fill-opacity="0.501961" stroke="#EAFFF4" stroke-width="210.67" stroke-opacity="0.501961" x1="10827" y1="2076" x2="12495" y2= "1469" />
 </g>
</svg>
