<?xml version="1.0" encoding="UTF-8"?>
<!DOCTYPE svg PUBLIC "-//W3C//DTD SVG 1.0//EN" "http://www.w3.org/TR/2001/REC-SVG-20010904/DTD/svg10.dtd">
<!-- Creator: CorelDRAW X6 -->
<svg xmlns="http://www.w3.org/2000/svg" xml:space="preserve" width="2165px" height="804px" version="1.0" shape-rendering="geometricPrecision" text-rendering="geometricPrecision" image-rendering="optimizeQuality" fill-rule="evenodd" clip-rule="evenodd"
viewBox="0 0 216500 80373"
 xmlns:xlink="http://www.w3.org/1999/xlink">
 <g id="_3148.cgm:type:overlay">
  <metadata id="CorelCorpID_0Corel-Layer"/>
  <IC_ColorNameTable/>
  <PictureProperties/>
  <line fill="none" fill-opacity="0.501961" stroke="#EAFFF4" stroke-width="359.481" stroke-opacity="0.501961" x1="506" y1="78736" x2="216327" y2= "186" />
  <polygon fill="#EAFFF4" fill-opacity="0.501961" points="0,77031 346,76911 2384,77857 3342,75819 3675,75700 2610,77963 4887,79028 4554,79148 2503,78190 1558,80240 1225,80360 2277,78083 13,77031 "/>
  <polygon fill="#EAFFF4" fill-opacity="0.501961" points="27204,67124 27537,67004 29588,67963 30533,65913 30866,65793 29814,68070 32078,69135 31745,69255 29707,68296 28749,70347 28416,70466 29481,68190 27204,67138 "/>
  <polygon fill="#EAFFF4" fill-opacity="0.501961" points="53955,57391 54302,57271 56339,58229 57298,56179 57630,56059 56565,58336 58842,59388 58509,59508 56459,58562 55513,60600 55180,60719 56232,58456 53969,57391 "/>
  <polygon fill="#EAFFF4" fill-opacity="0.501961" points="80933,47564 81279,47457 83316,48402 84275,46352 84608,46232 83543,48509 85820,49574 85487,49694 83436,48735 82491,50786 82158,50906 83210,48629 80946,47577 "/>
  <polygon fill="#EAFFF4" fill-opacity="0.501961" points="107910,37750 108257,37630 110294,38589 111253,36538 111586,36418 110520,38695 112797,39747 112464,39867 110414,38922 109468,40972 109135,41092 110187,38815 107924,37750 "/>
  <polygon fill="#EAFFF4" fill-opacity="0.501961" points="134901,27936 135234,27816 137272,28762 138230,26725 138563,26605 137498,28868 139775,29934 139442,30053 137391,29095 136446,31145 136113,31265 137165,28988 134901,27936 "/>
  <polygon fill="#EAFFF4" fill-opacity="0.501961" points="161879,18109 162212,17990 164249,18948 165208,16898 165541,16778 164476,19055 166753,20120 166420,20240 164369,19281 163424,21332 163091,21452 164143,19175 161879,18109 "/>
  <polygon fill="#EAFFF4" fill-opacity="0.501961" points="188857,8296 189190,8176 191227,9135 192185,7084 192518,6964 191453,9228 193730,10293 193397,10413 191360,9467 190401,11505 190068,11625 191120,9361 188857,8296 "/>
 </g>
</svg>
