<?xml version="1.0" encoding="UTF-8"?>
<!DOCTYPE svg PUBLIC "-//W3C//DTD SVG 1.0//EN" "http://www.w3.org/TR/2001/REC-SVG-20010904/DTD/svg10.dtd">
<!-- Creator: CorelDRAW X6 -->
<svg xmlns="http://www.w3.org/2000/svg" xml:space="preserve" width="329px" height="130px" version="1.0" shape-rendering="geometricPrecision" text-rendering="geometricPrecision" image-rendering="optimizeQuality" fill-rule="evenodd" clip-rule="evenodd"
viewBox="0 0 32900 12968"
 xmlns:xlink="http://www.w3.org/1999/xlink">
 <g id="_3186.cgm:type:overlay">
  <metadata id="CorelCorpID_0Corel-Layer"/>
  <IC_ColorNameTable/>
  <PictureProperties/>
  <polyline fill="none" fill-opacity="0.501961" stroke="#EAFFF4" stroke-width="296.07" stroke-opacity="0.501961" points="458,12084 416,11545 614,11648 764,11815 894,12062 1081,12155 1210,12318 1312,12397 "/>
  <polyline fill="none" fill-opacity="0.501961" stroke="#EAFFF4" stroke-width="296.07" stroke-opacity="0.501961" points="148,12820 207,12295 406,12466 "/>
  <line fill="none" fill-opacity="0.501961" stroke="#EAFFF4" stroke-width="296.07" stroke-opacity="0.501961" x1="406" y1="12466" x2="458" y2= "12084" />
  <polyline fill="none" fill-opacity="0.501961" stroke="#EAFFF4" stroke-width="296.07" stroke-opacity="0.501961" points="1513,12324 1661,12153 1642,11928 1596,11709 1691,11417 1709,11186 1821,11202 1882,11018 1995,11107 2214,11178 2271,11334 2447,11440 2679,11900 "/>
  <polyline fill="none" fill-opacity="0.501961" stroke="#EAFFF4" stroke-width="296.07" stroke-opacity="0.501961" points="2877,11827 2950,11740 2942,11582 2879,11438 2877,11279 2962,11131 2991,10963 2950,10797 3098,10714 3147,10598 3307,10750 3411,10768 3561,10874 3605,11054 3737,11180 3804,11008 3907,11206 4035,11391 "/>
  <polyline fill="none" fill-opacity="0.501961" stroke="#EAFFF4" stroke-width="296.07" stroke-opacity="0.501961" points="4560,10590 4518,10051 4716,10156 4866,10322 4996,10570 5183,10661 5312,10825 5414,10902 "/>
  <polyline fill="none" fill-opacity="0.501961" stroke="#EAFFF4" stroke-width="296.07" stroke-opacity="0.501961" points="4250,11328 4309,10803 4507,10971 "/>
  <line fill="none" fill-opacity="0.501961" stroke="#EAFFF4" stroke-width="296.07" stroke-opacity="0.501961" x1="4507" y1="10971" x2="4560" y2= "10590" />
  <polyline fill="none" fill-opacity="0.501961" stroke="#EAFFF4" stroke-width="296.07" stroke-opacity="0.501961" points="5614,10831 5763,10661 5744,10436 5698,10215 5793,9925 5813,9692 5923,9708 5986,9526 6097,9613 6316,9686 6373,9842 6549,9947 6780,10406 "/>
  <polyline fill="none" fill-opacity="0.501961" stroke="#EAFFF4" stroke-width="296.07" stroke-opacity="0.501961" points="6981,10333 7052,10247 7044,10089 6983,9943 6979,9785 7064,9639 7093,9471 7052,9305 7200,9219 7249,9106 7409,9256 7512,9274 7662,9382 7707,9560 7839,9688 7906,9515 8009,9714 8137,9897 "/>
  <polyline fill="none" fill-opacity="0.501961" stroke="#EAFFF4" stroke-width="296.07" stroke-opacity="0.501961" points="8662,9098 8619,8558 8818,8662 8970,8830 9098,9075 9284,9169 9414,9333 9518,9410 "/>
  <polyline fill="none" fill-opacity="0.501961" stroke="#EAFFF4" stroke-width="296.07" stroke-opacity="0.501961" points="8352,9834 8411,9311 8609,9479 "/>
  <line fill="none" fill-opacity="0.501961" stroke="#EAFFF4" stroke-width="296.07" stroke-opacity="0.501961" x1="8609" y1="9479" x2="8662" y2= "9098" />
  <polyline fill="none" fill-opacity="0.501961" stroke="#EAFFF4" stroke-width="296.07" stroke-opacity="0.501961" points="9716,9337 9864,9167 9846,8942 9799,8723 9895,8433 9915,8199 10025,8216 10087,8031 10199,8120 10418,8193 10475,8350 10651,8455 10882,8913 "/>
  <polyline fill="none" fill-opacity="0.501961" stroke="#EAFFF4" stroke-width="296.07" stroke-opacity="0.501961" points="11083,8840 11156,8753 11146,8595 11085,8451 11081,8293 11168,8145 11195,7976 11154,7812 11302,7727 11351,7611 11511,7764 11614,7782 11766,7887 11809,8068 11943,8195 12008,8023 12111,8220 12241,8404 "/>
  <polyline fill="none" fill-opacity="0.501961" stroke="#EAFFF4" stroke-width="296.07" stroke-opacity="0.501961" points="12758,7607 12715,7068 12914,7171 13066,7338 13194,7585 13380,7678 13510,7843 13613,7920 "/>
  <polyline fill="none" fill-opacity="0.501961" stroke="#EAFFF4" stroke-width="296.07" stroke-opacity="0.501961" points="12448,8343 12506,7818 12705,7989 "/>
  <line fill="none" fill-opacity="0.501961" stroke="#EAFFF4" stroke-width="296.07" stroke-opacity="0.501961" x1="12705" y1="7989" x2="12758" y2= "7607" />
  <polyline fill="none" fill-opacity="0.501961" stroke="#EAFFF4" stroke-width="296.07" stroke-opacity="0.501961" points="13818,7845 13966,7674 13948,7449 13903,7228 13997,6938 14017,6707 14126,6723 14189,6539 14301,6626 14522,6699 14579,6855 14753,6961 14984,7421 "/>
  <polyline fill="none" fill-opacity="0.501961" stroke="#EAFFF4" stroke-width="296.07" stroke-opacity="0.501961" points="15185,7348 15258,7261 15250,7103 15187,6959 15183,6800 15270,6652 15298,6484 15256,6318 15404,6233 15455,6119 15613,6271 15716,6290 15868,6395 15911,6573 16045,6701 16109,6529 16215,6727 16343,6910 "/>
  <polyline fill="none" fill-opacity="0.501961" stroke="#EAFFF4" stroke-width="296.07" stroke-opacity="0.501961" points="16862,6113 16817,5574 17016,5679 17168,5846 17295,6093 17482,6184 17612,6348 17715,6425 "/>
  <polyline fill="none" fill-opacity="0.501961" stroke="#EAFFF4" stroke-width="296.07" stroke-opacity="0.501961" points="16549,6851 16608,6326 16807,6494 "/>
  <line fill="none" fill-opacity="0.501961" stroke="#EAFFF4" stroke-width="296.07" stroke-opacity="0.501961" x1="16807" y1="6494" x2="16862" y2= "6113" />
  <polyline fill="none" fill-opacity="0.501961" stroke="#EAFFF4" stroke-width="296.07" stroke-opacity="0.501961" points="17922,6350 18068,6180 18052,5957 18005,5736 18098,5446 18119,5213 18230,5229 18291,5047 18405,5134 18624,5207 18680,5363 18855,5468 19088,5927 "/>
  <polyline fill="none" fill-opacity="0.501961" stroke="#EAFFF4" stroke-width="296.07" stroke-opacity="0.501961" points="19287,5854 19360,5766 19351,5610 19289,5464 19285,5306 19372,5160 19400,4992 19360,4826 19508,4741 19556,4627 19716,4777 19820,4795 19970,4903 20013,5081 20146,5209 20213,5036 20317,5235 20444,5418 "/>
  <polyline fill="none" fill-opacity="0.501961" stroke="#EAFFF4" stroke-width="296.07" stroke-opacity="0.501961" points="20963,4621 20921,4082 21120,4185 21270,4353 21397,4599 21586,4692 21714,4856 21817,4933 "/>
  <polyline fill="none" fill-opacity="0.501961" stroke="#EAFFF4" stroke-width="296.07" stroke-opacity="0.501961" points="20651,5357 20712,4834 20909,5002 "/>
  <line fill="none" fill-opacity="0.501961" stroke="#EAFFF4" stroke-width="296.07" stroke-opacity="0.501961" x1="20909" y1="5002" x2="20963" y2= "4621" />
  <polyline fill="none" fill-opacity="0.501961" stroke="#EAFFF4" stroke-width="296.07" stroke-opacity="0.501961" points="22024,4858 22172,4688 22154,4463 22107,4244 22202,3952 22223,3721 22332,3737 22393,3552 22506,3642 22725,3715 22782,3871 22959,3974 23190,4434 "/>
  <polyline fill="none" fill-opacity="0.501961" stroke="#EAFFF4" stroke-width="296.07" stroke-opacity="0.501961" points="23390,4361 23461,4274 23453,4116 23392,3972 23388,3814 23474,3666 23502,3498 23461,3331 23609,3248 23658,3133 23818,3285 23922,3303 24072,3408 24116,3589 24250,3715 24315,3542 24418,3741 24546,3925 "/>
  <polyline fill="none" fill-opacity="0.501961" stroke="#EAFFF4" stroke-width="296.07" stroke-opacity="0.501961" points="25065,3127 25023,2587 25221,2693 25371,2859 25501,3106 25688,3199 25817,3362 25919,3441 "/>
  <polyline fill="none" fill-opacity="0.501961" stroke="#EAFFF4" stroke-width="296.07" stroke-opacity="0.501961" points="24755,3865 24814,3339 25013,3510 "/>
  <line fill="none" fill-opacity="0.501961" stroke="#EAFFF4" stroke-width="296.07" stroke-opacity="0.501961" x1="25013" y1="3510" x2="25065" y2= "3127" />
  <polyline fill="none" fill-opacity="0.501961" stroke="#EAFFF4" stroke-width="296.07" stroke-opacity="0.501961" points="26126,3366 26274,3195 26255,2970 26209,2749 26304,2459 26324,2226 26434,2242 26497,2060 26608,2147 26829,2220 26886,2376 27060,2482 27292,2940 "/>
  <polyline fill="none" fill-opacity="0.501961" stroke="#EAFFF4" stroke-width="296.07" stroke-opacity="0.501961" points="27492,2867 27565,2780 27555,2624 27494,2478 27490,2320 27577,2174 27604,2005 27563,1839 27711,1754 27760,1640 27920,1790 28024,1809 28176,1916 28218,2094 28352,2222 28417,2050 28520,2249 28650,2431 "/>
  <polyline fill="none" fill-opacity="0.501961" stroke="#EAFFF4" stroke-width="296.07" stroke-opacity="0.501961" points="29169,1634 29125,1095 29323,1198 29475,1367 29603,1612 29790,1705 29919,1869 30023,1946 "/>
  <polyline fill="none" fill-opacity="0.501961" stroke="#EAFFF4" stroke-width="296.07" stroke-opacity="0.501961" points="28857,2370 28916,1847 29114,2015 "/>
  <line fill="none" fill-opacity="0.501961" stroke="#EAFFF4" stroke-width="296.07" stroke-opacity="0.501961" x1="29114" y1="2015" x2="29169" y2= "1634" />
  <polyline fill="none" fill-opacity="0.501961" stroke="#EAFFF4" stroke-width="296.07" stroke-opacity="0.501961" points="30230,1871 30376,1701 30357,1476 30313,1257 30406,967 30426,734 30536,750 30599,566 30710,655 30931,728 30988,884 31162,989 31393,1448 "/>
  <polyline fill="none" fill-opacity="0.501961" stroke="#EAFFF4" stroke-width="296.07" stroke-opacity="0.501961" points="31594,1375 31667,1287 31659,1129 31596,985 31592,827 31679,679 31708,511 31665,347 31815,261 31864,146 32022,298 32125,316 32278,422 32320,602 32454,730 32519,558 32624,754 32752,939 "/>
 </g>
</svg>
