<?xml version="1.0" encoding="UTF-8"?>
<!DOCTYPE svg PUBLIC "-//W3C//DTD SVG 1.0//EN" "http://www.w3.org/TR/2001/REC-SVG-20010904/DTD/svg10.dtd">
<!-- Creator: CorelDRAW X6 -->
<svg xmlns="http://www.w3.org/2000/svg" xml:space="preserve" width="166px" height="67px" version="1.0" shape-rendering="geometricPrecision" text-rendering="geometricPrecision" image-rendering="optimizeQuality" fill-rule="evenodd" clip-rule="evenodd"
viewBox="0 0 16600 6649"
 xmlns:xlink="http://www.w3.org/1999/xlink">
 <g id="_4202.cgm:type:overlay">
  <metadata id="CorelCorpID_0Corel-Layer"/>
  <IC_ColorNameTable/>
  <PictureProperties/>
  <path fill="#969F9A" fill-opacity="0.501961" d="M921 6010c-89,-245 -360,-371 -605,-282 -245,89 -371,360 -282,605 89,245 360,371 605,282 245,-89 371,-360 282,-605z"/>
  <path fill="#969F9A" fill-opacity="0.501961" d="M3172 5191c-89,-245 -360,-372 -605,-282 -245,89 -371,360 -282,605 89,245 360,371 605,282 245,-89 371,-360 282,-605z"/>
  <path fill="#969F9A" fill-opacity="0.501961" d="M5404 4378c-89,-245 -360,-371 -605,-282 -245,89 -371,360 -282,605 89,245 360,372 605,282 245,-89 372,-360 282,-605z"/>
  <path fill="#969F9A" fill-opacity="0.501961" d="M7619 3572c-89,-245 -360,-371 -605,-282 -245,89 -372,360 -282,605 89,245 360,371 605,282 245,-89 371,-360 282,-605z"/>
  <path fill="#969F9A" fill-opacity="0.501961" d="M9851 2760c-89,-245 -360,-371 -605,-282 -245,89 -371,360 -282,605 89,245 360,371 605,282 245,-89 371,-360 282,-605z"/>
  <path fill="#969F9A" fill-opacity="0.501961" d="M12083 1948c-89,-245 -360,-371 -605,-282 -245,89 -371,360 -282,605 89,245 360,372 605,282 245,-89 371,-360 282,-605z"/>
  <path fill="#969F9A" fill-opacity="0.501961" d="M14333 1129c-89,-245 -360,-371 -605,-282 -245,89 -371,360 -282,605 89,245 360,371 605,282 245,-89 371,-360 282,-605z"/>
  <path fill="#969F9A" fill-opacity="0.501961" d="M16565 316c-89,-245 -360,-371 -605,-282 -245,89 -371,360 -282,605 89,245 360,372 605,282 245,-89 371,-360 282,-605z"/>
 </g>
</svg>
