<?xml version="1.0" encoding="UTF-8"?>
<!DOCTYPE svg PUBLIC "-//W3C//DTD SVG 1.0//EN" "http://www.w3.org/TR/2001/REC-SVG-20010904/DTD/svg10.dtd">
<!-- Creator: CorelDRAW X6 -->
<svg xmlns="http://www.w3.org/2000/svg" xml:space="preserve" width="147px" height="147px" version="1.0" shape-rendering="geometricPrecision" text-rendering="geometricPrecision" image-rendering="optimizeQuality" fill-rule="evenodd" clip-rule="evenodd"
viewBox="0 0 14700 14659"
 xmlns:xlink="http://www.w3.org/1999/xlink">
 <g id="_4326.cgm:type:overlay">
  <metadata id="CorelCorpID_0Corel-Layer"/>
  <IC_ColorNameTable/>
  <PictureProperties/>
  <polygon fill="#DE4BC9" fill-opacity="0.501961" stroke="#DE4BC9" stroke-width="89.7519" stroke-linecap="square" stroke-linejoin="round" stroke-opacity="0.501961" points="727,4155 2028,4778 1943,4965 1808,5298 1696,5638 1649,5801 1564,6162 1530,6346 1518,6423 1481,6697 1469,6828 1450,7134 1448,7251 1448,7447 1453,7599 1462,7749 1476,7906 1494,8069 1514,8214 1537,8352 1562,8489 1592,8625 1639,8819 1665,8915 1692,9013 1743,9178 1798,9337 1858,9494 1907,9611 1965,9747 2028,9881 729,10505 609,10239 552,10107 443,9825 394,9680 356,9562 296,9366 265,9250 230,9131 199,8995 186,8943 161,8821 135,8695 115,8579 105,8522 87,8418 66,8269 52,8136 38,8006 28,7869 19,7739 10,7594 9,7445 7,7328 9,7202 14,7031 19,6912 28,6791 42,6629 56,6489 61,6443 78,6307 99,6170 113,6076 138,5942 161,5826 199,5662 227,5547 262,5413 308,5242 326,5185 352,5097 373,5036 409,4924 446,4826 452,4812 484,4727 544,4570 "/>
  <polygon fill="#DE4BC9" fill-opacity="0.501961" stroke="#DE4BC9" stroke-width="89.7519" stroke-linecap="square" stroke-linejoin="round" stroke-opacity="0.501961" points="1290,11476 2477,10664 2596,10831 2818,11113 3058,11383 3175,11502 3446,11758 3589,11879 3648,11927 3868,12096 3976,12171 4229,12341 4329,12401 4502,12499 4636,12571 4771,12639 4912,12706 5062,12772 5197,12825 5328,12876 5459,12922 5593,12965 5783,13021 5882,13047 5978,13070 6148,13108 6311,13139 6479,13167 6603,13184 6751,13202 6899,13215 6789,14651 6499,14623 6356,14607 6056,14558 5906,14531 5786,14503 5587,14455 5471,14427 5351,14396 5217,14356 5165,14340 5048,14302 4924,14261 4814,14220 4760,14200 4662,14164 4522,14106 4401,14054 4280,14000 4155,13940 4039,13883 3909,13818 3779,13746 3678,13689 3568,13623 3423,13534 3323,13469 3223,13401 3089,13309 2975,13227 2938,13200 2828,13115 2720,13029 2646,12968 2544,12880 2453,12805 2331,12690 2245,12607 2145,12509 2022,12385 1980,12339 1919,12272 1875,12225 1798,12138 1732,12056 1722,12044 1665,11976 1558,11844 "/>
  <polygon fill="#DE4BC9" fill-opacity="0.501961" stroke="#DE4BC9" stroke-width="89.7519" stroke-linecap="square" stroke-linejoin="round" stroke-opacity="0.501961" points="7912,14651 7801,13215 8007,13196 8360,13145 8713,13072 8875,13033 9232,12924 9410,12862 9480,12834 9738,12728 9857,12674 10129,12537 10233,12482 10403,12383 10533,12302 10656,12219 10787,12129 10920,12031 11033,11942 11141,11852 11248,11763 11351,11670 11494,11531 11567,11460 11636,11387 11754,11260 11864,11133 11970,11003 12047,10902 12136,10784 12223,10662 13411,11476 13239,11712 13155,11829 12963,12065 12863,12181 12780,12270 12640,12421 12557,12504 12471,12593 12368,12690 12329,12728 12239,12810 12139,12896 12049,12972 12005,13008 11925,13075 11806,13169 11698,13247 11591,13323 11478,13401 11370,13473 11249,13555 11119,13630 11021,13689 10910,13752 10759,13832 10652,13888 10545,13942 10398,14008 10270,14066 10227,14085 10099,14138 9971,14190 9882,14224 9755,14268 9642,14306 9480,14356 9368,14391 9232,14427 9063,14471 9003,14483 8915,14505 8852,14518 8737,14542 8634,14560 8620,14562 8530,14577 8362,14603 "/>
  <polygon fill="#DE4BC9" fill-opacity="0.501961" stroke="#DE4BC9" stroke-width="89.7519" stroke-linecap="square" stroke-linejoin="round" stroke-opacity="0.501961" points="13970,10505 12674,9881 12758,9695 12892,9362 13005,9021 13051,8857 13136,8497 13170,8312 13182,8236 13219,7962 13231,7831 13251,7526 13253,7409 13253,7212 13247,7060 13239,6910 13223,6753 13207,6589 13186,6445 13164,6307 13137,6172 13108,6034 13062,5840 13036,5744 13008,5646 12956,5481 12902,5324 12843,5165 12794,5048 12734,4912 12672,4778 13970,4155 14092,4422 14149,4553 14257,4836 14307,4980 14343,5097 14404,5294 14435,5409 14469,5528 14501,5666 14515,5717 14539,5838 14565,5966 14585,6082 14596,6137 14613,6241 14634,6390 14647,6523 14661,6653 14671,6791 14681,6920 14689,7065 14691,7214 14692,7332 14691,7457 14685,7627 14681,7749 14671,7869 14657,8029 14643,8170 14640,8216 14622,8352 14601,8491 14587,8585 14561,8717 14539,8833 14501,8999 14473,9111 14439,9248 14392,9416 14373,9475 14347,9562 14327,9623 14291,9735 14252,9833 14249,9847 14216,9931 14155,10089 "/>
  <polygon fill="#DE4BC9" fill-opacity="0.501961" stroke="#DE4BC9" stroke-width="89.7519" stroke-linecap="square" stroke-linejoin="round" stroke-opacity="0.501961" points="13411,3183 12221,3996 12103,3828 11881,3546 11642,3277 11526,3157 11255,2903 11112,2780 11053,2732 10831,2562 10724,2487 10470,2319 10370,2257 10199,2160 10064,2087 9929,2020 9787,1953 9637,1889 9503,1834 9370,1784 9240,1739 9107,1694 8915,1639 8819,1612 8723,1588 8551,1550 8386,1520 8220,1492 8094,1475 7949,1457 7801,1445 7910,7 8202,36 8344,54 8644,101 8795,129 8913,157 9114,203 9228,234 9349,264 9484,304 9536,318 9653,356 9775,398 9885,439 9941,459 10039,496 10178,552 10299,605 10420,659 10545,719 10660,776 10790,841 10922,915 11023,971 11131,1035 11277,1127 11377,1191 11478,1258 11611,1350 11724,1433 11763,1461 11872,1544 11980,1630 12055,1691 12155,1778 12247,1856 12370,1972 12456,2051 12556,2150 12678,2274 12720,2319 12782,2387 12825,2434 12904,2523 12968,2602 12978,2614 13036,2683 13141,2815 "/>
  <polygon fill="#DE4BC9" fill-opacity="0.501961" stroke="#DE4BC9" stroke-width="89.7519" stroke-linecap="square" stroke-linejoin="round" stroke-opacity="0.501961" points="6789,7 6899,1445 6693,1464 6339,1514 5987,1586 5824,1628 5469,1735 5290,1798 5219,1825 4963,1930 4844,1986 4570,2122 4467,2179 4298,2277 4167,2357 4041,2440 3913,2530 3780,2628 3666,2719 3558,2806 3453,2897 3348,2991 3203,3129 3133,3199 3064,3271 2945,3399 2837,3525 2730,3656 2652,3757 2565,3874 2477,3996 1290,3183 1460,2947 1544,2830 1738,2596 1837,2478 1919,2389 2059,2239 2143,2155 2230,2065 2333,1969 2371,1932 2463,1849 2561,1763 2652,1689 2695,1651 2776,1582 2895,1492 3001,1414 3109,1336 3223,1257 3331,1186 3451,1104 3578,1029 3678,969 3790,907 3941,827 4048,773 4155,719 4302,651 4430,593 4474,574 4600,520 4730,470 4820,435 4945,391 5058,352 5219,302 5330,270 5467,232 5636,187 5697,175 5785,154 5848,140 5964,119 6066,99 6080,97 6170,82 6336,58 "/>
 </g>
</svg>
