<?xml version="1.0" encoding="UTF-8"?>
<!DOCTYPE svg PUBLIC "-//W3C//DTD SVG 1.0//EN" "http://www.w3.org/TR/2001/REC-SVG-20010904/DTD/svg10.dtd">
<!-- Creator: CorelDRAW X6 -->
<svg xmlns="http://www.w3.org/2000/svg" xml:space="preserve" width="171px" height="37px" version="1.0" shape-rendering="geometricPrecision" text-rendering="geometricPrecision" image-rendering="optimizeQuality" fill-rule="evenodd" clip-rule="evenodd"
viewBox="0 0 17100 3683"
 xmlns:xlink="http://www.w3.org/1999/xlink">
 <g id="_5107.cgm:type:overlay">
  <metadata id="CorelCorpID_0Corel-Layer"/>
  <IC_ColorNameTable/>
  <PictureProperties/>
  <polyline fill="none" fill-opacity="0.501961" stroke="#969F99" stroke-width="298.27" stroke-linecap="round" stroke-linejoin="round" stroke-opacity="0.501961" points="149,3527 467,3419 822,3214 1032,3083 1372,2814 1502,2683 1688,2402 1912,2021 2190,1545 2443,1055 2620,717 2752,529 2947,333 3114,232 3301,167 3571,149 3832,232 3990,333 4064,427 4111,623 4124,824 4130,949 3776,1081 3608,1193 3475,1343 3394,1472 3367,1714 3367,1881 3432,2086 3608,2283 3953,2590 4331,2856 4793,3196 5165,3401 5388,3493 5627,3533 5749,3527 "/>
  <polyline fill="none" fill-opacity="0.501961" stroke="#969F99" stroke-width="298.27" stroke-linecap="round" stroke-linejoin="round" stroke-opacity="0.501961" points="5749,3527 6067,3419 6423,3214 6634,3083 6973,2814 7103,2683 7289,2402 7513,2021 7791,1545 8043,1055 8220,717 8351,529 8548,333 8714,232 8902,167 9172,149 9433,232 9590,333 9666,427 9713,623 9724,824 9732,949 9377,1081 9209,1193 9076,1343 8996,1472 8968,1714 8968,1881 9032,2086 9209,2283 9554,2590 9932,2856 10393,3196 10766,3401 10990,3493 11228,3533 11350,3527 "/>
  <polyline fill="none" fill-opacity="0.501961" stroke="#969F99" stroke-width="298.27" stroke-linecap="round" stroke-linejoin="round" stroke-opacity="0.501961" points="11350,3527 11669,3419 12024,3214 12235,3083 12573,2814 12703,2683 12890,2402 13114,2021 13392,1545 13644,1055 13821,717 13952,529 14148,333 14317,232 14502,167 14772,149 15035,232 15191,333 15266,427 15313,623 15325,824 15332,949 14977,1081 14810,1193 14677,1343 14596,1472 14568,1714 14568,1881 14634,2086 14810,2283 15155,2590 15532,2856 15993,3196 16366,3401 16590,3493 16829,3533 16950,3527 "/>
 </g>
</svg>
