<?xml version="1.0" encoding="UTF-8"?>
<!DOCTYPE svg PUBLIC "-//W3C//DTD SVG 1.0//EN" "http://www.w3.org/TR/2001/REC-SVG-20010904/DTD/svg10.dtd">
<!-- Creator: CorelDRAW X6 -->
<svg xmlns="http://www.w3.org/2000/svg" xml:space="preserve" width="44px" height="41px" version="1.0" shape-rendering="geometricPrecision" text-rendering="geometricPrecision" image-rendering="optimizeQuality" fill-rule="evenodd" clip-rule="evenodd"
viewBox="0 0 4400 4061"
 xmlns:xlink="http://www.w3.org/1999/xlink">
 <g id="_6000.cgm:type:overlay">
  <metadata id="CorelCorpID_0Corel-Layer"/>
  <IC_ColorNameTable/>
  <PictureProperties/>
  <polygon fill="#EAFFF4" fill-opacity="0.501961" points="4059,207 1161,3104 1333,3352 1536,3582 1732,3762 1930,3912 2088,4012 2171,4059 1911,4028 1715,3984 1545,3932 1209,3782 1013,3663 861,3550 738,3443 647,3355 530,3224 379,3019 270,2835 193,2677 133,2527 80,2358 39,2181 16,2040 2,1890 69,2007 138,2115 238,2253 358,2399 449,2496 527,2572 641,2672 790,2788 907,2869 957,2900 3854,2 "/>
  <polygon fill="#EAFFF4" fill-opacity="0.501961" points="780,2 3485,2708 4152,2042 4398,2288 4396,2406 4384,2527 4358,2666 4318,2805 4263,2943 4204,3059 4125,3185 4026,3311 3933,3408 3794,3526 3647,3623 3474,3709 3331,3761 3150,3804 2991,3823 2860,3826 2614,3580 3280,2913 575,208 "/>
 </g>
</svg>
