<?xml version="1.0" encoding="UTF-8"?>
<!DOCTYPE svg PUBLIC "-//W3C//DTD SVG 1.0//EN" "http://www.w3.org/TR/2001/REC-SVG-20010904/DTD/svg10.dtd">
<!-- Creator: CorelDRAW X6 -->
<svg xmlns="http://www.w3.org/2000/svg" xml:space="preserve" width="39px" height="57px" version="1.0" shape-rendering="geometricPrecision" text-rendering="geometricPrecision" image-rendering="optimizeQuality" fill-rule="evenodd" clip-rule="evenodd"
viewBox="0 0 3900 5674"
 xmlns:xlink="http://www.w3.org/1999/xlink">
 <g id="_6033.cgm:type:overlay">
  <metadata id="CorelCorpID_0Corel-Layer"/>
  <IC_ColorNameTable/>
  <PictureProperties/>
  <polyline fill="none" fill-opacity="0.501961" stroke="black" stroke-width="471.894" stroke-linecap="round" stroke-linejoin="round" stroke-opacity="0.501961" points="771,1756 3129,1756 3129,5438 771,5438 771,1756 "/>
  <polygon fill="#EAFFF4" fill-opacity="0.501961" points="1950,3 1950,1933 771,1933 282,1933 4,1066 282,1228 560,1390 838,1451 1116,1345 1394,1051 1533,836 1603,714 1672,584 1811,302 "/>
  <polygon fill="#EAFFF4" fill-opacity="0.501961" points="1950,3 1950,1933 3129,1933 3619,1933 3897,1066 3619,1228 3340,1390 3062,1451 2784,1345 2506,1051 2367,836 2298,714 2228,584 "/>
 </g>
</svg>
