<?xml version="1.0" encoding="UTF-8"?>
<!DOCTYPE svg PUBLIC "-//W3C//DTD SVG 1.0//EN" "http://www.w3.org/TR/2001/REC-SVG-20010904/DTD/svg10.dtd">
<!-- Creator: CorelDRAW X6 -->
<svg xmlns="http://www.w3.org/2000/svg" xml:space="preserve" width="57px" height="98px" version="1.0" shape-rendering="geometricPrecision" text-rendering="geometricPrecision" image-rendering="optimizeQuality" fill-rule="evenodd" clip-rule="evenodd"
viewBox="0 0 5700 9882"
 xmlns:xlink="http://www.w3.org/1999/xlink">
 <g id="_7002.cgm:type:overlay">
  <metadata id="CorelCorpID_0Corel-Layer"/>
  <IC_ColorNameTable/>
  <PictureProperties/>
  <polygon fill="red" fill-opacity="0.501961" stroke="white" stroke-width="357.812" stroke-linecap="square" stroke-linejoin="round" stroke-opacity="0.501961" points="462,8777 741,8224 1059,7507 1312,6776 1564,5993 1763,5248 1910,4504 2096,3428 2203,2712 2283,1852 2362,975 2402,179 3298,179 3338,975 3417,1852 3497,2712 3604,3428 3790,4504 3937,5248 4136,5993 4388,6776 4641,7507 4959,8224 5239,8777 "/>
  <polygon fill="red" fill-opacity="0.501961" stroke="white" stroke-width="357.812" stroke-linecap="square" stroke-linejoin="round" stroke-opacity="0.501961" points="179,7210 5521,7210 5521,3029 179,3029 "/>
  <path fill="red" fill-opacity="0.501961" stroke="white" stroke-width="357.812" stroke-linecap="square" stroke-linejoin="round" stroke-opacity="0.501961" d="M3776 8777c0,-511 -414,-926 -926,-926 -511,0 -926,414 -926,926 0,511 414,926 926,926 511,0 926,-414 926,-926z"/>
  <polygon fill="white" fill-opacity="0.501961" points="713,3702 1500,3697 1910,5284 2449,3702 3251,3702 2249,6640 1448,6640 "/>
  <polygon fill="white" fill-opacity="0.501961" points="4987,3702 4186,3702 3798,5300 3251,3702 2449,3702 3452,6640 4252,6640 "/>
 </g>
</svg>
