<?xml version="1.0" encoding="UTF-8"?>
<!DOCTYPE svg PUBLIC "-//W3C//DTD SVG 1.0//EN" "http://www.w3.org/TR/2001/REC-SVG-20010904/DTD/svg10.dtd">
<!-- Creator: CorelDRAW X6 -->
<svg xmlns="http://www.w3.org/2000/svg" xml:space="preserve" width="51px" height="132px" version="1.0" shape-rendering="geometricPrecision" text-rendering="geometricPrecision" image-rendering="optimizeQuality" fill-rule="evenodd" clip-rule="evenodd"
viewBox="0 0 5100 13263"
 xmlns:xlink="http://www.w3.org/1999/xlink">
 <g id="_7024.cgm:type:overlay">
  <metadata id="CorelCorpID_0Corel-Layer"/>
  <IC_ColorNameTable/>
  <PictureProperties/>
  <polygon fill="red" fill-opacity="0.501961" stroke="white" stroke-width="355.06" stroke-linecap="square" stroke-linejoin="round" stroke-opacity="0.501961" points="178,12166 454,11616 770,10904 1022,10177 1272,9399 1470,8659 1617,7921 1802,6852 1908,6140 1987,5286 2065,4413 2105,3623 2995,3623 3035,4413 3113,5286 3192,6140 3298,6852 3484,7921 3630,8659 3828,9399 4078,10177 4330,10904 4646,11616 4922,12166 "/>
  <path fill="red" fill-opacity="0.501961" stroke="white" stroke-width="355.06" stroke-linecap="square" stroke-linejoin="round" stroke-opacity="0.501961" d="M3470 12166c0,-508 -412,-920 -920,-920 -508,0 -920,412 -920,920 0,508 412,920 920,920 508,0 920,-412 920,-920z"/>
  <polygon fill="red" fill-opacity="0.501961" stroke="white" stroke-width="355.06" stroke-linecap="square" stroke-linejoin="round" stroke-opacity="0.501961" points="2684,3123 1766,3123 1537,2912 1326,2664 1211,2376 1173,2071 1230,1746 1365,1440 1498,1210 1689,1000 1900,789 2072,617 2168,426 2933,1134 "/>
  <polygon fill="red" fill-opacity="0.501961" stroke="white" stroke-width="355.06" stroke-linecap="square" stroke-linejoin="round" stroke-opacity="0.501961" points="2684,3123 3411,3123 3621,2855 3774,2511 3851,2262 3888,2032 3888,1803 3851,1498 3755,1134 3601,846 3429,579 3295,388 3085,177 2970,465 2798,694 2569,981 2397,1229 2264,1536 2224,1803 2224,2185 2301,2511 2493,2855 "/>
 </g>
</svg>
