<?xml version="1.0" encoding="UTF-8"?>
<!DOCTYPE svg PUBLIC "-//W3C//DTD SVG 1.0//EN" "http://www.w3.org/TR/2001/REC-SVG-20010904/DTD/svg10.dtd">
<!-- Creator: CorelDRAW X6 -->
<svg xmlns="http://www.w3.org/2000/svg" xml:space="preserve" width="57px" height="98px" version="1.0" shape-rendering="geometricPrecision" text-rendering="geometricPrecision" image-rendering="optimizeQuality" fill-rule="evenodd" clip-rule="evenodd"
viewBox="0 0 5700 9813"
 xmlns:xlink="http://www.w3.org/1999/xlink">
 <g id="_7040.cgm:type:overlay">
  <metadata id="CorelCorpID_0Corel-Layer"/>
  <IC_ColorNameTable/>
  <PictureProperties/>
  <polygon fill="red" fill-opacity="0.501961" stroke="white" stroke-width="354.609" stroke-linecap="square" stroke-linejoin="round" stroke-opacity="0.501961" points="474,8716 752,8167 1067,7454 1319,6728 1570,5950 1768,5210 1912,4472 2098,3404 2204,2693 2283,1838 2362,967 2401,177 3292,177 3331,967 3410,1838 3489,2693 3595,3404 3780,4472 3925,5210 4123,5950 4374,6728 4625,7454 4941,8167 5219,8716 "/>
  <path fill="red" fill-opacity="0.501961" stroke="white" stroke-width="354.609" stroke-linecap="square" stroke-linejoin="round" stroke-opacity="0.501961" d="M3766 8716c0,-508 -411,-919 -919,-919 -508,0 -919,411 -919,919 0,508 411,919 919,919 508,0 919,-411 919,-919z"/>
  <polygon fill="red" fill-opacity="0.501961" stroke="white" stroke-width="354.609" stroke-linecap="square" stroke-linejoin="round" stroke-opacity="0.501961" points="1384,177 1384,1666 4309,1666 4309,177 "/>
  <polyline fill="none" fill-opacity="0.501961" stroke="white" stroke-width="354.609" stroke-linecap="round" stroke-linejoin="round" stroke-opacity="0.501961" points="1483,2702 1484,2735 1486,2767 1490,2800 1496,2832 1504,2864 1513,2897 1524,2929 1536,2961 1550,2992 1566,3022 1583,3053 1602,3083 1622,3112 1644,3142 1667,3170 1692,3198 1718,3226 1746,3252 1774,3279 1805,3304 1836,3329 1869,3352 1903,3376 1939,3398 1975,3419 2012,3440 2050,3460 2089,3478 2130,3496 2171,3513 2213,3529 2256,3544 2300,3558 2344,3571 2388,3582 2434,3593 2480,3603 2526,3611 2573,3618 2620,3624 2668,3630 2716,3633 2763,3636 2811,3638 2859,3639 2907,3638 2955,3636 3003,3633 3051,3630 3098,3624 3145,3618 3193,3611 3239,3603 3285,3593 3330,3582 3375,3571 3419,3558 3463,3544 3506,3529 3548,3513 3589,3496 3629,3478 3669,3460 3707,3440 3744,3419 3780,3398 3816,3376 3850,3352 3882,3329 3914,3304 3944,3279 3973,3252 4000,3226 4027,3198 4051,3170 4075,3142 4097,3112 4116,3083 4136,3053 4153,3022 4169,2992 4182,2961 4195,2929 4206,2897 4215,2864 4222,2832 4228,2800 4232,2767 4236,2735 4236,2702 "/>
  <polyline fill="none" fill-opacity="0.501961" stroke="white" stroke-width="354.609" stroke-linecap="round" stroke-linejoin="round" stroke-opacity="0.501961" points="752,3626 753,3676 757,3725 763,3774 772,3823 783,3873 797,3922 814,3970 832,4018 853,4064 877,4112 904,4158 932,4204 963,4249 996,4293 1031,4336 1069,4378 1108,4420 1150,4460 1194,4500 1240,4539 1288,4576 1337,4612 1389,4648 1442,4682 1497,4714 1554,4745 1612,4775 1671,4804 1732,4831 1795,4856 1859,4880 1923,4902 1989,4923 2056,4942 2125,4960 2193,4976 2263,4991 2333,5004 2405,5015 2476,5024 2548,5032 2620,5038 2692,5042 2765,5045 2838,5046 2910,5045 2983,5042 3056,5038 3128,5032 3200,5024 3272,5015 3343,5004 3413,4991 3483,4976 3551,4960 3619,4942 3687,4923 3752,4902 3817,4880 3881,4856 3943,4831 4005,4804 4064,4775 4122,4745 4179,4714 4234,4682 4287,4648 4338,4612 4388,4576 4436,4539 4482,4500 4525,4460 4567,4420 4607,4378 4645,4336 4680,4293 4713,4249 4744,4204 4772,4158 4798,4112 4822,4064 4843,4018 4862,3970 4878,3922 4892,3873 4904,3823 4913,3774 4919,3725 4923,3676 4924,3626 "/>
  <polyline fill="none" fill-opacity="0.501961" stroke="white" stroke-width="354.609" stroke-linecap="round" stroke-linejoin="round" stroke-opacity="0.501961" points="178,4685 179,4758 184,4829 192,4901 203,4973 218,5044 236,5114 257,5184 281,5254 309,5323 338,5391 372,5459 408,5525 448,5591 490,5654 535,5718 584,5779 634,5840 688,5899 744,5956 803,6013 864,6067 927,6120 994,6170 1061,6220 1133,6267 1204,6312 1279,6356 1356,6397 1434,6437 1514,6474 1595,6509 1679,6541 1763,6572 1849,6600 1936,6626 2024,6649 2114,6670 2204,6689 2294,6705 2386,6719 2478,6730 2571,6739 2664,6745 2757,6749 2850,6751 2943,6749 3036,6745 3129,6739 3222,6730 3315,6719 3406,6705 3496,6689 3587,6670 3676,6649 3764,6626 3852,6600 3937,6572 4022,6541 4105,6509 4187,6474 4267,6437 4345,6397 4421,6356 4496,6312 4568,6267 4639,6220 4707,6170 4773,6120 4836,6067 4897,6013 4956,5956 5012,5899 5066,5840 5117,5779 5165,5718 5210,5654 5252,5591 5292,5525 5328,5459 5362,5391 5392,5323 5420,5254 5444,5184 5464,5114 5482,5044 5497,4973 5509,4901 5516,4829 5523,4685 "/>
 </g>
</svg>
