<?xml version="1.0" encoding="UTF-8"?>
<!DOCTYPE svg PUBLIC "-//W3C//DTD SVG 1.0//EN" "http://www.w3.org/TR/2001/REC-SVG-20010904/DTD/svg10.dtd">
<!-- Creator: CorelDRAW X6 -->
<svg xmlns="http://www.w3.org/2000/svg" xml:space="preserve" width="88px" height="98px" version="1.0" shape-rendering="geometricPrecision" text-rendering="geometricPrecision" image-rendering="optimizeQuality" fill-rule="evenodd" clip-rule="evenodd"
viewBox="0 0 8800 9792"
 xmlns:xlink="http://www.w3.org/1999/xlink">
 <g id="_7070.cgm:type:overlay">
  <metadata id="CorelCorpID_0Corel-Layer"/>
  <IC_ColorNameTable/>
  <PictureProperties/>
  <polygon fill="red" fill-opacity="0.501961" stroke="white" stroke-width="354.9" stroke-linecap="square" stroke-linejoin="round" stroke-opacity="0.501961" points="2027,8719 2305,8168 2621,7457 2872,6730 3123,5953 3320,5212 3466,4473 3650,3406 3757,2694 3836,1840 3915,968 3954,177 4846,177 4885,968 4964,1840 5043,2694 5150,3406 5334,4473 5480,5212 5677,5953 5928,6730 6179,7457 6495,8168 6773,8719 "/>
  <polygon fill="red" fill-opacity="0.501961" stroke="white" stroke-width="354.9" stroke-linecap="square" stroke-linejoin="round" stroke-opacity="0.501961" points="4267,1672 4400,1672 4400,1060 4267,1060 1050,2917 1316,3376 "/>
  <polygon fill="red" fill-opacity="0.501961" stroke="white" stroke-width="354.9" stroke-linecap="square" stroke-linejoin="round" stroke-opacity="0.501961" points="4533,1060 4400,1060 4400,1672 4533,1672 7484,3376 7750,2917 "/>
  <path fill="red" fill-opacity="0.501961" stroke="white" stroke-width="306.295" stroke-linecap="square" stroke-linejoin="round" stroke-opacity="0.501961" d="M1426 3473c0,-351 -285,-636 -636,-636 -351,0 -636,285 -636,636 0,351 285,636 636,636 351,0 636,-285 636,-636z"/>
  <path fill="red" fill-opacity="0.501961" stroke="white" stroke-width="306.295" stroke-linecap="square" stroke-linejoin="round" stroke-opacity="0.501961" d="M5320 8719c0,-508 -412,-920 -920,-920 -508,0 -920,412 -920,920 0,508 412,920 920,920 508,0 920,-412 920,-920z"/>
  <path fill="red" fill-opacity="0.501961" stroke="white" stroke-width="306.295" stroke-linecap="square" stroke-linejoin="round" stroke-opacity="0.501961" d="M8647 3473c0,-351 -285,-636 -636,-636 -351,0 -636,285 -636,636 0,351 285,636 636,636 351,0 636,-285 636,-636z"/>
  <path fill="red" fill-opacity="0.501961" stroke="white" stroke-width="306.295" stroke-linecap="square" stroke-linejoin="round" stroke-opacity="0.501961" d="M6872 2358c0,-351 -285,-636 -636,-636 -351,0 -636,285 -636,636 0,351 285,636 636,636 351,0 636,-285 636,-636z"/>
  <path fill="red" fill-opacity="0.501961" stroke="white" stroke-width="306.295" stroke-linecap="square" stroke-linejoin="round" stroke-opacity="0.501961" d="M3201 2358c0,-351 -285,-636 -636,-636 -351,0 -636,285 -636,636 0,351 285,636 636,636 351,0 636,-285 636,-636z"/>
 </g>
</svg>
