<?xml version="1.0" encoding="UTF-8"?>
<!DOCTYPE svg PUBLIC "-//W3C//DTD SVG 1.0//EN" "http://www.w3.org/TR/2001/REC-SVG-20010904/DTD/svg10.dtd">
<!-- Creator: CorelDRAW X6 -->
<svg xmlns="http://www.w3.org/2000/svg" xml:space="preserve" width="81px" height="98px" version="1.0" shape-rendering="geometricPrecision" text-rendering="geometricPrecision" image-rendering="optimizeQuality" fill-rule="evenodd" clip-rule="evenodd"
viewBox="0 0 8100 9805"
 xmlns:xlink="http://www.w3.org/1999/xlink">
 <g id="_7090.cgm:type:overlay">
  <metadata id="CorelCorpID_0Corel-Layer"/>
  <IC_ColorNameTable/>
  <PictureProperties/>
  <polygon fill="red" fill-opacity="0.501961" stroke="white" stroke-width="354.501" stroke-linecap="square" stroke-linejoin="round" stroke-opacity="0.501961" points="1680,8709 1957,8159 2273,7448 2524,6723 2774,5945 2973,5207 3116,4468 3302,3400 3407,2690 3487,1838 3566,965 3605,177 4495,177 4534,965 4613,1838 4693,2690 4798,3400 4984,4468 5127,5207 5326,5945 5576,6723 5827,7448 6143,8159 6420,8709 "/>
  <polygon fill="red" fill-opacity="0.501961" stroke="white" stroke-width="354.501" stroke-linecap="square" stroke-linejoin="round" stroke-opacity="0.501961" points="7540,5039 7542,5039 7555,5038 7568,5037 7582,5035 7595,5031 7608,5027 7621,5021 7634,5015 7647,5007 7659,4999 7672,4990 7685,4980 7697,4968 7709,4957 7721,4943 7732,4930 7743,4915 7755,4899 7766,4882 7776,4865 7786,4847 7797,4829 7806,4809 7816,4789 7825,4768 7833,4746 7842,4725 7850,4701 7858,4678 7865,4653 7872,4629 7878,4604 7884,4579 7890,4553 7895,4526 7900,4499 7904,4472 7908,4445 7912,4417 7914,4389 7917,4362 7919,4333 7921,4305 7922,4276 7922,4247 7923,4219 7922,4191 7922,4161 7921,4133 7919,4104 7917,4076 7914,4048 7912,4020 7908,3992 7904,3965 7900,3938 7895,3911 7890,3885 7884,3859 7878,3833 7872,3809 7865,3784 7858,3760 7850,3737 7842,3713 7833,3692 7825,3670 7816,3649 7806,3629 7797,3609 7786,3590 7776,3572 7766,3555 7755,3539 7743,3523 7732,3508 7721,3495 7709,3481 7697,3469 7685,3458 7672,3448 7659,3439 7647,3431 7634,3423 7621,3416 7608,3411 7595,3406 7582,3403 7568,3400 7555,3399 7542,3398 558,3398 558,5039 7542,5039 "/>
  <path fill="red" fill-opacity="0.501961" stroke="white" stroke-width="354.501" stroke-linecap="square" stroke-linejoin="round" stroke-opacity="0.501961" d="M4968 8709c0,-507 -411,-918 -918,-918 -507,0 -918,411 -918,918 0,507 411,918 918,918 507,0 918,-411 918,-918z"/>
  <polygon fill="red" fill-opacity="0.501961" stroke="white" stroke-width="354.501" stroke-linecap="square" stroke-linejoin="round" stroke-opacity="0.501961" points="177,4219 178,4247 178,4276 179,4304 181,4333 183,4362 186,4389 189,4417 192,4445 196,4472 200,4499 205,4526 210,4553 216,4579 222,4604 228,4629 235,4653 242,4678 250,4701 258,4724 267,4746 275,4768 284,4789 294,4809 303,4829 314,4847 324,4865 335,4882 345,4899 357,4915 368,4929 379,4943 391,4956 404,4968 415,4979 428,4989 441,4999 453,5007 466,5015 479,5021 492,5027 505,5031 518,5035 532,5037 545,5038 558,5039 572,5038 584,5037 598,5035 611,5031 624,5027 637,5021 650,5015 663,5007 676,4999 688,4989 701,4979 713,4968 725,4956 737,4943 749,4929 760,4915 771,4899 782,4882 792,4865 803,4847 813,4829 823,4809 832,4789 842,4768 850,4746 858,4724 866,4701 874,4678 881,4653 888,4629 894,4604 901,4579 906,4553 911,4526 916,4499 921,4472 924,4445 928,4417 931,4389 933,4362 935,4333 937,4304 938,4276 939,4247 939,4219 939,4190 938,4162 937,4133 935,4104 933,4076 931,4048 928,4020 924,3992 921,3966 916,3938 911,3912 906,3885 901,3859 894,3833 888,3809 881,3784 874,3760 866,3737 858,3714 850,3691 842,3670 832,3649 823,3629 813,3609 803,3591 792,3572 782,3555 771,3539 760,3523 749,3508 737,3495 725,3481 713,3469 701,3458 688,3448 676,3439 663,3430 650,3423 637,3417 624,3411 611,3406 598,3403 584,3400 572,3399 558,3398 545,3399 532,3400 518,3403 505,3406 492,3411 479,3417 466,3423 453,3430 441,3439 428,3448 415,3458 404,3469 391,3481 379,3495 368,3508 357,3523 345,3539 335,3555 324,3572 314,3591 303,3609 294,3629 284,3649 275,3670 267,3691 258,3714 250,3737 242,3760 235,3784 228,3809 222,3833 216,3859 210,3885 205,3912 200,3938 196,3966 192,3992 189,4020 186,4048 183,4076 181,4104 179,4133 178,4162 178,4190 "/>
  <line fill="none" fill-opacity="0.501961" stroke="white" stroke-width="354.501" stroke-linecap="round" stroke-linejoin="round" stroke-opacity="0.501961" x1="1687" y1="5039" x2="558" y2= "5039" />
  <line fill="none" fill-opacity="0.501961" stroke="white" stroke-width="354.501" stroke-linecap="round" stroke-linejoin="round" stroke-opacity="0.501961" x1="6413" y1="5039" x2="7542" y2= "5039" />
  <line fill="none" fill-opacity="0.501961" stroke="white" stroke-width="354.501" stroke-linecap="round" stroke-linejoin="round" stroke-opacity="0.501961" x1="809" y1="3398" x2="3053" y2= "5038" />
  <line fill="none" fill-opacity="0.501961" stroke="white" stroke-width="354.501" stroke-linecap="round" stroke-linejoin="round" stroke-opacity="0.501961" x1="3053" y1="3398" x2="5298" y2= "5038" />
  <line fill="none" fill-opacity="0.501961" stroke="white" stroke-width="354.501" stroke-linecap="round" stroke-linejoin="round" stroke-opacity="0.501961" x1="5298" y1="3398" x2="7542" y2= "5038" />
 </g>
</svg>
