<?xml version="1.0" encoding="UTF-8"?>
<!DOCTYPE svg PUBLIC "-//W3C//DTD SVG 1.0//EN" "http://www.w3.org/TR/2001/REC-SVG-20010904/DTD/svg10.dtd">
<!-- Creator: CorelDRAW X6 -->
<svg xmlns="http://www.w3.org/2000/svg" xml:space="preserve" width="63px" height="98px" version="1.0" shape-rendering="geometricPrecision" text-rendering="geometricPrecision" image-rendering="optimizeQuality" fill-rule="evenodd" clip-rule="evenodd"
viewBox="0 0 6300 9867"
 xmlns:xlink="http://www.w3.org/1999/xlink">
 <g id="_7113.cgm:type:overlay">
  <metadata id="CorelCorpID_0Corel-Layer"/>
  <IC_ColorNameTable/>
  <PictureProperties/>
  <polygon fill="red" fill-opacity="0.501961" stroke="white" stroke-width="357.266" stroke-linecap="square" stroke-linejoin="round" stroke-opacity="0.501961" points="765,8765 1044,8212 1363,7497 1614,6766 1866,5984 2065,5240 2211,4497 2397,3423 2503,2708 2584,1850 2663,973 2702,178 3598,178 3637,973 3716,1850 3797,2708 3903,3423 4089,4497 4235,5240 4434,5984 4686,6766 4938,7497 5256,8212 5536,8765 "/>
  <path fill="red" fill-opacity="0.501961" stroke="white" stroke-width="357.266" stroke-linecap="square" stroke-linejoin="round" stroke-opacity="0.501961" d="M4074 8765c0,-511 -414,-924 -924,-924 -511,0 -924,414 -924,924 0,511 414,924 924,924 511,0 924,-414 924,-924z"/>
  <polygon fill="red" fill-opacity="0.501961" stroke="white" stroke-width="357.266" stroke-linecap="square" stroke-linejoin="round" stroke-opacity="0.501961" points="1371,1774 1371,3867 4929,3867 4929,1774 "/>
  <polygon fill="white" fill-opacity="0.501961" stroke="white" stroke-width="357.266" stroke-linecap="square" stroke-linejoin="round" stroke-opacity="0.501961" points="1975,2397 1975,3481 4325,3481 4325,2397 "/>
  <polygon fill="red" fill-opacity="0.501961" stroke="white" stroke-width="357.266" stroke-linecap="square" stroke-linejoin="round" stroke-opacity="0.501961" points="3150,7498 2822,7409 2632,7341 2447,7262 2267,7173 2096,7074 1929,6963 1768,6843 1614,6713 1467,6572 1327,6421 1193,6261 1068,6092 948,5913 837,5725 735,5529 638,5325 551,5111 471,4891 400,4662 337,4425 281,4182 235,3933 196,3675 178,3533 312,3567 455,3597 601,3617 752,3631 905,3636 1060,3634 1218,3624 1378,3607 1540,3581 1705,3547 1872,3506 2039,3459 2208,3402 2378,3338 2549,3267 2721,3189 2894,3103 3150,2963 3150,7500 "/>
  <polygon fill="red" fill-opacity="0.501961" stroke="white" stroke-width="357.266" stroke-linecap="square" stroke-linejoin="round" stroke-opacity="0.501961" points="3150,7498 3478,7409 3668,7341 3853,7262 4033,7173 4205,7074 4371,6963 4532,6843 4686,6713 4833,6572 4973,6421 5107,6261 5232,6092 5352,5913 5463,5725 5565,5529 5662,5325 5749,5111 5829,4891 5900,4662 5963,4425 6019,4182 6065,3933 6104,3675 6122,3533 5988,3567 5845,3597 5699,3617 5549,3631 5395,3636 5240,3634 5082,3624 4922,3607 4760,3581 4595,3547 4428,3506 4261,3459 4092,3402 3922,3338 3751,3267 3579,3189 3406,3103 3150,2963 3150,7500 "/>
 </g>
</svg>
