<?xml version="1.0" encoding="UTF-8"?>
<!DOCTYPE svg PUBLIC "-//W3C//DTD SVG 1.0//EN" "http://www.w3.org/TR/2001/REC-SVG-20010904/DTD/svg10.dtd">
<!-- Creator: CorelDRAW X6 -->
<svg xmlns="http://www.w3.org/2000/svg" xml:space="preserve" width="73px" height="98px" version="1.0" shape-rendering="geometricPrecision" text-rendering="geometricPrecision" image-rendering="optimizeQuality" fill-rule="evenodd" clip-rule="evenodd"
viewBox="0 0 7300 9753"
 xmlns:xlink="http://www.w3.org/1999/xlink">
 <g id="_7119.cgm:type:overlay">
  <metadata id="CorelCorpID_0Corel-Layer"/>
  <IC_ColorNameTable/>
  <PictureProperties/>
  <polygon fill="red" fill-opacity="0.501961" stroke="white" stroke-width="352.661" stroke-linecap="square" stroke-linejoin="round" stroke-opacity="0.501961" points="1292,8663 1568,8117 1882,7410 2132,6687 2381,5915 2578,5179 2721,4445 2907,3383 3011,2676 3090,1829 3169,961 3206,176 4094,176 4131,961 4210,1829 4289,2676 4393,3383 4579,4445 4722,5179 4919,5915 5168,6687 5418,7410 5732,8117 6009,8663 "/>
  <path fill="red" fill-opacity="0.501961" stroke="white" stroke-width="352.661" stroke-linecap="square" stroke-linejoin="round" stroke-opacity="0.501961" d="M4563 8663c0,-504 -409,-913 -913,-913 -504,0 -913,409 -913,913 0,504 409,913 913,913 504,0 913,-409 913,-913z"/>
  <polygon fill="red" fill-opacity="0.501961" stroke="white" stroke-width="352.661" stroke-linecap="square" stroke-linejoin="round" stroke-opacity="0.501961" points="7124,1298 7124,1281 5213,1281 5209,1424 5205,1496 5198,1566 5190,1637 5179,1707 5167,1777 5153,1846 5137,1914 5119,1982 5099,2049 5078,2115 5055,2180 5030,2244 5004,2306 4976,2368 4946,2428 4915,2486 4881,2543 4848,2599 4812,2653 4774,2705 4736,2756 4696,2805 4655,2851 4612,2896 4569,2939 4524,2981 4478,3019 4432,3056 4384,3091 4335,3123 4286,3154 4236,3182 4185,3207 4133,3230 4081,3251 4028,3270 3975,3286 3922,3299 3868,3311 3813,3320 3759,3326 3705,3330 3650,3331 3595,3330 3541,3326 3487,3320 3432,3311 3378,3299 3325,3286 3272,3270 3219,3251 3167,3230 3115,3207 3064,3182 3014,3154 2965,3123 2916,3091 2868,3056 2822,3019 2776,2981 2731,2939 2688,2896 2645,2851 2604,2804 2564,2756 2526,2705 2488,2653 2452,2599 2419,2543 2385,2486 2354,2428 2324,2368 2296,2306 2270,2244 2245,2180 2222,2115 2201,2049 2181,1982 2163,1914 2147,1846 2133,1777 2121,1707 2110,1637 2102,1566 2095,1496 2091,1424 2087,1353 2087,1281 176,1281 179,1440 185,1599 196,1757 210,1915 229,2072 252,2228 279,2383 311,2537 346,2689 386,2839 429,2988 477,3134 528,3278 583,3420 642,3558 704,3695 770,3828 840,3958 913,4086 989,4209 1069,4328 1151,4445 1237,4557 1326,4666 1417,4770 1512,4870 1608,4966 1707,5057 1809,5143 1913,5226 2019,5303 2127,5375 2237,5442 2349,5504 2462,5561 2577,5612 2692,5659 2810,5700 2928,5736 3047,5767 3167,5791 3287,5811 3408,5825 3529,5833 3650,5836 3771,5833 3892,5825 4013,5811 4133,5791 4253,5767 4372,5736 4490,5700 4608,5659 4723,5612 4838,5561 4951,5504 5063,5442 5173,5375 5281,5303 5387,5226 5491,5143 5593,5057 5692,4966 5788,4870 5883,4770 5974,4666 6063,4557 6149,4445 6231,4328 6311,4209 6387,4086 6460,3958 6530,3828 6596,3695 6658,3558 6717,3420 6772,3278 6824,3134 6871,2988 6914,2839 6954,2689 6989,2537 7021,2383 7048,2228 7071,2072 7090,1915 7104,1757 7115,1599 7124,1281 "/>
 </g>
</svg>
