<?xml version="1.0" encoding="UTF-8"?>
<!DOCTYPE svg PUBLIC "-//W3C//DTD SVG 1.0//EN" "http://www.w3.org/TR/2001/REC-SVG-20010904/DTD/svg10.dtd">
<!-- Creator: CorelDRAW X6 -->
<svg xmlns="http://www.w3.org/2000/svg" xml:space="preserve" width="80px" height="98px" version="1.0" shape-rendering="geometricPrecision" text-rendering="geometricPrecision" image-rendering="optimizeQuality" fill-rule="evenodd" clip-rule="evenodd"
viewBox="0 0 8000 9761"
 xmlns:xlink="http://www.w3.org/1999/xlink">
 <g id="_7137.cgm:type:overlay">
  <metadata id="CorelCorpID_0Corel-Layer"/>
  <IC_ColorNameTable/>
  <PictureProperties/>
  <polygon fill="red" fill-opacity="0.501961" stroke="white" stroke-width="353.409" stroke-linecap="square" stroke-linejoin="round" stroke-opacity="0.501961" points="176,8685 453,8137 768,7428 1018,6704 1268,5929 1465,5192 1610,4455 1794,3392 1899,2683 1979,1832 2057,964 2097,176 2983,176 3023,964 3102,1832 3180,2683 3286,3392 3471,4455 3615,5192 3812,5929 4062,6704 4311,7428 4626,8137 4904,8685 "/>
  <polygon fill="red" fill-opacity="0.501961" stroke="white" stroke-width="353.409" stroke-linecap="square" stroke-linejoin="round" stroke-opacity="0.501961" points="3097,8685 3373,8137 3689,7428 3938,6704 4188,5929 4385,5192 4529,4455 4714,3392 4819,2683 4898,1832 4977,964 5017,176 5903,176 5943,964 6022,1832 6101,2683 6206,3392 6391,4455 6535,5192 6732,5929 6983,6704 7232,7428 7548,8137 7824,8685 "/>
  <path fill="red" fill-opacity="0.501961" stroke="white" stroke-width="353.409" stroke-linecap="square" stroke-linejoin="round" stroke-opacity="0.501961" d="M5029 8668c0,-506 -410,-916 -916,-916 -506,0 -916,410 -916,916 0,506 410,916 916,916 506,0 916,-410 916,-916z"/>
 </g>
</svg>
