<?xml version="1.0" encoding="UTF-8"?>
<!DOCTYPE svg PUBLIC "-//W3C//DTD SVG 1.0//EN" "http://www.w3.org/TR/2001/REC-SVG-20010904/DTD/svg10.dtd">
<!-- Creator: CorelDRAW X6 -->
<svg xmlns="http://www.w3.org/2000/svg" xml:space="preserve" width="80px" height="68px" version="1.0" shape-rendering="geometricPrecision" text-rendering="geometricPrecision" image-rendering="optimizeQuality" fill-rule="evenodd" clip-rule="evenodd"
viewBox="0 0 8000 6745"
 xmlns:xlink="http://www.w3.org/1999/xlink">
 <g id="_7138.cgm:type:overlay">
  <metadata id="CorelCorpID_0Corel-Layer"/>
  <IC_ColorNameTable/>
  <PictureProperties/>
  <polygon fill="red" fill-opacity="0.501961" stroke="white" stroke-width="353.741" stroke-linecap="square" stroke-linejoin="round" stroke-opacity="0.501961" points="4904,5651 177,5651 450,5304 763,4856 1009,4397 1256,3907 1451,3440 1595,2974 1777,2302 1881,1852 1959,1314 2038,765 2077,266 2097,177 2983,177 3004,266 3043,765 3122,1314 3200,1852 3304,2302 3486,2974 3629,3440 3824,3907 4072,4397 4318,4856 4631,5304 "/>
  <polygon fill="red" fill-opacity="0.501961" stroke="white" stroke-width="353.741" stroke-linecap="square" stroke-linejoin="round" stroke-opacity="0.501961" points="7823,5651 3097,5651 3369,5304 3682,4856 3928,4397 4176,3907 4371,3440 4514,2974 4696,2302 4800,1852 4878,1314 4957,765 4996,266 5017,177 5903,177 5923,266 5963,765 6041,1314 6119,1852 6223,2302 6405,2974 6549,3440 6744,3907 6991,4397 7237,4856 7550,5304 "/>
  <path fill="red" fill-opacity="0.501961" stroke="white" stroke-width="353.741" stroke-linecap="square" stroke-linejoin="round" stroke-opacity="0.501961" d="M4917 5651c0,-506 -411,-917 -917,-917 -506,0 -917,411 -917,917 0,506 411,917 917,917 506,0 917,-411 917,-917z"/>
 </g>
</svg>
