<?xml version="1.0" encoding="UTF-8"?>
<!DOCTYPE svg PUBLIC "-//W3C//DTD SVG 1.0//EN" "http://www.w3.org/TR/2001/REC-SVG-20010904/DTD/svg10.dtd">
<!-- Creator: CorelDRAW X6 -->
<svg xmlns="http://www.w3.org/2000/svg" xml:space="preserve" width="65px" height="64px" version="1.0" shape-rendering="geometricPrecision" text-rendering="geometricPrecision" image-rendering="optimizeQuality" fill-rule="evenodd" clip-rule="evenodd"
viewBox="0 0 6500 6368"
 xmlns:xlink="http://www.w3.org/1999/xlink">
 <g id="_7142.cgm:type:overlay">
  <metadata id="CorelCorpID_0Corel-Layer"/>
  <IC_ColorNameTable/>
  <PictureProperties/>
  <polygon fill="white" fill-opacity="0.501961" points="572,623 288,838 4,1051 957,4327 1386,4009 2274,6364 2559,6151 2842,5936 1984,2128 1655,2370 1486,2497 "/>
  <polygon fill="white" fill-opacity="0.501961" points="3504,88 3161,177 2812,269 2436,3680 2952,3551 2868,6068 3213,5980 3556,5892 4227,2044 3831,2143 3680,2180 "/>
  <polygon fill="white" fill-opacity="0.501961" points="6495,908 5783,790 4068,3673 4630,3768 3537,6036 3887,6095 4238,6152 6404,2903 6002,2833 5794,2798 "/>
  <polygon fill="red" fill-opacity="0.501961" points="288,838 1149,3794 1551,3482 2559,6151 1781,2703 1353,3020 "/>
  <polygon fill="red" fill-opacity="0.501961" points="3161,177 2815,3222 3334,3134 3218,6008 3821,2504 3362,2588 "/>
  <polygon fill="red" fill-opacity="0.501961" points="6119,838 4589,3444 5115,3537 3878,6092 5776,3156 5314,3077 "/>
 </g>
</svg>
