<?xml version="1.0" encoding="UTF-8"?>
<!DOCTYPE svg PUBLIC "-//W3C//DTD SVG 1.0//EN" "http://www.w3.org/TR/2001/REC-SVG-20010904/DTD/svg10.dtd">
<!-- Creator: CorelDRAW X6 -->
<svg xmlns="http://www.w3.org/2000/svg" xml:space="preserve" width="68px" height="66px" version="1.0" shape-rendering="geometricPrecision" text-rendering="geometricPrecision" image-rendering="optimizeQuality" fill-rule="evenodd" clip-rule="evenodd"
viewBox="0 0 6800 6585"
 xmlns:xlink="http://www.w3.org/1999/xlink">
 <g id="_7145.cgm:type:overlay">
  <metadata id="CorelCorpID_0Corel-Layer"/>
  <IC_ColorNameTable/>
  <PictureProperties/>
  <polygon fill="white" fill-opacity="0.501961" points="740,708 459,921 176,1133 1123,4386 1550,4071 2431,6409 2714,6198 2995,5984 2143,2202 1817,2443 1648,2568 "/>
  <polygon fill="white" fill-opacity="0.501961" points="3652,176 3312,264 2965,357 2592,3744 3104,3616 3021,6115 3363,6027 3704,5941 4371,2119 3977,2217 3827,2254 "/>
  <polygon fill="white" fill-opacity="0.501961" points="6623,991 5916,873 4213,3737 4771,3830 3686,6083 4033,6142 4381,6199 6532,2973 6133,2903 5926,2868 "/>
  <polygon fill="red" fill-opacity="0.501961" points="459,921 1314,3856 1714,3547 2714,6198 1941,2773 1517,3088 "/>
  <polygon fill="red" fill-opacity="0.501961" points="3312,264 2968,3289 3484,3201 3369,6055 3968,2576 3512,2660 "/>
  <polygon fill="red" fill-opacity="0.501961" points="6250,921 4730,3510 5253,3602 4024,6140 5909,3224 5450,3144 "/>
 </g>
</svg>
