<?xml version="1.0" encoding="UTF-8"?>
<!DOCTYPE svg PUBLIC "-//W3C//DTD SVG 1.0//EN" "http://www.w3.org/TR/2001/REC-SVG-20010904/DTD/svg10.dtd">
<!-- Creator: CorelDRAW X6 -->
<svg xmlns="http://www.w3.org/2000/svg" xml:space="preserve" width="68px" height="66px" version="1.0" shape-rendering="geometricPrecision" text-rendering="geometricPrecision" image-rendering="optimizeQuality" fill-rule="evenodd" clip-rule="evenodd"
viewBox="0 0 6800 6586"
 xmlns:xlink="http://www.w3.org/1999/xlink">
 <g id="_7146.cgm:type:overlay">
  <metadata id="CorelCorpID_0Corel-Layer"/>
  <IC_ColorNameTable/>
  <PictureProperties/>
  <polygon fill="white" fill-opacity="0.501961" points="740,708 459,921 176,1132 1124,4386 1550,4071 2431,6410 2714,6198 2995,5985 2143,2203 1817,2443 1649,2569 "/>
  <polygon fill="white" fill-opacity="0.501961" points="3653,176 3312,264 2965,356 2592,3744 3105,3616 3022,6116 3363,6028 3704,5940 4372,2119 3978,2217 3827,2254 "/>
  <polygon fill="white" fill-opacity="0.501961" points="6624,991 5916,873 4213,3737 4771,3831 3685,6084 4034,6143 4382,6199 6533,2973 6134,2903 5927,2868 "/>
  <polygon fill="red" fill-opacity="0.501961" points="458,921 1314,3856 1714,3547 2714,6198 1941,2773 1517,3088 "/>
  <polygon fill="red" fill-opacity="0.501961" points="3312,264 2969,3289 3484,3201 3368,6056 3967,2576 3512,2660 "/>
  <polygon fill="red" fill-opacity="0.501961" points="6250,921 4730,3510 5253,3602 4024,6140 5909,3224 5450,3144 "/>
 </g>
</svg>
