<?xml version="1.0" encoding="UTF-8"?>
<!DOCTYPE svg PUBLIC "-//W3C//DTD SVG 1.0//EN" "http://www.w3.org/TR/2001/REC-SVG-20010904/DTD/svg10.dtd">
<!-- Creator: CorelDRAW X6 -->
<svg xmlns="http://www.w3.org/2000/svg" xml:space="preserve" width="68px" height="118px" version="1.0" shape-rendering="geometricPrecision" text-rendering="geometricPrecision" image-rendering="optimizeQuality" fill-rule="evenodd" clip-rule="evenodd"
viewBox="0 0 6800 11792"
 xmlns:xlink="http://www.w3.org/1999/xlink">
 <g id="_7147.cgm:type:overlay">
  <metadata id="CorelCorpID_0Corel-Layer"/>
  <IC_ColorNameTable/>
  <PictureProperties/>
  <polyline fill="none" fill-opacity="0.501961" stroke="white" stroke-width="1065.26" stroke-linecap="round" stroke-linejoin="round" stroke-opacity="0.501961" points="2466,1508 2449,1528 2418,1562 2388,1598 2362,1635 2337,1670 2313,1706 2289,1748 2267,1786 2248,1824 2227,1866 2212,1908 2193,1947 2180,1991 2166,2035 2155,2078 2146,2124 2138,2165 2131,2209 2123,2254 2119,2300 2117,2342 2117,2387 2117,2433 2119,2476 2123,2522 2131,2567 2138,2611 2146,2656 2155,2698 2166,2742 2180,2783 2193,2827 2212,2867 2227,2908 2248,2950 2267,2991 2289,3030 2313,3068 2337,3104 2362,3141 2388,3175 2418,3209 2449,3244 2457,3259 "/>
  <polyline fill="none" fill-opacity="0.501961" stroke="white" stroke-width="1065.26" stroke-linecap="round" stroke-linejoin="round" stroke-opacity="0.501961" points="4337,3263 4354,3244 4383,3209 4409,3175 4435,3141 4464,3104 4488,3068 4512,3030 4532,2991 4553,2950 4570,2908 4589,2867 4605,2827 4621,2783 4633,2742 4644,2698 4656,2656 4663,2611 4671,2567 4674,2522 4680,2476 4682,2433 4682,2387 4682,2342 4680,2300 4674,2254 4671,2209 4663,2165 4656,2124 4644,2078 4633,2035 4621,1991 4605,1947 4589,1908 4570,1866 4553,1824 4532,1786 4512,1748 4488,1706 4464,1670 4435,1635 4409,1598 4383,1562 4354,1528 4339,1513 "/>
  <polyline fill="none" fill-opacity="0.501961" stroke="white" stroke-width="1065.26" stroke-linecap="round" stroke-linejoin="round" stroke-opacity="0.501961" points="1784,865 1747,899 1697,958 1649,1018 1602,1081 1556,1146 1515,1210 1475,1276 1436,1344 1402,1413 1368,1483 1338,1554 1311,1627 1287,1701 1264,1775 1243,1851 1224,1924 1210,2002 1198,2078 1190,2156 1182,2233 1179,2312 1179,2387 1179,2465 1182,2542 1190,2619 1198,2696 1210,2772 1224,2848 1243,2926 1264,2999 1287,3076 1311,3147 1338,3219 1368,3294 1402,3363 1436,3430 1475,3498 1515,3565 1556,3631 1602,3695 1649,3754 1697,3817 1747,3876 1768,3896 "/>
  <polyline fill="none" fill-opacity="0.501961" stroke="white" stroke-width="1065.26" stroke-linecap="round" stroke-linejoin="round" stroke-opacity="0.501961" points="5021,3906 5052,3876 5101,3817 5150,3754 5195,3695 5241,3631 5285,3565 5323,3498 5361,3430 5399,3363 5429,3294 5460,3219 5486,3147 5514,3076 5535,2999 5558,2926 5573,2848 5589,2772 5599,2696 5609,2619 5617,2542 5621,2465 5623,2387 5621,2312 5617,2233 5609,2156 5599,2078 5589,2002 5573,1924 5558,1851 5535,1775 5514,1701 5486,1627 5460,1554 5429,1483 5399,1413 5361,1344 5323,1276 5285,1210 5241,1146 5195,1081 5150,1018 5101,958 5052,899 5029,875 "/>
  <polyline fill="none" fill-opacity="0.501961" stroke="white" stroke-width="1065.26" stroke-linecap="round" stroke-linejoin="round" stroke-opacity="0.501961" points="5755,4590 5795,4545 5868,4461 5941,4372 6005,4281 6072,4190 6133,4095 6193,4001 6246,3902 6296,3799 6345,3699 6387,3597 6428,3490 6466,3385 6498,3276 6529,3168 6553,3056 6574,2948 6591,2837 6605,2726 6616,2613 6620,2500 6624,2387 6620,2277 6616,2163 6605,2049 6591,1938 6574,1827 6553,1716 6529,1608 6498,1500 6466,1392 6428,1285 6387,1179 6345,1077 6296,974 6246,872 6193,776 6133,679 6072,584 6005,491 5941,402 5868,315 5795,231 "/>
  <polyline fill="none" fill-opacity="0.501961" stroke="white" stroke-width="1065.26" stroke-linecap="round" stroke-linejoin="round" stroke-opacity="0.501961" points="1054,176 1002,231 931,315 858,402 792,491 725,584 665,679 608,776 555,872 502,974 456,1077 411,1179 369,1285 333,1392 299,1500 270,1608 246,1716 225,1827 208,1938 193,2049 185,2163 178,2277 176,2387 178,2500 185,2613 193,2726 208,2837 225,2948 246,3056 270,3168 299,3276 333,3385 369,3490 411,3597 456,3699 502,3799 555,3902 608,4001 665,4095 725,4190 792,4281 858,4372 931,4461 1002,4545 1032,4575 "/>
  <polyline fill="none" fill-opacity="0.501961" stroke="red" stroke-width="352.523" stroke-linecap="round" stroke-linejoin="round" stroke-opacity="0.501961" points="2466,1508 2449,1528 2418,1562 2388,1598 2362,1635 2337,1670 2313,1706 2289,1748 2267,1786 2248,1824 2227,1866 2212,1908 2193,1947 2180,1991 2166,2035 2155,2078 2146,2124 2138,2165 2131,2209 2123,2254 2119,2300 2117,2342 2117,2387 2117,2433 2119,2476 2123,2522 2131,2567 2138,2611 2146,2656 2155,2698 2166,2742 2180,2783 2193,2827 2212,2867 2227,2908 2248,2950 2267,2991 2289,3030 2313,3068 2337,3104 2362,3141 2388,3175 2418,3209 2449,3244 2457,3259 "/>
  <polyline fill="none" fill-opacity="0.501961" stroke="red" stroke-width="352.523" stroke-linecap="round" stroke-linejoin="round" stroke-opacity="0.501961" points="4337,3263 4354,3244 4383,3209 4409,3175 4435,3141 4464,3104 4488,3068 4512,3030 4532,2991 4553,2950 4570,2908 4589,2867 4605,2827 4621,2783 4633,2742 4644,2698 4656,2656 4663,2611 4671,2567 4674,2522 4680,2476 4682,2433 4682,2387 4682,2342 4680,2300 4674,2254 4671,2209 4663,2165 4656,2124 4644,2078 4633,2035 4621,1991 4605,1947 4589,1908 4570,1866 4553,1824 4532,1786 4512,1748 4488,1706 4464,1670 4435,1635 4409,1598 4383,1562 4354,1528 4339,1513 "/>
  <polyline fill="none" fill-opacity="0.501961" stroke="red" stroke-width="352.523" stroke-linecap="round" stroke-linejoin="round" stroke-opacity="0.501961" points="1784,865 1747,899 1697,958 1649,1018 1602,1081 1556,1146 1515,1210 1475,1276 1436,1344 1402,1413 1368,1483 1338,1554 1311,1627 1287,1701 1264,1775 1243,1851 1224,1924 1210,2002 1198,2078 1190,2156 1182,2233 1179,2312 1179,2387 1179,2465 1182,2542 1190,2619 1198,2696 1210,2772 1224,2848 1243,2926 1264,2999 1287,3076 1311,3147 1338,3219 1368,3294 1402,3363 1436,3430 1475,3498 1515,3565 1556,3631 1602,3695 1649,3754 1697,3817 1747,3876 1768,3896 "/>
  <polyline fill="none" fill-opacity="0.501961" stroke="red" stroke-width="352.523" stroke-linecap="round" stroke-linejoin="round" stroke-opacity="0.501961" points="5021,3906 5052,3876 5101,3817 5150,3754 5195,3695 5241,3631 5285,3565 5323,3498 5361,3430 5399,3363 5429,3294 5460,3219 5486,3147 5514,3076 5535,2999 5558,2926 5573,2848 5589,2772 5599,2696 5609,2619 5617,2542 5621,2465 5623,2387 5621,2312 5617,2233 5609,2156 5599,2078 5589,2002 5573,1924 5558,1851 5535,1775 5514,1701 5486,1627 5460,1554 5429,1483 5399,1413 5361,1344 5323,1276 5285,1210 5241,1146 5195,1081 5150,1018 5101,958 5052,899 5029,875 "/>
  <polyline fill="none" fill-opacity="0.501961" stroke="red" stroke-width="352.523" stroke-linecap="round" stroke-linejoin="round" stroke-opacity="0.501961" points="5755,4590 5795,4545 5868,4461 5941,4372 6005,4281 6072,4190 6133,4095 6193,4001 6246,3902 6296,3799 6345,3699 6387,3597 6428,3490 6466,3385 6498,3276 6529,3168 6553,3056 6574,2948 6591,2837 6605,2726 6616,2613 6620,2500 6624,2387 6620,2277 6616,2163 6605,2049 6591,1938 6574,1827 6553,1716 6529,1608 6498,1500 6466,1392 6428,1285 6387,1179 6345,1077 6296,974 6246,872 6193,776 6133,679 6072,584 6005,491 5941,402 5868,315 5795,231 "/>
  <polyline fill="none" fill-opacity="0.501961" stroke="red" stroke-width="352.523" stroke-linecap="round" stroke-linejoin="round" stroke-opacity="0.501961" points="1054,176 1002,231 931,315 858,402 792,491 725,584 665,679 608,776 555,872 502,974 456,1077 411,1179 369,1285 333,1392 299,1500 270,1608 246,1716 225,1827 208,1938 193,2049 185,2163 178,2277 176,2387 178,2500 185,2613 193,2726 208,2837 225,2948 246,3056 270,3168 299,3276 333,3385 369,3490 411,3597 456,3699 502,3799 555,3902 608,4001 665,4095 725,4190 792,4281 858,4372 931,4461 1002,4545 1032,4575 "/>
  <polygon fill="red" fill-opacity="0.501961" stroke="white" stroke-width="354.415" stroke-linecap="square" stroke-linejoin="round" stroke-opacity="0.501961" points="1054,10696 1331,10146 1647,9433 1897,8709 2148,7928 2345,7190 2491,6451 2679,5384 2782,4672 2863,3818 2942,2946 2980,2156 3871,2156 3908,2946 3988,3818 4068,4672 4172,5384 4360,6451 4506,7190 4702,7928 4953,8709 5203,9433 5520,10146 5797,10696 "/>
  <path fill="red" fill-opacity="0.501961" stroke="white" stroke-width="354.415" stroke-linecap="square" stroke-linejoin="round" stroke-opacity="0.501961" d="M4344 10696c0,-508 -411,-919 -919,-919 -508,0 -919,411 -919,919 0,508 411,919 919,919 508,0 919,-411 919,-919z"/>
 </g>
</svg>
