<?xml version="1.0" encoding="UTF-8"?>
<!DOCTYPE svg PUBLIC "-//W3C//DTD SVG 1.0//EN" "http://www.w3.org/TR/2001/REC-SVG-20010904/DTD/svg10.dtd">
<!-- Creator: CorelDRAW X6 -->
<svg xmlns="http://www.w3.org/2000/svg" xml:space="preserve" width="68px" height="88px" version="1.0" shape-rendering="geometricPrecision" text-rendering="geometricPrecision" image-rendering="optimizeQuality" fill-rule="evenodd" clip-rule="evenodd"
viewBox="0 0 6800 8835"
 xmlns:xlink="http://www.w3.org/1999/xlink">
 <g id="_7148.cgm:type:overlay">
  <metadata id="CorelCorpID_0Corel-Layer"/>
  <IC_ColorNameTable/>
  <PictureProperties/>
  <polyline fill="none" fill-opacity="0.501961" stroke="white" stroke-width="1064.05" stroke-linecap="round" stroke-linejoin="round" stroke-opacity="0.501961" points="2467,1508 2447,1528 2418,1560 2388,1596 2362,1633 2335,1670 2313,1707 2289,1746 2266,1785 2248,1824 2227,1864 2212,1906 2194,1947 2179,1990 2166,2033 2154,2075 2144,2121 2137,2164 2129,2207 2124,2252 2119,2297 2118,2341 2118,2386 2118,2431 2119,2476 2124,2520 2129,2565 2137,2608 2144,2653 2154,2699 2166,2740 2179,2783 2194,2825 2212,2866 2227,2910 2248,2949 2266,2988 2289,3027 2313,3065 2335,3103 2362,3140 2388,3177 2418,3209 2447,3244 2457,3255 "/>
  <polyline fill="none" fill-opacity="0.501961" stroke="white" stroke-width="1064.05" stroke-linecap="round" stroke-linejoin="round" stroke-opacity="0.501961" points="4335,3263 4351,3244 4382,3209 4409,3177 4437,3140 4462,3103 4487,3065 4511,3027 4533,2988 4551,2949 4570,2910 4588,2866 4605,2825 4618,2783 4632,2740 4642,2699 4655,2653 4663,2608 4671,2565 4674,2520 4678,2476 4682,2431 4682,2386 4682,2341 4678,2297 4674,2252 4671,2207 4663,2164 4655,2121 4642,2075 4632,2033 4618,1990 4605,1947 4588,1906 4570,1864 4551,1824 4533,1785 4511,1746 4487,1707 4462,1670 4437,1633 4409,1596 4382,1560 4351,1528 4338,1514 "/>
  <polyline fill="none" fill-opacity="0.501961" stroke="white" stroke-width="1064.05" stroke-linecap="round" stroke-linejoin="round" stroke-opacity="0.501961" points="1782,861 1747,900 1697,957 1649,1018 1601,1080 1557,1144 1514,1207 1475,1276 1437,1344 1402,1413 1370,1481 1337,1554 1311,1627 1287,1701 1262,1772 1243,1849 1226,1924 1212,2002 1200,2075 1190,2154 1182,2231 1179,2308 1179,2386 1179,2463 1182,2540 1190,2618 1200,2695 1212,2771 1226,2847 1243,2925 1262,3000 1287,3074 1311,3147 1337,3218 1370,3291 1402,3360 1437,3429 1475,3496 1514,3564 1557,3628 1601,3693 1649,3754 1697,3816 1747,3872 1768,3895 "/>
  <polyline fill="none" fill-opacity="0.501961" stroke="white" stroke-width="1064.05" stroke-linecap="round" stroke-linejoin="round" stroke-opacity="0.501961" points="5021,3905 5050,3872 5100,3816 5151,3754 5198,3693 5240,3628 5284,3564 5322,3496 5361,3429 5395,3360 5430,3291 5458,3218 5485,3147 5513,3074 5535,3000 5555,2925 5573,2847 5588,2771 5599,2695 5609,2618 5615,2540 5620,2463 5622,2386 5620,2308 5615,2231 5609,2154 5599,2075 5588,2002 5573,1924 5555,1849 5535,1772 5513,1701 5485,1627 5458,1554 5430,1481 5395,1413 5361,1344 5322,1276 5284,1207 5240,1144 5198,1080 5151,1018 5100,957 5050,900 5026,875 "/>
  <polyline fill="none" fill-opacity="0.501961" stroke="white" stroke-width="1064.05" stroke-linecap="round" stroke-linejoin="round" stroke-opacity="0.501961" points="5753,4587 5794,4543 5867,4458 5938,4370 6006,4279 6069,4189 6133,4095 6192,3998 6245,3899 6296,3799 6344,3697 6387,3594 6428,3488 6464,3382 6497,3274 6526,3166 6552,3055 6572,2945 6591,2834 6603,2724 6615,2611 6619,2498 6623,2386 6619,2273 6615,2162 6603,2048 6591,1937 6572,1827 6552,1717 6526,1606 6497,1498 6464,1391 6428,1284 6387,1180 6344,1076 6296,973 6245,872 6192,776 6133,679 6069,585 6006,491 5938,403 5867,315 5794,231 "/>
  <polyline fill="none" fill-opacity="0.501961" stroke="white" stroke-width="1064.05" stroke-linecap="round" stroke-linejoin="round" stroke-opacity="0.501961" points="1055,177 1005,231 931,315 858,403 793,491 727,585 666,679 608,776 554,872 503,973 456,1076 410,1180 372,1284 335,1391 301,1498 272,1606 247,1717 225,1827 208,1937 195,2048 185,2162 178,2273 177,2386 178,2498 185,2611 195,2724 208,2834 225,2945 247,3055 272,3166 301,3274 335,3382 372,3488 410,3594 456,3697 503,3799 554,3899 608,3998 666,4095 727,4189 793,4279 858,4370 931,4458 1005,4543 1034,4574 "/>
  <polyline fill="none" fill-opacity="0.501961" stroke="red" stroke-width="354.447" stroke-linecap="round" stroke-linejoin="round" stroke-opacity="0.501961" points="2467,1508 2447,1528 2418,1560 2388,1596 2362,1633 2335,1670 2313,1707 2289,1746 2266,1785 2248,1824 2227,1864 2212,1906 2194,1947 2179,1990 2166,2033 2154,2075 2144,2121 2137,2164 2129,2207 2124,2252 2119,2297 2118,2341 2118,2386 2118,2431 2119,2476 2124,2520 2129,2565 2137,2608 2144,2653 2154,2699 2166,2740 2179,2783 2194,2825 2212,2866 2227,2910 2248,2949 2266,2988 2289,3027 2313,3065 2335,3103 2362,3140 2388,3177 2418,3209 2447,3244 2457,3255 "/>
  <polyline fill="none" fill-opacity="0.501961" stroke="red" stroke-width="354.447" stroke-linecap="round" stroke-linejoin="round" stroke-opacity="0.501961" points="4335,3263 4351,3244 4382,3209 4409,3177 4437,3140 4462,3103 4487,3065 4511,3027 4533,2988 4551,2949 4570,2910 4588,2866 4605,2825 4618,2783 4632,2740 4642,2699 4655,2653 4663,2608 4671,2565 4674,2520 4678,2476 4682,2431 4682,2386 4682,2341 4678,2297 4674,2252 4671,2207 4663,2164 4655,2121 4642,2075 4632,2033 4618,1990 4605,1947 4588,1906 4570,1864 4551,1824 4533,1785 4511,1746 4487,1707 4462,1670 4437,1633 4409,1596 4382,1560 4351,1528 4338,1514 "/>
  <polyline fill="none" fill-opacity="0.501961" stroke="red" stroke-width="354.447" stroke-linecap="round" stroke-linejoin="round" stroke-opacity="0.501961" points="1782,861 1747,900 1697,957 1649,1018 1601,1080 1557,1144 1514,1207 1475,1276 1437,1344 1402,1413 1370,1481 1337,1554 1311,1627 1287,1701 1262,1772 1243,1849 1226,1924 1212,2002 1200,2075 1190,2154 1182,2231 1179,2308 1179,2386 1179,2463 1182,2540 1190,2618 1200,2695 1212,2771 1226,2847 1243,2925 1262,3000 1287,3074 1311,3147 1337,3218 1370,3291 1402,3360 1437,3429 1475,3496 1514,3564 1557,3628 1601,3693 1649,3754 1697,3816 1747,3872 1768,3895 "/>
  <polyline fill="none" fill-opacity="0.501961" stroke="red" stroke-width="354.447" stroke-linecap="round" stroke-linejoin="round" stroke-opacity="0.501961" points="5021,3905 5050,3872 5100,3816 5151,3754 5198,3693 5240,3628 5284,3564 5322,3496 5361,3429 5395,3360 5430,3291 5458,3218 5485,3147 5513,3074 5535,3000 5555,2925 5573,2847 5588,2771 5599,2695 5609,2618 5615,2540 5620,2463 5622,2386 5620,2308 5615,2231 5609,2154 5599,2075 5588,2002 5573,1924 5555,1849 5535,1772 5513,1701 5485,1627 5458,1554 5430,1481 5395,1413 5361,1344 5322,1276 5284,1207 5240,1144 5198,1080 5151,1018 5100,957 5050,900 5026,875 "/>
  <polyline fill="none" fill-opacity="0.501961" stroke="red" stroke-width="354.447" stroke-linecap="round" stroke-linejoin="round" stroke-opacity="0.501961" points="5753,4587 5794,4543 5867,4458 5938,4370 6006,4279 6069,4189 6133,4095 6192,3998 6245,3899 6296,3799 6344,3697 6387,3594 6428,3488 6464,3382 6497,3274 6526,3166 6552,3055 6572,2945 6591,2834 6603,2724 6615,2611 6619,2498 6623,2386 6619,2273 6615,2162 6603,2048 6591,1937 6572,1827 6552,1717 6526,1606 6497,1498 6464,1391 6428,1284 6387,1180 6344,1076 6296,973 6245,872 6192,776 6133,679 6069,585 6006,491 5938,403 5867,315 5794,231 "/>
  <polyline fill="none" fill-opacity="0.501961" stroke="red" stroke-width="354.447" stroke-linecap="round" stroke-linejoin="round" stroke-opacity="0.501961" points="1055,177 1005,231 931,315 858,403 793,491 727,585 666,679 608,776 554,872 503,973 456,1076 410,1180 372,1284 335,1391 301,1498 272,1606 247,1717 225,1827 208,1937 195,2048 185,2162 178,2273 177,2386 178,2498 185,2611 195,2724 208,2834 225,2945 247,3055 272,3166 301,3274 335,3382 372,3488 410,3594 456,3697 503,3799 554,3899 608,3998 666,4095 727,4189 793,4279 858,4370 931,4458 1005,4543 1034,4574 "/>
  <polygon fill="red" fill-opacity="0.501961" stroke="white" stroke-width="354.447" stroke-linecap="square" stroke-linejoin="round" stroke-opacity="0.501961" points="5797,7737 1053,7737 1327,7388 1640,6939 1888,6478 2136,5987 2332,5518 2476,5051 2658,4376 2763,3925 2841,3384 2920,2833 2960,2332 2980,2242 3869,2242 3890,2332 3930,2833 4009,3384 4086,3925 4192,4376 4374,5051 4517,5518 4714,5987 4962,6478 5208,6939 5523,7388 "/>
  <path fill="red" fill-opacity="0.501961" stroke="white" stroke-width="354.447" stroke-linecap="square" stroke-linejoin="round" stroke-opacity="0.501961" d="M4345 7737c0,-508 -412,-921 -921,-921 -508,0 -921,412 -921,921 0,508 412,921 921,921 508,0 921,-412 921,-921z"/>
 </g>
</svg>
