<?xml version="1.0" encoding="UTF-8"?>
<!DOCTYPE svg PUBLIC "-//W3C//DTD SVG 1.0//EN" "http://www.w3.org/TR/2001/REC-SVG-20010904/DTD/svg10.dtd">
<!-- Creator: CorelDRAW X6 -->
<svg xmlns="http://www.w3.org/2000/svg" xml:space="preserve" width="86px" height="86px" version="1.0" shape-rendering="geometricPrecision" text-rendering="geometricPrecision" image-rendering="optimizeQuality" fill-rule="evenodd" clip-rule="evenodd"
viewBox="0 0 8600 8526"
 xmlns:xlink="http://www.w3.org/1999/xlink">
 <g id="_7153.cgm:type:overlay">
  <metadata id="CorelCorpID_0Corel-Layer"/>
  <IC_ColorNameTable/>
  <PictureProperties/>
  <path fill="red" fill-opacity="0.501961" d="M3127 7761c0,-325 -263,-588 -588,-588 -325,0 -588,263 -588,588 0,325 263,588 588,588 325,0 588,-263 588,-588z"/>
  <polyline fill="none" fill-opacity="0.501961" stroke="red" stroke-width="352.964" stroke-linecap="round" stroke-linejoin="round" stroke-opacity="0.501961" points="177,8218 2538,176 4897,8218 "/>
  <polyline fill="none" fill-opacity="0.501961" stroke="red" stroke-width="352.964" stroke-linecap="round" stroke-linejoin="round" stroke-opacity="0.501961" points="3703,8218 6062,176 8424,8218 "/>
  <path fill="red" fill-opacity="0.501961" d="M6650 7761c0,-325 -263,-588 -588,-588 -325,0 -588,263 -588,588 0,325 263,588 588,588 325,0 588,-263 588,-588z"/>
  <polyline fill="none" fill-opacity="0.501961" stroke="red" stroke-width="352.964" stroke-linecap="round" stroke-linejoin="round" stroke-opacity="0.501961" points="3703,8218 6062,176 8424,8218 "/>
 </g>
</svg>
