<?xml version="1.0" encoding="UTF-8"?>
<!DOCTYPE svg PUBLIC "-//W3C//DTD SVG 1.0//EN" "http://www.w3.org/TR/2001/REC-SVG-20010904/DTD/svg10.dtd">
<!-- Creator: CorelDRAW X6 -->
<svg xmlns="http://www.w3.org/2000/svg" xml:space="preserve" width="2827px" height="1051px" version="1.0" shape-rendering="geometricPrecision" text-rendering="geometricPrecision" image-rendering="optimizeQuality" fill-rule="evenodd" clip-rule="evenodd"
viewBox="0 0 282700 105082"
 xmlns:xlink="http://www.w3.org/1999/xlink">
 <g id="_7157.cgm:type:overlay">
  <metadata id="CorelCorpID_0Corel-Layer"/>
  <IC_ColorNameTable/>
  <PictureProperties/>
  <line fill="none" fill-opacity="0.501961" stroke="white" stroke-width="1409.02" stroke-opacity="0.501961" x1="539" y1="103047" x2="282178" y2= "539" />
  <line fill="none" fill-opacity="0.501961" stroke="red" stroke-width="713.134" stroke-opacity="0.501961" x1="539" y1="103047" x2="282178" y2= "539" />
  <path fill="red" fill-opacity="0.501961" stroke="white" stroke-width="347.945" stroke-linecap="square" stroke-linejoin="round" stroke-opacity="0.501961" d="M2974 104142c0,-423 -343,-765 -765,-765 -423,0 -765,343 -765,765 0,423 343,765 765,765 423,0 765,-343 765,-765z"/>
  <path fill="red" fill-opacity="0.501961" stroke="white" stroke-width="347.945" stroke-linecap="square" stroke-linejoin="round" stroke-opacity="0.501961" d="M487 100698c-240,346 -154,821 191,1061 346,240 821,154 1061,-191 240,-346 154,-821 -191,-1061 -346,-240 -821,-154 -1061,191z"/>
  <path fill="red" fill-opacity="0.501961" stroke="white" stroke-width="347.945" stroke-linecap="square" stroke-linejoin="round" stroke-opacity="0.501961" d="M36755 90888c-240,346 -154,829 191,1078 346,250 821,172 1061,-174 240,-346 155,-829 -191,-1078 -346,-250 -821,-172 -1061,174z"/>
  <path fill="red" fill-opacity="0.501961" stroke="white" stroke-width="347.945" stroke-linecap="square" stroke-linejoin="round" stroke-opacity="0.501961" d="M35659 87896c-240,355 -154,838 191,1078 346,240 821,147 1061,-209 240,-356 155,-838 -191,-1078 -346,-240 -821,-147 -1061,209z"/>
  <path fill="red" fill-opacity="0.501961" stroke="white" stroke-width="347.945" stroke-linecap="square" stroke-linejoin="round" stroke-opacity="0.501961" d="M72206 77998c-240,346 -154,821 191,1061 346,240 821,155 1061,-191 240,-346 154,-821 -191,-1061 -346,-240 -821,-154 -1061,191z"/>
  <path fill="red" fill-opacity="0.501961" stroke="white" stroke-width="347.945" stroke-linecap="square" stroke-linejoin="round" stroke-opacity="0.501961" d="M70832 75093c-240,346 -154,829 191,1078 346,250 821,172 1061,-174 240,-346 154,-829 -191,-1078 -346,-250 -821,-172 -1061,174z"/>
  <path fill="red" fill-opacity="0.501961" stroke="white" stroke-width="347.945" stroke-linecap="square" stroke-linejoin="round" stroke-opacity="0.501961" d="M107239 65735c48,423 430,719 852,661 423,-58 726,-447 678,-870 -48,-423 -430,-719 -852,-661 -423,58 -726,447 -679,870z"/>
  <path fill="red" fill-opacity="0.501961" stroke="white" stroke-width="347.945" stroke-linecap="square" stroke-linejoin="round" stroke-opacity="0.501961" d="M106004 62291c240,-355 715,-441 1061,-191 346,250 432,740 192,1096 -240,355 -715,441 -1061,191 -346,-250 -432,-740 -192,-1096z"/>
  <path fill="red" fill-opacity="0.501961" stroke="white" stroke-width="347.945" stroke-linecap="square" stroke-linejoin="round" stroke-opacity="0.501961" d="M142533 52393c240,-346 723,-431 1078,-191 355,240 449,715 209,1061 -240,346 -723,431 -1078,191 -355,-240 -449,-715 -209,-1061z"/>
  <path fill="red" fill-opacity="0.501961" stroke="white" stroke-width="347.945" stroke-linecap="square" stroke-linejoin="round" stroke-opacity="0.501961" d="M141176 49488c240,-346 715,-424 1061,-174 346,250 431,733 191,1078 -240,346 -715,424 -1061,174 -346,-250 -431,-733 -191,-1078z"/>
  <path fill="red" fill-opacity="0.501961" stroke="white" stroke-width="347.945" stroke-linecap="square" stroke-linejoin="round" stroke-opacity="0.501961" d="M177705 39590c250,-346 733,-431 1079,-191 346,240 424,715 174,1061 -250,346 -733,431 -1078,191 -346,-240 -424,-715 -174,-1061z"/>
  <path fill="red" fill-opacity="0.501961" stroke="white" stroke-width="347.945" stroke-linecap="square" stroke-linejoin="round" stroke-opacity="0.501961" d="M176331 36703c240,-346 723,-432 1079,-191 356,240 449,715 209,1061 -240,346 -723,431 -1079,191 -356,-240 -449,-715 -209,-1061z"/>
  <path fill="red" fill-opacity="0.501961" stroke="white" stroke-width="347.945" stroke-linecap="square" stroke-linejoin="round" stroke-opacity="0.501961" d="M212738 27171c-29,423 290,789 713,818 423,29 789,-290 818,-713 29,-423 -290,-789 -713,-818 -423,-29 -789,290 -818,713z"/>
  <path fill="red" fill-opacity="0.501961" stroke="white" stroke-width="347.945" stroke-linecap="square" stroke-linejoin="round" stroke-opacity="0.501961" d="M211364 24283c-29,423 291,789 713,818 423,29 789,-290 818,-713 29,-423 -290,-789 -713,-818 -423,-29 -789,290 -818,713z"/>
  <path fill="red" fill-opacity="0.501961" stroke="white" stroke-width="347.945" stroke-linecap="square" stroke-linejoin="round" stroke-opacity="0.501961" d="M247910 14368c-29,423 291,789 713,818 423,29 789,-290 817,-713 29,-423 -291,-789 -713,-817 -423,-29 -789,290 -817,713z"/>
  <path fill="red" fill-opacity="0.501961" stroke="white" stroke-width="347.945" stroke-linecap="square" stroke-linejoin="round" stroke-opacity="0.501961" d="M246536 11481c-29,423 291,789 713,818 423,29 789,-291 817,-713 29,-423 -290,-789 -713,-817 -423,-29 -789,291 -817,713z"/>
 </g>
</svg>
