<?xml version="1.0" encoding="UTF-8"?>
<!DOCTYPE svg PUBLIC "-//W3C//DTD SVG 1.0//EN" "http://www.w3.org/TR/2001/REC-SVG-20010904/DTD/svg10.dtd">
<!-- Creator: CorelDRAW X6 -->
<svg xmlns="http://www.w3.org/2000/svg" xml:space="preserve" width="57px" height="81px" version="1.0" shape-rendering="geometricPrecision" text-rendering="geometricPrecision" image-rendering="optimizeQuality" fill-rule="evenodd" clip-rule="evenodd"
viewBox="0 0 5700 8156"
 xmlns:xlink="http://www.w3.org/1999/xlink">
 <g id="_0003.cgm:type:overlay">
  <metadata id="CorelCorpID_0Corel-Layer"/>
  <IC_ColorNameTable/>
  <PictureProperties/>
  <polygon fill="#000001" fill-opacity="0.501961" points="1522,7652 2,7652 2,7274 1522,7274 "/>
  <polygon fill="#000001" fill-opacity="0.501961" points="2636,7274 4156,7274 4156,7652 2636,7652 "/>
  <line fill="none" fill-opacity="0.501961" stroke="#000001" stroke-width="211.327" stroke-linecap="round" stroke-linejoin="round" stroke-opacity="0.501961" x1="1190" y1="2528" x2="2969" y2= "2528" />
  <path fill="none" fill-opacity="0.501961" stroke="#000001" stroke-width="211.327" stroke-linecap="round" stroke-linejoin="round" stroke-opacity="0.501961" d="M2877 2520c314,-144 527,-375 558,-620"/>
  <path fill="none" fill-opacity="0.501961" stroke="#000001" stroke-width="211.327" stroke-linecap="round" stroke-linejoin="round" stroke-opacity="0.501961" d="M1053 1262c-213,151 -335,359 -335,563 0,278 218,546 580,704"/>
  <path fill="none" fill-opacity="0.501961" stroke="#000001" stroke-width="211.327" stroke-linecap="round" stroke-linejoin="round" stroke-opacity="0.501961" d="M4139 330c-171,-138 -415,-222 -660,-225 -315,-3 -620,125 -790,333"/>
  <path fill="none" fill-opacity="0.501961" stroke="#000001" stroke-width="211.327" stroke-linecap="round" stroke-linejoin="round" stroke-opacity="0.501961" d="M2694 431c-261,12 -500,110 -601,250"/>
  <path fill="none" fill-opacity="0.501961" stroke="#000001" stroke-width="211.327" stroke-linecap="round" stroke-linejoin="round" stroke-opacity="0.501961" d="M2089 681c-64,33 -126,78 -172,122"/>
  <path fill="none" fill-opacity="0.501961" stroke="#000001" stroke-width="211.327" stroke-linecap="round" stroke-linejoin="round" stroke-opacity="0.501961" d="M3446 1913c423,-39 807,-160 997,-316"/>
  <path fill="none" fill-opacity="0.501961" stroke="#000001" stroke-width="211.327" stroke-linecap="round" stroke-linejoin="round" stroke-opacity="0.501961" d="M5380 943c76,-71 122,-157 122,-242 0,-258 -379,-469 -843,-469 -188,0 -376,35 -521,99"/>
  <path fill="none" fill-opacity="0.501961" stroke="#000001" stroke-width="211.327" stroke-linecap="round" stroke-linejoin="round" stroke-opacity="0.501961" d="M4461 1599c17,-1 38,-1 55,-2 602,-22 1087,-213 1079,-427 -3,-83 -87,-165 -230,-225"/>
  <path fill="none" fill-opacity="0.501961" stroke="#000001" stroke-width="211.327" stroke-linecap="round" stroke-linejoin="round" stroke-opacity="0.501961" d="M1907 799c-428,4 -792,205 -841,461"/>
  <path fill="none" fill-opacity="0.501961" stroke="#000001" stroke-width="209.9" stroke-linecap="square" stroke-linejoin="round" stroke-opacity="0.501961" d="M2667 7463c0,-325 -263,-588 -588,-588 -325,0 -588,263 -588,588 0,325 263,588 588,588 325,0 588,-263 588,-588z"/>
  <line fill="none" fill-opacity="0.501961" stroke="#000001" stroke-width="211.327" stroke-linecap="round" stroke-linejoin="round" stroke-opacity="0.501961" x1="2969" y1="2528" x2="2969" y2= "7274" />
  <line fill="none" fill-opacity="0.501961" stroke="#000001" stroke-width="211.327" stroke-linecap="round" stroke-linejoin="round" stroke-opacity="0.501961" x1="1190" y1="2528" x2="1190" y2= "7274" />
 </g>
</svg>
