<?xml version="1.0" encoding="UTF-8"?>
<!DOCTYPE svg PUBLIC "-//W3C//DTD SVG 1.0//EN" "http://www.w3.org/TR/2001/REC-SVG-20010904/DTD/svg10.dtd">
<!-- Creator: CorelDRAW X6 -->
<svg xmlns="http://www.w3.org/2000/svg" xml:space="preserve" width="38px" height="82px" version="1.0" shape-rendering="geometricPrecision" text-rendering="geometricPrecision" image-rendering="optimizeQuality" fill-rule="evenodd" clip-rule="evenodd"
viewBox="0 0 3800 8247"
 xmlns:xlink="http://www.w3.org/1999/xlink">
 <g id="_0006.cgm:type:overlay">
  <metadata id="CorelCorpID_0Corel-Layer"/>
  <IC_ColorNameTable/>
  <PictureProperties/>
  <polygon fill="#000001" fill-opacity="0.501961" points="1189,6646 1189,3147 2611,3147 2611,6231 1189,6231 "/>
  <polygon fill="#000001" fill-opacity="0.501961" stroke="#000001" stroke-width="90.3745" stroke-linecap="square" stroke-linejoin="round" stroke-opacity="0.501961" points="1189,7298 2,7298 2,6587 1189,6587 "/>
  <polygon fill="#000001" fill-opacity="0.501961" stroke="#000001" stroke-width="90.3745" stroke-linecap="square" stroke-linejoin="round" stroke-opacity="0.501961" points="2611,6587 3798,6587 3798,7298 2611,7298 "/>
  <path fill="none" fill-opacity="0.501961" stroke="#000001" stroke-width="711.373" stroke-linecap="square" stroke-linejoin="round" stroke-opacity="0.501961" d="M2849 6942c0,-524 -425,-949 -949,-949 -524,0 -949,425 -949,949 0,524 425,949 949,949 524,0 949,-425 949,-949z"/>
  <path fill="none" fill-opacity="0.501961" stroke="#000001" stroke-width="711.373" stroke-linecap="round" stroke-linejoin="round" stroke-opacity="0.501961" d="M1356 1890c-1,9 -6,28 -7,39 -40,307 178,589 485,629 307,40 590,-178 630,-484 10,-74 4,-152 -15,-223"/>
  <path fill="none" fill-opacity="0.501961" stroke="#000001" stroke-width="711.373" stroke-linecap="round" stroke-linejoin="round" stroke-opacity="0.501961" d="M1987 1040c150,-74 309,-180 430,-300 117,-115 218,-256 290,-401"/>
  <path fill="none" fill-opacity="0.501961" stroke="#000001" stroke-width="711.373" stroke-linecap="round" stroke-linejoin="round" stroke-opacity="0.501961" d="M2701 356c-22,52 -64,126 -89,187 -187,442 -232,934 -143,1400"/>
  <path fill="none" fill-opacity="0.501961" stroke="#000001" stroke-width="711.373" stroke-linecap="round" stroke-linejoin="round" stroke-opacity="0.501961" d="M1980 1038c-330,154 -562,476 -622,832"/>
 </g>
</svg>
