<?xml version="1.0" encoding="UTF-8"?>
<!DOCTYPE svg PUBLIC "-//W3C//DTD SVG 1.0//EN" "http://www.w3.org/TR/2001/REC-SVG-20010904/DTD/svg10.dtd">
<!-- Creator: CorelDRAW X6 -->
<svg xmlns="http://www.w3.org/2000/svg" xml:space="preserve" width="74px" height="74px" version="1.0" shape-rendering="geometricPrecision" text-rendering="geometricPrecision" image-rendering="optimizeQuality" fill-rule="evenodd" clip-rule="evenodd"
viewBox="0 0 7400 7400"
 xmlns:xlink="http://www.w3.org/1999/xlink">
 <g id="_0030.cgm:type:overlay">
  <metadata id="CorelCorpID_0Corel-Layer"/>
  <IC_ColorNameTable/>
  <PictureProperties/>
  <path fill="none" fill-opacity="0.501961" stroke="#DE4BC9" stroke-width="354.004" stroke-linecap="square" stroke-linejoin="round" stroke-opacity="0.501961" d="M7223 3700c0,-1946 -1577,-3523 -3523,-3523 -1946,0 -3523,1577 -3523,3523 0,1946 1577,3523 3523,3523 1946,0 3523,-1577 3523,-3523z"/>
  <polygon fill="#000001" fill-opacity="0.501961" points="3123,6149 1961,6149 1961,5522 3123,5522 "/>
  <line fill="none" fill-opacity="0.501961" stroke="#000001" stroke-width="707.891" stroke-linecap="round" stroke-linejoin="round" stroke-opacity="0.501961" x1="2933" y1="5771" x2="3700" y2= "887" />
  <line fill="none" fill-opacity="0.501961" stroke="#000001" stroke-width="707.891" stroke-linecap="round" stroke-linejoin="round" stroke-opacity="0.501961" x1="3700" y1="887" x2="4467" y2= "5771" />
  <path fill="none" fill-opacity="0.501961" stroke="#000001" stroke-width="707.655" stroke-linecap="square" stroke-linejoin="round" stroke-opacity="0.501961" d="M2992 5843c-4,-391 310,-711 700,-715 391,-4 711,309 715,700 4,391 -310,711 -700,715 -391,4 -711,-309 -715,-700z"/>
  <polygon fill="#000001" fill-opacity="0.501961" points="4277,5523 5439,5523 5439,6150 4277,6150 "/>
 </g>
</svg>
