<?xml version="1.0" encoding="UTF-8"?>
<!DOCTYPE svg PUBLIC "-//W3C//DTD SVG 1.0//EN" "http://www.w3.org/TR/2001/REC-SVG-20010904/DTD/svg10.dtd">
<!-- Creator: CorelDRAW X6 -->
<svg xmlns="http://www.w3.org/2000/svg" xml:space="preserve" width="52px" height="123px" version="1.0" shape-rendering="geometricPrecision" text-rendering="geometricPrecision" image-rendering="optimizeQuality" fill-rule="evenodd" clip-rule="evenodd"
viewBox="0 0 5200 12209"
 xmlns:xlink="http://www.w3.org/1999/xlink">
 <g id="_0040.cgm:type:overlay">
  <metadata id="CorelCorpID_0Corel-Layer"/>
  <IC_ColorNameTable/>
  <PictureProperties/>
  <polyline fill="none" fill-opacity="0.501961" stroke="#DE4BCB" stroke-width="233.949" stroke-linecap="round" stroke-linejoin="round" stroke-opacity="0.501961" points="5083,6104 5081,6018 5077,5931 5069,5845 5059,5759 5046,5673 5028,5588 5009,5503 4987,5420 4961,5338 4933,5255 4902,5174 4868,5094 4832,5016 4792,4939 4750,4863 4705,4789 4658,4716 4609,4645 4557,4576 4502,4509 4445,4443 4386,4380 4324,4319 4262,4259 4196,4202 4128,4148 4059,4096 3988,4046 3916,3999 3841,3954 3766,3912 3688,3873 3610,3836 3530,3803 3449,3771 3367,3743 3284,3718 3201,3696 3116,3676 3031,3659 2946,3646 2860,3635 2773,3628 2686,3623 2600,3622 2514,3623 2427,3628 2340,3635 2254,3646 2169,3659 2084,3676 1999,3696 1916,3718 1833,3743 1751,3771 1670,3803 1590,3836 1512,3873 1434,3912 1359,3954 1284,3999 1212,4046 1141,4096 1072,4148 1004,4202 938,4259 876,4319 814,4380 755,4443 698,4509 643,4576 591,4645 542,4716 495,4789 450,4863 408,4939 368,5016 332,5094 298,5174 267,5255 239,5338 213,5420 191,5503 172,5588 155,5673 141,5759 131,5845 123,5931 119,6018 117,6104 119,6191 123,6277 131,6364 141,6450 155,6535 172,6620 191,6705 213,6789 239,6871 267,6954 298,7034 332,7115 368,7192 408,7270 450,7346 495,7420 542,7493 591,7564 643,7633 698,7700 755,7766 814,7829 876,7890 938,7949 1004,8006 1072,8061 1141,8113 1212,8163 1284,8210 1359,8255 1434,8297 1512,8336 1590,8372 1670,8406 1751,8437 1833,8465 1916,8491 1999,8513 2084,8533 2169,8550 2254,8563 2340,8573 2427,8581 2514,8585 2600,8587 2686,8585 2773,8581 2860,8573 2946,8563 3031,8550 3116,8533 3201,8513 3284,8491 3367,8465 3449,8437 3530,8406 3610,8372 3688,8336 3766,8297 3841,8255 3916,8210 3988,8163 4059,8113 4128,8061 4196,8006 4262,7949 4324,7890 4386,7829 4445,7766 4502,7700 4557,7633 4609,7564 4658,7493 4705,7420 4750,7346 4792,7270 4832,7192 4868,7115 4902,7034 4933,6954 4961,6871 4987,6789 5009,6705 5028,6620 5046,6535 5059,6450 5069,6364 5077,6277 5081,6191 5083,6104 5083,6104 "/>
  <line fill="none" fill-opacity="0.501961" stroke="#DE4BCB" stroke-width="233.949" stroke-linecap="round" stroke-linejoin="round" stroke-opacity="0.501961" x1="2600" y1="117" x2="4920" y2= "5221" />
  <line fill="none" fill-opacity="0.501961" stroke="#DE4BCB" stroke-width="233.949" stroke-linecap="round" stroke-linejoin="round" stroke-opacity="0.501961" x1="2600" y1="117" x2="259" y2= "5277" />
  <line fill="none" fill-opacity="0.501961" stroke="#DE4BCB" stroke-width="233.949" stroke-linecap="round" stroke-linejoin="round" stroke-opacity="0.501961" x1="2600" y1="12092" x2="4920" y2= "6987" />
  <line fill="none" fill-opacity="0.501961" stroke="#DE4BCB" stroke-width="233.949" stroke-linecap="round" stroke-linejoin="round" stroke-opacity="0.501961" x1="2600" y1="12092" x2="280" y2= "6987" />
 </g>
</svg>
