<?xml version="1.0" encoding="UTF-8"?>
<!DOCTYPE svg PUBLIC "-//W3C//DTD SVG 1.0//EN" "http://www.w3.org/TR/2001/REC-SVG-20010904/DTD/svg10.dtd">
<!-- Creator: CorelDRAW X6 -->
<svg xmlns="http://www.w3.org/2000/svg" xml:space="preserve" width="136px" height="156px" version="1.0" shape-rendering="geometricPrecision" text-rendering="geometricPrecision" image-rendering="optimizeQuality" fill-rule="evenodd" clip-rule="evenodd"
viewBox="0 0 13600 15619"
 xmlns:xlink="http://www.w3.org/1999/xlink">
 <g id="_0058.cgm:type:overlay">
  <metadata id="CorelCorpID_0Corel-Layer"/>
  <IC_ColorNameTable/>
  <PictureProperties/>
  <line fill="none" fill-opacity="0.501961" stroke="#000001" stroke-width="355.831" stroke-linecap="round" stroke-linejoin="round" stroke-opacity="0.501961" x1="13422" y1="15441" x2="2032" y2= "4051" />
  <polygon fill="#000001" fill-opacity="0.501961" points="1051,4105 1051,3904 1051,3724 1069,3545 1103,3388 1138,3253 1225,3029 1348,2828 1488,2625 1716,2357 1838,2223 1941,2088 2012,1977 2064,1887 2098,1797 2134,1708 2153,1618 2153,1506 2134,1326 2098,1148 2012,990 1925,856 1802,722 1662,632 1505,588 1348,565 1190,588 1051,632 911,698 789,812 702,968 614,1148 545,1370 509,1618 4,1528 21,1349 56,1169 91,1013 142,880 194,745 265,610 335,497 422,408 509,296 614,229 720,161 824,94 946,50 1069,27 1190,4 1330,4 1488,4 1627,27 1749,72 1873,117 1995,161 2098,252 2204,318 2291,430 2378,544 2449,654 2518,766 2570,901 2606,1034 2641,1169 2657,1304 2657,1461 2657,1618 2622,1797 2588,1954 2536,2088 2449,2245 2343,2424 2204,2604 2029,2806 1838,3052 1716,3231 1645,3367 1593,3545 1575,3769 1558,4105 "/>
  <polygon fill="#000001" fill-opacity="0.501961" points="772,4962 772,4571 1838,4571 1838,4962 "/>
 </g>
</svg>
