<?xml version="1.0" encoding="UTF-8"?>
<!DOCTYPE svg PUBLIC "-//W3C//DTD SVG 1.0//EN" "http://www.w3.org/TR/2001/REC-SVG-20010904/DTD/svg10.dtd">
<!-- Creator: CorelDRAW X6 -->
<svg xmlns="http://www.w3.org/2000/svg" xml:space="preserve" width="78px" height="47px" version="1.0" shape-rendering="geometricPrecision" text-rendering="geometricPrecision" image-rendering="optimizeQuality" fill-rule="evenodd" clip-rule="evenodd"
viewBox="0 0 7800 4688"
 xmlns:xlink="http://www.w3.org/1999/xlink">
 <g id="_0064.cgm:type:overlay">
  <metadata id="CorelCorpID_0Corel-Layer"/>
  <IC_ColorNameTable/>
  <PictureProperties/>
  <path fill="#969F99" fill-opacity="0.501961" stroke="#969F99" stroke-width="90.0409" stroke-linecap="square" stroke-linejoin="round" stroke-opacity="0.501961" d="M4963 3624c0,-587 -476,-1063 -1063,-1063 -587,0 -1063,476 -1063,1063 0,587 476,1063 1063,1063 587,0 1063,-476 1063,-1063z"/>
  <polygon fill="#969F99" fill-opacity="0.501961" stroke="#969F99" stroke-width="90.0409" stroke-linecap="square" stroke-linejoin="round" stroke-opacity="0.501961" points="0,4097 0,3151 7800,3151 7800,4097 "/>
  <line fill="none" fill-opacity="0.501961" stroke="#969F99" stroke-width="90.0409" stroke-linecap="round" stroke-linejoin="round" stroke-opacity="0.501961" x1="237" y1="1261" x2="5673" y2= "3151" />
  <line fill="none" fill-opacity="0.501961" stroke="#969F99" stroke-width="90.0409" stroke-linecap="round" stroke-linejoin="round" stroke-opacity="0.501961" x1="237" y1="1261" x2="1301" y2= "3151" />
  <line fill="none" fill-opacity="0.501961" stroke="#969F99" stroke-width="90.0409" stroke-linecap="round" stroke-linejoin="round" stroke-opacity="0.501961" x1="1301" y1="3151" x2="5673" y2= "3151" />
  <polygon fill="#969F99" fill-opacity="0.501961" stroke="#969F99" stroke-width="90.0409" stroke-linecap="square" stroke-linejoin="round" stroke-opacity="0.501961" points="237,1261 1301,3151 5673,3151 "/>
  <polygon fill="#969F99" fill-opacity="0.501961" stroke="#969F99" stroke-width="90.0409" stroke-linecap="square" stroke-linejoin="round" stroke-opacity="0.501961" points="3629,2448 4503,0 5282,279 4407,2727 "/>
 </g>
</svg>
