<?xml version="1.0" encoding="UTF-8"?>
<!DOCTYPE svg PUBLIC "-//W3C//DTD SVG 1.0//EN" "http://www.w3.org/TR/2001/REC-SVG-20010904/DTD/svg10.dtd">
<!-- Creator: CorelDRAW X6 -->
<svg xmlns="http://www.w3.org/2000/svg" xml:space="preserve" width="158px" height="130px" version="1.0" shape-rendering="geometricPrecision" text-rendering="geometricPrecision" image-rendering="optimizeQuality" fill-rule="evenodd" clip-rule="evenodd"
viewBox="0 0 15800 12995"
 xmlns:xlink="http://www.w3.org/1999/xlink">
 <g id="_0087.cgm:type:overlay">
  <metadata id="CorelCorpID_0Corel-Layer"/>
  <IC_ColorNameTable/>
  <PictureProperties/>
  <path fill="none" fill-opacity="0.501961" stroke="#EBB7EE" stroke-width="707.993" stroke-linecap="square" stroke-linejoin="round" stroke-opacity="0.501961" d="M12152 6253c0,-3258 -2641,-5899 -5899,-5899 -3258,0 -5899,2641 -5899,5899 0,3258 2641,5899 5899,5899 3258,0 5899,-2641 5899,-5899z"/>
  <polygon fill="#EBB7EE" fill-opacity="0.501961" points="6775,10185 6775,11156 5562,11156 5562,10185 "/>
  <polygon fill="#EBB7EE" fill-opacity="0.501961" points="5600,8580 5600,1501 6809,1501 6809,8580 "/>
  <polygon fill="#DE4BC9" fill-opacity="0.501961" stroke="#DE4BC9" stroke-width="89.9001" stroke-linecap="square" stroke-linejoin="round" stroke-opacity="0.501961" points="14681,12987 14125,12987 14125,12347 14681,12347 "/>
  <polygon fill="#DE4BC9" fill-opacity="0.501961" stroke="#DE4BC9" stroke-width="89.9001" stroke-linecap="square" stroke-linejoin="round" stroke-opacity="0.501961" points="15793,8467 15771,8702 15707,8915 15621,9129 15494,9322 15109,9814 14916,10070 14852,10241 14788,10412 14745,10604 14703,10797 14660,11032 14638,11245 14617,11502 14617,11759 14189,11759 14189,11245 14210,10904 14275,10583 14360,10262 14488,9963 14703,9664 15065,9150 15194,8937 15280,8766 15344,8595 15365,8445 15344,8232 15301,8039 15237,7890 15152,7761 15023,7675 14852,7611 14681,7569 14467,7547 14253,7569 14083,7611 13933,7675 13804,7783 13741,7890 13677,7997 13613,8146 13548,8295 13163,8295 13163,8167 13185,8060 13206,7932 13248,7826 13292,7718 13356,7633 13441,7526 13505,7441 13613,7377 13698,7312 13804,7248 13933,7205 14040,7163 14168,7142 14317,7120 14467,7120 14617,7120 14767,7142 14916,7184 15044,7227 15173,7270 15280,7334 15387,7420 15472,7505 15558,7611 15621,7697 15664,7804 15707,7932 15750,8039 15771,8189 15793,8317 "/>
 </g>
</svg>
