<?xml version="1.0" encoding="UTF-8"?>
<!DOCTYPE svg PUBLIC "-//W3C//DTD SVG 1.0//EN" "http://www.w3.org/TR/2001/REC-SVG-20010904/DTD/svg10.dtd">
<!-- Creator: CorelDRAW X6 -->
<svg xmlns="http://www.w3.org/2000/svg" xml:space="preserve" width="132px" height="175px" version="1.0" shape-rendering="geometricPrecision" text-rendering="geometricPrecision" image-rendering="optimizeQuality" fill-rule="evenodd" clip-rule="evenodd"
viewBox="0 0 13200 17443"
 xmlns:xlink="http://www.w3.org/1999/xlink">
 <g id="_0089.cgm:type:overlay">
  <metadata id="CorelCorpID_0Corel-Layer"/>
  <IC_ColorNameTable/>
  <PictureProperties/>
  <polygon fill="#DE4BC9" fill-opacity="0.501961" stroke="#DE4BC9" stroke-width="89.7238" stroke-linecap="square" stroke-linejoin="round" stroke-opacity="0.501961" points="1451,14122 994,14122 994,13601 1451,13601 "/>
  <polygon fill="#DE4BC9" fill-opacity="0.501961" stroke="#DE4BC9" stroke-width="89.7238" stroke-linecap="square" stroke-linejoin="round" stroke-opacity="0.501961" points="2615,9685 2586,9921 2526,10129 2437,10336 2319,10544 1934,11018 1726,11284 1608,11610 1518,12026 1460,12469 1430,12974 1015,12974 1015,12440 1045,12115 1104,11788 1193,11462 1311,11166 1518,10869 1874,10366 2022,10159 2112,9981 2170,9803 2200,9685 2200,9448 2141,9271 2082,9092 1992,8974 1845,8885 1697,8825 1518,8766 1311,8766 1104,8795 926,8825 778,8914 659,9003 570,9092 512,9210 451,9359 393,9507 8,9507 37,9271 97,9033 215,8856 363,8677 541,8529 778,8441 1015,8380 1282,8351 1608,8380 1874,8441 2112,8559 2289,8736 2437,8914 2526,9151 2586,9417 "/>
  <polygon fill="#DE4BC9" fill-opacity="0.501961" stroke="#DE4BC9" stroke-width="89.7238" stroke-linecap="square" stroke-linejoin="round" stroke-opacity="0.501961" points="12028,14122 11572,14122 11572,13601 12028,13601 "/>
  <polygon fill="#DE4BC9" fill-opacity="0.501961" stroke="#DE4BC9" stroke-width="89.7238" stroke-linecap="square" stroke-linejoin="round" stroke-opacity="0.501961" points="13192,9685 13162,9921 13104,10129 13014,10336 12896,10544 12511,11018 12304,11284 12185,11610 12096,12026 12036,12469 12007,12974 11592,12974 11592,12440 11621,12115 11681,11788 11770,11462 11889,11166 12096,10869 12451,10366 12599,10159 12688,9981 12748,9803 12778,9685 12778,9448 12718,9271 12659,9092 12570,8974 12422,8885 12274,8825 12096,8766 11889,8766 11681,8795 11504,8825 11355,8914 11237,9003 11148,9092 11089,9210 11029,9359 10970,9507 10584,9507 10615,9271 10674,9033 10792,8856 10941,8677 11118,8529 11355,8441 11592,8380 11859,8351 12185,8380 12451,8441 12688,8559 12866,8736 13014,8914 13104,9151 13162,9417 "/>
  <polygon fill="#DE4BCB" fill-opacity="0.501961" points="5140,14609 5140,16493 7965,16493 7965,14609 8907,14609 8907,17436 4197,17436 4197,14609 "/>
  <polygon fill="#DE4BCB" fill-opacity="0.501961" points="4197,12844 4197,10840 5140,10840 5140,12844 "/>
  <polygon fill="#DE4BCB" fill-opacity="0.501961" points="7965,12844 7965,10840 8907,10840 8907,12844 "/>
  <polygon fill="#DE4BCB" fill-opacity="0.501961" points="4197,8722 4197,6837 5140,6837 5140,8722 "/>
  <polygon fill="#DE4BCB" fill-opacity="0.501961" points="7965,8722 7965,6837 8907,6837 8907,8722 "/>
  <polygon fill="#DE4BCB" fill-opacity="0.501961" points="5140,4953 5140,5660 2430,5660 3680,3947 4822,3947 4087,4953 "/>
  <polygon fill="#DE4BCB" fill-opacity="0.501961" points="7965,4953 7965,5660 10675,5660 9425,3947 8283,3947 9026,4953 "/>
  <polygon fill="#DE4BCB" fill-opacity="0.501961" points="4651,2615 6552,8 8454,2615 7311,2615 6552,1574 5794,2615 "/>
 </g>
</svg>
