<?xml version="1.0" encoding="UTF-8"?>
<!DOCTYPE svg PUBLIC "-//W3C//DTD SVG 1.0//EN" "http://www.w3.org/TR/2001/REC-SVG-20010904/DTD/svg10.dtd">
<!-- Creator: CorelDRAW X6 -->
<svg xmlns="http://www.w3.org/2000/svg" xml:space="preserve" width="166px" height="175px" version="1.0" shape-rendering="geometricPrecision" text-rendering="geometricPrecision" image-rendering="optimizeQuality" fill-rule="evenodd" clip-rule="evenodd"
viewBox="0 0 16600 17530"
 xmlns:xlink="http://www.w3.org/1999/xlink">
 <g id="_0098.cgm:type:overlay">
  <metadata id="CorelCorpID_0Corel-Layer"/>
  <IC_ColorNameTable/>
  <PictureProperties/>
  <polygon fill="#DE4BCB" fill-opacity="0.501961" points="9798,10067 9798,7463 10745,7463 10745,10067 "/>
  <polygon fill="#DE4BCB" fill-opacity="0.501961" points="6957,4977 6957,5687 4236,5687 5490,3967 6639,3967 5902,4977 "/>
  <polygon fill="#DE4BCB" fill-opacity="0.501961" points="9798,4977 9798,5687 12520,5687 11266,3967 10117,3967 10863,4977 "/>
  <polygon fill="#DE4BCB" fill-opacity="0.501961" points="6467,2627 8378,7 10289,2627 9140,2627 8378,1581 7616,2627 "/>
  <polygon fill="#DE4BCB" fill-opacity="0.501961" points="9798,12552 9798,11842 12520,11842 11265,13563 10117,13563 10854,12552 "/>
  <polygon fill="#DE4BCB" fill-opacity="0.501961" points="6957,12552 6957,11842 4236,11842 5490,13563 6639,13563 5893,12552 "/>
  <polygon fill="#DE4BCB" fill-opacity="0.501961" points="10289,14902 8378,17523 6467,14902 7616,14902 8378,15949 9140,14902 "/>
  <polygon fill="#DE4BCB" fill-opacity="0.501961" points="6957,7463 6957,10067 6011,10067 6011,7463 "/>
  <polygon fill="#DE4BC9" fill-opacity="0.501961" points="1329,10000 1329,9798 1329,9630 1344,9446 1375,9294 1420,9142 1466,9043 1512,8941 1572,8842 1647,8740 1813,8539 2071,8285 2207,8136 2327,8018 2405,7899 2465,7816 2510,7715 2524,7632 2554,7530 2554,7428 2554,7329 2539,7243 2524,7160 2494,7075 2448,6992 2405,6908 2359,6824 2299,6758 2222,6689 2147,6639 2071,6589 1996,6537 1918,6504 1830,6487 1738,6471 1647,6471 1466,6487 1315,6537 1163,6623 1026,6739 966,6808 920,6874 875,6976 831,7059 785,7177 754,7295 726,7412 709,7546 104,7464 134,7279 165,7110 211,6959 271,6808 331,6673 408,6537 483,6437 588,6320 694,6237 800,6152 920,6085 1043,6035 1178,5983 1329,5951 1481,5934 1633,5934 1813,5934 1964,5967 2116,6000 2268,6035 2405,6102 2524,6168 2645,6253 2752,6353 2843,6471 2934,6571 2994,6689 3055,6824 3100,6959 3129,7093 3160,7226 3160,7378 3146,7546 3129,7715 3083,7866 3009,8018 2917,8169 2797,8338 2631,8522 2448,8724 2207,8974 2071,9142 1996,9278 1935,9446 1905,9664 1890,10000 1329,10000 1223,11295 1223,10554 1890,10554 1890,11295 1223,11295 "/>
  <polygon fill="#DE4BC9" fill-opacity="0.501961" points="14664,9891 14664,9690 14664,9521 14679,9337 14709,9185 14755,9034 14801,8934 14847,8833 14907,8733 14982,8631 15148,8429 15406,8177 15543,8027 15662,7909 15740,7790 15800,7707 15845,7606 15860,7522 15889,7421 15889,7320 15889,7220 15874,7135 15860,7052 15828,6966 15783,6883 15740,6798 15694,6715 15634,6649 15557,6581 15482,6531 15406,6481 15331,6429 15254,6396 15164,6379 15073,6362 14982,6362 14801,6379 14650,6429 14498,6514 14361,6631 14301,6699 14256,6765 14210,6866 14166,6949 14120,7068 14089,7187 14061,7303 14044,7438 13439,7355 13469,7170 13500,7002 13545,6850 13606,6699 13666,6564 13742,6429 13818,6329 13923,6210 14029,6128 14135,6043 14256,5976 14378,5926 14512,5875 14664,5842 14816,5825 14967,5825 15148,5825 15299,5858 15451,5891 15603,5926 15740,5993 15860,6059 15980,6145 16086,6244 16177,6362 16268,6462 16329,6581 16389,6715 16435,6850 16464,6985 16495,7118 16495,7270 16480,7438 16464,7606 16418,7757 16344,7909 16252,8061 16132,8228 15966,8413 15783,8615 15543,8866 15406,9034 15331,9168 15271,9337 15239,9554 15225,9891 14664,9891 14558,11186 14558,10445 15225,10445 15225,11186 14558,11186 "/>
 </g>
</svg>
