<?xml version="1.0" encoding="UTF-8"?>
<!DOCTYPE svg PUBLIC "-//W3C//DTD SVG 1.0//EN" "http://www.w3.org/TR/2001/REC-SVG-20010904/DTD/svg10.dtd">
<!-- Creator: CorelDRAW X6 -->
<svg xmlns="http://www.w3.org/2000/svg" xml:space="preserve" width="83px" height="76px" version="1.0" shape-rendering="geometricPrecision" text-rendering="geometricPrecision" image-rendering="optimizeQuality" fill-rule="evenodd" clip-rule="evenodd"
viewBox="0 0 8300 7578"
 xmlns:xlink="http://www.w3.org/1999/xlink">
 <g id="_0305.cgm:type:overlay">
  <metadata id="CorelCorpID_0Corel-Layer"/>
  <IC_ColorNameTable/>
  <PictureProperties/>
  <polygon fill="#000001" fill-opacity="0.501961" stroke="#000001" stroke-width="90.1325" stroke-linecap="square" stroke-linejoin="round" stroke-opacity="0.501961" points="2789,6791 2,6791 2,5963 2789,5963 "/>
  <polygon fill="#000001" fill-opacity="0.501961" stroke="#000001" stroke-width="90.1325" stroke-linecap="square" stroke-linejoin="round" stroke-opacity="0.501961" points="4303,5963 7090,5963 7090,6791 4303,6791 "/>
  <path fill="none" fill-opacity="0.501961" stroke="#000001" stroke-width="827.871" stroke-linecap="square" stroke-linejoin="round" stroke-opacity="0.501961" d="M5474 1628c-237,365 -724,468 -1088,232 -365,-237 -468,-724 -232,-1089 237,-365 724,-468 1088,-232 365,237 468,724 232,1088z"/>
  <path fill="none" fill-opacity="0.501961" stroke="#000001" stroke-width="827.871" stroke-linecap="square" stroke-linejoin="round" stroke-opacity="0.501961" d="M4332 6377c0,-434 -352,-786 -786,-786 -434,0 -786,352 -786,786 0,434 352,786 786,786 434,0 786,-352 786,-786z"/>
  <polygon fill="#000001" fill-opacity="0.501961" stroke="#000001" stroke-width="90.1325" stroke-linecap="square" stroke-linejoin="round" stroke-opacity="0.501961" points="341,5963 1656,1754 8293,1754 6977,5963 6134,5963 7192,2576 2272,2576 1214,5963 "/>
 </g>
</svg>
