<?xml version="1.0" encoding="UTF-8"?>
<!DOCTYPE svg PUBLIC "-//W3C//DTD SVG 1.0//EN" "http://www.w3.org/TR/2001/REC-SVG-20010904/DTD/svg10.dtd">
<!-- Creator: CorelDRAW X6 -->
<svg xmlns="http://www.w3.org/2000/svg" xml:space="preserve" width="49px" height="47px" version="1.0" shape-rendering="geometricPrecision" text-rendering="geometricPrecision" image-rendering="optimizeQuality" fill-rule="evenodd" clip-rule="evenodd"
viewBox="0 0 4900 4702"
 xmlns:xlink="http://www.w3.org/1999/xlink">
 <g id="_0402.cgm:type:overlay">
  <metadata id="CorelCorpID_0Corel-Layer"/>
  <IC_ColorNameTable/>
  <PictureProperties/>
  <polyline fill="none" fill-opacity="0.501961" stroke="#EBB7ED" stroke-width="588.838" stroke-linecap="round" stroke-linejoin="round" stroke-opacity="0.501961" points="2642,295 2664,349 2706,442 2750,533 2798,624 2850,712 2903,798 2960,882 3020,965 3083,1045 3148,1123 3216,1199 3287,1272 3360,1343 3436,1411 3514,1476 3594,1539 3677,1599 3761,1656 3847,1710 3936,1761 4026,1809 4117,1853 4210,1894 4304,1933 4400,1968 4606,2030 "/>
  <polyline fill="none" fill-opacity="0.501961" stroke="#EBB7ED" stroke-width="588.838" stroke-linecap="round" stroke-linejoin="round" stroke-opacity="0.501961" points="1462,819 1490,885 1547,1014 1608,1141 1675,1265 1745,1387 1820,1506 1899,1623 1981,1737 2068,1849 2159,1957 2253,2061 2351,2163 2452,2260 2557,2355 2664,2445 2776,2532 2890,2615 3007,2693 3126,2768 3248,2838 3372,2905 3499,2966 3628,3024 3758,3077 3891,3125 4168,3210 "/>
  <polyline fill="none" fill-opacity="0.501961" stroke="#EBB7ED" stroke-width="588.838" stroke-linecap="round" stroke-linejoin="round" stroke-opacity="0.501961" points="294,1410 331,1498 403,1659 480,1818 562,1973 651,2126 744,2276 843,2422 946,2564 1055,2703 1168,2838 1286,2970 1409,3096 1536,3219 1667,3337 1802,3450 1940,3558 2083,3662 2229,3761 2379,3854 2532,3943 2687,4025 2846,4102 3007,4174 3170,4241 3336,4301 3688,4408 "/>
 </g>
</svg>
