<?xml version="1.0" encoding="UTF-8"?>
<!DOCTYPE svg PUBLIC "-//W3C//DTD SVG 1.0//EN" "http://www.w3.org/TR/2001/REC-SVG-20010904/DTD/svg10.dtd">
<!-- Creator: CorelDRAW X6 -->
<svg xmlns="http://www.w3.org/2000/svg" xml:space="preserve" width="552px" height="208px" version="1.0" shape-rendering="geometricPrecision" text-rendering="geometricPrecision" image-rendering="optimizeQuality" fill-rule="evenodd" clip-rule="evenodd"
viewBox="0 0 55200 20810"
 xmlns:xlink="http://www.w3.org/1999/xlink">
 <g id="_0683.cgm:type:overlay">
  <metadata id="CorelCorpID_0Corel-Layer"/>
  <IC_ColorNameTable/>
  <PictureProperties/>
  <path fill="#618DF4" fill-opacity="0.501961" stroke="#618DF4" stroke-width="89.9654" stroke-linecap="square" stroke-linejoin="round" stroke-opacity="0.501961" d="M1095 20052c-107,-295 -431,-447 -725,-340 -293,107 -444,433 -337,728 107,295 431,447 724,340 293,-107 444,-433 337,-728z"/>
  <path fill="#618DF4" fill-opacity="0.501961" stroke="#618DF4" stroke-width="89.9654" stroke-linecap="square" stroke-linejoin="round" stroke-opacity="0.501961" d="M8830 17235c-107,-293 -432,-444 -724,-337 -293,107 -444,431 -337,724 107,293 432,444 724,337 293,-107 444,-431 337,-724z"/>
  <path fill="#618DF4" fill-opacity="0.501961" stroke="#618DF4" stroke-width="89.9654" stroke-linecap="square" stroke-linejoin="round" stroke-opacity="0.501961" d="M16542 14429c-107,-293 -433,-444 -728,-337 -295,107 -447,431 -340,724 107,293 433,444 728,337 295,-107 447,-431 340,-724z"/>
  <path fill="#618DF4" fill-opacity="0.501961" stroke="#618DF4" stroke-width="89.9654" stroke-linecap="square" stroke-linejoin="round" stroke-opacity="0.501961" d="M24277 11616c-107,-295 -433,-447 -728,-340 -295,107 -447,433 -340,728 107,295 433,447 728,340 295,-107 447,-433 340,-728z"/>
  <path fill="#618DF4" fill-opacity="0.501961" stroke="#618DF4" stroke-width="89.9654" stroke-linecap="square" stroke-linejoin="round" stroke-opacity="0.501961" d="M31988 8810c-107,-295 -433,-447 -728,-340 -295,107 -447,433 -340,728 107,295 433,447 728,340 295,-107 447,-433 340,-728z"/>
  <path fill="#618DF4" fill-opacity="0.501961" stroke="#618DF4" stroke-width="89.9654" stroke-linecap="square" stroke-linejoin="round" stroke-opacity="0.501961" d="M39723 5993c-107,-295 -433,-447 -728,-340 -295,107 -447,433 -340,728 107,295 433,447 728,340 295,-107 447,-433 340,-728z"/>
  <path fill="#618DF4" fill-opacity="0.501961" stroke="#618DF4" stroke-width="89.9654" stroke-linecap="square" stroke-linejoin="round" stroke-opacity="0.501961" d="M47431 3187c-107,-295 -431,-447 -724,-340 -293,107 -444,433 -337,728 107,295 431,447 724,340 293,-107 444,-433 337,-728z"/>
  <path fill="#618DF4" fill-opacity="0.501961" stroke="#618DF4" stroke-width="89.9654" stroke-linecap="square" stroke-linejoin="round" stroke-opacity="0.501961" d="M55166 371c-107,-293 -431,-444 -724,-337 -293,107 -444,431 -337,724 107,293 431,444 724,337 293,-107 444,-431 337,-725z"/>
 </g>
</svg>
