<?xml version="1.0" encoding="UTF-8"?>
<!DOCTYPE svg PUBLIC "-//W3C//DTD SVG 1.0//EN" "http://www.w3.org/TR/2001/REC-SVG-20010904/DTD/svg10.dtd">
<!-- Creator: CorelDRAW X6 -->
<svg xmlns="http://www.w3.org/2000/svg" xml:space="preserve" width="2473px" height="926px" version="1.0" shape-rendering="geometricPrecision" text-rendering="geometricPrecision" image-rendering="optimizeQuality" fill-rule="evenodd" clip-rule="evenodd"
viewBox="0 0 247300 92555"
 xmlns:xlink="http://www.w3.org/1999/xlink">
 <g id="_0725.cgm:type:overlay">
  <metadata id="CorelCorpID_0Corel-Layer"/>
  <IC_ColorNameTable/>
  <PictureProperties/>
  <line fill="none" fill-opacity="0.501961" stroke="#DE4BCB" stroke-width="289.443" stroke-opacity="0.501961" x1="152" y1="92402" x2="20050" y2= "85165" />
  <polygon fill="#DE4BCB" fill-opacity="0.501961" points="26647,84312 24377,80900 24788,80747 26220,83032 26631,83718 26555,82972 26311,80183 26814,80016 27987,81677 28414,82301 28795,82926 28703,82134 28353,79452 28749,79300 29221,83383 28810,83520 26982,80900 26708,80580 26799,81098 27088,84145 "/>
  <polygon fill="#DE4BCB" fill-opacity="0.501961" points="22807,85714 21451,81966 22579,81555 22883,81433 23127,81402 23447,81418 23721,81494 24072,81722 24316,81997 24559,82377 24773,82834 24925,83261 24956,83611 24986,83962 24940,84282 24864,84480 24788,84693 24651,84861 24453,85044 24255,85181 23980,85287 22807,85714 23066,85135 23782,84876 24057,84785 24255,84647 24407,84480 24498,84312 24559,84053 24544,83764 24529,83413 24377,82987 24270,82728 24133,82484 24011,82286 23859,82164 23721,82027 23584,81966 23462,81890 23280,81829 23036,81859 22685,81997 22000,82240 23066,85135 "/>
  <polygon fill="#DE4BCB" fill-opacity="0.501961" points="23356,86354 23493,86720 29572,84510 29435,84129 "/>
  <line fill="none" fill-opacity="0.501961" stroke="#DE4BCB" stroke-width="289.443" stroke-opacity="0.501961" x1="31248" y1="81082" x2="51130" y2= "73846" />
  <polygon fill="#DE4BCB" fill-opacity="0.501961" points="57727,72992 55472,69580 55868,69427 57315,71713 57711,72414 57651,71652 57407,68879 57894,68696 59067,70357 59494,70981 59890,71621 59799,70814 59433,68132 59844,67995 60302,72063 59890,72215 58077,69595 57803,69275 57879,69778 58184,72840 "/>
  <polygon fill="#DE4BCB" fill-opacity="0.501961" points="53903,74394 52531,70646 53659,70235 53979,70128 54223,70098 54527,70098 54817,70174 55152,70418 55411,70677 55655,71073 55868,71530 56020,71956 56051,72292 56066,72642 56036,72962 55959,73175 55868,73373 55731,73541 55548,73739 55335,73876 55076,73967 53903,74394 54146,73830 54862,73556 55137,73465 55350,73328 55487,73160 55579,73008 55640,72749 55640,72444 55609,72093 55457,71682 55365,71408 55228,71164 55106,70966 54954,70844 54802,70722 54680,70646 54543,70570 54375,70509 54131,70540 53766,70677 53095,70920 54146,73830 "/>
  <polygon fill="#DE4BCB" fill-opacity="0.501961" points="54436,75034 54573,75415 60667,73190 60530,72825 "/>
  <line fill="none" fill-opacity="0.501961" stroke="#DE4BCB" stroke-width="289.443" stroke-opacity="0.501961" x1="62572" y1="69686" x2="82225" y2= "62526" />
  <polygon fill="#DE4BCB" fill-opacity="0.501961" points="88822,61688 86552,58260 86963,58123 88395,60408 88807,61094 88731,60332 88487,57559 88990,57376 90163,59052 90589,59661 90970,60301 90879,59494 90528,56828 90925,56675 91397,60743 90985,60896 89157,58275 88898,57955 88974,58458 89264,61520 "/>
  <polygon fill="#DE4BCB" fill-opacity="0.501961" points="84983,63074 83627,59326 84754,58930 85059,58808 85303,58778 85623,58793 85897,58869 86247,59098 86491,59357 86735,59753 86948,60210 87100,60637 87131,60987 87161,61337 87116,61642 87040,61855 86963,62053 86826,62236 86628,62419 86430,62556 86156,62648 84983,63074 85242,62510 85958,62251 86232,62145 86430,62008 86583,61840 86674,61688 86735,61429 86720,61124 86704,60789 86552,60362 86445,60088 86308,59844 86186,59646 86034,59524 85897,59403 85760,59326 85638,59250 85455,59204 85211,59235 84861,59357 84175,59601 85242,62510 "/>
  <polygon fill="#DE4BCB" fill-opacity="0.501961" points="85531,63714 85668,64095 91747,61886 91610,61505 "/>
  <line fill="none" fill-opacity="0.501961" stroke="#DE4BCB" stroke-width="289.443" stroke-opacity="0.501961" x1="93423" y1="58458" x2="113305" y2= "51221" />
  <polygon fill="#DE4BCB" fill-opacity="0.501961" points="119902,50368 117647,46955 118043,46803 119491,49088 119887,49774 119826,49027 119582,46239 120070,46072 121243,47732 121669,48357 122066,48982 121974,48189 121609,45508 122020,45356 122477,49439 122066,49576 120253,46955 119978,46635 120055,47138 120359,50200 "/>
  <polygon fill="#DE4BCB" fill-opacity="0.501961" points="116078,51770 114707,48022 115834,47610 116154,47488 116398,47458 116703,47473 116992,47549 117327,47778 117586,48052 117830,48433 118043,48890 118196,49317 118226,49667 118242,50018 118211,50337 118135,50535 118043,50749 117906,50916 117724,51099 117510,51236 117251,51343 116078,51770 116322,51191 117038,50932 117312,50840 117526,50703 117663,50520 117754,50368 117815,50109 117815,49819 117784,49469 117632,49042 117541,48783 117404,48540 117282,48342 117129,48220 116977,48083 116855,48022 116718,47945 116550,47885 116307,47915 115941,48052 115271,48296 116322,51191 "/>
  <polygon fill="#DE4BCB" fill-opacity="0.501961" points="116611,52409 116748,52775 122843,50566 122706,50185 "/>
  <line fill="none" fill-opacity="0.501961" stroke="#DE4BCB" stroke-width="289.443" stroke-opacity="0.501961" x1="124503" y1="47138" x2="144400" y2= "39901" />
  <polygon fill="#DE4BCB" fill-opacity="0.501961" points="150997,39048 148727,35635 149139,35483 150571,37768 150982,38454 150906,37707 150662,34935 151165,34752 152338,36412 152765,37037 153146,37677 153054,36870 152704,34188 153100,34051 153572,38119 153161,38271 151333,35635 151074,35315 151150,35834 151439,38896 "/>
  <polygon fill="#DE4BCB" fill-opacity="0.501961" points="147158,40450 145802,36702 146930,36291 147234,36184 147478,36153 147798,36153 148072,36230 148423,36473 148666,36732 148910,37129 149123,37586 149276,37997 149306,38347 149337,38698 149291,39018 149215,39216 149139,39429 149002,39597 148804,39795 148606,39932 148331,40023 147158,40450 147417,39886 148133,39612 148407,39520 148606,39383 148758,39216 148849,39063 148910,38804 148895,38500 148880,38149 148727,37723 148621,37464 148484,37220 148362,37022 148209,36900 148072,36778 147935,36702 147813,36626 147630,36565 147387,36595 147036,36732 146351,36976 147417,39886 "/>
  <polygon fill="#DE4BCB" fill-opacity="0.501961" points="147707,41090 147844,41471 153923,39246 153785,38881 "/>
  <line fill="none" fill-opacity="0.501961" stroke="#DE4BCB" stroke-width="289.443" stroke-opacity="0.501961" x1="155599" y1="35834" x2="175496" y2= "28582" />
  <polygon fill="#DE4BCB" fill-opacity="0.501961" points="182078,27744 179823,24316 180219,24178 181666,26464 182078,27149 182001,26388 181758,23615 182245,23432 183418,25108 183845,25717 184241,26357 184150,25550 183784,22883 184195,22731 184652,26799 184241,26951 182428,24331 182154,24011 182230,24514 182535,27576 "/>
  <polygon fill="#DE4BCB" fill-opacity="0.501961" points="178254,29130 176882,25382 178010,24971 178330,24864 178573,24834 178878,24834 179168,24910 179503,25154 179762,25413 180006,25809 180219,26266 180371,26692 180402,27043 180417,27393 180386,27698 180310,27911 180219,28109 180082,28292 179899,28475 179686,28612 179427,28703 178254,29130 178497,28566 179229,28307 179488,28201 179701,28063 179838,27896 179945,27744 179990,27485 179990,27180 179960,26829 179807,26418 179716,26144 179579,25900 179457,25702 179305,25580 179152,25458 179030,25382 178893,25306 178726,25260 178482,25291 178116,25413 177446,25656 178497,28566 "/>
  <polygon fill="#DE4BCB" fill-opacity="0.501961" points="178787,29770 178924,30151 185018,27926 184881,27561 "/>
  <line fill="none" fill-opacity="0.501961" stroke="#DE4BCB" stroke-width="289.443" stroke-opacity="0.501961" x1="186679" y1="24514" x2="206576" y2= "17277" />
  <polygon fill="#DE4BCB" fill-opacity="0.501961" points="213173,16424 210903,13011 211314,12859 212762,15144 213158,15829 213081,15083 212838,12295 213340,12112 214514,13788 214940,14413 215321,15037 215230,14245 214879,11564 215275,11411 215748,15494 215336,15631 213508,13011 213249,12691 213325,13194 213615,16256 "/>
  <polygon fill="#DE4BCB" fill-opacity="0.501961" points="209334,17825 207978,14077 209105,13666 209410,13544 209654,13514 209973,13529 210248,13605 210598,13834 210842,14108 211086,14489 211299,14946 211467,15372 211482,15723 211512,16073 211467,16393 211390,16591 211314,16805 211177,16972 210979,17155 210781,17292 210507,17399 209334,17825 209593,17246 210309,16987 210583,16896 210781,16759 210933,16576 211025,16424 211086,16165 211086,15875 211055,15525 210903,15098 210796,14839 210659,14595 210537,14397 210385,14260 210248,14138 210111,14062 209989,14001 209821,13940 209562,13971 209212,14108 208526,14352 209593,17246 "/>
  <polygon fill="#DE4BCB" fill-opacity="0.501961" points="209882,18465 210019,18831 216098,16622 215961,16241 "/>
  <line fill="none" fill-opacity="0.501961" stroke="#DE4BCB" stroke-width="289.443" stroke-opacity="0.501961" x1="217774" y1="13194" x2="237671" y2= "5957" />
  <polygon fill="#DE4BCB" fill-opacity="0.501961" points="244253,5104 241998,1691 242394,1539 243842,3824 244253,4510 244177,3763 243933,990 244421,807 245594,2468 246020,3093 246416,3733 246325,2925 245959,244 246371,91 246828,4174 246416,4327 244603,1691 244329,1371 244405,1889 244710,4951 "/>
  <polygon fill="#DE4BCB" fill-opacity="0.501961" points="240429,6505 239058,2758 240185,2346 240505,2240 240749,2209 241054,2209 241343,2285 241678,2514 241937,2788 242181,3184 242394,3641 242547,4053 242577,4403 242592,4753 242562,5073 242486,5271 242410,5485 242257,5652 242074,5850 241861,5972 241602,6079 240429,6505 240673,5942 241404,5667 241663,5576 241876,5439 242013,5271 242120,5119 242166,4860 242166,4555 242135,4205 241983,3778 241892,3519 241754,3276 241633,3077 241480,2956 241328,2834 241206,2758 241069,2681 240901,2620 240657,2651 240292,2788 239621,3032 240673,5942 "/>
  <polygon fill="#DE4BCB" fill-opacity="0.501961" points="240962,7145 241099,7511 247193,5302 247056,4936 "/>
  <line fill="none" fill-opacity="0.501961" stroke="#DE4BCB" stroke-width="289.443" stroke-opacity="0.501961" x1="9080" y1="91031" x2="6262" y2= "90178" />
  <line fill="none" fill-opacity="0.501961" stroke="#DE4BCB" stroke-width="289.443" stroke-opacity="0.501961" x1="6262" y1="90178" x2="7861" y2= "87710" />
  <line fill="none" fill-opacity="0.501961" stroke="#DE4BCB" stroke-width="289.443" stroke-opacity="0.501961" x1="11625" y1="86339" x2="14443" y2= "87207" />
  <line fill="none" fill-opacity="0.501961" stroke="#DE4BCB" stroke-width="289.443" stroke-opacity="0.501961" x1="14443" y1="87207" x2="12828" y2= "89675" />
  <line fill="none" fill-opacity="0.501961" stroke="#DE4BCB" stroke-width="289.443" stroke-opacity="0.501961" x1="40176" y1="79726" x2="37342" y2= "78873" />
  <line fill="none" fill-opacity="0.501961" stroke="#DE4BCB" stroke-width="289.443" stroke-opacity="0.501961" x1="37342" y1="78873" x2="38957" y2= "76390" />
  <line fill="none" fill-opacity="0.501961" stroke="#DE4BCB" stroke-width="289.443" stroke-opacity="0.501961" x1="42705" y1="75034" x2="45538" y2= "75887" />
  <line fill="none" fill-opacity="0.501961" stroke="#DE4BCB" stroke-width="289.443" stroke-opacity="0.501961" x1="45538" y1="75887" x2="43924" y2= "78355" />
  <line fill="none" fill-opacity="0.501961" stroke="#DE4BCB" stroke-width="289.443" stroke-opacity="0.501961" x1="71256" y1="68407" x2="68437" y2= "67553" />
  <line fill="none" fill-opacity="0.501961" stroke="#DE4BCB" stroke-width="289.443" stroke-opacity="0.501961" x1="68437" y1="67553" x2="70037" y2= "65085" />
  <line fill="none" fill-opacity="0.501961" stroke="#DE4BCB" stroke-width="289.443" stroke-opacity="0.501961" x1="73800" y1="63714" x2="76619" y2= "64567" />
  <line fill="none" fill-opacity="0.501961" stroke="#DE4BCB" stroke-width="289.443" stroke-opacity="0.501961" x1="76619" y1="64567" x2="75004" y2= "67051" />
  <line fill="none" fill-opacity="0.501961" stroke="#DE4BCB" stroke-width="289.443" stroke-opacity="0.501961" x1="102351" y1="57087" x2="99517" y2= "56234" />
  <line fill="none" fill-opacity="0.501961" stroke="#DE4BCB" stroke-width="289.443" stroke-opacity="0.501961" x1="99517" y1="56234" x2="101132" y2= "53765" />
  <line fill="none" fill-opacity="0.501961" stroke="#DE4BCB" stroke-width="289.443" stroke-opacity="0.501961" x1="104880" y1="52394" x2="107714" y2= "53263" />
  <line fill="none" fill-opacity="0.501961" stroke="#DE4BCB" stroke-width="289.443" stroke-opacity="0.501961" x1="107714" y1="53263" x2="106099" y2= "55731" />
  <line fill="none" fill-opacity="0.501961" stroke="#DE4BCB" stroke-width="289.443" stroke-opacity="0.501961" x1="133431" y1="45782" x2="130613" y2= "44914" />
  <line fill="none" fill-opacity="0.501961" stroke="#DE4BCB" stroke-width="289.443" stroke-opacity="0.501961" x1="130613" y1="44914" x2="132227" y2= "42446" />
  <line fill="none" fill-opacity="0.501961" stroke="#DE4BCB" stroke-width="289.443" stroke-opacity="0.501961" x1="135975" y1="41090" x2="138794" y2= "41943" />
  <line fill="none" fill-opacity="0.501961" stroke="#DE4BCB" stroke-width="289.443" stroke-opacity="0.501961" x1="138794" y1="41943" x2="137179" y2= "44411" />
  <line fill="none" fill-opacity="0.501961" stroke="#DE4BCB" stroke-width="289.443" stroke-opacity="0.501961" x1="164526" y1="34462" x2="161693" y2= "33609" />
  <line fill="none" fill-opacity="0.501961" stroke="#DE4BCB" stroke-width="289.443" stroke-opacity="0.501961" x1="161693" y1="33609" x2="163308" y2= "31126" />
  <line fill="none" fill-opacity="0.501961" stroke="#DE4BCB" stroke-width="289.443" stroke-opacity="0.501961" x1="167055" y1="29770" x2="169889" y2= "30623" />
  <line fill="none" fill-opacity="0.501961" stroke="#DE4BCB" stroke-width="289.443" stroke-opacity="0.501961" x1="169889" y1="30623" x2="168274" y2= "33091" />
  <line fill="none" fill-opacity="0.501961" stroke="#DE4BCB" stroke-width="289.443" stroke-opacity="0.501961" x1="195607" y1="23142" x2="192788" y2= "22289" />
  <line fill="none" fill-opacity="0.501961" stroke="#DE4BCB" stroke-width="289.443" stroke-opacity="0.501961" x1="192788" y1="22289" x2="194403" y2= "19821" />
  <line fill="none" fill-opacity="0.501961" stroke="#DE4BCB" stroke-width="289.443" stroke-opacity="0.501961" x1="198151" y1="18450" x2="200969" y2= "19303" />
  <line fill="none" fill-opacity="0.501961" stroke="#DE4BCB" stroke-width="289.443" stroke-opacity="0.501961" x1="200969" y1="19303" x2="199354" y2= "21787" />
  <line fill="none" fill-opacity="0.501961" stroke="#DE4BCB" stroke-width="289.443" stroke-opacity="0.501961" x1="226702" y1="11838" x2="223868" y2= "10969" />
  <line fill="none" fill-opacity="0.501961" stroke="#DE4BCB" stroke-width="289.443" stroke-opacity="0.501961" x1="223868" y1="10969" x2="225483" y2= "8501" />
  <line fill="none" fill-opacity="0.501961" stroke="#DE4BCB" stroke-width="289.443" stroke-opacity="0.501961" x1="229231" y1="7145" x2="232065" y2= "7998" />
  <line fill="none" fill-opacity="0.501961" stroke="#DE4BCB" stroke-width="289.443" stroke-opacity="0.501961" x1="232065" y1="7998" x2="230450" y2= "10467" />
 </g>
</svg>
