<?xml version="1.0" encoding="UTF-8"?>
<!DOCTYPE svg PUBLIC "-//W3C//DTD SVG 1.0//EN" "http://www.w3.org/TR/2001/REC-SVG-20010904/DTD/svg10.dtd">
<!-- Creator: CorelDRAW X6 -->
<svg xmlns="http://www.w3.org/2000/svg" xml:space="preserve" width="2429px" height="910px" version="1.0" shape-rendering="geometricPrecision" text-rendering="geometricPrecision" image-rendering="optimizeQuality" fill-rule="evenodd" clip-rule="evenodd"
viewBox="0 0 242900 90953"
 xmlns:xlink="http://www.w3.org/1999/xlink">
 <g id="_0726.cgm:type:overlay">
  <metadata id="CorelCorpID_0Corel-Layer"/>
  <IC_ColorNameTable/>
  <PictureProperties/>
  <line fill="none" fill-opacity="0.501961" stroke="#DE4BCB" stroke-width="299.255" stroke-opacity="0.501961" x1="150" y1="90803" x2="3966" y2= "89411" />
  <line fill="none" fill-opacity="0.501961" stroke="#DE4BCB" stroke-width="299.255" stroke-opacity="0.501961" x1="8320" y1="89711" x2="5507" y2= "88858" />
  <line fill="none" fill-opacity="0.501961" stroke="#DE4BCB" stroke-width="299.255" stroke-opacity="0.501961" x1="5507" y1="88858" x2="7108" y2= "86389" />
  <line fill="none" fill-opacity="0.501961" stroke="#DE4BCB" stroke-width="299.255" stroke-opacity="0.501961" x1="7826" y1="88005" x2="11702" y2= "86598" />
  <line fill="none" fill-opacity="0.501961" stroke="#DE4BCB" stroke-width="299.255" stroke-opacity="0.501961" x1="11253" y1="84877" x2="14081" y2= "85730" />
  <line fill="none" fill-opacity="0.501961" stroke="#DE4BCB" stroke-width="299.255" stroke-opacity="0.501961" x1="14081" y1="85730" x2="12465" y2= "88199" />
  <line fill="none" fill-opacity="0.501961" stroke="#DE4BCB" stroke-width="299.255" stroke-opacity="0.501961" x1="15623" y1="85177" x2="19379" y2= "83800" />
  <polygon fill="#DE4BCB" fill-opacity="0.501961" points="25694,83067 23419,79640 23823,79490 25275,81780 25679,82468 25604,81720 25364,78936 25858,78757 27025,80418 27460,81046 27834,81675 27759,80882 27385,78203 27804,78054 28253,82124 27849,82274 26023,79655 25753,79325 25843,79834 26143,82902 "/>
  <polygon fill="#DE4BCB" fill-opacity="0.501961" points="21848,84458 20486,80717 21608,80298 21938,80178 22177,80163 22491,80163 22776,80238 23105,80478 23359,80747 23599,81136 23823,81585 23973,82019 24003,82363 24033,82708 23988,83022 23913,83231 23823,83441 23688,83605 23509,83800 23299,83935 23030,84024 21848,84458 22102,83890 22820,83620 23090,83531 23299,83396 23449,83216 23539,83067 23599,82812 23599,82513 23569,82154 23419,81735 23314,81480 23180,81226 23060,81032 22910,80912 22761,80777 22626,80702 22506,80642 22327,80583 22087,80612 21728,80732 21040,80987 22102,83890 "/>
  <polygon fill="#DE4BCB" fill-opacity="0.501961" points="22402,85102 22536,85476 28612,83261 28477,82887 "/>
  <line fill="none" fill-opacity="0.501961" stroke="#DE4BCB" stroke-width="299.255" stroke-opacity="0.501961" x1="30782" y1="79655" x2="34553" y2= "78278" />
  <line fill="none" fill-opacity="0.501961" stroke="#DE4BCB" stroke-width="299.255" stroke-opacity="0.501961" x1="38922" y1="78577" x2="36094" y2= "77724" />
  <line fill="none" fill-opacity="0.501961" stroke="#DE4BCB" stroke-width="299.255" stroke-opacity="0.501961" x1="36094" y1="77724" x2="37710" y2= "75255" />
  <line fill="none" fill-opacity="0.501961" stroke="#DE4BCB" stroke-width="299.255" stroke-opacity="0.501961" x1="38428" y1="76871" x2="42289" y2= "75465" />
  <line fill="none" fill-opacity="0.501961" stroke="#DE4BCB" stroke-width="299.255" stroke-opacity="0.501961" x1="41840" y1="73744" x2="44668" y2= "74597" />
  <line fill="none" fill-opacity="0.501961" stroke="#DE4BCB" stroke-width="299.255" stroke-opacity="0.501961" x1="44668" y1="74597" x2="43052" y2= "77066" />
  <line fill="none" fill-opacity="0.501961" stroke="#DE4BCB" stroke-width="299.255" stroke-opacity="0.501961" x1="46210" y1="74043" x2="49981" y2= "72666" />
  <polygon fill="#DE4BCB" fill-opacity="0.501961" points="56281,71933 54006,68506 54410,68357 55862,70646 56266,71335 56191,70586 55951,67803 56445,67624 57612,69285 58046,69913 58436,70542 58346,69748 57987,67070 58391,66920 58840,70990 58436,71140 56625,68521 56341,68192 56430,68701 56730,71769 "/>
  <polygon fill="#DE4BCB" fill-opacity="0.501961" points="52435,73325 51073,69584 52210,69165 52525,69045 52764,69030 53078,69030 53363,69105 53692,69344 53946,69614 54186,70003 54410,70452 54560,70886 54590,71230 54620,71574 54575,71888 54500,72098 54425,72307 54275,72472 54096,72666 53886,72801 53617,72891 52435,73325 52689,72756 53407,72487 53692,72397 53886,72262 54036,72083 54126,71933 54186,71679 54186,71380 54156,71020 54006,70601 53901,70347 53767,70093 53647,69898 53497,69778 53348,69644 53228,69569 53093,69509 52914,69449 52674,69479 52315,69599 51642,69853 52689,72756 "/>
  <polygon fill="#DE4BCB" fill-opacity="0.501961" points="52988,73968 53123,74342 59214,72128 59064,71754 "/>
  <line fill="none" fill-opacity="0.501961" stroke="#DE4BCB" stroke-width="299.255" stroke-opacity="0.501961" x1="61383" y1="68521" x2="65139" y2= "67145" />
  <line fill="none" fill-opacity="0.501961" stroke="#DE4BCB" stroke-width="299.255" stroke-opacity="0.501961" x1="69509" y1="67444" x2="66681" y2= "66591" />
  <line fill="none" fill-opacity="0.501961" stroke="#DE4BCB" stroke-width="299.255" stroke-opacity="0.501961" x1="66681" y1="66591" x2="68297" y2= "64122" />
  <line fill="none" fill-opacity="0.501961" stroke="#DE4BCB" stroke-width="299.255" stroke-opacity="0.501961" x1="69015" y1="65738" x2="72876" y2= "64331" />
  <line fill="none" fill-opacity="0.501961" stroke="#DE4BCB" stroke-width="299.255" stroke-opacity="0.501961" x1="72442" y1="62610" x2="75255" y2= "63463" />
  <line fill="none" fill-opacity="0.501961" stroke="#DE4BCB" stroke-width="299.255" stroke-opacity="0.501961" x1="75255" y1="63463" x2="73654" y2= "65932" />
  <line fill="none" fill-opacity="0.501961" stroke="#DE4BCB" stroke-width="299.255" stroke-opacity="0.501961" x1="76797" y1="62910" x2="80568" y2= "61533" />
  <polygon fill="#DE4BCB" fill-opacity="0.501961" points="86868,60800 84593,57373 84997,57223 86449,59513 86853,60201 86778,59453 86538,56670 87032,56490 88199,58151 88633,58780 89022,59408 88933,58615 88574,55936 88978,55787 89441,59857 89022,60007 87212,57388 86942,57059 87017,57568 87317,60635 "/>
  <polygon fill="#DE4BCB" fill-opacity="0.501961" points="83037,62191 81660,58450 82797,58031 83112,57912 83351,57897 83665,57897 83950,57972 84294,58211 84533,58480 84788,58869 84997,59318 85147,59752 85177,60096 85207,60441 85162,60755 85087,60964 85012,61174 84862,61338 84683,61533 84473,61668 84204,61757 83037,62191 83276,61623 84009,61353 84279,61264 84473,61129 84623,60949 84713,60800 84773,60545 84773,60246 84743,59887 84593,59468 84503,59214 84354,58959 84234,58765 84084,58645 83935,58510 83815,58435 83680,58376 83501,58316 83261,58346 82902,58465 82229,58720 83276,61623 "/>
  <polygon fill="#DE4BCB" fill-opacity="0.501961" points="83576,62835 83710,63209 89801,60994 89666,60620 "/>
  <line fill="none" fill-opacity="0.501961" stroke="#DE4BCB" stroke-width="299.255" stroke-opacity="0.501961" x1="91970" y1="57388" x2="95741" y2= "56011" />
  <line fill="none" fill-opacity="0.501961" stroke="#DE4BCB" stroke-width="299.255" stroke-opacity="0.501961" x1="100096" y1="56311" x2="97268" y2= "55458" />
  <line fill="none" fill-opacity="0.501961" stroke="#DE4BCB" stroke-width="299.255" stroke-opacity="0.501961" x1="97268" y1="55458" x2="98884" y2= "52988" />
  <line fill="none" fill-opacity="0.501961" stroke="#DE4BCB" stroke-width="299.255" stroke-opacity="0.501961" x1="99602" y1="54605" x2="103463" y2= "53198" />
  <line fill="none" fill-opacity="0.501961" stroke="#DE4BCB" stroke-width="299.255" stroke-opacity="0.501961" x1="103029" y1="51477" x2="105842" y2= "52330" />
  <line fill="none" fill-opacity="0.501961" stroke="#DE4BCB" stroke-width="299.255" stroke-opacity="0.501961" x1="105842" y1="52330" x2="104241" y2= "54799" />
  <line fill="none" fill-opacity="0.501961" stroke="#DE4BCB" stroke-width="299.255" stroke-opacity="0.501961" x1="107384" y1="51776" x2="111155" y2= "50400" />
  <polygon fill="#DE4BCB" fill-opacity="0.501961" points="117455,49666 115180,46240 115599,46090 117036,48379 117440,49068 117365,48320 117125,45536 117619,45357 118786,47018 119220,47646 119609,48275 119520,47482 119160,44803 119565,44653 120028,48724 119624,48873 117799,46254 117529,45925 117604,46434 117904,49502 "/>
  <polygon fill="#DE4BCB" fill-opacity="0.501961" points="113624,51058 112262,47317 113384,46898 113699,46778 113938,46763 114252,46763 114537,46838 114881,47078 115120,47347 115375,47736 115584,48185 115749,48619 115764,48963 115794,49307 115749,49621 115674,49831 115599,50040 115449,50205 115270,50400 115060,50534 114791,50624 113624,51058 113863,50489 114596,50220 114866,50130 115075,49996 115210,49816 115315,49666 115360,49412 115360,49113 115330,48754 115180,48335 115090,48080 114941,47826 114821,47631 114671,47511 114522,47377 114402,47302 114267,47242 114103,47182 113848,47212 113489,47332 112816,47586 113863,50489 "/>
  <polygon fill="#DE4BCB" fill-opacity="0.501961" points="114162,51701 114297,52076 120388,49861 120253,49487 "/>
  <line fill="none" fill-opacity="0.501961" stroke="#DE4BCB" stroke-width="299.255" stroke-opacity="0.501961" x1="122512" y1="46269" x2="126328" y2= "44878" />
  <line fill="none" fill-opacity="0.501961" stroke="#DE4BCB" stroke-width="299.255" stroke-opacity="0.501961" x1="130683" y1="45177" x2="127855" y2= "44324" />
  <line fill="none" fill-opacity="0.501961" stroke="#DE4BCB" stroke-width="299.255" stroke-opacity="0.501961" x1="127855" y1="44324" x2="129471" y2= "41855" />
  <line fill="none" fill-opacity="0.501961" stroke="#DE4BCB" stroke-width="299.255" stroke-opacity="0.501961" x1="130189" y1="43471" x2="134050" y2= "42065" />
  <line fill="none" fill-opacity="0.501961" stroke="#DE4BCB" stroke-width="299.255" stroke-opacity="0.501961" x1="133616" y1="40344" x2="136444" y2= "41197" />
  <line fill="none" fill-opacity="0.501961" stroke="#DE4BCB" stroke-width="299.255" stroke-opacity="0.501961" x1="136444" y1="41197" x2="134828" y2= "43666" />
  <line fill="none" fill-opacity="0.501961" stroke="#DE4BCB" stroke-width="299.255" stroke-opacity="0.501961" x1="137971" y1="40643" x2="141742" y2= "39266" />
  <polygon fill="#DE4BCB" fill-opacity="0.501961" points="148041,38533 145782,35106 146186,34957 147622,37246 148026,37934 147967,37186 147712,34403 148206,34223 149373,35884 149807,36513 150196,37141 150107,36348 149747,33670 150151,33520 150615,37590 150211,37740 148386,35121 148116,34792 148191,35301 148490,38368 "/>
  <polygon fill="#DE4BCB" fill-opacity="0.501961" points="144211,39925 142849,36184 143971,35765 144285,35645 144525,35630 144839,35630 145123,35705 145468,35944 145722,36214 145961,36603 146171,37052 146335,37486 146350,37830 146380,38174 146335,38488 146261,38698 146186,38907 146051,39072 145857,39266 145647,39401 145378,39491 144211,39925 144465,39356 145183,39087 145453,38997 145662,38862 145797,38683 145902,38533 145961,38279 145946,37979 145931,37620 145767,37201 145677,36947 145527,36692 145408,36498 145258,36378 145123,36243 144989,36169 144854,36109 144689,36049 144435,36079 144076,36199 143403,36453 144465,39356 "/>
  <polygon fill="#DE4BCB" fill-opacity="0.501961" points="144749,40568 144884,40942 150975,38728 150840,38353 "/>
  <line fill="none" fill-opacity="0.501961" stroke="#DE4BCB" stroke-width="299.255" stroke-opacity="0.501961" x1="153099" y1="35136" x2="156915" y2= "33744" />
  <line fill="none" fill-opacity="0.501961" stroke="#DE4BCB" stroke-width="299.255" stroke-opacity="0.501961" x1="161270" y1="34044" x2="158442" y2= "33191" />
  <line fill="none" fill-opacity="0.501961" stroke="#DE4BCB" stroke-width="299.255" stroke-opacity="0.501961" x1="158442" y1="33191" x2="160058" y2= "30722" />
  <line fill="none" fill-opacity="0.501961" stroke="#DE4BCB" stroke-width="299.255" stroke-opacity="0.501961" x1="160776" y1="32338" x2="164652" y2= "30931" />
  <line fill="none" fill-opacity="0.501961" stroke="#DE4BCB" stroke-width="299.255" stroke-opacity="0.501961" x1="164203" y1="29210" x2="167031" y2= "30063" />
  <line fill="none" fill-opacity="0.501961" stroke="#DE4BCB" stroke-width="299.255" stroke-opacity="0.501961" x1="167031" y1="30063" x2="165415" y2= "32532" />
  <line fill="none" fill-opacity="0.501961" stroke="#DE4BCB" stroke-width="299.255" stroke-opacity="0.501961" x1="168557" y1="29510" x2="172328" y2= "28133" />
  <polygon fill="#DE4BCB" fill-opacity="0.501961" points="178673,27385 176414,23958 176818,23808 178269,26098 178673,26786 178599,26038 178359,23254 178853,23075 180020,24736 180454,25364 180828,25993 180738,25185 180379,22521 180783,22372 181247,26442 180843,26591 179018,23973 178748,23644 178838,24152 179137,27220 "/>
  <polygon fill="#DE4BCB" fill-opacity="0.501961" points="174842,28776 173481,25020 174603,24616 174932,24497 175172,24467 175486,24482 175755,24556 176100,24796 176354,25050 176593,25439 176818,25903 176967,26322 176997,26681 177012,27025 176982,27340 176908,27549 176818,27759 176683,27923 176489,28118 176294,28253 176025,28342 174842,28776 175097,28208 175815,27938 176085,27849 176294,27714 176444,27534 176533,27385 176593,27115 176593,26831 176563,26472 176414,26053 176309,25783 176174,25544 176055,25349 175905,25215 175755,25095 175621,25020 175501,24945 175321,24901 175082,24930 174723,25050 174034,25305 175097,28208 "/>
  <polygon fill="#DE4BCB" fill-opacity="0.501961" points="175396,29405 175531,29794 181606,27579 181472,27190 "/>
  <line fill="none" fill-opacity="0.501961" stroke="#DE4BCB" stroke-width="299.255" stroke-opacity="0.501961" x1="183731" y1="23988" x2="187502" y2= "22611" />
  <line fill="none" fill-opacity="0.501961" stroke="#DE4BCB" stroke-width="299.255" stroke-opacity="0.501961" x1="191857" y1="22910" x2="189029" y2= "22057" />
  <line fill="none" fill-opacity="0.501961" stroke="#DE4BCB" stroke-width="299.255" stroke-opacity="0.501961" x1="189029" y1="22057" x2="190645" y2= "19588" />
  <line fill="none" fill-opacity="0.501961" stroke="#DE4BCB" stroke-width="299.255" stroke-opacity="0.501961" x1="191363" y1="21204" x2="195239" y2= "19798" />
  <line fill="none" fill-opacity="0.501961" stroke="#DE4BCB" stroke-width="299.255" stroke-opacity="0.501961" x1="194790" y1="18077" x2="197618" y2= "18930" />
  <line fill="none" fill-opacity="0.501961" stroke="#DE4BCB" stroke-width="299.255" stroke-opacity="0.501961" x1="197618" y1="18930" x2="196002" y2= "21399" />
  <line fill="none" fill-opacity="0.501961" stroke="#DE4BCB" stroke-width="299.255" stroke-opacity="0.501961" x1="199144" y1="18376" x2="202916" y2= "16999" />
  <polygon fill="#DE4BCB" fill-opacity="0.501961" points="209275,16251 207001,12824 207405,12675 208856,14964 209260,15653 209185,14905 208946,12121 209440,11941 210607,13603 211041,14231 211430,14860 211340,14052 210966,11388 211385,11238 211834,15309 211430,15458 209604,12839 209335,12510 209425,13019 209724,16087 "/>
  <polygon fill="#DE4BCB" fill-opacity="0.501961" points="205429,17643 204068,13887 205205,13483 205519,13363 205759,13333 206073,13348 206357,13423 206686,13662 206941,13917 207180,14306 207405,14770 207554,15189 207584,15548 207614,15892 207569,16206 207495,16416 207420,16625 207270,16790 207091,16985 206881,17119 206612,17209 205429,17643 205684,17074 206402,16805 206672,16715 206881,16580 207031,16401 207120,16251 207180,15982 207180,15698 207150,15338 207001,14919 206896,14650 206761,14411 206642,14216 206492,14081 206342,13962 206208,13887 206088,13812 205908,13767 205669,13797 205310,13917 204636,14171 205684,17074 "/>
  <polygon fill="#DE4BCB" fill-opacity="0.501961" points="205983,18271 206118,18660 212208,16446 212059,16057 "/>
  <line fill="none" fill-opacity="0.501961" stroke="#DE4BCB" stroke-width="299.255" stroke-opacity="0.501961" x1="214318" y1="12854" x2="218089" y2= "11478" />
  <line fill="none" fill-opacity="0.501961" stroke="#DE4BCB" stroke-width="299.255" stroke-opacity="0.501961" x1="222444" y1="11777" x2="219616" y2= "10924" />
  <line fill="none" fill-opacity="0.501961" stroke="#DE4BCB" stroke-width="299.255" stroke-opacity="0.501961" x1="219616" y1="10924" x2="221232" y2= "8455" />
  <line fill="none" fill-opacity="0.501961" stroke="#DE4BCB" stroke-width="299.255" stroke-opacity="0.501961" x1="221950" y1="10071" x2="225826" y2= "8664" />
  <line fill="none" fill-opacity="0.501961" stroke="#DE4BCB" stroke-width="299.255" stroke-opacity="0.501961" x1="225377" y1="6943" x2="228205" y2= "7796" />
  <line fill="none" fill-opacity="0.501961" stroke="#DE4BCB" stroke-width="299.255" stroke-opacity="0.501961" x1="228205" y1="7796" x2="226589" y2= "10265" />
  <line fill="none" fill-opacity="0.501961" stroke="#DE4BCB" stroke-width="299.255" stroke-opacity="0.501961" x1="229731" y1="7243" x2="233502" y2= "5866" />
  <polygon fill="#DE4BCB" fill-opacity="0.501961" points="239862,5118 237588,1691 237992,1541 239443,3831 239847,4519 239772,3771 239533,988 240027,808 241194,2469 241628,3098 242017,3726 241927,2918 241568,254 241972,105 242436,4175 242017,4325 240206,1706 239937,1377 240012,1886 240311,4953 "/>
  <polygon fill="#DE4BCB" fill-opacity="0.501961" points="236016,6509 234655,2753 235792,2349 236106,2230 236346,2200 236660,2215 236944,2290 237273,2529 237528,2783 237782,3172 237992,3636 238141,4055 238171,4415 238201,4759 238156,5073 238081,5282 238007,5492 237857,5657 237677,5851 237468,5986 237199,6076 236016,6509 236271,5941 237004,5672 237273,5582 237468,5447 237618,5267 237707,5118 237767,4848 237767,4564 237737,4205 237588,3786 237498,3517 237348,3277 237229,3083 237079,2948 236929,2828 236810,2753 236675,2679 236495,2634 236256,2649 235897,2783 235223,3038 236271,5941 "/>
  <polygon fill="#DE4BCB" fill-opacity="0.501961" points="236570,7138 236705,7527 242795,5312 242661,4923 "/>
 </g>
</svg>
