<?xml version="1.0" encoding="UTF-8"?>
<!DOCTYPE svg PUBLIC "-//W3C//DTD SVG 1.0//EN" "http://www.w3.org/TR/2001/REC-SVG-20010904/DTD/svg10.dtd">
<!-- Creator: CorelDRAW X6 -->
<svg xmlns="http://www.w3.org/2000/svg" xml:space="preserve" width="2470px" height="925px" version="1.0" shape-rendering="geometricPrecision" text-rendering="geometricPrecision" image-rendering="optimizeQuality" fill-rule="evenodd" clip-rule="evenodd"
viewBox="0 0 247000 92457"
 xmlns:xlink="http://www.w3.org/1999/xlink">
 <g id="_0727.cgm:type:overlay">
  <metadata id="CorelCorpID_0Corel-Layer"/>
  <IC_ColorNameTable/>
  <PictureProperties/>
  <line fill="none" fill-opacity="0.501961" stroke="#DE4BCB" stroke-width="289.116" stroke-opacity="0.501961" x1="152" y1="92305" x2="3941" y2= "90936" />
  <line fill="none" fill-opacity="0.501961" stroke="#DE4BCB" stroke-width="289.116" stroke-opacity="0.501961" x1="8339" y1="91210" x2="5509" y2= "90358" />
  <line fill="none" fill-opacity="0.501961" stroke="#DE4BCB" stroke-width="289.116" stroke-opacity="0.501961" x1="5509" y1="90358" x2="7121" y2= "87877" />
  <polygon fill="#DE4BCB" fill-opacity="0.501961" points="10256,90114 10195,89916 10135,89764 10089,89582 10058,89429 10058,89277 10058,89171 10074,89049 10089,88942 10119,88821 10211,88577 10363,88242 10439,88060 10515,87908 10545,87771 10576,87679 10591,87558 10576,87482 10561,87375 10530,87284 10500,87177 10454,87116 10408,87040 10347,86964 10287,86903 10211,86842 10135,86782 10058,86736 9967,86705 9876,86675 9784,86660 9693,86629 9617,86629 9526,86645 9435,86660 9358,86690 9191,86766 9069,86873 8948,86995 8856,87147 8826,87238 8811,87314 8795,87421 8780,87527 8780,87649 8795,87771 8811,87892 8841,88014 8248,88151 8202,87968 8187,87801 8172,87634 8172,87482 8187,87329 8217,87177 8248,87055 8308,86903 8384,86797 8445,86675 8537,86568 8628,86492 8750,86386 8871,86310 9008,86249 9161,86188 9328,86127 9480,86112 9632,86082 9784,86066 9937,86082 10074,86112 10211,86142 10347,86203 10469,86279 10591,86340 10682,86432 10789,86538 10880,86645 10956,86766 11032,86888 11078,87025 11124,87192 11169,87345 11169,87512 11154,87679 11124,87847 11063,88045 10971,88273 10865,88531 10728,88851 10667,89049 10637,89201 10637,89384 10682,89597 10789,89916 10256,90114 10606,91362 10347,90662 10971,90434 11230,91134 10606,91362 "/>
  <line fill="none" fill-opacity="0.501961" stroke="#DE4BCB" stroke-width="289.116" stroke-opacity="0.501961" x1="11824" y1="86173" x2="14654" y2= "87025" />
  <line fill="none" fill-opacity="0.501961" stroke="#DE4BCB" stroke-width="289.116" stroke-opacity="0.501961" x1="14654" y1="87025" x2="13041" y2= "89505" />
  <line fill="none" fill-opacity="0.501961" stroke="#DE4BCB" stroke-width="289.116" stroke-opacity="0.501961" x1="16130" y1="86492" x2="19904" y2= "85108" />
  <polygon fill="#DE4BCB" fill-opacity="0.501961" points="26249,84362 23982,80938 24393,80786 25838,83069 26249,83769 26173,83008 25930,80238 26432,80056 27588,81714 28030,82338 28410,82977 28319,82171 27953,79493 28364,79341 28821,83419 28425,83571 26599,80953 26325,80634 26417,81136 26706,84195 "/>
  <polygon fill="#DE4BCB" fill-opacity="0.501961" points="22415,85747 21060,82003 22186,81593 22506,81486 22749,81456 23054,81456 23343,81532 23678,81775 23921,82034 24180,82430 24393,82886 24545,83312 24575,83662 24590,84012 24560,84316 24484,84529 24393,84742 24256,84910 24073,85093 23860,85229 23586,85321 22415,85747 22673,85184 23388,84925 23662,84819 23875,84682 24012,84514 24104,84362 24164,84103 24164,83799 24134,83449 23982,83038 23890,82764 23754,82521 23632,82323 23480,82201 23327,82079 23206,82003 23069,81927 22901,81882 22658,81897 22293,82034 21623,82277 22673,85184 "/>
  <polygon fill="#DE4BCB" fill-opacity="0.501961" points="22962,86386 23099,86766 29186,84560 29049,84179 "/>
  <line fill="none" fill-opacity="0.501961" stroke="#DE4BCB" stroke-width="289.116" stroke-opacity="0.501961" x1="31255" y1="80984" x2="35029" y2= "79614" />
  <line fill="none" fill-opacity="0.501961" stroke="#DE4BCB" stroke-width="289.116" stroke-opacity="0.501961" x1="39442" y1="79888" x2="36612" y2= "79036" />
  <line fill="none" fill-opacity="0.501961" stroke="#DE4BCB" stroke-width="289.116" stroke-opacity="0.501961" x1="36612" y1="79036" x2="38225" y2= "76556" />
  <polygon fill="#DE4BCB" fill-opacity="0.501961" points="41359,78793 41299,78595 41238,78443 41192,78260 41162,78108 41146,77956 41162,77849 41162,77728 41192,77621 41223,77499 41314,77256 41466,76921 41542,76738 41618,76586 41649,76449 41679,76358 41679,76236 41679,76160 41664,76054 41633,75962 41603,75871 41557,75795 41512,75719 41451,75643 41390,75582 41314,75521 41238,75460 41162,75415 41070,75384 40979,75354 40888,75339 40796,75308 40720,75308 40629,75323 40538,75339 40447,75369 40294,75445 40157,75551 40051,75673 39960,75841 39929,75917 39914,75993 39899,76099 39883,76206 39883,76328 39899,76449 39914,76571 39944,76693 39351,76830 39305,76647 39275,76480 39275,76312 39275,76160 39290,76008 39305,75856 39351,75734 39412,75597 39473,75475 39549,75354 39640,75262 39731,75171 39853,75080 39975,74988 40112,74928 40249,74867 40431,74806 40583,74791 40736,74775 40888,74745 41040,74760 41177,74791 41314,74821 41451,74882 41573,74958 41694,75019 41786,75110 41892,75217 41983,75339 42059,75445 42136,75567 42181,75704 42227,75871 42273,76023 42273,76191 42257,76358 42227,76525 42166,76723 42075,76951 41968,77210 41831,77530 41755,77728 41740,77880 41740,78062 41786,78275 41892,78595 41359,78793 41710,80040 41451,79341 42075,79112 42333,79812 41710,80040 "/>
  <line fill="none" fill-opacity="0.501961" stroke="#DE4BCB" stroke-width="289.116" stroke-opacity="0.501961" x1="42927" y1="74852" x2="45757" y2= "75704" />
  <line fill="none" fill-opacity="0.501961" stroke="#DE4BCB" stroke-width="289.116" stroke-opacity="0.501961" x1="45757" y1="75704" x2="44129" y2= "78184" />
  <line fill="none" fill-opacity="0.501961" stroke="#DE4BCB" stroke-width="289.116" stroke-opacity="0.501961" x1="47233" y1="75171" x2="51007" y2= "73802" />
  <polygon fill="#DE4BCB" fill-opacity="0.501961" points="57352,73041 55085,69617 55496,69480 56941,71762 57337,72447 57276,71686 57033,68917 57520,68734 58691,70393 59133,71017 59513,71656 59422,70850 59057,68171 59467,68034 59924,72097 59528,72249 57702,69632 57428,69313 57505,69815 57809,72873 "/>
  <polygon fill="#DE4BCB" fill-opacity="0.501961" points="53518,74441 52163,70682 53290,70271 53594,70165 53853,70134 54157,70134 54431,70210 54781,70454 55024,70713 55268,71108 55496,71565 55648,71991 55663,72341 55694,72691 55663,72995 55572,73208 55496,73421 55359,73589 55176,73771 54963,73908 54689,74015 53518,74441 53776,73862 54492,73604 54766,73497 54979,73376 55116,73193 55207,73041 55268,72782 55268,72478 55237,72143 55085,71717 54994,71443 54842,71199 54720,71002 54583,70880 54431,70758 54309,70682 54172,70606 54005,70560 53761,70591 53396,70713 52711,70956 53776,73862 "/>
  <polygon fill="#DE4BCB" fill-opacity="0.501961" points="54066,75080 54202,75445 60289,73239 60152,72858 "/>
  <line fill="none" fill-opacity="0.501961" stroke="#DE4BCB" stroke-width="289.116" stroke-opacity="0.501961" x1="62404" y1="69647" x2="66133" y2= "68293" />
  <line fill="none" fill-opacity="0.501961" stroke="#DE4BCB" stroke-width="289.116" stroke-opacity="0.501961" x1="70545" y1="68567" x2="67715" y2= "67715" />
  <line fill="none" fill-opacity="0.501961" stroke="#DE4BCB" stroke-width="289.116" stroke-opacity="0.501961" x1="67715" y1="67715" x2="69328" y2= "65234" />
  <polygon fill="#DE4BCB" fill-opacity="0.501961" points="72463,67471 72387,67274 72341,67121 72280,66939 72265,66787 72250,66634 72265,66528 72265,66421 72295,66300 72326,66178 72417,65934 72569,65615 72645,65417 72721,65265 72752,65128 72782,65037 72782,64930 72767,64839 72767,64732 72737,64641 72691,64550 72661,64474 72615,64398 72554,64322 72478,64261 72417,64200 72341,64139 72265,64093 72174,64063 72082,64032 71991,64017 71900,64002 71824,63987 71732,64002 71641,64017 71550,64048 71382,64124 71261,64230 71154,64352 71063,64519 71032,64595 71017,64671 71002,64793 70987,64885 70987,65006 71002,65128 71002,65250 71048,65387 70439,65508 70408,65326 70378,65158 70378,64991 70378,64839 70393,64687 70408,64534 70454,64413 70515,64276 70576,64154 70652,64048 70743,63941 70835,63850 70941,63758 71078,63667 71215,63606 71352,63545 71519,63485 71687,63469 71839,63454 71991,63424 72143,63439 72280,63469 72417,63500 72554,63561 72676,63637 72798,63713 72889,63789 72995,63895 73087,64017 73163,64124 73224,64245 73284,64382 73330,64550 73361,64717 73376,64869 73361,65037 73330,65204 73269,65402 73178,65645 73071,65889 72934,66208 72858,66406 72843,66558 72843,66741 72889,66954 72980,67274 72463,67471 72798,68719 72554,68019 73178,67791 73421,68491 72798,68719 "/>
  <line fill="none" fill-opacity="0.501961" stroke="#DE4BCB" stroke-width="289.116" stroke-opacity="0.501961" x1="74030" y1="63530" x2="76845" y2= "64382" />
  <line fill="none" fill-opacity="0.501961" stroke="#DE4BCB" stroke-width="289.116" stroke-opacity="0.501961" x1="76845" y1="64382" x2="75232" y2= "66863" />
  <line fill="none" fill-opacity="0.501961" stroke="#DE4BCB" stroke-width="289.116" stroke-opacity="0.501961" x1="78321" y1="63850" x2="82110" y2= "62480" />
  <polygon fill="#DE4BCB" fill-opacity="0.501961" points="88456,61719 86188,58296 86599,58159 88045,60441 88440,61126 88380,60380 88136,57596 88623,57413 89795,59087 90221,59696 90616,60335 90525,59528 90160,56850 90571,56713 91027,60776 90616,60928 88806,58311 88532,57991 88608,58493 88912,61552 "/>
  <polygon fill="#DE4BCB" fill-opacity="0.501961" points="84621,63119 83251,59361 84393,58950 84697,58843 84941,58813 85260,58813 85534,58889 85884,59133 86127,59391 86371,59787 86599,60243 86751,60669 86767,61019 86797,61369 86751,61674 86675,61887 86599,62100 86462,62267 86280,62450 86067,62587 85793,62693 84621,63119 84880,62541 85595,62282 85869,62176 86067,62054 86219,61872 86310,61719 86371,61461 86371,61172 86341,60822 86188,60396 86097,60137 85945,59878 85823,59680 85686,59559 85534,59437 85397,59361 85275,59285 85108,59239 84849,59269 84499,59391 83815,59635 84880,62541 "/>
  <polygon fill="#DE4BCB" fill-opacity="0.501961" points="85169,63758 85306,64124 91393,61917 91256,61537 "/>
  <line fill="none" fill-opacity="0.501961" stroke="#DE4BCB" stroke-width="289.116" stroke-opacity="0.501961" x1="93508" y1="58326" x2="97236" y2= "56972" />
  <line fill="none" fill-opacity="0.501961" stroke="#DE4BCB" stroke-width="289.116" stroke-opacity="0.501961" x1="101649" y1="57246" x2="98818" y2= "56393" />
  <line fill="none" fill-opacity="0.501961" stroke="#DE4BCB" stroke-width="289.116" stroke-opacity="0.501961" x1="98818" y1="56393" x2="100431" y2= "53928" />
  <polygon fill="#DE4BCB" fill-opacity="0.501961" points="103566,56150 103490,55952 103444,55800 103383,55617 103368,55465 103353,55313 103368,55207 103368,55100 103399,54978 103429,54857 103520,54613 103673,54294 103749,54096 103825,53944 103855,53807 103886,53715 103886,53609 103870,53517 103870,53411 103840,53320 103794,53228 103764,53152 103718,53076 103657,53015 103581,52939 103520,52878 103444,52818 103368,52772 103277,52741 103186,52711 103094,52696 103003,52681 102927,52665 102836,52681 102744,52696 102653,52726 102486,52802 102364,52909 102257,53031 102166,53198 102136,53274 102120,53350 102105,53472 102090,53563 102090,53685 102105,53807 102105,53928 102151,54065 101542,54187 101512,54004 101481,53837 101481,53685 101481,53517 101496,53365 101512,53213 101557,53091 101618,52954 101679,52833 101755,52726 101847,52620 101938,52528 102044,52437 102181,52346 102318,52285 102455,52224 102623,52163 102775,52148 102942,52133 103094,52102 103246,52133 103383,52148 103520,52178 103657,52239 103779,52315 103901,52391 103992,52483 104099,52574 104190,52696 104266,52802 104327,52924 104388,53061 104433,53228 104464,53396 104479,53548 104464,53715 104433,53883 104373,54081 104281,54324 104175,54568 104038,54887 103962,55085 103946,55237 103946,55420 103992,55633 104083,55952 103566,56150 103901,57398 103657,56698 104281,56485 104525,57170 103901,57398 "/>
  <line fill="none" fill-opacity="0.501961" stroke="#DE4BCB" stroke-width="289.116" stroke-opacity="0.501961" x1="105133" y1="52209" x2="107948" y2= "53076" />
  <line fill="none" fill-opacity="0.501961" stroke="#DE4BCB" stroke-width="289.116" stroke-opacity="0.501961" x1="107948" y1="53076" x2="106335" y2= "55541" />
  <line fill="none" fill-opacity="0.501961" stroke="#DE4BCB" stroke-width="289.116" stroke-opacity="0.501961" x1="109424" y1="52528" x2="113213" y2= "51159" />
  <polygon fill="#DE4BCB" fill-opacity="0.501961" points="119559,50398 117292,46974 117702,46837 119148,49120 119544,49805 119483,49059 119239,46274 119726,46092 120898,47765 121324,48374 121720,49013 121628,48207 121263,45529 121674,45392 122131,49455 121720,49607 119909,46989 119635,46670 119711,47172 120015,50231 "/>
  <polygon fill="#DE4BCB" fill-opacity="0.501961" points="115724,51798 114355,48039 115496,47644 115800,47522 116044,47492 116363,47492 116637,47568 116987,47811 117231,48070 117474,48465 117702,48922 117855,49348 117870,49698 117900,50048 117855,50352 117778,50565 117702,50779 117565,50946 117383,51128 117170,51265 116896,51372 115724,51798 115983,51220 116698,50961 116972,50870 117170,50733 117322,50550 117413,50398 117474,50139 117474,49850 117444,49500 117292,49074 117200,48816 117048,48557 116926,48374 116789,48237 116637,48116 116500,48039 116379,47963 116211,47918 115953,47948 115603,48070 114918,48329 115983,51220 "/>
  <polygon fill="#DE4BCB" fill-opacity="0.501961" points="116272,52437 116409,52802 122496,50596 122359,50215 "/>
  <line fill="none" fill-opacity="0.501961" stroke="#DE4BCB" stroke-width="289.116" stroke-opacity="0.501961" x1="124611" y1="47005" x2="128339" y2= "45650" />
  <line fill="none" fill-opacity="0.501961" stroke="#DE4BCB" stroke-width="289.116" stroke-opacity="0.501961" x1="132752" y1="45924" x2="129921" y2= "45072" />
  <line fill="none" fill-opacity="0.501961" stroke="#DE4BCB" stroke-width="289.116" stroke-opacity="0.501961" x1="129921" y1="45072" x2="131534" y2= "42607" />
  <polygon fill="#DE4BCB" fill-opacity="0.501961" points="134669,44829 134593,44631 134547,44479 134487,44296 134471,44144 134456,43992 134471,43885 134471,43779 134502,43657 134532,43535 134623,43292 134776,42972 134852,42775 134928,42622 134958,42485 134989,42394 134989,42288 134973,42196 134973,42090 134943,41999 134897,41907 134867,41831 134821,41755 134760,41694 134684,41618 134623,41557 134547,41496 134471,41451 134380,41420 134289,41390 134197,41375 134106,41359 134030,41344 133939,41359 133847,41375 133756,41405 133589,41481 133467,41588 133360,41709 133269,41877 133239,41953 133224,42029 133208,42151 133193,42242 133193,42364 133208,42485 133208,42607 133254,42744 132645,42866 132615,42683 132584,42516 132584,42364 132584,42196 132600,42044 132615,41892 132661,41770 132721,41633 132782,41512 132858,41405 132950,41299 133041,41207 133147,41116 133284,41025 133421,40964 133558,40918 133726,40842 133878,40827 134045,40812 134197,40781 134350,40812 134487,40827 134623,40857 134760,40918 134882,40994 135004,41070 135095,41162 135202,41268 135293,41375 135369,41481 135430,41603 135491,41740 135536,41907 135567,42075 135582,42227 135567,42394 135536,42562 135476,42759 135384,43003 135278,43246 135141,43566 135065,43764 135050,43916 135050,44098 135095,44311 135187,44631 134669,44829 135004,46077 134760,45377 135384,45164 135628,45848 135004,46077 "/>
  <line fill="none" fill-opacity="0.501961" stroke="#DE4BCB" stroke-width="289.116" stroke-opacity="0.501961" x1="136236" y1="40888" x2="139052" y2= "41755" />
  <line fill="none" fill-opacity="0.501961" stroke="#DE4BCB" stroke-width="289.116" stroke-opacity="0.501961" x1="139052" y1="41755" x2="137439" y2= "44220" />
  <line fill="none" fill-opacity="0.501961" stroke="#DE4BCB" stroke-width="289.116" stroke-opacity="0.501961" x1="140528" y1="41207" x2="144317" y2= "39838" />
  <polygon fill="#DE4BCB" fill-opacity="0.501961" points="150662,39077 148395,35653 148806,35516 150251,37799 150647,38483 150586,37738 150342,34953 150829,34770 152001,36444 152427,37053 152823,37692 152732,36886 152366,34207 152777,34070 153234,38149 152823,38286 151012,35668 150738,35349 150814,35851 151119,38909 "/>
  <polygon fill="#DE4BCB" fill-opacity="0.501961" points="146827,40477 145458,36733 146599,36323 146903,36201 147147,36170 147467,36186 147740,36262 148090,36490 148334,36764 148577,37144 148806,37601 148958,38027 148973,38377 149003,38727 148958,39046 148882,39244 148806,39457 148669,39625 148486,39807 148273,39944 147999,40051 146827,40477 147086,39899 147801,39640 148075,39549 148288,39412 148425,39229 148516,39077 148577,38818 148577,38529 148547,38179 148395,37753 148303,37494 148151,37236 148030,37053 147893,36916 147740,36794 147603,36718 147482,36657 147314,36596 147056,36627 146706,36749 146021,37007 147086,39899 "/>
  <polygon fill="#DE4BCB" fill-opacity="0.501961" points="147375,41116 147512,41481 153599,39275 153462,38894 "/>
  <line fill="none" fill-opacity="0.501961" stroke="#DE4BCB" stroke-width="289.116" stroke-opacity="0.501961" x1="155714" y1="35683" x2="159442" y2= "34329" />
  <line fill="none" fill-opacity="0.501961" stroke="#DE4BCB" stroke-width="289.116" stroke-opacity="0.501961" x1="163840" y1="34618" x2="161025" y2= "33751" />
  <line fill="none" fill-opacity="0.501961" stroke="#DE4BCB" stroke-width="289.116" stroke-opacity="0.501961" x1="161025" y1="33751" x2="162638" y2= "31286" />
  <polygon fill="#DE4BCB" fill-opacity="0.501961" points="165772,33507 165696,33325 165635,33157 165590,32990 165575,32838 165559,32670 165575,32564 165575,32458 165605,32336 165635,32214 165727,31971 165879,31651 165955,31453 166031,31301 166062,31164 166092,31073 166092,30966 166077,30875 166077,30768 166031,30677 166001,30586 165955,30510 165925,30434 165864,30373 165788,30312 165712,30236 165651,30175 165575,30129 165468,30099 165392,30084 165301,30053 165209,30038 165133,30023 165042,30038 164951,30053 164859,30084 164692,30175 164570,30266 164464,30403 164372,30555 164342,30631 164312,30723 164312,30829 164296,30921 164296,31042 164312,31164 164312,31286 164342,31423 163749,31544 163718,31362 163688,31194 163672,31042 163688,30875 163688,30723 163718,30571 163764,30449 163809,30312 163885,30190 163962,30084 164053,29977 164144,29886 164251,29795 164388,29703 164525,29642 164662,29597 164829,29536 164981,29505 165133,29490 165285,29475 165438,29490 165575,29505 165727,29551 165848,29597 165985,29688 166107,29749 166199,29840 166305,29947 166381,30053 166457,30160 166533,30282 166594,30418 166625,30586 166670,30753 166685,30905 166670,31073 166625,31255 166579,31453 166488,31681 166381,31925 166244,32244 166168,32458 166138,32610 166138,32777 166199,32990 166290,33310 165772,33507 166107,34755 165864,34070 166488,33842 166731,34527 166107,34755 "/>
  <line fill="none" fill-opacity="0.501961" stroke="#DE4BCB" stroke-width="289.116" stroke-opacity="0.501961" x1="167324" y1="29566" x2="170155" y2= "30434" />
  <line fill="none" fill-opacity="0.501961" stroke="#DE4BCB" stroke-width="289.116" stroke-opacity="0.501961" x1="170155" y1="30434" x2="168542" y2= "32899" />
  <line fill="none" fill-opacity="0.501961" stroke="#DE4BCB" stroke-width="289.116" stroke-opacity="0.501961" x1="171631" y1="29886" x2="175420" y2= "28516" />
  <polygon fill="#DE4BCB" fill-opacity="0.501961" points="181765,27756 179498,24347 179909,24195 181339,26477 181750,27162 181674,26416 181430,23632 181933,23449 183104,25123 183530,25747 183911,26371 183835,25579 183470,22901 183865,22749 184337,26827 183926,26964 182100,24347 181841,24027 181917,24530 182207,27588 "/>
  <polygon fill="#DE4BCB" fill-opacity="0.501961" points="177931,29155 176561,25412 177687,25001 178007,24879 178250,24849 178555,24864 178844,24940 179178,25169 179437,25442 179681,25823 179894,26279 180046,26706 180076,27056 180107,27405 180061,27725 179985,27923 179909,28136 179772,28303 179574,28501 179376,28623 179102,28729 177931,29155 178174,28577 178905,28319 179178,28227 179376,28090 179513,27923 179620,27756 179681,27497 179665,27208 179650,26858 179498,26432 179391,26173 179255,25929 179133,25732 178981,25595 178844,25473 178707,25397 178585,25336 178402,25275 178159,25306 177794,25442 177124,25686 178174,28577 "/>
  <polygon fill="#DE4BCB" fill-opacity="0.501961" points="178479,29795 178615,30175 184702,27953 184565,27573 "/>
  <line fill="none" fill-opacity="0.501961" stroke="#DE4BCB" stroke-width="289.116" stroke-opacity="0.501961" x1="186802" y1="24362" x2="190545" y2= "23008" />
  <line fill="none" fill-opacity="0.501961" stroke="#DE4BCB" stroke-width="289.116" stroke-opacity="0.501961" x1="194943" y1="23297" x2="192113" y2= "22430" />
  <line fill="none" fill-opacity="0.501961" stroke="#DE4BCB" stroke-width="289.116" stroke-opacity="0.501961" x1="192113" y1="22430" x2="193726" y2= "19964" />
  <polygon fill="#DE4BCB" fill-opacity="0.501961" points="196860,22186 196800,22004 196739,21836 196693,21669 196663,21517 196663,21349 196663,21243 196678,21136 196693,21014 196739,20893 196815,20649 196967,20330 197043,20147 197119,19995 197150,19858 197180,19751 197195,19645 197180,19554 197165,19447 197134,19356 197104,19264 197058,19188 197013,19112 196952,19051 196891,18991 196815,18930 196739,18854 196663,18823 196571,18778 196480,18762 196389,18732 196313,18717 196221,18717 196130,18732 196039,18747 195963,18778 195795,18854 195673,18945 195552,19082 195460,19234 195430,19325 195415,19401 195400,19508 195400,19599 195384,19721 195400,19843 195415,19964 195445,20101 194852,20223 194821,20041 194791,19873 194776,19721 194776,19554 194791,19417 194821,19264 194852,19143 194913,18991 194989,18869 195050,18762 195141,18656 195247,18564 195354,18473 195476,18397 195613,18321 195765,18275 195932,18215 196084,18184 196236,18169 196389,18154 196541,18169 196678,18184 196815,18230 196952,18291 197073,18367 197195,18428 197302,18519 197393,18625 197484,18732 197560,18854 197636,18960 197682,19112 197728,19264 197773,19432 197789,19584 197758,19751 197728,19934 197667,20132 197576,20360 197484,20604 197332,20923 197271,21136 197241,21288 197241,21456 197287,21684 197393,22004 196860,22186 197210,23434 196952,22749 197576,22521 197834,23206 197210,23434 "/>
  <line fill="none" fill-opacity="0.501961" stroke="#DE4BCB" stroke-width="289.116" stroke-opacity="0.501961" x1="198428" y1="18260" x2="201258" y2= "19112" />
  <line fill="none" fill-opacity="0.501961" stroke="#DE4BCB" stroke-width="289.116" stroke-opacity="0.501961" x1="201258" y1="19112" x2="199645" y2= "21577" />
  <line fill="none" fill-opacity="0.501961" stroke="#DE4BCB" stroke-width="289.116" stroke-opacity="0.501961" x1="202734" y1="18580" x2="206508" y2= "17195" />
  <polygon fill="#DE4BCB" fill-opacity="0.501961" points="212853,16434 210586,13026 210997,12873 212442,15156 212853,15841 212777,15095 212534,12310 213036,12128 214192,13802 214634,14426 215014,15065 214923,14258 214558,11580 214968,11428 215425,15506 215029,15658 213203,13026 212929,12706 213021,13223 213310,16282 "/>
  <polygon fill="#DE4BCB" fill-opacity="0.501961" points="209019,17834 207664,14091 208790,13680 209110,13558 209353,13528 209658,13543 209947,13619 210282,13847 210540,14121 210784,14502 210997,14973 211149,15384 211179,15734 211195,16084 211164,16404 211088,16602 210997,16815 210860,16982 210677,17180 210464,17317 210190,17408 209019,17834 209277,17271 209993,16997 210266,16906 210479,16769 210616,16602 210708,16449 210769,16191 210769,15886 210738,15536 210586,15110 210495,14852 210358,14608 210236,14410 210084,14289 209932,14152 209810,14091 209673,14015 209506,13954 209262,13984 208897,14121 208227,14365 209277,17271 "/>
  <polygon fill="#DE4BCB" fill-opacity="0.501961" points="209567,18473 209703,18854 215790,16632 215653,16267 "/>
  <line fill="none" fill-opacity="0.501961" stroke="#DE4BCB" stroke-width="289.116" stroke-opacity="0.501961" x1="217905" y1="13056" x2="221694" y2= "11671" />
  <line fill="none" fill-opacity="0.501961" stroke="#DE4BCB" stroke-width="289.116" stroke-opacity="0.501961" x1="226046" y1="11976" x2="223216" y2= "11123" />
  <line fill="none" fill-opacity="0.501961" stroke="#DE4BCB" stroke-width="289.116" stroke-opacity="0.501961" x1="223216" y1="11123" x2="224829" y2= "8643" />
  <polygon fill="#DE4BCB" fill-opacity="0.501961" points="227964,10865 227888,10682 227842,10530 227781,10347 227766,10195 227751,10043 227766,9921 227766,9815 227796,9708 227827,9587 227918,9328 228070,9008 228146,8826 228222,8674 228253,8537 228283,8430 228283,8324 228268,8247 228268,8141 228238,8034 228192,7943 228162,7867 228116,7806 228055,7730 227979,7669 227918,7608 227842,7547 227766,7502 227675,7456 227583,7441 227492,7426 227401,7395 227325,7395 227233,7410 227142,7426 227051,7456 226899,7532 226762,7624 226655,7761 226564,7913 226533,8004 226518,8080 226503,8187 226488,8278 226488,8415 226503,8537 226518,8643 226548,8780 225940,8902 225909,8719 225879,8552 225879,8400 225879,8232 225894,8095 225909,7943 225955,7821 226016,7669 226077,7563 226153,7441 226244,7334 226336,7243 226442,7152 226579,7076 226716,7000 226853,6954 227035,6893 227188,6878 227340,6847 227492,6832 227644,6847 227781,6863 227918,6908 228055,6969 228177,7045 228298,7106 228390,7198 228496,7304 228588,7410 228664,7532 228724,7639 228785,7791 228831,7943 228877,8110 228877,8263 228861,8445 228831,8613 228770,8810 228679,9039 228572,9297 228435,9617 228359,9815 228344,9967 228344,10150 228390,10363 228481,10682 227964,10865 228298,12128 228055,11428 228679,11200 228922,11899 228298,12128 "/>
  <line fill="none" fill-opacity="0.501961" stroke="#DE4BCB" stroke-width="289.116" stroke-opacity="0.501961" x1="229531" y1="6939" x2="232346" y2= "7791" />
  <line fill="none" fill-opacity="0.501961" stroke="#DE4BCB" stroke-width="289.116" stroke-opacity="0.501961" x1="232346" y1="7791" x2="230733" y2= "10271" />
  <line fill="none" fill-opacity="0.501961" stroke="#DE4BCB" stroke-width="289.116" stroke-opacity="0.501961" x1="233822" y1="7258" x2="237611" y2= "5874" />
  <polygon fill="#DE4BCB" fill-opacity="0.501961" points="243957,5128 241689,1704 242100,1552 243546,3835 243941,4535 243881,3774 243637,1004 244124,822 245296,2480 245722,3104 246117,3743 246026,2937 245661,259 246072,106 246528,4185 246117,4337 244307,1704 244033,1385 244109,1902 244413,4961 "/>
  <polygon fill="#DE4BCB" fill-opacity="0.501961" points="240122,6513 238752,2769 239894,2359 240198,2252 240442,2222 240761,2222 241035,2298 241385,2526 241628,2800 241872,3196 242100,3652 242252,4078 242267,4413 242298,4763 242252,5082 242176,5295 242100,5493 241963,5676 241765,5858 241567,5995 241294,6087 240122,6513 240381,5950 241096,5691 241370,5585 241567,5448 241720,5280 241811,5128 241872,4869 241872,4565 241841,4215 241689,3789 241598,3530 241446,3287 241324,3089 241187,2967 241035,2845 240898,2769 240776,2693 240594,2632 240350,2663 240000,2800 239315,3043 240381,5950 "/>
  <polygon fill="#DE4BCB" fill-opacity="0.501961" points="240670,7152 240807,7532 246893,5311 246756,4945 "/>
 </g>
</svg>
