<?xml version="1.0" encoding="UTF-8"?>
<!DOCTYPE svg PUBLIC "-//W3C//DTD SVG 1.0//EN" "http://www.w3.org/TR/2001/REC-SVG-20010904/DTD/svg10.dtd">
<!-- Creator: CorelDRAW X6 -->
<svg xmlns="http://www.w3.org/2000/svg" xml:space="preserve" width="464px" height="171px" version="1.0" shape-rendering="geometricPrecision" text-rendering="geometricPrecision" image-rendering="optimizeQuality" fill-rule="evenodd" clip-rule="evenodd"
viewBox="0 0 46400 17127"
 xmlns:xlink="http://www.w3.org/1999/xlink">
 <g id="_0752.cgm:type:overlay">
  <metadata id="CorelCorpID_0Corel-Layer"/>
  <IC_ColorNameTable/>
  <PictureProperties/>
  <line fill="none" fill-opacity="0.501961" stroke="#969F99" stroke-width="378.894" stroke-opacity="0.501961" x1="188" y1="16939" x2="4219" y2= "15472" />
  <line fill="none" fill-opacity="0.501961" stroke="#969F99" stroke-width="378.894" stroke-opacity="0.501961" x1="6188" y1="14757" x2="10219" y2= "13290" />
  <line fill="none" fill-opacity="0.501961" stroke="#969F99" stroke-width="378.894" stroke-opacity="0.501961" x1="12185" y1="12572" x2="16216" y2= "11105" />
  <line fill="none" fill-opacity="0.501961" stroke="#969F99" stroke-width="378.894" stroke-opacity="0.501961" x1="18185" y1="10390" x2="22216" y2= "8923" />
  <line fill="none" fill-opacity="0.501961" stroke="#969F99" stroke-width="378.894" stroke-opacity="0.501961" x1="24184" y1="8205" x2="28215" y2= "6738" />
  <line fill="none" fill-opacity="0.501961" stroke="#969F99" stroke-width="378.894" stroke-opacity="0.501961" x1="30230" y1="6005" x2="34212" y2= "4555" />
  <line fill="none" fill-opacity="0.501961" stroke="#969F99" stroke-width="378.894" stroke-opacity="0.501961" x1="36229" y1="3820" x2="40212" y2= "2373" />
  <line fill="none" fill-opacity="0.501961" stroke="#969F99" stroke-width="378.894" stroke-opacity="0.501961" x1="42229" y1="1638" x2="46212" y2= "188" />
  <polyline fill="none" fill-opacity="0.501961" stroke="#969F99" stroke-width="299.096" stroke-opacity="0.501961" points="16954,12347 17219,12136 17481,11820 17635,11626 17863,11256 17942,11088 18019,10757 18102,10321 18199,9777 18270,9227 18321,8848 18381,8626 18498,8376 18621,8222 18774,8097 19022,7988 19296,7977 19481,8017 19583,8079 19695,8250 19774,8433 19823,8550 19535,8797 19415,8960 19341,9145 19310,9296 19367,9532 19424,9689 19555,9860 19789,9985 20222,10159 20669,10279 21219,10441 21640,10507 21882,10518 22122,10472 22236,10424 "/>
  <polyline fill="none" fill-opacity="0.501961" stroke="#969F99" stroke-width="299.096" stroke-opacity="0.501961" points="22236,10424 22498,10213 22763,9900 22917,9703 23145,9333 23221,9165 23301,8837 23381,8401 23481,7854 23549,7307 23600,6928 23660,6706 23777,6453 23899,6302 24053,6176 24301,6065 24577,6054 24760,6097 24862,6159 24973,6327 25053,6512 25105,6629 24814,6874 24694,7037 24623,7225 24589,7373 24646,7612 24703,7769 24834,7940 25070,8065 25500,8236 25948,8359 26498,8521 26919,8586 27164,8595 27401,8550 27515,8504 "/>
  <polyline fill="none" fill-opacity="0.501961" stroke="#969F99" stroke-width="299.096" stroke-opacity="0.501961" points="27515,8504 27777,8293 28042,7977 28195,7780 28423,7413 28500,7245 28580,6914 28660,6478 28760,5934 28828,5384 28879,5005 28939,4786 29056,4533 29181,4379 29332,4253 29580,4145 29856,4134 30039,4174 30141,4236 30255,4404 30335,4592 30383,4706 30096,4954 29976,5117 29902,5302 29871,5453 29925,5689 29982,5846 30116,6017 30349,6142 30780,6316 31227,6436 31777,6598 32201,6664 32443,6675 32683,6629 32794,6581 "/>
 </g>
</svg>
