<?xml version="1.0" encoding="UTF-8"?>
<!DOCTYPE svg PUBLIC "-//W3C//DTD SVG 1.0//EN" "http://www.w3.org/TR/2001/REC-SVG-20010904/DTD/svg10.dtd">
<!-- Creator: CorelDRAW X6 -->
<svg xmlns="http://www.w3.org/2000/svg" xml:space="preserve" width="486px" height="181px" version="1.0" shape-rendering="geometricPrecision" text-rendering="geometricPrecision" image-rendering="optimizeQuality" fill-rule="evenodd" clip-rule="evenodd"
viewBox="0 0 48600 18064"
 xmlns:xlink="http://www.w3.org/1999/xlink">
 <g id="_0758.cgm:type:overlay">
  <metadata id="CorelCorpID_0Corel-Layer"/>
  <IC_ColorNameTable/>
  <PictureProperties/>
  <path fill="#A37B3A" fill-opacity="0.501961" stroke="#A37B3A" stroke-width="90.0446" stroke-linecap="square" stroke-linejoin="round" stroke-opacity="0.501961" d="M575 17669c-56,-152 -227,-231 -380,-177 -154,54 -233,222 -177,374 56,152 226,231 380,177 154,-55 233,-222 177,-374z"/>
  <path fill="#A37B3A" fill-opacity="0.501961" stroke="#A37B3A" stroke-width="90.0446" stroke-linecap="square" stroke-linejoin="round" stroke-opacity="0.501961" d="M1468 17342c-55,-154 -223,-233 -377,-177 -154,56 -234,227 -180,381 55,154 224,233 377,177 154,-56 234,-227 179,-381z"/>
  <path fill="#A37B3A" fill-opacity="0.501961" stroke="#A37B3A" stroke-width="90.0446" stroke-linecap="square" stroke-linejoin="round" stroke-opacity="0.501961" d="M2360 17019c-56,-152 -225,-231 -377,-177 -152,55 -230,222 -174,374 56,152 225,231 377,177 152,-55 230,-222 174,-374z"/>
  <path fill="#A37B3A" fill-opacity="0.501961" stroke="#A37B3A" stroke-width="90.0446" stroke-linecap="square" stroke-linejoin="round" stroke-opacity="0.501961" d="M3256 16692c-56,-154 -227,-233 -380,-177 -154,56 -233,226 -177,380 56,154 227,233 380,177 154,-56 233,-226 177,-380z"/>
  <path fill="#A37B3A" fill-opacity="0.501961" stroke="#A37B3A" stroke-width="90.0446" stroke-linecap="square" stroke-linejoin="round" stroke-opacity="0.501961" d="M4148 16366c-56,-154 -227,-233 -380,-177 -154,56 -233,227 -177,380 56,154 227,233 380,177 154,-56 233,-227 177,-380z"/>
  <path fill="#A37B3A" fill-opacity="0.501961" stroke="#A37B3A" stroke-width="90.0446" stroke-linecap="square" stroke-linejoin="round" stroke-opacity="0.501961" d="M6931 15353c-56,-154 -227,-233 -380,-177 -154,56 -233,226 -177,380 56,154 227,233 380,177 154,-56 233,-226 177,-380z"/>
  <path fill="#A37B3A" fill-opacity="0.501961" stroke="#A37B3A" stroke-width="90.0446" stroke-linecap="square" stroke-linejoin="round" stroke-opacity="0.501961" d="M7823 15030c-55,-152 -224,-231 -377,-177 -154,55 -234,222 -180,374 55,152 224,231 377,177 154,-55 234,-222 180,-374z"/>
  <path fill="#A37B3A" fill-opacity="0.501961" stroke="#A37B3A" stroke-width="90.0446" stroke-linecap="square" stroke-linejoin="round" stroke-opacity="0.501961" d="M8716 14703c-56,-154 -225,-233 -377,-177 -152,56 -230,227 -174,380 56,154 225,233 377,177 152,-56 230,-227 174,-380z"/>
  <path fill="#A37B3A" fill-opacity="0.501961" stroke="#A37B3A" stroke-width="90.0446" stroke-linecap="square" stroke-linejoin="round" stroke-opacity="0.501961" d="M9611 14380c-56,-152 -227,-231 -380,-177 -154,55 -233,222 -177,374 56,152 227,231 380,177 154,-54 233,-222 177,-374z"/>
  <path fill="#A37B3A" fill-opacity="0.501961" stroke="#A37B3A" stroke-width="90.0446" stroke-linecap="square" stroke-linejoin="round" stroke-opacity="0.501961" d="M10504 14053c-54,-154 -223,-233 -377,-177 -154,56 -234,227 -180,380 55,154 223,233 377,177 154,-56 234,-227 180,-380z"/>
  <path fill="#A37B3A" fill-opacity="0.501961" stroke="#A37B3A" stroke-width="90.0446" stroke-linecap="square" stroke-linejoin="round" stroke-opacity="0.501961" d="M13287 13041c-56,-154 -226,-233 -380,-177 -154,56 -233,227 -177,380 56,154 227,233 380,177 154,-56 233,-227 177,-381z"/>
  <path fill="#A37B3A" fill-opacity="0.501961" stroke="#A37B3A" stroke-width="90.0446" stroke-linecap="square" stroke-linejoin="round" stroke-opacity="0.501961" d="M14158 12723c-56,-154 -225,-233 -377,-177 -152,56 -230,227 -174,380 56,154 225,233 377,177 152,-56 230,-227 174,-380z"/>
  <path fill="#A37B3A" fill-opacity="0.501961" stroke="#A37B3A" stroke-width="90.0446" stroke-linecap="square" stroke-linejoin="round" stroke-opacity="0.501961" d="M15054 12397c-56,-154 -226,-233 -380,-177 -154,56 -233,227 -177,380 56,154 227,233 380,177 154,-56 233,-227 177,-380z"/>
  <path fill="#A37B3A" fill-opacity="0.501961" stroke="#A37B3A" stroke-width="90.0446" stroke-linecap="square" stroke-linejoin="round" stroke-opacity="0.501961" d="M15946 12074c-55,-152 -223,-231 -377,-177 -154,55 -234,222 -180,374 55,152 223,231 377,177 154,-55 234,-222 180,-374z"/>
  <path fill="#A37B3A" fill-opacity="0.501961" stroke="#A37B3A" stroke-width="90.0446" stroke-linecap="square" stroke-linejoin="round" stroke-opacity="0.501961" d="M16839 11747c-56,-154 -225,-233 -377,-177 -152,56 -230,227 -174,380 56,154 225,233 377,177 152,-56 230,-227 174,-380z"/>
  <path fill="#A37B3A" fill-opacity="0.501961" stroke="#A37B3A" stroke-width="90.0446" stroke-linecap="square" stroke-linejoin="round" stroke-opacity="0.501961" d="M19622 10735c-56,-154 -225,-233 -377,-177 -152,56 -230,227 -174,381 56,154 225,233 377,177 152,-56 230,-227 174,-380z"/>
  <path fill="#A37B3A" fill-opacity="0.501961" stroke="#A37B3A" stroke-width="90.0446" stroke-linecap="square" stroke-linejoin="round" stroke-opacity="0.501961" d="M20517 10408c-56,-152 -226,-230 -380,-174 -154,56 -233,225 -177,377 56,152 227,230 380,174 154,-56 233,-225 177,-377z"/>
  <path fill="#A37B3A" fill-opacity="0.501961" stroke="#A37B3A" stroke-width="90.0446" stroke-linecap="square" stroke-linejoin="round" stroke-opacity="0.501961" d="M21410 10085c-55,-154 -224,-233 -377,-177 -154,56 -234,226 -180,380 55,154 224,233 377,177 154,-56 234,-227 180,-380z"/>
  <path fill="#A37B3A" fill-opacity="0.501961" stroke="#A37B3A" stroke-width="90.0446" stroke-linecap="square" stroke-linejoin="round" stroke-opacity="0.501961" d="M22302 9758c-56,-154 -225,-233 -377,-177 -152,56 -230,227 -174,381 56,154 225,233 377,177 152,-56 230,-227 174,-381z"/>
  <path fill="#A37B3A" fill-opacity="0.501961" stroke="#A37B3A" stroke-width="90.0446" stroke-linecap="square" stroke-linejoin="round" stroke-opacity="0.501961" d="M23198 9435c-56,-152 -227,-231 -380,-177 -154,55 -233,222 -177,374 56,152 227,231 380,177 154,-55 233,-222 177,-374z"/>
  <path fill="#A37B3A" fill-opacity="0.501961" stroke="#A37B3A" stroke-width="90.0446" stroke-linecap="square" stroke-linejoin="round" stroke-opacity="0.501961" d="M25977 8422c-56,-152 -225,-231 -377,-177 -152,55 -230,222 -174,374 56,152 225,231 377,177 152,-55 230,-222 174,-374z"/>
  <path fill="#A37B3A" fill-opacity="0.501961" stroke="#A37B3A" stroke-width="90.0446" stroke-linecap="square" stroke-linejoin="round" stroke-opacity="0.501961" d="M26852 8102c-55,-152 -224,-230 -377,-174 -154,56 -234,225 -180,377 55,152 223,230 377,174 154,-56 234,-225 180,-377z"/>
  <path fill="#A37B3A" fill-opacity="0.501961" stroke="#A37B3A" stroke-width="90.0446" stroke-linecap="square" stroke-linejoin="round" stroke-opacity="0.501961" d="M27744 7779c-56,-154 -225,-233 -377,-177 -152,56 -230,226 -174,380 56,154 225,233 377,177 152,-56 230,-226 174,-380z"/>
  <path fill="#A37B3A" fill-opacity="0.501961" stroke="#A37B3A" stroke-width="90.0446" stroke-linecap="square" stroke-linejoin="round" stroke-opacity="0.501961" d="M28640 7452c-56,-154 -226,-233 -380,-177 -154,56 -233,227 -177,381 56,154 227,233 380,177 154,-56 233,-227 177,-380z"/>
  <path fill="#A37B3A" fill-opacity="0.501961" stroke="#A37B3A" stroke-width="90.0446" stroke-linecap="square" stroke-linejoin="round" stroke-opacity="0.501961" d="M29533 7129c-55,-152 -223,-231 -377,-177 -154,55 -234,222 -180,374 55,152 224,231 377,177 154,-55 234,-222 180,-374z"/>
  <path fill="#A37B3A" fill-opacity="0.501961" stroke="#A37B3A" stroke-width="90.0446" stroke-linecap="square" stroke-linejoin="round" stroke-opacity="0.501961" d="M32315 6116c-56,-152 -226,-231 -380,-177 -154,55 -233,222 -177,374 56,152 227,231 380,177 154,-55 233,-222 177,-374z"/>
  <path fill="#A37B3A" fill-opacity="0.501961" stroke="#A37B3A" stroke-width="90.0446" stroke-linecap="square" stroke-linejoin="round" stroke-opacity="0.501961" d="M33208 5790c-55,-154 -224,-233 -377,-177 -154,56 -234,227 -179,380 55,154 224,233 377,177 154,-56 234,-227 180,-380z"/>
  <path fill="#A37B3A" fill-opacity="0.501961" stroke="#A37B3A" stroke-width="90.0446" stroke-linecap="square" stroke-linejoin="round" stroke-opacity="0.501961" d="M34100 5466c-56,-152 -225,-231 -377,-177 -152,55 -230,222 -174,374 56,152 225,231 377,177 152,-55 230,-222 174,-374z"/>
  <path fill="#A37B3A" fill-opacity="0.501961" stroke="#A37B3A" stroke-width="90.0446" stroke-linecap="square" stroke-linejoin="round" stroke-opacity="0.501961" d="M34996 5140c-56,-154 -226,-233 -380,-177 -154,56 -233,226 -177,380 56,154 227,233 380,177 154,-56 233,-227 177,-380z"/>
  <path fill="#A37B3A" fill-opacity="0.501961" stroke="#A37B3A" stroke-width="90.0446" stroke-linecap="square" stroke-linejoin="round" stroke-opacity="0.501961" d="M35888 4813c-55,-154 -223,-233 -377,-177 -154,56 -234,227 -180,380 55,154 223,233 377,177 154,-56 234,-226 180,-380z"/>
  <path fill="#A37B3A" fill-opacity="0.501961" stroke="#A37B3A" stroke-width="90.0446" stroke-linecap="square" stroke-linejoin="round" stroke-opacity="0.501961" d="M38671 3801c-54,-154 -223,-233 -377,-177 -154,56 -234,227 -180,380 55,154 224,233 377,177 154,-56 234,-227 180,-380z"/>
  <path fill="#A37B3A" fill-opacity="0.501961" stroke="#A37B3A" stroke-width="90.0446" stroke-linecap="square" stroke-linejoin="round" stroke-opacity="0.501961" d="M39542 3483c-56,-154 -225,-233 -377,-177 -152,56 -230,227 -174,380 56,154 225,233 377,177 152,-56 230,-226 174,-380z"/>
  <path fill="#A37B3A" fill-opacity="0.501961" stroke="#A37B3A" stroke-width="90.0446" stroke-linecap="square" stroke-linejoin="round" stroke-opacity="0.501961" d="M40438 3160c-56,-152 -227,-231 -380,-177 -154,55 -233,222 -177,374 56,152 227,231 380,177 154,-54 233,-222 177,-374z"/>
  <path fill="#A37B3A" fill-opacity="0.501961" stroke="#A37B3A" stroke-width="90.0446" stroke-linecap="square" stroke-linejoin="round" stroke-opacity="0.501961" d="M41331 2833c-55,-154 -224,-233 -377,-177 -154,56 -234,226 -180,380 54,154 223,233 377,177 154,-56 234,-227 180,-380z"/>
  <path fill="#A37B3A" fill-opacity="0.501961" stroke="#A37B3A" stroke-width="90.0446" stroke-linecap="square" stroke-linejoin="round" stroke-opacity="0.501961" d="M42223 2507c-56,-154 -225,-233 -377,-177 -152,56 -230,227 -174,380 56,154 225,233 377,177 152,-56 230,-227 174,-380z"/>
  <path fill="#A37B3A" fill-opacity="0.501961" stroke="#A37B3A" stroke-width="90.0446" stroke-linecap="square" stroke-linejoin="round" stroke-opacity="0.501961" d="M45006 1495c-56,-154 -225,-233 -377,-177 -152,56 -230,227 -174,380 56,154 225,233 377,177 152,-56 230,-227 174,-380z"/>
  <path fill="#A37B3A" fill-opacity="0.501961" stroke="#A37B3A" stroke-width="90.0446" stroke-linecap="square" stroke-linejoin="round" stroke-opacity="0.501961" d="M45901 1171c-56,-152 -226,-231 -380,-177 -154,55 -233,222 -177,374 56,152 227,231 380,177 154,-54 233,-222 177,-374z"/>
  <path fill="#A37B3A" fill-opacity="0.501961" stroke="#A37B3A" stroke-width="90.0446" stroke-linecap="square" stroke-linejoin="round" stroke-opacity="0.501961" d="M46794 845c-55,-154 -223,-233 -377,-177 -154,56 -234,227 -180,381 55,154 224,233 377,177 154,-56 234,-227 179,-381z"/>
  <path fill="#A37B3A" fill-opacity="0.501961" stroke="#A37B3A" stroke-width="90.0446" stroke-linecap="square" stroke-linejoin="round" stroke-opacity="0.501961" d="M47686 521c-56,-152 -225,-231 -377,-177 -152,55 -230,222 -173,374 56,152 225,231 377,177 152,-55 230,-222 174,-374z"/>
  <path fill="#A37B3A" fill-opacity="0.501961" stroke="#A37B3A" stroke-width="90.0446" stroke-linecap="square" stroke-linejoin="round" stroke-opacity="0.501961" d="M48582 195c-56,-154 -227,-233 -380,-177 -154,56 -233,227 -177,380 56,154 227,233 380,177 154,-56 233,-226 177,-380z"/>
 </g>
</svg>
