<?xml version="1.0" encoding="UTF-8"?>
<!DOCTYPE svg PUBLIC "-//W3C//DTD SVG 1.0//EN" "http://www.w3.org/TR/2001/REC-SVG-20010904/DTD/svg10.dtd">
<!-- Creator: CorelDRAW X6 -->
<svg xmlns="http://www.w3.org/2000/svg" xml:space="preserve" width="713px" height="275px" version="1.0" shape-rendering="geometricPrecision" text-rendering="geometricPrecision" image-rendering="optimizeQuality" fill-rule="evenodd" clip-rule="evenodd"
viewBox="0 0 71300 27528"
 xmlns:xlink="http://www.w3.org/1999/xlink">
 <g id="_0763.cgm:type:overlay">
  <metadata id="CorelCorpID_0Corel-Layer"/>
  <IC_ColorNameTable/>
  <PictureProperties/>
  <line fill="none" fill-opacity="0.501961" stroke="#6AFF60" stroke-width="708.559" stroke-opacity="0.501961" x1="354" y1="26045" x2="70946" y2= "354" />
  <line fill="none" fill-opacity="0.501961" stroke="#6AFF60" stroke-width="354.22" stroke-opacity="0.501961" x1="2252" y1="25354" x2="2677" y2= "26518" />
  <line fill="none" fill-opacity="0.501961" stroke="#6AFF60" stroke-width="354.22" stroke-opacity="0.501961" x1="1089" y1="25779" x2="1513" y2= "26942" />
  <polyline fill="none" fill-opacity="0.501961" stroke="#6AFF60" stroke-width="354.22" stroke-opacity="0.501961" points="1513,26942 1715,27217 1907,27322 2099,27353 2266,27327 2436,27248 2567,27134 2646,27016 2699,26885 2716,26728 2699,26592 2677,26518 "/>
  <line fill="none" fill-opacity="0.501961" stroke="#6AFF60" stroke-width="354.22" stroke-opacity="0.501961" x1="11092" y1="22135" x2="11516" y2= "23303" />
  <line fill="none" fill-opacity="0.501961" stroke="#6AFF60" stroke-width="354.22" stroke-opacity="0.501961" x1="9928" y1="22560" x2="10353" y2= "23727" />
  <polyline fill="none" fill-opacity="0.501961" stroke="#6AFF60" stroke-width="354.22" stroke-opacity="0.501961" points="10353,23727 10549,24003 10742,24103 10939,24134 11105,24112 11275,24033 11407,23920 11485,23802 11533,23666 11555,23509 11538,23373 11516,23303 "/>
  <line fill="none" fill-opacity="0.501961" stroke="#6AFF60" stroke-width="354.22" stroke-opacity="0.501961" x1="19931" y1="18921" x2="20355" y2= "20084" />
  <line fill="none" fill-opacity="0.501961" stroke="#6AFF60" stroke-width="354.22" stroke-opacity="0.501961" x1="18763" y1="19345" x2="19187" y2= "20508" />
  <polyline fill="none" fill-opacity="0.501961" stroke="#6AFF60" stroke-width="354.22" stroke-opacity="0.501961" points="19187,20508 19389,20788 19581,20889 19774,20919 19944,20893 20115,20814 20241,20701 20320,20583 20373,20451 20390,20294 20377,20158 20355,20084 "/>
  <line fill="none" fill-opacity="0.501961" stroke="#6AFF60" stroke-width="354.22" stroke-opacity="0.501961" x1="28740" y1="15715" x2="29164" y2= "16878" />
  <line fill="none" fill-opacity="0.501961" stroke="#6AFF60" stroke-width="354.22" stroke-opacity="0.501961" x1="27576" y1="16139" x2="28000" y2= "17302" />
  <polyline fill="none" fill-opacity="0.501961" stroke="#6AFF60" stroke-width="354.22" stroke-opacity="0.501961" points="28000,17302 28197,17578 28390,17683 28586,17713 28753,17687 28923,17608 29055,17495 29133,17377 29181,17245 29203,17088 29186,16948 29164,16878 "/>
  <line fill="none" fill-opacity="0.501961" stroke="#6AFF60" stroke-width="354.22" stroke-opacity="0.501961" x1="37548" y1="12509" x2="37972" y2= "13672" />
  <line fill="none" fill-opacity="0.501961" stroke="#6AFF60" stroke-width="354.22" stroke-opacity="0.501961" x1="36385" y1="12933" x2="36809" y2= "14096" />
  <polyline fill="none" fill-opacity="0.501961" stroke="#6AFF60" stroke-width="354.22" stroke-opacity="0.501961" points="36809,14096 37010,14372 37203,14477 37395,14503 37561,14481 37732,14403 37863,14289 37942,14171 37990,14039 38012,13878 37994,13742 37972,13672 "/>
  <line fill="none" fill-opacity="0.501961" stroke="#6AFF60" stroke-width="354.22" stroke-opacity="0.501961" x1="46387" y1="9290" x2="46812" y2= "10458" />
  <line fill="none" fill-opacity="0.501961" stroke="#6AFF60" stroke-width="354.22" stroke-opacity="0.501961" x1="45224" y1="9714" x2="45648" y2= "10882" />
  <polyline fill="none" fill-opacity="0.501961" stroke="#6AFF60" stroke-width="354.22" stroke-opacity="0.501961" points="45648,10882 45845,11157 46038,11258 46234,11289 46401,11262 46571,11184 46702,11070 46781,10952 46829,10821 46851,10663 46834,10528 46812,10458 "/>
  <line fill="none" fill-opacity="0.501961" stroke="#6AFF60" stroke-width="354.22" stroke-opacity="0.501961" x1="55196" y1="6084" x2="55620" y2= "7247" />
  <line fill="none" fill-opacity="0.501961" stroke="#6AFF60" stroke-width="354.22" stroke-opacity="0.501961" x1="54033" y1="6508" x2="54457" y2= "7672" />
  <polyline fill="none" fill-opacity="0.501961" stroke="#6AFF60" stroke-width="354.22" stroke-opacity="0.501961" points="54457,7672 54658,7951 54851,8052 55043,8083 55209,8056 55380,7978 55511,7864 55590,7746 55642,7615 55660,7457 55642,7322 55620,7247 "/>
  <line fill="none" fill-opacity="0.501961" stroke="#6AFF60" stroke-width="354.22" stroke-opacity="0.501961" x1="64035" y1="2869" x2="64460" y2= "4033" />
  <line fill="none" fill-opacity="0.501961" stroke="#6AFF60" stroke-width="354.22" stroke-opacity="0.501961" x1="62872" y1="3293" x2="63296" y2= "4457" />
  <polyline fill="none" fill-opacity="0.501961" stroke="#6AFF60" stroke-width="354.22" stroke-opacity="0.501961" points="63296,4457 63493,4732 63685,4833 63882,4864 64048,4842 64219,4763 64350,4649 64429,4531 64477,4400 64499,4238 64481,4103 64460,4033 "/>
 </g>
</svg>
