<?xml version="1.0" encoding="UTF-8"?>
<!DOCTYPE svg PUBLIC "-//W3C//DTD SVG 1.0//EN" "http://www.w3.org/TR/2001/REC-SVG-20010904/DTD/svg10.dtd">
<!-- Creator: CorelDRAW X6 -->
<svg xmlns="http://www.w3.org/2000/svg" xml:space="preserve" width="53px" height="61px" version="1.0" shape-rendering="geometricPrecision" text-rendering="geometricPrecision" image-rendering="optimizeQuality" fill-rule="evenodd" clip-rule="evenodd"
viewBox="0 0 5300 6084"
 xmlns:xlink="http://www.w3.org/1999/xlink">
 <g id="_2010.cgm:type:overlay">
  <metadata id="CorelCorpID_0Corel-Layer"/>
  <IC_ColorNameTable/>
  <PictureProperties/>
  <polyline fill="none" fill-opacity="0.501961" stroke="#000001" stroke-width="234.016" stroke-linecap="round" stroke-linejoin="round" stroke-opacity="0.501961" points="2650,117 2041,1172 1480,1015 1336,1579 117,1579 726,2635 310,3042 726,3449 117,4504 1336,4504 1480,5069 2041,4911 2650,5967 3259,4911 3820,5069 3964,4504 5183,4504 4574,3449 4990,3042 4574,2635 5183,1579 3964,1579 3820,1015 3259,1172 2650,117 "/>
  <path fill="#000001" fill-opacity="0.501961" stroke="#000001" stroke-width="208.274" stroke-linecap="square" stroke-linejoin="round" stroke-opacity="0.501961" d="M3118 3042c0,-258 -209,-468 -468,-468 -258,0 -468,209 -468,468 0,258 209,468 468,468 258,0 468,-209 468,-468z"/>
 </g>
</svg>
