<?xml version="1.0" encoding="UTF-8"?>
<!DOCTYPE svg PUBLIC "-//W3C//DTD SVG 1.0//EN" "http://www.w3.org/TR/2001/REC-SVG-20010904/DTD/svg10.dtd">
<!-- Creator: CorelDRAW X6 -->
<svg xmlns="http://www.w3.org/2000/svg" xml:space="preserve" width="66px" height="66px" version="1.0" shape-rendering="geometricPrecision" text-rendering="geometricPrecision" image-rendering="optimizeQuality" fill-rule="evenodd" clip-rule="evenodd"
viewBox="0 0 6600 6600"
 xmlns:xlink="http://www.w3.org/1999/xlink">
 <g id="_2016.cgm:type:overlay">
  <metadata id="CorelCorpID_0Corel-Layer"/>
  <IC_ColorNameTable/>
  <PictureProperties/>
  <path fill="none" fill-opacity="0.501961" stroke="#000001" stroke-width="235.723" stroke-linecap="square" stroke-linejoin="round" stroke-opacity="0.501961" d="M6482 3300c0,-1757 -1425,-3182 -3182,-3182 -1757,0 -3182,1425 -3182,3182 0,1757 1425,3182 3182,3182 1757,0 3182,-1425 3182,-3182z"/>
  <path fill="none" fill-opacity="0.501961" stroke="#000001" stroke-width="235.723" stroke-linecap="square" stroke-linejoin="round" stroke-opacity="0.501961" d="M5422 3300c0,-1172 -950,-2122 -2122,-2122 -1172,0 -2122,950 -2122,2122 0,1172 950,2122 2122,2122 1172,0 2122,-950 2122,-2122z"/>
  <path fill="#000001" fill-opacity="0.501961" stroke="#000001" stroke-width="89.8104" stroke-linecap="square" stroke-linejoin="round" stroke-opacity="0.501961" d="M3771 3300c0,-260 -211,-471 -471,-471 -260,0 -471,211 -471,471 0,260 211,471 471,471 260,0 471,-211 471,-471z"/>
 </g>
</svg>
