<?xml version="1.0" encoding="UTF-8"?>
<!DOCTYPE svg PUBLIC "-//W3C//DTD SVG 1.0//EN" "http://www.w3.org/TR/2001/REC-SVG-20010904/DTD/svg10.dtd">
<!-- Creator: CorelDRAW X6 -->
<svg xmlns="http://www.w3.org/2000/svg" xml:space="preserve" width="61px" height="61px" version="1.0" shape-rendering="geometricPrecision" text-rendering="geometricPrecision" image-rendering="optimizeQuality" fill-rule="evenodd" clip-rule="evenodd"
viewBox="0 0 6100 6100"
 xmlns:xlink="http://www.w3.org/1999/xlink">
 <g id="_2038.cgm:type:overlay">
  <metadata id="CorelCorpID_0Corel-Layer"/>
  <IC_ColorNameTable/>
  <PictureProperties/>
  <path fill="none" fill-opacity="0.501961" stroke="#000001" stroke-width="234.859" stroke-linecap="square" stroke-linejoin="round" stroke-opacity="0.501961" d="M5983 3050c0,-1620 -1313,-2933 -2933,-2933 -1620,0 -2933,1313 -2933,2933 0,1620 1313,2933 2933,2933 1620,0 2933,-1313 2933,-2933z"/>
  <path fill="#000001" fill-opacity="0.501961" stroke="#000001" stroke-width="208.581" stroke-linecap="square" stroke-linejoin="round" stroke-opacity="0.501961" d="M3395 3050c0,-190 -154,-345 -345,-345 -190,0 -345,154 -345,345 0,190 154,345 345,345 190,0 345,-154 345,-345z"/>
  <line fill="none" fill-opacity="0.501961" stroke="#000001" stroke-width="234.859" stroke-linecap="round" stroke-linejoin="round" stroke-opacity="0.501961" x1="177" y1="2463" x2="5923" y2= "2463" />
  <line fill="none" fill-opacity="0.501961" stroke="#000001" stroke-width="234.859" stroke-linecap="round" stroke-linejoin="round" stroke-opacity="0.501961" x1="177" y1="3636" x2="5923" y2= "3636" />
 </g>
</svg>
