<?xml version="1.0" encoding="UTF-8"?>
<!DOCTYPE svg PUBLIC "-//W3C//DTD SVG 1.0//EN" "http://www.w3.org/TR/2001/REC-SVG-20010904/DTD/svg10.dtd">
<!-- Creator: CorelDRAW X6 -->
<svg xmlns="http://www.w3.org/2000/svg" xml:space="preserve" width="49px" height="54px" version="1.0" shape-rendering="geometricPrecision" text-rendering="geometricPrecision" image-rendering="optimizeQuality" fill-rule="evenodd" clip-rule="evenodd"
viewBox="0 0 4900 5390"
 xmlns:xlink="http://www.w3.org/1999/xlink">
 <g id="_2252.cgm:type:overlay">
  <metadata id="CorelCorpID_0Corel-Layer"/>
  <IC_ColorNameTable/>
  <PictureProperties/>
  <line fill="none" fill-opacity="0.501961" stroke="#9BC8A3" stroke-width="234.258" stroke-linecap="round" stroke-linejoin="round" stroke-opacity="0.501961" x1="992" y1="5273" x2="4503" y2= "5273" />
  <line fill="none" fill-opacity="0.501961" stroke="#9BC8A3" stroke-width="234.258" stroke-linecap="round" stroke-linejoin="round" stroke-opacity="0.501961" x1="2748" y1="5273" x2="2748" y2= "3518" />
  <polyline fill="none" fill-opacity="0.501961" stroke="#9BC8A3" stroke-width="234.258" stroke-linecap="round" stroke-linejoin="round" stroke-opacity="0.501961" points="2749,3518 2746,3366 2734,3154 2716,2942 2690,2731 2657,2521 2616,2312 2543,2008 "/>
  <polyline fill="none" fill-opacity="0.501961" stroke="#9BC8A3" stroke-width="234.258" stroke-linecap="round" stroke-linejoin="round" stroke-opacity="0.501961" points="2543,2009 2520,1950 2479,1855 2436,1761 2389,1669 2339,1578 2286,1490 2229,1403 2170,1318 2108,1236 2042,1155 1975,1077 1904,1002 1831,928 1756,858 1677,790 1597,725 1514,663 1430,603 1343,547 1254,494 1164,444 1072,397 978,353 883,313 786,275 688,242 589,212 490,185 389,161 287,142 117,117 "/>
  <path fill="none" fill-opacity="0.501961" stroke="#9BC8A3" stroke-width="234.258" stroke-linecap="round" stroke-linejoin="round" stroke-opacity="0.501961" d="M4740 329c-126,-28 -273,-49 -407,-49 -953,0 -1752,750 -1794,1703"/>
  <path fill="none" fill-opacity="0.501961" stroke="#9BC8A3" stroke-width="234.258" stroke-linecap="round" stroke-linejoin="round" stroke-opacity="0.501961" d="M2556 2010c-242,-102 -515,-156 -781,-156 -609,0 -1202,289 -1577,765"/>
  <path fill="none" fill-opacity="0.501961" stroke="#9BC8A3" stroke-width="234.258" stroke-linecap="round" stroke-linejoin="round" stroke-opacity="0.501961" d="M2547 2008c-4,0 -11,0 -14,0 -505,0 -916,412 -916,916 0,14 0,32 0,47"/>
  <path fill="none" fill-opacity="0.501961" stroke="#9BC8A3" stroke-width="234.258" stroke-linecap="round" stroke-linejoin="round" stroke-opacity="0.501961" d="M4786 3243c-175,-773 -874,-1332 -1675,-1332 -188,0 -383,34 -558,94"/>
 </g>
</svg>
