<?xml version="1.0" encoding="UTF-8"?>
<!DOCTYPE svg PUBLIC "-//W3C//DTD SVG 1.0//EN" "http://www.w3.org/TR/2001/REC-SVG-20010904/DTD/svg10.dtd">
<!-- Creator: CorelDRAW X6 -->
<svg xmlns="http://www.w3.org/2000/svg" xml:space="preserve" width="61px" height="61px" version="1.0" shape-rendering="geometricPrecision" text-rendering="geometricPrecision" image-rendering="optimizeQuality" fill-rule="evenodd" clip-rule="evenodd"
viewBox="0 0 6100 6101"
 xmlns:xlink="http://www.w3.org/1999/xlink">
 <g id="_2281.cgm:type:overlay">
  <metadata id="CorelCorpID_0Corel-Layer"/>
  <IC_ColorNameTable/>
  <PictureProperties/>
  <path fill="none" fill-opacity="0.501961" stroke="#969F99" stroke-width="209.877" stroke-linecap="round" stroke-linejoin="round" stroke-opacity="0.501961" d="M4476 470c-426,-230 -933,-369 -1429,-369 -1625,0 -2949,1325 -2949,2949 0,472 127,968 346,1382"/>
  <path fill="none" fill-opacity="0.501961" stroke="#969F99" stroke-width="209.877" stroke-linecap="round" stroke-linejoin="round" stroke-opacity="0.501961" d="M1619 5631c426,230 933,369 1429,369 1624,0 2949,-1325 2949,-2949 0,-472 -127,-968 -346,-1383"/>
  <line fill="none" fill-opacity="0.501961" stroke="#969F99" stroke-width="209.877" stroke-linecap="round" stroke-linejoin="round" stroke-opacity="0.501961" x1="4458" y1="460" x2="457" y2= "4461" />
  <line fill="none" fill-opacity="0.501961" stroke="#969F99" stroke-width="209.877" stroke-linecap="round" stroke-linejoin="round" stroke-opacity="0.501961" x1="5637" y1="1640" x2="1637" y2= "5641" />
  <polygon fill="#969F99" fill-opacity="0.501961" points="457,4461 4458,460 3824,205 3207,105 2427,167 1612,474 1012,915 500,1564 210,2244 105,2844 119,3403 253,3994 "/>
  <polygon fill="#969F99" fill-opacity="0.501961" points="1637,5641 5637,1640 5813,2026 5926,2412 5995,2965 5939,3630 5771,4182 5474,4726 5025,5238 4580,5570 3934,5863 3305,5988 2796,5989 2338,5913 1912,5773 "/>
 </g>
</svg>
