<?xml version="1.0" encoding="UTF-8"?>
<!DOCTYPE svg PUBLIC "-//W3C//DTD SVG 1.0//EN" "http://www.w3.org/TR/2001/REC-SVG-20010904/DTD/svg10.dtd">
<!-- Creator: CorelDRAW X6 -->
<svg xmlns="http://www.w3.org/2000/svg" xml:space="preserve" width="2813px" height="1044px" version="1.0" shape-rendering="geometricPrecision" text-rendering="geometricPrecision" image-rendering="optimizeQuality" fill-rule="evenodd" clip-rule="evenodd"
viewBox="0 0 281300 104364"
 xmlns:xlink="http://www.w3.org/1999/xlink">
 <g id="_3074.cgm:type:overlay">
  <metadata id="CorelCorpID_0Corel-Layer"/>
  <IC_ColorNameTable/>
  <PictureProperties/>
  <line fill="none" fill-opacity="0.501961" stroke="#A100FF" stroke-width="708.8" stroke-opacity="0.501961" x1="882" y1="102289" x2="280954" y2= "346" />
  <path fill="#A100FF" fill-opacity="0.501961" d="M3094 103171c-162,-458 -665,-690 -1124,-519 -458,172 -698,683 -536,1141 162,458 665,690 1124,519 458,-172 698,-683 536,-1141z"/>
  <path fill="#A100FF" fill-opacity="0.501961" d="M1729 100284c-172,-468 -683,-708 -1141,-536 -458,172 -690,690 -519,1158 172,468 683,708 1141,536 458,-172 690,-690 519,-1158z"/>
  <path fill="#A100FF" fill-opacity="0.501961" d="M38067 90447c-162,-458 -665,-690 -1124,-519 -458,172 -698,683 -536,1141 162,458 665,690 1124,519 458,-172 698,-683 536,-1141z"/>
  <path fill="#A100FF" fill-opacity="0.501961" d="M36701 87560c-172,-458 -683,-698 -1141,-536 -458,162 -690,665 -519,1123 172,458 683,698 1141,536 458,-162 690,-665 519,-1123z"/>
  <path fill="#A100FF" fill-opacity="0.501961" d="M73333 77620c-162,-458 -673,-698 -1141,-536 -468,162 -716,665 -553,1124 162,458 673,698 1141,536 468,-162 716,-665 553,-1124z"/>
  <path fill="#A100FF" fill-opacity="0.501961" d="M71673 74820c-162,-458 -665,-690 -1124,-519 -458,172 -698,682 -536,1141 162,458 665,690 1123,519 458,-172 698,-683 536,-1141z"/>
  <path fill="#A100FF" fill-opacity="0.501961" d="M108029 64983c-162,-458 -673,-690 -1141,-519 -468,172 -716,682 -553,1141 162,458 673,690 1141,519 468,-172 716,-683 553,-1141z"/>
  <path fill="#A100FF" fill-opacity="0.501961" d="M106646 62096c-162,-458 -665,-698 -1124,-536 -458,162 -698,665 -536,1123 162,458 665,698 1124,536 458,-162 698,-665 536,-1123z"/>
  <path fill="#A100FF" fill-opacity="0.501961" d="M143001 52260c-172,-468 -683,-708 -1141,-536 -458,172 -690,690 -518,1158 172,468 683,708 1141,536 458,-172 690,-690 519,-1158z"/>
  <path fill="#A100FF" fill-opacity="0.501961" d="M141618 49373c-162,-458 -665,-698 -1123,-536 -458,162 -698,665 -536,1124 162,458 665,698 1123,536 458,-162 698,-665 536,-1124z"/>
  <path fill="#A100FF" fill-opacity="0.501961" d="M178250 39432c-172,-458 -683,-698 -1141,-536 -458,162 -691,665 -519,1124 172,458 683,698 1141,536 458,-162 690,-665 519,-1123z"/>
  <path fill="#A100FF" fill-opacity="0.501961" d="M176884 36528c-162,-458 -673,-690 -1141,-519 -468,172 -715,683 -553,1141 162,458 673,690 1141,519 468,-172 716,-683 553,-1141z"/>
  <path fill="#A100FF" fill-opacity="0.501961" d="M213222 26709c-172,-458 -683,-698 -1141,-536 -458,162 -691,665 -519,1124 172,458 683,698 1141,536 458,-162 691,-665 519,-1124z"/>
  <path fill="#A100FF" fill-opacity="0.501961" d="M211857 23805c-172,-468 -683,-708 -1141,-536 -458,172 -690,690 -518,1158 172,468 683,708 1141,536 458,-172 690,-690 519,-1158z"/>
  <path fill="#A100FF" fill-opacity="0.501961" d="M248195 13968c-172,-458 -683,-690 -1141,-519 -458,172 -690,683 -519,1141 172,458 683,690 1141,519 458,-172 690,-683 519,-1141z"/>
  <path fill="#A100FF" fill-opacity="0.501961" d="M246829 11081c-172,-458 -683,-698 -1141,-536 -458,162 -690,665 -519,1123 172,458 683,698 1141,536 458,-162 690,-665 519,-1123z"/>
 </g>
</svg>
