<?xml version="1.0" encoding="UTF-8"?>
<!DOCTYPE svg PUBLIC "-//W3C//DTD SVG 1.0//EN" "http://www.w3.org/TR/2001/REC-SVG-20010904/DTD/svg10.dtd">
<!-- Creator: CorelDRAW X6 -->
<svg xmlns="http://www.w3.org/2000/svg" xml:space="preserve" width="1549px" height="574px" version="1.0" shape-rendering="geometricPrecision" text-rendering="geometricPrecision" image-rendering="optimizeQuality" fill-rule="evenodd" clip-rule="evenodd"
viewBox="0 0 154900 57426"
 xmlns:xlink="http://www.w3.org/1999/xlink">
 <g id="_5001.cgm:type:overlay">
  <metadata id="CorelCorpID_0Corel-Layer"/>
  <IC_ColorNameTable/>
  <PictureProperties/>
  <line fill="none" fill-opacity="0.501961" stroke="#DE4BC9" stroke-width="885.477" stroke-opacity="0.501961" x1="448" y1="56978" x2="4037" y2= "55674" />
  <line fill="none" fill-opacity="0.501961" stroke="#DE4BC9" stroke-width="885.477" stroke-opacity="0.501961" x1="6227" y1="54874" x2="9817" y2= "53569" />
  <polygon fill="#DE4BC9" fill-opacity="0.501961" points="12359,54245 12283,54036 12188,53674 12169,53246 12255,52836 12397,52493 12578,52093 12712,51751 12750,51551 12750,51370 12664,51018 12578,50827 12474,50694 12340,50570 12169,50484 11978,50427 11788,50418 11407,50522 11188,50627 11045,50732 10921,50894 10826,51084 10779,51256 10769,51456 10817,51817 10893,52093 10217,52341 10103,52008 10046,51703 10026,51417 10084,51065 10198,50741 10388,50456 10645,50208 10912,50037 11274,49875 11655,49780 11969,49742 12312,49780 12616,49875 12893,50046 13131,50275 13292,50513 13416,50808 13492,51132 13502,51417 13473,51655 13388,51932 13283,52198 13073,52617 12940,52912 12864,53217 12873,53522 12959,53788 13035,54007 "/>
  <polygon fill="#DE4BC9" fill-opacity="0.501961" points="12883,55750 12578,54921 13340,54645 13635,55474 "/>
  <line fill="none" fill-opacity="0.501961" stroke="#DE4BC9" stroke-width="885.477" stroke-opacity="0.501961" x1="14349" y1="51922" x2="17787" y2= "50665" />
  <line fill="none" fill-opacity="0.501961" stroke="#DE4BC9" stroke-width="885.477" stroke-opacity="0.501961" x1="20129" y1="49818" x2="23566" y2= "48561" />
  <line fill="none" fill-opacity="0.501961" stroke="#DE4BC9" stroke-width="885.477" stroke-opacity="0.501961" x1="25756" y1="47771" x2="29346" y2= "46457" />
  <polygon fill="#DE4BC9" fill-opacity="0.501961" points="31889,47142 31803,46933 31717,46571 31689,46142 31774,45733 31917,45390 32107,44990 32231,44647 32269,44438 32279,44257 32193,43905 32098,43724 32003,43581 31860,43467 31698,43372 31508,43324 31317,43314 30936,43410 30717,43524 30574,43629 30441,43781 30346,43971 30308,44152 30289,44343 30336,44714 30413,44981 29746,45228 29632,44905 29565,44600 29556,44314 29603,43952 29727,43629 29917,43352 30165,43105 30441,42934 30803,42772 31184,42667 31498,42638 31831,42667 32146,42772 32422,42934 32660,43162 32822,43410 32945,43705 33022,44019 33031,44314 32993,44543 32917,44828 32803,45095 32603,45504 32460,45809 32384,46114 32403,46409 32488,46685 32564,46895 "/>
  <polygon fill="#DE4BC9" fill-opacity="0.501961" points="32412,48637 32107,47809 32860,47533 33164,48361 "/>
  <line fill="none" fill-opacity="0.501961" stroke="#DE4BC9" stroke-width="885.477" stroke-opacity="0.501961" x1="33878" y1="44809" x2="37306" y2= "43562" />
  <line fill="none" fill-opacity="0.501961" stroke="#DE4BC9" stroke-width="885.477" stroke-opacity="0.501961" x1="39496" y1="42762" x2="43086" y2= "41458" />
  <line fill="none" fill-opacity="0.501961" stroke="#DE4BC9" stroke-width="885.477" stroke-opacity="0.501961" x1="45276" y1="40658" x2="48866" y2= "39353" />
  <polygon fill="#DE4BC9" fill-opacity="0.501961" points="51408,40039 51332,39820 51237,39468 51218,39030 51303,38620 51446,38277 51627,37877 51760,37535 51798,37335 51798,37154 51722,36802 51627,36611 51522,36478 51389,36354 51218,36268 51037,36221 50837,36211 50456,36306 50246,36411 50104,36525 49970,36678 49875,36868 49827,37040 49818,37240 49866,37601 49942,37877 49266,38125 49151,37792 49094,37497 49075,37211 49132,36849 49256,36525 49437,36240 49694,36002 49961,35821 50332,35668 50703,35564 51018,35535 51360,35564 51665,35659 51941,35830 52179,36059 52341,36297 52475,36602 52541,36916 52560,37201 52522,37439 52436,37725 52332,37982 52122,38401 51989,38706 51913,39011 51932,39306 52008,39582 52084,39791 "/>
  <polygon fill="#DE4BC9" fill-opacity="0.501961" points="51932,41534 51627,40705 52389,40429 52693,41258 "/>
  <line fill="none" fill-opacity="0.501961" stroke="#DE4BC9" stroke-width="885.477" stroke-opacity="0.501961" x1="53398" y1="37706" x2="56836" y2= "36459" />
  <line fill="none" fill-opacity="0.501961" stroke="#DE4BC9" stroke-width="885.477" stroke-opacity="0.501961" x1="59178" y1="35602" x2="62615" y2= "34354" />
  <line fill="none" fill-opacity="0.501961" stroke="#DE4BC9" stroke-width="885.477" stroke-opacity="0.501961" x1="64805" y1="33555" x2="68395" y2= "32250" />
  <polygon fill="#DE4BC9" fill-opacity="0.501961" points="70937,32926 70852,32717 70766,32355 70737,31926 70832,31517 70966,31174 71156,30774 71280,30431 71318,30232 71328,30051 71242,29698 71147,29508 71051,29375 70909,29251 70747,29165 70556,29108 70366,29098 69985,29203 69766,29308 69623,29413 69490,29574 69404,29765 69357,29936 69338,30136 69385,30498 69461,30774 68795,31012 68681,30689 68614,30384 68604,30098 68652,29746 68776,29422 68966,29137 69214,28889 69490,28718 69852,28556 70233,28461 70547,28423 70890,28461 71194,28556 71470,28718 71709,28956 71870,29194 71994,29489 72070,29813 72080,30098 72051,30336 71966,30612 71861,30879 71651,31298 71509,31593 71432,31898 71451,32203 71537,32469 71613,32688 "/>
  <polygon fill="#DE4BC9" fill-opacity="0.501961" points="71461,34431 71156,33602 71908,33326 72213,34154 "/>
  <line fill="none" fill-opacity="0.501961" stroke="#DE4BC9" stroke-width="885.477" stroke-opacity="0.501961" x1="72927" y1="30603" x2="76365" y2= "29346" />
  <line fill="none" fill-opacity="0.501961" stroke="#DE4BC9" stroke-width="885.477" stroke-opacity="0.501961" x1="78707" y1="28499" x2="82144" y2= "27242" />
  <line fill="none" fill-opacity="0.501961" stroke="#DE4BC9" stroke-width="885.477" stroke-opacity="0.501961" x1="84325" y1="26452" x2="87924" y2= "25138" />
  <polygon fill="#DE4BC9" fill-opacity="0.501961" points="90466,25823 90381,25614 90295,25252 90266,24823 90352,24414 90495,24071 90685,23671 90809,23328 90847,23119 90847,22938 90771,22586 90676,22405 90580,22262 90438,22148 90266,22052 90085,22005 89885,21995 89505,22091 89295,22205 89152,22309 89019,22462 88924,22652 88876,22833 88867,23024 88914,23395 88990,23662 88314,23909 88200,23585 88143,23281 88124,22995 88181,22633 88305,22309 88486,22033 88743,21786 89009,21614 89381,21453 89752,21348 90066,21319 90409,21348 90714,21453 90999,21614 91238,21843 91390,22091 91523,22386 91590,22700 91609,22995 91571,23224 91495,23509 91380,23776 91171,24185 91038,24490 90961,24795 90980,25090 91057,25366 91133,25575 "/>
  <polygon fill="#DE4BC9" fill-opacity="0.501961" points="90980,27318 90685,26490 91437,26213 91742,27042 "/>
  <line fill="none" fill-opacity="0.501961" stroke="#DE4BC9" stroke-width="885.477" stroke-opacity="0.501961" x1="92447" y1="23490" x2="95884" y2= "22243" />
  <line fill="none" fill-opacity="0.501961" stroke="#DE4BC9" stroke-width="885.477" stroke-opacity="0.501961" x1="98227" y1="21386" x2="101664" y2= "20139" />
  <line fill="none" fill-opacity="0.501961" stroke="#DE4BC9" stroke-width="885.477" stroke-opacity="0.501961" x1="103854" y1="19339" x2="107444" y2= "18034" />
  <polygon fill="#DE4BC9" fill-opacity="0.501961" points="109986,18720 109900,18501 109814,18149 109795,17710 109881,17301 110014,16958 110205,16558 110329,16216 110376,16016 110376,15835 110291,15482 110205,15292 110100,15159 109957,15035 109795,14949 109605,14902 109415,14892 109034,14987 108815,15092 108672,15206 108548,15359 108453,15549 108405,15720 108386,15920 108434,16282 108510,16558 107843,16806 107729,16473 107663,16178 107653,15892 107701,15530 107824,15206 108015,14921 108262,14683 108539,14502 108900,14349 109281,14245 109595,14216 109938,14245 110243,14340 110519,14511 110757,14740 110919,14978 111043,15282 111119,15597 111128,15882 111100,16120 111014,16406 110910,16663 110700,17082 110567,17387 110481,17691 110500,17987 110586,18263 110662,18472 "/>
  <polygon fill="#DE4BC9" fill-opacity="0.501961" points="110510,20215 110205,19386 110967,19110 111262,19939 "/>
  <line fill="none" fill-opacity="0.501961" stroke="#DE4BC9" stroke-width="885.477" stroke-opacity="0.501961" x1="111976" y1="16387" x2="115413" y2= "15140" />
  <line fill="none" fill-opacity="0.501961" stroke="#DE4BC9" stroke-width="885.477" stroke-opacity="0.501961" x1="117756" y1="14283" x2="121193" y2= "13035" />
  <line fill="none" fill-opacity="0.501961" stroke="#DE4BC9" stroke-width="885.477" stroke-opacity="0.501961" x1="123374" y1="12235" x2="126973" y2= "10931" />
  <polygon fill="#DE4BC9" fill-opacity="0.501961" points="129515,11607 129429,11398 129344,11036 129315,10607 129401,10198 129544,9855 129734,9455 129858,9112 129896,8912 129905,8731 129820,8370 129724,8189 129629,8055 129486,7932 129315,7846 129134,7789 128934,7779 128553,7884 128344,7989 128201,8094 128068,8255 127973,8446 127934,8617 127915,8808 127963,9179 128039,9455 127363,9693 127249,9369 127192,9065 127173,8779 127230,8427 127354,8103 127534,7817 127792,7570 128058,7398 128429,7237 128801,7141 129115,7103 129458,7141 129763,7237 130048,7398 130286,7636 130448,7875 130572,8170 130638,8493 130658,8779 130619,9017 130543,9293 130429,9560 130220,9979 130086,10274 130010,10579 130029,10883 130115,11150 130191,11369 "/>
  <polygon fill="#DE4BC9" fill-opacity="0.501961" points="130029,13111 129734,12283 130486,12007 130791,12835 "/>
  <line fill="none" fill-opacity="0.501961" stroke="#DE4BC9" stroke-width="885.477" stroke-opacity="0.501961" x1="131496" y1="9284" x2="134933" y2= "8027" />
  <line fill="none" fill-opacity="0.501961" stroke="#DE4BC9" stroke-width="885.477" stroke-opacity="0.501961" x1="137275" y1="7179" x2="140713" y2= "5923" />
  <line fill="none" fill-opacity="0.501961" stroke="#DE4BC9" stroke-width="885.477" stroke-opacity="0.501961" x1="142903" y1="5132" x2="146492" y2= "3818" />
  <polygon fill="#DE4BC9" fill-opacity="0.501961" points="149035,4504 148958,4294 148863,3933 148844,3504 148930,3095 149063,2752 149254,2352 149387,2009 149425,1800 149425,1619 149339,1266 149254,1076 149149,943 149016,828 148844,733 148654,686 148463,676 148082,771 147863,886 147721,990 147597,1143 147502,1333 147454,1514 147435,1704 147492,2076 147559,2342 146892,2590 146778,2266 146711,1961 146702,1676 146749,1314 146873,990 147064,714 147321,467 147587,295 147949,133 148330,29 148644,0 148987,29 149292,133 149568,295 149806,524 149968,771 150091,1066 150168,1381 150177,1676 150149,1904 150063,2190 149958,2457 149749,2866 149615,3171 149539,3475 149549,3771 149635,4047 149711,4256 "/>
  <polygon fill="#DE4BC9" fill-opacity="0.501961" points="149558,5999 149254,5170 150015,4894 150311,5723 "/>
  <line fill="none" fill-opacity="0.501961" stroke="#DE4BC9" stroke-width="885.477" stroke-opacity="0.501961" x1="151025" y1="2171" x2="154462" y2= "924" />
 </g>
</svg>
