<?xml version="1.0" encoding="UTF-8"?>
<!DOCTYPE svg PUBLIC "-//W3C//DTD SVG 1.0//EN" "http://www.w3.org/TR/2001/REC-SVG-20010904/DTD/svg10.dtd">
<!-- Creator: CorelDRAW X6 -->
<svg xmlns="http://www.w3.org/2000/svg" xml:space="preserve" width="80px" height="54px" version="1.0" shape-rendering="geometricPrecision" text-rendering="geometricPrecision" image-rendering="optimizeQuality" fill-rule="evenodd" clip-rule="evenodd"
viewBox="0 0 8000 5392"
 xmlns:xlink="http://www.w3.org/1999/xlink">
 <g id="_5027.cgm:type:overlay">
  <metadata id="CorelCorpID_0Corel-Layer"/>
  <IC_ColorNameTable/>
  <PictureProperties/>
  <polygon fill="#DE4BCB" fill-opacity="0.501961" points="4192,4098 3231,105 3663,105 4240,2749 4385,3536 4577,2805 5298,105 5827,105 6356,2074 6549,2805 6693,3536 6885,2749 7462,105 7895,105 6933,4098 6500,4098 5683,1005 5539,612 5443,1118 4673,4098 "/>
  <polygon fill="#DE4BCB" fill-opacity="0.501961" points="105,4098 105,105 1307,105 1644,105 1884,162 2173,274 2413,443 2653,780 2798,1118 2894,1568 2942,2074 2942,2524 2846,2861 2750,3199 2606,3480 2461,3649 2317,3817 2125,3930 1884,4042 1644,4098 1355,4098 105,4098 538,3649 1307,3649 1596,3649 1836,3592 2028,3480 2173,3367 2317,3142 2413,2861 2509,2524 2509,2074 2509,1793 2461,1511 2413,1286 2317,1118 2221,949 2125,836 2028,724 1884,612 1644,555 1259,555 538,555 538,3649 "/>
  <polygon fill="#DE4BCB" fill-opacity="0.501961" points="400,4887 400,5286 6886,5286 6886,4887 "/>
 </g>
</svg>
