<?xml version="1.0" encoding="UTF-8"?>
<!DOCTYPE svg PUBLIC "-//W3C//DTD SVG 1.0//EN" "http://www.w3.org/TR/2001/REC-SVG-20010904/DTD/svg10.dtd">
<!-- Creator: CorelDRAW X6 -->
<svg xmlns="http://www.w3.org/2000/svg" xml:space="preserve" width="33px" height="56px" version="1.0" shape-rendering="geometricPrecision" text-rendering="geometricPrecision" image-rendering="optimizeQuality" fill-rule="evenodd" clip-rule="evenodd"
viewBox="0 0 3300 5630"
 xmlns:xlink="http://www.w3.org/1999/xlink">
 <g id="_5042.cgm:type:overlay">
  <metadata id="CorelCorpID_0Corel-Layer"/>
  <IC_ColorNameTable/>
  <PictureProperties/>
  <polygon fill="#969F99" fill-opacity="0.501961" points="1344,4216 1344,4012 1344,3842 1359,3656 1390,3503 1436,3350 1482,3248 1528,3146 1589,3044 1665,2942 1833,2738 2093,2484 2231,2331 2353,2212 2430,2093 2490,2008 2536,1906 2552,1821 2582,1719 2582,1617 2582,1516 2567,1431 2552,1346 2521,1261 2475,1176 2430,1091 2384,1006 2323,938 2246,870 2170,819 2093,769 2017,717 1940,684 1848,666 1757,649 1665,649 1482,666 1329,717 1176,802 1039,921 978,989 932,1057 886,1159 840,1244 794,1363 764,1482 733,1601 718,1737 106,1652 137,1465 168,1295 213,1142 275,989 336,854 412,717 489,616 596,497 703,412 810,327 932,259 1054,208 1192,157 1344,123 1497,106 1650,106 1833,106 1986,140 2139,174 2292,208 2430,276 2552,344 2674,429 2781,531 2873,649 2964,751 3025,870 3087,1006 3132,1142 3163,1278 3194,1414 3194,1567 3178,1737 3163,1906 3117,2059 3041,2212 2949,2365 2827,2534 2659,2722 2475,2925 2231,3180 2093,3350 2017,3485 1956,3656 1925,3876 1910,4216 1344,4216 1238,5524 1238,4776 1910,4776 1910,5524 1238,5524 "/>
 </g>
</svg>
