<?xml version="1.0" encoding="UTF-8"?>
<!DOCTYPE svg PUBLIC "-//W3C//DTD SVG 1.0//EN" "http://www.w3.org/TR/2001/REC-SVG-20010904/DTD/svg10.dtd">
<!-- Creator: CorelDRAW X6 -->
<svg xmlns="http://www.w3.org/2000/svg" xml:space="preserve" width="59px" height="59px" version="1.0" shape-rendering="geometricPrecision" text-rendering="geometricPrecision" image-rendering="optimizeQuality" fill-rule="evenodd" clip-rule="evenodd"
viewBox="0 0 5900 5900"
 xmlns:xlink="http://www.w3.org/1999/xlink">
 <g id="_6018.cgm:type:overlay">
  <metadata id="CorelCorpID_0Corel-Layer"/>
  <IC_ColorNameTable/>
  <PictureProperties/>
  <polygon fill="black" fill-opacity="0.501961" points="176,5724 1538,5724 1538,5020 880,5020 880,4362 176,4362 "/>
  <polygon fill="black" fill-opacity="0.501961" points="5724,176 4362,176 4362,880 5020,880 5020,1538 5724,1538 "/>
  <polygon fill="black" fill-opacity="0.501961" points="176,176 1538,176 1538,880 880,880 880,1538 176,1538 "/>
  <polygon fill="black" fill-opacity="0.501961" points="5724,5724 4362,5724 4362,5020 5020,5020 5020,4362 5724,4362 "/>
  <polygon fill="black" fill-opacity="0.501961" points="1900,1376 2604,1376 2604,3848 4016,3848 4016,4552 1900,4552 "/>
 </g>
</svg>
