<?xml version="1.0" encoding="UTF-8"?>
<!DOCTYPE svg PUBLIC "-//W3C//DTD SVG 1.0//EN" "http://www.w3.org/TR/2001/REC-SVG-20010904/DTD/svg10.dtd">
<!-- Creator: CorelDRAW X6 -->
<svg xmlns="http://www.w3.org/2000/svg" xml:space="preserve" width="35px" height="59px" version="1.0" shape-rendering="geometricPrecision" text-rendering="geometricPrecision" image-rendering="optimizeQuality" fill-rule="evenodd" clip-rule="evenodd"
viewBox="0 0 3500 5933"
 xmlns:xlink="http://www.w3.org/1999/xlink">
 <g id="_6019.cgm:type:overlay">
  <metadata id="CorelCorpID_0Corel-Layer"/>
  <IC_ColorNameTable/>
  <PictureProperties/>
  <polyline fill="none" fill-opacity="0.501961" stroke="#000001" stroke-width="236.605" stroke-linecap="round" stroke-linejoin="round" stroke-opacity="0.501961" points="1750,118 1965,1095 2179,1964 2265,2282 2394,2726 2609,3380 2824,3927 3038,4367 3253,4700 3339,4802 3382,4848 "/>
  <polyline fill="none" fill-opacity="0.501961" stroke="#000001" stroke-width="236.605" stroke-linecap="round" stroke-linejoin="round" stroke-opacity="0.501961" points="1750,118 1535,1095 1321,1964 1235,2282 1106,2726 891,3380 676,3927 462,4367 247,4700 161,4802 118,4848 3382,4848 "/>
  <line fill="none" fill-opacity="0.501961" stroke="#000001" stroke-width="236.605" stroke-linecap="round" stroke-linejoin="round" stroke-opacity="0.501961" x1="1235" y1="2282" x2="3382" y2= "4848" />
  <line fill="none" fill-opacity="0.501961" stroke="#000001" stroke-width="236.605" stroke-linecap="round" stroke-linejoin="round" stroke-opacity="0.501961" x1="118" y1="4848" x2="2265" y2= "2282" />
  <path fill="#000001" fill-opacity="0.501961" stroke="#000001" stroke-width="236.605" stroke-linecap="square" stroke-linejoin="round" stroke-opacity="0.501961" d="M2072 5492c0,-178 -144,-322 -322,-322 -178,0 -322,144 -322,322 0,178 144,322 322,322 178,0 322,-144 322,-322z"/>
 </g>
</svg>
