<?xml version="1.0" encoding="UTF-8"?>
<!DOCTYPE svg PUBLIC "-//W3C//DTD SVG 1.0//EN" "http://www.w3.org/TR/2001/REC-SVG-20010904/DTD/svg10.dtd">
<!-- Creator: CorelDRAW X6 -->
<svg xmlns="http://www.w3.org/2000/svg" xml:space="preserve" width="57px" height="98px" version="1.0" shape-rendering="geometricPrecision" text-rendering="geometricPrecision" image-rendering="optimizeQuality" fill-rule="evenodd" clip-rule="evenodd"
viewBox="0 0 5700 9884"
 xmlns:xlink="http://www.w3.org/1999/xlink">
 <g id="_7006.cgm:type:overlay">
  <metadata id="CorelCorpID_0Corel-Layer"/>
  <IC_ColorNameTable/>
  <PictureProperties/>
  <polygon fill="red" fill-opacity="0.501961" stroke="white" stroke-width="357.307" stroke-linecap="square" stroke-linejoin="round" stroke-opacity="0.501961" points="179,8779 5521,8779 5521,4597 4634,4597 4634,179 3737,179 3737,4597 2850,4597 2850,179 1953,179 1953,4597 179,4597 "/>
  <path fill="red" fill-opacity="0.501961" stroke="white" stroke-width="357.307" stroke-linecap="square" stroke-linejoin="round" stroke-opacity="0.501961" d="M3776 8779c0,-511 -415,-926 -926,-926 -511,0 -926,415 -926,926 0,511 415,926 926,926 511,0 926,-415 926,-926z"/>
  <path fill="none" fill-opacity="0.501961" stroke="white" stroke-width="433.388" stroke-linecap="round" stroke-linejoin="round" stroke-opacity="0.501961" d="M5016 8779c0,-1705 -973,-3096 -2166,-3096 -1193,0 -2166,1391 -2166,3096"/>
 </g>
</svg>
