<?xml version="1.0" encoding="UTF-8"?>
<!DOCTYPE svg PUBLIC "-//W3C//DTD SVG 1.0//EN" "http://www.w3.org/TR/2001/REC-SVG-20010904/DTD/svg10.dtd">
<!-- Creator: CorelDRAW X6 -->
<svg xmlns="http://www.w3.org/2000/svg" xml:space="preserve" width="57px" height="98px" version="1.0" shape-rendering="geometricPrecision" text-rendering="geometricPrecision" image-rendering="optimizeQuality" fill-rule="evenodd" clip-rule="evenodd"
viewBox="0 0 5700 9798"
 xmlns:xlink="http://www.w3.org/1999/xlink">
 <g id="_7008.cgm:type:overlay">
  <metadata id="CorelCorpID_0Corel-Layer"/>
  <IC_ColorNameTable/>
  <PictureProperties/>
  <polygon fill="red" fill-opacity="0.501961" stroke="white" stroke-width="354.775" stroke-linecap="square" stroke-linejoin="round" stroke-opacity="0.501961" points="202,8703 5498,8703 5498,4557 4618,4557 4618,177 3730,177 3730,4557 2850,4557 2850,177 1961,177 1961,4557 202,4557 "/>
  <path fill="red" fill-opacity="0.501961" stroke="white" stroke-width="354.775" stroke-linecap="square" stroke-linejoin="round" stroke-opacity="0.501961" d="M3768 8703c0,-507 -411,-918 -918,-918 -507,0 -918,411 -918,918 0,507 411,918 918,918 507,0 918,-411 918,-918z"/>
  <line fill="none" fill-opacity="0.501961" stroke="white" stroke-width="403.754" stroke-linecap="round" stroke-linejoin="round" stroke-opacity="0.501961" x1="202" y1="6683" x2="5498" y2= "6683" />
  <line fill="none" fill-opacity="0.501961" stroke="white" stroke-width="403.754" stroke-linecap="round" stroke-linejoin="round" stroke-opacity="0.501961" x1="202" y1="5875" x2="5498" y2= "5875" />
 </g>
</svg>
