<?xml version="1.0" encoding="UTF-8"?>
<!DOCTYPE svg PUBLIC "-//W3C//DTD SVG 1.0//EN" "http://www.w3.org/TR/2001/REC-SVG-20010904/DTD/svg10.dtd">
<!-- Creator: CorelDRAW X6 -->
<svg xmlns="http://www.w3.org/2000/svg" xml:space="preserve" width="57px" height="98px" version="1.0" shape-rendering="geometricPrecision" text-rendering="geometricPrecision" image-rendering="optimizeQuality" fill-rule="evenodd" clip-rule="evenodd"
viewBox="0 0 5700 9882"
 xmlns:xlink="http://www.w3.org/1999/xlink">
 <g id="_7010.cgm:type:overlay">
  <metadata id="CorelCorpID_0Corel-Layer"/>
  <IC_ColorNameTable/>
  <PictureProperties/>
  <polygon fill="red" fill-opacity="0.501961" stroke="white" stroke-width="357.783" stroke-linecap="square" stroke-linejoin="round" stroke-opacity="0.501961" points="462,8777 741,8224 1059,7507 1312,6775 1564,5992 1764,5247 1910,4503 2096,3428 2203,2712 2283,1851 2361,974 2402,179 3298,179 3339,974 3417,1851 3497,2712 3604,3428 3790,4503 3936,5247 4136,5992 4388,6775 4641,7507 4959,8224 5238,8777 "/>
  <path fill="red" fill-opacity="0.501961" stroke="white" stroke-width="357.783" stroke-linecap="square" stroke-linejoin="round" stroke-opacity="0.501961" d="M3776 8777c0,-511 -414,-926 -926,-926 -511,0 -926,414 -926,926 0,511 414,926 926,926 511,0 926,-414 926,-926z"/>
  <path fill="red" fill-opacity="0.501961" stroke="white" stroke-width="357.783" stroke-linecap="square" stroke-linejoin="round" stroke-opacity="0.501961" d="M5521 3702c0,-1475 -1196,-2671 -2671,-2671 -1475,0 -2671,1196 -2671,2671 0,1475 1196,2671 2671,2671 1475,0 2671,-1196 2671,-2671z"/>
  <polyline fill="none" fill-opacity="0.501961" stroke="white" stroke-width="357.783" stroke-linecap="round" stroke-linejoin="round" stroke-opacity="0.501961" points="2850,1030 1637,4181 2888,4181 2003,6235 "/>
  <polyline fill="none" fill-opacity="0.501961" stroke="white" stroke-width="357.783" stroke-linecap="round" stroke-linejoin="round" stroke-opacity="0.501961" points="2850,1030 1637,4181 2888,4181 2003,6235 "/>
  <polyline fill="none" fill-opacity="0.501961" stroke="white" stroke-width="357.783" stroke-linecap="round" stroke-linejoin="round" stroke-opacity="0.501961" points="3732,1180 2914,3307 4166,3307 2844,6373 "/>
 </g>
</svg>
