<?xml version="1.0" encoding="UTF-8"?>
<!DOCTYPE svg PUBLIC "-//W3C//DTD SVG 1.0//EN" "http://www.w3.org/TR/2001/REC-SVG-20010904/DTD/svg10.dtd">
<!-- Creator: CorelDRAW X6 -->
<svg xmlns="http://www.w3.org/2000/svg" xml:space="preserve" width="77px" height="98px" version="1.0" shape-rendering="geometricPrecision" text-rendering="geometricPrecision" image-rendering="optimizeQuality" fill-rule="evenodd" clip-rule="evenodd"
viewBox="0 0 7700 9829"
 xmlns:xlink="http://www.w3.org/1999/xlink">
 <g id="_7020.cgm:type:overlay">
  <metadata id="CorelCorpID_0Corel-Layer"/>
  <IC_ColorNameTable/>
  <PictureProperties/>
  <polygon fill="red" fill-opacity="0.501961" stroke="white" stroke-width="354.813" stroke-linecap="square" stroke-linejoin="round" stroke-opacity="0.501961" points="2245,8730 2523,8180 2840,7467 3091,6739 3342,5960 3541,5219 3686,4479 3872,3409 3977,2696 4057,1842 4136,968 4175,177 5067,177 5107,968 5186,1842 5265,2696 5371,3409 5557,4479 5702,5219 5900,5960 6151,6739 6403,7467 6719,8180 6997,8730 "/>
  <path fill="red" fill-opacity="0.501961" stroke="white" stroke-width="354.813" stroke-linecap="square" stroke-linejoin="round" stroke-opacity="0.501961" d="M5542 8730c0,-509 -412,-921 -921,-921 -509,0 -921,412 -921,921 0,509 412,921 921,921 509,0 921,-412 921,-921z"/>
  <polygon fill="red" fill-opacity="0.501961" stroke="white" stroke-width="354.813" stroke-linecap="square" stroke-linejoin="round" stroke-opacity="0.501961" points="7522,2416 7522,3296 690,3296 690,2416 "/>
  <polygon fill="red" fill-opacity="0.501961" stroke="white" stroke-width="354.813" stroke-linecap="square" stroke-linejoin="round" stroke-opacity="0.501961" points="6220,1999 6220,4683 7522,4683 7522,1999 "/>
  <path fill="none" fill-opacity="0.501961" stroke="white" stroke-width="376.959" stroke-linecap="round" stroke-linejoin="round" stroke-opacity="0.501961" d="M188 5474c7,468 394,848 862,848 475,0 862,-387 862,-862 0,-475 -387,-862 -862,-862"/>
  <line fill="none" fill-opacity="0.501961" stroke="white" stroke-width="376.959" stroke-linecap="round" stroke-linejoin="round" stroke-opacity="0.501961" x1="1050" y1="3296" x2="1050" y2= "4598" />
 </g>
</svg>
