<?xml version="1.0" encoding="UTF-8"?>
<!DOCTYPE svg PUBLIC "-//W3C//DTD SVG 1.0//EN" "http://www.w3.org/TR/2001/REC-SVG-20010904/DTD/svg10.dtd">
<!-- Creator: CorelDRAW X6 -->
<svg xmlns="http://www.w3.org/2000/svg" xml:space="preserve" width="73px" height="98px" version="1.0" shape-rendering="geometricPrecision" text-rendering="geometricPrecision" image-rendering="optimizeQuality" fill-rule="evenodd" clip-rule="evenodd"
viewBox="0 0 7300 9776"
 xmlns:xlink="http://www.w3.org/1999/xlink">
 <g id="_7022.cgm:type:overlay">
  <metadata id="CorelCorpID_0Corel-Layer"/>
  <IC_ColorNameTable/>
  <PictureProperties/>
  <polygon fill="red" fill-opacity="0.501961" stroke="white" stroke-width="352.926" stroke-linecap="square" stroke-linejoin="round" stroke-opacity="0.501961" points="1183,8684 1460,8136 1774,7427 2025,6703 2274,5928 2471,5192 2617,4455 2801,3391 2906,2682 2985,1832 3063,963 3103,176 3990,176 4029,963 4108,1832 4187,2682 4292,3391 4476,4455 4622,5192 4818,5928 5068,6703 5319,7427 5633,8136 5910,8684 "/>
  <path fill="red" fill-opacity="0.501961" stroke="white" stroke-width="352.926" stroke-linecap="square" stroke-linejoin="round" stroke-opacity="0.501961" d="M4462 8684c0,-506 -410,-916 -916,-916 -506,0 -916,410 -916,916 0,506 410,916 916,916 506,0 916,-410 916,-916z"/>
  <polygon fill="red" fill-opacity="0.501961" stroke="white" stroke-width="352.926" stroke-linecap="square" stroke-linejoin="round" stroke-opacity="0.501961" points="5844,4054 6071,3855 6195,3646 6244,3462 6249,3288 6217,3121 6139,2947 6022,2771 4628,1181 1283,4104 177,4137 967,5038 1172,4860 2278,6127 2466,6281 2612,6350 2848,6394 3022,6380 3203,6321 3321,6268 3393,6205 "/>
  <polygon fill="red" fill-opacity="0.501961" stroke="white" stroke-width="352.926" stroke-linecap="square" stroke-linejoin="round" stroke-opacity="0.501961" points="7123,1043 6470,298 4566,1969 5219,2713 "/>
 </g>
</svg>
