<?xml version="1.0" encoding="UTF-8"?>
<!DOCTYPE svg PUBLIC "-//W3C//DTD SVG 1.0//EN" "http://www.w3.org/TR/2001/REC-SVG-20010904/DTD/svg10.dtd">
<!-- Creator: CorelDRAW X6 -->
<svg xmlns="http://www.w3.org/2000/svg" xml:space="preserve" width="56px" height="98px" version="1.0" shape-rendering="geometricPrecision" text-rendering="geometricPrecision" image-rendering="optimizeQuality" fill-rule="evenodd" clip-rule="evenodd"
viewBox="0 0 5600 9859"
 xmlns:xlink="http://www.w3.org/1999/xlink">
 <g id="_7026.cgm:type:overlay">
  <metadata id="CorelCorpID_0Corel-Layer"/>
  <IC_ColorNameTable/>
  <PictureProperties/>
  <polygon fill="red" fill-opacity="0.501961" stroke="white" stroke-width="356.934" stroke-linecap="square" stroke-linejoin="round" stroke-opacity="0.501961" points="417,8757 696,8204 1014,7489 1265,6760 1517,5979 1716,5235 1862,4493 2048,3420 2155,2705 2233,1848 2313,972 2353,178 3247,178 3287,972 3367,1848 3445,2705 3552,3420 3738,4493 3884,5235 4083,5979 4335,6760 4586,7489 4904,8204 5183,8757 "/>
  <path fill="red" fill-opacity="0.501961" stroke="white" stroke-width="356.934" stroke-linecap="square" stroke-linejoin="round" stroke-opacity="0.501961" d="M3724 8757c0,-510 -414,-924 -924,-924 -510,0 -924,414 -924,924 0,510 414,924 924,924 510,0 924,-414 924,-924z"/>
  <polygon fill="red" fill-opacity="0.501961" stroke="white" stroke-width="356.934" stroke-linecap="square" stroke-linejoin="round" stroke-opacity="0.501961" points="178,1751 185,4613 2241,5976 2241,6686 3360,6686 3360,5976 5415,4613 5422,1751 "/>
 </g>
</svg>
