<?xml version="1.0" encoding="UTF-8"?>
<!DOCTYPE svg PUBLIC "-//W3C//DTD SVG 1.0//EN" "http://www.w3.org/TR/2001/REC-SVG-20010904/DTD/svg10.dtd">
<!-- Creator: CorelDRAW X6 -->
<svg xmlns="http://www.w3.org/2000/svg" xml:space="preserve" width="68px" height="98px" version="1.0" shape-rendering="geometricPrecision" text-rendering="geometricPrecision" image-rendering="optimizeQuality" fill-rule="evenodd" clip-rule="evenodd"
viewBox="0 0 6800 9825"
 xmlns:xlink="http://www.w3.org/1999/xlink">
 <g id="_7048.cgm:type:overlay">
  <metadata id="CorelCorpID_0Corel-Layer"/>
  <IC_ColorNameTable/>
  <PictureProperties/>
  <polygon fill="red" fill-opacity="0.501961" stroke="white" stroke-width="355.272" stroke-linecap="square" stroke-linejoin="round" stroke-opacity="0.501961" points="1025,8727 1303,8177 1620,7464 1871,6737 2122,5958 2320,5218 2465,4478 2651,3408 2757,2696 2836,1841 2915,969 2954,178 3846,178 3885,969 3964,1841 4044,2696 4149,3408 4335,4478 4480,5218 4678,5958 4929,6737 5181,7464 5497,8177 5775,8727 "/>
  <path fill="red" fill-opacity="0.501961" stroke="white" stroke-width="355.272" stroke-linecap="square" stroke-linejoin="round" stroke-opacity="0.501961" d="M4320 8727c0,-508 -412,-920 -920,-920 -508,0 -920,412 -920,920 0,508 412,920 920,920 508,0 920,-412 920,-920z"/>
  <polygon fill="red" fill-opacity="0.501961" stroke="white" stroke-width="424.882" stroke-linecap="square" stroke-linejoin="round" stroke-opacity="0.501961" points="213,1290 6587,1290 6587,4478 213,4478 "/>
  <line fill="none" fill-opacity="0.501961" stroke="white" stroke-width="355.272" stroke-linecap="round" stroke-linejoin="round" stroke-opacity="0.501961" x1="882" y1="2234" x2="5919" y2= "2234" />
  <line fill="none" fill-opacity="0.501961" stroke="white" stroke-width="355.272" stroke-linecap="round" stroke-linejoin="round" stroke-opacity="0.501961" x1="882" y1="2884" x2="5919" y2= "2884" />
  <line fill="none" fill-opacity="0.501961" stroke="white" stroke-width="355.272" stroke-linecap="round" stroke-linejoin="round" stroke-opacity="0.501961" x1="882" y1="3533" x2="5919" y2= "3533" />
 </g>
</svg>
