<?xml version="1.0" encoding="UTF-8"?>
<!DOCTYPE svg PUBLIC "-//W3C//DTD SVG 1.0//EN" "http://www.w3.org/TR/2001/REC-SVG-20010904/DTD/svg10.dtd">
<!-- Creator: CorelDRAW X6 -->
<svg xmlns="http://www.w3.org/2000/svg" xml:space="preserve" width="51px" height="98px" version="1.0" shape-rendering="geometricPrecision" text-rendering="geometricPrecision" image-rendering="optimizeQuality" fill-rule="evenodd" clip-rule="evenodd"
viewBox="0 0 5100 9815"
 xmlns:xlink="http://www.w3.org/1999/xlink">
 <g id="_7058.cgm:type:overlay">
  <metadata id="CorelCorpID_0Corel-Layer"/>
  <IC_ColorNameTable/>
  <PictureProperties/>
  <polygon fill="red" fill-opacity="0.501961" stroke="white" stroke-width="354.843" stroke-linecap="square" stroke-linejoin="round" stroke-opacity="0.501961" points="177,8717 456,8167 772,7455 1023,6729 1273,5951 1470,5212 1616,4473 1802,3405 1907,2693 1987,1840 2065,968 2105,177 2995,177 3035,968 3113,1840 3193,2693 3298,3405 3484,4473 3630,5212 3827,5951 4077,6729 4328,7455 4644,8167 4923,8717 "/>
  <path fill="red" fill-opacity="0.501961" stroke="white" stroke-width="354.843" stroke-linecap="square" stroke-linejoin="round" stroke-opacity="0.501961" d="M3470 8717c0,-508 -412,-920 -920,-920 -508,0 -920,412 -920,920 0,508 412,920 920,920 508,0 920,-412 920,-920z"/>
  <polygon fill="red" fill-opacity="0.501961" stroke="white" stroke-width="354.843" stroke-linecap="square" stroke-linejoin="round" stroke-opacity="0.501961" points="553,7316 4586,7316 4586,2541 553,2541 "/>
  <polygon fill="red" fill-opacity="0.501961" stroke="white" stroke-width="354.843" stroke-linecap="square" stroke-linejoin="round" stroke-opacity="0.501961" points="553,2542 4586,2542 4583,2535 4565,2465 4544,2395 4520,2327 4494,2259 4466,2192 4435,2127 4402,2062 4367,1998 4330,1937 4290,1876 4249,1817 4205,1758 4160,1703 4112,1647 4063,1595 4011,1544 3958,1494 3904,1446 3847,1401 3790,1357 3730,1316 3669,1276 3607,1239 3544,1203 3480,1171 3413,1140 3347,1112 3279,1086 3210,1063 3141,1041 3071,1022 3000,1006 2930,993 2858,981 2786,972 2714,966 2642,962 2569,961 2497,962 2424,966 2352,972 2280,981 2209,993 2137,1006 2067,1022 1997,1041 1928,1063 1859,1086 1791,1112 1724,1140 1659,1171 1594,1203 1531,1239 1469,1276 1408,1316 1349,1357 1291,1401 1234,1446 1180,1494 1126,1544 1076,1595 1026,1647 979,1703 933,1758 890,1817 848,1876 808,1937 771,1998 736,2062 703,2127 672,2192 644,2259 619,2327 594,2395 574,2465 555,2535 "/>
 </g>
</svg>
