<?xml version="1.0" encoding="UTF-8"?>
<!DOCTYPE svg PUBLIC "-//W3C//DTD SVG 1.0//EN" "http://www.w3.org/TR/2001/REC-SVG-20010904/DTD/svg10.dtd">
<!-- Creator: CorelDRAW X6 -->
<svg xmlns="http://www.w3.org/2000/svg" xml:space="preserve" width="58px" height="105px" version="1.0" shape-rendering="geometricPrecision" text-rendering="geometricPrecision" image-rendering="optimizeQuality" fill-rule="evenodd" clip-rule="evenodd"
viewBox="0 0 5800 10500"
 xmlns:xlink="http://www.w3.org/1999/xlink">
 <g id="_7062.cgm:type:overlay">
  <metadata id="CorelCorpID_0Corel-Layer"/>
  <IC_ColorNameTable/>
  <PictureProperties/>
  <polygon fill="red" fill-opacity="0.501961" stroke="white" stroke-width="354.228" stroke-linecap="square" stroke-linejoin="round" stroke-opacity="0.501961" points="5623,888 5620,873 5616,848 5608,823 5596,798 5581,772 5563,749 5542,724 5517,700 5489,676 5458,651 5424,629 5388,605 5347,582 5305,560 5259,538 5209,515 5156,495 5103,475 5046,454 4986,435 4923,416 4860,398 4791,380 4722,362 4650,346 4577,331 4500,314 4422,300 4343,286 4262,274 4178,262 4093,250 4008,239 3920,230 3831,222 3741,212 3651,205 3559,199 3467,193 3373,189 3278,184 3184,181 3090,179 2996,177 2899,177 2805,177 2710,179 2615,181 2521,184 2427,189 2334,193 2241,199 2149,205 2059,212 1969,222 1880,230 1792,239 1706,250 1621,262 1539,274 1458,286 1378,300 1300,314 1223,331 1151,346 1079,362 1009,380 942,398 877,416 814,435 754,454 697,475 643,495 591,515 542,538 496,560 453,582 412,605 375,629 342,651 311,676 284,700 258,724 238,749 219,772 204,798 192,823 184,848 177,898 177,8680 179,8709 184,8735 192,8760 204,8785 219,8810 238,8834 258,8859 284,8884 311,8907 342,8931 375,8955 412,8979 453,9001 496,9023 542,9046 591,9067 643,9087 697,9109 754,9129 814,9148 877,9167 942,9185 1009,9204 1079,9220 1151,9237 1223,9254 1300,9268 1378,9282 1458,9296 1539,9309 1621,9321 1706,9332 1792,9344 1880,9353 1969,9362 2059,9371 2149,9378 2241,9385 2334,9390 2427,9395 2521,9399 2615,9402 2710,9403 2805,9406 2899,9406 2996,9406 3090,9403 3184,9402 3278,9399 3373,9395 3467,9390 3559,9385 3651,9378 3741,9371 3831,9362 3920,9353 4008,9344 4093,9332 4178,9321 4262,9309 4343,9296 4422,9282 4500,9268 4577,9254 4650,9237 4722,9220 4791,9204 4860,9185 4923,9167 4986,9148 5046,9129 5103,9109 5156,9087 5209,9067 5259,9046 5305,9023 5347,9001 5388,8979 5424,8955 5458,8931 5489,8907 5517,8884 5542,8859 5563,8834 5581,8810 5596,8785 5608,8760 5616,8735 5623,8685 5623,879 "/>
  <path fill="red" fill-opacity="0.501961" stroke="white" stroke-width="354.228" stroke-linecap="square" stroke-linejoin="round" stroke-opacity="0.501961" d="M3832 9406c0,-506 -410,-917 -917,-917 -506,0 -917,410 -917,917 0,506 410,917 917,917 506,0 917,-410 917,-917z"/>
  <polyline fill="none" fill-opacity="0.501961" stroke="white" stroke-width="354.228" stroke-linecap="round" stroke-linejoin="round" stroke-opacity="0.501961" points="203,986 192,961 183,936 178,910 177,897 183,936 203,986 237,1035 257,1060 283,1084 310,1108 283,1084 341,1131 375,1156 412,1178 452,1202 496,1224 541,1246 591,1268 642,1288 696,1309 753,1329 814,1348 876,1367 941,1386 1008,1404 1078,1421 1149,1437 1223,1453 1299,1468 1377,1483 1457,1497 1537,1509 1621,1521 1706,1533 1792,1544 1879,1553 1968,1563 2058,1571 2148,1578 2241,1585 2333,1590 2427,1595 2520,1599 2614,1602 2709,1604 2804,1606 2899,1606 2994,1606 3089,1604 3184,1602 3278,1599 3372,1595 3465,1590 3558,1585 3649,1578 3741,1571 3830,1563 3919,1553 4007,1544 4093,1533 4178,1521 4260,1509 4342,1497 4422,1483 4499,1468 4575,1453 4650,1437 4721,1421 4790,1404 4858,1386 4922,1367 4985,1348 5044,1329 5102,1309 5156,1288 5208,1268 5258,1246 5303,1224 5346,1202 5387,1178 5423,1156 5457,1131 5488,1108 5516,1084 5540,1060 5562,1035 5580,1011 5595,986 5607,961 5615,936 5622,885 "/>
 </g>
</svg>
