<?xml version="1.0" encoding="UTF-8"?>
<!DOCTYPE svg PUBLIC "-//W3C//DTD SVG 1.0//EN" "http://www.w3.org/TR/2001/REC-SVG-20010904/DTD/svg10.dtd">
<!-- Creator: CorelDRAW X6 -->
<svg xmlns="http://www.w3.org/2000/svg" xml:space="preserve" width="51px" height="98px" version="1.0" shape-rendering="geometricPrecision" text-rendering="geometricPrecision" image-rendering="optimizeQuality" fill-rule="evenodd" clip-rule="evenodd"
viewBox="0 0 5100 9814"
 xmlns:xlink="http://www.w3.org/1999/xlink">
 <g id="_7080.cgm:type:overlay">
  <metadata id="CorelCorpID_0Corel-Layer"/>
  <IC_ColorNameTable/>
  <PictureProperties/>
  <polygon fill="red" fill-opacity="0.501961" stroke="white" stroke-width="354.86" stroke-linecap="square" stroke-linejoin="round" stroke-opacity="0.501961" points="177,8717 455,8168 771,7455 1022,6729 1273,5951 1471,5211 1616,4472 1802,3404 1907,2693 1987,1839 2065,967 2105,177 2995,177 3035,967 3113,1839 3193,2693 3298,3404 3484,4472 3629,5211 3827,5951 4078,6729 4329,7455 4645,8168 4923,8717 "/>
  <path fill="red" fill-opacity="0.501961" stroke="white" stroke-width="354.86" stroke-linecap="square" stroke-linejoin="round" stroke-opacity="0.501961" d="M3469 8717c0,-508 -412,-919 -919,-919 -508,0 -919,412 -919,919 0,508 412,919 919,919 508,0 919,-412 919,-919z"/>
  <polygon fill="red" fill-opacity="0.501961" stroke="white" stroke-width="354.86" stroke-linecap="square" stroke-linejoin="round" stroke-opacity="0.501961" points="177,920 4923,920 3262,3161 1838,3158 "/>
 </g>
</svg>
