<?xml version="1.0" encoding="UTF-8"?>
<!DOCTYPE svg PUBLIC "-//W3C//DTD SVG 1.0//EN" "http://www.w3.org/TR/2001/REC-SVG-20010904/DTD/svg10.dtd">
<!-- Creator: CorelDRAW X6 -->
<svg xmlns="http://www.w3.org/2000/svg" xml:space="preserve" width="80px" height="98px" version="1.0" shape-rendering="geometricPrecision" text-rendering="geometricPrecision" image-rendering="optimizeQuality" fill-rule="evenodd" clip-rule="evenodd"
viewBox="0 0 8000 9753"
 xmlns:xlink="http://www.w3.org/1999/xlink">
 <g id="_7139.cgm:type:overlay">
  <metadata id="CorelCorpID_0Corel-Layer"/>
  <IC_ColorNameTable/>
  <PictureProperties/>
  <polygon fill="red" fill-opacity="0.501961" stroke="white" stroke-width="354.084" stroke-linecap="square" stroke-linejoin="round" stroke-opacity="0.501961" points="4904,8659 177,8659 451,8312 763,7863 1009,7405 1257,6915 1452,6448 1595,5983 1777,5310 1881,4860 1959,4322 2038,3772 2076,3274 2098,3185 2983,3185 3004,3274 3043,3772 3122,4322 3199,4860 3304,5310 3486,5983 3629,6448 3825,6915 4071,7405 4318,7863 4630,8312 "/>
  <polygon fill="red" fill-opacity="0.501961" stroke="white" stroke-width="354.084" stroke-linecap="square" stroke-linejoin="round" stroke-opacity="0.501961" points="7823,8659 3097,8659 3370,8312 3682,7863 3928,7405 4175,6915 4371,6448 4514,5983 4696,5310 4801,4860 4878,4322 4956,3772 4996,3274 5017,3185 5903,3185 5924,3274 5963,3772 6041,4322 6119,4860 6223,5310 6405,5983 6549,6448 6744,6915 6991,7405 7237,7863 7550,8312 "/>
  <polygon fill="red" fill-opacity="0.501961" stroke="white" stroke-width="305.318" stroke-linecap="square" stroke-linejoin="round" stroke-opacity="0.501961" points="3097,8659 3373,8111 3688,7403 3939,6678 4188,5904 4385,5166 4529,4430 4713,3367 4819,2658 4898,1807 4977,939 5017,153 5903,153 5943,939 6021,1807 6100,2658 6206,3367 6390,4430 6535,5166 6732,5904 6982,6678 7231,7403 7547,8111 7823,8659 "/>
  <path fill="red" fill-opacity="0.501961" stroke="white" stroke-width="354.084" stroke-linecap="square" stroke-linejoin="round" stroke-opacity="0.501961" d="M4917 8659c0,-506 -411,-917 -917,-917 -506,0 -917,411 -917,917 0,506 411,917 917,917 506,0 917,-411 917,-917z"/>
 </g>
</svg>
