<?xml version="1.0" encoding="UTF-8"?>
<!DOCTYPE svg PUBLIC "-//W3C//DTD SVG 1.0//EN" "http://www.w3.org/TR/2001/REC-SVG-20010904/DTD/svg10.dtd">
<!-- Creator: CorelDRAW X6 -->
<svg xmlns="http://www.w3.org/2000/svg" xml:space="preserve" width="51px" height="68px" version="1.0" shape-rendering="geometricPrecision" text-rendering="geometricPrecision" image-rendering="optimizeQuality" fill-rule="evenodd" clip-rule="evenodd"
viewBox="0 0 5100 6770"
 xmlns:xlink="http://www.w3.org/1999/xlink">
 <g id="_7141.cgm:type:overlay">
  <metadata id="CorelCorpID_0Corel-Layer"/>
  <IC_ColorNameTable/>
  <PictureProperties/>
  <polygon fill="red" fill-opacity="0.501961" stroke="white" stroke-width="354.978" stroke-linecap="square" stroke-linejoin="round" stroke-opacity="0.501961" points="4923,5672 177,5672 452,5324 766,4874 1013,4414 1261,3922 1457,3453 1601,2986 1784,2310 1888,1859 1967,1319 2045,768 2085,267 2105,177 2995,177 3015,267 3055,768 3133,1319 3212,1859 3317,2310 3499,2986 3643,3453 3839,3922 4087,4414 4334,4874 4648,5324 "/>
  <path fill="red" fill-opacity="0.501961" stroke="white" stroke-width="354.978" stroke-linecap="square" stroke-linejoin="round" stroke-opacity="0.501961" d="M3470 5672c0,-508 -412,-920 -920,-920 -508,0 -920,412 -920,920 0,508 412,920 920,920 508,0 920,-412 920,-920z"/>
 </g>
</svg>
