<?xml version="1.0" encoding="UTF-8"?>
<!DOCTYPE svg PUBLIC "-//W3C//DTD SVG 1.0//EN" "http://www.w3.org/TR/2001/REC-SVG-20010904/DTD/svg10.dtd">
<!-- Creator: CorelDRAW X6 -->
<svg xmlns="http://www.w3.org/2000/svg" xml:space="preserve" width="78px" height="73px" version="1.0" shape-rendering="geometricPrecision" text-rendering="geometricPrecision" image-rendering="optimizeQuality" fill-rule="evenodd" clip-rule="evenodd"
viewBox="0 0 7800 7333"
 xmlns:xlink="http://www.w3.org/1999/xlink">
 <g id="_0005.cgm:type:overlay">
  <metadata id="CorelCorpID_0Corel-Layer"/>
  <IC_ColorNameTable/>
  <PictureProperties/>
  <polygon fill="#A37B3A" fill-opacity="0.501961" points="3320,6497 1341,6497 1341,6084 3320,6084 "/>
  <polygon fill="#A37B3A" fill-opacity="0.501961" points="4439,6084 6418,6084 6418,6497 4439,6497 "/>
  <path fill="none" fill-opacity="0.501961" stroke="#A37B3A" stroke-width="471.587" stroke-linecap="square" stroke-linejoin="round" stroke-opacity="0.501961" d="M4705 6272c0,-456 -370,-826 -826,-826 -456,0 -826,370 -826,826 0,456 370,826 826,826 456,0 826,-370 826,-826z"/>
  <polygon fill="#A37B3A" fill-opacity="0.501961" stroke="#A37B3A" stroke-width="89.9047" stroke-linecap="square" stroke-linejoin="round" stroke-opacity="0.501961" points="8,374 8,7 7792,7 7792,374 "/>
  <polygon fill="#A37B3A" fill-opacity="0.501961" stroke="#A37B3A" stroke-width="89.9047" stroke-linecap="square" stroke-linejoin="round" stroke-opacity="0.501961" points="4971,6443 4604,6443 4604,373 4971,373 "/>
  <polygon fill="#A37B3A" fill-opacity="0.501961" stroke="#A37B3A" stroke-width="89.9047" stroke-linecap="square" stroke-linejoin="round" stroke-opacity="0.501961" points="3155,6443 2788,6443 2788,373 3155,373 "/>
  <polygon fill="#A37B3A" fill-opacity="0.501961" stroke="#A37B3A" stroke-width="89.9047" stroke-linecap="square" stroke-linejoin="round" stroke-opacity="0.501961" points="8,374 8,2233 2155,2233 2155,374 1790,374 1790,1857 395,1857 395,374 "/>
 </g>
</svg>
