<?xml version="1.0" encoding="UTF-8"?>
<!DOCTYPE svg PUBLIC "-//W3C//DTD SVG 1.0//EN" "http://www.w3.org/TR/2001/REC-SVG-20010904/DTD/svg10.dtd">
<!-- Creator: CorelDRAW X6 -->
<svg xmlns="http://www.w3.org/2000/svg" xml:space="preserve" width="44px" height="58px" version="1.0" shape-rendering="geometricPrecision" text-rendering="geometricPrecision" image-rendering="optimizeQuality" fill-rule="evenodd" clip-rule="evenodd"
viewBox="0 0 4400 5784"
 xmlns:xlink="http://www.w3.org/1999/xlink">
 <g id="_0012.cgm:type:overlay">
  <metadata id="CorelCorpID_0Corel-Layer"/>
  <IC_ColorNameTable/>
  <PictureProperties/>
  <path fill="none" fill-opacity="0.501961" stroke="#EAFFF4" stroke-width="353.58" stroke-linecap="square" stroke-linejoin="round" stroke-opacity="0.501961" d="M3374 4429c0,-651 -527,-1178 -1178,-1178 -651,0 -1178,527 -1178,1178 0,651 527,1178 1178,1178 651,0 1178,-527 1178,-1178z"/>
  <path fill="none" fill-opacity="0.501961" stroke="#EAFFF4" stroke-width="353.58" stroke-linecap="square" stroke-linejoin="round" stroke-opacity="0.501961" d="M3374 4429c0,-651 -527,-1178 -1178,-1178 -651,0 -1178,527 -1178,1178 0,651 527,1178 1178,1178 651,0 1178,-527 1178,-1178z"/>
  <path fill="#EAFFF4" fill-opacity="0.501961" d="M2667 4429c0,-260 -211,-472 -472,-472 -260,0 -472,211 -472,472 0,260 211,472 472,472 260,0 472,-211 472,-472z"/>
  <line fill="none" fill-opacity="0.501961" stroke="#EAFFF4" stroke-width="353.58" stroke-linecap="round" stroke-linejoin="round" stroke-opacity="0.501961" x1="2196" y1="3250" x2="2196" y2= "1364" />
  <polyline fill="none" fill-opacity="0.501961" stroke="#EAFFF4" stroke-width="353.58" stroke-linecap="round" stroke-linejoin="round" stroke-opacity="0.501961" points="177,177 322,499 504,729 694,897 1008,1093 1353,1234 1715,1322 1978,1355 2196,1364 2679,1323 3055,1231 3446,1064 3781,837 4021,581 4148,374 4223,177 "/>
 </g>
</svg>
