<?xml version="1.0" encoding="UTF-8"?>
<!DOCTYPE svg PUBLIC "-//W3C//DTD SVG 1.0//EN" "http://www.w3.org/TR/2001/REC-SVG-20010904/DTD/svg10.dtd">
<!-- Creator: CorelDRAW X6 -->
<svg xmlns="http://www.w3.org/2000/svg" xml:space="preserve" width="50px" height="57px" version="1.0" shape-rendering="geometricPrecision" text-rendering="geometricPrecision" image-rendering="optimizeQuality" fill-rule="evenodd" clip-rule="evenodd"
viewBox="0 0 5000 5705"
 xmlns:xlink="http://www.w3.org/1999/xlink">
 <g id="_0020.cgm:type:overlay">
  <metadata id="CorelCorpID_0Corel-Layer"/>
  <IC_ColorNameTable/>
  <PictureProperties/>
  <line fill="none" fill-opacity="0.501961" stroke="#EAFFF4" stroke-width="475.398" stroke-linecap="round" stroke-linejoin="round" stroke-opacity="0.501961" x1="717" y1="4398" x2="1609" y2= "238" />
  <line fill="none" fill-opacity="0.501961" stroke="#EAFFF4" stroke-width="475.398" stroke-linecap="round" stroke-linejoin="round" stroke-opacity="0.501961" x1="4283" y1="4398" x2="3391" y2= "240" />
  <line fill="none" fill-opacity="0.501961" stroke="#EAFFF4" stroke-width="475.398" stroke-linecap="round" stroke-linejoin="round" stroke-opacity="0.501961" x1="1609" y1="238" x2="3391" y2= "238" />
  <line fill="none" fill-opacity="0.501961" stroke="#EAFFF4" stroke-width="356.786" stroke-linecap="round" stroke-linejoin="round" stroke-opacity="0.501961" x1="1162" y1="3875" x2="3599" y2= "1438" />
  <line fill="none" fill-opacity="0.501961" stroke="#EAFFF4" stroke-width="356.786" stroke-linecap="round" stroke-linejoin="round" stroke-opacity="0.501961" x1="1232" y1="2334" x2="3333" y2= "234" />
  <polygon fill="#EAFFF4" fill-opacity="0.501961" points="1906,4813 4,4813 4,3982 1906,3982 "/>
  <polygon fill="#EAFFF4" fill-opacity="0.501961" points="3094,3982 4996,3982 4996,4813 3094,4813 "/>
  <path fill="none" fill-opacity="0.501961" stroke="#EAFFF4" stroke-width="713.097" stroke-linecap="square" stroke-linejoin="round" stroke-opacity="0.501961" d="M3451 4398c0,-525 -426,-951 -951,-951 -525,0 -951,426 -951,951 0,525 426,951 951,951 525,0 951,-426 951,-951z"/>
  <line fill="none" fill-opacity="0.501961" stroke="#EAFFF4" stroke-width="356.786" stroke-linecap="round" stroke-linejoin="round" stroke-opacity="0.501961" x1="3098" y1="3453" x2="3891" y2= "2659" />
 </g>
</svg>
