<?xml version="1.0" encoding="UTF-8"?>
<!DOCTYPE svg PUBLIC "-//W3C//DTD SVG 1.0//EN" "http://www.w3.org/TR/2001/REC-SVG-20010904/DTD/svg10.dtd">
<!-- Creator: CorelDRAW X6 -->
<svg xmlns="http://www.w3.org/2000/svg" xml:space="preserve" width="40px" height="69px" version="1.0" shape-rendering="geometricPrecision" text-rendering="geometricPrecision" image-rendering="optimizeQuality" fill-rule="evenodd" clip-rule="evenodd"
viewBox="0 0 4000 6816"
 xmlns:xlink="http://www.w3.org/1999/xlink">
 <g id="_0023.cgm:type:overlay">
  <metadata id="CorelCorpID_0Corel-Layer"/>
  <IC_ColorNameTable/>
  <PictureProperties/>
  <polyline fill="none" fill-opacity="0.501961" stroke="#EAFFF4" stroke-width="352.665" stroke-linecap="round" stroke-linejoin="round" stroke-opacity="0.501961" points="768,1409 768,176 3232,176 3232,1409 768,1409 "/>
  <line fill="none" fill-opacity="0.501961" stroke="#EAFFF4" stroke-width="352.665" stroke-linecap="round" stroke-linejoin="round" stroke-opacity="0.501961" x1="856" y1="5876" x2="1413" y2= "1417" />
  <line fill="none" fill-opacity="0.501961" stroke="#EAFFF4" stroke-width="352.665" stroke-linecap="round" stroke-linejoin="round" stroke-opacity="0.501961" x1="3144" y1="5876" x2="2587" y2= "1417" />
  <polygon fill="#EAFFF4" fill-opacity="0.501961" points="2538,6347 3998,6347 3998,5876 2538,5876 "/>
  <polygon fill="#EAFFF4" fill-opacity="0.501961" points="1462,5876 2,5876 2,6347 1462,6347 "/>
  <path fill="none" fill-opacity="0.501961" stroke="#EAFFF4" stroke-width="235.149" stroke-linecap="square" stroke-linejoin="round" stroke-opacity="0.501961" d="M2587 6111c0,-324 -263,-587 -587,-587 -324,0 -587,263 -587,587 0,324 263,587 587,587 324,0 587,-263 587,-587z"/>
 </g>
</svg>
