<?xml version="1.0" encoding="UTF-8"?>
<!DOCTYPE svg PUBLIC "-//W3C//DTD SVG 1.0//EN" "http://www.w3.org/TR/2001/REC-SVG-20010904/DTD/svg10.dtd">
<!-- Creator: CorelDRAW X6 -->
<svg xmlns="http://www.w3.org/2000/svg" xml:space="preserve" width="74px" height="74px" version="1.0" shape-rendering="geometricPrecision" text-rendering="geometricPrecision" image-rendering="optimizeQuality" fill-rule="evenodd" clip-rule="evenodd"
viewBox="0 0 7400 7400"
 xmlns:xlink="http://www.w3.org/1999/xlink">
 <g id="_0028.cgm:type:overlay">
  <metadata id="CorelCorpID_0Corel-Layer"/>
  <IC_ColorNameTable/>
  <PictureProperties/>
  <path fill="none" fill-opacity="0.501961" stroke="#DE4BC9" stroke-width="353.993" stroke-linecap="square" stroke-linejoin="round" stroke-opacity="0.501961" d="M7223 3700c0,-1946 -1577,-3523 -3523,-3523 -1946,0 -3523,1577 -3523,3523 0,1946 1577,3523 3523,3523 1946,0 3523,-1577 3523,-3523z"/>
  <path fill="none" fill-opacity="0.501961" stroke="#EAFFF4" stroke-width="354.347" stroke-linecap="round" stroke-linejoin="round" stroke-opacity="0.501961" d="M6383 5186c161,-355 252,-791 252,-1193 0,-1617 -1319,-2936 -2936,-2936 -1617,0 -2936,1319 -2936,2936 0,390 80,791 229,1147"/>
  <line fill="none" fill-opacity="0.501961" stroke="#EAFFF4" stroke-width="354.347" stroke-linecap="round" stroke-linejoin="round" stroke-opacity="0.501961" x1="4408" y1="5168" x2="6354" y2= "5167" />
  <line fill="none" fill-opacity="0.501961" stroke="#EAFFF4" stroke-width="354.347" stroke-linecap="round" stroke-linejoin="round" stroke-opacity="0.501961" x1="1046" y1="5168" x2="2992" y2= "5168" />
  <path fill="none" fill-opacity="0.501961" stroke="#EAFFF4" stroke-width="354.347" stroke-linecap="square" stroke-linejoin="round" stroke-opacity="0.501961" d="M4408 5165c-2,-391 -320,-706 -711,-705 -391,2 -706,320 -704,711 2,391 320,706 711,705 391,-2 706,-320 704,-711z"/>
 </g>
</svg>
