<?xml version="1.0" encoding="UTF-8"?>
<!DOCTYPE svg PUBLIC "-//W3C//DTD SVG 1.0//EN" "http://www.w3.org/TR/2001/REC-SVG-20010904/DTD/svg10.dtd">
<!-- Creator: CorelDRAW X6 -->
<svg xmlns="http://www.w3.org/2000/svg" xml:space="preserve" width="138px" height="123px" version="1.0" shape-rendering="geometricPrecision" text-rendering="geometricPrecision" image-rendering="optimizeQuality" fill-rule="evenodd" clip-rule="evenodd"
viewBox="0 0 13800 12357"
 xmlns:xlink="http://www.w3.org/1999/xlink">
 <g id="_0041.cgm:type:overlay">
  <metadata id="CorelCorpID_0Corel-Layer"/>
  <IC_ColorNameTable/>
  <PictureProperties/>
  <polygon fill="#DE4BC9" fill-opacity="0.501961" stroke="#DE4BC9" stroke-width="90.2642" stroke-linecap="square" stroke-linejoin="round" stroke-opacity="0.501961" points="1531,9231 974,9231 974,8589 1531,8589 "/>
  <polygon fill="#DE4BC9" fill-opacity="0.501961" stroke="#DE4BC9" stroke-width="90.2642" stroke-linecap="square" stroke-linejoin="round" stroke-opacity="0.501961" points="2648,4692 2626,4929 2562,5143 2475,5358 2347,5551 1961,6045 1768,6302 1703,6474 1638,6645 1596,6839 1553,7032 1510,7268 1488,7483 1467,7740 1467,7997 1038,7997 1038,7483 1059,7139 1124,6817 1210,6495 1338,6194 1553,5895 1917,5379 2046,5165 2133,4994 2197,4821 2218,4670 2197,4457 2154,4263 2089,4113 2004,3984 1874,3898 1703,3834 1531,3791 1317,3769 1101,3791 931,3834 780,3898 652,4005 586,4113 523,4220 458,4371 394,4520 7,4520 7,4392 29,4284 50,4156 93,4049 136,3941 200,3856 286,3748 351,3662 458,3598 544,3533 652,3469 780,3426 887,3383 1016,3362 1167,3340 1317,3340 1467,3340 1617,3362 1768,3405 1896,3447 2025,3490 2133,3556 2240,3641 2325,3726 2412,3834 2475,3920 2519,4027 2562,4156 2604,4263 2626,4414 2648,4542 "/>
  <polygon fill="#DE4BC9" fill-opacity="0.501961" stroke="#DE4BC9" stroke-width="90.2642" stroke-linecap="square" stroke-linejoin="round" stroke-opacity="0.501961" points="12678,9160 12119,9160 12119,8518 12678,8518 "/>
  <polygon fill="#DE4BC9" fill-opacity="0.501961" stroke="#DE4BC9" stroke-width="90.2642" stroke-linecap="square" stroke-linejoin="round" stroke-opacity="0.501961" points="13793,4622 13772,4858 13707,5072 13621,5287 13493,5480 13106,5974 12913,6231 12849,6403 12784,6575 12741,6768 12699,6961 12655,7197 12634,7412 12613,7669 12613,7927 12184,7927 12184,7412 12204,7068 12269,6747 12355,6425 12485,6124 12699,5824 13063,5309 13192,5094 13278,4922 13343,4750 13364,4601 13343,4386 13300,4192 13235,4042 13150,3914 13020,3827 12849,3764 12678,3720 12463,3699 12247,3720 12076,3764 11926,3827 11797,3935 11732,4042 11669,4150 11604,4300 11539,4450 11153,4450 11153,4321 11175,4214 11196,4085 11238,3977 11282,3870 11346,3784 11432,3677 11496,3591 11604,3528 11689,3463 11797,3398 11926,3355 12033,3312 12162,3291 12312,3269 12463,3269 12613,3269 12764,3291 12913,3334 13042,3377 13170,3420 13278,3484 13386,3570 13471,3656 13557,3764 13621,3849 13665,3956 13707,4085 13750,4192 13772,4343 13793,4471 "/>
  <polyline fill="none" fill-opacity="0.501961" stroke="#DE4BC9" stroke-width="236.559" stroke-linecap="round" stroke-linejoin="round" stroke-opacity="0.501961" points="9491,6179 9490,6091 9485,6004 9477,5916 9466,5829 9453,5742 9437,5656 9416,5571 9394,5486 9368,5402 9340,5319 9308,5237 9274,5156 9237,5077 9197,4999 9154,4922 9109,4847 9061,4774 9011,4702 8958,4632 8903,4564 8845,4497 8785,4433 8724,4371 8660,4311 8593,4254 8525,4198 8455,4146 8383,4095 8310,4047 8235,4003 8157,3960 8080,3920 8000,3883 7920,3849 7838,3817 7755,3789 7670,3763 7586,3740 7500,3720 7414,3704 7328,3691 7241,3679 7153,3672 7066,3667 6978,3665 6890,3667 6803,3672 6715,3679 6628,3691 6542,3704 6456,3720 6370,3740 6286,3763 6201,3789 6119,3817 6036,3849 5956,3883 5876,3920 5799,3960 5721,4003 5646,4047 5573,4095 5501,4146 5431,4198 5363,4254 5296,4311 5232,4371 5171,4433 5111,4497 5053,4564 4998,4632 4945,4702 4895,4774 4847,4847 4802,4922 4759,4999 4719,5077 4682,5156 4648,5237 4616,5319 4588,5402 4562,5486 4540,5571 4519,5656 4503,5742 4490,5829 4479,5916 4471,6004 4466,6091 4465,6179 4466,6266 4471,6354 4479,6441 4490,6528 4503,6615 4519,6701 4540,6787 4562,6871 4588,6955 4616,7038 4648,7120 4682,7201 4719,7280 4759,7358 4802,7435 4847,7510 4895,7583 4945,7656 4998,7726 5053,7794 5111,7860 5171,7925 5232,7986 5296,8046 5363,8104 5431,8159 5501,8212 5573,8262 5646,8310 5721,8355 5799,8398 5876,8437 5956,8474 6036,8509 6119,8540 6201,8568 6286,8595 6370,8617 6456,8637 6542,8653 6628,8667 6715,8678 6803,8685 6890,8690 6978,8692 7066,8690 7153,8685 7241,8678 7328,8667 7414,8653 7500,8637 7586,8617 7670,8595 7755,8568 7838,8540 7920,8509 8000,8474 8080,8437 8157,8398 8235,8355 8310,8310 8383,8262 8455,8212 8525,8159 8593,8104 8660,8046 8724,7986 8785,7925 8845,7860 8903,7794 8958,7726 9011,7656 9061,7583 9109,7510 9154,7435 9197,7358 9237,7280 9274,7201 9308,7120 9340,7038 9368,6955 9394,6871 9416,6787 9437,6701 9453,6615 9466,6528 9477,6441 9485,6354 9490,6266 9491,6179 9491,6179 "/>
  <line fill="none" fill-opacity="0.501961" stroke="#DE4BC9" stroke-width="236.559" stroke-linecap="round" stroke-linejoin="round" stroke-opacity="0.501961" x1="6978" y1="118" x2="9326" y2= "5285" />
  <line fill="none" fill-opacity="0.501961" stroke="#DE4BC9" stroke-width="236.559" stroke-linecap="round" stroke-linejoin="round" stroke-opacity="0.501961" x1="6978" y1="118" x2="4608" y2= "5341" />
  <line fill="none" fill-opacity="0.501961" stroke="#DE4BC9" stroke-width="236.559" stroke-linecap="round" stroke-linejoin="round" stroke-opacity="0.501961" x1="6978" y1="12239" x2="9326" y2= "7072" />
  <line fill="none" fill-opacity="0.501961" stroke="#DE4BC9" stroke-width="236.559" stroke-linecap="round" stroke-linejoin="round" stroke-opacity="0.501961" x1="6978" y1="12239" x2="4630" y2= "7072" />
 </g>
</svg>
