<?xml version="1.0" encoding="UTF-8"?>
<!DOCTYPE svg PUBLIC "-//W3C//DTD SVG 1.0//EN" "http://www.w3.org/TR/2001/REC-SVG-20010904/DTD/svg10.dtd">
<!-- Creator: CorelDRAW X6 -->
<svg xmlns="http://www.w3.org/2000/svg" xml:space="preserve" width="107px" height="89px" version="1.0" shape-rendering="geometricPrecision" text-rendering="geometricPrecision" image-rendering="optimizeQuality" fill-rule="evenodd" clip-rule="evenodd"
viewBox="0 0 10700 8895"
 xmlns:xlink="http://www.w3.org/1999/xlink">
 <g id="_0053.cgm:type:overlay">
  <metadata id="CorelCorpID_0Corel-Layer"/>
  <IC_ColorNameTable/>
  <PictureProperties/>
  <path fill="#000040" fill-opacity="0.501961" d="M474 4448c0,-2218 2183,-4016 4876,-4016 2693,0 4876,1798 4876,4016 0,2218 -2183,4016 -4876,4016 -2693,0 -4876,-1798 -4876,-4016z"/>
  <path fill="#EAFFF4" fill-opacity="0.501961" d="M10698 4448c0,-260 -211,-471 -471,-471 -260,0 -471,211 -471,471 0,260 211,471 471,471 260,0 471,-211 471,-471z"/>
  <path fill="#EAFFF4" fill-opacity="0.501961" d="M10282 2824c0,-260 -211,-471 -471,-471 -260,0 -471,211 -471,471 0,260 211,471 471,471 260,0 471,-211 471,-471z"/>
  <path fill="#EAFFF4" fill-opacity="0.501961" d="M9237 1581c0,-260 -211,-471 -471,-471 -260,0 -471,211 -471,471 0,260 211,471 471,471 260,0 471,-211 471,-471z"/>
  <path fill="#EAFFF4" fill-opacity="0.501961" d="M7915 821c0,-260 -211,-471 -471,-471 -260,0 -471,211 -471,471 0,260 211,471 471,471 260,0 471,-211 471,-471z"/>
  <path fill="#EAFFF4" fill-opacity="0.501961" d="M10282 6071c0,-260 -211,-471 -471,-471 -260,0 -471,211 -471,471 0,260 211,471 471,471 260,0 471,-211 471,-471z"/>
  <path fill="#EAFFF4" fill-opacity="0.501961" d="M9237 7314c0,-260 -211,-471 -471,-471 -260,0 -471,211 -471,471 0,260 211,471 471,471 260,0 471,-211 471,-471z"/>
  <path fill="#EAFFF4" fill-opacity="0.501961" d="M7915 8074c0,-260 -211,-471 -471,-471 -260,0 -471,211 -471,471 0,260 211,471 471,471 260,0 471,-211 471,-471z"/>
  <path fill="#EAFFF4" fill-opacity="0.501961" d="M6522 8422c0,-260 -211,-471 -471,-471 -260,0 -471,211 -471,471 0,260 211,471 471,471 260,0 471,-211 471,-471z"/>
  <path fill="#EAFFF4" fill-opacity="0.501961" d="M5120 8422c0,-260 -211,-471 -471,-471 -260,0 -471,211 -471,471 0,260 211,471 471,471 260,0 471,-211 471,-471z"/>
  <path fill="#EAFFF4" fill-opacity="0.501961" d="M945 4435c0,-260 -211,-471 -471,-471 -260,0 -471,211 -471,471 0,260 211,471 471,471 260,0 471,-211 471,-471z"/>
  <path fill="#EAFFF4" fill-opacity="0.501961" d="M1361 2824c0,-260 -211,-471 -471,-471 -260,0 -471,211 -471,471 0,260 211,471 471,471 260,0 471,-211 471,-471z"/>
  <path fill="#EAFFF4" fill-opacity="0.501961" d="M2406 1581c0,-260 -211,-471 -471,-471 -260,0 -471,211 -471,471 0,260 211,471 471,471 260,0 471,-211 471,-471z"/>
  <path fill="#EAFFF4" fill-opacity="0.501961" d="M3727 821c0,-260 -211,-471 -471,-471 -260,0 -471,211 -471,471 0,260 211,471 471,471 260,0 471,-211 471,-471z"/>
  <path fill="#EAFFF4" fill-opacity="0.501961" d="M5120 473c0,-260 -211,-471 -471,-471 -260,0 -471,211 -471,471 0,260 211,471 471,471 260,0 471,-211 471,-471z"/>
  <path fill="#EAFFF4" fill-opacity="0.501961" d="M6522 473c0,-260 -211,-471 -471,-471 -260,0 -471,211 -471,471 0,260 211,471 471,471 260,0 471,-211 471,-471z"/>
  <path fill="#EAFFF4" fill-opacity="0.501961" d="M1361 6071c0,-260 -211,-471 -471,-471 -260,0 -471,211 -471,471 0,260 211,471 471,471 260,0 471,-211 471,-471z"/>
  <path fill="#EAFFF4" fill-opacity="0.501961" d="M2406 7314c0,-260 -211,-471 -471,-471 -260,0 -471,211 -471,471 0,260 211,471 471,471 260,0 471,-211 471,-471z"/>
  <path fill="#EAFFF4" fill-opacity="0.501961" d="M3727 8074c0,-260 -211,-471 -471,-471 -260,0 -471,211 -471,471 0,260 211,471 471,471 260,0 471,-211 471,-471z"/>
 </g>
</svg>
