<?xml version="1.0" encoding="UTF-8"?>
<!DOCTYPE svg PUBLIC "-//W3C//DTD SVG 1.0//EN" "http://www.w3.org/TR/2001/REC-SVG-20010904/DTD/svg10.dtd">
<!-- Creator: CorelDRAW X6 -->
<svg xmlns="http://www.w3.org/2000/svg" xml:space="preserve" width="109px" height="91px" version="1.0" shape-rendering="geometricPrecision" text-rendering="geometricPrecision" image-rendering="optimizeQuality" fill-rule="evenodd" clip-rule="evenodd"
viewBox="0 0 10900 9059"
 xmlns:xlink="http://www.w3.org/1999/xlink">
 <g id="_0054.cgm:type:overlay">
  <metadata id="CorelCorpID_0Corel-Layer"/>
  <IC_ColorNameTable/>
  <PictureProperties/>
  <path fill="#EAFFF4" fill-opacity="0.501961" d="M10898 4529c0,-261 -211,-472 -472,-472 -261,0 -472,211 -472,472 0,261 211,472 472,472 261,0 472,-211 472,-472z"/>
  <path fill="#EAFFF4" fill-opacity="0.501961" d="M10473 2873c0,-261 -211,-472 -472,-472 -261,0 -472,211 -472,472 0,261 211,472 472,472 261,0 472,-211 472,-472z"/>
  <path fill="#EAFFF4" fill-opacity="0.501961" d="M9407 1605c0,-261 -211,-472 -472,-472 -261,0 -472,211 -472,472 0,261 211,472 472,472 261,0 472,-211 472,-472z"/>
  <path fill="#EAFFF4" fill-opacity="0.501961" d="M8059 829c0,-261 -211,-472 -472,-472 -261,0 -472,211 -472,472 0,261 211,472 472,472 261,0 472,-211 472,-472z"/>
  <path fill="#EAFFF4" fill-opacity="0.501961" d="M10473 6186c0,-261 -211,-472 -472,-472 -261,0 -472,211 -472,472 0,261 211,472 472,472 261,0 472,-211 472,-472z"/>
  <path fill="#EAFFF4" fill-opacity="0.501961" d="M9407 7454c0,-261 -211,-472 -472,-472 -261,0 -472,211 -472,472 0,261 211,472 472,472 261,0 472,-211 472,-472z"/>
  <path fill="#EAFFF4" fill-opacity="0.501961" d="M8059 8230c0,-261 -211,-472 -472,-472 -261,0 -472,211 -472,472 0,261 211,472 472,472 261,0 472,-211 472,-472z"/>
  <path fill="#EAFFF4" fill-opacity="0.501961" d="M6637 8585c0,-261 -211,-472 -472,-472 -261,0 -472,211 -472,472 0,261 211,472 472,472 261,0 472,-211 472,-472z"/>
  <path fill="#EAFFF4" fill-opacity="0.501961" d="M5207 8585c0,-261 -211,-472 -472,-472 -261,0 -472,211 -472,472 0,261 211,472 472,472 261,0 472,-211 472,-472z"/>
  <path fill="#EAFFF4" fill-opacity="0.501961" d="M946 4517c0,-261 -211,-472 -472,-472 -261,0 -472,211 -472,472 0,261 211,472 472,472 261,0 472,-211 472,-472z"/>
  <path fill="#EAFFF4" fill-opacity="0.501961" d="M1371 2873c0,-261 -211,-472 -472,-472 -261,0 -472,211 -472,472 0,261 211,472 472,472 261,0 472,-211 472,-472z"/>
  <path fill="#EAFFF4" fill-opacity="0.501961" d="M2436 1605c0,-261 -211,-472 -472,-472 -261,0 -472,211 -472,472 0,261 211,472 472,472 261,0 472,-211 472,-472z"/>
  <path fill="#EAFFF4" fill-opacity="0.501961" d="M3785 829c0,-261 -211,-472 -472,-472 -261,0 -472,211 -472,472 0,261 211,472 472,472 261,0 472,-211 472,-472z"/>
  <path fill="#EAFFF4" fill-opacity="0.501961" d="M5207 474c0,-261 -211,-472 -472,-472 -261,0 -472,211 -472,472 0,261 211,472 472,472 261,0 472,-211 472,-472z"/>
  <path fill="#EAFFF4" fill-opacity="0.501961" d="M6637 474c0,-261 -211,-472 -472,-472 -261,0 -472,211 -472,472 0,261 211,472 472,472 261,0 472,-211 472,-472z"/>
  <path fill="#EAFFF4" fill-opacity="0.501961" d="M1371 6186c0,-261 -211,-472 -472,-472 -261,0 -472,211 -472,472 0,261 211,472 472,472 261,0 472,-211 472,-472z"/>
  <path fill="#EAFFF4" fill-opacity="0.501961" d="M2436 7454c0,-261 -211,-472 -472,-472 -261,0 -472,211 -472,472 0,261 211,472 472,472 261,0 472,-211 472,-472z"/>
  <path fill="#EAFFF4" fill-opacity="0.501961" d="M3785 8230c0,-261 -211,-472 -472,-472 -261,0 -472,211 -472,472 0,261 211,472 472,472 261,0 472,-211 472,-472z"/>
 </g>
</svg>
