<?xml version="1.0" encoding="UTF-8"?>
<!DOCTYPE svg PUBLIC "-//W3C//DTD SVG 1.0//EN" "http://www.w3.org/TR/2001/REC-SVG-20010904/DTD/svg10.dtd">
<!-- Creator: CorelDRAW X6 -->
<svg xmlns="http://www.w3.org/2000/svg" xml:space="preserve" width="68px" height="67px" version="1.0" shape-rendering="geometricPrecision" text-rendering="geometricPrecision" image-rendering="optimizeQuality" fill-rule="evenodd" clip-rule="evenodd"
viewBox="0 0 6800 6706"
 xmlns:xlink="http://www.w3.org/1999/xlink">
 <g id="_0055.cgm:type:overlay">
  <metadata id="CorelCorpID_0Corel-Layer"/>
  <IC_ColorNameTable/>
  <PictureProperties/>
  <path fill="#9BC8A3" fill-opacity="0.501961" stroke="#9BC8A3" stroke-width="706.151" stroke-linecap="square" stroke-linejoin="round" stroke-opacity="0.501961" d="M5900 3306c0,-1381 -1119,-2500 -2500,-2500 -1381,0 -2500,1119 -2500,2500 0,1381 1119,2500 2500,2500 1381,0 2500,-1119 2500,-2500z"/>
  <path fill="#EAFFF4" fill-opacity="0.501961" d="M1046 3306c0,-260 -211,-471 -471,-471 -260,0 -471,211 -471,471 0,260 211,471 471,471 260,0 471,-211 471,-471z"/>
  <path fill="#EAFFF4" fill-opacity="0.501961" d="M427 4685c-165,-201 -136,-497 65,-662 201,-165 498,-136 662,65 165,201 136,497 -66,663 -201,165 -498,136 -662,-65z"/>
  <path fill="#EAFFF4" fill-opacity="0.501961" d="M1011 5042c-145,216 -87,509 129,653 216,144 509,86 654,-130 145,-216 87,-509 -129,-653 -216,-145 -509,-86 -653,130z"/>
  <path fill="#EAFFF4" fill-opacity="0.501961" d="M1955 6214c-165,-201 -136,-498 65,-663 201,-165 498,-136 662,65 165,201 136,498 -66,663 -201,165 -498,136 -662,-65z"/>
  <path fill="#EAFFF4" fill-opacity="0.501961" d="M2929 6130c0,-260 211,-471 471,-471 260,0 471,211 471,471 0,260 -211,471 -471,471 -260,0 -471,-211 -471,-471z"/>
  <path fill="#EAFFF4" fill-opacity="0.501961" d="M4117 6214c165,201 462,230 663,66 201,-165 230,-462 65,-663 -165,-201 -462,-231 -663,-66 -201,165 -230,461 -65,663z"/>
  <path fill="#EAFFF4" fill-opacity="0.501961" d="M5789 5565c-144,216 -437,274 -653,129 -216,-145 -275,-437 -130,-653 144,-216 437,-274 653,-129 216,145 275,437 130,653z"/>
  <path fill="#EAFFF4" fill-opacity="0.501961" d="M5646 4685c165,201 462,231 663,66 201,-165 230,-461 65,-663 -165,-201 -462,-230 -663,-66 -201,165 -230,462 -65,663z"/>
  <path fill="#EAFFF4" fill-opacity="0.501961" d="M5754 3306c0,260 211,471 471,471 260,0 471,-211 471,-471 0,-260 -211,-471 -471,-471 -260,0 -471,211 -471,471z"/>
  <path fill="#EAFFF4" fill-opacity="0.501961" d="M6373 1926c165,201 136,498 -65,663 -201,165 -498,136 -662,-65 -165,-201 -136,-498 66,-663 201,-165 498,-136 662,65z"/>
  <path fill="#EAFFF4" fill-opacity="0.501961" d="M5789 1570c145,-216 87,-509 -129,-653 -216,-144 -509,-86 -654,130 -145,216 -87,509 129,653 216,144 509,86 654,-130z"/>
  <path fill="#EAFFF4" fill-opacity="0.501961" d="M4845 397c165,201 135,497 -66,662 -201,165 -498,136 -662,-65 -165,-201 -136,-497 65,-662 201,-165 498,-136 662,65z"/>
  <path fill="#EAFFF4" fill-opacity="0.501961" stroke="#EAFFF4" stroke-width="89.6812" stroke-linecap="square" stroke-linejoin="round" stroke-opacity="0.501961" d="M3871 481c0,260 -211,471 -471,471 -260,0 -471,-211 -471,-471 0,-260 211,-471 471,-471 260,0 471,211 471,471z"/>
  <path fill="#EAFFF4" fill-opacity="0.501961" d="M2683 398c-165,-201 -462,-230 -662,-66 -201,165 -230,462 -65,663 165,201 462,230 662,65 201,-165 230,-461 65,-663z"/>
  <path fill="#EAFFF4" fill-opacity="0.501961" d="M1011 1046c145,-216 437,-274 653,-129 216,145 275,437 130,653 -144,216 -437,274 -653,129 -216,-145 -275,-437 -130,-654z"/>
  <path fill="#EAFFF4" fill-opacity="0.501961" d="M1154 1926c-165,-201 -462,-230 -662,-66 -201,165 -230,462 -65,663 165,201 462,231 663,66 201,-165 230,-462 65,-663z"/>
 </g>
</svg>
