<?xml version="1.0" encoding="UTF-8"?>
<!DOCTYPE svg PUBLIC "-//W3C//DTD SVG 1.0//EN" "http://www.w3.org/TR/2001/REC-SVG-20010904/DTD/svg10.dtd">
<!-- Creator: CorelDRAW X6 -->
<svg xmlns="http://www.w3.org/2000/svg" xml:space="preserve" width="120px" height="29px" version="1.0" shape-rendering="geometricPrecision" text-rendering="geometricPrecision" image-rendering="optimizeQuality" fill-rule="evenodd" clip-rule="evenodd"
viewBox="0 0 12000 2867"
 xmlns:xlink="http://www.w3.org/1999/xlink">
 <g id="_0060.cgm:type:overlay">
  <metadata id="CorelCorpID_0Corel-Layer"/>
  <IC_ColorNameTable/>
  <PictureProperties/>
  <polyline fill="none" fill-opacity="0.501961" stroke="#969F99" stroke-width="352.941" stroke-linecap="round" stroke-linejoin="round" stroke-opacity="0.501961" points="176,459 481,623 810,785 1267,985 1809,1186 2365,1353 2887,1478 3346,1562 3991,1641 4312,1664 "/>
  <polyline fill="none" fill-opacity="0.501961" stroke="#969F99" stroke-width="352.941" stroke-linecap="round" stroke-linejoin="round" stroke-opacity="0.501961" points="207,1767 433,1596 659,1456 924,1324 1165,1231 1351,1175 1614,1117 "/>
  <polyline fill="none" fill-opacity="0.501961" stroke="#969F99" stroke-width="352.941" stroke-linecap="round" stroke-linejoin="round" stroke-opacity="0.501961" points="2630,2674 2981,2398 3316,2170 3722,1934 4309,1664 4826,1484 5238,1378 5701,1294 6126,1249 6361,1237 6658,1235 "/>
  <polyline fill="none" fill-opacity="0.501961" stroke="#969F99" stroke-width="352.941" stroke-linecap="round" stroke-linejoin="round" stroke-opacity="0.501961" points="5888,2691 6205,2491 6467,2350 6755,2220 7126,2085 7529,1979 7920,1910 8219,1881 8632,1874 8900,1887 8996,1897 "/>
  <polyline fill="none" fill-opacity="0.501961" stroke="#969F99" stroke-width="352.941" stroke-linecap="round" stroke-linejoin="round" stroke-opacity="0.501961" points="5115,176 5478,486 5784,715 6080,912 6361,1078 6658,1235 "/>
  <polyline fill="none" fill-opacity="0.501961" stroke="#969F99" stroke-width="352.941" stroke-linecap="round" stroke-linejoin="round" stroke-opacity="0.501961" points="6658,1235 6979,1383 7397,1547 7891,1700 8365,1808 8870,1886 "/>
  <polyline fill="none" fill-opacity="0.501961" stroke="#969F99" stroke-width="352.941" stroke-linecap="round" stroke-linejoin="round" stroke-opacity="0.501961" points="8996,1893 9298,1918 9906,1918 10546,1858 11044,1768 11466,1660 11824,1544 "/>
 </g>
</svg>
