<?xml version="1.0" encoding="UTF-8"?>
<!DOCTYPE svg PUBLIC "-//W3C//DTD SVG 1.0//EN" "http://www.w3.org/TR/2001/REC-SVG-20010904/DTD/svg10.dtd">
<!-- Creator: CorelDRAW X6 -->
<svg xmlns="http://www.w3.org/2000/svg" xml:space="preserve" width="66px" height="66px" version="1.0" shape-rendering="geometricPrecision" text-rendering="geometricPrecision" image-rendering="optimizeQuality" fill-rule="evenodd" clip-rule="evenodd"
viewBox="0 0 6600 6600"
 xmlns:xlink="http://www.w3.org/1999/xlink">
 <g id="_0062.cgm:type:overlay">
  <metadata id="CorelCorpID_0Corel-Layer"/>
  <IC_ColorNameTable/>
  <PictureProperties/>
  <path fill="#000040" fill-opacity="0.501961" stroke="#000040" stroke-width="707.505" stroke-linecap="square" stroke-linejoin="round" stroke-opacity="0.501961" d="M5804 3300c0,-1383 -1121,-2504 -2504,-2504 -1383,0 -2504,1121 -2504,2504 0,1383 1121,2504 2504,2504 1383,0 2504,-1121 2504,-2504z"/>
  <path fill="#EAFFF4" fill-opacity="0.501961" d="M2 3261c-21,259 171,487 430,509 259,21 487,-171 508,-431 22,-259 -171,-487 -430,-509 -259,-22 -487,171 -508,430z"/>
  <line fill="none" fill-opacity="0.501961" stroke="#EAFFF4" stroke-width="353.635" stroke-linecap="round" stroke-linejoin="round" stroke-opacity="0.501961" x1="1727" y1="3300" x2="4873" y2= "3300" />
  <line fill="none" fill-opacity="0.501961" stroke="#EAFFF4" stroke-width="353.635" stroke-linecap="round" stroke-linejoin="round" stroke-opacity="0.501961" x1="3300" y1="4873" x2="3300" y2= "1727" />
  <path fill="#EAFFF4" fill-opacity="0.501961" d="M316 4674c-161,-205 -125,-501 79,-662 205,-161 501,-126 662,79 161,204 125,501 -79,662 -205,161 -501,126 -662,-79z"/>
  <path fill="#EAFFF4" fill-opacity="0.501961" d="M942 4994c-169,198 -146,495 52,664 198,169 495,146 664,-52 169,-198 146,-495 -52,-664 -198,-169 -495,-146 -664,52z"/>
  <path fill="#EAFFF4" fill-opacity="0.501961" d="M1764 6041c70,251 331,397 581,327 250,-70 396,-331 326,-582 -70,-251 -331,-397 -581,-327 -250,70 -397,331 -326,582z"/>
  <path fill="#EAFFF4" fill-opacity="0.501961" d="M3770 6168c-22,259 -249,452 -509,430 -259,-22 -452,-249 -430,-508 21,-259 249,-452 509,-430 259,21 452,249 431,508z"/>
  <path fill="#EAFFF4" fill-opacity="0.501961" d="M4013 6205c161,205 457,240 662,79 204,-161 240,-457 78,-662 -161,-205 -457,-240 -662,-79 -205,161 -240,457 -79,662z"/>
  <path fill="#EAFFF4" fill-opacity="0.501961" d="M5658 5606c-169,198 -466,221 -664,52 -198,-169 -221,-467 -52,-664 169,-198 466,-221 664,-52 198,169 221,467 52,664z"/>
  <path fill="#EAFFF4" fill-opacity="0.501961" d="M6368 4255c70,250 -76,511 -327,581 -251,70 -511,-76 -582,-326 -70,-250 76,-511 327,-581 251,-71 511,75 582,326z"/>
  <path fill="#EAFFF4" fill-opacity="0.501961" d="M6598 3339c22,-259 -171,-487 -430,-509 -259,-22 -487,171 -509,430 -22,259 171,487 430,509 259,21 487,-171 508,-431z"/>
  <path fill="#EAFFF4" fill-opacity="0.501961" d="M6284 1926c161,204 125,501 -79,662 -205,161 -501,126 -662,-79 -161,-204 -125,-501 79,-662 205,-161 501,-126 662,78z"/>
  <path fill="#EAFFF4" fill-opacity="0.501961" d="M5658 1606c169,-198 146,-495 -52,-664 -198,-169 -495,-146 -664,52 -169,198 -146,495 52,664 198,169 495,146 664,-52z"/>
  <path fill="#EAFFF4" fill-opacity="0.501961" d="M4836 559c-70,-251 -331,-397 -581,-327 -250,70 -397,331 -326,582 70,251 331,397 581,327 250,-70 396,-331 326,-582z"/>
  <path fill="#EAFFF4" fill-opacity="0.501961" d="M2830 432c21,-259 249,-452 509,-430 259,22 452,249 431,508 -22,259 -249,452 -509,430 -259,-22 -452,-249 -430,-509z"/>
  <path fill="#EAFFF4" fill-opacity="0.501961" d="M2588 395c-161,-205 -457,-240 -662,-79 -204,161 -240,457 -79,662 161,205 457,240 662,79 204,-161 240,-457 79,-662z"/>
  <path fill="#EAFFF4" fill-opacity="0.501961" d="M942 994c169,-198 467,-221 664,-52 198,169 221,467 52,664 -169,198 -467,221 -664,52 -198,-169 -221,-467 -52,-664z"/>
  <path fill="#EAFFF4" fill-opacity="0.501961" d="M232 2345c-70,-250 76,-511 327,-581 251,-71 511,75 582,326 70,250 -76,511 -327,581 -251,70 -511,-76 -582,-326z"/>
 </g>
</svg>
