<?xml version="1.0" encoding="UTF-8"?>
<!DOCTYPE svg PUBLIC "-//W3C//DTD SVG 1.0//EN" "http://www.w3.org/TR/2001/REC-SVG-20010904/DTD/svg10.dtd">
<!-- Creator: CorelDRAW X6 -->
<svg xmlns="http://www.w3.org/2000/svg" xml:space="preserve" width="87px" height="64px" version="1.0" shape-rendering="geometricPrecision" text-rendering="geometricPrecision" image-rendering="optimizeQuality" fill-rule="evenodd" clip-rule="evenodd"
viewBox="0 0 8700 6345"
 xmlns:xlink="http://www.w3.org/1999/xlink">
 <g id="_0065.cgm:type:overlay">
  <metadata id="CorelCorpID_0Corel-Layer"/>
  <IC_ColorNameTable/>
  <PictureProperties/>
  <path fill="#000040" fill-opacity="0.501961" d="M7883 3172c0,1301 -1582,2355 -3533,2355 -1951,0 -3533,-1054 -3533,-2355 0,-1301 1582,-2355 3533,-2355 1951,0 3533,1054 3533,2355z"/>
  <line fill="none" fill-opacity="0.501961" stroke="#EAFFF4" stroke-width="209.223" stroke-linecap="round" stroke-linejoin="round" stroke-opacity="0.501961" x1="1406" y1="3172" x2="7294" y2= "3172" />
  <line fill="none" fill-opacity="0.501961" stroke="#EAFFF4" stroke-width="209.223" stroke-linecap="round" stroke-linejoin="round" stroke-opacity="0.501961" x1="4350" y1="1406" x2="4350" y2= "4939" />
  <line fill="none" fill-opacity="0.501961" stroke="#EAFFF4" stroke-width="209.223" stroke-linecap="round" stroke-linejoin="round" stroke-opacity="0.501961" x1="2583" y1="1995" x2="2583" y2= "4350" />
  <line fill="none" fill-opacity="0.501961" stroke="#EAFFF4" stroke-width="209.223" stroke-linecap="round" stroke-linejoin="round" stroke-opacity="0.501961" x1="6117" y1="1995" x2="6117" y2= "4350" />
  <path fill="#EAFFF4" fill-opacity="0.501961" d="M7705 3172c0,-260 211,-471 471,-471 260,0 471,211 471,471 0,260 -211,471 -471,471 -260,0 -471,-211 -471,-471z"/>
  <path fill="#EAFFF4" fill-opacity="0.501961" d="M995 3172c0,-260 -211,-471 -471,-471 -260,0 -471,211 -471,471 0,260 211,471 471,471 260,0 471,-211 471,-471z"/>
  <path fill="#EAFFF4" fill-opacity="0.501961" d="M4821 523c0,-260 -211,-471 -471,-471 -260,0 -471,211 -471,471 0,260 211,471 471,471 260,0 471,-211 471,-471z"/>
  <path fill="#EAFFF4" fill-opacity="0.501961" d="M3879 5822c0,-260 211,-471 471,-471 260,0 471,211 471,471 0,260 -211,471 -471,471 -260,0 -471,-211 -471,-471z"/>
  <path fill="#EAFFF4" fill-opacity="0.501961" d="M3448 379c-184,-184 -482,-184 -666,0 -184,184 -184,482 0,666 184,184 482,184 666,0 184,-184 184,-482 0,-666z"/>
  <path fill="#EAFFF4" fill-opacity="0.501961" d="M5252 379c184,-184 482,-184 666,0 184,184 184,482 0,666 -184,184 -482,184 -666,0 -184,-184 -184,-482 0,-666z"/>
  <path fill="#EAFFF4" fill-opacity="0.501961" d="M5150 5453c99,-240 375,-354 615,-255 240,100 355,375 255,615 -99,240 -375,354 -615,255 -240,-99 -355,-375 -255,-615z"/>
  <path fill="#EAFFF4" fill-opacity="0.501961" d="M2644 5633c0,-260 211,-471 471,-471 260,0 471,211 471,471 0,260 -211,471 -471,471 -260,0 -471,-211 -471,-471z"/>
  <path fill="#EAFFF4" fill-opacity="0.501961" d="M7095 4863c-184,-184 -482,-184 -666,0 -184,184 -184,482 0,666 184,184 482,184 666,0 184,-184 184,-482 0,-666z"/>
  <path fill="#EAFFF4" fill-opacity="0.501961" d="M1467 5195c0,260 211,471 471,471 260,0 471,-211 471,-471 0,-260 -211,-471 -471,-471 -260,0 -471,211 -471,471z"/>
  <path fill="#EAFFF4" fill-opacity="0.501961" d="M1502 1330c100,240 375,354 616,255 240,-100 355,-375 255,-615 -100,-240 -375,-354 -616,-255 -240,99 -355,375 -255,615z"/>
  <path fill="#EAFFF4" fill-opacity="0.501961" d="M6327 970c99,-240 375,-355 615,-255 240,100 354,375 255,616 -100,240 -375,355 -615,255 -240,-99 -354,-375 -255,-615z"/>
  <path fill="#EAFFF4" fill-opacity="0.501961" d="M7272 2184c-100,-240 14,-516 255,-615 240,-99 516,15 615,255 99,240 -14,516 -255,615 -240,99 -516,-15 -615,-255z"/>
  <path fill="#EAFFF4" fill-opacity="0.501961" d="M558 2184c-99,-240 15,-516 255,-615 240,-99 516,15 615,255 99,240 -15,516 -255,615 -240,99 -516,-15 -615,-255z"/>
  <path fill="#EAFFF4" fill-opacity="0.501961" d="M558 4160c99,-240 375,-355 615,-255 240,99 354,375 255,616 -100,240 -375,355 -615,255 -240,-100 -354,-375 -255,-616z"/>
  <path fill="#EAFFF4" fill-opacity="0.501961" d="M7235 4340c0,-260 211,-471 471,-471 260,0 471,211 471,472 0,260 -211,471 -471,471 -260,0 -471,-211 -471,-472z"/>
 </g>
</svg>
