<?xml version="1.0" encoding="UTF-8"?>
<!DOCTYPE svg PUBLIC "-//W3C//DTD SVG 1.0//EN" "http://www.w3.org/TR/2001/REC-SVG-20010904/DTD/svg10.dtd">
<!-- Creator: CorelDRAW X6 -->
<svg xmlns="http://www.w3.org/2000/svg" xml:space="preserve" width="77px" height="62px" version="1.0" shape-rendering="geometricPrecision" text-rendering="geometricPrecision" image-rendering="optimizeQuality" fill-rule="evenodd" clip-rule="evenodd"
viewBox="0 0 7700 6155"
 xmlns:xlink="http://www.w3.org/1999/xlink">
 <g id="_0301.cgm:type:overlay">
  <metadata id="CorelCorpID_0Corel-Layer"/>
  <IC_ColorNameTable/>
  <PictureProperties/>
  <polygon fill="#EAFFF4" fill-opacity="0.501961" points="3038,5430 6,5430 6,4722 3038,4722 "/>
  <polygon fill="#EAFFF4" fill-opacity="0.501961" points="4662,4722 7694,4722 7694,5430 4662,5430 "/>
  <path fill="none" fill-opacity="0.501961" stroke="#EAFFF4" stroke-width="471.419" stroke-linecap="square" stroke-linejoin="round" stroke-opacity="0.501961" d="M4693 5076c0,-466 -377,-843 -843,-843 -466,0 -843,377 -843,843 0,466 377,843 843,843 466,0 843,-377 843,-843z"/>
  <line fill="none" fill-opacity="0.501961" stroke="#EAFFF4" stroke-width="825.278" stroke-linecap="round" stroke-linejoin="round" stroke-opacity="0.501961" x1="856" y1="4722" x2="856" y2= "2730" />
  <line fill="none" fill-opacity="0.501961" stroke="#EAFFF4" stroke-width="825.278" stroke-linecap="round" stroke-linejoin="round" stroke-opacity="0.501961" x1="6844" y1="4722" x2="6844" y2= "2730" />
  <path fill="none" fill-opacity="0.501961" stroke="#EAFFF4" stroke-width="825.278" stroke-linecap="round" stroke-linejoin="round" stroke-opacity="0.501961" d="M6869 2783c-640,-1479 -1795,-2398 -3019,-2398 -1196,0 -2351,899 -2991,2338"/>
  <line fill="none" fill-opacity="0.501961" stroke="#EAFFF4" stroke-width="825.278" stroke-linecap="round" stroke-linejoin="round" stroke-opacity="0.501961" x1="2393" y1="4840" x2="2393" y2= "3006" />
  <path fill="none" fill-opacity="0.501961" stroke="#EAFFF4" stroke-width="825.278" stroke-linecap="round" stroke-linejoin="round" stroke-opacity="0.501961" d="M2418 3058c-181,-420 -431,-819 -682,-1139"/>
 </g>
</svg>
