<?xml version="1.0" encoding="UTF-8"?>
<!DOCTYPE svg PUBLIC "-//W3C//DTD SVG 1.0//EN" "http://www.w3.org/TR/2001/REC-SVG-20010904/DTD/svg10.dtd">
<!-- Creator: CorelDRAW X6 -->
<svg xmlns="http://www.w3.org/2000/svg" xml:space="preserve" width="81px" height="57px" version="1.0" shape-rendering="geometricPrecision" text-rendering="geometricPrecision" image-rendering="optimizeQuality" fill-rule="evenodd" clip-rule="evenodd"
viewBox="0 0 8100 5759"
 xmlns:xlink="http://www.w3.org/1999/xlink">
 <g id="_0302.cgm:type:overlay">
  <metadata id="CorelCorpID_0Corel-Layer"/>
  <IC_ColorNameTable/>
  <PictureProperties/>
  <polygon fill="#EAFFF4" fill-opacity="0.501961" stroke="#EAFFF4" stroke-width="90.2949" stroke-linecap="square" stroke-linejoin="round" stroke-opacity="0.501961" points="2749,4991 4,4991 4,4162 2749,4162 "/>
  <polygon fill="#EAFFF4" fill-opacity="0.501961" stroke="#EAFFF4" stroke-width="90.2949" stroke-linecap="square" stroke-linejoin="round" stroke-opacity="0.501961" points="4360,4162 7104,4162 7104,4991 4360,4991 "/>
  <path fill="none" fill-opacity="0.501961" stroke="#EAFFF4" stroke-width="711.339" stroke-linecap="square" stroke-linejoin="round" stroke-opacity="0.501961" d="M4381 4576c0,-457 -370,-827 -827,-827 -457,0 -827,370 -827,827 0,457 370,827 827,827 457,0 827,-370 827,-827z"/>
  <polygon fill="#EAFFF4" fill-opacity="0.501961" stroke="#EAFFF4" stroke-width="90.2949" stroke-linecap="square" stroke-linejoin="round" stroke-opacity="0.501961" points="297,4162 1365,8 8093,8 7023,4162 6153,4162 7007,841 2037,841 1182,4162 "/>
 </g>
</svg>
