<?xml version="1.0" encoding="UTF-8"?>
<!DOCTYPE svg PUBLIC "-//W3C//DTD SVG 1.0//EN" "http://www.w3.org/TR/2001/REC-SVG-20010904/DTD/svg10.dtd">
<!-- Creator: CorelDRAW X6 -->
<svg xmlns="http://www.w3.org/2000/svg" xml:space="preserve" width="76px" height="78px" version="1.0" shape-rendering="geometricPrecision" text-rendering="geometricPrecision" image-rendering="optimizeQuality" fill-rule="evenodd" clip-rule="evenodd"
viewBox="0 0 7600 7821"
 xmlns:xlink="http://www.w3.org/1999/xlink">
 <g id="_0304.cgm:type:overlay">
  <metadata id="CorelCorpID_0Corel-Layer"/>
  <IC_ColorNameTable/>
  <PictureProperties/>
  <polygon fill="#EAFFF4" fill-opacity="0.501961" points="3016,7122 2,7122 2,6081 3016,6081 "/>
  <polygon fill="#EAFFF4" fill-opacity="0.501961" points="4584,6079 7598,6079 7598,7121 4584,7121 "/>
  <path fill="none" fill-opacity="0.501961" stroke="#EAFFF4" stroke-width="825.841" stroke-linecap="square" stroke-linejoin="round" stroke-opacity="0.501961" d="M4608 6600c0,-446 -362,-808 -808,-808 -446,0 -808,362 -808,808 0,446 362,808 808,808 446,0 808,-362 808,-808z"/>
  <line fill="none" fill-opacity="0.501961" stroke="#EAFFF4" stroke-width="825.841" stroke-linecap="round" stroke-linejoin="round" stroke-opacity="0.501961" x1="648" y1="6600" x2="648" y2= "4315" />
  <line fill="none" fill-opacity="0.501961" stroke="#EAFFF4" stroke-width="825.841" stroke-linecap="round" stroke-linejoin="round" stroke-opacity="0.501961" x1="6952" y1="6600" x2="6952" y2= "4315" />
  <path fill="none" fill-opacity="0.501961" stroke="#EAFFF4" stroke-width="825.841" stroke-linecap="round" stroke-linejoin="round" stroke-opacity="0.501961" d="M6977 4366c-674,-1440 -1889,-2335 -3177,-2335 -1259,0 -2475,876 -3148,2277"/>
  <path fill="none" fill-opacity="0.501961" stroke="#EAFFF4" stroke-width="825.841" stroke-linecap="square" stroke-linejoin="round" stroke-opacity="0.501961" d="M3164 1643c-247,-357 -157,-847 200,-1094 357,-247 847,-158 1094,199 247,357 157,847 -200,1094 -357,247 -847,158 -1094,-199z"/>
  <line fill="none" fill-opacity="0.501961" stroke="#EAFFF4" stroke-width="825.841" stroke-linecap="round" stroke-linejoin="round" stroke-opacity="0.501961" x1="2081" y1="6600" x2="2081" y2= "4315" />
  <path fill="none" fill-opacity="0.501961" stroke="#EAFFF4" stroke-width="825.841" stroke-linecap="round" stroke-linejoin="round" stroke-opacity="0.501961" d="M2107 4366c-161,-350 -381,-701 -615,-992"/>
 </g>
</svg>
