<?xml version="1.0" encoding="UTF-8"?>
<!DOCTYPE svg PUBLIC "-//W3C//DTD SVG 1.0//EN" "http://www.w3.org/TR/2001/REC-SVG-20010904/DTD/svg10.dtd">
<!-- Creator: CorelDRAW X6 -->
<svg xmlns="http://www.w3.org/2000/svg" xml:space="preserve" width="71px" height="66px" version="1.0" shape-rendering="geometricPrecision" text-rendering="geometricPrecision" image-rendering="optimizeQuality" fill-rule="evenodd" clip-rule="evenodd"
viewBox="0 0 7100 6543"
 xmlns:xlink="http://www.w3.org/1999/xlink">
 <g id="_0307.cgm:type:overlay">
  <metadata id="CorelCorpID_0Corel-Layer"/>
  <IC_ColorNameTable/>
  <PictureProperties/>
  <path fill="none" fill-opacity="0.501961" stroke="#EAFFF4" stroke-width="822.076" stroke-linecap="round" stroke-linejoin="round" stroke-opacity="0.501961" d="M6471 4771c665,-1585 -80,-3435 -1656,-4122 -1598,-697 -3470,38 -4167,1636 -341,782 -348,1696 -25,2471"/>
  <polygon fill="#EAFFF4" fill-opacity="0.501961" stroke="#EAFFF4" stroke-width="89.4632" stroke-linecap="square" stroke-linejoin="round" stroke-opacity="0.501961" points="2769,5757 128,5757 128,4935 2769,4935 "/>
  <polygon fill="#EAFFF4" fill-opacity="0.501961" stroke="#EAFFF4" stroke-width="89.4632" stroke-linecap="square" stroke-linejoin="round" stroke-opacity="0.501961" points="4298,4935 6938,4935 6938,5757 4298,5757 "/>
  <path fill="none" fill-opacity="0.501961" stroke="#EAFFF4" stroke-width="822.076" stroke-linecap="square" stroke-linejoin="round" stroke-opacity="0.501961" d="M4320 5346c0,-434 -352,-787 -787,-787 -434,0 -787,352 -787,787 0,434 352,787 787,787 434,0 787,-352 787,-787z"/>
  <line fill="none" fill-opacity="0.501961" stroke="#EAFFF4" stroke-width="822.076" stroke-linecap="round" stroke-linejoin="round" stroke-opacity="0.501961" x1="626" y1="4763" x2="903" y2= "5184" />
  <line fill="none" fill-opacity="0.501961" stroke="#EAFFF4" stroke-width="822.076" stroke-linecap="round" stroke-linejoin="round" stroke-opacity="0.501961" x1="6475" y1="4763" x2="5945" y2= "5312" />
 </g>
</svg>
