<?xml version="1.0" encoding="UTF-8"?>
<!DOCTYPE svg PUBLIC "-//W3C//DTD SVG 1.0//EN" "http://www.w3.org/TR/2001/REC-SVG-20010904/DTD/svg10.dtd">
<!-- Creator: CorelDRAW X6 -->
<svg xmlns="http://www.w3.org/2000/svg" xml:space="preserve" width="49px" height="47px" version="1.0" shape-rendering="geometricPrecision" text-rendering="geometricPrecision" image-rendering="optimizeQuality" fill-rule="evenodd" clip-rule="evenodd"
viewBox="0 0 4900 4701"
 xmlns:xlink="http://www.w3.org/1999/xlink">
 <g id="_0401.cgm:type:overlay">
  <metadata id="CorelCorpID_0Corel-Layer"/>
  <IC_ColorNameTable/>
  <PictureProperties/>
  <polyline fill="none" fill-opacity="0.501961" stroke="#EBB7ED" stroke-width="588.457" stroke-linecap="round" stroke-linejoin="round" stroke-opacity="0.501961" points="2642,294 2664,346 2705,439 2750,531 2798,621 2849,710 2903,796 2960,881 3020,963 3083,1044 3148,1122 3217,1198 3287,1271 3361,1342 3437,1410 3515,1476 3595,1539 3678,1599 3763,1656 3849,1710 3937,1761 4027,1809 4119,1853 4213,1895 4307,1933 4403,1968 4606,2030 "/>
  <polyline fill="none" fill-opacity="0.501961" stroke="#EBB7ED" stroke-width="588.457" stroke-linecap="round" stroke-linejoin="round" stroke-opacity="0.501961" points="1461,817 1489,886 1547,1014 1608,1141 1674,1265 1745,1387 1819,1507 1898,1624 1981,1737 2068,1848 2158,1956 2252,2061 2350,2162 2451,2260 2556,2354 2664,2445 2775,2531 2889,2614 3005,2693 3125,2767 3247,2838 3371,2904 3498,2966 3626,3023 3757,3076 3889,3124 4168,3209 "/>
  <polyline fill="none" fill-opacity="0.501961" stroke="#EBB7ED" stroke-width="588.457" stroke-linecap="round" stroke-linejoin="round" stroke-opacity="0.501961" points="294,1409 331,1497 402,1658 480,1816 562,1972 651,2125 744,2274 843,2421 946,2563 1055,2702 1168,2837 1286,2968 1409,3095 1535,3218 1667,3335 1802,3449 1940,3557 2083,3661 2229,3760 2379,3853 2531,3941 2687,4024 2846,4101 3007,4173 3170,4239 3336,4300 3688,4406 "/>
 </g>
</svg>
