<?xml version="1.0" encoding="UTF-8"?>
<!DOCTYPE svg PUBLIC "-//W3C//DTD SVG 1.0//EN" "http://www.w3.org/TR/2001/REC-SVG-20010904/DTD/svg10.dtd">
<!-- Creator: CorelDRAW X6 -->
<svg xmlns="http://www.w3.org/2000/svg" xml:space="preserve" width="104px" height="45px" version="1.0" shape-rendering="geometricPrecision" text-rendering="geometricPrecision" image-rendering="optimizeQuality" fill-rule="evenodd" clip-rule="evenodd"
viewBox="0 0 10400 4457"
 xmlns:xlink="http://www.w3.org/1999/xlink">
 <g id="_0513.cgm:type:overlay">
  <metadata id="CorelCorpID_0Corel-Layer"/>
  <IC_ColorNameTable/>
  <PictureProperties/>
  <polygon fill="#EAFFF4" fill-opacity="0.501961" stroke="#EAFFF4" stroke-width="89.9891" stroke-linecap="square" stroke-linejoin="round" stroke-opacity="0.501961" points="4454,3688 4,3688 4,2862 4454,2862 "/>
  <polygon fill="#EAFFF4" fill-opacity="0.501961" stroke="#EAFFF4" stroke-width="89.9891" stroke-linecap="square" stroke-linejoin="round" stroke-opacity="0.501961" points="5946,2862 10396,2862 10396,3688 5946,3688 "/>
  <path fill="none" fill-opacity="0.501961" stroke="#EAFFF4" stroke-width="826.79" stroke-linecap="square" stroke-linejoin="round" stroke-opacity="0.501961" d="M5969 3275c0,-425 -344,-769 -769,-769 -425,0 -769,344 -769,769 0,425 344,769 769,769 425,0 769,-344 769,-769z"/>
  <polyline fill="none" fill-opacity="0.501961" stroke="#EAFFF4" stroke-width="826.79" stroke-linecap="round" stroke-linejoin="round" stroke-opacity="0.501961" points="1474,3275 542,986 3027,1558 3648,413 6752,413 7373,1558 9858,986 8926,3275 "/>
  <line fill="none" fill-opacity="0.501961" stroke="#EAFFF4" stroke-width="826.79" stroke-linecap="round" stroke-linejoin="round" stroke-opacity="0.501961" x1="3027" y1="1558" x2="7373" y2= "1558" />
 </g>
</svg>
