<?xml version="1.0" encoding="UTF-8"?>
<!DOCTYPE svg PUBLIC "-//W3C//DTD SVG 1.0//EN" "http://www.w3.org/TR/2001/REC-SVG-20010904/DTD/svg10.dtd">
<!-- Creator: CorelDRAW X6 -->
<svg xmlns="http://www.w3.org/2000/svg" xml:space="preserve" width="104px" height="82px" version="1.0" shape-rendering="geometricPrecision" text-rendering="geometricPrecision" image-rendering="optimizeQuality" fill-rule="evenodd" clip-rule="evenodd"
viewBox="0 0 10400 8252"
 xmlns:xlink="http://www.w3.org/1999/xlink">
 <g id="_0514.cgm:type:overlay">
  <metadata id="CorelCorpID_0Corel-Layer"/>
  <IC_ColorNameTable/>
  <PictureProperties/>
  <polygon fill="#EAFFF4" fill-opacity="0.501961" stroke="#EAFFF4" stroke-width="90.0402" stroke-linecap="square" stroke-linejoin="round" stroke-opacity="0.501961" points="4446,7474 1,7474 1,6647 4446,6647 "/>
  <polygon fill="#EAFFF4" fill-opacity="0.501961" stroke="#EAFFF4" stroke-width="90.0402" stroke-linecap="square" stroke-linejoin="round" stroke-opacity="0.501961" points="5954,6647 10399,6647 10399,7474 5954,7474 "/>
  <path fill="none" fill-opacity="0.501961" stroke="#EAFFF4" stroke-width="827.259" stroke-linecap="square" stroke-linejoin="round" stroke-opacity="0.501961" d="M5978 7060c0,-430 -348,-778 -778,-778 -430,0 -778,348 -778,778 0,430 348,778 778,778 430,0 778,-348 778,-778z"/>
  <polyline fill="none" fill-opacity="0.501961" stroke="#EAFFF4" stroke-width="827.259" stroke-linecap="round" stroke-linejoin="round" stroke-opacity="0.501961" points="7344,5265 9794,4667 8876,7060 "/>
  <polyline fill="none" fill-opacity="0.501961" stroke="#EAFFF4" stroke-width="827.259" stroke-linecap="round" stroke-linejoin="round" stroke-opacity="0.501961" points="1524,7060 606,4667 3056,5265 "/>
  <line fill="none" fill-opacity="0.501961" stroke="#EAFFF4" stroke-width="827.259" stroke-linecap="round" stroke-linejoin="round" stroke-opacity="0.501961" x1="3056" y1="5265" x2="7344" y2= "5265" />
  <polygon fill="#EAFFF4" fill-opacity="0.501961" stroke="#EAFFF4" stroke-width="90.0402" stroke-linecap="square" stroke-linejoin="round" stroke-opacity="0.501961" points="3798,769 4153,156 6608,1573 6254,2187 "/>
  <polygon fill="#EAFFF4" fill-opacity="0.501961" stroke="#EAFFF4" stroke-width="90.0402" stroke-linecap="square" stroke-linejoin="round" stroke-opacity="0.501961" points="3467,4872 3467,2967 2646,2967 2646,4872 "/>
  <polygon fill="#EAFFF4" fill-opacity="0.501961" stroke="#EAFFF4" stroke-width="90.0402" stroke-linecap="square" stroke-linejoin="round" stroke-opacity="0.501961" points="6928,4864 6928,2959 7767,2959 7767,4864 "/>
  <polygon fill="#EAFFF4" fill-opacity="0.501961" stroke="#EAFFF4" stroke-width="90.0402" stroke-linecap="square" stroke-linejoin="round" stroke-opacity="0.501961" points="4779,4887 4779,0 5627,0 5627,4887 "/>
  <polygon fill="#EAFFF4" fill-opacity="0.501961" points="8976,5895 8976,6486 7153,6486 7152,5895 "/>
  <polygon fill="#EAFFF4" fill-opacity="0.501961" points="1501,5852 1501,6444 3325,6444 3325,5852 "/>
  <polygon fill="#EAFFF4" fill-opacity="0.501961" stroke="#EAFFF4" stroke-width="90.0402" stroke-linecap="square" stroke-linejoin="round" stroke-opacity="0.501961" points="4153,2187 3798,1573 6254,156 6608,769 "/>
 </g>
</svg>
