<?xml version="1.0" encoding="UTF-8"?>
<!DOCTYPE svg PUBLIC "-//W3C//DTD SVG 1.0//EN" "http://www.w3.org/TR/2001/REC-SVG-20010904/DTD/svg10.dtd">
<!-- Creator: CorelDRAW X6 -->
<svg xmlns="http://www.w3.org/2000/svg" xml:space="preserve" width="410px" height="166px" version="1.0" shape-rendering="geometricPrecision" text-rendering="geometricPrecision" image-rendering="optimizeQuality" fill-rule="evenodd" clip-rule="evenodd"
viewBox="0 0 41000 16579"
 xmlns:xlink="http://www.w3.org/1999/xlink">
 <g id="_0722.cgm:type:overlay">
  <metadata id="CorelCorpID_0Corel-Layer"/>
  <IC_ColorNameTable/>
  <PictureProperties/>
  <polygon fill="#DE4BC9" fill-opacity="0.501961" stroke="#DE4BC9" stroke-width="90.0813" stroke-linecap="square" stroke-linejoin="round" stroke-opacity="0.501961" points="8,14849 212,15406 1599,14902 2206,16571 2761,16370 2151,14693 3545,14186 3341,13636 "/>
  <polygon fill="#DE4BC9" fill-opacity="0.501961" stroke="#DE4BC9" stroke-width="90.0813" stroke-linecap="square" stroke-linejoin="round" stroke-opacity="0.501961" points="5368,12900 5570,13455 6957,12950 7565,14620 8119,14420 7509,12744 8904,12234 8699,11687 "/>
  <polygon fill="#DE4BC9" fill-opacity="0.501961" stroke="#DE4BC9" stroke-width="90.0813" stroke-linecap="square" stroke-linejoin="round" stroke-opacity="0.501961" points="10709,10956 10911,11511 12300,11006 12908,12676 13460,12476 12850,10800 14244,10290 14043,9743 "/>
  <polygon fill="#DE4BC9" fill-opacity="0.501961" stroke="#DE4BC9" stroke-width="90.0813" stroke-linecap="square" stroke-linejoin="round" stroke-opacity="0.501961" points="16060,9007 16261,9564 17651,9060 18258,10729 18811,10527 18200,8850 19595,8344 19391,7794 "/>
  <polygon fill="#DE4BC9" fill-opacity="0.501961" stroke="#DE4BC9" stroke-width="90.0813" stroke-linecap="square" stroke-linejoin="round" stroke-opacity="0.501961" points="21408,7060 21612,7618 22999,7113 23607,8782 24161,8581 23551,6904 24945,6397 24741,5847 "/>
  <polygon fill="#DE4BC9" fill-opacity="0.501961" stroke="#DE4BC9" stroke-width="90.0813" stroke-linecap="square" stroke-linejoin="round" stroke-opacity="0.501961" points="26758,5114 26960,5671 28349,5164 28957,6836 29509,6634 28899,4957 30294,4451 30092,3901 "/>
  <polygon fill="#DE4BC9" fill-opacity="0.501961" stroke="#DE4BC9" stroke-width="90.0813" stroke-linecap="square" stroke-linejoin="round" stroke-opacity="0.501961" points="32107,3167 32311,3724 33698,3217 34305,4889 34860,4688 34250,3011 35644,2504 35440,1954 "/>
  <polygon fill="#DE4BC9" fill-opacity="0.501961" stroke="#DE4BC9" stroke-width="90.0813" stroke-linecap="square" stroke-linejoin="round" stroke-opacity="0.501961" points="37457,1220 37659,1775 39048,1271 39656,2940 40208,2741 39598,1064 40992,555 40791,8 "/>
 </g>
</svg>
