<?xml version="1.0" encoding="UTF-8"?>
<!DOCTYPE svg PUBLIC "-//W3C//DTD SVG 1.0//EN" "http://www.w3.org/TR/2001/REC-SVG-20010904/DTD/svg10.dtd">
<!-- Creator: CorelDRAW X6 -->
<svg xmlns="http://www.w3.org/2000/svg" xml:space="preserve" width="1852px" height="702px" version="1.0" shape-rendering="geometricPrecision" text-rendering="geometricPrecision" image-rendering="optimizeQuality" fill-rule="evenodd" clip-rule="evenodd"
viewBox="0 0 185200 70190"
 xmlns:xlink="http://www.w3.org/1999/xlink">
 <g id="_0724.cgm:type:overlay">
  <metadata id="CorelCorpID_0Corel-Layer"/>
  <IC_ColorNameTable/>
  <PictureProperties/>
  <line fill="none" fill-opacity="0.501961" stroke="#DE4BCB" stroke-width="296.575" stroke-opacity="0.501961" x1="148" y1="69814" x2="3924" y2= "68433" />
  <line fill="none" fill-opacity="0.501961" stroke="#DE4BCB" stroke-width="296.575" stroke-opacity="0.501961" x1="3479" y1="66711" x2="6308" y2= "67566" />
  <line fill="none" fill-opacity="0.501961" stroke="#DE4BCB" stroke-width="296.575" stroke-opacity="0.501961" x1="6308" y1="67566" x2="4689" y2= "70042" />
  <line fill="none" fill-opacity="0.501961" stroke="#DE4BCB" stroke-width="296.575" stroke-opacity="0.501961" x1="8373" y1="66813" x2="12160" y2= "65444" />
  <polygon fill="#DE4BCB" fill-opacity="0.501961" points="18503,64692 16233,61269 16644,61121 18092,63403 18491,64098 18423,63345 18172,60562 18674,60380 19838,62045 20271,62672 20659,63300 20568,62501 20203,59821 20613,59672 21081,63756 20670,63893 18845,61281 18571,60950 18663,61463 18959,64520 "/>
  <polygon fill="#DE4BCB" fill-opacity="0.501961" points="14670,66083 13301,62330 14430,61920 14750,61805 14989,61783 15297,61783 15583,61862 15925,62102 16176,62364 16415,62752 16644,63209 16792,63631 16815,63984 16837,64338 16803,64646 16723,64851 16644,65068 16507,65239 16324,65422 16107,65558 15845,65661 14670,66083 14921,65513 15640,65251 15913,65148 16119,65011 16267,64840 16358,64692 16415,64429 16415,64133 16381,63779 16233,63357 16142,63094 15993,62855 15879,62661 15731,62536 15583,62410 15446,62330 15320,62262 15149,62205 14898,62228 14544,62364 13860,62615 14921,65513 "/>
  <polygon fill="#DE4BCB" fill-opacity="0.501961" points="15218,66722 15354,67099 21435,64886 21298,64509 "/>
  <line fill="none" fill-opacity="0.501961" stroke="#DE4BCB" stroke-width="296.575" stroke-opacity="0.501961" x1="23568" y1="61292" x2="27309" y2= "59935" />
  <line fill="none" fill-opacity="0.501961" stroke="#DE4BCB" stroke-width="296.575" stroke-opacity="0.501961" x1="26865" y1="58201" x2="29682" y2= "59068" />
  <line fill="none" fill-opacity="0.501961" stroke="#DE4BCB" stroke-width="296.575" stroke-opacity="0.501961" x1="29682" y1="59068" x2="28074" y2= "61532" />
  <line fill="none" fill-opacity="0.501961" stroke="#DE4BCB" stroke-width="296.575" stroke-opacity="0.501961" x1="31758" y1="58315" x2="35534" y2= "56935" />
  <polygon fill="#DE4BCB" fill-opacity="0.501961" points="41877,56182 39618,52759 40017,52611 41466,54893 41865,55588 41797,54835 41557,52052 42048,51870 43223,53535 43656,54162 44033,54801 43953,53991 43588,51311 43987,51162 44455,55246 44044,55395 42219,52771 41957,52451 42036,52953 42333,56010 "/>
  <polygon fill="#DE4BCB" fill-opacity="0.501961" points="38044,57573 36686,53832 37816,53421 38124,53296 38375,53273 38683,53284 38968,53352 39299,53592 39550,53854 39801,54242 40017,54710 40166,55132 40200,55474 40223,55828 40177,56136 40109,56341 40029,56558 39880,56729 39698,56912 39493,57049 39219,57151 38044,57573 38295,57003 39025,56741 39287,56638 39493,56512 39641,56341 39732,56182 39801,55919 39789,55623 39766,55280 39607,54858 39516,54585 39379,54345 39253,54151 39105,54026 38956,53900 38831,53820 38694,53752 38523,53695 38283,53718 37918,53854 37245,54105 38295,57003 "/>
  <polygon fill="#DE4BCB" fill-opacity="0.501961" points="38591,58212 38728,58589 44820,56376 44683,55999 "/>
  <line fill="none" fill-opacity="0.501961" stroke="#DE4BCB" stroke-width="296.575" stroke-opacity="0.501961" x1="46907" y1="52794" x2="50683" y2= "51425" />
  <line fill="none" fill-opacity="0.501961" stroke="#DE4BCB" stroke-width="296.575" stroke-opacity="0.501961" x1="50239" y1="49691" x2="53067" y2= "50558" />
  <line fill="none" fill-opacity="0.501961" stroke="#DE4BCB" stroke-width="296.575" stroke-opacity="0.501961" x1="53067" y1="50558" x2="51448" y2= "53022" />
  <line fill="none" fill-opacity="0.501961" stroke="#DE4BCB" stroke-width="296.575" stroke-opacity="0.501961" x1="55132" y1="49805" x2="58908" y2= "48425" />
  <polygon fill="#DE4BCB" fill-opacity="0.501961" points="65262,47672 62992,44249 63403,44101 64840,46383 65251,47078 65182,46326 64931,43542 65433,43360 66597,45025 67030,45653 67418,46291 67327,45481 66962,42801 67372,42652 67829,46736 67429,46885 65604,44261 65331,43941 65410,44443 65707,47500 "/>
  <polygon fill="#DE4BCB" fill-opacity="0.501961" points="61429,49063 60060,45322 61190,44911 61509,44797 61749,44763 62057,44774 62342,44843 62684,45082 62935,45344 63175,45732 63391,46200 63551,46622 63574,46964 63597,47318 63562,47626 63482,47843 63403,48048 63266,48219 63072,48402 62867,48539 62593,48641 61429,49063 61680,48493 62399,48231 62673,48128 62878,48002 63015,47831 63118,47672 63175,47409 63163,47113 63140,46770 62992,46348 62889,46075 62752,45835 62627,45641 62479,45516 62330,45390 62205,45310 62079,45242 61908,45185 61657,45219 61292,45344 60619,45595 61680,48493 "/>
  <polygon fill="#DE4BCB" fill-opacity="0.501961" points="61965,49702 62102,50079 68194,47866 68057,47489 "/>
  <line fill="none" fill-opacity="0.501961" stroke="#DE4BCB" stroke-width="296.575" stroke-opacity="0.501961" x1="70281" y1="44284" x2="74057" y2= "42915" />
  <line fill="none" fill-opacity="0.501961" stroke="#DE4BCB" stroke-width="296.575" stroke-opacity="0.501961" x1="73612" y1="41192" x2="76441" y2= "42048" />
  <line fill="none" fill-opacity="0.501961" stroke="#DE4BCB" stroke-width="296.575" stroke-opacity="0.501961" x1="76441" y1="42048" x2="74833" y2= "44523" />
  <line fill="none" fill-opacity="0.501961" stroke="#DE4BCB" stroke-width="296.575" stroke-opacity="0.501961" x1="78518" y1="41295" x2="82293" y2= "39915" />
  <polygon fill="#DE4BCB" fill-opacity="0.501961" points="88636,39162 86377,35739 86777,35591 88225,37873 88625,38568 88556,37816 88317,35032 88807,34850 89982,36527 90404,37143 90792,37781 90701,36971 90347,34291 90746,34154 91214,38226 90803,38375 88978,35751 88716,35431 88796,35933 89092,38990 "/>
  <polygon fill="#DE4BCB" fill-opacity="0.501961" points="84803,40553 83434,36812 84564,36401 84883,36287 85122,36253 85442,36264 85716,36333 86058,36572 86309,36835 86560,37234 86777,37690 86925,38112 86948,38454 86982,38808 86936,39116 86856,39333 86777,39538 86640,39709 86457,39892 86252,40029 85978,40131 84803,40553 85054,39983 85773,39721 86047,39629 86252,39492 86400,39321 86491,39162 86548,38899 86548,38603 86526,38260 86366,37838 86275,37576 86126,37325 86012,37131 85864,37006 85716,36880 85579,36800 85453,36732 85282,36675 85031,36709 84678,36835 83993,37085 85054,39983 "/>
  <polygon fill="#DE4BCB" fill-opacity="0.501961" points="85351,41192 85488,41569 91568,39356 91431,38979 "/>
  <line fill="none" fill-opacity="0.501961" stroke="#DE4BCB" stroke-width="296.575" stroke-opacity="0.501961" x1="93701" y1="35762" x2="97442" y2= "34405" />
  <line fill="none" fill-opacity="0.501961" stroke="#DE4BCB" stroke-width="296.575" stroke-opacity="0.501961" x1="96997" y1="32682" x2="99827" y2= "33538" />
  <line fill="none" fill-opacity="0.501961" stroke="#DE4BCB" stroke-width="296.575" stroke-opacity="0.501961" x1="99827" y1="33538" x2="98207" y2= "36013" />
  <line fill="none" fill-opacity="0.501961" stroke="#DE4BCB" stroke-width="296.575" stroke-opacity="0.501961" x1="101891" y1="32785" x2="105667" y2= "31405" />
  <polygon fill="#DE4BCB" fill-opacity="0.501961" points="112021,30652 109751,27230 110150,27081 111599,29363 112010,30059 111930,29306 111690,26522 112181,26340 113356,28017 113789,28633 114166,29272 114086,28462 113721,25792 114132,25644 114588,29716 114177,29865 112363,27241 112090,26922 112169,27423 112466,30492 "/>
  <polygon fill="#DE4BCB" fill-opacity="0.501961" points="108177,32043 106819,28302 107949,27891 108257,27777 108508,27743 108816,27754 109101,27823 109443,28062 109694,28325 109934,28724 110150,29180 110310,29602 110333,29945 110356,30298 110321,30618 110242,30823 110162,31028 110013,31199 109831,31382 109626,31519 109352,31621 108177,32043 108428,31473 109158,31211 109420,31120 109637,30983 109774,30811 109876,30652 109934,30389 109922,30093 109899,29751 109740,29329 109648,29066 109512,28815 109386,28621 109238,28496 109089,28370 108964,28291 108838,28222 108656,28165 108416,28199 108051,28325 107378,28576 108428,31473 "/>
  <polygon fill="#DE4BCB" fill-opacity="0.501961" points="108724,32682 108861,33059 114953,30846 114816,30469 "/>
  <line fill="none" fill-opacity="0.501961" stroke="#DE4BCB" stroke-width="296.575" stroke-opacity="0.501961" x1="117075" y1="27252" x2="120850" y2= "25884" />
  <line fill="none" fill-opacity="0.501961" stroke="#DE4BCB" stroke-width="296.575" stroke-opacity="0.501961" x1="120406" y1="24161" x2="123235" y2= "25016" />
  <line fill="none" fill-opacity="0.501961" stroke="#DE4BCB" stroke-width="296.575" stroke-opacity="0.501961" x1="123235" y1="25016" x2="121626" y2= "27492" />
  <line fill="none" fill-opacity="0.501961" stroke="#DE4BCB" stroke-width="296.575" stroke-opacity="0.501961" x1="125265" y1="24275" x2="129041" y2= "22895" />
  <polygon fill="#DE4BCB" fill-opacity="0.501961" points="135395,22142 133125,18720 133536,18571 134973,20864 135384,21549 135315,20796 135064,18012 135566,17841 136730,19507 137163,20123 137551,20762 137460,19952 137095,17282 137505,17134 137962,21206 137562,21355 135737,18731 135463,18412 135555,18913 135840,21982 "/>
  <polygon fill="#DE4BCB" fill-opacity="0.501961" points="131562,23534 130193,19792 131323,19381 131642,19267 131882,19233 132190,19244 132475,19324 132817,19552 133068,19826 133307,20214 133524,20670 133684,21092 133707,21446 133730,21788 133695,22108 133616,22313 133536,22518 133399,22689 133205,22872 132999,23009 132737,23111 131562,23534 131813,22963 132532,22701 132806,22610 133011,22473 133148,22302 133250,22142 133307,21891 133307,21594 133273,21241 133125,20819 133022,20556 132885,20305 132760,20111 132612,19986 132463,19860 132338,19792 132212,19712 132041,19655 131790,19689 131437,19815 130752,20066 131813,22963 "/>
  <polygon fill="#DE4BCB" fill-opacity="0.501961" points="132110,24172 132247,24549 138327,22336 138190,21959 "/>
  <line fill="none" fill-opacity="0.501961" stroke="#DE4BCB" stroke-width="296.575" stroke-opacity="0.501961" x1="140460" y1="18742" x2="144236" y2= "17374" />
  <line fill="none" fill-opacity="0.501961" stroke="#DE4BCB" stroke-width="296.575" stroke-opacity="0.501961" x1="143791" y1="15651" x2="146620" y2= "16507" />
  <line fill="none" fill-opacity="0.501961" stroke="#DE4BCB" stroke-width="296.575" stroke-opacity="0.501961" x1="146620" y1="16507" x2="145000" y2= "18982" />
  <line fill="none" fill-opacity="0.501961" stroke="#DE4BCB" stroke-width="296.575" stroke-opacity="0.501961" x1="148650" y1="15765" x2="152426" y2= "14385" />
  <polygon fill="#DE4BCB" fill-opacity="0.501961" points="158769,13632 156510,10210 156909,10061 158358,12354 158758,13039 158689,12286 158450,9502 158940,9331 160115,10997 160548,11613 160925,12252 160845,11442 160480,8772 160879,8624 161347,12697 160936,12845 159111,10221 158849,9902 158929,10404 159225,13472 "/>
  <polygon fill="#DE4BCB" fill-opacity="0.501961" points="154936,15024 153579,11282 154708,10871 155016,10757 155267,10723 155575,10734 155860,10814 156202,11042 156442,11316 156693,11704 156909,12160 157058,12582 157092,12936 157115,13278 157069,13598 157001,13803 156921,14008 156773,14179 156590,14373 156385,14499 156111,14602 154936,15024 155187,14453 155917,14191 156179,14100 156385,13963 156533,13792 156624,13632 156693,13381 156681,13084 156658,12731 156499,12309 156408,12046 156271,11795 156145,11601 155997,11476 155849,11350 155723,11282 155586,11202 155415,11145 155176,11179 154811,11305 154138,11556 155187,14453 "/>
  <polygon fill="#DE4BCB" fill-opacity="0.501961" points="155484,15662 155620,16039 161712,13826 161575,13449 "/>
  <line fill="none" fill-opacity="0.501961" stroke="#DE4BCB" stroke-width="296.575" stroke-opacity="0.501961" x1="163834" y1="10232" x2="167610" y2= "8864" />
  <line fill="none" fill-opacity="0.501961" stroke="#DE4BCB" stroke-width="296.575" stroke-opacity="0.501961" x1="167176" y1="7141" x2="169994" y2= "7997" />
  <line fill="none" fill-opacity="0.501961" stroke="#DE4BCB" stroke-width="296.575" stroke-opacity="0.501961" x1="169994" y1="7997" x2="168385" y2= "10472" />
  <line fill="none" fill-opacity="0.501961" stroke="#DE4BCB" stroke-width="296.575" stroke-opacity="0.501961" x1="172036" y1="7255" x2="175812" y2= "5875" />
  <polygon fill="#DE4BCB" fill-opacity="0.501961" points="182154,5122 179896,1700 180295,1551 181743,3844 182143,4529 182074,3776 181835,992 182325,821 183500,2487 183922,3103 184310,3742 184219,2932 183865,262 184265,114 184732,4187 184322,4335 182496,1711 182234,1392 182314,1894 182611,4962 "/>
  <polygon fill="#DE4BCB" fill-opacity="0.501961" points="178321,6514 176964,2772 178082,2361 178401,2247 178652,2213 178960,2224 179245,2304 179576,2532 179827,2806 180078,3194 180295,3650 180443,4072 180477,4415 180500,4768 180455,5088 180375,5293 180306,5498 180158,5670 179975,5852 179770,5989 179496,6092 178321,6514 178572,5943 179302,5681 179565,5590 179770,5453 179918,5282 180010,5122 180067,4860 180067,4563 180044,4221 179884,3799 179793,3536 179645,3285 179530,3091 179382,2966 179234,2840 179108,2772 178972,2692 178800,2635 178561,2669 178196,2795 177523,3046 178572,5943 "/>
  <polygon fill="#DE4BCB" fill-opacity="0.501961" points="178869,7152 179006,7529 185086,5316 184949,4939 "/>
 </g>
</svg>
