<?xml version="1.0" encoding="UTF-8"?>
<!DOCTYPE svg PUBLIC "-//W3C//DTD SVG 1.0//EN" "http://www.w3.org/TR/2001/REC-SVG-20010904/DTD/svg10.dtd">
<!-- Creator: CorelDRAW X6 -->
<svg xmlns="http://www.w3.org/2000/svg" xml:space="preserve" width="2120px" height="784px" version="1.0" shape-rendering="geometricPrecision" text-rendering="geometricPrecision" image-rendering="optimizeQuality" fill-rule="evenodd" clip-rule="evenodd"
viewBox="0 0 212000 78357"
 xmlns:xlink="http://www.w3.org/1999/xlink">
 <g id="_0740.cgm:type:overlay">
  <metadata id="CorelCorpID_0Corel-Layer"/>
  <IC_ColorNameTable/>
  <PictureProperties/>
  <line fill="none" fill-opacity="0.501961" stroke="#DE4BC9" stroke-width="209.25" stroke-opacity="0.501961" x1="105" y1="77180" x2="3427" y2= "75977" />
  <line fill="none" fill-opacity="0.501961" stroke="#DE4BC9" stroke-width="209.25" stroke-opacity="0.501961" x1="1766" y1="76591" x2="2367" y2= "78239" />
  <polyline fill="none" fill-opacity="0.501961" stroke="#DE4BC9" stroke-width="300.768" stroke-opacity="0.501961" points="13315,73008 13249,72968 13118,72890 13001,72825 12870,72759 12739,72694 12608,72628 12464,72576 12334,72537 12190,72485 12059,72445 11915,72419 11771,72393 11627,72367 11484,72341 11340,72328 11196,72328 11052,72314 10908,72314 10764,72328 10620,72341 10476,72354 10333,72380 10189,72406 10045,72432 9901,72471 9770,72511 9626,72563 9495,72602 9365,72668 9234,72720 9103,72785 8972,72864 8842,72929 8724,73008 8606,73086 8488,73178 8371,73269 8266,73361 8161,73465 8057,73557 7952,73662 7861,73779 7769,73884 7678,74002 7599,74119 7521,74237 7442,74368 7377,74486 7298,74616 7246,74747 7181,74878 7128,75022 7076,75153 7037,75283 "/>
  <polyline fill="none" fill-opacity="0.501961" stroke="#DE4BC9" stroke-width="300.768" stroke-opacity="0.501961" points="7037,75297 7115,75349 7246,75414 7377,75493 7494,75558 7625,75610 7769,75676 7900,75728 8031,75780 8175,75820 8318,75859 8449,75885 8593,75911 8737,75937 8881,75964 9025,75977 9169,75977 9312,75977 9456,75977 9613,75977 9757,75964 9901,75951 10032,75924 10176,75898 10320,75859 10463,75833 10594,75780 10738,75741 10869,75689 11013,75637 11144,75571 11274,75506 11392,75440 11523,75362 11641,75283 11758,75205 11876,75113 11994,75022 12098,74930 12203,74826 12308,74734 12412,74616 12504,74512 12595,74407 12687,74289 12765,74172 12844,74041 12922,73923 12988,73792 13053,73662 13118,73531 13171,73400 13223,73269 13275,73139 13315,73008 "/>
  <polyline fill="none" fill-opacity="0.501961" stroke="#DE4BC9" stroke-width="300.768" stroke-opacity="0.501961" points="7037,75283 6880,75179 6631,75009 6383,74852 6121,74708 5859,74564 5598,74433 5323,74316 5075,74211 "/>
  <polyline fill="none" fill-opacity="0.501961" stroke="#DE4BC9" stroke-width="300.768" stroke-opacity="0.501961" points="6226,77376 6330,77206 6435,76997 6540,76775 6631,76565 6723,76343 6801,76121 6880,75898 6945,75663 6997,75440 7037,75297 "/>
  <line fill="none" fill-opacity="0.501961" stroke="#DE4BC9" stroke-width="300.768" stroke-opacity="0.501961" x1="9312" y1="77245" x2="11627" y2= "70863" />
  <line fill="none" fill-opacity="0.501961" stroke="#DE4BC9" stroke-width="209.25" stroke-opacity="0.501961" x1="14269" y1="72027" x2="17592" y2= "70824" />
  <line fill="none" fill-opacity="0.501961" stroke="#DE4BC9" stroke-width="209.25" stroke-opacity="0.501961" x1="15930" y1="71412" x2="16532" y2= "73086" />
  <line fill="none" fill-opacity="0.501961" stroke="#DE4BC9" stroke-width="209.25" stroke-opacity="0.501961" x1="20704" y1="69686" x2="24040" y2= "68482" />
  <line fill="none" fill-opacity="0.501961" stroke="#DE4BC9" stroke-width="209.25" stroke-opacity="0.501961" x1="22378" y1="69071" x2="22980" y2= "70745" />
  <line fill="none" fill-opacity="0.501961" stroke="#DE4BC9" stroke-width="209.25" stroke-opacity="0.501961" x1="26930" y1="67423" x2="30265" y2= "66207" />
  <line fill="none" fill-opacity="0.501961" stroke="#DE4BC9" stroke-width="209.25" stroke-opacity="0.501961" x1="28604" y1="66808" x2="29206" y2= "68482" />
  <polyline fill="none" fill-opacity="0.501961" stroke="#DE4BC9" stroke-width="300.768" stroke-opacity="0.501961" points="40140,63238 40022,63159 39891,63081 39774,63015 39643,62950 39512,62898 39368,62832 39237,62780 39107,62741 38963,62701 38819,62662 38675,62636 38544,62610 38400,62584 38257,62571 38113,62557 37969,62544 37812,62544 37668,62544 37524,62557 37380,62571 37236,62597 37093,62610 36962,62649 36818,62675 36674,62714 36543,62754 36399,62806 36269,62858 36138,62924 36007,62976 35876,63041 35745,63120 35628,63198 35510,63277 35392,63355 35274,63447 35157,63538 35052,63630 34948,63735 34843,63839 34751,63944 34660,64049 34568,64166 34477,64284 34398,64402 34320,64519 34241,64650 34176,64781 34111,64899 34045,65029 33993,65173 33940,65304 33901,65448 33875,65513 "/>
  <polyline fill="none" fill-opacity="0.501961" stroke="#DE4BC9" stroke-width="300.768" stroke-opacity="0.501961" points="33875,65526 33967,65592 34097,65670 34215,65736 34346,65801 34477,65866 34621,65919 34751,65971 34882,66010 35026,66063 35170,66102 35301,66128 35445,66154 35588,66180 35732,66193 35876,66207 36020,66220 36164,66220 36321,66220 36465,66207 36609,66193 36752,66180 36896,66154 37027,66128 37171,66089 37315,66063 37446,66010 37590,65971 37720,65919 37851,65853 37995,65801 38113,65736 38244,65657 38374,65592 38492,65513 38610,65422 38727,65343 38832,65252 38950,65147 39054,65056 39159,64951 39251,64846 39342,64729 39434,64624 39525,64506 39604,64388 39682,64271 39761,64140 39826,64009 39905,63891 39957,63748 40022,63617 40061,63486 40114,63342 40140,63251 "/>
  <polyline fill="none" fill-opacity="0.501961" stroke="#DE4BC9" stroke-width="300.768" stroke-opacity="0.501961" points="33875,65526 33718,65409 33470,65252 33221,65095 32960,64938 32698,64807 32436,64676 32162,64545 31926,64454 "/>
  <polyline fill="none" fill-opacity="0.501961" stroke="#DE4BC9" stroke-width="300.768" stroke-opacity="0.501961" points="33064,67606 33169,67436 33273,67227 33378,67004 33483,66795 33574,66573 33653,66350 33718,66128 33784,65893 33849,65670 33875,65526 "/>
  <line fill="none" fill-opacity="0.501961" stroke="#DE4BC9" stroke-width="300.768" stroke-opacity="0.501961" x1="36138" y1="67475" x2="38466" y2= "61093" />
  <line fill="none" fill-opacity="0.501961" stroke="#DE4BC9" stroke-width="209.25" stroke-opacity="0.501961" x1="41095" y1="62257" x2="44430" y2= "61040" />
  <line fill="none" fill-opacity="0.501961" stroke="#DE4BC9" stroke-width="209.25" stroke-opacity="0.501961" x1="42769" y1="61655" x2="43384" y2= "63329" />
  <line fill="none" fill-opacity="0.501961" stroke="#DE4BC9" stroke-width="209.25" stroke-opacity="0.501961" x1="47556" y1="59915" x2="50878" y2= "58699" />
  <line fill="none" fill-opacity="0.501961" stroke="#DE4BC9" stroke-width="209.25" stroke-opacity="0.501961" x1="49204" y1="59314" x2="49819" y2= "60975" />
  <line fill="none" fill-opacity="0.501961" stroke="#DE4BC9" stroke-width="209.25" stroke-opacity="0.501961" x1="53768" y1="57653" x2="57091" y2= "56436" />
  <line fill="none" fill-opacity="0.501961" stroke="#DE4BC9" stroke-width="209.25" stroke-opacity="0.501961" x1="55443" y1="57038" x2="56044" y2= "58712" />
  <polyline fill="none" fill-opacity="0.501961" stroke="#DE4BC9" stroke-width="300.768" stroke-opacity="0.501961" points="66978,53467 66887,53415 66769,53337 66638,53271 66508,53206 66377,53140 66246,53088 66115,53036 65971,52984 65840,52944 65697,52905 65553,52879 65409,52840 65265,52827 65121,52800 64977,52787 64833,52787 64690,52787 64546,52787 64402,52787 64258,52800 64114,52827 63970,52840 63826,52866 63682,52905 63539,52944 63408,52984 63264,53036 63133,53088 63002,53140 62872,53206 62741,53271 62610,53337 62479,53415 62361,53494 62244,53572 62126,53664 62021,53755 61904,53847 61799,53938 61694,54043 61603,54148 61498,54265 61407,54370 61328,54488 61237,54605 61158,54723 61080,54854 61014,54985 60949,55102 60884,55233 60831,55377 60779,55508 60727,55639 60700,55743 "/>
  <polyline fill="none" fill-opacity="0.501961" stroke="#DE4BC9" stroke-width="300.768" stroke-opacity="0.501961" points="60714,55743 60805,55809 60923,55874 61054,55952 61184,56018 61315,56083 61446,56136 61577,56188 61721,56227 61851,56279 61995,56319 62139,56345 62270,56371 62414,56397 62558,56410 62701,56423 62845,56436 62989,56436 63146,56436 63290,56423 63434,56410 63578,56397 63722,56371 63852,56345 63996,56319 64140,56279 64271,56240 64415,56188 64546,56136 64677,56083 64807,56018 64938,55952 65069,55887 65187,55809 65317,55730 65435,55652 65553,55560 65657,55469 65775,55377 65880,55272 65984,55168 66076,55063 66167,54958 66259,54841 66351,54736 66429,54618 66508,54488 66586,54370 66651,54239 66730,54108 66782,53977 66848,53847 66887,53716 66939,53572 66978,53467 "/>
  <polyline fill="none" fill-opacity="0.501961" stroke="#DE4BC9" stroke-width="300.768" stroke-opacity="0.501961" points="60714,55743 60465,55573 60216,55416 59968,55259 59706,55115 59445,54972 59170,54854 58895,54736 58752,54671 "/>
  <polyline fill="none" fill-opacity="0.501961" stroke="#DE4BC9" stroke-width="300.768" stroke-opacity="0.501961" points="59903,57836 60007,57653 60112,57444 60216,57234 60308,57012 60400,56790 60478,56567 60557,56345 60622,56123 60674,55887 60714,55756 "/>
  <line fill="none" fill-opacity="0.501961" stroke="#DE4BC9" stroke-width="300.768" stroke-opacity="0.501961" x1="62989" y1="57705" x2="65304" y2= "51336" />
  <line fill="none" fill-opacity="0.501961" stroke="#DE4BC9" stroke-width="209.25" stroke-opacity="0.501961" x1="67946" y1="52500" x2="71268" y2= "51283" />
  <line fill="none" fill-opacity="0.501961" stroke="#DE4BC9" stroke-width="209.25" stroke-opacity="0.501961" x1="69607" y1="51885" x2="70209" y2= "53546" />
  <line fill="none" fill-opacity="0.501961" stroke="#DE4BC9" stroke-width="209.25" stroke-opacity="0.501961" x1="74381" y1="50158" x2="77716" y2= "48942" />
  <line fill="none" fill-opacity="0.501961" stroke="#DE4BC9" stroke-width="209.25" stroke-opacity="0.501961" x1="76055" y1="49544" x2="76644" y2= "51205" />
  <line fill="none" fill-opacity="0.501961" stroke="#DE4BC9" stroke-width="209.25" stroke-opacity="0.501961" x1="80607" y1="47883" x2="83942" y2= "46666" />
  <line fill="none" fill-opacity="0.501961" stroke="#DE4BC9" stroke-width="209.25" stroke-opacity="0.501961" x1="82268" y1="47281" x2="82883" y2= "48942" />
  <polyline fill="none" fill-opacity="0.501961" stroke="#DE4BC9" stroke-width="300.768" stroke-opacity="0.501961" points="93817,43710 93725,43645 93594,43567 93477,43501 93346,43436 93215,43370 93084,43318 92941,43266 92810,43213 92666,43174 92535,43135 92391,43109 92247,43070 92104,43056 91960,43030 91816,43017 91672,43017 91528,43017 91384,43017 91240,43017 91096,43030 90953,43056 90809,43083 90665,43109 90521,43135 90377,43174 90246,43213 90102,43266 89972,43318 89841,43370 89710,43436 89579,43501 89448,43567 89331,43645 89200,43723 89082,43802 88964,43894 88860,43985 88742,44077 88638,44181 88546,44286 88441,44390 88350,44495 88258,44613 88167,44731 88088,44848 88010,44966 87931,45097 87866,45214 87800,45345 87735,45476 87683,45607 87630,45751 87578,45882 87552,45986 "/>
  <polyline fill="none" fill-opacity="0.501961" stroke="#DE4BC9" stroke-width="300.768" stroke-opacity="0.501961" points="87552,45973 87643,46038 87774,46117 87905,46182 88036,46248 88167,46313 88297,46365 88428,46418 88572,46470 88703,46509 88847,46549 88991,46575 89134,46614 89278,46627 89422,46653 89566,46666 89710,46666 89854,46679 89998,46666 90142,46666 90285,46653 90429,46627 90573,46614 90717,46588 90848,46549 90992,46509 91136,46470 91266,46431 91410,46379 91541,46313 91672,46261 91803,46195 91920,46117 92051,46052 92169,45973 92287,45882 92404,45803 92522,45711 92627,45607 92731,45515 92836,45411 92927,45306 93032,45201 93124,45084 93202,44966 93294,44848 93372,44731 93438,44600 93516,44482 93581,44351 93634,44221 93699,44090 93751,43946 93791,43815 93830,43710 "/>
  <polyline fill="none" fill-opacity="0.501961" stroke="#DE4BC9" stroke-width="300.768" stroke-opacity="0.501961" points="87539,45973 87395,45868 87146,45698 86898,45541 86636,45398 86375,45254 86100,45123 85839,45005 85590,44901 "/>
  <polyline fill="none" fill-opacity="0.501961" stroke="#DE4BC9" stroke-width="300.768" stroke-opacity="0.501961" points="86728,48066 86806,47948 86924,47739 87029,47529 87120,47307 87212,47085 87303,46876 87369,46640 87434,46418 87500,46182 87539,45986 "/>
  <line fill="none" fill-opacity="0.501961" stroke="#DE4BC9" stroke-width="300.768" stroke-opacity="0.501961" x1="89815" y1="47935" x2="92143" y2= "41552" />
  <line fill="none" fill-opacity="0.501961" stroke="#DE4BC9" stroke-width="209.25" stroke-opacity="0.501961" x1="94772" y1="42716" x2="98107" y2= "41513" />
  <line fill="none" fill-opacity="0.501961" stroke="#DE4BC9" stroke-width="209.25" stroke-opacity="0.501961" x1="96446" y1="42128" x2="97047" y2= "43789" />
  <line fill="none" fill-opacity="0.501961" stroke="#DE4BC9" stroke-width="209.25" stroke-opacity="0.501961" x1="101220" y1="40375" x2="104542" y2= "39172" />
  <line fill="none" fill-opacity="0.501961" stroke="#DE4BC9" stroke-width="209.25" stroke-opacity="0.501961" x1="102881" y1="39787" x2="103495" y2= "41435" />
  <line fill="none" fill-opacity="0.501961" stroke="#DE4BC9" stroke-width="209.25" stroke-opacity="0.501961" x1="107445" y1="38113" x2="110767" y2= "36909" />
  <line fill="none" fill-opacity="0.501961" stroke="#DE4BC9" stroke-width="209.25" stroke-opacity="0.501961" x1="109119" y1="37511" x2="109708" y2= "39172" />
  <polyline fill="none" fill-opacity="0.501961" stroke="#DE4BC9" stroke-width="300.768" stroke-opacity="0.501961" points="120655,33940 120564,33875 120433,33810 120315,33731 120184,33666 120054,33600 119923,33548 119779,33496 119648,33456 119504,33404 119373,33378 119230,33339 119086,33313 118942,33286 118798,33273 118654,33260 118510,33247 118366,33247 118222,33247 118079,33260 117935,33273 117791,33286 117647,33313 117503,33339 117359,33378 117228,33417 117084,33456 116954,33496 116810,33548 116679,33613 116548,33666 116418,33731 116287,33810 116169,33888 116051,33967 115934,34045 115816,34137 115698,34228 115594,34320 115489,34411 115384,34516 115280,34621 115188,34738 115096,34843 115005,34960 114926,35078 114848,35209 114769,35327 114704,35458 114639,35588 114573,35719 114521,35850 114469,35981 114416,36125 114390,36216 "/>
  <polyline fill="none" fill-opacity="0.501961" stroke="#DE4BC9" stroke-width="300.768" stroke-opacity="0.501961" points="114377,36216 114482,36282 114599,36360 114730,36425 114861,36491 114992,36556 115123,36609 115267,36661 115397,36713 115541,36752 115672,36792 115816,36818 115960,36857 116104,36870 116247,36896 116391,36909 116535,36909 116679,36909 116823,36909 116967,36909 117111,36896 117255,36870 117398,36844 117542,36818 117686,36792 117830,36752 117961,36713 118105,36661 118235,36609 118366,36556 118497,36491 118628,36425 118759,36360 118876,36282 119007,36203 119125,36111 119230,36033 119347,35941 119452,35850 119557,35745 119661,35641 119766,35536 119857,35431 119949,35314 120040,35196 120119,35078 120197,34960 120276,34830 120341,34712 120407,34581 120472,34450 120524,34307 120577,34176 120629,34045 120655,33940 "/>
  <polyline fill="none" fill-opacity="0.501961" stroke="#DE4BC9" stroke-width="300.768" stroke-opacity="0.501961" points="114390,36216 114194,36085 113945,35915 113697,35758 113435,35614 113174,35471 112912,35353 112638,35222 112428,35144 "/>
  <polyline fill="none" fill-opacity="0.501961" stroke="#DE4BC9" stroke-width="300.768" stroke-opacity="0.501961" points="113579,38309 113645,38191 113762,37982 113867,37760 113972,37550 114050,37328 114142,37106 114220,36883 114286,36661 114338,36425 114390,36216 "/>
  <line fill="none" fill-opacity="0.501961" stroke="#DE4BC9" stroke-width="300.768" stroke-opacity="0.501961" x1="116666" y1="38178" x2="118981" y2= "31795" />
  <line fill="none" fill-opacity="0.501961" stroke="#DE4BC9" stroke-width="209.25" stroke-opacity="0.501961" x1="121610" y1="32959" x2="124932" y2= "31756" />
  <line fill="none" fill-opacity="0.501961" stroke="#DE4BC9" stroke-width="209.25" stroke-opacity="0.501961" x1="123284" y1="32345" x2="123886" y2= "34019" />
  <line fill="none" fill-opacity="0.501961" stroke="#DE4BC9" stroke-width="209.25" stroke-opacity="0.501961" x1="128058" y1="30618" x2="131380" y2= "29415" />
  <line fill="none" fill-opacity="0.501961" stroke="#DE4BC9" stroke-width="209.25" stroke-opacity="0.501961" x1="129719" y1="30004" x2="130321" y2= "31678" />
  <line fill="none" fill-opacity="0.501961" stroke="#DE4BC9" stroke-width="209.25" stroke-opacity="0.501961" x1="134493" y1="28264" x2="137828" y2= "27048" />
  <line fill="none" fill-opacity="0.501961" stroke="#DE4BC9" stroke-width="209.25" stroke-opacity="0.501961" x1="136167" y1="27662" x2="136756" y2= "29336" />
  <polyline fill="none" fill-opacity="0.501961" stroke="#DE4BC9" stroke-width="300.768" stroke-opacity="0.501961" points="147494,24170 147402,24105 147271,24039 147153,23961 147023,23896 146892,23843 146748,23778 146617,23726 146486,23686 146343,23634 146199,23608 146055,23569 145924,23542 145780,23516 145636,23503 145492,23490 145349,23477 145192,23477 145048,23477 144904,23490 144760,23503 144616,23516 144472,23542 144341,23569 144198,23595 144054,23634 143910,23673 143779,23726 143648,23778 143504,23830 143374,23896 143256,23961 143125,24026 142994,24105 142877,24183 142759,24262 142641,24353 142537,24445 142419,24536 142314,24641 142210,24733 142118,24837 142026,24955 141935,25060 141843,25177 141765,25295 141686,25426 141608,25544 141543,25674 141477,25805 141412,25936 141359,26067 141307,26197 141255,26341 141229,26446 "/>
  <polyline fill="none" fill-opacity="0.501961" stroke="#DE4BC9" stroke-width="300.768" stroke-opacity="0.501961" points="141202,26472 141281,26511 141399,26590 141529,26655 141647,26721 141778,26786 141922,26851 142053,26904 142183,26943 142327,26995 142458,27035 142602,27061 142746,27087 142890,27113 143034,27139 143177,27152 143321,27152 143465,27165 143609,27165 143753,27152 143897,27139 144041,27126 144185,27100 144328,27074 144472,27048 144616,27008 144747,26969 144891,26917 145022,26865 145152,26812 145283,26760 145414,26695 145545,26616 145676,26551 145793,26472 145911,26381 146029,26302 146146,26211 146251,26119 146356,26014 146460,25910 146565,25805 146657,25700 146748,25583 146840,25478 146918,25360 146997,25230 147075,25112 147153,24981 147219,24850 147271,24720 147337,24589 147389,24458 147441,24314 147480,24183 "/>
  <polyline fill="none" fill-opacity="0.501961" stroke="#DE4BC9" stroke-width="300.768" stroke-opacity="0.501961" points="141202,26459 141006,26302 140758,26145 140496,25988 140235,25844 139973,25700 139711,25570 139437,25452 139254,25387 "/>
  <polyline fill="none" fill-opacity="0.501961" stroke="#DE4BC9" stroke-width="300.768" stroke-opacity="0.501961" points="140405,28539 140509,28356 140627,28146 140719,27937 140823,27728 140915,27505 140993,27283 141072,27048 141137,26825 141189,26590 141216,26459 "/>
  <line fill="none" fill-opacity="0.501961" stroke="#DE4BC9" stroke-width="300.768" stroke-opacity="0.501961" x1="143491" y1="28395" x2="145806" y2= "22025" />
  <line fill="none" fill-opacity="0.501961" stroke="#DE4BC9" stroke-width="209.25" stroke-opacity="0.501961" x1="148448" y1="23189" x2="151784" y2= "21973" />
  <line fill="none" fill-opacity="0.501961" stroke="#DE4BC9" stroke-width="209.25" stroke-opacity="0.501961" x1="150109" y1="22588" x2="150724" y2= "24262" />
  <line fill="none" fill-opacity="0.501961" stroke="#DE4BC9" stroke-width="209.25" stroke-opacity="0.501961" x1="154896" y1="20848" x2="158218" y2= "19632" />
  <line fill="none" fill-opacity="0.501961" stroke="#DE4BC9" stroke-width="209.25" stroke-opacity="0.501961" x1="156557" y1="20246" x2="157159" y2= "21908" />
  <line fill="none" fill-opacity="0.501961" stroke="#DE4BC9" stroke-width="209.25" stroke-opacity="0.501961" x1="161122" y1="18585" x2="164444" y2= "17369" />
  <line fill="none" fill-opacity="0.501961" stroke="#DE4BC9" stroke-width="209.25" stroke-opacity="0.501961" x1="162783" y1="17971" x2="163385" y2= "19645" />
  <polyline fill="none" fill-opacity="0.501961" stroke="#DE4BC9" stroke-width="300.768" stroke-opacity="0.501961" points="174319,14400 174227,14348 174110,14269 173979,14204 173848,14139 173717,14073 173587,14021 173456,13969 173312,13916 173181,13877 173037,13838 172893,13798 172749,13772 172606,13759 172462,13733 172318,13720 172174,13720 172030,13707 171886,13720 171742,13720 171598,13733 171455,13746 171311,13772 171167,13798 171023,13838 170892,13877 170748,13916 170617,13955 170474,14008 170343,14073 170212,14125 170081,14191 169963,14269 169833,14335 169715,14413 169597,14505 169480,14583 169362,14675 169257,14766 169153,14871 169048,14976 168943,15080 168852,15185 168760,15303 168682,15420 168590,15538 168512,15656 168433,15773 168368,15904 168302,16035 168237,16166 168185,16297 168132,16427 168093,16571 168054,16676 "/>
  <polyline fill="none" fill-opacity="0.501961" stroke="#DE4BC9" stroke-width="300.768" stroke-opacity="0.501961" points="168067,16676 168159,16728 168276,16807 168407,16872 168538,16951 168669,17003 168800,17068 168930,17121 169074,17160 169218,17199 169349,17238 169493,17278 169637,17304 169780,17330 169924,17343 170068,17356 170212,17369 170356,17369 170500,17369 170644,17356 170788,17343 170931,17330 171075,17304 171219,17278 171363,17251 171494,17212 171638,17173 171782,17121 171912,17068 172043,17016 172174,16951 172305,16885 172436,16820 172553,16741 172671,16663 172789,16584 172906,16493 173024,16401 173129,16310 173233,16205 173338,16113 173443,16009 173534,15891 173626,15786 173717,15669 173796,15551 173874,15420 173953,15303 174018,15172 174083,15041 174149,14910 174201,14779 174253,14649 174306,14518 174332,14400 "/>
  <polyline fill="none" fill-opacity="0.501961" stroke="#DE4BC9" stroke-width="300.768" stroke-opacity="0.501961" points="168054,16676 167897,16571 167662,16401 167400,16244 167151,16100 166890,15957 166615,15826 166341,15708 166105,15603 "/>
  <polyline fill="none" fill-opacity="0.501961" stroke="#DE4BC9" stroke-width="300.768" stroke-opacity="0.501961" points="167243,18756 167348,18585 167452,18376 167557,18154 167662,17945 167740,17722 167832,17500 167897,17278 167962,17042 168028,16820 168054,16676 "/>
  <line fill="none" fill-opacity="0.501961" stroke="#DE4BC9" stroke-width="300.768" stroke-opacity="0.501961" x1="170330" y1="18638" x2="172658" y2= "12255" />
  <line fill="none" fill-opacity="0.501961" stroke="#DE4BC9" stroke-width="209.25" stroke-opacity="0.501961" x1="175287" y1="13432" x2="178609" y2= "12216" />
  <line fill="none" fill-opacity="0.501961" stroke="#DE4BC9" stroke-width="209.25" stroke-opacity="0.501961" x1="176961" y1="12818" x2="177549" y2= "14479" />
  <line fill="none" fill-opacity="0.501961" stroke="#DE4BC9" stroke-width="209.25" stroke-opacity="0.501961" x1="181722" y1="11091" x2="185057" y2= "9875" />
  <line fill="none" fill-opacity="0.501961" stroke="#DE4BC9" stroke-width="209.25" stroke-opacity="0.501961" x1="183396" y1="10476" x2="183997" y2= "12137" />
  <line fill="none" fill-opacity="0.501961" stroke="#DE4BC9" stroke-width="209.25" stroke-opacity="0.501961" x1="187947" y1="8815" x2="191283" y2= "7599" />
  <line fill="none" fill-opacity="0.501961" stroke="#DE4BC9" stroke-width="209.25" stroke-opacity="0.501961" x1="189622" y1="8214" x2="190236" y2= "9875" />
  <polyline fill="none" fill-opacity="0.501961" stroke="#DE4BC9" stroke-width="300.768" stroke-opacity="0.501961" points="201157,4630 201066,4565 200948,4499 200817,4421 200686,4355 200556,4303 200425,4238 200294,4198 200150,4146 200019,4107 199876,4068 199732,4028 199588,4002 199444,3989 199300,3963 199156,3950 199012,3950 198868,3950 198725,3950 198581,3950 198437,3963 198293,3989 198149,4002 198005,4041 197874,4068 197731,4107 197587,4146 197456,4198 197325,4251 197181,4303 197051,4368 196920,4434 196802,4499 196671,4578 196554,4656 196436,4735 196318,4826 196200,4918 196096,5009 195991,5114 195886,5219 195795,5323 195690,5428 195599,5545 195520,5663 195429,5781 195350,5899 195285,6029 195206,6147 195141,6278 195089,6409 195023,6553 194971,6683 194932,6814 194892,6919 "/>
  <polyline fill="none" fill-opacity="0.501961" stroke="#DE4BC9" stroke-width="300.768" stroke-opacity="0.501961" points="194892,6919 194984,6984 195102,7050 195232,7128 195363,7194 195494,7246 195625,7311 195756,7364 195900,7403 196030,7455 196174,7481 196318,7520 196462,7547 196606,7573 196750,7586 196893,7599 197037,7612 197181,7612 197325,7599 197469,7599 197613,7586 197757,7573 197901,7547 198044,7520 198188,7481 198319,7442 198463,7403 198594,7350 198738,7298 198868,7246 198999,7180 199130,7115 199248,7050 199379,6971 199496,6893 199614,6814 199732,6723 199849,6631 199954,6540 200059,6435 200163,6330 200268,6226 200359,6121 200451,6003 200529,5886 200621,5768 200700,5650 200778,5532 200843,5402 200909,5271 200974,5140 201027,5009 201079,4865 201131,4735 201157,4630 "/>
  <polyline fill="none" fill-opacity="0.501961" stroke="#DE4BC9" stroke-width="300.768" stroke-opacity="0.501961" points="194892,6919 194735,6801 194487,6631 194238,6474 193977,6330 193715,6186 193454,6056 193179,5938 192944,5833 "/>
  <polyline fill="none" fill-opacity="0.501961" stroke="#DE4BC9" stroke-width="300.768" stroke-opacity="0.501961" points="194095,8998 194199,8828 194304,8619 194408,8410 194500,8188 194592,7978 194670,7756 194749,7520 194814,7298 194866,7063 194905,6919 "/>
  <line fill="none" fill-opacity="0.501961" stroke="#DE4BC9" stroke-width="300.768" stroke-opacity="0.501961" x1="197168" y1="8868" x2="199483" y2= "2485" />
  <line fill="none" fill-opacity="0.501961" stroke="#DE4BC9" stroke-width="209.25" stroke-opacity="0.501961" x1="202112" y1="3649" x2="205460" y2= "2446" />
  <line fill="none" fill-opacity="0.501961" stroke="#DE4BC9" stroke-width="209.25" stroke-opacity="0.501961" x1="203786" y1="3047" x2="204401" y2= "4708" />
  <line fill="none" fill-opacity="0.501961" stroke="#DE4BC9" stroke-width="209.25" stroke-opacity="0.501961" x1="208573" y1="1308" x2="211895" y2= "105" />
  <line fill="none" fill-opacity="0.501961" stroke="#DE4BC9" stroke-width="209.25" stroke-opacity="0.501961" x1="210221" y1="706" x2="210836" y2= "2367" />
 </g>
</svg>
