<?xml version="1.0" encoding="UTF-8"?>
<!DOCTYPE svg PUBLIC "-//W3C//DTD SVG 1.0//EN" "http://www.w3.org/TR/2001/REC-SVG-20010904/DTD/svg10.dtd">
<!-- Creator: CorelDRAW X6 -->
<svg xmlns="http://www.w3.org/2000/svg" xml:space="preserve" width="2887px" height="1059px" version="1.0" shape-rendering="geometricPrecision" text-rendering="geometricPrecision" image-rendering="optimizeQuality" fill-rule="evenodd" clip-rule="evenodd"
viewBox="0 0 288700 105910"
 xmlns:xlink="http://www.w3.org/1999/xlink">
 <g id="_0741.cgm:type:overlay">
  <metadata id="CorelCorpID_0Corel-Layer"/>
  <IC_ColorNameTable/>
  <PictureProperties/>
  <line fill="none" fill-opacity="0.501961" stroke="#DE4BCB" stroke-width="299.296" stroke-opacity="0.501961" x1="158" y1="105118" x2="6813" y2= "102688" />
  <line fill="none" fill-opacity="0.501961" stroke="#DE4BCB" stroke-width="299.296" stroke-opacity="0.501961" x1="1813" y1="104502" x2="4155" y2= "105752" />
  <line fill="none" fill-opacity="0.501961" stroke="#DE4BCB" stroke-width="299.296" stroke-opacity="0.501961" x1="5141" y1="103287" x2="4155" y2= "105752" />
  <polygon fill="#DE4BCB" fill-opacity="0.501961" points="13661,102583 11408,99167 11813,99027 13256,101298 13661,101984 13591,101245 13344,98463 13837,98287 14999,99942 15439,100558 15827,101210 15739,100400 15369,97724 15774,97565 16249,101650 15827,101791 14013,99167 13749,98850 13820,99361 14119,102424 "/>
  <polygon fill="#DE4BCB" fill-opacity="0.501961" points="9841,103973 8468,100241 9595,99819 9912,99713 10158,99678 10475,99678 10756,99766 11091,99995 11337,100259 11584,100646 11813,101104 11954,101526 11989,101879 12006,102231 11971,102547 11883,102759 11813,102970 11672,103128 11478,103322 11285,103463 11003,103551 9841,103973 10087,103410 10809,103146 11073,103058 11285,102917 11425,102741 11531,102583 11584,102336 11584,102037 11549,101685 11390,101262 11302,100998 11161,100752 11038,100558 10897,100435 10739,100312 10616,100224 10492,100153 10316,100100 10070,100136 9700,100259 9031,100505 10087,103410 "/>
  <line fill="none" fill-opacity="0.501961" stroke="#DE4BCB" stroke-width="299.296" stroke-opacity="0.501961" x1="18749" y1="98340" x2="25404" y2= "95928" />
  <line fill="none" fill-opacity="0.501961" stroke="#DE4BCB" stroke-width="299.296" stroke-opacity="0.501961" x1="20404" y1="97741" x2="22745" y2= "98991" />
  <line fill="none" fill-opacity="0.501961" stroke="#DE4BCB" stroke-width="299.296" stroke-opacity="0.501961" x1="23731" y1="96527" x2="22745" y2= "98991" />
  <line fill="none" fill-opacity="0.501961" stroke="#DE4BCB" stroke-width="299.296" stroke-opacity="0.501961" x1="27745" y1="95065" x2="34400" y2= "92636" />
  <line fill="none" fill-opacity="0.501961" stroke="#DE4BCB" stroke-width="299.296" stroke-opacity="0.501961" x1="29417" y1="94467" x2="31759" y2= "95717" />
  <line fill="none" fill-opacity="0.501961" stroke="#DE4BCB" stroke-width="299.296" stroke-opacity="0.501961" x1="32745" y1="93252" x2="31759" y2= "95717" />
  <line fill="none" fill-opacity="0.501961" stroke="#DE4BCB" stroke-width="299.296" stroke-opacity="0.501961" x1="36459" y1="91897" x2="43114" y2= "89467" />
  <line fill="none" fill-opacity="0.501961" stroke="#DE4BCB" stroke-width="299.296" stroke-opacity="0.501961" x1="38132" y1="91280" x2="40473" y2= "92548" />
  <line fill="none" fill-opacity="0.501961" stroke="#DE4BCB" stroke-width="299.296" stroke-opacity="0.501961" x1="41459" y1="90083" x2="40473" y2= "92548" />
  <polygon fill="#DE4BCB" fill-opacity="0.501961" points="49980,89379 47709,85946 48114,85805 49557,88094 49962,88781 49892,88024 49645,85242 50138,85066 51318,86738 51740,87355 52128,87988 52040,87178 51688,84503 52092,84362 52550,88428 52145,88587 50314,85964 50050,85647 50138,86140 50420,89203 "/>
  <polygon fill="#DE4BCB" fill-opacity="0.501961" points="46142,90770 44769,87020 45913,86615 46212,86492 46459,86457 46776,86474 47057,86545 47392,86774 47656,87055 47885,87443 48114,87900 48272,88323 48290,88675 48307,89027 48272,89326 48202,89538 48114,89749 47973,89925 47797,90101 47586,90242 47322,90347 46142,90770 46388,90189 47110,89942 47392,89837 47586,89696 47726,89538 47832,89379 47885,89115 47885,88816 47867,88464 47709,88041 47603,87777 47462,87531 47339,87337 47198,87214 47057,87091 46917,87020 46793,86950 46617,86879 46371,86914 46019,87055 45332,87302 46388,90189 "/>
  <line fill="none" fill-opacity="0.501961" stroke="#DE4BCB" stroke-width="299.296" stroke-opacity="0.501961" x1="55050" y1="85136" x2="61705" y2= "82707" />
  <line fill="none" fill-opacity="0.501961" stroke="#DE4BCB" stroke-width="299.296" stroke-opacity="0.501961" x1="56705" y1="84520" x2="59064" y2= "85770" />
  <line fill="none" fill-opacity="0.501961" stroke="#DE4BCB" stroke-width="299.296" stroke-opacity="0.501961" x1="60050" y1="83305" x2="59064" y2= "85770" />
  <line fill="none" fill-opacity="0.501961" stroke="#DE4BCB" stroke-width="299.296" stroke-opacity="0.501961" x1="64046" y1="81844" x2="70718" y2= "79432" />
  <line fill="none" fill-opacity="0.501961" stroke="#DE4BCB" stroke-width="299.296" stroke-opacity="0.501961" x1="65718" y1="81246" x2="68060" y2= "82496" />
  <line fill="none" fill-opacity="0.501961" stroke="#DE4BCB" stroke-width="299.296" stroke-opacity="0.501961" x1="69046" y1="80031" x2="68060" y2= "82496" />
  <line fill="none" fill-opacity="0.501961" stroke="#DE4BCB" stroke-width="299.296" stroke-opacity="0.501961" x1="73060" y1="78570" x2="79714" y2= "76158" />
  <line fill="none" fill-opacity="0.501961" stroke="#DE4BCB" stroke-width="299.296" stroke-opacity="0.501961" x1="74714" y1="77971" x2="77056" y2= "79221" />
  <line fill="none" fill-opacity="0.501961" stroke="#DE4BCB" stroke-width="299.296" stroke-opacity="0.501961" x1="78059" y1="76757" x2="77056" y2= "79221" />
  <polygon fill="#DE4BCB" fill-opacity="0.501961" points="86281,76158 84010,72743 84415,72584 85858,74873 86263,75559 86210,74802 85964,72038 86457,71845 87619,73517 88059,74133 88429,74767 88341,73975 87989,71299 88393,71141 88851,75225 88446,75366 86633,72743 86351,72426 86439,72936 86739,76000 "/>
  <polygon fill="#DE4BCB" fill-opacity="0.501961" points="82443,77549 81087,73799 82214,73394 82531,73271 82778,73253 83077,73253 83358,73341 83710,73570 83957,73834 84203,74221 84415,74679 84573,75102 84591,75454 84626,75806 84591,76123 84503,76316 84432,76528 84291,76704 84098,76897 83887,77021 83622,77126 82443,77549 82707,76985 83429,76721 83693,76616 83904,76492 84045,76316 84133,76158 84203,75894 84186,75595 84168,75260 84010,74838 83922,74574 83781,74327 83658,74116 83499,73993 83358,73869 83235,73799 83094,73728 82918,73676 82690,73693 82320,73834 81651,74081 82707,76985 "/>
  <line fill="none" fill-opacity="0.501961" stroke="#DE4BCB" stroke-width="299.296" stroke-opacity="0.501961" x1="91351" y1="71915" x2="98023" y2= "69486" />
  <line fill="none" fill-opacity="0.501961" stroke="#DE4BCB" stroke-width="299.296" stroke-opacity="0.501961" x1="93023" y1="71317" x2="95365" y2= "72567" />
  <line fill="none" fill-opacity="0.501961" stroke="#DE4BCB" stroke-width="299.296" stroke-opacity="0.501961" x1="96351" y1="70102" x2="95365" y2= "72567" />
  <line fill="none" fill-opacity="0.501961" stroke="#DE4BCB" stroke-width="299.296" stroke-opacity="0.501961" x1="100365" y1="68641" x2="107019" y2= "66211" />
  <line fill="none" fill-opacity="0.501961" stroke="#DE4BCB" stroke-width="299.296" stroke-opacity="0.501961" x1="102020" y1="68025" x2="104361" y2= "69292" />
  <line fill="none" fill-opacity="0.501961" stroke="#DE4BCB" stroke-width="299.296" stroke-opacity="0.501961" x1="105347" y1="66827" x2="104361" y2= "69292" />
  <line fill="none" fill-opacity="0.501961" stroke="#DE4BCB" stroke-width="299.296" stroke-opacity="0.501961" x1="109079" y1="65472" x2="115734" y2= "63042" />
  <line fill="none" fill-opacity="0.501961" stroke="#DE4BCB" stroke-width="299.296" stroke-opacity="0.501961" x1="110734" y1="64856" x2="113075" y2= "66106" />
  <line fill="none" fill-opacity="0.501961" stroke="#DE4BCB" stroke-width="299.296" stroke-opacity="0.501961" x1="114061" y1="63641" x2="113075" y2= "66106" />
  <polygon fill="#DE4BCB" fill-opacity="0.501961" points="122582,62937 120328,59521 120733,59381 122177,61652 122582,62356 122511,61599 122265,58817 122758,58641 123937,60296 124360,60930 124747,61564 124659,60754 124289,58078 124694,57937 125170,62004 124765,62145 122934,59521 122670,59205 122740,59715 123039,62778 "/>
  <polygon fill="#DE4BCB" fill-opacity="0.501961" points="118762,64345 117388,60595 118515,60173 118832,60067 119078,60032 119395,60050 119677,60120 120012,60349 120258,60613 120504,61018 120733,61476 120874,61898 120909,62233 120927,62585 120892,62902 120804,63113 120733,63324 120592,63483 120399,63676 120205,63817 119923,63905 118762,64345 119008,63764 119730,63500 119994,63412 120205,63271 120346,63095 120452,62937 120504,62690 120504,62391 120469,62039 120328,61616 120223,61352 120082,61106 119959,60912 119818,60789 119659,60666 119536,60578 119413,60507 119237,60455 118990,60490 118621,60613 117952,60859 119008,63764 "/>
  <line fill="none" fill-opacity="0.501961" stroke="#DE4BCB" stroke-width="299.296" stroke-opacity="0.501961" x1="127670" y1="58694" x2="134324" y2= "56282" />
  <line fill="none" fill-opacity="0.501961" stroke="#DE4BCB" stroke-width="299.296" stroke-opacity="0.501961" x1="129324" y1="58095" x2="131666" y2= "59345" />
  <line fill="none" fill-opacity="0.501961" stroke="#DE4BCB" stroke-width="299.296" stroke-opacity="0.501961" x1="132652" y1="56881" x2="131666" y2= "59345" />
  <line fill="none" fill-opacity="0.501961" stroke="#DE4BCB" stroke-width="299.296" stroke-opacity="0.501961" x1="136666" y1="55420" x2="143320" y2= "52990" />
  <line fill="none" fill-opacity="0.501961" stroke="#DE4BCB" stroke-width="299.296" stroke-opacity="0.501961" x1="138338" y1="54821" x2="140680" y2= "56071" />
  <line fill="none" fill-opacity="0.501961" stroke="#DE4BCB" stroke-width="299.296" stroke-opacity="0.501961" x1="141665" y1="53606" x2="140680" y2= "56071" />
  <line fill="none" fill-opacity="0.501961" stroke="#DE4BCB" stroke-width="299.296" stroke-opacity="0.501961" x1="145380" y1="52251" x2="152034" y2= "49821" />
  <line fill="none" fill-opacity="0.501961" stroke="#DE4BCB" stroke-width="299.296" stroke-opacity="0.501961" x1="147052" y1="51652" x2="149394" y2= "52902" />
  <line fill="none" fill-opacity="0.501961" stroke="#DE4BCB" stroke-width="299.296" stroke-opacity="0.501961" x1="150380" y1="50438" x2="149394" y2= "52902" />
  <polygon fill="#DE4BCB" fill-opacity="0.501961" points="158900,49733 156629,46300 157034,46160 158478,48448 158883,49135 158812,48378 158566,45596 159076,45420 160238,47093 160661,47709 161048,48343 160960,47533 160608,44857 161013,44716 161471,48783 161066,48941 159235,46318 158971,46001 159059,46494 159340,49557 "/>
  <polygon fill="#DE4BCB" fill-opacity="0.501961" points="155062,51124 153707,47374 154834,46969 155150,46846 155379,46829 155696,46829 155978,46899 156312,47145 156577,47410 156823,47797 157034,48255 157193,48677 157210,49029 157228,49381 157193,49681 157122,49892 157034,50103 156893,50279 156717,50455 156506,50596 156242,50702 155062,51124 155309,50561 156031,50297 156312,50191 156506,50050 156647,49892 156752,49733 156805,49469 156805,49170 156788,48818 156629,48395 156524,48131 156383,47885 156260,47691 156119,47568 155978,47445 155837,47374 155714,47304 155538,47251 155291,47269 154939,47410 154253,47656 155309,50561 "/>
  <line fill="none" fill-opacity="0.501961" stroke="#DE4BCB" stroke-width="299.296" stroke-opacity="0.501961" x1="163970" y1="45491" x2="170625" y2= "43061" />
  <line fill="none" fill-opacity="0.501961" stroke="#DE4BCB" stroke-width="299.296" stroke-opacity="0.501961" x1="165643" y1="44874" x2="167984" y2= "46142" />
  <line fill="none" fill-opacity="0.501961" stroke="#DE4BCB" stroke-width="299.296" stroke-opacity="0.501961" x1="168970" y1="43660" x2="167984" y2= "46142" />
  <line fill="none" fill-opacity="0.501961" stroke="#DE4BCB" stroke-width="299.296" stroke-opacity="0.501961" x1="172966" y1="42199" x2="179639" y2= "39787" />
  <line fill="none" fill-opacity="0.501961" stroke="#DE4BCB" stroke-width="299.296" stroke-opacity="0.501961" x1="174639" y1="41600" x2="176980" y2= "42850" />
  <line fill="none" fill-opacity="0.501961" stroke="#DE4BCB" stroke-width="299.296" stroke-opacity="0.501961" x1="177966" y1="40385" x2="176980" y2= "42850" />
  <line fill="none" fill-opacity="0.501961" stroke="#DE4BCB" stroke-width="299.296" stroke-opacity="0.501961" x1="181681" y1="39030" x2="188353" y2= "36618" />
  <line fill="none" fill-opacity="0.501961" stroke="#DE4BCB" stroke-width="299.296" stroke-opacity="0.501961" x1="183353" y1="38431" x2="185695" y2= "39681" />
  <line fill="none" fill-opacity="0.501961" stroke="#DE4BCB" stroke-width="299.296" stroke-opacity="0.501961" x1="186681" y1="37216" x2="185695" y2= "39681" />
  <polygon fill="#DE4BCB" fill-opacity="0.501961" points="195201,36512 192930,33097 193335,32938 194796,35227 195184,35914 195131,35174 194884,32393 195377,32199 196539,33872 196979,34488 197367,35121 197261,34329 196909,31653 197314,31495 197772,35579 197367,35720 195553,33097 195272,32780 195360,33291 195659,36354 "/>
  <polygon fill="#DE4BCB" fill-opacity="0.501961" points="191363,37903 190008,34153 191135,33748 191451,33643 191698,33607 191997,33607 192279,33695 192631,33924 192877,34188 193124,34576 193335,35033 193494,35456 193511,35808 193546,36160 193511,36477 193423,36688 193353,36882 193212,37058 193018,37252 192807,37375 192543,37480 191363,37903 191627,37340 192349,37076 192613,36970 192825,36847 192965,36671 193053,36512 193124,36248 193106,35966 193089,35614 192930,35192 192842,34928 192701,34681 192578,34488 192420,34347 192279,34224 192156,34153 192015,34083 191839,34030 191610,34065 191240,34188 190571,34435 191627,37340 "/>
  <line fill="none" fill-opacity="0.501961" stroke="#DE4BCB" stroke-width="299.296" stroke-opacity="0.501961" x1="200271" y1="32269" x2="206944" y2= "29840" />
  <line fill="none" fill-opacity="0.501961" stroke="#DE4BCB" stroke-width="299.296" stroke-opacity="0.501961" x1="201944" y1="31671" x2="204285" y2= "32921" />
  <line fill="none" fill-opacity="0.501961" stroke="#DE4BCB" stroke-width="299.296" stroke-opacity="0.501961" x1="205271" y1="30456" x2="204285" y2= "32921" />
  <line fill="none" fill-opacity="0.501961" stroke="#DE4BCB" stroke-width="299.296" stroke-opacity="0.501961" x1="209285" y1="28995" x2="215940" y2= "26566" />
  <line fill="none" fill-opacity="0.501961" stroke="#DE4BCB" stroke-width="299.296" stroke-opacity="0.501961" x1="210940" y1="28379" x2="213281" y2= "29646" />
  <line fill="none" fill-opacity="0.501961" stroke="#DE4BCB" stroke-width="299.296" stroke-opacity="0.501961" x1="214267" y1="27182" x2="213281" y2= "29646" />
  <line fill="none" fill-opacity="0.501961" stroke="#DE4BCB" stroke-width="299.296" stroke-opacity="0.501961" x1="218281" y1="25720" x2="224936" y2= "23291" />
  <line fill="none" fill-opacity="0.501961" stroke="#DE4BCB" stroke-width="299.296" stroke-opacity="0.501961" x1="219954" y1="25104" x2="222295" y2= "26372" />
  <line fill="none" fill-opacity="0.501961" stroke="#DE4BCB" stroke-width="299.296" stroke-opacity="0.501961" x1="223281" y1="23890" x2="222295" y2= "26372" />
  <polygon fill="#DE4BCB" fill-opacity="0.501961" points="231502,23291 229249,19876 229654,19735 231097,22006 231502,22710 231432,21953 231185,19172 231678,18996 232840,20650 233280,21284 233668,21918 233580,21108 233210,18432 233615,18291 234090,22358 233668,22516 231854,19893 231590,19559 231661,20069 231960,23133 "/>
  <polygon fill="#DE4BCB" fill-opacity="0.501961" points="227682,24699 226309,20950 227436,20527 227752,20421 227999,20386 228316,20404 228597,20474 228932,20703 229178,20985 229425,21372 229654,21830 229795,22252 229830,22604 229847,22939 229812,23256 229724,23467 229654,23678 229513,23837 229319,24030 229126,24171 228844,24259 227682,24699 227928,24119 228650,23854 228914,23766 229126,23626 229266,23450 229372,23309 229425,23045 229425,22745 229390,22393 229231,21971 229143,21707 229002,21460 228879,21266 228738,21143 228580,21020 228457,20950 228333,20862 228157,20809 227911,20844 227541,20967 226872,21214 227928,24119 "/>
  <line fill="none" fill-opacity="0.501961" stroke="#DE4BCB" stroke-width="299.296" stroke-opacity="0.501961" x1="236590" y1="19048" x2="243245" y2= "16636" />
  <line fill="none" fill-opacity="0.501961" stroke="#DE4BCB" stroke-width="299.296" stroke-opacity="0.501961" x1="238245" y1="18450" x2="240586" y2= "19700" />
  <line fill="none" fill-opacity="0.501961" stroke="#DE4BCB" stroke-width="299.296" stroke-opacity="0.501961" x1="241572" y1="17235" x2="240586" y2= "19700" />
  <line fill="none" fill-opacity="0.501961" stroke="#DE4BCB" stroke-width="299.296" stroke-opacity="0.501961" x1="245586" y1="15774" x2="252241" y2= "13362" />
  <line fill="none" fill-opacity="0.501961" stroke="#DE4BCB" stroke-width="299.296" stroke-opacity="0.501961" x1="247258" y1="15175" x2="249600" y2= "16425" />
  <line fill="none" fill-opacity="0.501961" stroke="#DE4BCB" stroke-width="299.296" stroke-opacity="0.501961" x1="250586" y1="13961" x2="249600" y2= "16425" />
  <line fill="none" fill-opacity="0.501961" stroke="#DE4BCB" stroke-width="299.296" stroke-opacity="0.501961" x1="254600" y1="12499" x2="261254" y2= "10070" />
  <line fill="none" fill-opacity="0.501961" stroke="#DE4BCB" stroke-width="299.296" stroke-opacity="0.501961" x1="256254" y1="11901" x2="258596" y2= "13151" />
  <line fill="none" fill-opacity="0.501961" stroke="#DE4BCB" stroke-width="299.296" stroke-opacity="0.501961" x1="259582" y1="10686" x2="258596" y2= "13151" />
  <polygon fill="#DE4BCB" fill-opacity="0.501961" points="267821,10087 265550,6672 265955,6514 267398,8802 267803,9489 267733,8732 267486,5950 267979,5774 269159,7447 269581,8063 269969,8697 269881,7905 269528,5211 269933,5070 270391,9154 269986,9295 268155,6672 267891,6355 267979,6866 268261,9911 "/>
  <polygon fill="#DE4BCB" fill-opacity="0.501961" points="263983,11478 262610,7728 263737,7324 264053,7200 264300,7183 264617,7183 264898,7253 265233,7500 265497,7764 265726,8151 265955,8609 266113,9031 266131,9383 266148,9735 266113,10052 266043,10246 265955,10457 265814,10633 265638,10827 265427,10950 265162,11056 263983,11478 264229,10915 264951,10651 265233,10545 265427,10404 265567,10246 265673,10087 265726,9823 265726,9524 265691,9172 265550,8750 265444,8485 265303,8239 265180,8045 265039,7922 264898,7799 264758,7728 264634,7658 264458,7605 264212,7623 263860,7764 263173,8010 264229,10915 "/>
  <line fill="none" fill-opacity="0.501961" stroke="#DE4BCB" stroke-width="299.296" stroke-opacity="0.501961" x1="272891" y1="5845" x2="279546" y2= "3415" />
  <line fill="none" fill-opacity="0.501961" stroke="#DE4BCB" stroke-width="299.296" stroke-opacity="0.501961" x1="274546" y1="5229" x2="276905" y2= "6496" />
  <line fill="none" fill-opacity="0.501961" stroke="#DE4BCB" stroke-width="299.296" stroke-opacity="0.501961" x1="277891" y1="4031" x2="276905" y2= "6496" />
  <line fill="none" fill-opacity="0.501961" stroke="#DE4BCB" stroke-width="299.296" stroke-opacity="0.501961" x1="281887" y1="2570" x2="288559" y2= "141" />
  <line fill="none" fill-opacity="0.501961" stroke="#DE4BCB" stroke-width="299.296" stroke-opacity="0.501961" x1="283559" y1="1954" x2="285901" y2= "3222" />
  <line fill="none" fill-opacity="0.501961" stroke="#DE4BCB" stroke-width="299.296" stroke-opacity="0.501961" x1="286887" y1="739" x2="285901" y2= "3222" />
 </g>
</svg>
