<?xml version="1.0" encoding="UTF-8"?>
<!DOCTYPE svg PUBLIC "-//W3C//DTD SVG 1.0//EN" "http://www.w3.org/TR/2001/REC-SVG-20010904/DTD/svg10.dtd">
<!-- Creator: CorelDRAW X6 -->
<svg xmlns="http://www.w3.org/2000/svg" xml:space="preserve" width="131px" height="80px" version="1.0" shape-rendering="geometricPrecision" text-rendering="geometricPrecision" image-rendering="optimizeQuality" fill-rule="evenodd" clip-rule="evenodd"
viewBox="0 0 13100 8044"
 xmlns:xlink="http://www.w3.org/1999/xlink">
 <g id="_0754.cgm:type:overlay">
  <metadata id="CorelCorpID_0Corel-Layer"/>
  <IC_ColorNameTable/>
  <PictureProperties/>
  <line fill="none" fill-opacity="0.501961" stroke="#618DF4" stroke-width="378.064" stroke-opacity="0.501961" x1="190" y1="4652" x2="12451" y2= "189" />
  <path fill="#618DF4" fill-opacity="0.501961" stroke="#618DF4" stroke-width="90.0547" stroke-linecap="square" stroke-linejoin="round" stroke-opacity="0.501961" d="M925 5265c-45,-123 -181,-186 -303,-142 -123,44 -186,180 -141,302 45,123 181,186 303,142 123,-44 186,-180 141,-302z"/>
  <path fill="#618DF4" fill-opacity="0.501961" stroke="#618DF4" stroke-width="90.0547" stroke-linecap="square" stroke-linejoin="round" stroke-opacity="0.501961" d="M1350 6493c-45,-123 -180,-186 -303,-141 -123,45 -186,181 -141,303 45,123 181,186 303,141 123,-45 186,-180 141,-303z"/>
  <path fill="#618DF4" fill-opacity="0.501961" stroke="#618DF4" stroke-width="90.0547" stroke-linecap="square" stroke-linejoin="round" stroke-opacity="0.501961" d="M1780 7720c-45,-123 -181,-186 -303,-142 -123,44 -186,180 -141,302 45,123 181,186 303,142 123,-44 186,-180 141,-302z"/>
  <path fill="#618DF4" fill-opacity="0.501961" stroke="#618DF4" stroke-width="90.0547" stroke-linecap="square" stroke-linejoin="round" stroke-opacity="0.501961" d="M1928 5654c-45,-123 -180,-186 -303,-141 -123,45 -186,181 -141,303 45,123 181,186 303,141 123,-45 186,-180 141,-303z"/>
  <path fill="#618DF4" fill-opacity="0.501961" stroke="#618DF4" stroke-width="90.0547" stroke-linecap="square" stroke-linejoin="round" stroke-opacity="0.501961" d="M2353 6883c-45,-123 -181,-186 -303,-142 -123,44 -186,180 -141,303 45,123 181,186 303,142 123,-44 186,-180 141,-303z"/>
  <path fill="#618DF4" fill-opacity="0.501961" stroke="#618DF4" stroke-width="90.0547" stroke-linecap="square" stroke-linejoin="round" stroke-opacity="0.501961" d="M2461 4706c-45,-123 -181,-186 -303,-142 -123,44 -186,180 -141,302 45,123 181,186 303,142 123,-44 186,-180 141,-302z"/>
  <path fill="#618DF4" fill-opacity="0.501961" stroke="#618DF4" stroke-width="90.0547" stroke-linecap="square" stroke-linejoin="round" stroke-opacity="0.501961" d="M2886 5934c-45,-123 -181,-186 -303,-141 -123,45 -186,181 -141,303 45,123 181,186 303,141 123,-45 186,-180 141,-303z"/>
  <path fill="#618DF4" fill-opacity="0.501961" stroke="#618DF4" stroke-width="90.0547" stroke-linecap="square" stroke-linejoin="round" stroke-opacity="0.501961" d="M3311 7163c-45,-123 -181,-186 -303,-142 -123,44 -186,180 -141,303 45,123 181,186 303,142 123,-44 186,-180 141,-303z"/>
  <path fill="#618DF4" fill-opacity="0.501961" stroke="#618DF4" stroke-width="90.0547" stroke-linecap="square" stroke-linejoin="round" stroke-opacity="0.501961" d="M3463 5095c-44,-123 -180,-186 -303,-141 -123,45 -186,181 -141,303 44,123 180,186 302,141 123,-45 186,-181 142,-303z"/>
  <path fill="#618DF4" fill-opacity="0.501961" stroke="#618DF4" stroke-width="90.0547" stroke-linecap="square" stroke-linejoin="round" stroke-opacity="0.501961" d="M3883 6326c-44,-123 -180,-186 -302,-141 -123,45 -186,181 -142,303 44,123 180,186 302,141 123,-45 186,-181 142,-303z"/>
  <path fill="#618DF4" fill-opacity="0.501961" stroke="#618DF4" stroke-width="90.0547" stroke-linecap="square" stroke-linejoin="round" stroke-opacity="0.501961" d="M3991 4149c-45,-123 -181,-186 -303,-141 -123,45 -186,180 -141,303 45,123 181,186 303,141 123,-45 186,-181 141,-303z"/>
  <path fill="#618DF4" fill-opacity="0.501961" stroke="#618DF4" stroke-width="90.0547" stroke-linecap="square" stroke-linejoin="round" stroke-opacity="0.501961" d="M4416 5378c-45,-123 -181,-186 -303,-142 -123,44 -186,180 -141,302 45,123 181,186 303,142 123,-44 186,-180 141,-302z"/>
  <path fill="#618DF4" fill-opacity="0.501961" stroke="#618DF4" stroke-width="90.0547" stroke-linecap="square" stroke-linejoin="round" stroke-opacity="0.501961" d="M4845 6604c-45,-123 -181,-186 -303,-141 -123,45 -186,181 -141,303 45,123 180,186 303,141 123,-45 186,-180 141,-303z"/>
  <path fill="#618DF4" fill-opacity="0.501961" stroke="#618DF4" stroke-width="90.0547" stroke-linecap="square" stroke-linejoin="round" stroke-opacity="0.501961" d="M4993 4538c-45,-123 -180,-186 -303,-141 -123,45 -186,181 -141,303 45,123 181,186 303,141 123,-45 186,-181 141,-303z"/>
  <path fill="#618DF4" fill-opacity="0.501961" stroke="#618DF4" stroke-width="90.0547" stroke-linecap="square" stroke-linejoin="round" stroke-opacity="0.501961" d="M5419 5767c-45,-123 -181,-186 -303,-141 -123,45 -186,181 -141,303 45,123 180,186 303,141 123,-45 186,-180 141,-303z"/>
  <path fill="#618DF4" fill-opacity="0.501961" stroke="#618DF4" stroke-width="90.0547" stroke-linecap="square" stroke-linejoin="round" stroke-opacity="0.501961" d="M5526 3590c-45,-123 -180,-186 -303,-141 -123,45 -186,181 -141,303 45,123 181,186 303,141 123,-45 186,-181 141,-303z"/>
  <path fill="#618DF4" fill-opacity="0.501961" stroke="#618DF4" stroke-width="90.0547" stroke-linecap="square" stroke-linejoin="round" stroke-opacity="0.501961" d="M5951 4819c-44,-123 -180,-186 -303,-142 -123,44 -187,180 -143,303 44,123 180,186 303,142 123,-44 187,-180 143,-303z"/>
  <path fill="#618DF4" fill-opacity="0.501961" stroke="#618DF4" stroke-width="90.0547" stroke-linecap="square" stroke-linejoin="round" stroke-opacity="0.501961" d="M6375 6047c-44,-123 -180,-186 -302,-141 -123,45 -186,181 -142,303 44,123 180,186 302,141 123,-45 186,-181 142,-303z"/>
  <path fill="#618DF4" fill-opacity="0.501961" stroke="#618DF4" stroke-width="90.0547" stroke-linecap="square" stroke-linejoin="round" stroke-opacity="0.501961" d="M6528 3980c-44,-123 -180,-186 -302,-142 -123,44 -186,180 -142,302 44,123 180,186 302,142 123,-44 186,-180 142,-302z"/>
  <path fill="#618DF4" fill-opacity="0.501961" stroke="#618DF4" stroke-width="90.0547" stroke-linecap="square" stroke-linejoin="round" stroke-opacity="0.501961" d="M6948 5210c-44,-123 -180,-186 -303,-141 -123,45 -186,181 -142,303 44,123 180,186 302,141 123,-45 186,-181 142,-303z"/>
  <path fill="#618DF4" fill-opacity="0.501961" stroke="#618DF4" stroke-width="90.0547" stroke-linecap="square" stroke-linejoin="round" stroke-opacity="0.501961" d="M7056 3033c-45,-123 -181,-186 -303,-141 -123,45 -186,180 -141,303 45,123 180,186 303,141 123,-45 186,-181 141,-303z"/>
  <path fill="#618DF4" fill-opacity="0.501961" stroke="#618DF4" stroke-width="90.0547" stroke-linecap="square" stroke-linejoin="round" stroke-opacity="0.501961" d="M7481 4262c-45,-123 -181,-186 -303,-141 -123,45 -186,180 -141,303 45,123 180,186 303,141 123,-45 186,-181 141,-303z"/>
  <path fill="#618DF4" fill-opacity="0.501961" stroke="#618DF4" stroke-width="90.0547" stroke-linecap="square" stroke-linejoin="round" stroke-opacity="0.501961" d="M7911 5488c-45,-123 -181,-186 -303,-141 -123,45 -186,181 -141,303 45,123 180,186 303,141 123,-45 186,-181 141,-303z"/>
  <path fill="#618DF4" fill-opacity="0.501961" stroke="#618DF4" stroke-width="90.0547" stroke-linecap="square" stroke-linejoin="round" stroke-opacity="0.501961" d="M8059 3423c-45,-123 -181,-186 -303,-142 -123,44 -186,180 -141,302 45,123 181,186 303,142 123,-44 186,-180 141,-302z"/>
  <path fill="#618DF4" fill-opacity="0.501961" stroke="#618DF4" stroke-width="90.0547" stroke-linecap="square" stroke-linejoin="round" stroke-opacity="0.501961" d="M8484 4651c-45,-123 -181,-186 -303,-141 -123,45 -186,180 -141,303 45,123 180,186 303,141 123,-45 186,-181 141,-303z"/>
  <path fill="#618DF4" fill-opacity="0.501961" stroke="#618DF4" stroke-width="90.0547" stroke-linecap="square" stroke-linejoin="round" stroke-opacity="0.501961" d="M8591 2474c-44,-123 -180,-186 -303,-141 -123,45 -187,181 -143,303 44,123 180,186 303,141 123,-45 187,-181 143,-303z"/>
  <path fill="#618DF4" fill-opacity="0.501961" stroke="#618DF4" stroke-width="90.0547" stroke-linecap="square" stroke-linejoin="round" stroke-opacity="0.501961" d="M9016 3703c-44,-123 -180,-186 -302,-141 -123,45 -186,181 -142,303 44,123 180,186 303,141 123,-45 186,-181 141,-303z"/>
  <path fill="#618DF4" fill-opacity="0.501961" stroke="#618DF4" stroke-width="90.0547" stroke-linecap="square" stroke-linejoin="round" stroke-opacity="0.501961" d="M9441 4932c-44,-123 -180,-186 -303,-142 -123,44 -186,180 -142,302 44,123 180,186 303,142 123,-44 186,-180 142,-302z"/>
  <path fill="#618DF4" fill-opacity="0.501961" stroke="#618DF4" stroke-width="90.0547" stroke-linecap="square" stroke-linejoin="round" stroke-opacity="0.501961" d="M9593 2864c-44,-123 -180,-186 -302,-142 -123,45 -186,181 -142,304 44,123 180,187 303,142 123,-45 186,-181 141,-304z"/>
  <path fill="#618DF4" fill-opacity="0.501961" stroke="#618DF4" stroke-width="90.0547" stroke-linecap="square" stroke-linejoin="round" stroke-opacity="0.501961" d="M10014 4095c-45,-123 -181,-186 -303,-142 -123,44 -186,180 -141,302 45,123 181,186 303,141 123,-44 186,-180 141,-302z"/>
  <path fill="#618DF4" fill-opacity="0.501961" stroke="#618DF4" stroke-width="90.0547" stroke-linecap="square" stroke-linejoin="round" stroke-opacity="0.501961" d="M10121 1918c-45,-123 -181,-186 -303,-142 -123,44 -186,180 -141,303 45,123 181,186 303,142 123,-44 186,-180 141,-303z"/>
  <path fill="#618DF4" fill-opacity="0.501961" stroke="#618DF4" stroke-width="90.0547" stroke-linecap="square" stroke-linejoin="round" stroke-opacity="0.501961" d="M10546 3146c-45,-123 -180,-186 -303,-141 -123,45 -186,180 -141,303 45,123 180,186 303,141 123,-45 186,-181 141,-303z"/>
  <path fill="#618DF4" fill-opacity="0.501961" stroke="#618DF4" stroke-width="90.0547" stroke-linecap="square" stroke-linejoin="round" stroke-opacity="0.501961" d="M10976 4373c-45,-123 -181,-186 -303,-142 -123,44 -186,180 -141,303 45,123 181,186 303,142 123,-44 186,-180 141,-303z"/>
  <path fill="#618DF4" fill-opacity="0.501961" stroke="#618DF4" stroke-width="90.0547" stroke-linecap="square" stroke-linejoin="round" stroke-opacity="0.501961" d="M11124 2307c-45,-123 -180,-186 -303,-141 -123,45 -186,180 -141,303 45,123 181,186 303,141 123,-45 186,-181 141,-303z"/>
  <path fill="#618DF4" fill-opacity="0.501961" stroke="#618DF4" stroke-width="90.0547" stroke-linecap="square" stroke-linejoin="round" stroke-opacity="0.501961" d="M11549 3536c-45,-123 -181,-186 -303,-142 -123,44 -186,180 -141,302 45,123 181,186 303,142 123,-44 186,-180 141,-302z"/>
  <path fill="#618DF4" fill-opacity="0.501961" stroke="#618DF4" stroke-width="90.0547" stroke-linecap="square" stroke-linejoin="round" stroke-opacity="0.501961" d="M11657 1359c-44,-123 -180,-186 -303,-142 -123,44 -187,180 -142,302 44,123 180,186 303,142 123,-44 187,-180 143,-302z"/>
  <path fill="#618DF4" fill-opacity="0.501961" stroke="#618DF4" stroke-width="90.0547" stroke-linecap="square" stroke-linejoin="round" stroke-opacity="0.501961" d="M12081 2587c-44,-123 -180,-186 -302,-141 -123,45 -186,181 -142,303 44,123 180,186 302,141 123,-45 186,-181 142,-303z"/>
  <path fill="#618DF4" fill-opacity="0.501961" stroke="#618DF4" stroke-width="90.0547" stroke-linecap="square" stroke-linejoin="round" stroke-opacity="0.501961" d="M12506 3816c-44,-123 -180,-186 -303,-141 -123,45 -186,181 -141,303 44,123 180,186 302,141 123,-45 186,-181 142,-303z"/>
  <path fill="#618DF4" fill-opacity="0.501961" stroke="#618DF4" stroke-width="90.0547" stroke-linecap="square" stroke-linejoin="round" stroke-opacity="0.501961" d="M12659 1748c-44,-123 -180,-186 -302,-141 -123,45 -186,181 -142,303 44,123 180,186 302,141 123,-45 186,-181 142,-303z"/>
  <path fill="#618DF4" fill-opacity="0.501961" stroke="#618DF4" stroke-width="90.0547" stroke-linecap="square" stroke-linejoin="round" stroke-opacity="0.501961" d="M13079 2979c-44,-123 -180,-186 -302,-141 -123,45 -186,181 -142,303 44,123 180,186 303,141 123,-45 186,-181 142,-303z"/>
 </g>
</svg>
