<?xml version="1.0" encoding="UTF-8"?>
<!DOCTYPE svg PUBLIC "-//W3C//DTD SVG 1.0//EN" "http://www.w3.org/TR/2001/REC-SVG-20010904/DTD/svg10.dtd">
<!-- Creator: CorelDRAW X6 -->
<svg xmlns="http://www.w3.org/2000/svg" xml:space="preserve" width="144px" height="152px" version="1.0" shape-rendering="geometricPrecision" text-rendering="geometricPrecision" image-rendering="optimizeQuality" fill-rule="evenodd" clip-rule="evenodd"
viewBox="0 0 14400 15224"
 xmlns:xlink="http://www.w3.org/1999/xlink">
 <g id="_0902.cgm:type:overlay">
  <metadata id="CorelCorpID_0Corel-Layer"/>
  <IC_ColorNameTable/>
  <PictureProperties/>
  <line fill="none" fill-opacity="0.501961" stroke="#EBB7ED" stroke-width="237.101" stroke-linecap="round" stroke-linejoin="round" stroke-opacity="0.501961" x1="6611" y1="118" x2="7792" y2= "118" />
  <line fill="none" fill-opacity="0.501961" stroke="#EBB7ED" stroke-width="237.101" stroke-linecap="round" stroke-linejoin="round" stroke-opacity="0.501961" x1="6611" y1="118" x2="6611" y2= "4070" />
  <line fill="none" fill-opacity="0.501961" stroke="#EBB7ED" stroke-width="237.101" stroke-linecap="round" stroke-linejoin="round" stroke-opacity="0.501961" x1="7792" y1="118" x2="7792" y2= "4070" />
  <line fill="none" fill-opacity="0.501961" stroke="#EBB7ED" stroke-width="237.101" stroke-linecap="round" stroke-linejoin="round" stroke-opacity="0.501961" x1="6611" y1="4070" x2="2716" y2= "4070" />
  <line fill="none" fill-opacity="0.501961" stroke="#EBB7ED" stroke-width="237.101" stroke-linecap="round" stroke-linejoin="round" stroke-opacity="0.501961" x1="7792" y1="4070" x2="11687" y2= "4070" />
  <line fill="none" fill-opacity="0.501961" stroke="#EBB7ED" stroke-width="237.101" stroke-linecap="round" stroke-linejoin="round" stroke-opacity="0.501961" x1="2716" y1="4070" x2="2716" y2= "5723" />
  <line fill="none" fill-opacity="0.501961" stroke="#EBB7ED" stroke-width="237.101" stroke-linecap="round" stroke-linejoin="round" stroke-opacity="0.501961" x1="11687" y1="4070" x2="11687" y2= "5723" />
  <line fill="none" fill-opacity="0.501961" stroke="#EBB7ED" stroke-width="237.101" stroke-linecap="round" stroke-linejoin="round" stroke-opacity="0.501961" x1="2716" y1="5723" x2="6611" y2= "5723" />
  <line fill="none" fill-opacity="0.501961" stroke="#EBB7ED" stroke-width="237.101" stroke-linecap="round" stroke-linejoin="round" stroke-opacity="0.501961" x1="11687" y1="5723" x2="7792" y2= "5723" />
  <line fill="none" fill-opacity="0.501961" stroke="#EBB7ED" stroke-width="237.101" stroke-linecap="round" stroke-linejoin="round" stroke-opacity="0.501961" x1="6611" y1="5723" x2="6611" y2= "13513" />
  <line fill="none" fill-opacity="0.501961" stroke="#EBB7ED" stroke-width="237.101" stroke-linecap="round" stroke-linejoin="round" stroke-opacity="0.501961" x1="7792" y1="5723" x2="7792" y2= "13513" />
  <line fill="none" fill-opacity="0.501961" stroke="#EBB7ED" stroke-width="237.101" stroke-linecap="round" stroke-linejoin="round" stroke-opacity="0.501961" x1="121" y1="11389" x2="2008" y2= "11389" />
  <line fill="none" fill-opacity="0.501961" stroke="#EBB7ED" stroke-width="237.101" stroke-linecap="round" stroke-linejoin="round" stroke-opacity="0.501961" x1="14282" y1="11389" x2="12395" y2= "11389" />
  <path fill="none" fill-opacity="0.501961" stroke="#EBB7ED" stroke-width="237.101" stroke-linecap="round" stroke-linejoin="round" stroke-opacity="0.501961" d="M1935 11335c1280,1086 3025,1900 4693,2172"/>
  <polyline fill="none" fill-opacity="0.501961" stroke="#EBB7ED" stroke-width="237.101" stroke-linecap="round" stroke-linejoin="round" stroke-opacity="0.501961" points="118,11387 569,11765 1050,12141 1544,12500 2050,12840 2568,13164 3096,13469 3635,13756 4183,14024 4741,14272 5306,14500 5880,14709 6460,14897 7201,15106 "/>
  <polyline fill="none" fill-opacity="0.501961" stroke="#EBB7ED" stroke-width="237.101" stroke-linecap="round" stroke-linejoin="round" stroke-opacity="0.501961" points="7201,15105 7792,14935 8399,14738 8999,14520 9591,14280 10174,14021 10748,13741 11312,13441 11866,13122 12407,12783 12936,12426 13452,12051 14282,11388 "/>
  <path fill="none" fill-opacity="0.501961" stroke="#EBB7ED" stroke-width="237.101" stroke-linecap="round" stroke-linejoin="round" stroke-opacity="0.501961" d="M7671 13523c1691,-203 3348,-947 4632,-2063"/>
 </g>
</svg>
