<?xml version="1.0" encoding="UTF-8"?>
<!DOCTYPE svg PUBLIC "-//W3C//DTD SVG 1.0//EN" "http://www.w3.org/TR/2001/REC-SVG-20010904/DTD/svg10.dtd">
<!-- Creator: CorelDRAW X6 -->
<svg xmlns="http://www.w3.org/2000/svg" xml:space="preserve" width="102px" height="47px" version="1.0" shape-rendering="geometricPrecision" text-rendering="geometricPrecision" image-rendering="optimizeQuality" fill-rule="evenodd" clip-rule="evenodd"
viewBox="0 0 10200 4682"
 xmlns:xlink="http://www.w3.org/1999/xlink">
 <g id="_1005.cgm:type:overlay">
  <metadata id="CorelCorpID_0Corel-Layer"/>
  <IC_ColorNameTable/>
  <PictureProperties/>
  <polyline fill="none" fill-opacity="0.501961" stroke="#EAFFF4" stroke-width="236.131" stroke-linecap="round" stroke-linejoin="round" stroke-opacity="0.501961" points="2730,1787 4597,118 8401,997 8230,2295 "/>
  <polygon fill="#EAFFF4" fill-opacity="0.501961" points="6884,3512 6971,3300 7020,3078 7032,2974 7038,2835 7020,2697 6982,2562 6959,2484 6927,2409 6868,2285 6815,2188 8654,2408 10196,2514 9602,3511 "/>
  <polygon fill="#EAFFF4" fill-opacity="0.501961" points="4113,1923 3968,2107 3842,2301 3787,2499 3747,2896 3848,3256 3927,3426 1374,3426 4,1511 2664,1791 "/>
  <polygon fill="#EAFFF4" fill-opacity="0.501961" points="5000,3568 5000,2000 6031,2000 6031,2269 5314,2269 5314,2627 5941,2627 5941,2896 5314,2896 5314,3568 "/>
  <path fill="none" fill-opacity="0.501961" stroke="#EAFFF4" stroke-width="354.491" stroke-linecap="square" stroke-linejoin="round" stroke-opacity="0.501961" d="M7132 2852c0,-913 -740,-1652 -1652,-1652 -913,0 -1652,740 -1652,1652 0,913 740,1652 1652,1652 913,0 1652,-740 1652,-1652z"/>
 </g>
</svg>
