<?xml version="1.0" encoding="UTF-8"?>
<!DOCTYPE svg PUBLIC "-//W3C//DTD SVG 1.0//EN" "http://www.w3.org/TR/2001/REC-SVG-20010904/DTD/svg10.dtd">
<!-- Creator: CorelDRAW X6 -->
<svg xmlns="http://www.w3.org/2000/svg" xml:space="preserve" width="81px" height="86px" version="1.0" shape-rendering="geometricPrecision" text-rendering="geometricPrecision" image-rendering="optimizeQuality" fill-rule="evenodd" clip-rule="evenodd"
viewBox="0 0 8100 8578"
 xmlns:xlink="http://www.w3.org/1999/xlink">
 <g id="_1008.cgm:type:overlay">
  <metadata id="CorelCorpID_0Corel-Layer"/>
  <IC_ColorNameTable/>
  <PictureProperties/>
  <path fill="blue" fill-opacity="0.501961" stroke="blue" stroke-width="89.8193" stroke-linecap="square" stroke-linejoin="round" stroke-opacity="0.501961" d="M3018 519c690,690 690,1809 0,2499 -690,690 -1809,690 -2500,0 -690,-690 -690,-1809 0,-2499 690,-690 1809,-690 2499,0z"/>
  <path fill="none" fill-opacity="0.501961" stroke="blue" stroke-width="235.982" stroke-linecap="round" stroke-linejoin="round" stroke-opacity="0.501961" d="M5463 5685c179,-1028 -354,-2062 -1300,-2519 -382,-184 -827,-256 -1243,-222"/>
  <path fill="none" fill-opacity="0.501961" stroke="blue" stroke-width="235.982" stroke-linecap="round" stroke-linejoin="round" stroke-opacity="0.501961" d="M5467 5685c-21,110 -33,248 -36,368 -28,1298 1008,2380 2305,2408 64,1 147,-6 203,-5"/>
 </g>
</svg>
