<?xml version="1.0" encoding="UTF-8"?>
<!DOCTYPE svg PUBLIC "-//W3C//DTD SVG 1.0//EN" "http://www.w3.org/TR/2001/REC-SVG-20010904/DTD/svg10.dtd">
<!-- Creator: CorelDRAW X6 -->
<svg xmlns="http://www.w3.org/2000/svg" xml:space="preserve" width="372px" height="150px" version="1.0" shape-rendering="geometricPrecision" text-rendering="geometricPrecision" image-rendering="optimizeQuality" fill-rule="evenodd" clip-rule="evenodd"
viewBox="0 0 37200 14994"
 xmlns:xlink="http://www.w3.org/1999/xlink">
 <g id="_1513.cgm:type:overlay">
  <metadata id="CorelCorpID_0Corel-Layer"/>
  <IC_ColorNameTable/>
  <PictureProperties/>
  <polyline fill="none" fill-opacity="0.501961" stroke="#E0C3B4" stroke-width="378.304" stroke-opacity="0.501961" points="190,14253 220,13627 1243,14804 1300,13850 1633,12953 2392,14467 2110,12382 3052,13987 3506,12829 3979,13254 4109,11974 4632,12637 "/>
  <polyline fill="none" fill-opacity="0.501961" stroke="#E0C3B4" stroke-width="378.304" stroke-opacity="0.501961" points="4783,12582 4813,11956 5838,13132 5893,12178 6226,11282 6987,12793 6705,10711 7647,12313 8099,11158 8571,11580 8702,10300 9225,10965 "/>
  <polyline fill="none" fill-opacity="0.501961" stroke="#E0C3B4" stroke-width="378.304" stroke-opacity="0.501961" points="9452,10883 9482,10257 10504,11433 10562,10479 10894,9583 11653,11094 11374,9011 12314,10617 12768,9459 13240,9883 13371,8603 13894,9266 "/>
  <polyline fill="none" fill-opacity="0.501961" stroke="#E0C3B4" stroke-width="378.304" stroke-opacity="0.501961" points="14045,9211 14075,8585 15100,9761 15155,8807 15487,7911 16249,9422 15967,7340 16909,8943 17361,7785 17833,8209 17964,6930 18487,7594 "/>
  <polyline fill="none" fill-opacity="0.501961" stroke="#E0C3B4" stroke-width="378.304" stroke-opacity="0.501961" points="18674,7526 18707,6900 19729,8076 19787,7122 20119,6226 20878,7737 20596,5655 21539,7257 21993,6099 22465,6524 22596,5244 23118,5909 "/>
  <polyline fill="none" fill-opacity="0.501961" stroke="#E0C3B4" stroke-width="378.304" stroke-opacity="0.501961" points="23307,5840 23336,5214 24361,6391 24416,5437 24749,4540 25510,6051 25228,3969 26170,5572 26622,4414 27095,4838 27225,3559 27748,4224 "/>
  <polyline fill="none" fill-opacity="0.501961" stroke="#E0C3B4" stroke-width="378.304" stroke-opacity="0.501961" points="27938,4155 27968,3529 28991,4705 29048,3751 29381,2855 30140,4366 29860,2284 30800,3887 31254,2729 31726,3153 31857,1873 32380,2538 "/>
  <polyline fill="none" fill-opacity="0.501961" stroke="#E0C3B4" stroke-width="378.304" stroke-opacity="0.501961" points="32568,2470 32598,1844 33623,3020 33678,2066 34010,1169 34772,2681 34490,598 35432,2201 35884,1043 36356,1467 36487,188 37010,853 "/>
 </g>
</svg>
