<?xml version="1.0" encoding="UTF-8"?>
<!DOCTYPE svg PUBLIC "-//W3C//DTD SVG 1.0//EN" "http://www.w3.org/TR/2001/REC-SVG-20010904/DTD/svg10.dtd">
<!-- Creator: CorelDRAW X6 -->
<svg xmlns="http://www.w3.org/2000/svg" xml:space="preserve" width="61px" height="61px" version="1.0" shape-rendering="geometricPrecision" text-rendering="geometricPrecision" image-rendering="optimizeQuality" fill-rule="evenodd" clip-rule="evenodd"
viewBox="0 0 6100 6100"
 xmlns:xlink="http://www.w3.org/1999/xlink">
 <g id="_2089.cgm:type:overlay">
  <metadata id="CorelCorpID_0Corel-Layer"/>
  <IC_ColorNameTable/>
  <PictureProperties/>
  <path fill="none" fill-opacity="0.501961" stroke="#EAFFF4" stroke-width="235.413" stroke-linecap="square" stroke-linejoin="round" stroke-opacity="0.501961" d="M5005 3050c0,-1080 -875,-1955 -1955,-1955 -1080,0 -1955,875 -1955,1955 0,1080 875,1955 1955,1955 1080,0 1955,-875 1955,-1955z"/>
  <path fill="#EAFFF4" fill-opacity="0.501961" stroke="#EAFFF4" stroke-width="89.7371" stroke-linecap="square" stroke-linejoin="round" stroke-opacity="0.501961" d="M3521 3050c0,-260 -211,-471 -471,-471 -260,0 -471,211 -471,471 0,260 211,471 471,471 260,0 471,-211 471,-471z"/>
  <line fill="none" fill-opacity="0.501961" stroke="#EAFFF4" stroke-width="235.413" stroke-linecap="round" stroke-linejoin="round" stroke-opacity="0.501961" x1="3050" y1="1095" x2="3050" y2= "117" />
  <line fill="none" fill-opacity="0.501961" stroke="#EAFFF4" stroke-width="235.413" stroke-linecap="round" stroke-linejoin="round" stroke-opacity="0.501961" x1="5005" y1="3050" x2="5983" y2= "3050" />
  <line fill="none" fill-opacity="0.501961" stroke="#EAFFF4" stroke-width="235.413" stroke-linecap="round" stroke-linejoin="round" stroke-opacity="0.501961" x1="3050" y1="5005" x2="3050" y2= "5983" />
  <line fill="none" fill-opacity="0.501961" stroke="#EAFFF4" stroke-width="235.413" stroke-linecap="round" stroke-linejoin="round" stroke-opacity="0.501961" x1="1095" y1="3050" x2="117" y2= "3050" />
 </g>
</svg>
