<?xml version="1.0" encoding="UTF-8"?>
<!DOCTYPE svg PUBLIC "-//W3C//DTD SVG 1.0//EN" "http://www.w3.org/TR/2001/REC-SVG-20010904/DTD/svg10.dtd">
<!-- Creator: CorelDRAW X6 -->
<svg xmlns="http://www.w3.org/2000/svg" xml:space="preserve" width="61px" height="61px" version="1.0" shape-rendering="geometricPrecision" text-rendering="geometricPrecision" image-rendering="optimizeQuality" fill-rule="evenodd" clip-rule="evenodd"
viewBox="0 0 6100 6100"
 xmlns:xlink="http://www.w3.org/1999/xlink">
 <g id="_2090.cgm:type:overlay">
  <metadata id="CorelCorpID_0Corel-Layer"/>
  <IC_ColorNameTable/>
  <PictureProperties/>
  <path fill="none" fill-opacity="0.501961" stroke="#EAFFF4" stroke-width="234.859" stroke-linecap="square" stroke-linejoin="round" stroke-opacity="0.501961" d="M5983 3050c0,-1620 -1313,-2933 -2933,-2933 -1620,0 -2933,1313 -2933,2933 0,1620 1313,2933 2933,2933 1620,0 2933,-1313 2933,-2933z"/>
  <polygon fill="#EAFFF4" fill-opacity="0.501961" stroke="#EAFFF4" stroke-width="89.3919" stroke-linecap="square" stroke-linejoin="round" stroke-opacity="0.501961" points="4114,3521 4581,3521 4570,3675 4537,3860 4475,4048 4360,4273 4215,4465 4096,4581 3964,4681 3816,4767 3659,4835 3372,4907 3032,4927 2680,4885 2400,4792 2259,4715 2128,4621 2001,4506 1888,4376 1712,4089 1580,3728 1518,3401 1499,3017 1532,2621 1607,2303 1751,1975 1946,1703 2186,1485 2449,1336 2714,1254 3065,1215 3387,1228 3643,1280 3887,1380 4103,1522 4289,1704 4425,1912 4494,2077 4537,2252 4552,2369 4085,2369 4059,2262 3997,2100 3914,1971 3768,1833 3567,1721 3333,1658 3047,1643 2815,1674 2638,1733 2454,1846 2288,2012 2160,2215 2059,2479 2006,2745 1985,3075 2007,3403 2062,3651 2160,3889 2301,4107 2471,4285 2638,4397 2829,4467 3073,4499 3314,4483 3516,4426 3672,4345 3814,4234 3924,4109 4010,3970 4065,3835 4099,3692 "/>
 </g>
</svg>
