<?xml version="1.0" encoding="UTF-8"?>
<!DOCTYPE svg PUBLIC "-//W3C//DTD SVG 1.0//EN" "http://www.w3.org/TR/2001/REC-SVG-20010904/DTD/svg10.dtd">
<!-- Creator: CorelDRAW X6 -->
<svg xmlns="http://www.w3.org/2000/svg" xml:space="preserve" width="43px" height="43px" version="1.0" shape-rendering="geometricPrecision" text-rendering="geometricPrecision" image-rendering="optimizeQuality" fill-rule="evenodd" clip-rule="evenodd"
viewBox="0 0 4300 4300"
 xmlns:xlink="http://www.w3.org/1999/xlink">
 <g id="_2097.cgm:type:overlay">
  <metadata id="CorelCorpID_0Corel-Layer"/>
  <IC_ColorNameTable/>
  <PictureProperties/>
  <polyline fill="none" fill-opacity="0.501961" stroke="#EAFFF4" stroke-width="239.035" stroke-linecap="round" stroke-linejoin="round" stroke-opacity="0.501961" points="119,4181 119,119 4181,119 4181,4181 119,4181 "/>
  <polygon fill="#EAFFF4" fill-opacity="0.501961" stroke="#EAFFF4" stroke-width="91.0268" stroke-linecap="square" stroke-linejoin="round" stroke-opacity="0.501961" points="1290,3709 1290,578 2166,578 2388,579 2575,594 2689,622 2838,694 2957,798 3050,932 3122,1107 3159,1277 3172,1483 3158,1684 3122,1845 3053,2011 2956,2151 2835,2262 2701,2334 2593,2364 2414,2383 2191,2387 1648,2387 1648,2012 1648,2012 2250,2012 2458,2002 2571,1969 2649,1922 2721,1841 2775,1730 2800,1626 2810,1482 2799,1338 2773,1234 2721,1129 2652,1050 2577,1003 2474,971 2273,960 1648,960 1648,2012 1648,2387 1648,3709 "/>
 </g>
</svg>
