<?xml version="1.0" encoding="UTF-8"?>
<!DOCTYPE svg PUBLIC "-//W3C//DTD SVG 1.0//EN" "http://www.w3.org/TR/2001/REC-SVG-20010904/DTD/svg10.dtd">
<!-- Creator: CorelDRAW X6 -->
<svg xmlns="http://www.w3.org/2000/svg" xml:space="preserve" width="61px" height="61px" version="1.0" shape-rendering="geometricPrecision" text-rendering="geometricPrecision" image-rendering="optimizeQuality" fill-rule="evenodd" clip-rule="evenodd"
viewBox="0 0 6100 6101"
 xmlns:xlink="http://www.w3.org/1999/xlink">
 <g id="_2273.cgm:type:overlay">
  <metadata id="CorelCorpID_0Corel-Layer"/>
  <IC_ColorNameTable/>
  <PictureProperties/>
  <path fill="none" fill-opacity="0.501961" stroke="#9664FF" stroke-width="234.95" stroke-linecap="round" stroke-linejoin="round" stroke-opacity="0.501961" d="M4470 481c-424,-229 -929,-367 -1422,-367 -1618,0 -2937,1319 -2937,2937 0,470 126,964 344,1377"/>
  <path fill="none" fill-opacity="0.501961" stroke="#9664FF" stroke-width="234.95" stroke-linecap="round" stroke-linejoin="round" stroke-opacity="0.501961" d="M1625 5620c424,229 929,367 1423,367 1618,0 2937,-1319 2937,-2937 0,-470 -126,-964 -344,-1377"/>
  <line fill="none" fill-opacity="0.501961" stroke="#9664FF" stroke-width="234.95" stroke-linecap="round" stroke-linejoin="round" stroke-opacity="0.501961" x1="4452" y1="471" x2="468" y2= "4455" />
  <line fill="none" fill-opacity="0.501961" stroke="#9664FF" stroke-width="234.95" stroke-linecap="round" stroke-linejoin="round" stroke-opacity="0.501961" x1="5626" y1="1646" x2="1643" y2= "5630" />
  <polygon fill="#9664FF" fill-opacity="0.501961" points="468,4455 4452,471 3821,217 3206,118 2430,179 1618,485 1021,925 510,1571 222,2248 118,2845 132,3402 265,3990 "/>
  <polygon fill="#9664FF" fill-opacity="0.501961" points="1643,5630 5626,1646 5801,2030 5914,2414 5982,2966 5926,3628 5759,4177 5464,4719 5017,5228 4574,5559 3930,5851 3304,5976 2797,5976 2341,5901 1917,5761 "/>
 </g>
</svg>
