<?xml version="1.0" encoding="UTF-8"?>
<!DOCTYPE svg PUBLIC "-//W3C//DTD SVG 1.0//EN" "http://www.w3.org/TR/2001/REC-SVG-20010904/DTD/svg10.dtd">
<!-- Creator: CorelDRAW X6 -->
<svg xmlns="http://www.w3.org/2000/svg" xml:space="preserve" width="61px" height="61px" version="1.0" shape-rendering="geometricPrecision" text-rendering="geometricPrecision" image-rendering="optimizeQuality" fill-rule="evenodd" clip-rule="evenodd"
viewBox="0 0 6100 6100"
 xmlns:xlink="http://www.w3.org/1999/xlink">
 <g id="_2274.cgm:type:overlay">
  <metadata id="CorelCorpID_0Corel-Layer"/>
  <IC_ColorNameTable/>
  <PictureProperties/>
  <path fill="none" fill-opacity="0.501961" stroke="#FF5C79" stroke-width="234.859" stroke-linecap="square" stroke-linejoin="round" stroke-opacity="0.501961" d="M5983 3050c0,-1620 -1313,-2933 -2933,-2933 -1620,0 -2933,1313 -2933,2933 0,1620 1313,2933 2933,2933 1620,0 2933,-1313 2933,-2933z"/>
  <polygon fill="#FF5C79" fill-opacity="0.501961" stroke="#FF5C79" stroke-width="89.3919" stroke-linecap="square" stroke-linejoin="round" stroke-opacity="0.501961" points="1832,1741 1832,4745 1389,4745 1389,1226 2076,1226 2949,3916 2983,4019 3032,4206 3079,4018 3111,3915 4016,1226 4700,1226 4700,4745 4234,4745 4234,1741 4186,1936 4151,2051 3245,4745 2798,4745 1911,2051 1876,1936 "/>
 </g>
</svg>
