<?xml version="1.0" encoding="UTF-8"?>
<!DOCTYPE svg PUBLIC "-//W3C//DTD SVG 1.0//EN" "http://www.w3.org/TR/2001/REC-SVG-20010904/DTD/svg10.dtd">
<!-- Creator: CorelDRAW X6 -->
<svg xmlns="http://www.w3.org/2000/svg" xml:space="preserve" width="1879px" height="692px" version="1.0" shape-rendering="geometricPrecision" text-rendering="geometricPrecision" image-rendering="optimizeQuality" fill-rule="evenodd" clip-rule="evenodd"
viewBox="0 0 187900 69216"
 xmlns:xlink="http://www.w3.org/1999/xlink">
 <g id="_3096.cgm:type:overlay">
  <metadata id="CorelCorpID_0Corel-Layer"/>
  <IC_ColorNameTable/>
  <PictureProperties/>
  <path fill="#969F99" fill-opacity="0.501961" d="M22108 61951c-332,479 -990,593 -1469,255 -479,-339 -598,-1001 -266,-1481 332,-479 990,-593 1469,-255 479,339 598,1001 266,1481z"/>
  <path fill="#969F99" fill-opacity="0.501961" d="M44031 52129c-332,479 -213,1137 266,1469 479,332 1137,213 1469,-266 332,-479 213,-1137 -266,-1469 -479,-332 -1137,-213 -1469,266z"/>
  <path fill="#969F99" fill-opacity="0.501961" d="M67677 43510c-339,486 -225,1154 254,1492 479,339 1142,219 1481,-266 339,-486 225,-1154 -254,-1492 -479,-339 -1142,-219 -1481,266z"/>
  <path fill="#969F99" fill-opacity="0.501961" d="M93256 35319c102,575 -286,1124 -867,1226 -581,102 -1135,-281 -1238,-856 -102,-575 286,-1124 868,-1226 581,-102 1135,281 1238,856z"/>
  <path fill="#969F99" fill-opacity="0.501961" d="M114994 26284c-332,479 -213,1142 266,1481 479,339 1137,225 1469,-254 332,-479 213,-1142 -266,-1481 -479,-339 -1137,-225 -1469,254z"/>
  <path fill="#969F99" fill-opacity="0.501961" d="M140387 18892c-332,479 -990,598 -1469,266 -479,-332 -598,-990 -266,-1469 332,-479 990,-598 1469,-266 479,332 598,990 266,1469z"/>
  <path fill="#969F99" fill-opacity="0.501961" d="M162136 9868c102,581 651,970 1226,868 575,-102 958,-656 856,-1238 -102,-582 -651,-970 -1226,-868 -575,102 -958,656 -856,1238z"/>
  <path fill="#969F99" fill-opacity="0.501961" d="M187877 879c102,575 -286,1124 -868,1226 -582,102 -1136,-281 -1238,-856 -102,-575 286,-1124 868,-1226 581,-102 1136,281 1238,856z"/>
  <line fill="none" fill-opacity="0.501961" stroke="#969F99" stroke-width="462.793" stroke-opacity="0.501961" x1="231" y1="68985" x2="3563" y2= "67770" />
  <line fill="none" fill-opacity="0.501961" stroke="#969F99" stroke-width="462.793" stroke-opacity="0.501961" x1="5229" y1="67168" x2="8561" y2= "65954" />
  <line fill="none" fill-opacity="0.501961" stroke="#969F99" stroke-width="462.793" stroke-opacity="0.501961" x1="10227" y1="65352" x2="13559" y2= "64137" />
  <line fill="none" fill-opacity="0.501961" stroke="#969F99" stroke-width="462.793" stroke-opacity="0.501961" x1="15294" y1="63501" x2="18556" y2= "62321" />
  <line fill="none" fill-opacity="0.501961" stroke="#969F99" stroke-width="462.793" stroke-opacity="0.501961" x1="23924" y1="60366" x2="27221" y2= "59163" />
  <line fill="none" fill-opacity="0.501961" stroke="#969F99" stroke-width="462.793" stroke-opacity="0.501961" x1="28887" y1="58561" x2="32219" y2= "57346" />
  <line fill="none" fill-opacity="0.501961" stroke="#969F99" stroke-width="462.793" stroke-opacity="0.501961" x1="33885" y1="56733" x2="37205" y2= "55530" />
  <line fill="none" fill-opacity="0.501961" stroke="#969F99" stroke-width="462.793" stroke-opacity="0.501961" x1="38871" y1="54917" x2="42203" y2= "53702" />
  <line fill="none" fill-opacity="0.501961" stroke="#969F99" stroke-width="462.793" stroke-opacity="0.501961" x1="47582" y1="51747" x2="50914" y2= "50544" />
  <line fill="none" fill-opacity="0.501961" stroke="#969F99" stroke-width="462.793" stroke-opacity="0.501961" x1="52534" y1="49942" x2="55866" y2= "48739" />
  <line fill="none" fill-opacity="0.501961" stroke="#969F99" stroke-width="462.793" stroke-opacity="0.501961" x1="57532" y1="48126" x2="60863" y2= "46911" />
  <line fill="none" fill-opacity="0.501961" stroke="#969F99" stroke-width="462.793" stroke-opacity="0.501961" x1="62529" y1="46310" x2="65861" y2= "45095" />
  <line fill="none" fill-opacity="0.501961" stroke="#969F99" stroke-width="462.793" stroke-opacity="0.501961" x1="71241" y1="43140" x2="74572" y2= "41925" />
  <line fill="none" fill-opacity="0.501961" stroke="#969F99" stroke-width="462.793" stroke-opacity="0.501961" x1="76192" y1="41335" x2="79524" y2= "40120" />
  <line fill="none" fill-opacity="0.501961" stroke="#969F99" stroke-width="462.793" stroke-opacity="0.501961" x1="81190" y1="39519" x2="84522" y2= "38304" />
  <line fill="none" fill-opacity="0.501961" stroke="#969F99" stroke-width="462.793" stroke-opacity="0.501961" x1="86187" y1="37703" x2="89519" y2= "36488" />
  <line fill="none" fill-opacity="0.501961" stroke="#969F99" stroke-width="462.793" stroke-opacity="0.501961" x1="94852" y1="34544" x2="98184" y2= "33330" />
  <line fill="none" fill-opacity="0.501961" stroke="#969F99" stroke-width="462.793" stroke-opacity="0.501961" x1="99850" y1="32728" x2="103182" y2= "31513" />
  <line fill="none" fill-opacity="0.501961" stroke="#969F99" stroke-width="462.793" stroke-opacity="0.501961" x1="104848" y1="30912" x2="108180" y2= "29697" />
  <line fill="none" fill-opacity="0.501961" stroke="#969F99" stroke-width="462.793" stroke-opacity="0.501961" x1="109845" y1="29084" x2="113177" y2= "27881" />
  <line fill="none" fill-opacity="0.501961" stroke="#969F99" stroke-width="462.793" stroke-opacity="0.501961" x1="118510" y1="25937" x2="121842" y2= "24723" />
  <line fill="none" fill-opacity="0.501961" stroke="#969F99" stroke-width="462.793" stroke-opacity="0.501961" x1="123508" y1="24121" x2="126840" y2= "22906" />
  <line fill="none" fill-opacity="0.501961" stroke="#969F99" stroke-width="462.793" stroke-opacity="0.501961" x1="128506" y1="22293" x2="131838" y2= "21090" />
  <line fill="none" fill-opacity="0.501961" stroke="#969F99" stroke-width="462.793" stroke-opacity="0.501961" x1="133504" y1="20477" x2="136835" y2= "19262" />
  <line fill="none" fill-opacity="0.501961" stroke="#969F99" stroke-width="462.793" stroke-opacity="0.501961" x1="142169" y1="17330" x2="145500" y2= "16115" />
  <line fill="none" fill-opacity="0.501961" stroke="#969F99" stroke-width="462.793" stroke-opacity="0.501961" x1="147166" y1="15502" x2="150498" y2= "14299" />
  <line fill="none" fill-opacity="0.501961" stroke="#969F99" stroke-width="462.793" stroke-opacity="0.501961" x1="152164" y1="13686" x2="155496" y2= "12471" />
  <line fill="none" fill-opacity="0.501961" stroke="#969F99" stroke-width="462.793" stroke-opacity="0.501961" x1="157150" y1="11870" x2="160482" y2= "10655" />
  <line fill="none" fill-opacity="0.501961" stroke="#969F99" stroke-width="462.793" stroke-opacity="0.501961" x1="165827" y1="8711" x2="169159" y2= "7497" />
  <line fill="none" fill-opacity="0.501961" stroke="#969F99" stroke-width="462.793" stroke-opacity="0.501961" x1="170813" y1="6895" x2="174145" y2= "5680" />
  <line fill="none" fill-opacity="0.501961" stroke="#969F99" stroke-width="462.793" stroke-opacity="0.501961" x1="175811" y1="5079" x2="179142" y2= "3864" />
  <line fill="none" fill-opacity="0.501961" stroke="#969F99" stroke-width="462.793" stroke-opacity="0.501961" x1="180808" y1="3262" x2="184140" y2= "2048" />
 </g>
</svg>
