<?xml version="1.0" encoding="UTF-8"?>
<!DOCTYPE svg PUBLIC "-//W3C//DTD SVG 1.0//EN" "http://www.w3.org/TR/2001/REC-SVG-20010904/DTD/svg10.dtd">
<!-- Creator: CorelDRAW X6 -->
<svg xmlns="http://www.w3.org/2000/svg" xml:space="preserve" width="245px" height="102px" version="1.0" shape-rendering="geometricPrecision" text-rendering="geometricPrecision" image-rendering="optimizeQuality" fill-rule="evenodd" clip-rule="evenodd"
viewBox="0 0 24500 10190"
 xmlns:xlink="http://www.w3.org/1999/xlink">
 <g id="_3139.cgm:type:overlay">
  <metadata id="CorelCorpID_0Corel-Layer"/>
  <IC_ColorNameTable/>
  <PictureProperties/>
  <path fill="#EAFFF4" fill-opacity="0.501961" d="M1444 9027c-89,-245 -360,-371 -604,-282 -245,89 -371,360 -282,604 89,245 360,371 604,282 245,-89 371,-360 282,-604z"/>
  <path fill="#EAFFF4" fill-opacity="0.501961" d="M4659 7858c-90,-245 -361,-371 -606,-282 -245,89 -370,360 -280,604 90,245 361,371 606,282 245,-89 370,-360 280,-604z"/>
  <path fill="#EAFFF4" fill-opacity="0.501961" d="M7873 6688c-89,-245 -360,-371 -604,-282 -245,89 -371,360 -282,604 89,245 360,371 604,282 245,-89 371,-360 282,-604z"/>
  <path fill="#EAFFF4" fill-opacity="0.501961" d="M11086 5518c-89,-245 -360,-371 -604,-282 -245,89 -371,360 -282,604 89,245 360,371 604,282 245,-89 371,-360 282,-604z"/>
  <path fill="#EAFFF4" fill-opacity="0.501961" d="M14327 4340c-89,-245 -360,-371 -604,-282 -245,89 -371,360 -282,604 89,245 360,371 604,282 245,-89 371,-360 282,-604z"/>
  <path fill="#EAFFF4" fill-opacity="0.501961" d="M17541 3168c-89,-246 -360,-372 -604,-282 -245,90 -371,362 -282,607 89,246 360,372 604,282 245,-90 371,-362 282,-607z"/>
  <path fill="#EAFFF4" fill-opacity="0.501961" d="M20754 1999c-89,-245 -360,-371 -604,-282 -245,89 -371,360 -282,605 89,245 360,371 604,282 245,-89 371,-360 282,-604z"/>
  <path fill="#EAFFF4" fill-opacity="0.501961" d="M23944 838c-90,-246 -361,-372 -606,-282 -245,90 -370,362 -280,607 90,246 361,372 606,282 245,-90 370,-362 280,-607z"/>
 </g>
</svg>
