<?xml version="1.0" encoding="UTF-8"?>
<!DOCTYPE svg PUBLIC "-//W3C//DTD SVG 1.0//EN" "http://www.w3.org/TR/2001/REC-SVG-20010904/DTD/svg10.dtd">
<!-- Creator: CorelDRAW X6 -->
<svg xmlns="http://www.w3.org/2000/svg" xml:space="preserve" width="35px" height="61px" version="1.0" shape-rendering="geometricPrecision" text-rendering="geometricPrecision" image-rendering="optimizeQuality" fill-rule="evenodd" clip-rule="evenodd"
viewBox="0 0 3500 6007"
 xmlns:xlink="http://www.w3.org/1999/xlink">
 <g id="_5100.cgm:type:overlay">
  <metadata id="CorelCorpID_0Corel-Layer"/>
  <IC_ColorNameTable/>
  <PictureProperties/>
  <polygon fill="#DE4BC9" fill-opacity="0.501961" points="1350,4435 1346,4209 1384,3845 1508,3434 1727,3084 1973,2812 2284,2503 2517,2228 2623,2051 2689,1884 2731,1527 2708,1322 2661,1164 2572,1003 2446,864 2290,753 2113,679 1725,640 1488,668 1318,721 1145,821 992,968 892,1113 811,1290 732,1648 709,1929 1,1929 6,1586 52,1282 135,1013 304,697 528,437 798,237 1116,95 1427,25 1821,1 2207,35 2510,110 2817,255 3068,449 3272,700 3414,996 3482,1275 3499,1595 3459,1913 3373,2187 3262,2396 3091,2630 2900,2839 2566,3155 2337,3389 2162,3647 2077,3930 2062,4212 2062,4435 "/>
  <polygon fill="#DE4BC9" fill-opacity="0.501961" points="1327,6006 1327,5132 2124,5132 2124,6006 "/>
 </g>
</svg>
