<?xml version="1.0" encoding="UTF-8"?>
<!DOCTYPE svg PUBLIC "-//W3C//DTD SVG 1.0//EN" "http://www.w3.org/TR/2001/REC-SVG-20010904/DTD/svg10.dtd">
<!-- Creator: CorelDRAW X6 -->
<svg xmlns="http://www.w3.org/2000/svg" xml:space="preserve" width="1421px" height="528px" version="1.0" shape-rendering="geometricPrecision" text-rendering="geometricPrecision" image-rendering="optimizeQuality" fill-rule="evenodd" clip-rule="evenodd"
viewBox="0 0 142100 52761"
 xmlns:xlink="http://www.w3.org/1999/xlink">
 <g id="_6038.cgm:type:overlay">
  <metadata id="CorelCorpID_0Corel-Layer"/>
  <IC_ColorNameTable/>
  <PictureProperties/>
  <line fill="none" fill-opacity="0.501961" stroke="#00BFFF" stroke-width="476.315" stroke-opacity="0.501961" x1="234" y1="52528" x2="3646" y2= "51289" />
  <line fill="none" fill-opacity="0.501961" stroke="#00BFFF" stroke-width="476.315" stroke-opacity="0.501961" x1="4209" y1="51081" x2="7473" y2= "49895" />
  <line fill="none" fill-opacity="0.501961" stroke="#00BFFF" stroke-width="476.315" stroke-opacity="0.501961" x1="8045" y1="49687" x2="11456" y2= "48440" />
  <line fill="none" fill-opacity="0.501961" stroke="#00BFFF" stroke-width="476.315" stroke-opacity="0.501961" x1="12019" y1="48241" x2="15284" y2= "47046" />
  <path fill="none" fill-opacity="0.501961" stroke="#00BFFF" stroke-width="476.315" stroke-linecap="square" stroke-linejoin="round" stroke-opacity="0.501961" d="M15457 45955c373,-531 1110,-659 1645,-286 536,373 667,1106 294,1637 -373,531 -1110,659 -1645,286 -536,-373 -667,-1106 -295,-1636z"/>
  <line fill="none" fill-opacity="0.501961" stroke="#00BFFF" stroke-width="476.315" stroke-opacity="0.501961" x1="18133" y1="46016" x2="21397" y2= "44829" />
  <line fill="none" fill-opacity="0.501961" stroke="#00BFFF" stroke-width="476.315" stroke-opacity="0.501961" x1="21960" y1="44622" x2="25233" y2= "43427" />
  <line fill="none" fill-opacity="0.501961" stroke="#00BFFF" stroke-width="476.315" stroke-opacity="0.501961" x1="25796" y1="43219" x2="29208" y2= "41980" />
  <line fill="none" fill-opacity="0.501961" stroke="#00BFFF" stroke-width="476.315" stroke-opacity="0.501961" x1="29771" y1="41773" x2="33044" y2= "40586" />
  <path fill="none" fill-opacity="0.501961" stroke="#00BFFF" stroke-width="476.315" stroke-linecap="square" stroke-linejoin="round" stroke-opacity="0.501961" d="M33209 39495c373,-531 1110,-659 1645,-286 536,373 667,1106 294,1637 -373,531 -1110,659 -1645,286 -536,-373 -667,-1106 -294,-1637z"/>
  <line fill="none" fill-opacity="0.501961" stroke="#00BFFF" stroke-width="476.315" stroke-opacity="0.501961" x1="35737" y1="39608" x2="39149" y2= "38361" />
  <line fill="none" fill-opacity="0.501961" stroke="#00BFFF" stroke-width="476.315" stroke-opacity="0.501961" x1="39712" y1="38153" x2="42985" y2= "36967" />
  <line fill="none" fill-opacity="0.501961" stroke="#00BFFF" stroke-width="476.315" stroke-opacity="0.501961" x1="43548" y1="36759" x2="46960" y2= "35521" />
  <line fill="none" fill-opacity="0.501961" stroke="#00BFFF" stroke-width="476.315" stroke-opacity="0.501961" x1="47531" y1="35313" x2="50796" y2= "34126" />
  <path fill="none" fill-opacity="0.501961" stroke="#00BFFF" stroke-width="476.315" stroke-linecap="square" stroke-linejoin="round" stroke-opacity="0.501961" d="M50960 33035c373,-536 1110,-667 1645,-294 536,373 667,1110 294,1645 -373,536 -1110,667 -1645,294 -536,-373 -667,-1110 -294,-1645z"/>
  <line fill="none" fill-opacity="0.501961" stroke="#00BFFF" stroke-width="476.315" stroke-opacity="0.501961" x1="53489" y1="33139" x2="56901" y2= "31901" />
  <line fill="none" fill-opacity="0.501961" stroke="#00BFFF" stroke-width="476.315" stroke-opacity="0.501961" x1="57472" y1="31693" x2="60737" y2= "30507" />
  <line fill="none" fill-opacity="0.501961" stroke="#00BFFF" stroke-width="476.315" stroke-opacity="0.501961" x1="61300" y1="30299" x2="64711" y2= "29061" />
  <line fill="none" fill-opacity="0.501961" stroke="#00BFFF" stroke-width="476.315" stroke-opacity="0.501961" x1="65283" y1="28853" x2="68548" y2= "27667" />
  <path fill="none" fill-opacity="0.501961" stroke="#00BFFF" stroke-width="476.315" stroke-linecap="square" stroke-linejoin="round" stroke-opacity="0.501961" d="M68712 26576c373,-536 1110,-667 1645,-294 536,373 667,1110 294,1645 -373,536 -1110,667 -1645,294 -536,-373 -667,-1110 -294,-1645z"/>
  <line fill="none" fill-opacity="0.501961" stroke="#00BFFF" stroke-width="476.315" stroke-opacity="0.501961" x1="71249" y1="26679" x2="74652" y2= "25441" />
  <line fill="none" fill-opacity="0.501961" stroke="#00BFFF" stroke-width="476.315" stroke-opacity="0.501961" x1="75224" y1="25233" x2="78488" y2= "24047" />
  <line fill="none" fill-opacity="0.501961" stroke="#00BFFF" stroke-width="476.315" stroke-opacity="0.501961" x1="79060" y1="23839" x2="82463" y2= "22601" />
  <line fill="none" fill-opacity="0.501961" stroke="#00BFFF" stroke-width="476.315" stroke-opacity="0.501961" x1="83035" y1="22393" x2="86299" y2= "21207" />
  <path fill="none" fill-opacity="0.501961" stroke="#00BFFF" stroke-width="476.315" stroke-linecap="square" stroke-linejoin="round" stroke-opacity="0.501961" d="M86464 20116c373,-536 1110,-667 1645,-294 536,373 667,1110 294,1645 -373,536 -1110,667 -1645,294 -536,-373 -667,-1110 -294,-1645z"/>
  <line fill="none" fill-opacity="0.501961" stroke="#00BFFF" stroke-width="476.315" stroke-opacity="0.501961" x1="89001" y1="20220" x2="92404" y2= "18981" />
  <line fill="none" fill-opacity="0.501961" stroke="#00BFFF" stroke-width="476.315" stroke-opacity="0.501961" x1="92975" y1="18773" x2="96240" y2= "17587" />
  <line fill="none" fill-opacity="0.501961" stroke="#00BFFF" stroke-width="476.315" stroke-opacity="0.501961" x1="96812" y1="17379" x2="100215" y2= "16141" />
  <line fill="none" fill-opacity="0.501961" stroke="#00BFFF" stroke-width="476.315" stroke-opacity="0.501961" x1="100786" y1="15933" x2="104051" y2= "14738" />
  <path fill="none" fill-opacity="0.501961" stroke="#00BFFF" stroke-width="476.315" stroke-linecap="square" stroke-linejoin="round" stroke-opacity="0.501961" d="M104016 14496c-91,-646 359,-1243 1004,-1333 646,-91 1243,359 1333,1004 91,646 -359,1243 -1004,1334 -646,91 -1243,-359 -1333,-1004z"/>
  <line fill="none" fill-opacity="0.501961" stroke="#00BFFF" stroke-width="476.315" stroke-opacity="0.501961" x1="106752" y1="13760" x2="110156" y2= "12522" />
  <line fill="none" fill-opacity="0.501961" stroke="#00BFFF" stroke-width="476.315" stroke-opacity="0.501961" x1="110727" y1="12314" x2="113992" y2= "11119" />
  <line fill="none" fill-opacity="0.501961" stroke="#00BFFF" stroke-width="476.315" stroke-opacity="0.501961" x1="114563" y1="10919" x2="117966" y2= "9673" />
  <line fill="none" fill-opacity="0.501961" stroke="#00BFFF" stroke-width="476.315" stroke-opacity="0.501961" x1="118538" y1="9465" x2="121802" y2= "8278" />
  <path fill="none" fill-opacity="0.501961" stroke="#00BFFF" stroke-width="476.315" stroke-linecap="square" stroke-linejoin="round" stroke-opacity="0.501961" d="M121768 8036c-91,-646 359,-1247 1004,-1342 646,-96 1243,350 1333,996 91,646 -359,1247 -1004,1342 -646,96 -1243,-350 -1333,-996z"/>
  <line fill="none" fill-opacity="0.501961" stroke="#00BFFF" stroke-width="476.315" stroke-opacity="0.501961" x1="124643" y1="7248" x2="127907" y2= "6062" />
  <line fill="none" fill-opacity="0.501961" stroke="#00BFFF" stroke-width="476.315" stroke-opacity="0.501961" x1="128479" y1="5854" x2="131743" y2= "4659" />
  <line fill="none" fill-opacity="0.501961" stroke="#00BFFF" stroke-width="476.315" stroke-opacity="0.501961" x1="132315" y1="4451" x2="135718" y2= "3213" />
  <line fill="none" fill-opacity="0.501961" stroke="#00BFFF" stroke-width="476.315" stroke-opacity="0.501961" x1="136290" y1="3005" x2="139554" y2= "1818" />
  <path fill="none" fill-opacity="0.501961" stroke="#00BFFF" stroke-width="476.315" stroke-linecap="square" stroke-linejoin="round" stroke-opacity="0.501961" d="M139519 1576c-91,-646 359,-1246 1004,-1342 646,-96 1243,350 1334,996 91,646 -359,1246 -1004,1342 -646,96 -1243,-350 -1334,-996z"/>
 </g>
</svg>
