<?xml version="1.0" encoding="UTF-8"?>
<!DOCTYPE svg PUBLIC "-//W3C//DTD SVG 1.0//EN" "http://www.w3.org/TR/2001/REC-SVG-20010904/DTD/svg10.dtd">
<!-- Creator: CorelDRAW X6 -->
<svg xmlns="http://www.w3.org/2000/svg" xml:space="preserve" width="61px" height="61px" version="1.0" shape-rendering="geometricPrecision" text-rendering="geometricPrecision" image-rendering="optimizeQuality" fill-rule="evenodd" clip-rule="evenodd"
viewBox="0 0 6100 6100"
 xmlns:xlink="http://www.w3.org/1999/xlink">
 <g id="_6041.cgm:type:overlay">
  <metadata id="CorelCorpID_0Corel-Layer"/>
  <IC_ColorNameTable/>
  <PictureProperties/>
  <path fill="none" fill-opacity="0.501961" stroke="#EAFFF4" stroke-width="234.886" stroke-linecap="square" stroke-linejoin="round" stroke-opacity="0.501961" d="M5983 3050c0,-1620 -1313,-2933 -2933,-2933 -1620,0 -2933,1313 -2933,2933 0,1620 1313,2933 2933,2933 1620,0 2933,-1313 2933,-2933z"/>
  <polygon fill="#EAFFF4" fill-opacity="0.501961" stroke="#EAFFF4" stroke-width="89.4022" stroke-linecap="square" stroke-linejoin="round" stroke-opacity="0.501961" points="1920,1363 3608,1363 3696,1364 3764,1397 3843,1455 3922,1528 3993,1608 4060,1693 4111,1779 4166,1901 4218,2087 4231,2212 4231,2364 4215,2456 4185,2584 4142,2691 4084,2801 4005,2920 3922,3011 3843,3087 3462,3193 1920,3193 1920,1649 2206,1649 2206,2907 3559,2907 3632,2883 3724,2801 3776,2740 3843,2648 3895,2538 3929,2425 3944,2334 3941,2197 3919,2059 3858,1922 3810,1843 3757,1773 3681,1696 3608,1649 1920,1649 "/>
  <polygon fill="#EAFFF4" fill-opacity="0.501961" stroke="#EAFFF4" stroke-width="89.4022" stroke-linecap="square" stroke-linejoin="round" stroke-opacity="0.501961" points="1920,2907 3468,2907 3843,3087 3934,3138 4026,3217 4114,3320 4194,3433 4255,3583 4286,3681 4301,3777 4307,3856 4307,3944 4291,4063 4267,4179 4221,4292 4172,4384 4117,4463 4057,4536 3974,4615 3907,4667 3831,4716 3747,4737 1920,4737 1920,3193 2206,3193 2206,4451 3712,4451 3785,4396 3874,4304 3929,4231 3974,4137 4008,4021 4017,3911 4011,3783 3983,3673 3941,3575 3877,3484 3810,3410 3721,3344 3654,3307 3570,3257 3462,3193 1920,3193 "/>
 </g>
</svg>
