<?xml version="1.0" encoding="UTF-8"?>
<!DOCTYPE svg PUBLIC "-//W3C//DTD SVG 1.0//EN" "http://www.w3.org/TR/2001/REC-SVG-20010904/DTD/svg10.dtd">
<!-- Creator: CorelDRAW X6 -->
<svg xmlns="http://www.w3.org/2000/svg" xml:space="preserve" width="84px" height="98px" version="1.0" shape-rendering="geometricPrecision" text-rendering="geometricPrecision" image-rendering="optimizeQuality" fill-rule="evenodd" clip-rule="evenodd"
viewBox="0 0 8400 9856"
 xmlns:xlink="http://www.w3.org/1999/xlink">
 <g id="_7018.cgm:type:overlay">
  <metadata id="CorelCorpID_0Corel-Layer"/>
  <IC_ColorNameTable/>
  <PictureProperties/>
  <polygon fill="red" fill-opacity="0.501961" stroke="white" stroke-width="356.282" stroke-linecap="square" stroke-linejoin="round" stroke-opacity="0.501961" points="1819,8754 2097,8201 2415,7487 2666,6759 2918,5977 3116,5235 3262,4493 3449,3419 3556,2705 3634,1848 3713,974 3753,180 4647,180 4687,974 4766,1848 4844,2705 4951,3419 5138,4493 5284,5235 5482,5977 5734,6759 5985,7487 6303,8201 6581,8754 "/>
  <polygon fill="red" fill-opacity="0.501961" stroke="white" stroke-width="356.282" stroke-linecap="square" stroke-linejoin="round" stroke-opacity="0.501961" points="178,8754 266,8727 350,8665 450,8582 550,8479 655,8359 750,8223 852,8069 935,7933 1013,7797 1094,7648 1203,7433 1318,7192 1412,6973 1539,6682 1609,6506 1722,6208 1865,5807 2001,5393 2113,5023 2233,4599 2340,4181 2409,3894 2525,3376 2613,2865 2686,2365 2741,1833 2759,1509 2761,1214 2746,920 2718,709 2680,534 2643,426 2587,316 2537,252 2483,207 2418,178 5988,180 5923,212 5881,246 5831,308 5787,389 5747,494 5714,627 5690,771 5668,1002 5662,1214 5663,1407 5671,1597 5682,1776 5703,2023 5729,2252 5758,2472 5786,2662 5831,2931 5884,3221 5947,3537 6001,3787 6054,4012 6103,4217 6185,4532 6255,4789 6337,5076 6413,5324 6521,5664 6644,6021 6796,6435 6930,6772 7058,7073 7170,7328 7316,7618 7482,7921 7606,8138 7727,8313 7859,8471 7979,8598 8097,8692 8222,8754 "/>
  <path fill="red" fill-opacity="0.501961" stroke="white" stroke-width="356.282" stroke-linecap="square" stroke-linejoin="round" stroke-opacity="0.501961" d="M5124 8754c0,-510 -414,-924 -924,-924 -510,0 -924,414 -924,924 0,510 414,924 924,924 510,0 924,-414 924,-924z"/>
 </g>
</svg>
