<?xml version="1.0" encoding="UTF-8"?>
<!DOCTYPE svg PUBLIC "-//W3C//DTD SVG 1.0//EN" "http://www.w3.org/TR/2001/REC-SVG-20010904/DTD/svg10.dtd">
<!-- Creator: CorelDRAW X6 -->
<svg xmlns="http://www.w3.org/2000/svg" xml:space="preserve" width="71px" height="124px" version="1.0" shape-rendering="geometricPrecision" text-rendering="geometricPrecision" image-rendering="optimizeQuality" fill-rule="evenodd" clip-rule="evenodd"
viewBox="0 0 7100 12384"
 xmlns:xlink="http://www.w3.org/1999/xlink">
 <g id="_7032.cgm:type:overlay">
  <metadata id="CorelCorpID_0Corel-Layer"/>
  <IC_ColorNameTable/>
  <PictureProperties/>
  <polygon fill="red" fill-opacity="0.501961" stroke="white" stroke-width="353.868" stroke-linecap="square" stroke-linejoin="round" stroke-opacity="0.501961" points="1217,11289 1495,10741 1809,10031 2060,9307 2310,8531 2507,7793 2652,7056 2836,5992 2942,5282 3021,4431 3099,3561 3139,2773 4027,2773 4067,3561 4145,4431 4224,5282 4330,5992 4514,7056 4659,7793 4856,8531 5106,9307 5357,10031 5672,10741 5949,11289 "/>
  <polygon fill="red" fill-opacity="0.501961" stroke="white" stroke-width="353.868" stroke-linecap="square" stroke-linejoin="round" stroke-opacity="0.501961" points="3319,3881 3848,3881 3848,177 3319,177 "/>
  <polygon fill="red" fill-opacity="0.501961" stroke="white" stroke-width="353.868" stroke-linecap="square" stroke-linejoin="round" stroke-opacity="0.501961" points="3649,4225 3385,3767 177,5619 442,6077 "/>
  <polygon fill="red" fill-opacity="0.501961" stroke="white" stroke-width="353.868" stroke-linecap="square" stroke-linejoin="round" stroke-opacity="0.501961" points="3716,3652 3451,4110 6659,5962 6923,5504 "/>
  <path fill="red" fill-opacity="0.501961" stroke="white" stroke-width="353.868" stroke-linecap="square" stroke-linejoin="round" stroke-opacity="0.501961" d="M4218 3881c0,-350 -284,-635 -635,-635 -350,0 -635,284 -635,635 0,350 284,635 635,635 350,0 635,-284 635,-635z"/>
  <path fill="red" fill-opacity="0.501961" stroke="white" stroke-width="353.868" stroke-linecap="square" stroke-linejoin="round" stroke-opacity="0.501961" d="M4500 11289c0,-507 -411,-917 -917,-917 -507,0 -917,411 -917,917 0,507 411,917 917,917 507,0 917,-411 917,-917z"/>
  <polygon fill="red" fill-opacity="0.501961" stroke="white" stroke-width="353.868" stroke-linecap="square" stroke-linejoin="round" stroke-opacity="0.501961" points="1158,7825 6008,7825 6008,9211 1158,9211 "/>
 </g>
</svg>
