<?xml version="1.0" encoding="UTF-8"?>
<!DOCTYPE svg PUBLIC "-//W3C//DTD SVG 1.0//EN" "http://www.w3.org/TR/2001/REC-SVG-20010904/DTD/svg10.dtd">
<!-- Creator: CorelDRAW X6 -->
<svg xmlns="http://www.w3.org/2000/svg" xml:space="preserve" width="58px" height="112px" version="1.0" shape-rendering="geometricPrecision" text-rendering="geometricPrecision" image-rendering="optimizeQuality" fill-rule="evenodd" clip-rule="evenodd"
viewBox="0 0 5800 11125"
 xmlns:xlink="http://www.w3.org/1999/xlink">
 <g id="_7064.cgm:type:overlay">
  <metadata id="CorelCorpID_0Corel-Layer"/>
  <IC_ColorNameTable/>
  <PictureProperties/>
  <polygon fill="red" fill-opacity="0.501961" stroke="white" stroke-width="351.924" stroke-linecap="square" stroke-linejoin="round" stroke-opacity="0.501961" points="176,10037 973,10037 973,2900 176,2900 "/>
  <polygon fill="red" fill-opacity="0.501961" stroke="white" stroke-width="351.924" stroke-linecap="square" stroke-linejoin="round" stroke-opacity="0.501961" points="5624,10037 4827,10037 4827,2900 5624,2900 "/>
  <polygon fill="red" fill-opacity="0.501961" stroke="white" stroke-width="351.924" stroke-linecap="square" stroke-linejoin="round" stroke-opacity="0.501961" points="2502,10037 3298,10037 3298,2900 2502,2900 "/>
  <polygon fill="red" fill-opacity="0.501961" stroke="white" stroke-width="351.924" stroke-linecap="square" stroke-linejoin="round" stroke-opacity="0.501961" points="176,2900 5624,2900 5624,2852 5620,2757 5614,2662 5603,2568 5590,2474 5573,2380 5554,2287 5531,2195 5505,2104 5475,2013 5442,1924 5407,1835 5369,1748 5326,1663 5282,1579 5235,1497 5185,1416 5131,1338 5075,1260 5017,1186 4956,1113 4892,1042 4826,974 4758,907 4687,844 4614,783 4539,725 4462,668 4383,615 4303,565 4220,518 4137,472 4051,431 3964,392 3876,357 3787,324 3696,295 3605,269 3513,246 3419,226 3326,210 3232,197 3138,186 3043,180 2948,176 2852,176 2757,180 2662,186 2568,197 2474,210 2381,226 2287,246 2195,269 2104,295 2013,324 1924,357 1836,392 1749,431 1663,472 1580,518 1497,565 1417,615 1338,668 1261,725 1186,783 1113,844 1042,907 974,974 908,1042 844,1113 783,1186 725,1260 669,1338 615,1416 565,1497 518,1579 474,1663 431,1748 393,1835 358,1924 325,2013 295,2104 269,2195 246,2287 227,2380 210,2474 197,2568 186,2662 180,2757 "/>
  <path fill="red" fill-opacity="0.501961" stroke="white" stroke-width="351.924" stroke-linecap="square" stroke-linejoin="round" stroke-opacity="0.501961" d="M3812 10037c0,-504 -408,-912 -912,-912 -504,0 -912,408 -912,912 0,504 408,912 912,912 504,0 912,-408 912,-912z"/>
 </g>
</svg>
