<?xml version="1.0" encoding="UTF-8"?>
<!DOCTYPE svg PUBLIC "-//W3C//DTD SVG 1.0//EN" "http://www.w3.org/TR/2001/REC-SVG-20010904/DTD/svg10.dtd">
<!-- Creator: CorelDRAW X6 -->
<svg xmlns="http://www.w3.org/2000/svg" xml:space="preserve" width="83px" height="98px" version="1.0" shape-rendering="geometricPrecision" text-rendering="geometricPrecision" image-rendering="optimizeQuality" fill-rule="evenodd" clip-rule="evenodd"
viewBox="0 0 8300 9798"
 xmlns:xlink="http://www.w3.org/1999/xlink">
 <g id="_7078.cgm:type:overlay">
  <metadata id="CorelCorpID_0Corel-Layer"/>
  <IC_ColorNameTable/>
  <PictureProperties/>
  <polygon fill="red" fill-opacity="0.501961" stroke="white" stroke-width="354.254" stroke-linecap="square" stroke-linejoin="round" stroke-opacity="0.501961" points="1782,8703 2059,8154 2375,7443 2625,6718 2875,5941 3073,5203 3218,4465 3403,3399 3508,2688 3588,1836 3666,966 3705,177 4595,177 4634,966 4712,1836 4792,2688 4897,3399 5082,4465 5227,5203 5425,5941 5675,6718 5925,7443 6241,8154 6518,8703 "/>
  <polygon fill="red" fill-opacity="0.501961" stroke="white" stroke-width="354.254" stroke-linecap="square" stroke-linejoin="round" stroke-opacity="0.501961" points="177,6584 8123,6584 8123,5524 177,5524 "/>
  <path fill="red" fill-opacity="0.501961" stroke="white" stroke-width="354.254" stroke-linecap="square" stroke-linejoin="round" stroke-opacity="0.501961" d="M5068 8703c0,-507 -411,-918 -918,-918 -507,0 -918,411 -918,918 0,507 411,918 918,918 507,0 918,-411 918,-918z"/>
  <line fill="none" fill-opacity="0.501961" stroke="white" stroke-width="354.254" stroke-linecap="round" stroke-linejoin="round" stroke-opacity="0.501961" x1="548" y1="6054" x2="3705" y2= "177" />
  <line fill="none" fill-opacity="0.501961" stroke="white" stroke-width="354.254" stroke-linecap="round" stroke-linejoin="round" stroke-opacity="0.501961" x1="2296" y1="6054" x2="3928" y2= "177" />
  <line fill="none" fill-opacity="0.501961" stroke="white" stroke-width="354.254" stroke-linecap="round" stroke-linejoin="round" stroke-opacity="0.501961" x1="4150" y1="6054" x2="4150" y2= "177" />
  <line fill="none" fill-opacity="0.501961" stroke="white" stroke-width="354.254" stroke-linecap="round" stroke-linejoin="round" stroke-opacity="0.501961" x1="6004" y1="6054" x2="4372" y2= "177" />
  <line fill="none" fill-opacity="0.501961" stroke="white" stroke-width="354.254" stroke-linecap="round" stroke-linejoin="round" stroke-opacity="0.501961" x1="7752" y1="6054" x2="4595" y2= "177" />
 </g>
</svg>
