<?xml version="1.0" encoding="UTF-8"?>
<!DOCTYPE svg PUBLIC "-//W3C//DTD SVG 1.0//EN" "http://www.w3.org/TR/2001/REC-SVG-20010904/DTD/svg10.dtd">
<!-- Creator: CorelDRAW X6 -->
<svg xmlns="http://www.w3.org/2000/svg" xml:space="preserve" width="51px" height="99px" version="1.0" shape-rendering="geometricPrecision" text-rendering="geometricPrecision" image-rendering="optimizeQuality" fill-rule="evenodd" clip-rule="evenodd"
viewBox="0 0 5100 9934"
 xmlns:xlink="http://www.w3.org/1999/xlink">
 <g id="_7112.cgm:type:overlay">
  <metadata id="CorelCorpID_0Corel-Layer"/>
  <IC_ColorNameTable/>
  <PictureProperties/>
  <polygon fill="red" fill-opacity="0.501961" stroke="white" stroke-width="354.791" stroke-linecap="square" stroke-linejoin="round" stroke-opacity="0.501961" points="177,8837 455,8289 770,7575 1022,6849 1273,6071 1470,5331 1616,4592 1801,3523 1907,2812 1986,1958 2065,1086 2105,296 2995,296 3035,1086 3114,1958 3193,2812 3299,3523 3484,4592 3630,5331 3827,6071 4078,6849 4330,7575 4645,8289 4923,8837 "/>
  <path fill="red" fill-opacity="0.501961" stroke="white" stroke-width="354.791" stroke-linecap="square" stroke-linejoin="round" stroke-opacity="0.501961" d="M3469 8837c0,-508 -412,-919 -919,-919 -508,0 -919,412 -919,919 0,508 412,919 919,919 508,0 919,-412 919,-919z"/>
  <polygon fill="red" fill-opacity="0.501961" stroke="white" stroke-width="354.791" stroke-linecap="square" stroke-linejoin="round" stroke-opacity="0.501961" points="421,3285 421,4298 4679,4298 4679,3285 "/>
  <polygon fill="red" fill-opacity="0.501961" stroke="white" stroke-width="354.791" stroke-linecap="square" stroke-linejoin="round" stroke-opacity="0.501961" points="4204,4298 896,4298 896,4357 899,4414 904,4471 912,4528 921,4586 931,4642 945,4698 960,4755 977,4810 995,4864 1016,4917 1039,4971 1063,5023 1089,5075 1118,5126 1146,5174 1178,5223 1211,5270 1247,5317 1282,5362 1321,5405 1361,5448 1401,5489 1443,5527 1487,5566 1531,5602 1578,5636 1625,5670 1673,5702 1723,5731 1774,5759 1825,5785 1878,5809 1930,5832 1984,5853 2038,5871 2094,5889 2150,5903 2206,5917 2264,5927 2319,5936 2377,5943 2434,5948 2493,5952 2550,5953 2607,5952 2666,5948 2723,5943 2781,5936 2836,5927 2894,5917 2950,5903 3006,5889 3062,5871 3116,5853 3170,5832 3222,5809 3275,5785 3326,5759 3377,5731 3427,5702 3475,5670 3522,5636 3569,5602 3613,5566 3657,5527 3699,5489 3739,5448 3779,5405 3818,5362 3853,5317 3889,5270 3922,5223 3954,5174 3982,5126 4011,5075 4037,5023 4061,4971 4084,4917 4105,4864 4123,4810 4140,4755 4155,4698 4169,4642 4179,4586 4188,4528 4196,4471 4201,4414 4204,4357 "/>
  <polygon fill="red" fill-opacity="0.501961" stroke="white" stroke-width="354.791" stroke-linecap="square" stroke-linejoin="round" stroke-opacity="0.501961" points="896,1832 4204,1832 4203,1773 4200,1716 4195,1658 4188,1601 4178,1545 4167,1487 4154,1431 4140,1375 4123,1320 4105,1266 4084,1212 4061,1159 4036,1107 4011,1056 3982,1005 3953,955 3922,906 3889,859 3853,813 3817,768 3779,725 3739,683 3699,642 3657,602 3613,565 3569,528 3522,493 3475,460 3427,429 3377,399 3326,371 3274,344 3222,320 3170,298 3116,277 3061,258 3006,241 2950,227 2894,213 2836,203 2781,193 2723,186 2666,182 2607,179 2550,178 2493,179 2434,182 2377,186 2319,193 2264,203 2206,213 2150,227 2094,241 2039,258 1984,277 1930,298 1878,320 1826,344 1774,371 1723,399 1673,429 1625,460 1578,493 1531,528 1487,565 1443,602 1401,642 1361,683 1321,725 1283,768 1247,813 1211,859 1178,906 1147,955 1118,1005 1089,1056 1064,1107 1039,1159 1016,1212 995,1266 977,1320 960,1375 946,1431 933,1487 922,1545 912,1601 905,1658 900,1716 897,1773 "/>
  <polygon fill="white" fill-opacity="0.501961" stroke="white" stroke-width="354.791" stroke-linecap="square" stroke-linejoin="round" stroke-opacity="0.501961" points="896,1832 896,3285 4204,3285 4204,1832 "/>
 </g>
</svg>
