<?xml version="1.0" encoding="UTF-8"?>
<!DOCTYPE svg PUBLIC "-//W3C//DTD SVG 1.0//EN" "http://www.w3.org/TR/2001/REC-SVG-20010904/DTD/svg10.dtd">
<!-- Creator: CorelDRAW X6 -->
<svg xmlns="http://www.w3.org/2000/svg" xml:space="preserve" width="73px" height="98px" version="1.0" shape-rendering="geometricPrecision" text-rendering="geometricPrecision" image-rendering="optimizeQuality" fill-rule="evenodd" clip-rule="evenodd"
viewBox="0 0 7300 9752"
 xmlns:xlink="http://www.w3.org/1999/xlink">
 <g id="_7117.cgm:type:overlay">
  <metadata id="CorelCorpID_0Corel-Layer"/>
  <IC_ColorNameTable/>
  <PictureProperties/>
  <polygon fill="red" fill-opacity="0.501961" stroke="white" stroke-width="353.074" stroke-linecap="square" stroke-linejoin="round" stroke-opacity="0.501961" points="1292,8662 1568,8116 1882,7409 2133,6686 2381,5914 2578,5179 2722,4445 2907,3383 3011,2675 3090,1829 3169,961 3207,176 4093,176 4131,961 4210,1829 4289,2675 4393,3383 4579,4445 4722,5179 4919,5914 5167,6686 5418,7409 5732,8116 6008,8662 "/>
  <path fill="red" fill-opacity="0.501961" stroke="white" stroke-width="353.074" stroke-linecap="square" stroke-linejoin="round" stroke-opacity="0.501961" d="M4563 8662c0,-504 -409,-913 -913,-913 -504,0 -913,409 -913,913 0,504 409,913 913,913 504,0 913,-409 913,-913z"/>
  <polygon fill="red" fill-opacity="0.501961" stroke="white" stroke-width="353.074" stroke-linecap="square" stroke-linejoin="round" stroke-opacity="0.501961" points="6074,3141 6081,3175 6086,3207 6090,3240 6091,3257 6091,7252 7123,7252 7123,1281 177,1281 177,7252 1292,7252 1292,3280 1294,3233 1297,3203 1301,3171 1306,3140 1312,3109 1319,3078 1327,3048 1336,3018 1347,2988 1358,2959 1371,2931 1383,2901 1397,2874 1413,2846 1429,2819 1447,2792 1464,2767 1484,2742 1503,2718 1523,2695 1544,2671 1567,2649 1590,2627 1615,2607 1639,2587 1664,2568 1689,2550 1716,2533 1743,2517 1769,2502 1797,2488 1827,2474 1856,2462 1885,2451 1914,2441 1945,2431 1975,2423 2006,2415 2036,2410 2068,2405 2098,2401 2130,2399 2162,2396 2192,2396 2224,2396 2256,2399 2286,2401 2318,2405 2349,2410 2380,2415 2411,2423 2441,2431 2470,2441 2501,2451 2530,2462 2559,2474 2587,2488 2615,2502 2643,2517 2669,2533 2696,2550 2722,2568 2747,2587 2771,2607 2795,2627 2818,2649 2840,2671 2861,2695 2882,2718 2902,2742 2921,2767 2939,2792 2956,2819 2972,2846 2987,2874 3001,2901 3015,2931 3028,2959 3038,2988 3048,3018 3059,3048 3066,3078 3074,3109 3078,3140 3084,3171 3088,3203 3090,3233 3093,3265 3093,3293 3093,7252 4209,7252 4209,3293 4213,3240 4216,3207 4222,3175 4228,3141 4236,3110 4244,3078 4253,3046 4265,3016 4276,2986 4289,2955 4303,2924 4318,2895 4333,2866 4351,2838 4368,2810 4388,2784 4407,2757 4429,2732 4450,2707 4471,2683 4495,2659 4520,2637 4544,2616 4570,2594 4596,2575 4623,2556 4651,2538 4679,2521 4708,2505 4737,2490 4768,2476 4798,2464 4828,2452 4859,2441 4891,2432 4923,2423 4954,2415 4987,2409 5020,2404 5052,2400 5085,2397 5118,2395 5151,2395 5184,2395 5217,2397 5250,2400 5282,2404 5315,2409 5346,2415 5380,2423 5411,2432 5443,2441 5473,2452 5504,2464 5535,2476 5565,2490 5595,2505 5623,2521 5651,2538 5679,2556 5706,2575 5733,2594 5758,2616 5782,2637 5806,2659 5830,2683 5852,2707 5874,2732 5895,2757 5914,2784 5933,2810 5951,2838 5969,2866 5984,2895 6000,2924 6014,2955 6026,2986 6038,3016 6049,3046 6058,3078 6067,3110 "/>
 </g>
</svg>
