<?xml version="1.0" encoding="UTF-8"?>
<!DOCTYPE svg PUBLIC "-//W3C//DTD SVG 1.0//EN" "http://www.w3.org/TR/2001/REC-SVG-20010904/DTD/svg10.dtd">
<!-- Creator: CorelDRAW X6 -->
<svg xmlns="http://www.w3.org/2000/svg" xml:space="preserve" width="60px" height="98px" version="1.0" shape-rendering="geometricPrecision" text-rendering="geometricPrecision" image-rendering="optimizeQuality" fill-rule="evenodd" clip-rule="evenodd"
viewBox="0 0 6000 9810"
 xmlns:xlink="http://www.w3.org/1999/xlink">
 <g id="_7132.cgm:type:overlay">
  <metadata id="CorelCorpID_0Corel-Layer"/>
  <IC_ColorNameTable/>
  <PictureProperties/>
  <polygon fill="red" fill-opacity="0.501961" stroke="white" stroke-width="355.229" stroke-linecap="square" stroke-linejoin="round" stroke-opacity="0.501961" points="626,8713 903,8165 1220,7452 1470,6726 1720,5948 1919,5208 2064,4470 2250,3402 2356,2691 2435,1838 2513,965 2552,177 3444,177 3483,965 3561,1838 3640,2691 3746,3402 3931,4470 4077,5208 4275,5948 4525,6726 4776,7452 5092,8165 5370,8713 "/>
  <polygon fill="red" fill-opacity="0.501961" stroke="white" stroke-width="355.229" stroke-linecap="square" stroke-linejoin="round" stroke-opacity="0.501961" points="177,7627 5823,7621 2995,2736 "/>
  <polygon fill="red" fill-opacity="0.501961" stroke="white" stroke-width="355.229" stroke-linecap="square" stroke-linejoin="round" stroke-opacity="0.501961" points="4151,4265 3820,8301 2176,8301 1845,4263 1855,4009 1871,3814 1892,3624 1920,3439 1954,3257 1994,3081 2039,2910 2091,2745 2149,2584 2212,2432 2281,2283 2356,2142 2436,2006 2521,1877 2613,1754 2710,1639 2810,1530 2917,1429 2998,1358 3079,1429 3186,1530 3286,1639 3383,1754 3474,1877 3560,2006 3640,2142 3715,2283 3784,2432 3847,2584 3904,2745 3957,2910 4002,3081 4042,3257 4076,3439 4104,3624 4125,3814 4141,4009 4151,4263 "/>
  <path fill="red" fill-opacity="0.501961" stroke="white" stroke-width="355.229" stroke-linecap="square" stroke-linejoin="round" stroke-opacity="0.501961" d="M3917 8713c0,-508 -412,-919 -919,-919 -508,0 -919,412 -919,919 0,508 412,919 919,919 508,0 919,-412 919,-919z"/>
  <line fill="none" fill-opacity="0.501961" stroke="white" stroke-width="355.229" stroke-linecap="round" stroke-linejoin="round" stroke-opacity="0.501961" x1="2953" y1="6049" x2="2953" y2= "7795" />
 </g>
</svg>
