<?xml version="1.0" encoding="UTF-8"?>
<!DOCTYPE svg PUBLIC "-//W3C//DTD SVG 1.0//EN" "http://www.w3.org/TR/2001/REC-SVG-20010904/DTD/svg10.dtd">
<!-- Creator: CorelDRAW X6 -->
<svg xmlns="http://www.w3.org/2000/svg" xml:space="preserve" width="151px" height="150px" version="1.0" shape-rendering="geometricPrecision" text-rendering="geometricPrecision" image-rendering="optimizeQuality" fill-rule="evenodd" clip-rule="evenodd"
viewBox="0 0 15100 15058"
 xmlns:xlink="http://www.w3.org/1999/xlink">
 <g id="_7150.cgm:type:overlay">
  <metadata id="CorelCorpID_0Corel-Layer"/>
  <IC_ColorNameTable/>
  <PictureProperties/>
  <polygon fill="red" fill-opacity="0.501961" stroke="white" stroke-width="354.788" stroke-linecap="square" stroke-linejoin="round" stroke-opacity="0.501961" points="901,4343 2206,4967 2121,5155 1986,5489 1872,5831 1826,5994 1741,6357 1707,6542 1694,6618 1658,6894 1646,7026 1626,7333 1624,7450 1624,7646 1630,7800 1638,7951 1652,8108 1669,8272 1691,8417 1712,8556 1738,8693 1769,8831 1815,9025 1842,9122 1869,9219 1921,9386 1976,9545 2036,9703 2084,9821 2144,9956 2206,10091 902,10717 781,10451 725,10318 615,10034 564,9889 528,9770 467,9574 436,9458 401,9339 371,9201 356,9149 332,9027 306,8899 285,8784 275,8726 257,8622 236,8472 223,8339 209,8209 198,8070 190,7941 180,7795 180,7645 178,7527 180,7401 184,7229 190,7110 198,6988 213,6826 226,6686 231,6639 249,6503 270,6365 283,6270 310,6136 332,6019 371,5855 398,5740 433,5604 480,5433 498,5376 525,5288 545,5226 581,5114 618,5015 624,5001 656,4917 717,4758 "/>
  <polygon fill="red" fill-opacity="0.501961" stroke="white" stroke-width="354.788" stroke-linecap="square" stroke-linejoin="round" stroke-opacity="0.501961" points="1465,11693 2658,10877 2777,11045 3000,11328 3241,11599 3358,11719 3629,11976 3773,12097 3832,12146 4055,12316 4162,12391 4417,12562 4518,12622 4690,12719 4825,12792 4961,12860 5103,12927 5253,12994 5389,13047 5520,13098 5652,13144 5785,13188 5977,13243 6076,13269 6173,13294 6343,13332 6508,13362 6675,13391 6801,13407 6949,13425 7097,13439 6987,14880 6696,14851 6553,14836 6251,14788 6100,14759 5980,14731 5779,14685 5664,14656 5542,14624 5408,14585 5355,14569 5238,14531 5115,14489 5004,14448 4949,14428 4852,14391 4710,14335 4589,14281 4467,14227 4342,14166 4226,14109 4095,14044 3965,13972 3863,13915 3753,13849 3607,13759 3506,13693 3406,13626 3273,13533 3158,13452 3120,13423 3010,13338 2901,13252 2827,13191 2724,13103 2634,13026 2511,12911 2424,12828 2324,12729 2200,12605 2158,12560 2097,12492 2053,12443 1975,12357 1909,12276 1899,12263 1842,12195 1735,12062 "/>
  <polygon fill="red" fill-opacity="0.501961" stroke="white" stroke-width="354.788" stroke-linecap="square" stroke-linejoin="round" stroke-opacity="0.501961" points="8115,14880 8003,13439 8209,13419 8565,13369 8919,13296 9082,13255 9439,13146 9618,13084 9689,13056 9947,12950 10068,12895 10341,12758 10445,12702 10615,12603 10746,12522 10870,12438 11001,12348 11134,12249 11248,12161 11357,12071 11464,11980 11568,11887 11712,11748 11784,11677 11854,11604 11972,11476 12082,11349 12189,11217 12267,11116 12355,10998 12443,10875 13636,11693 13464,11929 13380,12047 13187,12284 13086,12401 13003,12490 12862,12641 12779,12724 12691,12815 12588,12911 12549,12950 12458,13032 12360,13118 12268,13195 12224,13231 12145,13299 12024,13393 11916,13470 11809,13547 11695,13626 11586,13698 11465,13779 11335,13856 11236,13915 11125,13977 10973,14059 10865,14114 10758,14168 10610,14236 10481,14293 10438,14312 10311,14367 10181,14418 10092,14452 9965,14496 9852,14534 9689,14585 9576,14619 9439,14656 9271,14700 9210,14713 9122,14734 9058,14747 8943,14772 8839,14789 8825,14791 8735,14806 8567,14833 "/>
  <polygon fill="red" fill-opacity="0.501961" stroke="white" stroke-width="354.788" stroke-linecap="square" stroke-linejoin="round" stroke-opacity="0.501961" points="14198,10717 12896,10091 12981,9904 13114,9570 13227,9227 13274,9063 13359,8702 13394,8516 13406,8440 13443,8164 13455,8033 13474,7727 13476,7608 13476,7412 13471,7258 13463,7108 13448,6950 13430,6787 13410,6641 13388,6503 13362,6367 13333,6228 13285,6033 13260,5936 13232,5839 13180,5673 13124,5515 13065,5355 13017,5238 12957,5103 12893,4967 14198,4341 14319,4610 14377,4742 14486,5026 14536,5170 14572,5288 14633,5485 14664,5600 14699,5720 14730,5859 14744,5909 14768,6032 14794,6161 14815,6277 14825,6332 14843,6436 14863,6585 14877,6720 14892,6849 14901,6990 14910,7118 14919,7264 14922,7413 14923,7531 14922,7657 14916,7829 14910,7951 14901,8070 14888,8232 14874,8373 14870,8419 14851,8556 14831,8695 14817,8790 14791,8922 14768,9039 14730,9205 14703,9318 14667,9456 14621,9624 14601,9683 14576,9770 14555,9833 14518,9944 14480,10043 14477,10057 14444,10142 14383,10299 "/>
  <polygon fill="red" fill-opacity="0.501961" stroke="white" stroke-width="354.788" stroke-linecap="square" stroke-linejoin="round" stroke-opacity="0.501961" points="13636,3366 12440,4183 12323,4014 12100,3730 11859,3461 11744,3340 11471,3085 11327,2962 11268,2913 11046,2743 10938,2667 10683,2499 10582,2436 10410,2340 10275,2266 10141,2198 9998,2131 9847,2067 9712,2011 9578,1961 9448,1916 9315,1870 9122,1815 9025,1788 8928,1765 8756,1726 8591,1696 8424,1667 8297,1650 8151,1633 8003,1621 8112,177 8406,207 8547,224 8849,271 9000,299 9120,328 9321,374 9436,405 9558,434 9693,475 9744,490 9863,528 9985,569 10097,611 10151,630 10250,667 10390,724 10511,777 10633,831 10758,892 10874,949 11003,1013 11136,1088 11238,1145 11347,1210 11493,1301 11594,1366 11695,1433 11828,1525 11943,1608 11981,1637 12090,1720 12199,1806 12274,1867 12375,1955 12467,2033 12590,2149 12677,2230 12776,2329 12900,2453 12943,2499 13005,2566 13047,2615 13126,2703 13191,2783 13202,2795 13260,2864 13365,2996 "/>
  <polygon fill="red" fill-opacity="0.501961" stroke="white" stroke-width="354.788" stroke-linecap="square" stroke-linejoin="round" stroke-opacity="0.501961" points="6987,177 7097,1621 6891,1639 6535,1689 6182,1763 6018,1804 5661,1912 5482,1975 5411,2002 5153,2108 5033,2164 4759,2301 4655,2358 4485,2457 4355,2536 4228,2620 4100,2710 3966,2808 3852,2900 3742,2987 3637,3078 3533,3173 3387,3311 3316,3381 3246,3454 3128,3582 3019,3710 2911,3841 2834,3942 2745,4059 2658,4183 1465,3366 1636,3129 1721,3012 1915,2777 2014,2657 2098,2568 2238,2418 2321,2333 2408,2243 2512,2147 2551,2110 2643,2026 2741,1941 2832,1865 2876,1827 2957,1759 3077,1667 3184,1590 3291,1512 3406,1432 3514,1360 3635,1279 3764,1202 3864,1143 3975,1081 4127,999 4235,946 4342,892 4490,823 4618,765 4662,746 4789,692 4918,643 5009,606 5136,562 5248,524 5411,474 5522,441 5660,402 5829,358 5890,345 5979,325 6043,311 6157,288 6261,269 6274,267 6366,252 6532,228 "/>
 </g>
</svg>
