<?xml version="1.0" encoding="UTF-8"?>
<!DOCTYPE svg PUBLIC "-//W3C//DTD SVG 1.0//EN" "http://www.w3.org/TR/2001/REC-SVG-20010904/DTD/svg10.dtd">
<!-- Creator: CorelDRAW X6 -->
<svg xmlns="http://www.w3.org/2000/svg" xml:space="preserve" width="84px" height="54px" version="1.0" shape-rendering="geometricPrecision" text-rendering="geometricPrecision" image-rendering="optimizeQuality" fill-rule="evenodd" clip-rule="evenodd"
viewBox="0 0 8400 5447"
 xmlns:xlink="http://www.w3.org/1999/xlink">
 <g id="_0015.cgm:type:overlay">
  <metadata id="CorelCorpID_0Corel-Layer"/>
  <IC_ColorNameTable/>
  <PictureProperties/>
  <polygon fill="#EAFFF3" fill-opacity="0.501961" stroke="#EBB7ED" stroke-width="724.61" stroke-linecap="square" stroke-linejoin="round" stroke-opacity="0.501961" points="362,5085 362,362 8038,362 8038,5085 "/>
  <polygon fill="#EBB7ED" fill-opacity="0.501961" stroke="#EBB7ED" stroke-width="90.0152" stroke-linecap="square" stroke-linejoin="round" stroke-opacity="0.501961" points="4526,3324 4988,3324 5044,3647 5123,3801 5242,3936 5387,4038 5575,4117 5732,4153 5908,4167 6110,4156 6295,4117 6462,4051 6587,3971 6689,3868 6755,3758 6788,3652 6799,3518 6783,3379 6747,3281 6676,3190 6555,3100 6438,3047 6219,2980 5825,2887 5454,2793 5220,2717 5076,2652 4938,2563 4836,2468 4746,2341 4681,2189 4648,2033 4641,1857 4665,1676 4715,1512 4813,1332 4947,1176 5136,1037 5383,930 5600,878 5860,856 6157,871 6402,925 6649,1032 6846,1176 7009,1369 7110,1579 7161,1869 7170,1990 6713,1990 6696,1882 6667,1741 6597,1593 6482,1459 6344,1364 6172,1294 6015,1264 5827,1257 5532,1304 5378,1368 5266,1447 5188,1536 5134,1635 5099,1823 5125,2015 5171,2110 5234,2184 5313,2239 5471,2304 5798,2394 6169,2482 6511,2567 6715,2635 6839,2692 6986,2792 7099,2909 7185,3047 7245,3213 7272,3373 7272,3555 7242,3753 7185,3923 7081,4102 6938,4260 6742,4399 6488,4508 6212,4570 5870,4588 5545,4558 5299,4491 5052,4367 4854,4200 4701,3996 4595,3753 4537,3462 "/>
  <polygon fill="#EBB7ED" fill-opacity="0.501961" stroke="#EBB7ED" stroke-width="90.0152" stroke-linecap="square" stroke-linejoin="round" stroke-opacity="0.501961" points="1342,3324 1805,3324 1860,3647 1939,3801 2058,3936 2203,4038 2391,4117 2549,4153 2724,4167 2926,4156 3111,4117 3279,4051 3403,3971 3505,3868 3571,3758 3604,3652 3615,3518 3600,3379 3563,3281 3492,3190 3372,3100 3255,3047 3036,2980 2641,2887 2270,2793 2036,2717 1892,2652 1754,2563 1653,2468 1563,2341 1498,2189 1465,2033 1458,1857 1482,1676 1532,1512 1630,1332 1764,1176 1953,1037 2200,930 2416,878 2677,856 2973,871 3218,925 3465,1032 3662,1176 3825,1369 3926,1579 3977,1869 3986,1990 3530,1990 3513,1882 3483,1741 3413,1593 3298,1459 3160,1364 2988,1294 2832,1264 2643,1257 2349,1304 2195,1368 2083,1447 2004,1536 1951,1635 1915,1823 1942,2015 1987,2110 2050,2184 2130,2239 2287,2304 2615,2394 2985,2482 3327,2567 3531,2635 3656,2692 3803,2792 3916,2909 4001,3047 4062,3213 4088,3373 4089,3555 4058,3753 4001,3923 3897,4102 3755,4260 3559,4399 3304,4508 3028,4570 2687,4588 2361,4558 2115,4491 1869,4367 1670,4200 1517,3996 1411,3753 1354,3462 "/>
 </g>
</svg>
