<?xml version="1.0" encoding="UTF-8"?>
<!DOCTYPE svg PUBLIC "-//W3C//DTD SVG 1.0//EN" "http://www.w3.org/TR/2001/REC-SVG-20010904/DTD/svg10.dtd">
<!-- Creator: CorelDRAW X6 -->
<svg xmlns="http://www.w3.org/2000/svg" xml:space="preserve" width="63px" height="67px" version="1.0" shape-rendering="geometricPrecision" text-rendering="geometricPrecision" image-rendering="optimizeQuality" fill-rule="evenodd" clip-rule="evenodd"
viewBox="0 0 6300 6640"
 xmlns:xlink="http://www.w3.org/1999/xlink">
 <g id="_0017.cgm:type:overlay">
  <metadata id="CorelCorpID_0Corel-Layer"/>
  <IC_ColorNameTable/>
  <PictureProperties/>
  <polygon fill="#000001" fill-opacity="0.501961" points="458,6123 458,5297 5881,5297 5881,6123 "/>
  <path fill="none" fill-opacity="0.501961" stroke="#000001" stroke-width="825.081" stroke-linecap="square" stroke-linejoin="round" stroke-opacity="0.501961" d="M2763 5099c527,-542 514,-1409 -28,-1935 -542,-527 -1409,-514 -1935,28 -527,542 -514,1408 28,1935 542,527 1409,514 1935,-28z"/>
  <path fill="none" fill-opacity="0.501961" stroke="#000001" stroke-width="825.081" stroke-linecap="square" stroke-linejoin="round" stroke-opacity="0.501961" d="M3150 4126c11,-756 633,-1360 1389,-1349 756,11 1359,633 1348,1388 -11,756 -633,1360 -1389,1349 -756,-11 -1360,-632 -1348,-1388z"/>
  <path fill="none" fill-opacity="0.501961" stroke="#000001" stroke-width="825.081" stroke-linecap="square" stroke-linejoin="round" stroke-opacity="0.501961" d="M1800 1547c126,-745 832,-1247 1577,-1121 746,126 1248,832 1122,1577 -126,745 -832,1247 -1577,1121 -745,-126 -1248,-832 -1122,-1577z"/>
  <path fill="#000001" fill-opacity="0.501961" d="M3995 5710c0,-456 -369,-825 -825,-825 -456,0 -825,369 -825,825 0,456 369,825 825,825 456,0 825,-369 825,-825z"/>
 </g>
</svg>
