<?xml version="1.0" encoding="UTF-8"?>
<!DOCTYPE svg PUBLIC "-//W3C//DTD SVG 1.0//EN" "http://www.w3.org/TR/2001/REC-SVG-20010904/DTD/svg10.dtd">
<!-- Creator: CorelDRAW X6 -->
<svg xmlns="http://www.w3.org/2000/svg" xml:space="preserve" width="81px" height="81px" version="1.0" shape-rendering="geometricPrecision" text-rendering="geometricPrecision" image-rendering="optimizeQuality" fill-rule="evenodd" clip-rule="evenodd"
viewBox="0 0 8100 8100"
 xmlns:xlink="http://www.w3.org/1999/xlink">
 <g id="_0027.cgm:type:overlay">
  <metadata id="CorelCorpID_0Corel-Layer"/>
  <IC_ColorNameTable/>
  <PictureProperties/>
  <polygon fill="#A37B3A" fill-opacity="0.501961" stroke="#A37B3A" stroke-width="90.1104" stroke-linecap="square" stroke-linejoin="round" stroke-opacity="0.501961" points="1547,6114 5019,2643 5539,3164 2068,6636 "/>
  <polygon fill="#A37B3A" fill-opacity="0.501961" stroke="#A37B3A" stroke-width="90.1104" stroke-linecap="square" stroke-linejoin="round" stroke-opacity="0.501961" points="6507,3546 6668,2209 5453,994 4411,2035 6147,3772 "/>
  <polygon fill="#A37B3A" fill-opacity="0.501961" stroke="#A37B3A" stroke-width="90.1104" stroke-linecap="square" stroke-linejoin="round" stroke-opacity="0.501961" points="6032,6636 2561,3164 3081,2643 6553,6114 "/>
  <polygon fill="#A37B3A" fill-opacity="0.501961" stroke="#A37B3A" stroke-width="90.1104" stroke-linecap="square" stroke-linejoin="round" stroke-opacity="0.501961" points="1432,2209 1593,3546 1953,3771 3689,2035 2647,994 "/>
  <path fill="none" fill-opacity="0.501961" stroke="#A37B3A" stroke-width="236.628" stroke-linecap="square" stroke-linejoin="round" stroke-opacity="0.501961" d="M7982 4050c0,-2172 -1760,-3932 -3932,-3932 -2172,0 -3932,1760 -3932,3932 0,2172 1760,3932 3932,3932 2172,0 3932,-1760 3932,-3932z"/>
 </g>
</svg>
