<?xml version="1.0" encoding="UTF-8"?>
<!DOCTYPE svg PUBLIC "-//W3C//DTD SVG 1.0//EN" "http://www.w3.org/TR/2001/REC-SVG-20010904/DTD/svg10.dtd">
<!-- Creator: CorelDRAW X6 -->
<svg xmlns="http://www.w3.org/2000/svg" xml:space="preserve" width="74px" height="74px" version="1.0" shape-rendering="geometricPrecision" text-rendering="geometricPrecision" image-rendering="optimizeQuality" fill-rule="evenodd" clip-rule="evenodd"
viewBox="0 0 7400 7400"
 xmlns:xlink="http://www.w3.org/1999/xlink">
 <g id="_0031.cgm:type:overlay">
  <metadata id="CorelCorpID_0Corel-Layer"/>
  <IC_ColorNameTable/>
  <PictureProperties/>
  <path fill="none" fill-opacity="0.501961" stroke="#DE4BC9" stroke-width="353.993" stroke-linecap="square" stroke-linejoin="round" stroke-opacity="0.501961" d="M7223 3700c0,-1946 -1577,-3523 -3523,-3523 -1946,0 -3523,1577 -3523,3523 0,1946 1577,3523 3523,3523 1946,0 3523,-1577 3523,-3523z"/>
  <line fill="none" fill-opacity="0.501961" stroke="#000001" stroke-width="353.993" stroke-linecap="round" stroke-linejoin="round" stroke-opacity="0.501961" x1="2775" y1="6198" x2="3122" y2= "1807" />
  <line fill="none" fill-opacity="0.501961" stroke="#000001" stroke-width="353.993" stroke-linecap="round" stroke-linejoin="round" stroke-opacity="0.501961" x1="4625" y1="6198" x2="4278" y2= "1807" />
  <line fill="none" fill-opacity="0.501961" stroke="#000001" stroke-width="353.993" stroke-linecap="round" stroke-linejoin="round" stroke-opacity="0.501961" x1="3122" y1="1807" x2="4278" y2= "1807" />
  <line fill="none" fill-opacity="0.501961" stroke="#000001" stroke-width="353.993" stroke-linecap="round" stroke-linejoin="round" stroke-opacity="0.501961" x1="3122" y1="882" x2="4278" y2= "882" />
  <line fill="none" fill-opacity="0.501961" stroke="#000001" stroke-width="353.993" stroke-linecap="round" stroke-linejoin="round" stroke-opacity="0.501961" x1="3122" y1="882" x2="3122" y2= "1807" />
  <line fill="none" fill-opacity="0.501961" stroke="#000001" stroke-width="353.993" stroke-linecap="round" stroke-linejoin="round" stroke-opacity="0.501961" x1="4278" y1="882" x2="4278" y2= "1807" />
  <line fill="none" fill-opacity="0.501961" stroke="#000001" stroke-width="353.993" stroke-linecap="round" stroke-linejoin="round" stroke-opacity="0.501961" x1="4162" y1="6198" x2="5087" y2= "6198" />
  <line fill="none" fill-opacity="0.501961" stroke="#000001" stroke-width="353.993" stroke-linecap="round" stroke-linejoin="round" stroke-opacity="0.501961" x1="2313" y1="6198" x2="3238" y2= "6198" />
  <path fill="none" fill-opacity="0.501961" stroke="#000001" stroke-width="353.993" stroke-linecap="square" stroke-linejoin="round" stroke-opacity="0.501961" d="M4064 5914c-157,-201 -447,-237 -648,-80 -201,157 -237,447 -79,648 157,201 447,237 648,80 201,-157 237,-447 79,-648z"/>
 </g>
</svg>
