<?xml version="1.0" encoding="UTF-8"?>
<!DOCTYPE svg PUBLIC "-//W3C//DTD SVG 1.0//EN" "http://www.w3.org/TR/2001/REC-SVG-20010904/DTD/svg10.dtd">
<!-- Creator: CorelDRAW X6 -->
<svg xmlns="http://www.w3.org/2000/svg" xml:space="preserve" width="73px" height="73px" version="1.0" shape-rendering="geometricPrecision" text-rendering="geometricPrecision" image-rendering="optimizeQuality" fill-rule="evenodd" clip-rule="evenodd"
viewBox="0 0 7300 7300"
 xmlns:xlink="http://www.w3.org/1999/xlink">
 <g id="_0043.cgm:type:overlay">
  <metadata id="CorelCorpID_0Corel-Layer"/>
  <IC_ColorNameTable/>
  <PictureProperties/>
  <path fill="none" fill-opacity="0.501961" stroke="#DE4BC9" stroke-width="211.354" stroke-linecap="square" stroke-linejoin="round" stroke-opacity="0.501961" d="M7194 3650c0,-1958 -1587,-3544 -3544,-3544 -1958,0 -3544,1587 -3544,3544 0,1958 1587,3544 3544,3544 1958,0 3544,-1587 3544,-3544z"/>
  <line fill="none" fill-opacity="0.501961" stroke="#DE4BC9" stroke-width="211.354" stroke-linecap="round" stroke-linejoin="round" stroke-opacity="0.501961" x1="1006" y1="6014" x2="6294" y2= "6014" />
  <line fill="none" fill-opacity="0.501961" stroke="#DE4BC9" stroke-width="211.354" stroke-linecap="round" stroke-linejoin="round" stroke-opacity="0.501961" x1="3650" y1="6014" x2="3650" y2= "1286" />
  <path fill="none" fill-opacity="0.501961" stroke="#DE4BC9" stroke-width="211.354" stroke-linecap="round" stroke-linejoin="round" stroke-opacity="0.501961" d="M4033 261c-215,289 -356,653 -378,1009"/>
  <path fill="none" fill-opacity="0.501961" stroke="#DE4BC9" stroke-width="211.354" stroke-linecap="round" stroke-linejoin="round" stroke-opacity="0.501961" d="M3511 1217c-779,1149 -882,2686 -269,3942"/>
  <path fill="none" fill-opacity="0.501961" stroke="#DE4BC9" stroke-width="211.354" stroke-linecap="round" stroke-linejoin="round" stroke-opacity="0.501961" d="M3691 1200c-1650,670 -2749,2286 -2749,4073 0,223 17,481 52,687"/>
  <path fill="none" fill-opacity="0.501961" stroke="#DE4BC9" stroke-width="210.054" stroke-linecap="round" stroke-linejoin="round" stroke-opacity="0.501961" d="M3241 5160c-218,-102 -474,-166 -717,-166 -653,0 -1261,397 -1511,999"/>
  <polyline fill="none" fill-opacity="0.501961" stroke="#DE4BC9" stroke-width="210.054" stroke-linecap="round" stroke-linejoin="round" stroke-opacity="0.501961" points="4012,285 4050,528 4099,779 4157,1029 4223,1275 4298,1520 4381,1761 4472,2000 4572,2236 4681,2468 4796,2695 4921,2919 5052,3138 5192,3352 5338,3562 5492,3766 5653,3965 5821,4157 5995,4345 6176,4525 6501,4821 "/>
  <line fill="none" fill-opacity="0.501961" stroke="#DE4BC9" stroke-width="210.054" stroke-linecap="round" stroke-linejoin="round" stroke-opacity="0.501961" x1="3650" y1="6014" x2="3650" y2= "106" />
  <line fill="none" fill-opacity="0.501961" stroke="#DE4BC9" stroke-width="210.054" stroke-linecap="round" stroke-linejoin="round" stroke-opacity="0.501961" x1="3650" y1="5424" x2="6501" y2= "4821" />
 </g>
</svg>
