<?xml version="1.0" encoding="UTF-8"?>
<!DOCTYPE svg PUBLIC "-//W3C//DTD SVG 1.0//EN" "http://www.w3.org/TR/2001/REC-SVG-20010904/DTD/svg10.dtd">
<!-- Creator: CorelDRAW X6 -->
<svg xmlns="http://www.w3.org/2000/svg" xml:space="preserve" width="107px" height="69px" version="1.0" shape-rendering="geometricPrecision" text-rendering="geometricPrecision" image-rendering="optimizeQuality" fill-rule="evenodd" clip-rule="evenodd"
viewBox="0 0 10700 6832"
 xmlns:xlink="http://www.w3.org/1999/xlink">
 <g id="_0044.cgm:type:overlay">
  <metadata id="CorelCorpID_0Corel-Layer"/>
  <IC_ColorNameTable/>
  <PictureProperties/>
  <path fill="none" fill-opacity="0.501961" stroke="#000001" stroke-width="588.765" stroke-linecap="square" stroke-linejoin="round" stroke-opacity="0.501961" d="M6192 1137c0,-465 -377,-842 -842,-842 -465,0 -842,377 -842,842 0,465 377,842 842,842 465,0 842,-377 842,-842z"/>
  <path fill="none" fill-opacity="0.501961" stroke="#000001" stroke-width="588.765" stroke-linecap="square" stroke-linejoin="round" stroke-opacity="0.501961" d="M6192 5696c0,-465 -377,-842 -842,-842 -465,0 -842,377 -842,842 0,465 377,842 842,842 465,0 842,-377 842,-842z"/>
  <polygon fill="#000001" fill-opacity="0.501961" stroke="#000001" stroke-width="89.7457" stroke-linecap="square" stroke-linejoin="round" stroke-opacity="0.501961" points="10693,5999 10693,5409 6134,5409 6134,5999 "/>
  <polygon fill="#000001" fill-opacity="0.501961" stroke="#000001" stroke-width="89.7457" stroke-linecap="square" stroke-linejoin="round" stroke-opacity="0.501961" points="7,5414 7,6004 4566,6004 4566,5414 "/>
  <polygon fill="#000001" fill-opacity="0.501961" stroke="#000001" stroke-width="89.7457" stroke-linecap="square" stroke-linejoin="round" stroke-opacity="0.501961" points="439,5414 1621,1867 9079,1867 10260,5409 9671,5409 8686,2456 2014,2456 1027,5414 "/>
 </g>
</svg>
