<?xml version="1.0" encoding="UTF-8"?>
<!DOCTYPE svg PUBLIC "-//W3C//DTD SVG 1.0//EN" "http://www.w3.org/TR/2001/REC-SVG-20010904/DTD/svg10.dtd">
<!-- Creator: CorelDRAW X6 -->
<svg xmlns="http://www.w3.org/2000/svg" xml:space="preserve" width="171px" height="37px" version="1.0" shape-rendering="geometricPrecision" text-rendering="geometricPrecision" image-rendering="optimizeQuality" fill-rule="evenodd" clip-rule="evenodd"
viewBox="0 0 17100 3685"
 xmlns:xlink="http://www.w3.org/1999/xlink">
 <g id="_0056.cgm:type:overlay">
  <metadata id="CorelCorpID_0Corel-Layer"/>
  <IC_ColorNameTable/>
  <PictureProperties/>
  <polyline fill="none" fill-opacity="0.501961" stroke="#969F99" stroke-width="299.427" stroke-linecap="round" stroke-linejoin="round" stroke-opacity="0.501961" points="149,3529 468,3421 822,3216 1033,3084 1372,2815 1503,2684 1689,2405 1912,2023 2191,1547 2443,1056 2620,718 2751,532 2947,336 3115,234 3301,169 3572,150 3833,234 3991,336 4065,430 4112,625 4124,826 4130,951 3777,1082 3608,1194 3476,1345 3394,1473 3367,1716 3367,1883 3432,2088 3608,2284 3954,2591 4331,2858 4793,3197 5165,3402 5389,3495 5627,3535 5750,3529 "/>
  <polyline fill="none" fill-opacity="0.501961" stroke="#969F99" stroke-width="299.427" stroke-linecap="round" stroke-linejoin="round" stroke-opacity="0.501961" points="5750,3529 6068,3421 6423,3216 6634,3084 6973,2815 7103,2684 7289,2405 7513,2023 7792,1547 8043,1056 8221,718 8352,532 8547,336 8715,234 8901,169 9172,150 9433,234 9591,336 9666,430 9712,625 9724,826 9731,951 9377,1082 9209,1194 9077,1345 8995,1473 8967,1716 8967,1883 9032,2088 9209,2284 9554,2591 9931,2858 10393,3197 10765,3402 10989,3495 11228,3535 11350,3529 "/>
  <polyline fill="none" fill-opacity="0.501961" stroke="#969F99" stroke-width="299.427" stroke-linecap="round" stroke-linejoin="round" stroke-opacity="0.501961" points="11350,3529 11669,3421 12023,3216 12234,3084 12573,2815 12703,2684 12890,2405 13114,2023 13392,1547 13643,1056 13822,718 13952,532 14148,336 14316,234 14501,169 14772,150 15034,234 15191,336 15266,430 15313,625 15324,826 15331,951 14977,1082 14809,1194 14677,1345 14595,1473 14568,1716 14568,1883 14633,2088 14809,2284 15155,2591 15531,2858 15993,3197 16366,3402 16589,3495 16829,3535 16951,3529 "/>
 </g>
</svg>
