<?xml version="1.0" encoding="UTF-8"?>
<!DOCTYPE svg PUBLIC "-//W3C//DTD SVG 1.0//EN" "http://www.w3.org/TR/2001/REC-SVG-20010904/DTD/svg10.dtd">
<!-- Creator: CorelDRAW X6 -->
<svg xmlns="http://www.w3.org/2000/svg" xml:space="preserve" width="86px" height="62px" version="1.0" shape-rendering="geometricPrecision" text-rendering="geometricPrecision" image-rendering="optimizeQuality" fill-rule="evenodd" clip-rule="evenodd"
viewBox="0 0 8600 6176"
 xmlns:xlink="http://www.w3.org/1999/xlink">
 <g id="_0300.cgm:type:overlay">
  <metadata id="CorelCorpID_0Corel-Layer"/>
  <IC_ColorNameTable/>
  <PictureProperties/>
  <polygon fill="#000001" fill-opacity="0.501961" stroke="#000001" stroke-width="89.6495" stroke-linecap="square" stroke-linejoin="round" stroke-opacity="0.501961" points="2599,5716 4,5716 4,4942 2599,4942 "/>
  <polygon fill="#000001" fill-opacity="0.501961" stroke="#000001" stroke-width="89.6495" stroke-linecap="square" stroke-linejoin="round" stroke-opacity="0.501961" points="3682,4942 6278,4942 6278,5716 3682,5716 "/>
  <path fill="none" fill-opacity="0.501961" stroke="#000001" stroke-width="941.438" stroke-linecap="round" stroke-linejoin="round" stroke-opacity="0.501961" d="M3713 4782c737,-210 1306,-844 1438,-1603 191,-1102 -552,-2157 -1654,-2348 -1102,-191 -2158,552 -2349,1654 -170,977 410,1955 1346,2271"/>
  <path fill="none" fill-opacity="0.501961" stroke="#000001" stroke-width="588.369" stroke-linecap="square" stroke-linejoin="round" stroke-opacity="0.501961" d="M2587 5329c0,-305 248,-552 554,-552 306,0 554,247 554,552 0,305 -248,552 -554,552 -306,0 -554,-247 -554,-552z"/>
  <polygon fill="#DE4BC9" fill-opacity="0.501961" stroke="#DE4BC9" stroke-width="89.6495" stroke-linecap="square" stroke-linejoin="round" stroke-opacity="0.501961" points="7443,5701 7019,5701 7019,5226 7443,5226 "/>
  <polygon fill="#DE4BC9" fill-opacity="0.501961" stroke="#DE4BC9" stroke-width="89.6495" stroke-linecap="square" stroke-linejoin="round" stroke-opacity="0.501961" points="8599,1324 8599,1439 8586,1555 8560,1670 8522,1773 8483,1876 8431,1978 8367,2068 8304,2171 8085,2428 7918,2646 7802,2800 7739,2915 7674,3069 7610,3236 7558,3429 7520,3634 7482,3840 7456,4070 7443,4314 7443,4571 7019,4571 7019,4070 7019,3891 7032,3738 7058,3570 7097,3416 7134,3262 7187,3108 7251,2954 7315,2812 7392,2671 7520,2493 7674,2273 7867,1991 8008,1799 8098,1619 8149,1465 8175,1324 8175,1208 8163,1093 8149,1002 8123,912 8085,835 8047,758 8008,694 7956,630 7905,591 7829,540 7764,502 7687,476 7597,450 7495,437 7392,424 7289,424 7187,424 7097,437 7007,463 6917,489 6840,515 6775,553 6711,604 6647,656 6582,758 6519,874 6455,1015 6404,1170 6018,1170 6018,1041 6044,925 6070,810 6108,708 6146,591 6210,502 6275,412 6365,322 6455,245 6544,181 6660,130 6763,78 6891,52 7019,27 7147,1 7289,1 7456,1 7597,27 7739,52 7867,91 7982,154 8098,219 8201,296 8290,386 8367,476 8418,579 8483,682 8522,797 8560,912 8573,1041 8599,1183 "/>
  <polygon fill="#000001" fill-opacity="0.501961" stroke="#000001" stroke-width="89.6495" stroke-linecap="square" stroke-linejoin="round" stroke-opacity="0.501961" points="2704,4376 3106,4415 3470,4402 3456,4674 2769,4674 "/>
 </g>
</svg>
