<?xml version="1.0" encoding="UTF-8"?>
<!DOCTYPE svg PUBLIC "-//W3C//DTD SVG 1.0//EN" "http://www.w3.org/TR/2001/REC-SVG-20010904/DTD/svg10.dtd">
<!-- Creator: CorelDRAW X6 -->
<svg xmlns="http://www.w3.org/2000/svg" xml:space="preserve" width="71px" height="67px" version="1.0" shape-rendering="geometricPrecision" text-rendering="geometricPrecision" image-rendering="optimizeQuality" fill-rule="evenodd" clip-rule="evenodd"
viewBox="0 0 7100 6757"
 xmlns:xlink="http://www.w3.org/1999/xlink">
 <g id="_0303.cgm:type:overlay">
  <metadata id="CorelCorpID_0Corel-Layer"/>
  <IC_ColorNameTable/>
  <PictureProperties/>
  <polygon fill="#000001" fill-opacity="0.501961" points="2990,6096 4,6096 4,5265 2990,5265 "/>
  <polygon fill="#000001" fill-opacity="0.501961" points="4110,5265 7096,5265 7096,6096 4110,6096 "/>
  <polyline fill="none" fill-opacity="0.501961" stroke="#000001" stroke-width="830.379" stroke-linecap="round" stroke-linejoin="round" stroke-opacity="0.501961" points="4769,415 4620,500 4392,639 4169,788 3950,946 3736,1113 3527,1288 3323,1473 3125,1665 2932,1866 2745,2075 2565,2292 2391,2516 2223,2747 2063,2985 1909,3230 1763,3480 1624,3737 1492,4000 1368,4268 1252,4541 1144,4818 953,5386 "/>
  <path fill="none" fill-opacity="0.501961" stroke="#000001" stroke-width="593.229" stroke-linecap="square" stroke-linejoin="round" stroke-opacity="0.501961" d="M4330 5681c0,-431 -349,-780 -780,-780 -431,0 -780,349 -780,780 0,431 349,780 780,780 431,0 780,-349 780,-780z"/>
  <path fill="none" fill-opacity="0.501961" stroke="#000001" stroke-width="593.229" stroke-linecap="square" stroke-linejoin="round" stroke-opacity="0.501961" d="M4330 5681c0,-431 -349,-780 -780,-780 -431,0 -780,349 -780,780 0,431 349,780 780,780 431,0 780,-349 780,-780z"/>
  <polyline fill="none" fill-opacity="0.501961" stroke="#000001" stroke-width="830.379" stroke-linecap="round" stroke-linejoin="round" stroke-opacity="0.501961" points="6415,5348 6424,5082 6424,4816 6415,4550 6396,4284 6368,4019 6331,3756 6285,3494 6230,3233 6165,2975 6092,2719 6010,2466 5919,2215 5819,1969 5710,1726 5594,1486 5469,1251 5336,1020 5045,574 "/>
 </g>
</svg>
