<?xml version="1.0" encoding="UTF-8"?>
<!DOCTYPE svg PUBLIC "-//W3C//DTD SVG 1.0//EN" "http://www.w3.org/TR/2001/REC-SVG-20010904/DTD/svg10.dtd">
<!-- Creator: CorelDRAW X6 -->
<svg xmlns="http://www.w3.org/2000/svg" xml:space="preserve" width="104px" height="69px" version="1.0" shape-rendering="geometricPrecision" text-rendering="geometricPrecision" image-rendering="optimizeQuality" fill-rule="evenodd" clip-rule="evenodd"
viewBox="0 0 10400 6910"
 xmlns:xlink="http://www.w3.org/1999/xlink">
 <g id="_0309.cgm:type:overlay">
  <metadata id="CorelCorpID_0Corel-Layer"/>
  <IC_ColorNameTable/>
  <PictureProperties/>
  <polygon fill="#000001" fill-opacity="0.501961" stroke="#000001" stroke-width="90.0443" stroke-linecap="square" stroke-linejoin="round" stroke-opacity="0.501961" points="4444,6072 1,6072 1,5364 4444,5364 "/>
  <polygon fill="#000001" fill-opacity="0.501961" stroke="#000001" stroke-width="90.0443" stroke-linecap="square" stroke-linejoin="round" stroke-opacity="0.501961" points="5956,5364 10399,5364 10399,6072 5956,6072 "/>
  <path fill="none" fill-opacity="0.501961" stroke="#000001" stroke-width="827.061" stroke-linecap="square" stroke-linejoin="round" stroke-opacity="0.501961" d="M5978 5718c0,-430 -349,-778 -778,-778 -430,0 -778,349 -778,778 0,430 349,778 778,778 430,0 778,-349 778,-778z"/>
  <polygon fill="#000001" fill-opacity="0.501961" stroke="#000001" stroke-width="90.0443" stroke-linecap="square" stroke-linejoin="round" stroke-opacity="0.501961" points="4813,2337 4813,0 5610,0 5610,2337 "/>
  <polygon fill="#000001" fill-opacity="0.501961" stroke="#000001" stroke-width="90.0443" stroke-linecap="square" stroke-linejoin="round" stroke-opacity="0.501961" points="387,5364 1532,1930 8867,1930 10011,5364 9138,5364 8263,2740 2143,2740 1268,5364 "/>
 </g>
</svg>
