<?xml version="1.0" encoding="UTF-8"?>
<!DOCTYPE svg PUBLIC "-//W3C//DTD SVG 1.0//EN" "http://www.w3.org/TR/2001/REC-SVG-20010904/DTD/svg10.dtd">
<!-- Creator: CorelDRAW X6 -->
<svg xmlns="http://www.w3.org/2000/svg" xml:space="preserve" width="104px" height="80px" version="1.0" shape-rendering="geometricPrecision" text-rendering="geometricPrecision" image-rendering="optimizeQuality" fill-rule="evenodd" clip-rule="evenodd"
viewBox="0 0 10400 8037"
 xmlns:xlink="http://www.w3.org/1999/xlink">
 <g id="_0310.cgm:type:overlay">
  <metadata id="CorelCorpID_0Corel-Layer"/>
  <IC_ColorNameTable/>
  <PictureProperties/>
  <polygon fill="#000001" fill-opacity="0.501961" stroke="#000001" stroke-width="89.9809" stroke-linecap="square" stroke-linejoin="round" stroke-opacity="0.501961" points="4457,7211 4,7211 4,6503 4457,6503 "/>
  <polygon fill="#000001" fill-opacity="0.501961" stroke="#000001" stroke-width="89.9809" stroke-linecap="square" stroke-linejoin="round" stroke-opacity="0.501961" points="5943,6503 10396,6503 10396,7211 5943,7211 "/>
  <path fill="none" fill-opacity="0.501961" stroke="#000001" stroke-width="826.242" stroke-linecap="square" stroke-linejoin="round" stroke-opacity="0.501961" d="M5966 6857c0,-423 -343,-766 -766,-766 -423,0 -766,343 -766,766 0,423 343,766 766,766 423,0 766,-343 766,-766z"/>
  <polygon fill="#000001" fill-opacity="0.501961" stroke="#000001" stroke-width="89.9809" stroke-linecap="square" stroke-linejoin="round" stroke-opacity="0.501961" points="4293,252 3884,961 6240,2321 6649,1613 "/>
  <polygon fill="#000001" fill-opacity="0.501961" stroke="#000001" stroke-width="89.9809" stroke-linecap="square" stroke-linejoin="round" stroke-opacity="0.501961" points="4813,3478 4813,8 5631,8 5631,3478 "/>
  <polygon fill="#000001" fill-opacity="0.501961" stroke="#000001" stroke-width="89.9809" stroke-linecap="square" stroke-linejoin="round" stroke-opacity="0.501961" points="3884,1613 4293,2321 6649,961 6240,252 "/>
  <polygon fill="#000001" fill-opacity="0.501961" stroke="#000001" stroke-width="89.9809" stroke-linecap="square" stroke-linejoin="round" stroke-opacity="0.501961" points="415,6503 1558,3073 8857,3073 10000,6503 9135,6503 8261,3881 2144,3881 1271,6503 "/>
 </g>
</svg>
