<?xml version="1.0" encoding="UTF-8"?>
<!DOCTYPE svg PUBLIC "-//W3C//DTD SVG 1.0//EN" "http://www.w3.org/TR/2001/REC-SVG-20010904/DTD/svg10.dtd">
<!-- Creator: CorelDRAW X6 -->
<svg xmlns="http://www.w3.org/2000/svg" xml:space="preserve" width="697px" height="263px" version="1.0" shape-rendering="geometricPrecision" text-rendering="geometricPrecision" image-rendering="optimizeQuality" fill-rule="evenodd" clip-rule="evenodd"
viewBox="0 0 69700 26310"
 xmlns:xlink="http://www.w3.org/1999/xlink">
 <g id="_0705.cgm:type:overlay">
  <metadata id="CorelCorpID_0Corel-Layer"/>
  <IC_ColorNameTable/>
  <PictureProperties/>
  <path fill="none" fill-opacity="0.501961" stroke="#DE4BC9" stroke-width="295.901" stroke-linecap="square" stroke-linejoin="round" stroke-opacity="0.501961" d="M4695 23832c-142,637 259,1269 896,1411 637,142 1269,-259 1411,-896 142,-637 -259,-1269 -896,-1411 -637,-142 -1269,259 -1411,896z"/>
  <path fill="none" fill-opacity="0.501961" stroke="#DE4BC9" stroke-width="295.901" stroke-linecap="square" stroke-linejoin="round" stroke-opacity="0.501961" d="M13812 20162c-374,535 -244,1272 291,1646 535,374 1272,244 1647,-292 374,-535 244,-1272 -292,-1646 -535,-374 -1272,-244 -1646,292z"/>
  <path fill="none" fill-opacity="0.501961" stroke="#DE4BC9" stroke-width="295.901" stroke-linecap="square" stroke-linejoin="round" stroke-opacity="0.501961" d="M22743 16911c-377,535 -248,1272 287,1646 535,374 1274,244 1651,-292 376,-535 248,-1272 -287,-1646 -535,-374 -1274,-244 -1651,292z"/>
  <path fill="none" fill-opacity="0.501961" stroke="#DE4BC9" stroke-width="295.901" stroke-linecap="square" stroke-linejoin="round" stroke-opacity="0.501961" d="M31653 14969c351,552 1080,715 1629,364 549,-350 711,-1082 360,-1633 -350,-552 -1080,-715 -1629,-365 -549,350 -711,1082 -360,1634z"/>
  <path fill="none" fill-opacity="0.501961" stroke="#DE4BC9" stroke-width="295.901" stroke-linecap="square" stroke-linejoin="round" stroke-opacity="0.501961" d="M40581 11719c350,552 1082,715 1634,364 552,-350 715,-1082 364,-1634 -351,-552 -1082,-715 -1634,-364 -552,351 -715,1082 -364,1634z"/>
  <path fill="none" fill-opacity="0.501961" stroke="#DE4BC9" stroke-width="295.901" stroke-linecap="square" stroke-linejoin="round" stroke-opacity="0.501961" d="M49392 8224c215,616 889,940 1505,725 616,-215 940,-889 725,-1505 -216,-616 -889,-940 -1505,-725 -616,215 -940,889 -725,1505z"/>
  <path fill="none" fill-opacity="0.501961" stroke="#DE4BC9" stroke-width="295.901" stroke-linecap="square" stroke-linejoin="round" stroke-opacity="0.501961" d="M58474 3906c-374,535 -246,1272 287,1646 533,374 1268,243 1642,-292 374,-535 245,-1272 -287,-1646 -533,-374 -1268,-244 -1642,292z"/>
  <path fill="none" fill-opacity="0.501961" stroke="#DE4BC9" stroke-width="295.901" stroke-linecap="square" stroke-linejoin="round" stroke-opacity="0.501961" d="M67385 1964c353,552 1082,715 1629,365 547,-350 705,-1082 352,-1634 -353,-552 -1082,-715 -1629,-364 -547,350 -705,1082 -352,1633z"/>
  <line fill="none" fill-opacity="0.501961" stroke="#DE4BC9" stroke-width="295.901" stroke-opacity="0.501961" x1="146" y1="26165" x2="4592" y2= "24548" />
  <line fill="none" fill-opacity="0.501961" stroke="#DE4BC9" stroke-width="295.901" stroke-opacity="0.501961" x1="9090" y1="22910" x2="13524" y2= "21298" />
  <line fill="none" fill-opacity="0.501961" stroke="#DE4BC9" stroke-width="295.901" stroke-opacity="0.501961" x1="18026" y1="19656" x2="22456" y2= "18043" />
  <line fill="none" fill-opacity="0.501961" stroke="#DE4BC9" stroke-width="295.901" stroke-opacity="0.501961" x1="26958" y1="16405" x2="31388" y2= "14793" />
  <line fill="none" fill-opacity="0.501961" stroke="#DE4BC9" stroke-width="295.901" stroke-opacity="0.501961" x1="44809" y1="9909" x2="49392" y2= "8224" />
  <line fill="none" fill-opacity="0.501961" stroke="#DE4BC9" stroke-width="295.901" stroke-opacity="0.501961" x1="53736" y1="6659" x2="58183" y2= "5038" />
  <line fill="none" fill-opacity="0.501961" stroke="#DE4BC9" stroke-width="295.901" stroke-opacity="0.501961" x1="62672" y1="3405" x2="67114" y2= "1788" />
  <line fill="none" fill-opacity="0.501961" stroke="#DE4BC9" stroke-width="295.901" stroke-opacity="0.501961" x1="35890" y1="13155" x2="40319" y2= "11543" />
 </g>
</svg>
