<?xml version="1.0" encoding="UTF-8"?>
<!DOCTYPE svg PUBLIC "-//W3C//DTD SVG 1.0//EN" "http://www.w3.org/TR/2001/REC-SVG-20010904/DTD/svg10.dtd">
<!-- Creator: CorelDRAW X6 -->
<svg xmlns="http://www.w3.org/2000/svg" xml:space="preserve" width="1825px" height="692px" version="1.0" shape-rendering="geometricPrecision" text-rendering="geometricPrecision" image-rendering="optimizeQuality" fill-rule="evenodd" clip-rule="evenodd"
viewBox="0 0 182500 69167"
 xmlns:xlink="http://www.w3.org/1999/xlink">
 <g id="_0723.cgm:type:overlay">
  <metadata id="CorelCorpID_0Corel-Layer"/>
  <IC_ColorNameTable/>
  <PictureProperties/>
  <line fill="none" fill-opacity="0.501961" stroke="#DE4BCB" stroke-width="292.325" stroke-opacity="0.501961" x1="146" y1="68829" x2="180" y2= "68818" />
  <line fill="none" fill-opacity="0.501961" stroke="#DE4BCB" stroke-width="292.325" stroke-opacity="0.501961" x1="180" y1="68818" x2="225" y2= "68807" />
  <line fill="none" fill-opacity="0.501961" stroke="#DE4BCB" stroke-width="292.325" stroke-opacity="0.501961" x1="225" y1="68807" x2="259" y2= "68785" />
  <line fill="none" fill-opacity="0.501961" stroke="#DE4BCB" stroke-width="292.325" stroke-opacity="0.501961" x1="259" y1="68785" x2="292" y2= "68773" />
  <polygon fill="#DE4BCB" fill-opacity="0.501961" points="18132,63838 15872,60421 16277,60264 17716,62557 18121,63243 18053,62489 17806,59713 18312,59533 19481,61197 19908,61815 20290,62456 20200,61646 19841,58971 20245,58825 20706,62894 20302,63052 18480,60421 18211,60106 18289,60612 18593,63670 "/>
  <polygon fill="#DE4BCB" fill-opacity="0.501961" points="14299,65232 12939,61489 14063,61073 14377,60961 14625,60927 14940,60938 15220,61017 15558,61242 15816,61512 16052,61905 16277,62366 16423,62782 16457,63130 16480,63479 16435,63793 16356,64007 16277,64209 16142,64378 15951,64569 15749,64704 15479,64805 14299,65232 14557,64659 15277,64401 15546,64299 15749,64164 15895,63996 15996,63838 16052,63580 16041,63276 16019,62928 15861,62512 15771,62242 15625,61995 15513,61804 15355,61680 15209,61556 15086,61478 14951,61410 14782,61354 14535,61377 14175,61512 13501,61759 14557,64659 "/>
  <polygon fill="#DE4BCB" fill-opacity="0.501961" points="14850,65873 14985,66244 21066,64030 20931,63659 "/>
  <polygon fill="#DE4BCB" fill-opacity="0.501961" points="41188,55453 38917,52024 39322,51878 40772,54160 41176,54857 41098,54104 40862,51327 41356,51147 42525,52811 42953,53429 43335,54070 43245,53261 42885,50585 43290,50439 43751,54508 43346,54654 41525,52035 41255,51720 41334,52226 41637,55284 "/>
  <polygon fill="#DE4BCB" fill-opacity="0.501961" points="37343,56846 35983,53092 37107,52687 37433,52575 37669,52541 37984,52552 38265,52620 38602,52856 38861,53126 39097,53519 39322,53980 39468,54396 39501,54744 39524,55093 39479,55408 39400,55621 39333,55823 39187,55992 38996,56183 38793,56318 38523,56419 37343,56846 37602,56273 38321,56015 38591,55913 38804,55779 38939,55610 39041,55453 39097,55194 39097,54890 39063,54542 38917,54126 38816,53856 38681,53609 38557,53418 38411,53294 38254,53171 38130,53092 37995,53024 37826,52968 37579,52991 37220,53126 36545,53373 37602,56273 "/>
  <polygon fill="#DE4BCB" fill-opacity="0.501961" points="37894,57487 38029,57858 44122,55644 43975,55273 "/>
  <polygon fill="#DE4BCB" fill-opacity="0.501961" points="64232,47055 61961,43638 62366,43492 63816,45774 64221,46471 64153,45718 63906,42930 64401,42750 65570,44425 65997,45043 66379,45673 66300,44875 65929,42199 66334,42053 66806,46122 66390,46268 64569,43649 64299,43323 64389,43840 64682,46898 "/>
  <polygon fill="#DE4BCB" fill-opacity="0.501961" points="60399,48460 59027,44706 60163,44301 60477,44178 60713,44155 61028,44155 61309,44234 61647,44470 61905,44740 62141,45133 62366,45583 62523,46010 62546,46358 62568,46707 62535,47022 62456,47224 62377,47438 62231,47606 62040,47797 61838,47932 61568,48033 60399,48460 60646,47887 61366,47617 61635,47528 61849,47393 61984,47213 62085,47067 62141,46808 62141,46505 62107,46156 61961,45729 61860,45470 61725,45223 61602,45032 61455,44897 61298,44773 61174,44706 61051,44627 60871,44571 60624,44605 60264,44740 59589,44987 60646,47887 "/>
  <polygon fill="#DE4BCB" fill-opacity="0.501961" points="60938,49090 61073,49472 67166,47258 67031,46875 "/>
  <polygon fill="#DE4BCB" fill-opacity="0.501961" points="87276,38669 85006,35252 85410,35106 86860,37388 87265,38074 87198,37320 86950,34544 87445,34364 88614,36028 89041,36657 89435,37287 89345,36489 88985,33802 89390,33656 89851,37736 89446,37883 87614,35263 87344,34937 87434,35443 87726,38512 "/>
  <polygon fill="#DE4BCB" fill-opacity="0.501961" points="83443,40063 82072,36320 83207,35904 83522,35792 83769,35769 84073,35769 84354,35848 84702,36084 84949,36354 85197,36736 85410,37197 85568,37624 85590,37972 85613,38321 85579,38636 85500,38838 85422,39052 85275,39220 85096,39411 84882,39546 84612,39636 83443,40063 83690,39501 84410,39232 84680,39130 84893,38995 85028,38827 85129,38669 85185,38411 85185,38119 85163,37770 85006,37343 84904,37084 84770,36837 84646,36635 84500,36511 84354,36388 84219,36320 84095,36241 83915,36185 83668,36219 83308,36343 82634,36590 83690,39501 "/>
  <polygon fill="#DE4BCB" fill-opacity="0.501961" points="83983,40704 84118,41086 90210,38861 90075,38490 "/>
  <polygon fill="#DE4BCB" fill-opacity="0.501961" points="110321,30284 108050,26866 108466,26720 109905,29002 110309,29688 110242,28935 109995,26158 110489,25978 111658,27642 112085,28260 112479,28901 112389,28092 112029,25416 112434,25270 112895,29351 112490,29497 110658,26866 110388,26552 110478,27057 110770,30115 "/>
  <polygon fill="#DE4BCB" fill-opacity="0.501961" points="106487,31678 105127,27934 106251,27518 106566,27406 106813,27372 107117,27383 107398,27462 107746,27698 107994,27968 108241,28350 108455,28811 108612,29238 108634,29587 108657,29935 108623,30250 108545,30452 108466,30655 108320,30834 108140,31014 107926,31149 107656,31250 106487,31678 106735,31104 107454,30846 107735,30745 107938,30610 108084,30441 108174,30284 108230,30025 108230,29733 108207,29384 108050,28957 107949,28699 107814,28451 107690,28249 107544,28125 107398,28002 107263,27923 107139,27856 106959,27799 106723,27833 106353,27957 105678,28204 106735,31104 "/>
  <polygon fill="#DE4BCB" fill-opacity="0.501961" points="107027,32318 107173,32689 113255,30475 113120,30104 "/>
  <polygon fill="#DE4BCB" fill-opacity="0.501961" points="133365,21898 131106,18480 131510,18334 132949,20616 133354,21302 133286,20549 133039,17772 133534,17592 134703,19256 135141,19874 135523,20515 135433,19706 135074,17030 135478,16884 135939,20953 135535,21111 133714,18480 133444,18166 133522,18672 133815,21729 "/>
  <polygon fill="#DE4BCB" fill-opacity="0.501961" points="129532,23292 128172,19548 129296,19132 129610,19020 129858,18986 130161,18998 130454,19076 130791,19312 131038,19571 131285,19964 131499,20425 131656,20841 131679,21190 131701,21549 131668,21853 131589,22066 131510,22269 131364,22449 131184,22628 130971,22763 130701,22865 129532,23292 129779,22718 130510,22460 130780,22359 130982,22224 131128,22055 131218,21898 131285,21639 131274,21347 131252,20987 131094,20571 131004,20302 130858,20054 130735,19863 130588,19739 130442,19616 130307,19537 130184,19470 130015,19413 129768,19436 129408,19571 128722,19818 129779,22718 "/>
  <polygon fill="#DE4BCB" fill-opacity="0.501961" points="130083,23932 130217,24303 136299,22089 136164,21718 "/>
  <polygon fill="#DE4BCB" fill-opacity="0.501961" points="156409,13512 154150,10083 154555,9937 155994,12219 156398,12916 156331,12163 156083,9386 156578,9207 157747,10870 158186,11488 158568,12129 158478,11320 158118,8644 158523,8498 158984,12568 158579,12714 156758,10095 156488,9780 156567,10286 156859,13343 "/>
  <polygon fill="#DE4BCB" fill-opacity="0.501961" points="152576,14906 151216,11151 152340,10747 152655,10634 152902,10600 153206,10612 153498,10679 153835,10915 154082,11185 154330,11578 154543,12039 154701,12455 154723,12804 154757,13152 154712,13467 154633,13680 154555,13883 154420,14051 154229,14243 154026,14377 153745,14479 152576,14906 152835,14332 153554,14074 153824,13973 154026,13838 154172,13669 154262,13512 154330,13253 154319,12950 154296,12601 154139,12185 154049,11916 153903,11668 153779,11477 153633,11354 153487,11230 153363,11151 153228,11084 153060,11028 152812,11050 152453,11185 151778,11432 152835,14332 "/>
  <polygon fill="#DE4BCB" fill-opacity="0.501961" points="153127,15546 153262,15917 159343,13703 159208,13332 "/>
  <polygon fill="#DE4BCB" fill-opacity="0.501961" points="179454,5115 177194,1697 177599,1551 179038,3833 179443,4530 179375,3777 179128,989 179634,809 180791,2484 181230,3103 181612,3732 181522,2934 181162,259 181567,112 182028,4182 181623,4328 179802,1709 179532,1383 179611,1900 179915,4957 "/>
  <polygon fill="#DE4BCB" fill-opacity="0.501961" points="175621,6520 174260,2765 175385,2361 175699,2237 175946,2214 176261,2226 176542,2293 176880,2529 177127,2799 177374,3192 177599,3642 177745,4069 177768,4418 177801,4766 177756,5081 177678,5283 177599,5497 177464,5666 177273,5857 177071,5992 176801,6093 175621,6520 175879,5947 176598,5688 176868,5587 177071,5452 177217,5283 177318,5126 177374,4867 177363,4564 177340,4215 177183,3800 177093,3530 176947,3282 176823,3091 176677,2968 176531,2833 176407,2765 176272,2687 176104,2630 175857,2664 175497,2799 174822,3046 175879,5947 "/>
  <polygon fill="#DE4BCB" fill-opacity="0.501961" points="176171,7149 176306,7532 182388,5317 182253,4935 "/>
  <line fill="none" fill-opacity="0.501961" stroke="#DE4BCB" stroke-width="292.325" stroke-opacity="0.501961" x1="3597" y1="65693" x2="6419" y2= "66548" />
  <line fill="none" fill-opacity="0.501961" stroke="#DE4BCB" stroke-width="292.325" stroke-opacity="0.501961" x1="6419" y1="66548" x2="4800" y2= "69021" />
  <line fill="none" fill-opacity="0.501961" stroke="#DE4BCB" stroke-width="292.325" stroke-opacity="0.501961" x1="26642" y1="57296" x2="29463" y2= "58162" />
  <line fill="none" fill-opacity="0.501961" stroke="#DE4BCB" stroke-width="292.325" stroke-opacity="0.501961" x1="29463" y1="58162" x2="27844" y2= "60635" />
  <line fill="none" fill-opacity="0.501961" stroke="#DE4BCB" stroke-width="292.325" stroke-opacity="0.501961" x1="49686" y1="48910" x2="52507" y2= "49776" />
  <line fill="none" fill-opacity="0.501961" stroke="#DE4BCB" stroke-width="292.325" stroke-opacity="0.501961" x1="52507" y1="49776" x2="50900" y2= "52249" />
  <line fill="none" fill-opacity="0.501961" stroke="#DE4BCB" stroke-width="292.325" stroke-opacity="0.501961" x1="72730" y1="40524" x2="75552" y2= "41379" />
  <line fill="none" fill-opacity="0.501961" stroke="#DE4BCB" stroke-width="292.325" stroke-opacity="0.501961" x1="75552" y1="41379" x2="73944" y2= "43852" />
  <line fill="none" fill-opacity="0.501961" stroke="#DE4BCB" stroke-width="292.325" stroke-opacity="0.501961" x1="95775" y1="32138" x2="98596" y2= "32993" />
  <line fill="none" fill-opacity="0.501961" stroke="#DE4BCB" stroke-width="292.325" stroke-opacity="0.501961" x1="98596" y1="32993" x2="96989" y2= "35466" />
  <line fill="none" fill-opacity="0.501961" stroke="#DE4BCB" stroke-width="292.325" stroke-opacity="0.501961" x1="118819" y1="23753" x2="121652" y2= "24607" />
  <line fill="none" fill-opacity="0.501961" stroke="#DE4BCB" stroke-width="292.325" stroke-opacity="0.501961" x1="121652" y1="24607" x2="120033" y2= "27080" />
  <line fill="none" fill-opacity="0.501961" stroke="#DE4BCB" stroke-width="292.325" stroke-opacity="0.501961" x1="141863" y1="15367" x2="144696" y2= "16221" />
  <line fill="none" fill-opacity="0.501961" stroke="#DE4BCB" stroke-width="292.325" stroke-opacity="0.501961" x1="144696" y1="16221" x2="143077" y2= "18694" />
  <line fill="none" fill-opacity="0.501961" stroke="#DE4BCB" stroke-width="292.325" stroke-opacity="0.501961" x1="164908" y1="6969" x2="167740" y2= "7835" />
  <line fill="none" fill-opacity="0.501961" stroke="#DE4BCB" stroke-width="292.325" stroke-opacity="0.501961" x1="167740" y1="7835" x2="166122" y2= "10308" />
  <line fill="none" fill-opacity="0.501961" stroke="#DE4BCB" stroke-width="292.325" stroke-opacity="0.501961" x1="146" y1="68829" x2="11837" y2= "64580" />
  <line fill="none" fill-opacity="0.501961" stroke="#DE4BCB" stroke-width="292.325" stroke-opacity="0.501961" x1="23191" y1="60444" x2="34881" y2= "56183" />
  <line fill="none" fill-opacity="0.501961" stroke="#DE4BCB" stroke-width="292.325" stroke-opacity="0.501961" x1="46235" y1="52058" x2="57926" y2= "47797" />
  <line fill="none" fill-opacity="0.501961" stroke="#DE4BCB" stroke-width="292.325" stroke-opacity="0.501961" x1="69279" y1="43661" x2="80970" y2= "39411" />
  <line fill="none" fill-opacity="0.501961" stroke="#DE4BCB" stroke-width="292.325" stroke-opacity="0.501961" x1="92324" y1="35275" x2="103981" y2= "31037" />
  <line fill="none" fill-opacity="0.501961" stroke="#DE4BCB" stroke-width="292.325" stroke-opacity="0.501961" x1="115379" y1="26889" x2="127025" y2= "22651" />
  <line fill="none" fill-opacity="0.501961" stroke="#DE4BCB" stroke-width="292.325" stroke-opacity="0.501961" x1="138424" y1="18503" x2="150069" y2= "14265" />
  <line fill="none" fill-opacity="0.501961" stroke="#DE4BCB" stroke-width="292.325" stroke-opacity="0.501961" x1="161468" y1="10117" x2="173114" y2= "5868" />
 </g>
</svg>
