<?xml version="1.0" encoding="UTF-8"?>
<!DOCTYPE svg PUBLIC "-//W3C//DTD SVG 1.0//EN" "http://www.w3.org/TR/2001/REC-SVG-20010904/DTD/svg10.dtd">
<!-- Creator: CorelDRAW X6 -->
<svg xmlns="http://www.w3.org/2000/svg" xml:space="preserve" width="2228px" height="813px" version="1.0" shape-rendering="geometricPrecision" text-rendering="geometricPrecision" image-rendering="optimizeQuality" fill-rule="evenodd" clip-rule="evenodd"
viewBox="0 0 222800 81280"
 xmlns:xlink="http://www.w3.org/1999/xlink">
 <g id="_0732.cgm:type:overlay">
  <metadata id="CorelCorpID_0Corel-Layer"/>
  <IC_ColorNameTable/>
  <PictureProperties/>
  <line fill="none" fill-opacity="0.501961" stroke="#969F99" stroke-width="301.898" stroke-opacity="0.501961" x1="151" y1="81129" x2="3967" y2= "79743" />
  <line fill="none" fill-opacity="0.501961" stroke="#969F99" stroke-width="301.898" stroke-opacity="0.501961" x1="5984" y1="79002" x2="9800" y2= "77616" />
  <line fill="none" fill-opacity="0.501961" stroke="#969F99" stroke-width="356.821" stroke-opacity="0.501961" x1="14206" y1="77904" x2="11378" y2= "77039" />
  <line fill="none" fill-opacity="0.501961" stroke="#969F99" stroke-width="356.821" stroke-opacity="0.501961" x1="11378" y1="77039" x2="12998" y2= "74569" />
  <polygon fill="#969F99" fill-opacity="0.501961" points="16498,76655 16429,76476 16374,76312 16333,76133 16305,75982 16292,75817 16305,75708 16305,75598 16333,75488 16374,75365 16457,75118 16607,74802 16690,74610 16758,74459 16800,74321 16827,74225 16827,74116 16813,74033 16813,73923 16772,73827 16745,73731 16704,73663 16649,73594 16594,73525 16525,73457 16457,73388 16388,73333 16305,73292 16209,73251 16127,73223 16031,73210 15949,73182 15866,73182 15770,73196 15688,73210 15592,73237 15427,73319 15304,73416 15194,73553 15111,73704 15070,73786 15057,73868 15043,73978 15029,74074 15029,74198 15043,74321 15057,74445 15084,74569 14494,74692 14453,74514 14425,74349 14411,74184 14425,74020 14425,73882 14453,73731 14494,73608 14549,73457 14617,73347 14700,73223 14782,73127 14878,73031 14988,72949 15125,72867 15262,72798 15400,72743 15564,72674 15715,72661 15880,72633 16031,72620 16182,72633 16319,72661 16457,72702 16594,72757 16717,72839 16841,72894 16937,72990 17033,73086 17129,73196 17198,73319 17266,73429 17321,73580 17362,73745 17417,73896 17417,74061 17404,74225 17362,74404 17307,74596 17225,74829 17115,75076 16978,75392 16909,75598 16882,75749 16882,75927 16923,76147 17033,76463 16498,76655 16841,77904 16594,77217 17211,76984 17472,77684 16841,77904 "/>
  <line fill="none" fill-opacity="0.501961" stroke="#969F99" stroke-width="356.821" stroke-opacity="0.501961" x1="18172" y1="72688" x2="21000" y2= "73539" />
  <line fill="none" fill-opacity="0.501961" stroke="#969F99" stroke-width="356.821" stroke-opacity="0.501961" x1="21000" y1="73539" x2="19380" y2= "76010" />
  <line fill="none" fill-opacity="0.501961" stroke="#969F99" stroke-width="301.898" stroke-opacity="0.501961" x1="22578" y1="72963" x2="26393" y2= "71576" />
  <line fill="none" fill-opacity="0.501961" stroke="#969F99" stroke-width="301.898" stroke-opacity="0.501961" x1="28411" y1="70849" x2="31993" y2= "69531" />
  <line fill="none" fill-opacity="0.501961" stroke="#969F99" stroke-width="301.898" stroke-opacity="0.501961" x1="34025" y1="68804" x2="37826" y2= "67418" />
  <line fill="none" fill-opacity="0.501961" stroke="#969F99" stroke-width="356.821" stroke-opacity="0.501961" x1="42246" y1="67692" x2="39419" y2= "66841" />
  <line fill="none" fill-opacity="0.501961" stroke="#969F99" stroke-width="356.821" stroke-opacity="0.501961" x1="39419" y1="66841" x2="41025" y2= "64371" />
  <polygon fill="#969F99" fill-opacity="0.501961" points="44538,66457 44470,66265 44415,66114 44360,65935 44346,65771 44332,65620 44346,65510 44346,65400 44373,65290 44401,65167 44497,64920 44648,64590 44730,64412 44799,64247 44826,64124 44854,64014 44867,63904 44854,63822 44840,63726 44813,63630 44771,63534 44730,63451 44689,63383 44634,63314 44566,63245 44497,63190 44415,63122 44346,63081 44250,63039 44154,63026 44071,62998 43975,62985 43893,62971 43811,62985 43715,62998 43632,63039 43468,63108 43344,63218 43234,63341 43138,63506 43111,63588 43083,63657 43083,63767 43070,63863 43070,63986 43083,64110 43083,64233 43124,64371 42521,64494 42493,64316 42466,64137 42452,63986 42452,63822 42466,63671 42493,63520 42534,63396 42589,63259 42658,63135 42726,63026 42822,62916 42919,62833 43028,62737 43152,62655 43289,62586 43440,62532 43605,62477 43756,62449 43907,62436 44071,62422 44222,62436 44346,62449 44497,62490 44634,62545 44758,62628 44867,62696 44964,62779 45073,62888 45156,62998 45238,63108 45307,63232 45362,63369 45403,63534 45444,63698 45458,63849 45430,64028 45403,64192 45348,64398 45252,64618 45156,64879 45019,65194 44936,65400 44922,65551 44922,65729 44964,65949 45060,66265 44538,66457 44881,67706 44634,67006 45252,66786 45513,67473 44881,67706 "/>
  <line fill="none" fill-opacity="0.501961" stroke="#969F99" stroke-width="356.821" stroke-opacity="0.501961" x1="46213" y1="62477" x2="49040" y2= "63341" />
  <line fill="none" fill-opacity="0.501961" stroke="#969F99" stroke-width="356.821" stroke-opacity="0.501961" x1="49040" y1="63341" x2="47420" y2= "65812" />
  <line fill="none" fill-opacity="0.501961" stroke="#969F99" stroke-width="301.898" stroke-opacity="0.501961" x1="50618" y1="62765" x2="54434" y2= "61379" />
  <line fill="none" fill-opacity="0.501961" stroke="#969F99" stroke-width="301.898" stroke-opacity="0.501961" x1="56452" y1="60638" x2="60034" y2= "59334" />
  <line fill="none" fill-opacity="0.501961" stroke="#969F99" stroke-width="301.898" stroke-opacity="0.501961" x1="62051" y1="58592" x2="65867" y2= "57206" />
  <line fill="none" fill-opacity="0.501961" stroke="#969F99" stroke-width="356.821" stroke-opacity="0.501961" x1="70273" y1="57494" x2="67445" y2= "56630" />
  <line fill="none" fill-opacity="0.501961" stroke="#969F99" stroke-width="356.821" stroke-opacity="0.501961" x1="67445" y1="56630" x2="69065" y2= "54159" />
  <polygon fill="#969F99" fill-opacity="0.501961" points="72579,56245 72510,56067 72455,55902 72400,55724 72373,55573 72373,55422 72373,55312 72386,55202 72400,55079 72441,54955 72524,54708 72688,54393 72757,54200 72839,54049 72867,53912 72894,53816 72908,53706 72880,53624 72880,53514 72853,53418 72812,53322 72771,53253 72729,53185 72675,53116 72592,53048 72524,52979 72455,52924 72373,52883 72277,52842 72194,52814 72112,52800 72016,52773 71933,52773 71851,52787 71755,52800 71673,52828 71508,52910 71384,53006 71261,53144 71179,53294 71151,53377 71124,53459 71124,53569 71110,53665 71096,53789 71110,53912 71124,54036 71151,54159 70561,54283 70520,54104 70492,53940 70492,53775 70492,53610 70506,53473 70534,53322 70561,53198 70630,53048 70698,52938 70767,52828 70849,52718 70945,52622 71069,52540 71192,52457 71329,52389 71467,52334 71645,52265 71796,52251 71947,52224 72098,52210 72249,52224 72386,52251 72524,52293 72661,52347 72784,52430 72908,52485 73004,52581 73114,52677 73196,52787 73265,52910 73347,53020 73402,53171 73443,53336 73484,53487 73498,53651 73471,53816 73443,53995 73388,54187 73292,54420 73182,54667 73045,54983 72977,55189 72949,55340 72949,55518 73004,55738 73100,56053 72579,56245 72922,57494 72661,56808 73292,56575 73539,57275 72922,57494 "/>
  <line fill="none" fill-opacity="0.501961" stroke="#969F99" stroke-width="356.821" stroke-opacity="0.501961" x1="74239" y1="52279" x2="77067" y2= "53130" />
  <line fill="none" fill-opacity="0.501961" stroke="#969F99" stroke-width="356.821" stroke-opacity="0.501961" x1="77067" y1="53130" x2="75461" y2= "55600" />
  <line fill="none" fill-opacity="0.501961" stroke="#969F99" stroke-width="301.898" stroke-opacity="0.501961" x1="78659" y1="52553" x2="82461" y2= "51167" />
  <line fill="none" fill-opacity="0.501961" stroke="#969F99" stroke-width="301.898" stroke-opacity="0.501961" x1="84478" y1="50440" x2="88074" y2= "49122" />
  <line fill="none" fill-opacity="0.501961" stroke="#969F99" stroke-width="301.898" stroke-opacity="0.501961" x1="90092" y1="48395" x2="93907" y2= "47008" />
  <line fill="none" fill-opacity="0.501961" stroke="#969F99" stroke-width="356.821" stroke-opacity="0.501961" x1="98313" y1="47283" x2="95486" y2= "46432" />
  <line fill="none" fill-opacity="0.501961" stroke="#969F99" stroke-width="356.821" stroke-opacity="0.501961" x1="95486" y1="46432" x2="97105" y2= "43962" />
  <polygon fill="#969F99" fill-opacity="0.501961" points="100605,46048 100537,45856 100482,45705 100441,45526 100413,45375 100399,45210 100413,45101 100427,44991 100441,44881 100482,44757 100564,44511 100715,44181 100797,44003 100866,43852 100907,43714 100935,43605 100935,43495 100921,43412 100921,43316 100880,43220 100852,43124 100811,43042 100756,42973 100701,42905 100633,42836 100564,42781 100495,42712 100413,42671 100317,42630 100235,42616 100139,42589 100056,42575 99974,42562 99878,42575 99795,42603 99699,42630 99535,42699 99411,42809 99301,42932 99219,43097 99178,43179 99164,43248 99150,43358 99137,43454 99137,43577 99150,43701 99164,43824 99192,43962 98601,44085 98560,43907 98533,43728 98519,43577 98533,43412 98547,43261 98560,43111 98601,42987 98656,42850 98725,42726 98807,42616 98890,42507 98986,42424 99096,42328 99233,42246 99370,42177 99507,42122 99672,42067 99837,42040 99988,42026 100139,42013 100290,42026 100427,42040 100564,42081 100701,42136 100825,42218 100948,42287 101045,42369 101141,42479 101237,42589 101305,42699 101388,42822 101429,42960 101470,43124 101525,43289 101525,43440 101511,43618 101470,43783 101415,43989 101333,44208 101223,44469 101086,44785 101017,44991 100990,45142 100990,45320 101031,45540 101141,45856 100605,46048 100948,47297 100701,46597 101333,46377 101580,47063 100948,47297 "/>
  <line fill="none" fill-opacity="0.501961" stroke="#969F99" stroke-width="356.821" stroke-opacity="0.501961" x1="102280" y1="42067" x2="105107" y2= "42932" />
  <line fill="none" fill-opacity="0.501961" stroke="#969F99" stroke-width="356.821" stroke-opacity="0.501961" x1="105107" y1="42932" x2="103488" y2= "45403" />
  <line fill="none" fill-opacity="0.501961" stroke="#969F99" stroke-width="301.898" stroke-opacity="0.501961" x1="106685" y1="42356" x2="110501" y2= "40969" />
  <line fill="none" fill-opacity="0.501961" stroke="#969F99" stroke-width="301.898" stroke-opacity="0.501961" x1="112519" y1="40228" x2="116115" y2= "38924" />
  <line fill="none" fill-opacity="0.501961" stroke="#969F99" stroke-width="301.898" stroke-opacity="0.501961" x1="118132" y1="38183" x2="121934" y2= "36797" />
  <line fill="none" fill-opacity="0.501961" stroke="#969F99" stroke-width="356.821" stroke-opacity="0.501961" x1="126354" y1="37085" x2="123526" y2= "36221" />
  <line fill="none" fill-opacity="0.501961" stroke="#969F99" stroke-width="356.821" stroke-opacity="0.501961" x1="123526" y1="36221" x2="125132" y2= "33750" />
  <polygon fill="#969F99" fill-opacity="0.501961" points="128646,35836 128577,35658 128522,35493 128467,35315 128453,35164 128440,35013 128453,34903 128453,34793 128481,34670 128522,34546 128604,34299 128755,33983 128838,33791 128906,33640 128934,33503 128961,33407 128975,33297 128961,33215 128948,33105 128920,33009 128879,32913 128838,32844 128797,32776 128742,32707 128673,32638 128604,32570 128522,32515 128453,32474 128357,32432 128261,32405 128179,32391 128097,32364 128014,32364 127918,32378 127822,32391 127740,32419 127575,32501 127452,32597 127342,32734 127246,32885 127218,32968 127204,33050 127191,33160 127177,33256 127177,33379 127191,33503 127204,33627 127232,33750 126628,33874 126601,33695 126573,33530 126559,33366 126559,33215 126573,33064 126601,32913 126642,32789 126697,32638 126765,32529 126834,32419 126930,32309 127026,32227 127136,32131 127259,32048 127397,31980 127548,31925 127712,31856 127863,31842 128014,31829 128179,31801 128330,31815 128467,31842 128604,31883 128742,31938 128865,32021 128975,32076 129085,32172 129181,32268 129263,32391 129346,32501 129414,32611 129469,32762 129510,32927 129551,33078 129565,33242 129551,33407 129510,33585 129455,33778 129359,34011 129263,34258 129126,34574 129057,34779 129030,34930 129030,35109 129071,35328 129167,35644 128646,35836 128989,37085 128742,36399 129359,36166 129620,36866 128989,37085 "/>
  <line fill="none" fill-opacity="0.501961" stroke="#969F99" stroke-width="356.821" stroke-opacity="0.501961" x1="130320" y1="31870" x2="133147" y2= "32721" />
  <line fill="none" fill-opacity="0.501961" stroke="#969F99" stroke-width="356.821" stroke-opacity="0.501961" x1="133147" y1="32721" x2="131528" y2= "35191" />
  <line fill="none" fill-opacity="0.501961" stroke="#969F99" stroke-width="301.898" stroke-opacity="0.501961" x1="134726" y1="32144" x2="138541" y2= "30758" />
  <line fill="none" fill-opacity="0.501961" stroke="#969F99" stroke-width="301.898" stroke-opacity="0.501961" x1="140559" y1="30031" x2="144141" y2= "28713" />
  <line fill="none" fill-opacity="0.501961" stroke="#969F99" stroke-width="301.898" stroke-opacity="0.501961" x1="146159" y1="27986" x2="149974" y2= "26599" />
  <line fill="none" fill-opacity="0.501961" stroke="#969F99" stroke-width="356.821" stroke-opacity="0.501961" x1="154380" y1="26874" x2="151553" y2= "26023" />
  <line fill="none" fill-opacity="0.501961" stroke="#969F99" stroke-width="356.821" stroke-opacity="0.501961" x1="151553" y1="26023" x2="153172" y2= "23552" />
  <polygon fill="#969F99" fill-opacity="0.501961" points="156686,25639 156617,25446 156562,25295 156508,25117 156480,24966 156480,24801 156480,24692 156494,24582 156521,24472 156549,24348 156645,24101 156796,23772 156864,23594 156947,23442 156974,23305 157002,23195 157015,23086 157002,23003 156988,22907 156961,22811 156919,22715 156878,22633 156837,22564 156782,22495 156713,22441 156631,22372 156562,22303 156480,22262 156398,22221 156302,22207 156219,22180 156123,22166 156041,22152 155959,22166 155863,22194 155780,22221 155615,22290 155492,22399 155382,22523 155286,22688 155259,22770 155231,22839 155231,22948 155217,23045 155204,23182 155217,23292 155231,23415 155272,23552 154668,23676 154641,23497 154600,23319 154600,23168 154600,23003 154614,22852 154641,22701 154668,22592 154737,22441 154806,22317 154874,22207 154970,22098 155066,22015 155176,21919 155300,21837 155437,21768 155574,21713 155753,21658 155904,21631 156055,21617 156206,21603 156357,21617 156494,21631 156645,21672 156768,21727 156892,21809 157015,21878 157111,21960 157221,22070 157304,22180 157386,22290 157455,22413 157510,22550 157551,22715 157592,22880 157606,23031 157578,23209 157551,23374 157496,23580 157400,23799 157304,24060 157153,24376 157084,24582 157057,24733 157057,24911 157111,25131 157208,25446 156686,25639 157029,26887 156768,26188 157400,25968 157647,26654 157029,26887 "/>
  <line fill="none" fill-opacity="0.501961" stroke="#969F99" stroke-width="356.821" stroke-opacity="0.501961" x1="158360" y1="21658" x2="161174" y2= "22523" />
  <line fill="none" fill-opacity="0.501961" stroke="#969F99" stroke-width="356.821" stroke-opacity="0.501961" x1="161174" y1="22523" x2="159568" y2= "24993" />
  <line fill="none" fill-opacity="0.501961" stroke="#969F99" stroke-width="301.898" stroke-opacity="0.501961" x1="162766" y1="21946" x2="166568" y2= "20560" />
  <line fill="none" fill-opacity="0.501961" stroke="#969F99" stroke-width="301.898" stroke-opacity="0.501961" x1="168366" y1="19901" x2="172182" y2= "18515" />
  <line fill="none" fill-opacity="0.501961" stroke="#969F99" stroke-width="301.898" stroke-opacity="0.501961" x1="174199" y1="17774" x2="178015" y2= "16388" />
  <line fill="none" fill-opacity="0.501961" stroke="#969F99" stroke-width="356.821" stroke-opacity="0.501961" x1="182421" y1="16676" x2="179593" y2= "15811" />
  <line fill="none" fill-opacity="0.501961" stroke="#969F99" stroke-width="356.821" stroke-opacity="0.501961" x1="179593" y1="15811" x2="181213" y2= "13341" />
  <polygon fill="#969F99" fill-opacity="0.501961" points="184726,15427 184658,15249 184589,15084 184548,14905 184521,14755 184521,14604 184521,14494 184534,14384 184548,14260 184589,14137 184672,13890 184836,13574 184905,13382 184987,13231 185015,13094 185042,12998 185042,12888 185028,12806 185028,12696 184987,12600 184960,12504 184919,12435 184877,12366 184809,12298 184740,12229 184672,12161 184603,12106 184521,12064 184425,12023 184342,11996 184246,11982 184164,11955 184081,11955 183985,11968 183903,11982 183821,12009 183656,12092 183519,12188 183409,12325 183326,12476 183285,12559 183272,12641 183258,12751 183244,12847 183244,12970 183258,13094 183272,13217 183299,13341 182709,13464 182668,13286 182640,13121 182640,12956 182640,12806 182654,12655 182668,12504 182709,12380 182764,12229 182846,12119 182915,12009 182997,11900 183093,11817 183203,11721 183340,11639 183478,11570 183615,11515 183793,11447 183944,11433 184095,11419 184246,11392 184397,11406 184534,11433 184672,11474 184809,11529 184932,11612 185056,11666 185152,11762 185248,11858 185344,11982 185413,12092 185495,12202 185536,12353 185591,12517 185632,12668 185632,12833 185619,12998 185591,13176 185536,13368 185440,13602 185330,13849 185193,14178 185124,14370 185097,14521 185097,14700 185152,14919 185248,15235 184726,15427 185070,16676 184809,15990 185440,15756 185687,16456 185070,16676 "/>
  <line fill="none" fill-opacity="0.501961" stroke="#969F99" stroke-width="356.821" stroke-opacity="0.501961" x1="186387" y1="11460" x2="189215" y2= "12311" />
  <line fill="none" fill-opacity="0.501961" stroke="#969F99" stroke-width="356.821" stroke-opacity="0.501961" x1="189215" y1="12311" x2="187609" y2= "14782" />
  <line fill="none" fill-opacity="0.501961" stroke="#969F99" stroke-width="301.898" stroke-opacity="0.501961" x1="190793" y1="11735" x2="194609" y2= "10349" />
  <line fill="none" fill-opacity="0.501961" stroke="#969F99" stroke-width="301.898" stroke-opacity="0.501961" x1="196407" y1="9704" x2="200222" y2= "8304" />
  <line fill="none" fill-opacity="0.501961" stroke="#969F99" stroke-width="301.898" stroke-opacity="0.501961" x1="202240" y1="7576" x2="206055" y2= "6190" />
  <line fill="none" fill-opacity="0.501961" stroke="#969F99" stroke-width="356.821" stroke-opacity="0.501961" x1="210461" y1="6465" x2="207634" y2= "5614" />
  <line fill="none" fill-opacity="0.501961" stroke="#969F99" stroke-width="356.821" stroke-opacity="0.501961" x1="207634" y1="5614" x2="209239" y2= "3143" />
  <polygon fill="#969F99" fill-opacity="0.501961" points="212753,5229 212685,5037 212630,4886 212588,4708 212561,4557 212547,4392 212561,4282 212561,4172 212588,4063 212630,3939 212712,3692 212863,3363 212945,3184 213014,3033 213041,2896 213083,2786 213083,2676 213069,2594 213069,2498 213028,2402 213000,2306 212959,2223 212904,2155 212849,2086 212781,2031 212712,1963 212643,1894 212561,1853 212465,1812 212383,1798 212286,1771 212204,1757 212122,1743 212026,1757 211930,1784 211847,1812 211683,1894 211559,1990 211449,2114 211367,2278 211326,2361 211312,2429 211298,2539 211285,2635 211285,2772 211298,2882 211312,3006 211339,3143 210749,3267 210708,3088 210681,2910 210667,2759 210681,2594 210681,2443 210708,2292 210749,2182 210804,2031 210873,1908 210941,1798 211038,1702 211134,1606 211243,1510 211381,1427 211518,1359 211655,1304 211820,1249 211971,1222 212136,1208 212286,1194 212437,1208 212575,1222 212712,1263 212849,1318 212973,1400 213096,1469 213192,1551 213288,1661 213384,1771 213453,1894 213522,2004 213577,2141 213618,2306 213659,2471 213673,2622 213659,2800 213618,2965 213563,3171 213467,3404 213371,3651 213234,3967 213165,4172 213137,4323 213137,4502 213179,4721 213288,5037 212753,5229 213096,6478 212849,5778 213467,5559 213728,6245 213096,6478 "/>
  <line fill="none" fill-opacity="0.501961" stroke="#969F99" stroke-width="356.821" stroke-opacity="0.501961" x1="214428" y1="1249" x2="217255" y2= "2114" />
  <line fill="none" fill-opacity="0.501961" stroke="#969F99" stroke-width="356.821" stroke-opacity="0.501961" x1="217255" y1="2114" x2="215635" y2= "4584" />
  <line fill="none" fill-opacity="0.501961" stroke="#969F99" stroke-width="301.898" stroke-opacity="0.501961" x1="218833" y1="1537" x2="222649" y2= "151" />
 </g>
</svg>
