<?xml version="1.0" encoding="UTF-8"?>
<!DOCTYPE svg PUBLIC "-//W3C//DTD SVG 1.0//EN" "http://www.w3.org/TR/2001/REC-SVG-20010904/DTD/svg10.dtd">
<!-- Creator: CorelDRAW X6 -->
<svg xmlns="http://www.w3.org/2000/svg" xml:space="preserve" width="50px" height="224px" version="1.0" shape-rendering="geometricPrecision" text-rendering="geometricPrecision" image-rendering="optimizeQuality" fill-rule="evenodd" clip-rule="evenodd"
viewBox="0 0 5000 22445"
 xmlns:xlink="http://www.w3.org/1999/xlink">
 <g id="_0733.cgm:type:overlay">
  <metadata id="CorelCorpID_0Corel-Layer"/>
  <IC_ColorNameTable/>
  <PictureProperties/>
  <line fill="none" fill-opacity="0.501961" stroke="#EBB7ED" stroke-width="708.818" stroke-linecap="round" stroke-linejoin="round" stroke-opacity="0.501961" x1="4645" y1="22091" x2="4645" y2= "354" />
  <line fill="none" fill-opacity="0.501961" stroke="#EBB7ED" stroke-width="708.818" stroke-linecap="round" stroke-linejoin="round" stroke-opacity="0.501961" x1="4645" y1="354" x2="355" y2= "13121" />
  <polyline fill="none" fill-opacity="0.501961" stroke="#EBB7ED" stroke-width="708.818" stroke-linecap="round" stroke-linejoin="round" stroke-opacity="0.501961" points="4645,17129 4595,16994 4512,16786 4420,16581 4322,16381 4217,16182 4105,15988 3987,15799 3861,15613 3729,15432 3591,15255 3447,15083 3298,14917 3142,14756 2980,14601 2814,14450 2643,14307 2467,14168 2285,14037 2100,13912 1909,13793 1715,13681 1518,13575 1316,13477 1111,13386 904,13302 693,13225 355,13120 "/>
 </g>
</svg>
