<?xml version="1.0" encoding="UTF-8"?>
<!DOCTYPE svg PUBLIC "-//W3C//DTD SVG 1.0//EN" "http://www.w3.org/TR/2001/REC-SVG-20010904/DTD/svg10.dtd">
<!-- Creator: CorelDRAW X6 -->
<svg xmlns="http://www.w3.org/2000/svg" xml:space="preserve" width="2857px" height="1048px" version="1.0" shape-rendering="geometricPrecision" text-rendering="geometricPrecision" image-rendering="optimizeQuality" fill-rule="evenodd" clip-rule="evenodd"
viewBox="0 0 285700 104818"
 xmlns:xlink="http://www.w3.org/1999/xlink">
 <g id="_0736.cgm:type:overlay">
  <metadata id="CorelCorpID_0Corel-Layer"/>
  <IC_ColorNameTable/>
  <PictureProperties/>
  <line fill="none" fill-opacity="0.501961" stroke="#969F99" stroke-width="296.455" stroke-opacity="0.501961" x1="139" y1="104034" x2="6801" y2= "101610" />
  <line fill="none" fill-opacity="0.501961" stroke="#969F99" stroke-width="296.455" stroke-opacity="0.501961" x1="1814" y1="103423" x2="4150" y2= "104679" />
  <line fill="none" fill-opacity="0.501961" stroke="#969F99" stroke-width="296.455" stroke-opacity="0.501961" x1="5144" y1="102220" x2="4150" y2= "104679" />
  <line fill="none" fill-opacity="0.501961" stroke="#969F99" stroke-width="296.455" stroke-opacity="0.501961" x1="9608" y1="101418" x2="14055" y2= "99814" />
  <path fill="none" fill-opacity="0.501961" stroke="#969F99" stroke-width="296.455" stroke-linecap="square" stroke-linejoin="round" stroke-opacity="0.501961" d="M16113 98698c-385,-520 -1119,-629 -1639,-244 -520,385 -630,1119 -244,1639 385,520 1119,629 1639,244 520,-385 629,-1119 244,-1639z"/>
  <line fill="none" fill-opacity="0.501961" stroke="#969F99" stroke-width="296.455" stroke-opacity="0.501961" x1="18275" y1="97425" x2="24919" y2= "95018" />
  <line fill="none" fill-opacity="0.501961" stroke="#969F99" stroke-width="296.455" stroke-opacity="0.501961" x1="19931" y1="96832" x2="22268" y2= "98087" />
  <line fill="none" fill-opacity="0.501961" stroke="#969F99" stroke-width="296.455" stroke-opacity="0.501961" x1="23262" y1="95611" x2="22268" y2= "98087" />
  <line fill="none" fill-opacity="0.501961" stroke="#969F99" stroke-width="296.455" stroke-opacity="0.501961" x1="27186" y1="94181" x2="33847" y2= "91757" />
  <line fill="none" fill-opacity="0.501961" stroke="#969F99" stroke-width="296.455" stroke-opacity="0.501961" x1="28842" y1="93588" x2="31196" y2= "94844" />
  <line fill="none" fill-opacity="0.501961" stroke="#969F99" stroke-width="296.455" stroke-opacity="0.501961" x1="32173" y1="92368" x2="31196" y2= "94844" />
  <line fill="none" fill-opacity="0.501961" stroke="#969F99" stroke-width="296.455" stroke-opacity="0.501961" x1="36393" y1="90833" x2="43054" y2= "88409" />
  <line fill="none" fill-opacity="0.501961" stroke="#969F99" stroke-width="296.455" stroke-opacity="0.501961" x1="38049" y1="90223" x2="40403" y2= "91478" />
  <line fill="none" fill-opacity="0.501961" stroke="#969F99" stroke-width="296.455" stroke-opacity="0.501961" x1="41380" y1="89020" x2="40403" y2= "91478" />
  <line fill="none" fill-opacity="0.501961" stroke="#969F99" stroke-width="296.455" stroke-opacity="0.501961" x1="45582" y1="88340" x2="50011" y2= "86718" />
  <path fill="none" fill-opacity="0.501961" stroke="#969F99" stroke-width="296.455" stroke-linecap="square" stroke-linejoin="round" stroke-opacity="0.501961" d="M52191 85794c-289,-587 -999,-829 -1587,-541 -587,289 -829,999 -541,1587 289,587 999,829 1587,541 587,-289 829,-999 541,-1587z"/>
  <line fill="none" fill-opacity="0.501961" stroke="#969F99" stroke-width="296.455" stroke-opacity="0.501961" x1="54231" y1="84346" x2="60875" y2= "81922" />
  <line fill="none" fill-opacity="0.501961" stroke="#969F99" stroke-width="296.455" stroke-opacity="0.501961" x1="55888" y1="83736" x2="58225" y2= "84992" />
  <line fill="none" fill-opacity="0.501961" stroke="#969F99" stroke-width="296.455" stroke-opacity="0.501961" x1="59219" y1="82533" x2="58225" y2= "84992" />
  <line fill="none" fill-opacity="0.501961" stroke="#969F99" stroke-width="296.455" stroke-opacity="0.501961" x1="63142" y1="81103" x2="69803" y2= "78679" />
  <line fill="none" fill-opacity="0.501961" stroke="#969F99" stroke-width="296.455" stroke-opacity="0.501961" x1="64799" y1="80493" x2="67153" y2= "81748" />
  <line fill="none" fill-opacity="0.501961" stroke="#969F99" stroke-width="296.455" stroke-opacity="0.501961" x1="68129" y1="79289" x2="67153" y2= "81748" />
  <line fill="none" fill-opacity="0.501961" stroke="#969F99" stroke-width="296.455" stroke-opacity="0.501961" x1="72053" y1="77859" x2="78714" y2= "75436" />
  <line fill="none" fill-opacity="0.501961" stroke="#969F99" stroke-width="296.455" stroke-opacity="0.501961" x1="73727" y1="77249" x2="76064" y2= "78505" />
  <line fill="none" fill-opacity="0.501961" stroke="#969F99" stroke-width="296.455" stroke-opacity="0.501961" x1="77057" y1="76029" x2="76064" y2= "78505" />
  <line fill="none" fill-opacity="0.501961" stroke="#969F99" stroke-width="296.455" stroke-opacity="0.501961" x1="81539" y1="75244" x2="85968" y2= "73640" />
  <path fill="none" fill-opacity="0.501961" stroke="#969F99" stroke-width="296.455" stroke-linecap="square" stroke-linejoin="round" stroke-opacity="0.501961" d="M86143 73953c-395,-510 -293,-1252 227,-1656 520,-405 1262,-319 1657,192 395,510 293,1252 -227,1657 -520,404 -1262,319 -1657,-192z"/>
  <line fill="none" fill-opacity="0.501961" stroke="#969F99" stroke-width="296.455" stroke-opacity="0.501961" x1="90188" y1="71251" x2="96849" y2= "68827" />
  <line fill="none" fill-opacity="0.501961" stroke="#969F99" stroke-width="296.455" stroke-opacity="0.501961" x1="91845" y1="70658" x2="94199" y2= "71913" />
  <line fill="none" fill-opacity="0.501961" stroke="#969F99" stroke-width="296.455" stroke-opacity="0.501961" x1="95175" y1="69437" x2="94199" y2= "71913" />
  <line fill="none" fill-opacity="0.501961" stroke="#969F99" stroke-width="296.455" stroke-opacity="0.501961" x1="99099" y1="68007" x2="105760" y2= "65583" />
  <line fill="none" fill-opacity="0.501961" stroke="#969F99" stroke-width="296.455" stroke-opacity="0.501961" x1="100773" y1="67414" x2="103109" y2= "68670" />
  <line fill="none" fill-opacity="0.501961" stroke="#969F99" stroke-width="296.455" stroke-opacity="0.501961" x1="104103" y1="66194" x2="103109" y2= "68670" />
  <line fill="none" fill-opacity="0.501961" stroke="#969F99" stroke-width="296.455" stroke-opacity="0.501961" x1="108027" y1="64764" x2="114671" y2= "62340" />
  <line fill="none" fill-opacity="0.501961" stroke="#969F99" stroke-width="296.455" stroke-opacity="0.501961" x1="109684" y1="64153" x2="112020" y2= "65409" />
  <line fill="none" fill-opacity="0.501961" stroke="#969F99" stroke-width="296.455" stroke-opacity="0.501961" x1="113014" y1="62950" x2="112020" y2= "65409" />
  <line fill="none" fill-opacity="0.501961" stroke="#969F99" stroke-width="296.455" stroke-opacity="0.501961" x1="117496" y1="62165" x2="121925" y2= "60544" />
  <path fill="none" fill-opacity="0.501961" stroke="#969F99" stroke-width="296.455" stroke-linecap="square" stroke-linejoin="round" stroke-opacity="0.501961" d="M122064 59480c-366,539 -225,1273 314,1639 539,366 1273,225 1639,-314 366,-539 225,-1273 -314,-1639 -539,-366 -1273,-225 -1639,314z"/>
  <line fill="none" fill-opacity="0.501961" stroke="#969F99" stroke-width="296.455" stroke-opacity="0.501961" x1="126145" y1="58172" x2="132806" y2= "55748" />
  <line fill="none" fill-opacity="0.501961" stroke="#969F99" stroke-width="296.455" stroke-opacity="0.501961" x1="127801" y1="57562" x2="130155" y2= "58817" />
  <line fill="none" fill-opacity="0.501961" stroke="#969F99" stroke-width="296.455" stroke-opacity="0.501961" x1="131132" y1="56359" x2="130155" y2= "58817" />
  <line fill="none" fill-opacity="0.501961" stroke="#969F99" stroke-width="296.455" stroke-opacity="0.501961" x1="135055" y1="54929" x2="141717" y2= "52505" />
  <line fill="none" fill-opacity="0.501961" stroke="#969F99" stroke-width="296.455" stroke-opacity="0.501961" x1="136729" y1="54318" x2="139066" y2= "55574" />
  <line fill="none" fill-opacity="0.501961" stroke="#969F99" stroke-width="296.455" stroke-opacity="0.501961" x1="140060" y1="53098" x2="139066" y2= "55574" />
  <line fill="none" fill-opacity="0.501961" stroke="#969F99" stroke-width="296.455" stroke-opacity="0.501961" x1="143983" y1="51685" x2="150627" y2= "49262" />
  <line fill="none" fill-opacity="0.501961" stroke="#969F99" stroke-width="296.455" stroke-opacity="0.501961" x1="145640" y1="51075" x2="147977" y2= "52331" />
  <line fill="none" fill-opacity="0.501961" stroke="#969F99" stroke-width="296.455" stroke-opacity="0.501961" x1="148971" y1="49855" x2="147977" y2= "52331" />
  <line fill="none" fill-opacity="0.501961" stroke="#969F99" stroke-width="296.455" stroke-opacity="0.501961" x1="153452" y1="49070" x2="157881" y2= "47448" />
  <path fill="none" fill-opacity="0.501961" stroke="#969F99" stroke-width="296.455" stroke-linecap="square" stroke-linejoin="round" stroke-opacity="0.501961" d="M160096 46629c-231,-607 -910,-911 -1517,-680 -607,231 -911,910 -680,1517 231,607 910,911 1517,680 607,-231 911,-910 680,-1517z"/>
  <line fill="none" fill-opacity="0.501961" stroke="#969F99" stroke-width="296.455" stroke-opacity="0.501961" x1="162101" y1="45077" x2="168763" y2= "42653" />
  <line fill="none" fill-opacity="0.501961" stroke="#969F99" stroke-width="296.455" stroke-opacity="0.501961" x1="163758" y1="44484" x2="166112" y2= "45739" />
  <line fill="none" fill-opacity="0.501961" stroke="#969F99" stroke-width="296.455" stroke-opacity="0.501961" x1="167088" y1="43263" x2="166112" y2= "45739" />
  <line fill="none" fill-opacity="0.501961" stroke="#969F99" stroke-width="296.455" stroke-opacity="0.501961" x1="171012" y1="41833" x2="177673" y2= "39409" />
  <line fill="none" fill-opacity="0.501961" stroke="#969F99" stroke-width="296.455" stroke-opacity="0.501961" x1="172686" y1="41223" x2="175023" y2= "42478" />
  <line fill="none" fill-opacity="0.501961" stroke="#969F99" stroke-width="296.455" stroke-opacity="0.501961" x1="176017" y1="40020" x2="175023" y2= "42478" />
  <line fill="none" fill-opacity="0.501961" stroke="#969F99" stroke-width="296.455" stroke-opacity="0.501961" x1="180219" y1="38485" x2="186880" y2= "36061" />
  <line fill="none" fill-opacity="0.501961" stroke="#969F99" stroke-width="296.455" stroke-opacity="0.501961" x1="181893" y1="37875" x2="184230" y2= "39130" />
  <line fill="none" fill-opacity="0.501961" stroke="#969F99" stroke-width="296.455" stroke-opacity="0.501961" x1="185224" y1="36672" x2="184230" y2= "39130" />
  <line fill="none" fill-opacity="0.501961" stroke="#969F99" stroke-width="296.455" stroke-opacity="0.501961" x1="189409" y1="35992" x2="193855" y2= "34370" />
  <path fill="none" fill-opacity="0.501961" stroke="#969F99" stroke-width="296.455" stroke-linecap="square" stroke-linejoin="round" stroke-opacity="0.501961" d="M196053 33533c-231,-607 -910,-903 -1517,-663 -607,241 -911,928 -680,1535 231,607 910,903 1517,663 607,-241 911,-928 680,-1535z"/>
  <line fill="none" fill-opacity="0.501961" stroke="#969F99" stroke-width="296.455" stroke-opacity="0.501961" x1="198058" y1="31998" x2="204719" y2= "29574" />
  <line fill="none" fill-opacity="0.501961" stroke="#969F99" stroke-width="296.455" stroke-opacity="0.501961" x1="199732" y1="31388" x2="202069" y2= "32643" />
  <line fill="none" fill-opacity="0.501961" stroke="#969F99" stroke-width="296.455" stroke-opacity="0.501961" x1="203045" y1="30185" x2="202069" y2= "32643" />
  <line fill="none" fill-opacity="0.501961" stroke="#969F99" stroke-width="296.455" stroke-opacity="0.501961" x1="206969" y1="28755" x2="213630" y2= "26331" />
  <line fill="none" fill-opacity="0.501961" stroke="#969F99" stroke-width="296.455" stroke-opacity="0.501961" x1="208643" y1="28145" x2="210979" y2= "29400" />
  <line fill="none" fill-opacity="0.501961" stroke="#969F99" stroke-width="296.455" stroke-opacity="0.501961" x1="211973" y1="26924" x2="210979" y2= "29400" />
  <line fill="none" fill-opacity="0.501961" stroke="#969F99" stroke-width="296.455" stroke-opacity="0.501961" x1="216176" y1="25389" x2="222837" y2= "22965" />
  <line fill="none" fill-opacity="0.501961" stroke="#969F99" stroke-width="296.455" stroke-opacity="0.501961" x1="217850" y1="24797" x2="220187" y2= "26052" />
  <line fill="none" fill-opacity="0.501961" stroke="#969F99" stroke-width="296.455" stroke-opacity="0.501961" x1="221180" y1="23576" x2="220187" y2= "26052" />
  <line fill="none" fill-opacity="0.501961" stroke="#969F99" stroke-width="296.455" stroke-opacity="0.501961" x1="225365" y1="22896" x2="229812" y2= "21274" />
  <path fill="none" fill-opacity="0.501961" stroke="#969F99" stroke-width="296.455" stroke-linecap="square" stroke-linejoin="round" stroke-opacity="0.501961" d="M231922 20263c-337,-559 -1063,-738 -1622,-401 -558,337 -738,1063 -401,1622 337,559 1063,738 1622,401 558,-337 738,-1063 401,-1622z"/>
  <line fill="none" fill-opacity="0.501961" stroke="#969F99" stroke-width="296.455" stroke-opacity="0.501961" x1="234015" y1="18902" x2="240676" y2= "16479" />
  <line fill="none" fill-opacity="0.501961" stroke="#969F99" stroke-width="296.455" stroke-opacity="0.501961" x1="235689" y1="18292" x2="238025" y2= "19548" />
  <line fill="none" fill-opacity="0.501961" stroke="#969F99" stroke-width="296.455" stroke-opacity="0.501961" x1="239019" y1="17089" x2="238025" y2= "19548" />
  <line fill="none" fill-opacity="0.501961" stroke="#969F99" stroke-width="296.455" stroke-opacity="0.501961" x1="242943" y1="15659" x2="249586" y2= "13235" />
  <line fill="none" fill-opacity="0.501961" stroke="#969F99" stroke-width="296.455" stroke-opacity="0.501961" x1="244599" y1="15049" x2="246936" y2= "16304" />
  <line fill="none" fill-opacity="0.501961" stroke="#969F99" stroke-width="296.455" stroke-opacity="0.501961" x1="247930" y1="13846" x2="246936" y2= "16304" />
  <line fill="none" fill-opacity="0.501961" stroke="#969F99" stroke-width="296.455" stroke-opacity="0.501961" x1="252132" y1="12311" x2="258794" y2= "9887" />
  <line fill="none" fill-opacity="0.501961" stroke="#969F99" stroke-width="296.455" stroke-opacity="0.501961" x1="253806" y1="11701" x2="256143" y2= "12956" />
  <line fill="none" fill-opacity="0.501961" stroke="#969F99" stroke-width="296.455" stroke-opacity="0.501961" x1="257137" y1="10498" x2="256143" y2= "12956" />
  <line fill="none" fill-opacity="0.501961" stroke="#969F99" stroke-width="296.455" stroke-opacity="0.501961" x1="261322" y1="9800" x2="265769" y2= "8196" />
  <path fill="none" fill-opacity="0.501961" stroke="#969F99" stroke-width="296.455" stroke-linecap="square" stroke-linejoin="round" stroke-opacity="0.501961" d="M267896 7184c-327,-559 -1053,-738 -1622,-401 -568,337 -763,1063 -436,1622 327,559 1053,738 1622,401 568,-337 763,-1063 436,-1622z"/>
  <line fill="none" fill-opacity="0.501961" stroke="#969F99" stroke-width="296.455" stroke-opacity="0.501961" x1="269971" y1="5824" x2="276632" y2= "3400" />
  <line fill="none" fill-opacity="0.501961" stroke="#969F99" stroke-width="296.455" stroke-opacity="0.501961" x1="271645" y1="5214" x2="273982" y2= "6469" />
  <line fill="none" fill-opacity="0.501961" stroke="#969F99" stroke-width="296.455" stroke-opacity="0.501961" x1="274976" y1="3993" x2="273982" y2= "6469" />
  <line fill="none" fill-opacity="0.501961" stroke="#969F99" stroke-width="296.455" stroke-opacity="0.501961" x1="278899" y1="2581" x2="285561" y2= "157" />
  <line fill="none" fill-opacity="0.501961" stroke="#969F99" stroke-width="296.455" stroke-opacity="0.501961" x1="280556" y1="1970" x2="282893" y2= "3226" />
  <line fill="none" fill-opacity="0.501961" stroke="#969F99" stroke-width="296.455" stroke-opacity="0.501961" x1="283887" y1="750" x2="282893" y2= "3226" />
 </g>
</svg>
