<?xml version="1.0" encoding="UTF-8"?>
<!DOCTYPE svg PUBLIC "-//W3C//DTD SVG 1.0//EN" "http://www.w3.org/TR/2001/REC-SVG-20010904/DTD/svg10.dtd">
<!-- Creator: CorelDRAW X6 -->
<svg xmlns="http://www.w3.org/2000/svg" xml:space="preserve" width="2914px" height="1069px" version="1.0" shape-rendering="geometricPrecision" text-rendering="geometricPrecision" image-rendering="optimizeQuality" fill-rule="evenodd" clip-rule="evenodd"
viewBox="0 0 291400 106886"
 xmlns:xlink="http://www.w3.org/1999/xlink">
 <g id="_0742.cgm:type:overlay">
  <metadata id="CorelCorpID_0Corel-Layer"/>
  <IC_ColorNameTable/>
  <PictureProperties/>
  <line fill="none" fill-opacity="0.501961" stroke="#DE4BC9" stroke-width="287.2" stroke-opacity="0.501961" x1="162" y1="106096" x2="6821" y2= "103673" />
  <line fill="none" fill-opacity="0.501961" stroke="#DE4BC9" stroke-width="287.2" stroke-opacity="0.501961" x1="1813" y1="105486" x2="4164" y2= "106742" />
  <line fill="none" fill-opacity="0.501961" stroke="#DE4BC9" stroke-width="287.2" stroke-opacity="0.501961" x1="5151" y1="104265" x2="4164" y2= "106742" />
  <path fill="none" fill-opacity="0.501961" stroke="#DE4BC9" stroke-width="215.4" stroke-linecap="square" stroke-linejoin="round" stroke-opacity="0.501961" d="M10769 100244c1031,-1467 3056,-1829 4523,-808 1467,1021 1821,3038 790,4505 -1031,1467 -3056,1829 -4523,808 -1467,-1021 -1821,-3038 -790,-4505z"/>
  <line fill="none" fill-opacity="0.501961" stroke="#DE4BC9" stroke-width="215.4" stroke-opacity="0.501961" x1="12726" y1="100173" x2="13695" y2= "102829" />
  <line fill="none" fill-opacity="0.501961" stroke="#DE4BC9" stroke-width="215.4" stroke-opacity="0.501961" x1="14413" y1="103511" x2="13587" y2= "103816" />
  <line fill="none" fill-opacity="0.501961" stroke="#DE4BC9" stroke-width="287.2" stroke-opacity="0.501961" x1="19223" y1="99150" x2="25882" y2= "96727" />
  <line fill="none" fill-opacity="0.501961" stroke="#DE4BC9" stroke-width="287.2" stroke-opacity="0.501961" x1="20875" y1="98539" x2="23226" y2= "99796" />
  <line fill="none" fill-opacity="0.501961" stroke="#DE4BC9" stroke-width="287.2" stroke-opacity="0.501961" x1="24213" y1="97337" x2="23226" y2= "99796" />
  <line fill="none" fill-opacity="0.501961" stroke="#DE4BC9" stroke-width="287.2" stroke-opacity="0.501961" x1="28018" y1="95955" x2="34677" y2= "93532" />
  <line fill="none" fill-opacity="0.501961" stroke="#DE4BC9" stroke-width="287.2" stroke-opacity="0.501961" x1="29669" y1="95344" x2="32021" y2= "96601" />
  <line fill="none" fill-opacity="0.501961" stroke="#DE4BC9" stroke-width="287.2" stroke-opacity="0.501961" x1="33008" y1="94142" x2="32021" y2= "96601" />
  <line fill="none" fill-opacity="0.501961" stroke="#DE4BC9" stroke-width="287.2" stroke-opacity="0.501961" x1="36813" y1="92742" x2="43472" y2= "90319" />
  <line fill="none" fill-opacity="0.501961" stroke="#DE4BC9" stroke-width="287.2" stroke-opacity="0.501961" x1="38482" y1="92149" x2="40816" y2= "93406" />
  <line fill="none" fill-opacity="0.501961" stroke="#DE4BC9" stroke-width="287.2" stroke-opacity="0.501961" x1="41803" y1="90929" x2="40816" y2= "93406" />
  <path fill="none" fill-opacity="0.501961" stroke="#DE4BC9" stroke-width="215.4" stroke-linecap="square" stroke-linejoin="round" stroke-opacity="0.501961" d="M52680 86801c-1080,-1427 -3122,-1709 -4559,-628 -1437,1081 -1727,3114 -646,4541 1080,1427 3122,1709 4559,628 1437,-1080 1727,-3114 646,-4541z"/>
  <line fill="none" fill-opacity="0.501961" stroke="#DE4BC9" stroke-width="215.4" stroke-opacity="0.501961" x1="49377" y1="86819" x2="50347" y2= "89493" />
  <line fill="none" fill-opacity="0.501961" stroke="#DE4BC9" stroke-width="215.4" stroke-opacity="0.501961" x1="51065" y1="90175" x2="50239" y2= "90480" />
  <line fill="none" fill-opacity="0.501961" stroke="#DE4BC9" stroke-width="287.2" stroke-opacity="0.501961" x1="55875" y1="85814" x2="62534" y2= "83390" />
  <line fill="none" fill-opacity="0.501961" stroke="#DE4BC9" stroke-width="287.2" stroke-opacity="0.501961" x1="57526" y1="85203" x2="59878" y2= "86460" />
  <line fill="none" fill-opacity="0.501961" stroke="#DE4BC9" stroke-width="287.2" stroke-opacity="0.501961" x1="60865" y1="84001" x2="59878" y2= "86460" />
  <line fill="none" fill-opacity="0.501961" stroke="#DE4BC9" stroke-width="287.2" stroke-opacity="0.501961" x1="64670" y1="82619" x2="71329" y2= "80196" />
  <line fill="none" fill-opacity="0.501961" stroke="#DE4BC9" stroke-width="287.2" stroke-opacity="0.501961" x1="66339" y1="82008" x2="68672" y2= "83265" />
  <line fill="none" fill-opacity="0.501961" stroke="#DE4BC9" stroke-width="287.2" stroke-opacity="0.501961" x1="69660" y1="80788" x2="68672" y2= "83265" />
  <line fill="none" fill-opacity="0.501961" stroke="#DE4BC9" stroke-width="287.2" stroke-opacity="0.501961" x1="73465" y1="79406" x2="80124" y2= "76983" />
  <line fill="none" fill-opacity="0.501961" stroke="#DE4BC9" stroke-width="287.2" stroke-opacity="0.501961" x1="75134" y1="78796" x2="77467" y2= "80052" />
  <line fill="none" fill-opacity="0.501961" stroke="#DE4BC9" stroke-width="287.2" stroke-opacity="0.501961" x1="78455" y1="77593" x2="77467" y2= "80052" />
  <path fill="none" fill-opacity="0.501961" stroke="#DE4BC9" stroke-width="215.4" stroke-linecap="square" stroke-linejoin="round" stroke-opacity="0.501961" d="M89331 73465c-1071,-1437 -3104,-1727 -4541,-646 -1437,1080 -1735,3122 -664,4559 1071,1437 3104,1727 4541,646 1437,-1080 1735,-3122 664,-4559z"/>
  <line fill="none" fill-opacity="0.501961" stroke="#DE4BC9" stroke-width="215.4" stroke-opacity="0.501961" x1="86029" y1="73483" x2="86998" y2= "76157" />
  <line fill="none" fill-opacity="0.501961" stroke="#DE4BC9" stroke-width="215.4" stroke-opacity="0.501961" x1="87716" y1="76839" x2="86890" y2= "77126" />
  <line fill="none" fill-opacity="0.501961" stroke="#DE4BC9" stroke-width="287.2" stroke-opacity="0.501961" x1="92527" y1="72478" x2="99186" y2= "70054" />
  <line fill="none" fill-opacity="0.501961" stroke="#DE4BC9" stroke-width="287.2" stroke-opacity="0.501961" x1="94196" y1="71867" x2="96529" y2= "73124" />
  <line fill="none" fill-opacity="0.501961" stroke="#DE4BC9" stroke-width="287.2" stroke-opacity="0.501961" x1="97516" y1="70647" x2="96529" y2= "73124" />
  <line fill="none" fill-opacity="0.501961" stroke="#DE4BC9" stroke-width="287.2" stroke-opacity="0.501961" x1="101321" y1="69265" x2="107980" y2= "66842" />
  <line fill="none" fill-opacity="0.501961" stroke="#DE4BC9" stroke-width="287.2" stroke-opacity="0.501961" x1="102991" y1="68672" x2="105324" y2= "69911" />
  <line fill="none" fill-opacity="0.501961" stroke="#DE4BC9" stroke-width="287.2" stroke-opacity="0.501961" x1="106311" y1="67452" x2="105324" y2= "69911" />
  <line fill="none" fill-opacity="0.501961" stroke="#DE4BC9" stroke-width="287.2" stroke-opacity="0.501961" x1="110116" y1="66070" x2="116775" y2= "63647" />
  <line fill="none" fill-opacity="0.501961" stroke="#DE4BC9" stroke-width="287.2" stroke-opacity="0.501961" x1="111786" y1="65460" x2="114119" y2= "66716" />
  <line fill="none" fill-opacity="0.501961" stroke="#DE4BC9" stroke-width="287.2" stroke-opacity="0.501961" x1="115106" y1="64257" x2="114119" y2= "66716" />
  <path fill="none" fill-opacity="0.501961" stroke="#DE4BC9" stroke-width="215.4" stroke-linecap="square" stroke-linejoin="round" stroke-opacity="0.501961" d="M120150 61942c69,-1794 1580,-3184 3374,-3105 1794,79 3192,1598 3123,3392 -69,1794 -1580,3184 -3374,3105 -1794,-79 -3192,-1598 -3123,-3392z"/>
  <line fill="none" fill-opacity="0.501961" stroke="#DE4BC9" stroke-width="215.4" stroke-opacity="0.501961" x1="122681" y1="60147" x2="123650" y2= "62803" />
  <line fill="none" fill-opacity="0.501961" stroke="#DE4BC9" stroke-width="215.4" stroke-opacity="0.501961" x1="124368" y1="63485" x2="123542" y2= "63790" />
  <line fill="none" fill-opacity="0.501961" stroke="#DE4BC9" stroke-width="287.2" stroke-opacity="0.501961" x1="129178" y1="59124" x2="135837" y2= "56700" />
  <line fill="none" fill-opacity="0.501961" stroke="#DE4BC9" stroke-width="287.2" stroke-opacity="0.501961" x1="130847" y1="58531" x2="133181" y2= "59788" />
  <line fill="none" fill-opacity="0.501961" stroke="#DE4BC9" stroke-width="287.2" stroke-opacity="0.501961" x1="134168" y1="57311" x2="133181" y2= "59788" />
  <line fill="none" fill-opacity="0.501961" stroke="#DE4BC9" stroke-width="287.2" stroke-opacity="0.501961" x1="137973" y1="55929" x2="144632" y2= "53506" />
  <line fill="none" fill-opacity="0.501961" stroke="#DE4BC9" stroke-width="287.2" stroke-opacity="0.501961" x1="139642" y1="55318" x2="141976" y2= "56575" />
  <line fill="none" fill-opacity="0.501961" stroke="#DE4BC9" stroke-width="287.2" stroke-opacity="0.501961" x1="142963" y1="54116" x2="141976" y2= "56575" />
  <line fill="none" fill-opacity="0.501961" stroke="#DE4BC9" stroke-width="287.2" stroke-opacity="0.501961" x1="146768" y1="52734" x2="153427" y2= "50311" />
  <line fill="none" fill-opacity="0.501961" stroke="#DE4BC9" stroke-width="287.2" stroke-opacity="0.501961" x1="148437" y1="52124" x2="150771" y2= "53380" />
  <line fill="none" fill-opacity="0.501961" stroke="#DE4BC9" stroke-width="287.2" stroke-opacity="0.501961" x1="151758" y1="50903" x2="150771" y2= "53380" />
  <path fill="none" fill-opacity="0.501961" stroke="#DE4BC9" stroke-width="215.4" stroke-linecap="square" stroke-linejoin="round" stroke-opacity="0.501961" d="M156801 48606c69,-1784 1580,-3175 3374,-3105 1794,69 3192,1572 3123,3356 -69,1784 -1580,3175 -3374,3105 -1794,-69 -3192,-1572 -3123,-3356z"/>
  <line fill="none" fill-opacity="0.501961" stroke="#DE4BC9" stroke-width="215.4" stroke-opacity="0.501961" x1="159332" y1="46811" x2="160301" y2= "49467" />
  <line fill="none" fill-opacity="0.501961" stroke="#DE4BC9" stroke-width="215.4" stroke-opacity="0.501961" x1="161037" y1="50149" x2="160194" y2= "50454" />
  <line fill="none" fill-opacity="0.501961" stroke="#DE4BC9" stroke-width="287.2" stroke-opacity="0.501961" x1="165830" y1="45788" x2="172489" y2= "43365" />
  <line fill="none" fill-opacity="0.501961" stroke="#DE4BC9" stroke-width="287.2" stroke-opacity="0.501961" x1="167499" y1="45177" x2="169832" y2= "46434" />
  <line fill="none" fill-opacity="0.501961" stroke="#DE4BC9" stroke-width="287.2" stroke-opacity="0.501961" x1="170819" y1="43975" x2="169832" y2= "46434" />
  <line fill="none" fill-opacity="0.501961" stroke="#DE4BC9" stroke-width="287.2" stroke-opacity="0.501961" x1="174625" y1="42593" x2="181284" y2= "40170" />
  <line fill="none" fill-opacity="0.501961" stroke="#DE4BC9" stroke-width="287.2" stroke-opacity="0.501961" x1="176294" y1="41983" x2="178627" y2= "43239" />
  <line fill="none" fill-opacity="0.501961" stroke="#DE4BC9" stroke-width="287.2" stroke-opacity="0.501961" x1="179614" y1="40762" x2="178627" y2= "43239" />
  <line fill="none" fill-opacity="0.501961" stroke="#DE4BC9" stroke-width="287.2" stroke-opacity="0.501961" x1="183420" y1="39380" x2="190079" y2= "36957" />
  <line fill="none" fill-opacity="0.501961" stroke="#DE4BC9" stroke-width="287.2" stroke-opacity="0.501961" x1="185089" y1="38788" x2="187422" y2= "40044" />
  <line fill="none" fill-opacity="0.501961" stroke="#DE4BC9" stroke-width="287.2" stroke-opacity="0.501961" x1="188409" y1="37567" x2="187422" y2= "40044" />
  <path fill="none" fill-opacity="0.501961" stroke="#DE4BC9" stroke-width="215.4" stroke-linecap="square" stroke-linejoin="round" stroke-opacity="0.501961" d="M193453 35270c69,-1794 1580,-3192 3374,-3123 1794,69 3192,1580 3123,3374 -69,1794 -1580,3193 -3374,3123 -1794,-69 -3192,-1580 -3123,-3374z"/>
  <line fill="none" fill-opacity="0.501961" stroke="#DE4BC9" stroke-width="215.4" stroke-opacity="0.501961" x1="196002" y1="33457" x2="196971" y2= "36131" />
  <line fill="none" fill-opacity="0.501961" stroke="#DE4BC9" stroke-width="215.4" stroke-opacity="0.501961" x1="197689" y1="36813" x2="196845" y2= "37118" />
  <line fill="none" fill-opacity="0.501961" stroke="#DE4BC9" stroke-width="287.2" stroke-opacity="0.501961" x1="202481" y1="32452" x2="209140" y2= "30029" />
  <line fill="none" fill-opacity="0.501961" stroke="#DE4BC9" stroke-width="287.2" stroke-opacity="0.501961" x1="204151" y1="31841" x2="206484" y2= "33098" />
  <line fill="none" fill-opacity="0.501961" stroke="#DE4BC9" stroke-width="287.2" stroke-opacity="0.501961" x1="207471" y1="30639" x2="206484" y2= "33098" />
  <line fill="none" fill-opacity="0.501961" stroke="#DE4BC9" stroke-width="287.2" stroke-opacity="0.501961" x1="211276" y1="29239" x2="217935" y2= "26816" />
  <line fill="none" fill-opacity="0.501961" stroke="#DE4BC9" stroke-width="287.2" stroke-opacity="0.501961" x1="212945" y1="28646" x2="215279" y2= "29903" />
  <line fill="none" fill-opacity="0.501961" stroke="#DE4BC9" stroke-width="287.2" stroke-opacity="0.501961" x1="216266" y1="27426" x2="215279" y2= "29903" />
  <line fill="none" fill-opacity="0.501961" stroke="#DE4BC9" stroke-width="287.2" stroke-opacity="0.501961" x1="220071" y1="26044" x2="226730" y2= "23621" />
  <line fill="none" fill-opacity="0.501961" stroke="#DE4BC9" stroke-width="287.2" stroke-opacity="0.501961" x1="221740" y1="25434" x2="224092" y2= "26690" />
  <line fill="none" fill-opacity="0.501961" stroke="#DE4BC9" stroke-width="287.2" stroke-opacity="0.501961" x1="225079" y1="24231" x2="224092" y2= "26690" />
  <path fill="none" fill-opacity="0.501961" stroke="#DE4BC9" stroke-width="215.4" stroke-linecap="square" stroke-linejoin="round" stroke-opacity="0.501961" d="M230105 21934c69,-1794 1580,-3193 3374,-3123 1794,69 3193,1580 3123,3374 -69,1794 -1580,3192 -3374,3123 -1794,-69 -3193,-1580 -3123,-3374z"/>
  <line fill="none" fill-opacity="0.501961" stroke="#DE4BC9" stroke-width="215.4" stroke-opacity="0.501961" x1="232653" y1="20121" x2="233623" y2= "22795" />
  <line fill="none" fill-opacity="0.501961" stroke="#DE4BC9" stroke-width="215.4" stroke-opacity="0.501961" x1="234341" y1="23459" x2="233497" y2= "23764" />
  <line fill="none" fill-opacity="0.501961" stroke="#DE4BC9" stroke-width="287.2" stroke-opacity="0.501961" x1="239133" y1="19116" x2="245792" y2= "16693" />
  <line fill="none" fill-opacity="0.501961" stroke="#DE4BC9" stroke-width="287.2" stroke-opacity="0.501961" x1="240802" y1="18505" x2="243136" y2= "19762" />
  <line fill="none" fill-opacity="0.501961" stroke="#DE4BC9" stroke-width="287.2" stroke-opacity="0.501961" x1="244123" y1="17285" x2="243136" y2= "19762" />
  <line fill="none" fill-opacity="0.501961" stroke="#DE4BC9" stroke-width="287.2" stroke-opacity="0.501961" x1="247928" y1="15903" x2="254587" y2= "13480" />
  <line fill="none" fill-opacity="0.501961" stroke="#DE4BC9" stroke-width="287.2" stroke-opacity="0.501961" x1="249597" y1="15292" x2="251948" y2= "16549" />
  <line fill="none" fill-opacity="0.501961" stroke="#DE4BC9" stroke-width="287.2" stroke-opacity="0.501961" x1="252936" y1="14090" x2="251948" y2= "16549" />
  <line fill="none" fill-opacity="0.501961" stroke="#DE4BC9" stroke-width="287.2" stroke-opacity="0.501961" x1="257028" y1="12600" x2="263687" y2= "10177" />
  <line fill="none" fill-opacity="0.501961" stroke="#DE4BC9" stroke-width="287.2" stroke-opacity="0.501961" x1="258697" y1="11990" x2="261030" y2= "13246" />
  <line fill="none" fill-opacity="0.501961" stroke="#DE4BC9" stroke-width="287.2" stroke-opacity="0.501961" x1="262018" y1="10787" x2="261030" y2= "13246" />
  <path fill="none" fill-opacity="0.501961" stroke="#DE4BC9" stroke-width="215.4" stroke-linecap="square" stroke-linejoin="round" stroke-opacity="0.501961" d="M266756 8580c69,-1794 1580,-3184 3374,-3105 1794,79 3193,1598 3123,3392 -69,1794 -1580,3184 -3374,3105 -1794,-79 -3193,-1598 -3123,-3392z"/>
  <line fill="none" fill-opacity="0.501961" stroke="#DE4BC9" stroke-width="215.4" stroke-opacity="0.501961" x1="269305" y1="6785" x2="270274" y2= "9441" />
  <line fill="none" fill-opacity="0.501961" stroke="#DE4BC9" stroke-width="215.4" stroke-opacity="0.501961" x1="270992" y1="10123" x2="270149" y2= "10428" />
  <line fill="none" fill-opacity="0.501961" stroke="#DE4BC9" stroke-width="287.2" stroke-opacity="0.501961" x1="275785" y1="5762" x2="282444" y2= "3339" />
  <line fill="none" fill-opacity="0.501961" stroke="#DE4BC9" stroke-width="287.2" stroke-opacity="0.501961" x1="277454" y1="5169" x2="279805" y2= "6408" />
  <line fill="none" fill-opacity="0.501961" stroke="#DE4BC9" stroke-width="287.2" stroke-opacity="0.501961" x1="280792" y1="3949" x2="279805" y2= "6408" />
  <line fill="none" fill-opacity="0.501961" stroke="#DE4BC9" stroke-width="287.2" stroke-opacity="0.501961" x1="284597" y1="2567" x2="291238" y2= "144" />
  <line fill="none" fill-opacity="0.501961" stroke="#DE4BC9" stroke-width="287.2" stroke-opacity="0.501961" x1="286249" y1="1956" x2="288600" y2= "3213" />
  <line fill="none" fill-opacity="0.501961" stroke="#DE4BC9" stroke-width="287.2" stroke-opacity="0.501961" x1="289587" y1="754" x2="288600" y2= "3213" />
 </g>
</svg>
