<?xml version="1.0" encoding="UTF-8"?>
<!DOCTYPE svg PUBLIC "-//W3C//DTD SVG 1.0//EN" "http://www.w3.org/TR/2001/REC-SVG-20010904/DTD/svg10.dtd">
<!-- Creator: CorelDRAW X6 -->
<svg xmlns="http://www.w3.org/2000/svg" xml:space="preserve" width="91px" height="61px" version="1.0" shape-rendering="geometricPrecision" text-rendering="geometricPrecision" image-rendering="optimizeQuality" fill-rule="evenodd" clip-rule="evenodd"
viewBox="0 0 9100 6172"
 xmlns:xlink="http://www.w3.org/1999/xlink">
 <g id="_0759.cgm:type:overlay">
  <metadata id="CorelCorpID_0Corel-Layer"/>
  <IC_ColorNameTable/>
  <PictureProperties/>
  <line fill="none" fill-opacity="0.501961" stroke="#6AFF60" stroke-width="711.794" stroke-opacity="0.501961" x1="356" y1="3305" x2="8459" y2= "356" />
  <path fill="#6AFF60" fill-opacity="0.501961" stroke="#6AFF60" stroke-width="90.428" stroke-linecap="square" stroke-linejoin="round" stroke-opacity="0.501961" d="M784 3781c-23,-61 -91,-93 -152,-71 -62,22 -93,90 -70,151 23,61 91,93 153,71 62,-22 93,-90 70,-151z"/>
  <path fill="#6AFF60" fill-opacity="0.501961" stroke="#6AFF60" stroke-width="90.428" stroke-linecap="square" stroke-linejoin="round" stroke-opacity="0.501961" d="M987 4338c-22,-62 -90,-93 -152,-71 -62,22 -94,90 -71,152 22,62 90,94 152,71 62,-22 94,-90 71,-152z"/>
  <path fill="#6AFF60" fill-opacity="0.501961" stroke="#6AFF60" stroke-width="90.428" stroke-linecap="square" stroke-linejoin="round" stroke-opacity="0.501961" d="M1190 4896c-22,-62 -90,-94 -152,-71 -62,22 -94,90 -71,152 22,62 90,94 152,71 62,-22 94,-90 71,-152z"/>
  <path fill="#6AFF60" fill-opacity="0.501961" stroke="#6AFF60" stroke-width="90.428" stroke-linecap="square" stroke-linejoin="round" stroke-opacity="0.501961" d="M1393 5454c-23,-62 -91,-94 -153,-71 -62,22 -93,90 -71,152 23,62 91,93 152,71 62,-22 93,-90 71,-152z"/>
  <path fill="#6AFF60" fill-opacity="0.501961" stroke="#6AFF60" stroke-width="90.428" stroke-linecap="square" stroke-linejoin="round" stroke-opacity="0.501961" d="M1596 6011c-22,-62 -90,-94 -152,-71 -62,22 -93,91 -71,152 22,62 90,94 152,71 62,-22 93,-91 71,-152z"/>
  <path fill="#6AFF60" fill-opacity="0.501961" stroke="#6AFF60" stroke-width="90.428" stroke-linecap="square" stroke-linejoin="round" stroke-opacity="0.501961" d="M1394 3875c-23,-62 -91,-94 -152,-71 -61,22 -93,91 -70,152 23,62 91,94 152,71 61,-22 93,-90 70,-152z"/>
  <path fill="#6AFF60" fill-opacity="0.501961" stroke="#6AFF60" stroke-width="90.428" stroke-linecap="square" stroke-linejoin="round" stroke-opacity="0.501961" d="M1594 4433c-22,-62 -90,-94 -152,-71 -62,22 -94,90 -71,152 22,62 91,94 152,71 62,-22 94,-90 71,-152z"/>
  <path fill="#6AFF60" fill-opacity="0.501961" stroke="#6AFF60" stroke-width="90.428" stroke-linecap="square" stroke-linejoin="round" stroke-opacity="0.501961" d="M1797 4991c-22,-62 -90,-94 -152,-71 -62,22 -93,91 -71,152 22,62 90,94 152,71 62,-22 93,-90 71,-152z"/>
  <path fill="#6AFF60" fill-opacity="0.501961" stroke="#6AFF60" stroke-width="90.428" stroke-linecap="square" stroke-linejoin="round" stroke-opacity="0.501961" d="M2000 5548c-22,-62 -90,-93 -152,-71 -62,22 -94,90 -71,152 22,62 90,93 152,71 62,-22 94,-90 71,-152z"/>
  <path fill="#6AFF60" fill-opacity="0.501961" stroke="#6AFF60" stroke-width="90.428" stroke-linecap="square" stroke-linejoin="round" stroke-opacity="0.501961" d="M1798 3411c-22,-62 -91,-93 -152,-71 -62,23 -94,91 -71,153 22,62 90,93 152,71 62,-23 94,-91 71,-152z"/>
  <path fill="#6AFF60" fill-opacity="0.501961" stroke="#6AFF60" stroke-width="90.428" stroke-linecap="square" stroke-linejoin="round" stroke-opacity="0.501961" d="M1998 3970c-22,-62 -90,-93 -152,-71 -62,23 -94,91 -71,152 22,62 90,93 152,71 62,-23 94,-91 71,-153z"/>
  <path fill="#6AFF60" fill-opacity="0.501961" stroke="#6AFF60" stroke-width="90.428" stroke-linecap="square" stroke-linejoin="round" stroke-opacity="0.501961" d="M2201 4528c-23,-62 -91,-93 -153,-70 -62,23 -93,91 -70,153 23,62 91,93 152,71 62,-23 93,-91 70,-153z"/>
  <path fill="#6AFF60" fill-opacity="0.501961" stroke="#6AFF60" stroke-width="90.428" stroke-linecap="square" stroke-linejoin="round" stroke-opacity="0.501961" d="M2404 5085c-22,-62 -90,-93 -152,-71 -62,23 -94,91 -71,152 22,62 90,93 152,70 62,-23 94,-91 71,-152z"/>
  <path fill="#6AFF60" fill-opacity="0.501961" stroke="#6AFF60" stroke-width="90.428" stroke-linecap="square" stroke-linejoin="round" stroke-opacity="0.501961" d="M2607 5643c-22,-62 -90,-93 -152,-71 -62,23 -94,91 -71,153 22,62 91,93 152,71 62,-23 94,-91 71,-152z"/>
  <path fill="#6AFF60" fill-opacity="0.501961" stroke="#6AFF60" stroke-width="90.428" stroke-linecap="square" stroke-linejoin="round" stroke-opacity="0.501961" d="M2406 3506c-22,-62 -90,-93 -152,-71 -62,22 -94,90 -71,152 22,62 91,93 152,71 62,-22 94,-90 71,-152z"/>
  <path fill="#6AFF60" fill-opacity="0.501961" stroke="#6AFF60" stroke-width="90.428" stroke-linecap="square" stroke-linejoin="round" stroke-opacity="0.501961" d="M2605 4065c-22,-61 -90,-93 -152,-71 -62,22 -94,90 -71,152 22,61 90,93 152,70 62,-22 94,-90 71,-151z"/>
  <path fill="#6AFF60" fill-opacity="0.501961" stroke="#6AFF60" stroke-width="90.428" stroke-linecap="square" stroke-linejoin="round" stroke-opacity="0.501961" d="M2808 4623c-22,-61 -90,-93 -152,-71 -62,22 -94,90 -71,152 22,61 91,93 152,71 62,-22 94,-90 71,-152z"/>
  <path fill="#6AFF60" fill-opacity="0.501961" stroke="#6AFF60" stroke-width="90.428" stroke-linecap="square" stroke-linejoin="round" stroke-opacity="0.501961" d="M3015 5179c-22,-62 -90,-94 -152,-71 -62,22 -94,90 -71,152 22,62 90,94 152,71 62,-22 94,-90 71,-152z"/>
  <path fill="#6AFF60" fill-opacity="0.501961" stroke="#6AFF60" stroke-width="90.428" stroke-linecap="square" stroke-linejoin="round" stroke-opacity="0.501961" d="M2813 3043c-22,-62 -90,-93 -152,-71 -62,22 -94,90 -71,152 22,62 91,93 152,71 62,-22 94,-90 71,-152z"/>
  <path fill="#6AFF60" fill-opacity="0.501961" stroke="#6AFF60" stroke-width="90.428" stroke-linecap="square" stroke-linejoin="round" stroke-opacity="0.501961" d="M3013 3601c-23,-62 -91,-94 -153,-71 -62,22 -93,90 -70,152 23,62 91,94 153,71 62,-22 93,-90 70,-152z"/>
  <path fill="#6AFF60" fill-opacity="0.501961" stroke="#6AFF60" stroke-width="90.428" stroke-linecap="square" stroke-linejoin="round" stroke-opacity="0.501961" d="M3216 4159c-22,-62 -90,-94 -152,-71 -62,22 -94,90 -71,152 22,62 90,94 152,71 62,-22 94,-91 71,-152z"/>
  <path fill="#6AFF60" fill-opacity="0.501961" stroke="#6AFF60" stroke-width="90.428" stroke-linecap="square" stroke-linejoin="round" stroke-opacity="0.501961" d="M3418 4716c-22,-62 -90,-93 -152,-71 -62,22 -94,90 -71,152 22,62 91,94 152,71 62,-22 94,-90 71,-152z"/>
  <path fill="#6AFF60" fill-opacity="0.501961" stroke="#6AFF60" stroke-width="90.428" stroke-linecap="square" stroke-linejoin="round" stroke-opacity="0.501961" d="M3622 5274c-23,-62 -91,-94 -153,-71 -62,22 -93,90 -71,152 23,62 91,94 152,71 62,-22 93,-90 71,-152z"/>
  <path fill="#6AFF60" fill-opacity="0.501961" stroke="#6AFF60" stroke-width="90.428" stroke-linecap="square" stroke-linejoin="round" stroke-opacity="0.501961" d="M3420 3137c-22,-62 -90,-93 -152,-71 -62,23 -94,91 -71,152 22,62 90,93 152,70 62,-23 94,-91 71,-152z"/>
  <path fill="#6AFF60" fill-opacity="0.501961" stroke="#6AFF60" stroke-width="90.428" stroke-linecap="square" stroke-linejoin="round" stroke-opacity="0.501961" d="M3620 3696c-22,-62 -90,-93 -152,-71 -62,23 -94,91 -71,152 22,62 90,93 152,71 62,-23 94,-91 71,-153z"/>
  <path fill="#6AFF60" fill-opacity="0.501961" stroke="#6AFF60" stroke-width="90.428" stroke-linecap="square" stroke-linejoin="round" stroke-opacity="0.501961" d="M3823 4253c-22,-62 -90,-93 -152,-71 -62,23 -94,91 -71,153 22,62 90,93 152,70 62,-23 94,-91 71,-153z"/>
  <path fill="#6AFF60" fill-opacity="0.501961" stroke="#6AFF60" stroke-width="90.428" stroke-linecap="square" stroke-linejoin="round" stroke-opacity="0.501961" d="M4026 4811c-22,-62 -90,-93 -152,-70 -62,23 -93,91 -71,152 22,62 90,93 152,71 62,-23 93,-91 71,-152z"/>
  <path fill="#6AFF60" fill-opacity="0.501961" stroke="#6AFF60" stroke-width="90.428" stroke-linecap="square" stroke-linejoin="round" stroke-opacity="0.501961" d="M3824 2674c-23,-62 -91,-94 -152,-71 -61,22 -93,91 -70,152 23,62 91,94 152,71 61,-22 93,-90 70,-152z"/>
  <path fill="#6AFF60" fill-opacity="0.501961" stroke="#6AFF60" stroke-width="90.428" stroke-linecap="square" stroke-linejoin="round" stroke-opacity="0.501961" d="M4024 3233c-22,-61 -90,-93 -152,-71 -62,22 -94,90 -71,151 22,61 91,93 152,71 62,-22 94,-90 71,-151z"/>
  <path fill="#6AFF60" fill-opacity="0.501961" stroke="#6AFF60" stroke-width="90.428" stroke-linecap="square" stroke-linejoin="round" stroke-opacity="0.501961" d="M4227 3790c-22,-61 -90,-93 -152,-71 -62,22 -93,90 -71,152 22,61 90,93 152,71 62,-22 93,-90 71,-152z"/>
  <path fill="#6AFF60" fill-opacity="0.501961" stroke="#6AFF60" stroke-width="90.428" stroke-linecap="square" stroke-linejoin="round" stroke-opacity="0.501961" d="M4430 4348c-23,-61 -91,-93 -152,-70 -61,22 -93,90 -70,151 23,61 91,93 152,71 61,-22 93,-90 70,-152z"/>
  <path fill="#6AFF60" fill-opacity="0.501961" stroke="#6AFF60" stroke-width="90.428" stroke-linecap="square" stroke-linejoin="round" stroke-opacity="0.501961" d="M4633 4906c-22,-61 -90,-93 -152,-71 -62,22 -93,90 -71,152 22,61 90,93 152,71 62,-22 93,-90 71,-152z"/>
  <path fill="#6AFF60" fill-opacity="0.501961" stroke="#6AFF60" stroke-width="90.428" stroke-linecap="square" stroke-linejoin="round" stroke-opacity="0.501961" d="M4431 2769c-22,-62 -90,-94 -152,-71 -62,22 -94,90 -71,152 22,62 91,94 152,71 62,-22 94,-90 71,-152z"/>
  <path fill="#6AFF60" fill-opacity="0.501961" stroke="#6AFF60" stroke-width="90.428" stroke-linecap="square" stroke-linejoin="round" stroke-opacity="0.501961" d="M4631 3328c-22,-62 -90,-93 -152,-71 -62,22 -93,90 -71,152 22,62 90,93 152,71 62,-22 93,-90 71,-152z"/>
  <path fill="#6AFF60" fill-opacity="0.501961" stroke="#6AFF60" stroke-width="90.428" stroke-linecap="square" stroke-linejoin="round" stroke-opacity="0.501961" d="M4834 3885c-22,-62 -90,-94 -152,-71 -62,22 -93,90 -71,152 22,62 90,94 152,71 62,-22 93,-90 71,-152z"/>
  <path fill="#6AFF60" fill-opacity="0.501961" stroke="#6AFF60" stroke-width="90.428" stroke-linecap="square" stroke-linejoin="round" stroke-opacity="0.501961" d="M5040 4442c-22,-62 -90,-94 -152,-71 -62,22 -94,91 -71,152 22,62 90,94 152,71 62,-22 94,-91 71,-152z"/>
  <path fill="#6AFF60" fill-opacity="0.501961" stroke="#6AFF60" stroke-width="90.428" stroke-linecap="square" stroke-linejoin="round" stroke-opacity="0.501961" d="M4839 2305c-22,-62 -90,-93 -152,-71 -62,23 -94,91 -71,152 22,62 90,93 152,70 62,-23 94,-91 71,-152z"/>
  <path fill="#6AFF60" fill-opacity="0.501961" stroke="#6AFF60" stroke-width="90.428" stroke-linecap="square" stroke-linejoin="round" stroke-opacity="0.501961" d="M5038 2864c-22,-62 -90,-93 -152,-70 -62,23 -93,91 -71,152 22,62 90,93 152,71 62,-23 93,-91 71,-152z"/>
  <path fill="#6AFF60" fill-opacity="0.501961" stroke="#6AFF60" stroke-width="90.428" stroke-linecap="square" stroke-linejoin="round" stroke-opacity="0.501961" d="M5242 3421c-23,-62 -91,-93 -153,-71 -62,23 -93,91 -71,153 23,62 91,93 153,71 62,-23 93,-91 71,-153z"/>
  <path fill="#6AFF60" fill-opacity="0.501961" stroke="#6AFF60" stroke-width="90.428" stroke-linecap="square" stroke-linejoin="round" stroke-opacity="0.501961" d="M5444 3979c-22,-62 -90,-93 -152,-70 -62,23 -93,91 -71,153 22,62 90,93 152,71 62,-23 93,-91 71,-153z"/>
  <path fill="#6AFF60" fill-opacity="0.501961" stroke="#6AFF60" stroke-width="90.428" stroke-linecap="square" stroke-linejoin="round" stroke-opacity="0.501961" d="M5647 4536c-22,-62 -91,-93 -152,-71 -62,23 -94,91 -71,152 22,62 90,93 152,70 62,-23 94,-91 71,-152z"/>
  <path fill="#6AFF60" fill-opacity="0.501961" stroke="#6AFF60" stroke-width="90.428" stroke-linecap="square" stroke-linejoin="round" stroke-opacity="0.501961" d="M5446 2400c-22,-62 -90,-94 -152,-71 -62,22 -94,90 -71,152 22,62 90,94 152,71 62,-22 94,-91 71,-152z"/>
  <path fill="#6AFF60" fill-opacity="0.501961" stroke="#6AFF60" stroke-width="90.428" stroke-linecap="square" stroke-linejoin="round" stroke-opacity="0.501961" d="M5645 2958c-22,-61 -90,-93 -152,-71 -62,22 -93,90 -71,151 22,61 90,93 152,71 62,-22 93,-90 71,-151z"/>
  <path fill="#6AFF60" fill-opacity="0.501961" stroke="#6AFF60" stroke-width="90.428" stroke-linecap="square" stroke-linejoin="round" stroke-opacity="0.501961" d="M5848 3516c-23,-62 -91,-94 -152,-71 -61,22 -93,91 -70,152 23,62 91,94 152,71 61,-22 93,-90 70,-152z"/>
  <path fill="#6AFF60" fill-opacity="0.501961" stroke="#6AFF60" stroke-width="90.428" stroke-linecap="square" stroke-linejoin="round" stroke-opacity="0.501961" d="M6052 4074c-22,-62 -90,-94 -152,-71 -62,22 -94,91 -71,152 22,62 90,94 152,71 62,-22 94,-91 71,-152z"/>
  <path fill="#6AFF60" fill-opacity="0.501961" stroke="#6AFF60" stroke-width="90.428" stroke-linecap="square" stroke-linejoin="round" stroke-opacity="0.501961" d="M5850 1937c-22,-62 -90,-94 -152,-71 -62,22 -93,90 -71,152 22,62 90,94 152,71 62,-22 93,-90 71,-152z"/>
  <path fill="#6AFF60" fill-opacity="0.501961" stroke="#6AFF60" stroke-width="90.428" stroke-linecap="square" stroke-linejoin="round" stroke-opacity="0.501961" d="M6049 2496c-23,-62 -91,-94 -152,-71 -61,22 -93,91 -70,152 23,62 91,94 152,71 61,-22 93,-90 70,-152z"/>
  <path fill="#6AFF60" fill-opacity="0.501961" stroke="#6AFF60" stroke-width="90.428" stroke-linecap="square" stroke-linejoin="round" stroke-opacity="0.501961" d="M6253 3053c-22,-61 -90,-93 -152,-71 -62,22 -94,90 -71,152 22,61 90,93 152,71 62,-22 94,-90 71,-152z"/>
  <path fill="#6AFF60" fill-opacity="0.501961" stroke="#6AFF60" stroke-width="90.428" stroke-linecap="square" stroke-linejoin="round" stroke-opacity="0.501961" d="M6455 3611c-22,-62 -90,-94 -152,-71 -62,22 -94,90 -71,152 22,62 90,93 152,71 62,-22 93,-90 71,-152z"/>
  <path fill="#6AFF60" fill-opacity="0.501961" stroke="#6AFF60" stroke-width="90.428" stroke-linecap="square" stroke-linejoin="round" stroke-opacity="0.501961" d="M6658 4168c-22,-62 -90,-94 -152,-71 -62,22 -93,90 -71,152 22,62 90,94 152,71 62,-22 93,-91 71,-152z"/>
  <path fill="#6AFF60" fill-opacity="0.501961" stroke="#6AFF60" stroke-width="90.428" stroke-linecap="square" stroke-linejoin="round" stroke-opacity="0.501961" d="M6457 2031c-22,-62 -90,-93 -152,-71 -62,23 -93,91 -71,152 22,62 90,93 152,70 62,-23 93,-91 71,-152z"/>
  <path fill="#6AFF60" fill-opacity="0.501961" stroke="#6AFF60" stroke-width="90.428" stroke-linecap="square" stroke-linejoin="round" stroke-opacity="0.501961" d="M6657 2591c-22,-62 -90,-93 -152,-71 -62,22 -94,90 -71,152 22,62 90,93 152,71 62,-22 94,-90 71,-152z"/>
  <path fill="#6AFF60" fill-opacity="0.501961" stroke="#6AFF60" stroke-width="90.428" stroke-linecap="square" stroke-linejoin="round" stroke-opacity="0.501961" d="M6860 3148c-23,-62 -91,-93 -153,-71 -62,22 -93,90 -71,152 23,62 91,93 152,71 62,-22 93,-90 71,-152z"/>
  <path fill="#6AFF60" fill-opacity="0.501961" stroke="#6AFF60" stroke-width="90.428" stroke-linecap="square" stroke-linejoin="round" stroke-opacity="0.501961" d="M7066 3704c-22,-62 -90,-93 -152,-70 -62,23 -94,91 -71,153 22,62 90,93 152,71 62,-23 94,-91 71,-153z"/>
  <path fill="#6AFF60" fill-opacity="0.501961" stroke="#6AFF60" stroke-width="90.428" stroke-linecap="square" stroke-linejoin="round" stroke-opacity="0.501961" d="M6861 1569c-23,-61 -91,-93 -152,-70 -61,22 -93,90 -70,151 23,61 91,93 152,71 61,-22 93,-90 70,-152z"/>
  <path fill="#6AFF60" fill-opacity="0.501961" stroke="#6AFF60" stroke-width="90.428" stroke-linecap="square" stroke-linejoin="round" stroke-opacity="0.501961" d="M7064 2126c-22,-61 -90,-93 -152,-71 -62,22 -94,90 -71,151 22,61 90,93 152,71 62,-22 94,-90 71,-151z"/>
  <path fill="#6AFF60" fill-opacity="0.501961" stroke="#6AFF60" stroke-width="90.428" stroke-linecap="square" stroke-linejoin="round" stroke-opacity="0.501961" d="M7267 2684c-22,-61 -91,-93 -152,-71 -62,22 -94,90 -71,151 22,61 90,93 152,71 62,-22 94,-90 71,-151z"/>
  <path fill="#6AFF60" fill-opacity="0.501961" stroke="#6AFF60" stroke-width="90.428" stroke-linecap="square" stroke-linejoin="round" stroke-opacity="0.501961" d="M7470 3241c-22,-61 -90,-93 -152,-71 -62,22 -93,90 -71,152 22,61 90,93 152,71 62,-22 93,-90 71,-152z"/>
  <path fill="#6AFF60" fill-opacity="0.501961" stroke="#6AFF60" stroke-width="90.428" stroke-linecap="square" stroke-linejoin="round" stroke-opacity="0.501961" d="M7673 3799c-22,-62 -90,-94 -152,-71 -62,22 -93,90 -71,152 22,62 90,94 152,71 62,-22 93,-90 71,-152z"/>
  <path fill="#6AFF60" fill-opacity="0.501961" stroke="#6AFF60" stroke-width="90.428" stroke-linecap="square" stroke-linejoin="round" stroke-opacity="0.501961" d="M7471 1663c-22,-62 -90,-93 -152,-71 -62,22 -93,90 -71,152 22,62 90,94 152,71 62,-22 94,-90 71,-152z"/>
  <path fill="#6AFF60" fill-opacity="0.501961" stroke="#6AFF60" stroke-width="90.428" stroke-linecap="square" stroke-linejoin="round" stroke-opacity="0.501961" d="M7672 2221c-23,-62 -91,-94 -153,-71 -62,22 -93,91 -71,152 23,62 91,94 152,71 62,-22 93,-90 71,-152z"/>
  <path fill="#6AFF60" fill-opacity="0.501961" stroke="#6AFF60" stroke-width="90.428" stroke-linecap="square" stroke-linejoin="round" stroke-opacity="0.501961" d="M7874 2779c-22,-62 -90,-93 -152,-71 -62,22 -93,90 -71,152 22,62 90,93 152,71 62,-22 93,-90 71,-152z"/>
  <path fill="#6AFF60" fill-opacity="0.501961" stroke="#6AFF60" stroke-width="90.428" stroke-linecap="square" stroke-linejoin="round" stroke-opacity="0.501961" d="M8077 3336c-22,-62 -90,-94 -152,-71 -62,22 -94,90 -71,152 22,62 90,94 152,71 62,-22 94,-90 71,-152z"/>
  <path fill="#6AFF60" fill-opacity="0.501961" stroke="#6AFF60" stroke-width="90.428" stroke-linecap="square" stroke-linejoin="round" stroke-opacity="0.501961" d="M7876 1199c-22,-62 -90,-93 -152,-71 -62,23 -94,91 -71,153 22,62 90,93 152,70 62,-23 94,-91 71,-153z"/>
  <path fill="#6AFF60" fill-opacity="0.501961" stroke="#6AFF60" stroke-width="90.428" stroke-linecap="square" stroke-linejoin="round" stroke-opacity="0.501961" d="M8075 1759c-22,-62 -90,-94 -152,-71 -62,22 -93,90 -71,152 22,62 90,94 152,71 62,-22 93,-90 71,-152z"/>
  <path fill="#6AFF60" fill-opacity="0.501961" stroke="#6AFF60" stroke-width="90.428" stroke-linecap="square" stroke-linejoin="round" stroke-opacity="0.501961" d="M8278 2316c-22,-62 -90,-93 -152,-71 -62,22 -94,90 -71,152 22,62 90,93 152,71 62,-22 94,-90 71,-152z"/>
  <path fill="#6AFF60" fill-opacity="0.501961" stroke="#6AFF60" stroke-width="90.428" stroke-linecap="square" stroke-linejoin="round" stroke-opacity="0.501961" d="M8481 2874c-23,-62 -91,-94 -152,-71 -61,22 -93,90 -70,152 23,62 91,94 152,71 61,-22 93,-91 70,-152z"/>
  <path fill="#6AFF60" fill-opacity="0.501961" stroke="#6AFF60" stroke-width="90.428" stroke-linecap="square" stroke-linejoin="round" stroke-opacity="0.501961" d="M8684 3431c-22,-62 -90,-94 -152,-71 -62,22 -93,90 -71,152 22,62 90,94 152,71 62,-22 94,-90 71,-152z"/>
  <path fill="#6AFF60" fill-opacity="0.501961" stroke="#6AFF60" stroke-width="90.428" stroke-linecap="square" stroke-linejoin="round" stroke-opacity="0.501961" d="M8483 1294c-23,-61 -91,-93 -152,-71 -61,22 -93,90 -70,152 23,61 91,93 152,70 61,-22 93,-90 70,-151z"/>
  <path fill="#6AFF60" fill-opacity="0.501961" stroke="#6AFF60" stroke-width="90.428" stroke-linecap="square" stroke-linejoin="round" stroke-opacity="0.501961" d="M8683 1853c-22,-62 -90,-93 -152,-71 -62,23 -93,91 -71,152 22,62 90,93 152,70 62,-23 93,-91 71,-152z"/>
  <path fill="#6AFF60" fill-opacity="0.501961" stroke="#6AFF60" stroke-width="90.428" stroke-linecap="square" stroke-linejoin="round" stroke-opacity="0.501961" d="M8885 2411c-22,-61 -90,-93 -152,-71 -62,22 -93,90 -71,152 22,61 90,93 152,71 62,-22 94,-90 71,-152z"/>
  <path fill="#6AFF60" fill-opacity="0.501961" stroke="#6AFF60" stroke-width="90.428" stroke-linecap="square" stroke-linejoin="round" stroke-opacity="0.501961" d="M9091 2967c-22,-61 -90,-93 -152,-71 -62,22 -94,90 -71,152 22,61 91,93 152,71 62,-22 94,-90 71,-151z"/>
 </g>
</svg>
