<?xml version="1.0" encoding="UTF-8"?>
<!DOCTYPE svg PUBLIC "-//W3C//DTD SVG 1.0//EN" "http://www.w3.org/TR/2001/REC-SVG-20010904/DTD/svg10.dtd">
<!-- Creator: CorelDRAW X6 -->
<svg xmlns="http://www.w3.org/2000/svg" xml:space="preserve" width="104px" height="68px" version="1.0" shape-rendering="geometricPrecision" text-rendering="geometricPrecision" image-rendering="optimizeQuality" fill-rule="evenodd" clip-rule="evenodd"
viewBox="0 0 10400 6772"
 xmlns:xlink="http://www.w3.org/1999/xlink">
 <g id="_0760.cgm:type:overlay">
  <metadata id="CorelCorpID_0Corel-Layer"/>
  <IC_ColorNameTable/>
  <PictureProperties/>
  <line fill="none" fill-opacity="0.501961" stroke="#DE4BC9" stroke-width="376.522" stroke-opacity="0.501961" x1="188" y1="3836" x2="10212" y2= "188" />
  <path fill="#DE4BC9" fill-opacity="0.501961" stroke="#DE4BC9" stroke-width="89.6592" stroke-linecap="square" stroke-linejoin="round" stroke-opacity="0.501961" d="M940 4502c-44,-122 -180,-185 -302,-140 -122,44 -185,180 -141,302 44,122 180,185 302,140 122,-44 185,-180 141,-302z"/>
  <path fill="#DE4BC9" fill-opacity="0.501961" stroke="#DE4BC9" stroke-width="89.6592" stroke-linecap="square" stroke-linejoin="round" stroke-opacity="0.501961" d="M1273 5480c-45,-122 -180,-185 -302,-141 -122,44 -185,179 -140,301 44,122 179,185 301,141 122,-44 185,-179 140,-301z"/>
  <path fill="#DE4BC9" fill-opacity="0.501961" stroke="#DE4BC9" stroke-width="89.6592" stroke-linecap="square" stroke-linejoin="round" stroke-opacity="0.501961" d="M1608 6450c-44,-122 -179,-185 -302,-140 -122,44 -186,180 -142,302 44,122 179,185 301,140 122,-44 186,-180 142,-302z"/>
  <path fill="#DE4BC9" fill-opacity="0.501961" stroke="#DE4BC9" stroke-width="89.6592" stroke-linecap="square" stroke-linejoin="round" stroke-opacity="0.501961" d="M2194 4045c-45,-122 -180,-185 -302,-140 -122,44 -185,179 -140,301 44,122 180,185 302,140 122,-45 185,-180 140,-302z"/>
  <path fill="#DE4BC9" fill-opacity="0.501961" stroke="#DE4BC9" stroke-width="89.6592" stroke-linecap="square" stroke-linejoin="round" stroke-opacity="0.501961" d="M2527 5023c-45,-122 -180,-185 -302,-140 -122,44 -185,180 -140,302 44,122 179,185 302,140 122,-45 185,-180 140,-302z"/>
  <path fill="#DE4BC9" fill-opacity="0.501961" stroke="#DE4BC9" stroke-width="89.6592" stroke-linecap="square" stroke-linejoin="round" stroke-opacity="0.501961" d="M2862 5993c-44,-122 -179,-185 -301,-141 -122,45 -185,180 -140,302 44,122 180,185 302,141 122,-44 185,-180 140,-302z"/>
  <path fill="#DE4BC9" fill-opacity="0.501961" stroke="#DE4BC9" stroke-width="89.6592" stroke-linecap="square" stroke-linejoin="round" stroke-opacity="0.501961" d="M3445 3590c-44,-122 -180,-185 -302,-140 -122,44 -185,180 -140,302 45,122 180,185 302,140 122,-44 185,-180 140,-302z"/>
  <path fill="#DE4BC9" fill-opacity="0.501961" stroke="#DE4BC9" stroke-width="89.6592" stroke-linecap="square" stroke-linejoin="round" stroke-opacity="0.501961" d="M3778 4569c-44,-122 -180,-185 -302,-141 -122,44 -185,179 -140,301 44,122 180,185 302,141 122,-44 185,-179 140,-301z"/>
  <path fill="#DE4BC9" fill-opacity="0.501961" stroke="#DE4BC9" stroke-width="89.6592" stroke-linecap="square" stroke-linejoin="round" stroke-opacity="0.501961" d="M4113 5538c-44,-122 -180,-185 -302,-140 -122,44 -185,179 -140,302 44,122 180,185 302,140 122,-45 185,-180 140,-302z"/>
  <path fill="#DE4BC9" fill-opacity="0.501961" stroke="#DE4BC9" stroke-width="89.6592" stroke-linecap="square" stroke-linejoin="round" stroke-opacity="0.501961" d="M4699 3134c-44,-122 -180,-185 -302,-141 -122,45 -185,180 -140,302 44,122 180,185 302,141 122,-44 185,-180 140,-302z"/>
  <path fill="#DE4BC9" fill-opacity="0.501961" stroke="#DE4BC9" stroke-width="89.6592" stroke-linecap="square" stroke-linejoin="round" stroke-opacity="0.501961" d="M5032 4111c-44,-122 -179,-185 -301,-141 -122,45 -186,180 -142,302 44,122 179,185 302,140 122,-44 186,-180 141,-302z"/>
  <path fill="#DE4BC9" fill-opacity="0.501961" stroke="#DE4BC9" stroke-width="89.6592" stroke-linecap="square" stroke-linejoin="round" stroke-opacity="0.501961" d="M5367 5082c-45,-122 -180,-186 -302,-141 -122,44 -185,180 -141,302 44,122 180,186 302,141 122,-44 185,-180 141,-302z"/>
  <path fill="#DE4BC9" fill-opacity="0.501961" stroke="#DE4BC9" stroke-width="89.6592" stroke-linecap="square" stroke-linejoin="round" stroke-opacity="0.501961" d="M5949 2678c-44,-122 -180,-185 -302,-140 -122,44 -185,180 -140,302 45,122 180,185 302,140 122,-44 185,-180 140,-302z"/>
  <path fill="#DE4BC9" fill-opacity="0.501961" stroke="#DE4BC9" stroke-width="89.6592" stroke-linecap="square" stroke-linejoin="round" stroke-opacity="0.501961" d="M6283 3657c-45,-122 -180,-185 -302,-141 -122,44 -186,179 -141,301 45,122 180,185 302,141 122,-44 186,-179 141,-301z"/>
  <path fill="#DE4BC9" fill-opacity="0.501961" stroke="#DE4BC9" stroke-width="89.6592" stroke-linecap="square" stroke-linejoin="round" stroke-opacity="0.501961" d="M6618 4627c-44,-122 -180,-185 -302,-140 -122,45 -185,180 -141,302 44,122 180,185 302,140 122,-44 185,-179 141,-301z"/>
  <path fill="#DE4BC9" fill-opacity="0.501961" stroke="#DE4BC9" stroke-width="89.6592" stroke-linecap="square" stroke-linejoin="round" stroke-opacity="0.501961" d="M7204 2222c-44,-122 -179,-186 -301,-141 -122,44 -186,180 -142,302 44,122 179,186 302,141 122,-44 186,-180 141,-302z"/>
  <path fill="#DE4BC9" fill-opacity="0.501961" stroke="#DE4BC9" stroke-width="89.6592" stroke-linecap="square" stroke-linejoin="round" stroke-opacity="0.501961" d="M7537 3200c-44,-122 -180,-185 -302,-140 -122,45 -185,180 -140,302 45,122 180,185 302,140 122,-44 185,-179 140,-302z"/>
  <path fill="#DE4BC9" fill-opacity="0.501961" stroke="#DE4BC9" stroke-width="89.6592" stroke-linecap="square" stroke-linejoin="round" stroke-opacity="0.501961" d="M7872 4170c-45,-122 -180,-185 -302,-141 -122,44 -185,180 -140,302 44,122 179,185 301,141 122,-44 185,-180 140,-302z"/>
  <path fill="#DE4BC9" fill-opacity="0.501961" stroke="#DE4BC9" stroke-width="89.6592" stroke-linecap="square" stroke-linejoin="round" stroke-opacity="0.501961" d="M8458 1766c-44,-122 -179,-186 -301,-141 -122,44 -185,180 -141,302 44,122 179,186 302,141 122,-44 185,-180 140,-302z"/>
  <path fill="#DE4BC9" fill-opacity="0.501961" stroke="#DE4BC9" stroke-width="89.6592" stroke-linecap="square" stroke-linejoin="round" stroke-opacity="0.501961" d="M8787 2745c-44,-122 -179,-185 -301,-141 -122,44 -186,179 -142,301 44,122 179,185 302,141 122,-44 186,-179 141,-301z"/>
  <path fill="#DE4BC9" fill-opacity="0.501961" stroke="#DE4BC9" stroke-width="89.6592" stroke-linecap="square" stroke-linejoin="round" stroke-opacity="0.501961" d="M9122 3715c-44,-122 -180,-185 -301,-141 -122,44 -185,179 -140,301 44,122 180,185 302,140 122,-44 185,-179 140,-301z"/>
  <path fill="#DE4BC9" fill-opacity="0.501961" stroke="#DE4BC9" stroke-width="89.6592" stroke-linecap="square" stroke-linejoin="round" stroke-opacity="0.501961" d="M9709 1310c-44,-122 -180,-185 -302,-140 -122,44 -185,180 -140,302 44,122 180,185 302,140 122,-44 185,-180 140,-302z"/>
  <path fill="#DE4BC9" fill-opacity="0.501961" stroke="#DE4BC9" stroke-width="89.6592" stroke-linecap="square" stroke-linejoin="round" stroke-opacity="0.501961" d="M10042 2288c-44,-122 -179,-185 -301,-140 -122,44 -185,180 -141,302 44,122 179,185 302,140 122,-44 185,-180 140,-301z"/>
  <path fill="#DE4BC9" fill-opacity="0.501961" stroke="#DE4BC9" stroke-width="89.6592" stroke-linecap="square" stroke-linejoin="round" stroke-opacity="0.501961" d="M10377 3258c-44,-122 -180,-185 -302,-140 -122,44 -185,179 -140,302 44,122 180,185 302,140 122,-45 185,-180 140,-302z"/>
 </g>
</svg>
