<?xml version="1.0" encoding="UTF-8"?>
<!DOCTYPE svg PUBLIC "-//W3C//DTD SVG 1.0//EN" "http://www.w3.org/TR/2001/REC-SVG-20010904/DTD/svg10.dtd">
<!-- Creator: CorelDRAW X6 -->
<svg xmlns="http://www.w3.org/2000/svg" xml:space="preserve" width="83px" height="175px" version="1.0" shape-rendering="geometricPrecision" text-rendering="geometricPrecision" image-rendering="optimizeQuality" fill-rule="evenodd" clip-rule="evenodd"
viewBox="0 0 8300 17527"
 xmlns:xlink="http://www.w3.org/1999/xlink">
 <g id="_1220.cgm:type:overlay">
  <metadata id="CorelCorpID_0Corel-Layer"/>
  <IC_ColorNameTable/>
  <PictureProperties/>
  <polygon fill="#DE4BCB" fill-opacity="0.501961" points="2730,14680 2730,16573 5570,16573 5570,14680 6516,14680 6516,17520 1784,17520 1784,14680 "/>
  <polygon fill="#DE4BCB" fill-opacity="0.501961" points="1784,12905 1784,10893 2730,10893 2730,12905 "/>
  <polygon fill="#DE4BCB" fill-opacity="0.501961" points="5570,12905 5570,10893 6516,10893 6516,12905 "/>
  <polygon fill="#DE4BCB" fill-opacity="0.501961" points="1784,8763 1784,6870 2730,6870 2730,8763 "/>
  <polygon fill="#DE4BCB" fill-opacity="0.501961" points="5570,8763 5570,6870 6516,6870 6516,8763 "/>
  <polygon fill="#DE4BCB" fill-opacity="0.501961" points="2730,4977 2730,5687 8,5687 1264,3965 2411,3965 1674,4977 "/>
  <polygon fill="#DE4BCB" fill-opacity="0.501961" points="5570,4977 5570,5687 8292,5687 7037,3965 5889,3965 6635,4977 "/>
  <polygon fill="#DE4BCB" fill-opacity="0.501961" points="2240,2627 4150,7 6060,2627 4912,2627 4150,1581 3388,2627 "/>
 </g>
</svg>
