<?xml version="1.0" encoding="UTF-8"?>
<!DOCTYPE svg PUBLIC "-//W3C//DTD SVG 1.0//EN" "http://www.w3.org/TR/2001/REC-SVG-20010904/DTD/svg10.dtd">
<!-- Creator: CorelDRAW X6 -->
<svg xmlns="http://www.w3.org/2000/svg" xml:space="preserve" width="1423px" height="539px" version="1.0" shape-rendering="geometricPrecision" text-rendering="geometricPrecision" image-rendering="optimizeQuality" fill-rule="evenodd" clip-rule="evenodd"
viewBox="0 0 142300 53915"
 xmlns:xlink="http://www.w3.org/1999/xlink">
 <g id="_1301.cgm:type:overlay">
  <metadata id="CorelCorpID_0Corel-Layer"/>
  <IC_ColorNameTable/>
  <PictureProperties/>
  <polyline fill="none" fill-opacity="0.501961" stroke="#000001" stroke-width="1065.76" stroke-opacity="0.501961" points="1747,53382 533,50054 3861,48840 5075,52168 1747,53382 "/>
  <line fill="none" fill-opacity="0.501961" stroke="#000001" stroke-width="1065.76" stroke-opacity="0.501961" x1="4953" y1="50333" x2="18275" y2= "45485" />
  <polyline fill="none" fill-opacity="0.501961" stroke="#000001" stroke-width="1065.76" stroke-opacity="0.501961" points="19419,46953 18205,43625 21542,42410 22747,45739 19419,46953 "/>
  <line fill="none" fill-opacity="0.501961" stroke="#000001" stroke-width="1065.76" stroke-opacity="0.501961" x1="22625" y1="43895" x2="35946" y2= "39047" />
  <polyline fill="none" fill-opacity="0.501961" stroke="#000001" stroke-width="1065.76" stroke-opacity="0.501961" points="37091,40515 35885,37187 39213,35981 40419,39309 37091,40515 "/>
  <line fill="none" fill-opacity="0.501961" stroke="#000001" stroke-width="1065.76" stroke-opacity="0.501961" x1="40244" y1="37484" x2="53566" y2= "32635" />
  <polyline fill="none" fill-opacity="0.501961" stroke="#000001" stroke-width="1065.76" stroke-opacity="0.501961" points="54710,34103 53496,30775 56824,29569 58038,32897 54710,34103 "/>
  <line fill="none" fill-opacity="0.501961" stroke="#000001" stroke-width="1065.76" stroke-opacity="0.501961" x1="57916" y1="31054" x2="71237" y2= "26206" />
  <polyline fill="none" fill-opacity="0.501961" stroke="#000001" stroke-width="1065.76" stroke-opacity="0.501961" points="72382,27674 71176,24346 74504,23131 75710,26460 72382,27674 "/>
  <line fill="none" fill-opacity="0.501961" stroke="#000001" stroke-width="1065.76" stroke-opacity="0.501961" x1="75535" y1="24643" x2="88857" y2= "19794" />
  <polyline fill="none" fill-opacity="0.501961" stroke="#000001" stroke-width="1065.76" stroke-opacity="0.501961" points="90001,21262 88787,17934 92115,16720 93329,20048 90001,21262 "/>
  <line fill="none" fill-opacity="0.501961" stroke="#000001" stroke-width="1065.76" stroke-opacity="0.501961" x1="93207" y1="18213" x2="106528" y2= "13356" />
  <polyline fill="none" fill-opacity="0.501961" stroke="#000001" stroke-width="1065.76" stroke-opacity="0.501961" points="107673,14824 106467,11496 109795,10290 111010,13618 107673,14824 "/>
  <line fill="none" fill-opacity="0.501961" stroke="#000001" stroke-width="1065.76" stroke-opacity="0.501961" x1="110826" y1="11802" x2="124148" y2= "6945" />
  <polyline fill="none" fill-opacity="0.501961" stroke="#000001" stroke-width="1065.76" stroke-opacity="0.501961" points="125292,8412 124087,5084 127415,3878 128620,7207 125292,8412 "/>
  <line fill="none" fill-opacity="0.501961" stroke="#000001" stroke-width="1065.76" stroke-opacity="0.501961" x1="128498" y1="5364" x2="141767" y2= "533" />
 </g>
</svg>
