<?xml version="1.0" encoding="UTF-8"?>
<!DOCTYPE svg PUBLIC "-//W3C//DTD SVG 1.0//EN" "http://www.w3.org/TR/2001/REC-SVG-20010904/DTD/svg10.dtd">
<!-- Creator: CorelDRAW X6 -->
<svg xmlns="http://www.w3.org/2000/svg" xml:space="preserve" width="50px" height="61px" version="1.0" shape-rendering="geometricPrecision" text-rendering="geometricPrecision" image-rendering="optimizeQuality" fill-rule="evenodd" clip-rule="evenodd"
viewBox="0 0 5000 6191"
 xmlns:xlink="http://www.w3.org/1999/xlink">
 <g id="_2029.cgm:type:overlay">
  <metadata id="CorelCorpID_0Corel-Layer"/>
  <IC_ColorNameTable/>
  <PictureProperties/>
  <path fill="none" fill-opacity="0.501961" stroke="#000001" stroke-width="238.345" stroke-linecap="square" stroke-linejoin="round" stroke-opacity="0.501961" d="M4881 2500c0,-1315 -1066,-2381 -2381,-2381 -1315,0 -2381,1066 -2381,2381 0,1315 1066,2381 2381,2381 1315,0 2381,-1066 2381,-2381z"/>
  <polyline fill="none" fill-opacity="0.501961" stroke="#000001" stroke-width="238.345" stroke-linecap="round" stroke-linejoin="round" stroke-opacity="0.501961" points="2500,2500 714,6072 4286,6072 2500,2500 "/>
  <line fill="none" fill-opacity="0.501961" stroke="#000001" stroke-width="238.345" stroke-linecap="round" stroke-linejoin="round" stroke-opacity="0.501961" x1="2500" y1="119" x2="2500" y2= "4881" />
  <path fill="#000001" fill-opacity="0.501961" stroke="#000001" stroke-width="90.7186" stroke-linecap="square" stroke-linejoin="round" stroke-opacity="0.501961" d="M3095 2500c0,-329 -267,-595 -595,-595 -329,0 -595,267 -595,595 0,329 267,595 595,595 329,0 595,-267 595,-595z"/>
  <line fill="none" fill-opacity="0.501961" stroke="#000001" stroke-width="238.345" stroke-linecap="round" stroke-linejoin="round" stroke-opacity="0.501961" x1="438" y1="3691" x2="4562" y2= "1310" />
  <line fill="none" fill-opacity="0.501961" stroke="#000001" stroke-width="238.345" stroke-linecap="round" stroke-linejoin="round" stroke-opacity="0.501961" x1="4562" y1="3691" x2="438" y2= "1310" />
 </g>
</svg>
