<?xml version="1.0" encoding="UTF-8"?>
<!DOCTYPE svg PUBLIC "-//W3C//DTD SVG 1.0//EN" "http://www.w3.org/TR/2001/REC-SVG-20010904/DTD/svg10.dtd">
<!-- Creator: CorelDRAW X6 -->
<svg xmlns="http://www.w3.org/2000/svg" xml:space="preserve" width="57px" height="46px" version="1.0" shape-rendering="geometricPrecision" text-rendering="geometricPrecision" image-rendering="optimizeQuality" fill-rule="evenodd" clip-rule="evenodd"
viewBox="0 0 5700 4556"
 xmlns:xlink="http://www.w3.org/1999/xlink">
 <g id="_2034.cgm:type:overlay">
  <metadata id="CorelCorpID_0Corel-Layer"/>
  <IC_ColorNameTable/>
  <PictureProperties/>
  <line fill="none" fill-opacity="0.501961" stroke="#000001" stroke-width="236.378" stroke-linecap="round" stroke-linejoin="round" stroke-opacity="0.501961" x1="5582" y1="1958" x2="2038" y2= "4320" />
  <path fill="none" fill-opacity="0.501961" stroke="#000001" stroke-width="236.378" stroke-linecap="round" stroke-linejoin="round" stroke-opacity="0.501961" d="M1159 4055c72,219 279,373 509,383 134,6 272,-39 375,-122"/>
  <path fill="none" fill-opacity="0.501961" stroke="#000001" stroke-width="236.378" stroke-linecap="round" stroke-linejoin="round" stroke-opacity="0.501961" d="M1862 3581c28,85 79,168 144,230 198,191 512,210 730,44"/>
  <polygon fill="#000001" fill-opacity="0.501961" stroke="#000001" stroke-width="210.271" stroke-linecap="square" stroke-linejoin="round" stroke-opacity="0.501961" points="3810,3139 2446,2435 2897,2264 "/>
  <polygon fill="#000001" fill-opacity="0.501961" stroke="#000001" stroke-width="210.271" stroke-linecap="square" stroke-linejoin="round" stroke-opacity="0.501961" points="2446,2435 3101,1050 1072,1812 2972,255 3434,105 3745,213 4003,567 3967,1003 3803,1410 2897,2264 "/>
  <polygon fill="#000001" fill-opacity="0.501961" stroke="#000001" stroke-width="210.271" stroke-linecap="square" stroke-linejoin="round" stroke-opacity="0.501961" points="2087,1431 1909,2210 1791,2317 1909,2424 2027,2317 2239,1374 "/>
  <line fill="none" fill-opacity="0.501961" stroke="#000001" stroke-width="236.378" stroke-linecap="round" stroke-linejoin="round" stroke-opacity="0.501961" x1="1587" y1="2521" x2="5152" y2= "599" />
  <line fill="none" fill-opacity="0.501961" stroke="#000001" stroke-width="236.378" stroke-linecap="round" stroke-linejoin="round" stroke-opacity="0.501961" x1="4819" y1="438" x2="5173" y2= "943" />
  <path fill="#000001" fill-opacity="0.501961" stroke="#000001" stroke-width="210.271" stroke-linecap="square" stroke-linejoin="round" stroke-opacity="0.501961" d="M1050 1973c0,-261 -212,-473 -473,-473 -261,0 -473,212 -473,473 0,261 212,473 473,473 261,0 473,-212 473,-473z"/>
 </g>
</svg>
