<?xml version="1.0" encoding="UTF-8"?>
<!DOCTYPE svg PUBLIC "-//W3C//DTD SVG 1.0//EN" "http://www.w3.org/TR/2001/REC-SVG-20010904/DTD/svg10.dtd">
<!-- Creator: CorelDRAW X6 -->
<svg xmlns="http://www.w3.org/2000/svg" xml:space="preserve" width="61px" height="61px" version="1.0" shape-rendering="geometricPrecision" text-rendering="geometricPrecision" image-rendering="optimizeQuality" fill-rule="evenodd" clip-rule="evenodd"
viewBox="0 0 6100 6100"
 xmlns:xlink="http://www.w3.org/1999/xlink">
 <g id="_2060.cgm:type:overlay">
  <metadata id="CorelCorpID_0Corel-Layer"/>
  <IC_ColorNameTable/>
  <PictureProperties/>
  <polyline fill="none" fill-opacity="0.501961" stroke="#000001" stroke-width="234.859" stroke-linecap="round" stroke-linejoin="round" stroke-opacity="0.501961" points="117,5983 117,117 5983,117 5983,5983 117,5983 "/>
  <polygon fill="#000001" fill-opacity="0.501961" stroke="#000001" stroke-width="89.3919" stroke-linecap="square" stroke-linejoin="round" stroke-opacity="0.501961" points="1793,3646 2252,3646 2307,3967 2386,4120 2503,4255 2647,4356 2834,4434 2991,4469 3165,4484 3366,4473 3550,4434 3716,4368 3840,4289 3941,4187 4007,4077 4040,3972 4051,3839 4035,3701 3998,3603 3928,3514 3808,3424 3692,3371 3475,3305 3083,3212 2714,3119 2482,3043 2339,2979 2202,2890 2101,2796 2012,2670 1947,2518 1914,2364 1907,2189 1931,2009 1981,1846 2078,1667 2211,1513 2399,1374 2644,1268 2859,1217 3118,1194 3412,1210 3656,1263 3901,1370 4097,1513 4259,1704 4359,1913 4410,2201 4419,2321 3966,2321 3949,2213 3919,2074 3850,1926 3735,1794 3599,1699 3428,1629 3272,1600 3085,1593 2792,1640 2640,1703 2528,1781 2450,1870 2397,1968 2362,2155 2388,2346 2433,2440 2495,2514 2575,2568 2731,2633 3056,2722 3425,2809 3764,2895 3967,2961 4090,3018 4237,3118 4349,3234 4434,3371 4494,3536 4520,3695 4521,3877 4491,4073 4434,4241 4331,4419 4189,4576 3994,4714 3741,4823 3467,4884 3128,4902 2805,4872 2560,4806 2315,4682 2118,4517 1966,4314 1860,4073 1804,3783 "/>
 </g>
</svg>
