<?xml version="1.0" encoding="UTF-8"?>
<!DOCTYPE svg PUBLIC "-//W3C//DTD SVG 1.0//EN" "http://www.w3.org/TR/2001/REC-SVG-20010904/DTD/svg10.dtd">
<!-- Creator: CorelDRAW X6 -->
<svg xmlns="http://www.w3.org/2000/svg" xml:space="preserve" width="126px" height="147px" version="1.0" shape-rendering="geometricPrecision" text-rendering="geometricPrecision" image-rendering="optimizeQuality" fill-rule="evenodd" clip-rule="evenodd"
viewBox="0 0 12600 14685"
 xmlns:xlink="http://www.w3.org/1999/xlink">
 <g id="_2094.cgm:type:overlay">
  <metadata id="CorelCorpID_0Corel-Layer"/>
  <IC_ColorNameTable/>
  <PictureProperties/>
  <path fill="none" fill-opacity="0.501961" stroke="#A100FF" stroke-width="531.448" stroke-linecap="square" stroke-linejoin="round" stroke-opacity="0.501961" d="M2035 13535c0,-488 -396,-884 -884,-884 -488,0 -884,396 -884,884 0,488 396,884 884,884 488,0 884,-396 884,-884z"/>
  <line fill="none" fill-opacity="0.501961" stroke="#A100FF" stroke-width="531.448" stroke-linecap="round" stroke-linejoin="round" stroke-opacity="0.501961" x1="1150" y1="12651" x2="1150" y2= "266" />
  <path fill="none" fill-opacity="0.501961" stroke="#A100FF" stroke-width="89.8719" stroke-linecap="round" stroke-linejoin="round" stroke-opacity="0.501961" d="M12683 2365c-1742,-1161 -3815,-1825 -5930,-1825 -2032,0 -4064,622 -5764,1700"/>
  <polyline fill="none" fill-opacity="0.501961" stroke="#A100FF" stroke-width="89.8719" stroke-linecap="round" stroke-linejoin="round" stroke-opacity="0.501961" points="907,2294 1102,2419 1420,2611 1744,2790 2074,2958 2410,3114 2751,3259 3098,3392 3447,3513 3802,3621 4160,3717 4521,3800 4885,3872 5251,3929 5619,3975 5988,4007 6358,4027 6728,4032 7099,4027 7469,4007 7839,3975 8207,3929 8573,3872 8936,3800 9297,3717 9655,3621 10010,3513 10360,3392 10706,3259 11047,3114 11383,2958 11714,2790 12038,2611 12573,2279 "/>
  <polygon fill="#A100FF" fill-opacity="0.501961" points="3383,3492 3024,3364 2502,3154 1944,2893 1451,2628 908,2294 1333,2030 1963,1682 2440,1456 2885,1271 3283,1124 3737,978 4207,850 4738,734 5300,641 5981,568 6573,542 7220,551 7739,587 8328,658 8728,726 9169,820 9716,963 10086,1078 10474,1215 10906,1389 11323,1575 11657,1744 12074,1973 12331,2125 12573,2279 12258,2480 11842,2722 11443,2929 11103,3089 10800,3221 10414,3373 9966,3528 9567,3648 9155,3751 8636,3860 8092,3944 7500,4005 7089,4027 6586,4031 6157,4018 5661,3980 5199,3921 4697,3837 4247,3738 3792,3618 "/>
 </g>
</svg>
