<?xml version="1.0" encoding="UTF-8"?>
<!DOCTYPE svg PUBLIC "-//W3C//DTD SVG 1.0//EN" "http://www.w3.org/TR/2001/REC-SVG-20010904/DTD/svg10.dtd">
<!-- Creator: CorelDRAW X6 -->
<svg xmlns="http://www.w3.org/2000/svg" xml:space="preserve" width="95px" height="95px" version="1.0" shape-rendering="geometricPrecision" text-rendering="geometricPrecision" image-rendering="optimizeQuality" fill-rule="evenodd" clip-rule="evenodd"
viewBox="0 0 9500 9500"
 xmlns:xlink="http://www.w3.org/1999/xlink">
 <g id="_2105.cgm:type:overlay">
  <metadata id="CorelCorpID_0Corel-Layer"/>
  <IC_ColorNameTable/>
  <PictureProperties/>
  <polygon fill="#000001" fill-opacity="0.501961" points="2861,7916 2861,7208 6876,7208 6876,7916 "/>
  <line fill="none" fill-opacity="0.501961" stroke="#000001" stroke-width="826.405" stroke-linecap="round" stroke-linejoin="round" stroke-opacity="0.501961" x1="3451" y1="7208" x2="4021" y2= "4982" />
  <line fill="none" fill-opacity="0.501961" stroke="#000001" stroke-width="826.405" stroke-linecap="round" stroke-linejoin="round" stroke-opacity="0.501961" x1="6285" y1="7208" x2="5716" y2= "4982" />
  <line fill="none" fill-opacity="0.501961" stroke="#000001" stroke-width="826.405" stroke-linecap="round" stroke-linejoin="round" stroke-opacity="0.501961" x1="3232" y1="1866" x2="6541" y2= "4182" />
  <path fill="none" fill-opacity="0.501961" stroke="#000001" stroke-width="826.405" stroke-linecap="round" stroke-linejoin="round" stroke-opacity="0.501961" d="M3214 1891c-330,487 -432,1113 -271,1683 302,1070 1421,1696 2492,1394 455,-128 864,-424 1124,-809"/>
  <polygon fill="#000001" fill-opacity="0.501961" points="5226,3150 4896,2917 5707,1760 6036,1991 "/>
  <path fill="#000001" fill-opacity="0.501961" stroke="#000001" stroke-width="89.9858" stroke-linecap="square" stroke-linejoin="round" stroke-opacity="0.501961" d="M5576 7562c0,-391 -317,-708 -708,-708 -391,0 -708,317 -708,708 0,391 317,708 708,708 391,0 708,-317 708,-708z"/>
  <path fill="none" fill-opacity="0.501961" stroke="#000001" stroke-width="826.405" stroke-linecap="square" stroke-linejoin="round" stroke-opacity="0.501961" d="M7838 7795c1682,-1705 1662,-4451 -43,-6132 -1705,-1682 -4451,-1662 -6133,43 -1682,1705 -1662,4451 43,6132 1705,1682 4451,1662 6133,-43z"/>
 </g>
</svg>
