<?xml version="1.0" encoding="UTF-8"?>
<!DOCTYPE svg PUBLIC "-//W3C//DTD SVG 1.0//EN" "http://www.w3.org/TR/2001/REC-SVG-20010904/DTD/svg10.dtd">
<!-- Creator: CorelDRAW X6 -->
<svg xmlns="http://www.w3.org/2000/svg" xml:space="preserve" width="61px" height="61px" version="1.0" shape-rendering="geometricPrecision" text-rendering="geometricPrecision" image-rendering="optimizeQuality" fill-rule="evenodd" clip-rule="evenodd"
viewBox="0 0 6100 6100"
 xmlns:xlink="http://www.w3.org/1999/xlink">
 <g id="_2234.cgm:type:overlay">
  <metadata id="CorelCorpID_0Corel-Layer"/>
  <IC_ColorNameTable/>
  <PictureProperties/>
  <path fill="none" fill-opacity="0.501961" stroke="#969F99" stroke-width="234.859" stroke-linecap="square" stroke-linejoin="round" stroke-opacity="0.501961" d="M5983 3050c0,-1620 -1313,-2933 -2933,-2933 -1620,0 -2933,1313 -2933,2933 0,1620 1313,2933 2933,2933 1620,0 2933,-1313 2933,-2933z"/>
  <polygon fill="#969F99" fill-opacity="0.501961" points="5124,976 976,5124 1218,5339 1635,5619 2010,5792 2707,5962 3174,5980 3712,5932 4235,5732 4771,5424 5277,4958 5657,4393 5875,3837 5980,3181 5959,2673 5823,2096 5579,1566 "/>
 </g>
</svg>
