<?xml version="1.0" encoding="UTF-8"?>
<!DOCTYPE svg PUBLIC "-//W3C//DTD SVG 1.0//EN" "http://www.w3.org/TR/2001/REC-SVG-20010904/DTD/svg10.dtd">
<!-- Creator: CorelDRAW X6 -->
<svg xmlns="http://www.w3.org/2000/svg" xml:space="preserve" width="84px" height="55px" version="1.0" shape-rendering="geometricPrecision" text-rendering="geometricPrecision" image-rendering="optimizeQuality" fill-rule="evenodd" clip-rule="evenodd"
viewBox="0 0 8400 5469"
 xmlns:xlink="http://www.w3.org/1999/xlink">
 <g id="_5034.cgm:type:overlay">
  <metadata id="CorelCorpID_0Corel-Layer"/>
  <IC_ColorNameTable/>
  <PictureProperties/>
  <path fill="none" fill-opacity="0.501961" stroke="#DE4BC9" stroke-width="293.941" stroke-linecap="round" stroke-linejoin="round" stroke-opacity="0.501961" d="M8271 2756c-758,-1048 -2031,-1709 -3337,-1709 -1290,0 -2515,629 -3289,1644"/>
  <path fill="none" fill-opacity="0.501961" stroke="#DE4BC9" stroke-width="293.941" stroke-linecap="round" stroke-linejoin="round" stroke-opacity="0.501961" d="M1597 2687c758,1048 2031,1709 3337,1709 1290,0 2515,-629 3289,-1644"/>
  <polyline fill="none" fill-opacity="0.501961" stroke="#DE4BC9" stroke-width="293.941" stroke-linecap="round" stroke-linejoin="round" stroke-opacity="0.501961" points="1615,2721 1507,2563 1333,2324 1151,2091 961,1864 763,1644 558,1432 147,1047 "/>
  <polyline fill="none" fill-opacity="0.501961" stroke="#DE4BC9" stroke-width="293.941" stroke-linecap="round" stroke-linejoin="round" stroke-opacity="0.501961" points="147,4396 306,4262 481,4104 650,3941 814,3772 971,3596 1123,3416 1268,3230 1406,3040 1616,2722 "/>
  <line fill="none" fill-opacity="0.501961" stroke="#DE4BC9" stroke-width="293.941" stroke-linecap="round" stroke-linejoin="round" stroke-opacity="0.501961" x1="3075" y1="5322" x2="7418" y2= "147" />
 </g>
</svg>
