<?xml version="1.0" encoding="UTF-8"?>
<!DOCTYPE svg PUBLIC "-//W3C//DTD SVG 1.0//EN" "http://www.w3.org/TR/2001/REC-SVG-20010904/DTD/svg10.dtd">
<!-- Creator: CorelDRAW X6 -->
<svg xmlns="http://www.w3.org/2000/svg" xml:space="preserve" width="41px" height="47px" version="1.0" shape-rendering="geometricPrecision" text-rendering="geometricPrecision" image-rendering="optimizeQuality" fill-rule="evenodd" clip-rule="evenodd"
viewBox="0 0 4100 4698"
 xmlns:xlink="http://www.w3.org/1999/xlink">
 <g id="_6030.cgm:type:overlay">
  <metadata id="CorelCorpID_0Corel-Layer"/>
  <IC_ColorNameTable/>
  <PictureProperties/>
  <polygon fill="#000001" fill-opacity="0.501961" stroke="#000001" stroke-width="238.228" stroke-linecap="square" stroke-linejoin="round" stroke-opacity="0.501961" points="2851,2349 3981,1234 2450,1656 2450,1656 2743,1949 "/>
  <polygon fill="#000001" fill-opacity="0.501961" stroke="#000001" stroke-width="238.228" stroke-linecap="square" stroke-linejoin="round" stroke-opacity="0.501961" points="2450,1656 2050,119 1650,1656 2050,1549 "/>
  <polygon fill="#000001" fill-opacity="0.501961" stroke="#000001" stroke-width="238.228" stroke-linecap="square" stroke-linejoin="round" stroke-opacity="0.501961" points="1357,1949 1650,1656 119,1234 1249,2349 "/>
  <polygon fill="#000001" fill-opacity="0.501961" stroke="#000001" stroke-width="238.228" stroke-linecap="square" stroke-linejoin="round" stroke-opacity="0.501961" points="2851,2349 3981,3464 2450,3043 2743,2749 "/>
  <polygon fill="#000001" fill-opacity="0.501961" stroke="#000001" stroke-width="238.228" stroke-linecap="square" stroke-linejoin="round" stroke-opacity="0.501961" points="2450,3043 2050,4579 1650,3043 2050,3150 "/>
  <polygon fill="#000001" fill-opacity="0.501961" stroke="#000001" stroke-width="238.228" stroke-linecap="square" stroke-linejoin="round" stroke-opacity="0.501961" points="1357,2749 1650,3043 119,3464 1249,2349 "/>
  <path fill="#000001" fill-opacity="0.501961" stroke="#000001" stroke-width="238.228" stroke-linecap="square" stroke-linejoin="round" stroke-opacity="0.501961" d="M2237 2349c0,-103 -84,-187 -187,-187 -103,0 -187,84 -187,187 0,103 84,187 187,187 103,0 187,-84 187,-187z"/>
  <path fill="#000001" fill-opacity="0.501961" stroke="#000001" stroke-width="211.679" stroke-linecap="square" stroke-linejoin="round" stroke-opacity="0.501961" d="M2200 2349c0,-83 -67,-150 -150,-150 -83,0 -150,67 -150,150 0,83 67,150 150,150 83,0 150,-67 150,-150z"/>
 </g>
</svg>
