<?xml version="1.0" encoding="UTF-8"?>
<!DOCTYPE svg PUBLIC "-//W3C//DTD SVG 1.0//EN" "http://www.w3.org/TR/2001/REC-SVG-20010904/DTD/svg10.dtd">
<!-- Creator: CorelDRAW X6 -->
<svg xmlns="http://www.w3.org/2000/svg" xml:space="preserve" width="82px" height="87px" version="1.0" shape-rendering="geometricPrecision" text-rendering="geometricPrecision" image-rendering="optimizeQuality" fill-rule="evenodd" clip-rule="evenodd"
viewBox="0 0 8200 8677"
 xmlns:xlink="http://www.w3.org/1999/xlink">
 <g id="_6031.cgm:type:overlay">
  <metadata id="CorelCorpID_0Corel-Layer"/>
  <IC_ColorNameTable/>
  <PictureProperties/>
  <path fill="none" fill-opacity="0.501961" stroke="blue" stroke-width="235.136" stroke-linecap="square" stroke-linejoin="round" stroke-opacity="0.501961" d="M3129 634c689,689 689,1806 0,2495 -689,689 -1806,689 -2495,0 -689,-689 -689,-1806 0,-2495 689,-689 1806,-689 2495,0z"/>
  <path fill="none" fill-opacity="0.501961" stroke="blue" stroke-width="235.136" stroke-linecap="round" stroke-linejoin="round" stroke-opacity="0.501961" d="M5568 5790c179,-1026 -354,-2058 -1298,-2514 -381,-184 -826,-256 -1241,-222"/>
  <path fill="none" fill-opacity="0.501961" stroke="blue" stroke-width="235.136" stroke-linecap="round" stroke-linejoin="round" stroke-opacity="0.501961" d="M5572 5790c-21,110 -33,247 -36,367 -28,1295 1006,2375 2301,2403 64,1 147,-6 202,-5"/>
 </g>
</svg>
