<?xml version="1.0" encoding="UTF-8"?>
<!DOCTYPE svg PUBLIC "-//W3C//DTD SVG 1.0//EN" "http://www.w3.org/TR/2001/REC-SVG-20010904/DTD/svg10.dtd">
<!-- Creator: CorelDRAW X6 -->
<svg xmlns="http://www.w3.org/2000/svg" xml:space="preserve" width="35px" height="35px" version="1.0" shape-rendering="geometricPrecision" text-rendering="geometricPrecision" image-rendering="optimizeQuality" fill-rule="evenodd" clip-rule="evenodd"
viewBox="0 0 3500 3500"
 xmlns:xlink="http://www.w3.org/1999/xlink">
 <g id="_6044.cgm:type:overlay">
  <metadata id="CorelCorpID_0Corel-Layer"/>
  <IC_ColorNameTable/>
  <PictureProperties/>
  <path fill="#000001" fill-opacity="0.501961" stroke="#000001" stroke-width="89.8101" stroke-linecap="square" stroke-linejoin="round" stroke-opacity="0.501961" d="M813 484c0,-182 -147,-329 -329,-329 -182,0 -329,147 -329,329 0,182 147,329 329,329 182,0 329,-147 329,-329z"/>
  <path fill="#000001" fill-opacity="0.501961" stroke="#000001" stroke-width="89.8101" stroke-linecap="square" stroke-linejoin="round" stroke-opacity="0.501961" d="M813 3016c0,-182 -147,-329 -329,-329 -182,0 -329,147 -329,329 0,182 147,329 329,329 182,0 329,-147 329,-329z"/>
  <path fill="#000001" fill-opacity="0.501961" stroke="#000001" stroke-width="89.8101" stroke-linecap="square" stroke-linejoin="round" stroke-opacity="0.501961" d="M3345 484c0,-182 -147,-329 -329,-329 -182,0 -329,147 -329,329 0,182 147,329 329,329 182,0 329,-147 329,-329z"/>
  <path fill="#000001" fill-opacity="0.501961" stroke="#000001" stroke-width="89.8101" stroke-linecap="square" stroke-linejoin="round" stroke-opacity="0.501961" d="M3345 3016c0,-182 -147,-329 -329,-329 -182,0 -329,147 -329,329 0,182 147,329 329,329 182,0 329,-147 329,-329z"/>
  <line fill="none" fill-opacity="0.501961" stroke="#000001" stroke-width="353.701" stroke-linecap="round" stroke-linejoin="round" stroke-opacity="0.501961" x1="177" y1="1750" x2="3323" y2= "1750" />
  <line fill="none" fill-opacity="0.501961" stroke="#000001" stroke-width="353.701" stroke-linecap="round" stroke-linejoin="round" stroke-opacity="0.501961" x1="1750" y1="3323" x2="1750" y2= "177" />
 </g>
</svg>
