<?xml version="1.0" encoding="UTF-8"?>
<!DOCTYPE svg PUBLIC "-//W3C//DTD SVG 1.0//EN" "http://www.w3.org/TR/2001/REC-SVG-20010904/DTD/svg10.dtd">
<!-- Creator: CorelDRAW X6 -->
<svg xmlns="http://www.w3.org/2000/svg" xml:space="preserve" width="60px" height="98px" version="1.0" shape-rendering="geometricPrecision" text-rendering="geometricPrecision" image-rendering="optimizeQuality" fill-rule="evenodd" clip-rule="evenodd"
viewBox="0 0 6000 9754"
 xmlns:xlink="http://www.w3.org/1999/xlink">
 <g id="_7012.cgm:type:overlay">
  <metadata id="CorelCorpID_0Corel-Layer"/>
  <IC_ColorNameTable/>
  <PictureProperties/>
  <polygon fill="red" fill-opacity="0.501961" stroke="white" stroke-width="353.142" stroke-linecap="square" stroke-linejoin="round" stroke-opacity="0.501961" points="643,8663 918,8117 1233,7409 1482,6688 1730,5914 1928,5179 2072,4445 2256,3383 2361,2676 2440,1827 2518,961 2557,176 3443,176 3482,961 3560,1827 3639,2676 3744,3383 3928,4445 4072,5179 4270,5914 4518,6688 4767,7409 5082,8117 5357,8663 "/>
  <path fill="red" fill-opacity="0.501961" stroke="white" stroke-width="353.142" stroke-linecap="square" stroke-linejoin="round" stroke-opacity="0.501961" d="M3914 8663c0,-505 -409,-914 -914,-914 -505,0 -914,409 -914,914 0,505 409,914 914,914 505,0 914,-409 914,-914z"/>
  <path fill="red" fill-opacity="0.501961" stroke="white" stroke-width="353.142" stroke-linecap="square" stroke-linejoin="round" stroke-opacity="0.501961" d="M5637 3654c0,-1456 -1180,-2637 -2637,-2637 -1456,0 -2637,1180 -2637,2637 0,1456 1180,2637 2637,2637 1456,0 2637,-1180 2637,-2637z"/>
  <polygon fill="red" fill-opacity="0.501961" stroke="white" stroke-width="353.142" stroke-linecap="square" stroke-linejoin="round" stroke-opacity="0.501961" points="176,7034 5824,7034 5824,6290 176,6290 "/>
  <polyline fill="none" fill-opacity="0.501961" stroke="white" stroke-width="353.142" stroke-linecap="round" stroke-linejoin="round" stroke-opacity="0.501961" points="3000,1017 1803,4127 3038,4127 2164,6154 "/>
  <polyline fill="none" fill-opacity="0.501961" stroke="white" stroke-width="353.142" stroke-linecap="round" stroke-linejoin="round" stroke-opacity="0.501961" points="3000,1017 1803,4127 3038,4127 2164,6154 "/>
  <polyline fill="none" fill-opacity="0.501961" stroke="white" stroke-width="353.142" stroke-linecap="round" stroke-linejoin="round" stroke-opacity="0.501961" points="3871,1165 3063,3264 4298,3264 2994,6290 "/>
 </g>
</svg>
