<?xml version="1.0" encoding="UTF-8"?>
<!DOCTYPE svg PUBLIC "-//W3C//DTD SVG 1.0//EN" "http://www.w3.org/TR/2001/REC-SVG-20010904/DTD/svg10.dtd">
<!-- Creator: CorelDRAW X6 -->
<svg xmlns="http://www.w3.org/2000/svg" xml:space="preserve" width="78px" height="116px" version="1.0" shape-rendering="geometricPrecision" text-rendering="geometricPrecision" image-rendering="optimizeQuality" fill-rule="evenodd" clip-rule="evenodd"
viewBox="0 0 7800 11609"
 xmlns:xlink="http://www.w3.org/1999/xlink">
 <g id="_7014.cgm:type:overlay">
  <metadata id="CorelCorpID_0Corel-Layer"/>
  <IC_ColorNameTable/>
  <PictureProperties/>
  <polygon fill="red" fill-opacity="0.501961" stroke="white" stroke-width="306.196" stroke-linecap="square" stroke-linejoin="round" stroke-opacity="0.501961" points="153,10535 432,9984 749,9271 1000,8544 1250,7764 1448,7023 1594,6283 1779,5213 1886,4500 1966,3644 2044,2771 2084,1980 2975,1980 3016,2771 3094,3644 3173,4500 3280,5213 3465,6283 3611,7023 3809,7764 4059,8544 4311,9271 4627,9984 4906,10535 "/>
  <path fill="red" fill-opacity="0.501961" stroke="white" stroke-width="306.196" stroke-linecap="square" stroke-linejoin="round" stroke-opacity="0.501961" d="M3451 10535c0,-509 -412,-921 -921,-921 -509,0 -921,412 -921,921 0,509 412,921 921,921 509,0 921,-412 921,-921z"/>
  <polygon fill="red" fill-opacity="0.501961" stroke="white" stroke-width="306.196" stroke-linecap="square" stroke-linejoin="round" stroke-opacity="0.501961" points="2078,1515 3021,1515 3170,1640 3317,1744 3453,1765 3612,1754 3771,1692 3942,1588 4033,1515 4238,1640 4361,1713 4556,1765 4748,1787 4975,1765 5203,1692 5385,1598 5579,1451 5760,1515 5919,1588 6283,1609 6602,1609 6862,1556 7033,1472 7214,1347 7408,1189 7567,1022 7635,875 7647,750 7613,644 7500,551 7260,436 7033,351 6795,289 6578,268 6261,268 5999,341 5828,457 5601,351 5408,299 5100,299 4771,351 4464,457 4272,530 4203,382 4113,257 3976,164 3805,153 3601,184 3374,237 3146,362 2975,467 2862,530 2578,551 2306,624 2123,719 1976,844 1930,1001 1942,1179 1988,1388 "/>
 </g>
</svg>
