<?xml version="1.0" encoding="UTF-8"?>
<!DOCTYPE svg PUBLIC "-//W3C//DTD SVG 1.0//EN" "http://www.w3.org/TR/2001/REC-SVG-20010904/DTD/svg10.dtd">
<!-- Creator: CorelDRAW X6 -->
<svg xmlns="http://www.w3.org/2000/svg" xml:space="preserve" width="80px" height="98px" version="1.0" shape-rendering="geometricPrecision" text-rendering="geometricPrecision" image-rendering="optimizeQuality" fill-rule="evenodd" clip-rule="evenodd"
viewBox="0 0 8000 9819"
 xmlns:xlink="http://www.w3.org/1999/xlink">
 <g id="_7016.cgm:type:overlay">
  <metadata id="CorelCorpID_0Corel-Layer"/>
  <IC_ColorNameTable/>
  <PictureProperties/>
  <polygon fill="red" fill-opacity="0.501961" stroke="white" stroke-width="355.043" stroke-linecap="square" stroke-linejoin="round" stroke-opacity="0.501961" points="1627,8722 1904,8172 2221,7459 2472,6733 2723,5954 2920,5214 3066,4475 3251,3406 3357,2694 3436,1840 3515,968 3554,177 4446,177 4485,968 4564,1840 4643,2694 4749,3406 4934,4475 5080,5214 5278,5954 5528,6733 5779,7459 6096,8172 6373,8722 "/>
  <polygon fill="red" fill-opacity="0.501961" stroke="white" stroke-width="355.043" stroke-linecap="square" stroke-linejoin="round" stroke-opacity="0.501961" points="815,1183 7185,5430 7185,6705 815,2457 "/>
  <path fill="red" fill-opacity="0.501961" stroke="white" stroke-width="355.043" stroke-linecap="square" stroke-linejoin="round" stroke-opacity="0.501961" d="M4920 8722c0,-508 -412,-920 -920,-920 -508,0 -920,412 -920,920 0,508 412,920 920,920 508,0 920,-412 920,-920z"/>
  <path fill="red" fill-opacity="0.501961" stroke="white" stroke-width="355.043" stroke-linecap="square" stroke-linejoin="round" stroke-opacity="0.501961" d="M1452 1820c0,-352 -285,-637 -637,-637 -352,0 -637,285 -637,637 0,352 285,637 637,637 352,0 637,-285 637,-637z"/>
  <path fill="red" fill-opacity="0.501961" stroke="white" stroke-width="355.043" stroke-linecap="square" stroke-linejoin="round" stroke-opacity="0.501961" d="M7822 6067c0,-352 -285,-637 -637,-637 -352,0 -637,285 -637,637 0,352 285,637 637,637 352,0 637,-285 637,-637z"/>
 </g>
</svg>
