<?xml version="1.0" encoding="UTF-8"?>
<!DOCTYPE svg PUBLIC "-//W3C//DTD SVG 1.0//EN" "http://www.w3.org/TR/2001/REC-SVG-20010904/DTD/svg10.dtd">
<!-- Creator: CorelDRAW X6 -->
<svg xmlns="http://www.w3.org/2000/svg" xml:space="preserve" width="69px" height="98px" version="1.0" shape-rendering="geometricPrecision" text-rendering="geometricPrecision" image-rendering="optimizeQuality" fill-rule="evenodd" clip-rule="evenodd"
viewBox="0 0 6900 9799"
 xmlns:xlink="http://www.w3.org/1999/xlink">
 <g id="_7026.cgm:type:overlay">
  <metadata id="CorelCorpID_0Corel-Layer"/>
  <IC_ColorNameTable/>
  <PictureProperties/>
  <polygon fill="red" fill-opacity="0.501961" stroke="white" stroke-width="354.763" stroke-linecap="square" stroke-linejoin="round" stroke-opacity="0.501961" points="1081,8704 1359,8154 1674,7444 1925,6719 2175,5942 2373,5203 2518,4465 2703,3399 2809,2689 2887,1836 2965,966 3006,177 3894,177 3935,966 4013,1836 4091,2689 4197,3399 4382,4465 4527,5203 4725,5942 4975,6719 5226,7444 5541,8154 5819,8704 "/>
  <path fill="red" fill-opacity="0.501961" stroke="white" stroke-width="354.763" stroke-linecap="square" stroke-linejoin="round" stroke-opacity="0.501961" d="M4368 8704c0,-507 -411,-918 -918,-918 -507,0 -918,411 -918,918 0,507 411,918 918,918 507,0 918,-411 918,-918z"/>
  <polygon fill="red" fill-opacity="0.501961" stroke="white" stroke-width="354.763" stroke-linecap="square" stroke-linejoin="round" stroke-opacity="0.501961" points="6056,4122 6722,3140 6722,1740 5152,1740 5152,2158 4235,2158 4235,1740 2665,1740 2665,2158 1748,2158 1748,1740 178,1740 178,3140 844,4122 844,5939 6056,5939 "/>
 </g>
</svg>
