<?xml version="1.0" encoding="UTF-8"?>
<!DOCTYPE svg PUBLIC "-//W3C//DTD SVG 1.0//EN" "http://www.w3.org/TR/2001/REC-SVG-20010904/DTD/svg10.dtd">
<!-- Creator: CorelDRAW X6 -->
<svg xmlns="http://www.w3.org/2000/svg" xml:space="preserve" width="79px" height="98px" version="1.0" shape-rendering="geometricPrecision" text-rendering="geometricPrecision" image-rendering="optimizeQuality" fill-rule="evenodd" clip-rule="evenodd"
viewBox="0 0 7900 9849"
 xmlns:xlink="http://www.w3.org/1999/xlink">
 <g id="_7036.cgm:type:overlay">
  <metadata id="CorelCorpID_0Corel-Layer"/>
  <IC_ColorNameTable/>
  <PictureProperties/>
  <polygon fill="red" fill-opacity="0.501961" stroke="white" stroke-width="356.588" stroke-linecap="square" stroke-linejoin="round" stroke-opacity="0.501961" points="1569,8748 1848,8196 2165,7482 2417,6753 2668,5973 2867,5230 3013,4489 3199,3417 3306,2703 3385,1846 3464,971 3504,178 4396,178 4436,971 4515,1846 4594,2703 4701,3417 4887,4489 5033,5230 5232,5973 5483,6753 5735,7482 6052,8196 6331,8748 "/>
  <path fill="red" fill-opacity="0.501961" stroke="white" stroke-width="356.588" stroke-linecap="square" stroke-linejoin="round" stroke-opacity="0.501961" d="M4873 8748c0,-510 -413,-923 -923,-923 -510,0 -923,413 -923,923 0,510 413,923 923,923 510,0 923,-413 923,-923z"/>
  <path fill="red" fill-opacity="0.501961" stroke="white" stroke-width="356.588" stroke-linecap="square" stroke-linejoin="round" stroke-opacity="0.501961" d="M7145 3956c0,-1765 -1431,-3195 -3195,-3195 -1765,0 -3195,1431 -3195,3195 0,1765 1431,3195 3195,3195 1765,0 3195,-1431 3195,-3195z"/>
  <line fill="none" fill-opacity="0.501961" stroke="white" stroke-width="445.35" stroke-linecap="round" stroke-linejoin="round" stroke-opacity="0.501961" x1="3950" y1="3956" x2="7678" y2= "3956" />
  <line fill="none" fill-opacity="0.501961" stroke="white" stroke-width="445.35" stroke-linecap="round" stroke-linejoin="round" stroke-opacity="0.501961" x1="3950" y1="3956" x2="222" y2= "3956" />
  <line fill="none" fill-opacity="0.501961" stroke="white" stroke-width="445.35" stroke-linecap="round" stroke-linejoin="round" stroke-opacity="0.501961" x1="3950" y1="3956" x2="2086" y2= "7184" />
  <line fill="none" fill-opacity="0.501961" stroke="white" stroke-width="445.35" stroke-linecap="round" stroke-linejoin="round" stroke-opacity="0.501961" x1="3950" y1="3956" x2="5814" y2= "7184" />
  <line fill="none" fill-opacity="0.501961" stroke="white" stroke-width="445.35" stroke-linecap="round" stroke-linejoin="round" stroke-opacity="0.501961" x1="4017" y1="3956" x2="5881" y2= "728" />
  <line fill="none" fill-opacity="0.501961" stroke="white" stroke-width="445.35" stroke-linecap="round" stroke-linejoin="round" stroke-opacity="0.501961" x1="3950" y1="3956" x2="2086" y2= "728" />
 </g>
</svg>
