<?xml version="1.0" encoding="UTF-8"?>
<!DOCTYPE svg PUBLIC "-//W3C//DTD SVG 1.0//EN" "http://www.w3.org/TR/2001/REC-SVG-20010904/DTD/svg10.dtd">
<!-- Creator: CorelDRAW X6 -->
<svg xmlns="http://www.w3.org/2000/svg" xml:space="preserve" width="69px" height="98px" version="1.0" shape-rendering="geometricPrecision" text-rendering="geometricPrecision" image-rendering="optimizeQuality" fill-rule="evenodd" clip-rule="evenodd"
viewBox="0 0 6900 9863"
 xmlns:xlink="http://www.w3.org/1999/xlink">
 <g id="_7038.cgm:type:overlay">
  <metadata id="CorelCorpID_0Corel-Layer"/>
  <IC_ColorNameTable/>
  <PictureProperties/>
  <polygon fill="red" fill-opacity="0.501961" stroke="white" stroke-width="356.647" stroke-linecap="square" stroke-linejoin="round" stroke-opacity="0.501961" points="890,8761 1168,8209 1487,7493 1738,6763 1990,5981 2189,5238 2335,4495 2521,3421 2628,2706 2708,1848 2786,972 2826,178 3721,178 3762,972 3840,1848 3920,2706 4027,3421 4213,4495 4359,5238 4558,5981 4810,6763 5061,7493 5379,8209 5658,8761 "/>
  <path fill="red" fill-opacity="0.501961" stroke="white" stroke-width="356.647" stroke-linecap="square" stroke-linejoin="round" stroke-opacity="0.501961" d="M4198 8761c0,-510 -414,-924 -924,-924 -510,0 -924,414 -924,924 0,510 414,924 924,924 510,0 924,-414 924,-924z"/>
  <line fill="none" fill-opacity="0.501961" stroke="white" stroke-width="378.276" stroke-linecap="round" stroke-linejoin="round" stroke-opacity="0.501961" x1="890" y1="8761" x2="890" y2= "6628" />
  <line fill="none" fill-opacity="0.501961" stroke="white" stroke-width="378.276" stroke-linecap="round" stroke-linejoin="round" stroke-opacity="0.501961" x1="3274" y1="7837" x2="3274" y2= "5028" />
  <line fill="none" fill-opacity="0.501961" stroke="white" stroke-width="378.276" stroke-linecap="round" stroke-linejoin="round" stroke-opacity="0.501961" x1="5658" y1="8761" x2="5658" y2= "2362" />
  <line fill="none" fill-opacity="0.501961" stroke="white" stroke-width="378.276" stroke-linecap="round" stroke-linejoin="round" stroke-opacity="0.501961" x1="5658" y1="2405" x2="6710" y2= "1235" />
  <line fill="none" fill-opacity="0.501961" stroke="white" stroke-width="378.276" stroke-linecap="round" stroke-linejoin="round" stroke-opacity="0.501961" x1="2477" y1="5940" x2="5658" y2= "2405" />
  <line fill="none" fill-opacity="0.501961" stroke="white" stroke-width="378.276" stroke-linecap="round" stroke-linejoin="round" stroke-opacity="0.501961" x1="1845" y1="6506" x2="2477" y2= "5940" />
  <line fill="none" fill-opacity="0.501961" stroke="white" stroke-width="378.276" stroke-linecap="round" stroke-linejoin="round" stroke-opacity="0.501961" x1="1420" y1="6632" x2="1845" y2= "6506" />
  <line fill="none" fill-opacity="0.501961" stroke="white" stroke-width="378.276" stroke-linecap="round" stroke-linejoin="round" stroke-opacity="0.501961" x1="1131" y1="6690" x2="1420" y2= "6632" />
  <line fill="none" fill-opacity="0.501961" stroke="white" stroke-width="378.276" stroke-linecap="round" stroke-linejoin="round" stroke-opacity="0.501961" x1="890" y1="6690" x2="1131" y2= "6690" />
  <line fill="none" fill-opacity="0.501961" stroke="white" stroke-width="378.276" stroke-linecap="round" stroke-linejoin="round" stroke-opacity="0.501961" x1="670" y1="6690" x2="890" y2= "6690" />
  <line fill="none" fill-opacity="0.501961" stroke="white" stroke-width="378.276" stroke-linecap="round" stroke-linejoin="round" stroke-opacity="0.501961" x1="382" y1="6536" x2="670" y2= "6690" />
  <line fill="none" fill-opacity="0.501961" stroke="white" stroke-width="378.276" stroke-linecap="round" stroke-linejoin="round" stroke-opacity="0.501961" x1="190" y1="6344" x2="382" y2= "6536" />
 </g>
</svg>
