<?xml version="1.0" encoding="UTF-8"?>
<!DOCTYPE svg PUBLIC "-//W3C//DTD SVG 1.0//EN" "http://www.w3.org/TR/2001/REC-SVG-20010904/DTD/svg10.dtd">
<!-- Creator: CorelDRAW X6 -->
<svg xmlns="http://www.w3.org/2000/svg" xml:space="preserve" width="51px" height="98px" version="1.0" shape-rendering="geometricPrecision" text-rendering="geometricPrecision" image-rendering="optimizeQuality" fill-rule="evenodd" clip-rule="evenodd"
viewBox="0 0 5100 9814"
 xmlns:xlink="http://www.w3.org/1999/xlink">
 <g id="_7044.cgm:type:overlay">
  <metadata id="CorelCorpID_0Corel-Layer"/>
  <IC_ColorNameTable/>
  <PictureProperties/>
  <polygon fill="red" fill-opacity="0.501961" stroke="white" stroke-width="354.86" stroke-linecap="square" stroke-linejoin="round" stroke-opacity="0.501961" points="177,8717 177,177 4923,177 4923,8717 "/>
  <path fill="red" fill-opacity="0.501961" stroke="white" stroke-width="354.86" stroke-linecap="square" stroke-linejoin="round" stroke-opacity="0.501961" d="M3469 8717c0,-508 -412,-919 -919,-919 -508,0 -919,412 -919,919 0,508 412,919 919,919 508,0 919,-412 919,-919z"/>
  <polygon fill="white" fill-opacity="0.501961" points="1532,1667 1532,2680 855,2680 855,1667 "/>
  <polygon fill="white" fill-opacity="0.501961" points="1532,3693 1532,4706 855,4706 855,3693 "/>
  <polygon fill="white" fill-opacity="0.501961" points="1532,5719 1532,6731 855,6731 855,5719 "/>
  <polygon fill="white" fill-opacity="0.501961" points="3568,1667 3568,2680 4245,2680 4245,1667 "/>
  <polygon fill="white" fill-opacity="0.501961" points="3568,3693 3568,4706 4245,4706 4245,3693 "/>
  <polygon fill="white" fill-opacity="0.501961" points="3568,5719 3568,6731 4245,6731 4245,5719 "/>
  <polygon fill="white" fill-opacity="0.501961" points="2890,1667 2890,2680 2210,2680 2210,1667 "/>
  <polygon fill="white" fill-opacity="0.501961" points="2890,3693 2890,4706 2210,4706 2210,3693 "/>
  <polygon fill="white" fill-opacity="0.501961" points="2890,5719 2890,6731 2210,6731 2210,5719 "/>
 </g>
</svg>
