<?xml version="1.0" encoding="UTF-8"?>
<!DOCTYPE svg PUBLIC "-//W3C//DTD SVG 1.0//EN" "http://www.w3.org/TR/2001/REC-SVG-20010904/DTD/svg10.dtd">
<!-- Creator: CorelDRAW X6 -->
<svg xmlns="http://www.w3.org/2000/svg" xml:space="preserve" width="103px" height="135px" version="1.0" shape-rendering="geometricPrecision" text-rendering="geometricPrecision" image-rendering="optimizeQuality" fill-rule="evenodd" clip-rule="evenodd"
viewBox="0 0 10300 13503"
 xmlns:xlink="http://www.w3.org/1999/xlink">
 <g id="_7046.cgm:type:overlay">
  <metadata id="CorelCorpID_0Corel-Layer"/>
  <IC_ColorNameTable/>
  <PictureProperties/>
  <polygon fill="red" fill-opacity="0.501961" stroke="white" stroke-width="353.841" stroke-linecap="square" stroke-linejoin="round" stroke-opacity="0.501961" points="2815,12412 2815,3911 7537,3911 7537,12412 "/>
  <path fill="red" fill-opacity="0.501961" stroke="white" stroke-width="353.841" stroke-linecap="square" stroke-linejoin="round" stroke-opacity="0.501961" d="M6091 12412c0,-505 -409,-915 -915,-915 -505,0 -915,409 -915,915 0,505 409,915 915,915 505,0 915,-409 915,-915z"/>
  <polygon fill="white" fill-opacity="0.501961" points="4164,5394 4164,6402 3489,6402 3489,5394 "/>
  <polygon fill="white" fill-opacity="0.501961" points="4164,7409 4164,8419 3489,8419 3489,7409 "/>
  <polygon fill="white" fill-opacity="0.501961" points="4164,9428 4164,10434 3489,10434 3489,9428 "/>
  <polygon fill="white" fill-opacity="0.501961" points="6188,5394 6188,6402 6863,6402 6863,5394 "/>
  <polygon fill="white" fill-opacity="0.501961" points="6188,7409 6188,8419 6863,8419 6863,7409 "/>
  <polygon fill="white" fill-opacity="0.501961" points="6188,9428 6188,10434 6863,10434 6863,9428 "/>
  <polygon fill="white" fill-opacity="0.501961" points="5514,5394 5514,6402 4838,6402 4838,5394 "/>
  <polygon fill="white" fill-opacity="0.501961" points="5514,7409 5514,8419 4838,8419 4838,7409 "/>
  <polygon fill="white" fill-opacity="0.501961" points="5514,9428 5514,10434 4838,10434 4838,9428 "/>
  <polyline fill="none" fill-opacity="0.501961" stroke="white" stroke-width="1059.88" stroke-linecap="round" stroke-linejoin="round" stroke-opacity="0.501961" points="2456,1501 2436,1521 2407,1554 2379,1591 2352,1627 2327,1662 2303,1701 2278,1739 2257,1777 2238,1817 2218,1857 2203,1899 2184,1940 2170,1982 2156,2023 2147,2066 2137,2112 2128,2154 2121,2199 2115,2241 2110,2287 2109,2333 2107,2376 2109,2421 2110,2466 2115,2510 2121,2554 2128,2597 2137,2643 2147,2685 2156,2728 2170,2770 2184,2813 2203,2853 2218,2895 2238,2936 2257,2974 2278,3014 2303,3053 2327,3090 2352,3126 2379,3162 2407,3197 2436,3230 2447,3243 "/>
  <polyline fill="none" fill-opacity="0.501961" stroke="white" stroke-width="1059.88" stroke-linecap="round" stroke-linejoin="round" stroke-opacity="0.501961" points="7849,3249 7864,3230 7894,3197 7923,3162 7948,3126 7973,3090 7999,3053 8024,3014 8044,2974 8065,2936 8082,2895 8100,2853 8116,2813 8131,2770 8144,2728 8153,2685 8166,2643 8174,2597 8180,2554 8185,2510 8190,2466 8191,2421 8193,2376 8191,2333 8190,2287 8185,2241 8180,2199 8174,2154 8166,2112 8153,2066 8144,2023 8131,1982 8116,1940 8100,1899 8082,1857 8065,1817 8044,1777 8024,1739 7999,1701 7973,1662 7948,1627 7923,1591 7894,1554 7864,1521 7852,1508 "/>
  <polyline fill="none" fill-opacity="0.501961" stroke="white" stroke-width="1059.88" stroke-linecap="round" stroke-linejoin="round" stroke-opacity="0.501961" points="1775,859 1741,896 1692,956 1641,1014 1595,1077 1551,1139 1507,1202 1469,1270 1433,1338 1398,1406 1363,1475 1333,1546 1306,1617 1281,1693 1259,1764 1238,1840 1221,1916 1205,1993 1196,2069 1185,2145 1177,2221 1174,2300 1172,2376 1174,2453 1177,2530 1185,2606 1196,2684 1205,2759 1221,2837 1238,2911 1259,2987 1281,3060 1306,3134 1333,3205 1363,3276 1398,3345 1433,3415 1469,3481 1507,3548 1551,3612 1595,3676 1641,3737 1692,3799 1741,3857 1760,3878 "/>
  <polyline fill="none" fill-opacity="0.501961" stroke="white" stroke-width="1059.88" stroke-linecap="round" stroke-linejoin="round" stroke-opacity="0.501961" points="8531,3887 8559,3857 8610,3799 8661,3737 8706,3676 8749,3612 8792,3548 8833,3481 8871,3415 8904,3345 8937,3276 8967,3205 8995,3134 9021,3060 9043,2987 9063,2911 9081,2837 9095,2759 9106,2684 9115,2606 9123,2530 9126,2453 9128,2376 9126,2300 9123,2221 9115,2145 9106,2069 9095,1993 9081,1916 9063,1840 9043,1764 9021,1693 8995,1617 8967,1546 8937,1475 8904,1406 8871,1338 8833,1270 8792,1202 8749,1139 8706,1077 8661,1014 8610,956 8559,896 8537,870 "/>
  <polyline fill="none" fill-opacity="0.501961" stroke="white" stroke-width="1059.88" stroke-linecap="round" stroke-linejoin="round" stroke-opacity="0.501961" points="9259,4568 9300,4522 9373,4440 9444,4352 9512,4262 9577,4172 9637,4075 9695,3980 9749,3882 9799,3783 9848,3680 9891,3578 9932,3473 9968,3368 10000,3260 10030,3153 10055,3042 10076,2933 10093,2823 10106,2712 10118,2600 10122,2488 10125,2376 10122,2263 10118,2153 10106,2041 10093,1929 10076,1818 10055,1709 10030,1600 10000,1491 9968,1384 9932,1279 9891,1174 9848,1071 9799,970 9749,869 9695,771 9637,676 9577,581 9512,491 9444,401 9373,314 9300,231 "/>
  <polyline fill="none" fill-opacity="0.501961" stroke="white" stroke-width="1059.88" stroke-linecap="round" stroke-linejoin="round" stroke-opacity="0.501961" points="1049,177 1001,231 927,314 855,401 788,491 725,581 663,676 607,771 553,869 502,970 455,1071 409,1174 371,1279 335,1384 302,1491 272,1600 246,1709 226,1818 207,1929 194,2041 183,2153 180,2263 175,2376 180,2488 183,2600 194,2712 207,2823 226,2933 246,3042 272,3153 302,3260 335,3368 371,3473 409,3578 455,3680 502,3783 553,3882 607,3980 663,4075 725,4172 788,4262 855,4352 927,4440 1001,4522 1030,4554 "/>
  <polyline fill="none" fill-opacity="0.501961" stroke="red" stroke-width="352.193" stroke-linecap="round" stroke-linejoin="round" stroke-opacity="0.501961" points="2456,1501 2436,1521 2407,1554 2379,1591 2352,1627 2327,1662 2303,1701 2278,1739 2257,1777 2238,1817 2218,1857 2203,1899 2184,1940 2170,1982 2156,2023 2147,2066 2137,2112 2128,2154 2121,2199 2115,2241 2110,2287 2109,2333 2107,2376 2109,2421 2110,2466 2115,2510 2121,2554 2128,2597 2137,2643 2147,2685 2156,2728 2170,2770 2184,2813 2203,2853 2218,2895 2238,2936 2257,2974 2278,3014 2303,3053 2327,3090 2352,3126 2379,3162 2407,3197 2436,3230 2447,3243 "/>
  <polyline fill="none" fill-opacity="0.501961" stroke="red" stroke-width="352.193" stroke-linecap="round" stroke-linejoin="round" stroke-opacity="0.501961" points="7849,3249 7864,3230 7894,3197 7923,3162 7948,3126 7973,3090 7999,3053 8024,3014 8044,2974 8065,2936 8082,2895 8100,2853 8116,2813 8131,2770 8144,2728 8153,2685 8166,2643 8174,2597 8180,2554 8185,2510 8190,2466 8191,2421 8193,2376 8191,2333 8190,2287 8185,2241 8180,2199 8174,2154 8166,2112 8153,2066 8144,2023 8131,1982 8116,1940 8100,1899 8082,1857 8065,1817 8044,1777 8024,1739 7999,1701 7973,1662 7948,1627 7923,1591 7894,1554 7864,1521 7852,1508 "/>
  <polyline fill="none" fill-opacity="0.501961" stroke="red" stroke-width="352.193" stroke-linecap="round" stroke-linejoin="round" stroke-opacity="0.501961" points="1775,859 1741,896 1692,956 1641,1014 1595,1077 1551,1139 1507,1202 1469,1270 1433,1338 1398,1406 1363,1475 1333,1546 1306,1617 1281,1693 1259,1764 1238,1840 1221,1916 1205,1993 1196,2069 1185,2145 1177,2221 1174,2300 1172,2376 1174,2453 1177,2530 1185,2606 1196,2684 1205,2759 1221,2837 1238,2911 1259,2987 1281,3060 1306,3134 1333,3205 1363,3276 1398,3345 1433,3415 1469,3481 1507,3548 1551,3612 1595,3676 1641,3737 1692,3799 1741,3857 1760,3878 "/>
  <polyline fill="none" fill-opacity="0.501961" stroke="red" stroke-width="352.193" stroke-linecap="round" stroke-linejoin="round" stroke-opacity="0.501961" points="8531,3887 8559,3857 8610,3799 8661,3737 8706,3676 8749,3612 8792,3548 8833,3481 8871,3415 8904,3345 8937,3276 8967,3205 8995,3134 9021,3060 9043,2987 9063,2911 9081,2837 9095,2759 9106,2684 9115,2606 9123,2530 9126,2453 9128,2376 9126,2300 9123,2221 9115,2145 9106,2069 9095,1993 9081,1916 9063,1840 9043,1764 9021,1693 8995,1617 8967,1546 8937,1475 8904,1406 8871,1338 8833,1270 8792,1202 8749,1139 8706,1077 8661,1014 8610,956 8559,896 8537,870 "/>
  <polyline fill="none" fill-opacity="0.501961" stroke="red" stroke-width="352.193" stroke-linecap="round" stroke-linejoin="round" stroke-opacity="0.501961" points="9259,4568 9300,4522 9373,4440 9444,4352 9512,4262 9577,4172 9637,4075 9695,3980 9749,3882 9799,3783 9848,3680 9891,3578 9932,3473 9968,3368 10000,3260 10030,3153 10055,3042 10076,2933 10093,2823 10106,2712 10118,2600 10122,2488 10125,2376 10122,2263 10118,2153 10106,2041 10093,1929 10076,1818 10055,1709 10030,1600 10000,1491 9968,1384 9932,1279 9891,1174 9848,1071 9799,970 9749,869 9695,771 9637,676 9577,581 9512,491 9444,401 9373,314 9300,231 "/>
  <polyline fill="none" fill-opacity="0.501961" stroke="red" stroke-width="352.193" stroke-linecap="round" stroke-linejoin="round" stroke-opacity="0.501961" points="1049,177 1001,231 927,314 855,401 788,491 725,581 663,676 607,771 553,869 502,970 455,1071 409,1174 371,1279 335,1384 302,1491 272,1600 246,1709 226,1818 207,1929 194,2041 183,2153 180,2263 175,2376 180,2488 183,2600 194,2712 207,2823 226,2933 246,3042 272,3153 302,3260 335,3368 371,3473 409,3578 455,3680 502,3783 553,3882 607,3980 663,4075 725,4172 788,4262 855,4352 927,4440 1001,4522 1030,4554 "/>
 </g>
</svg>
