<?xml version="1.0" encoding="UTF-8"?>
<!DOCTYPE svg PUBLIC "-//W3C//DTD SVG 1.0//EN" "http://www.w3.org/TR/2001/REC-SVG-20010904/DTD/svg10.dtd">
<!-- Creator: CorelDRAW X6 -->
<svg xmlns="http://www.w3.org/2000/svg" xml:space="preserve" width="74px" height="98px" version="1.0" shape-rendering="geometricPrecision" text-rendering="geometricPrecision" image-rendering="optimizeQuality" fill-rule="evenodd" clip-rule="evenodd"
viewBox="0 0 7400 9741"
 xmlns:xlink="http://www.w3.org/1999/xlink">
 <g id="_7050.cgm:type:overlay">
  <metadata id="CorelCorpID_0Corel-Layer"/>
  <IC_ColorNameTable/>
  <PictureProperties/>
  <polygon fill="red" fill-opacity="0.501961" stroke="white" stroke-width="352.23" stroke-linecap="square" stroke-linejoin="round" stroke-opacity="0.501961" points="2957,1466 3040,1399 3102,1352 3167,1310 3233,1272 3298,1237 3364,1204 3432,1175 3499,1151 3568,1130 3637,1113 3706,1099 3775,1090 3845,1085 3915,1082 3983,1085 4054,1090 4123,1099 4192,1113 4261,1130 4329,1151 4397,1175 4465,1204 4531,1237 4597,1272 4662,1310 4726,1352 4790,1399 4850,1448 5046,1074 4992,1019 4932,961 4871,909 4809,860 4746,813 4681,771 4617,732 4550,695 4484,664 4417,636 4349,611 4281,591 4212,574 4142,560 4073,551 4003,545 3934,543 3865,545 3795,551 3725,560 3656,574 3587,591 3519,611 3452,636 3385,664 3318,695 3251,732 3187,771 3122,813 3060,860 2997,909 2929,968 "/>
  <polygon fill="red" fill-opacity="0.501961" stroke="white" stroke-width="352.23" stroke-linecap="square" stroke-linejoin="round" stroke-opacity="0.501961" points="176,8653 451,8107 765,7400 1015,6679 1263,5907 1461,5173 1605,4440 1788,3380 1893,2673 1973,1826 2050,960 2090,176 2973,176 3013,960 3090,1826 3169,2673 3275,3380 3458,4440 3602,5173 3799,5907 4047,6679 4297,7400 4611,8107 4886,8653 "/>
  <path fill="red" fill-opacity="0.501961" stroke="white" stroke-width="352.23" stroke-linecap="square" stroke-linejoin="round" stroke-opacity="0.501961" d="M3443 8653c0,-504 -408,-912 -912,-912 -504,0 -912,408 -912,912 0,504 408,912 912,912 504,0 912,-408 912,-912z"/>
  <path fill="red" fill-opacity="0.501961" stroke="white" stroke-width="352.23" stroke-linecap="square" stroke-linejoin="round" stroke-opacity="0.501961" d="M4462 1463c0,-478 618,-865 1381,-865 763,0 1381,387 1381,865 0,478 -618,865 -1381,865 -763,0 -1381,-387 -1381,-865z"/>
  <polygon fill="white" fill-opacity="0.501961" points="6710,1380 5014,1380 5015,1392 5017,1410 5019,1429 5022,1447 5027,1466 5034,1484 5040,1501 5047,1520 5056,1537 5065,1556 5076,1573 5088,1590 5101,1607 5113,1623 5128,1640 5143,1656 5159,1671 5177,1687 5195,1701 5212,1715 5232,1729 5252,1743 5273,1756 5295,1769 5317,1782 5340,1793 5363,1804 5387,1815 5413,1825 5438,1834 5464,1843 5490,1852 5517,1860 5544,1866 5572,1873 5600,1880 5628,1886 5657,1890 5686,1894 5715,1898 5744,1900 5773,1903 5802,1904 5832,1906 5862,1906 5892,1906 5921,1904 5951,1903 5980,1900 6009,1898 6038,1894 6067,1890 6094,1886 6124,1880 6152,1873 6180,1866 6206,1860 6234,1852 6259,1843 6286,1834 6311,1825 6335,1815 6360,1804 6384,1793 6406,1782 6429,1769 6450,1756 6471,1743 6492,1729 6512,1715 6529,1701 6547,1687 6564,1671 6580,1656 6596,1640 6610,1623 6624,1607 6636,1590 6648,1573 6658,1556 6667,1537 6677,1520 6684,1501 6691,1484 6697,1466 6701,1447 6704,1429 6707,1410 "/>
 </g>
</svg>
