<?xml version="1.0" encoding="UTF-8"?>
<!DOCTYPE svg PUBLIC "-//W3C//DTD SVG 1.0//EN" "http://www.w3.org/TR/2001/REC-SVG-20010904/DTD/svg10.dtd">
<!-- Creator: CorelDRAW X6 -->
<svg xmlns="http://www.w3.org/2000/svg" xml:space="preserve" width="51px" height="98px" version="1.0" shape-rendering="geometricPrecision" text-rendering="geometricPrecision" image-rendering="optimizeQuality" fill-rule="evenodd" clip-rule="evenodd"
viewBox="0 0 5100 9814"
 xmlns:xlink="http://www.w3.org/1999/xlink">
 <g id="_7060.cgm:type:overlay">
  <metadata id="CorelCorpID_0Corel-Layer"/>
  <IC_ColorNameTable/>
  <PictureProperties/>
  <polygon fill="red" fill-opacity="0.501961" stroke="white" stroke-width="354.843" stroke-linecap="square" stroke-linejoin="round" stroke-opacity="0.501961" points="178,8717 456,8168 772,7455 1023,6729 1273,5951 1471,5211 1616,4472 1801,3404 1907,2694 1987,1839 2065,968 2105,177 2995,177 3035,968 3113,1839 3193,2694 3299,3404 3484,4472 3629,5211 3827,5951 4077,6729 4328,7455 4644,8168 4922,8717 "/>
  <polygon fill="red" fill-opacity="0.501961" stroke="white" stroke-width="354.843" stroke-linecap="square" stroke-linejoin="round" stroke-opacity="0.501961" points="553,7317 4586,7317 4586,2541 553,2541 "/>
  <path fill="red" fill-opacity="0.501961" stroke="white" stroke-width="354.843" stroke-linecap="square" stroke-linejoin="round" stroke-opacity="0.501961" d="M3469 8717c0,-508 -412,-919 -919,-919 -508,0 -919,412 -919,919 0,508 412,919 919,919 508,0 919,-412 919,-919z"/>
  <polygon fill="red" fill-opacity="0.501961" stroke="white" stroke-width="354.843" stroke-linecap="square" stroke-linejoin="round" stroke-opacity="0.501961" points="553,2542 4586,2542 4584,2535 4565,2465 4544,2395 4520,2328 4494,2259 4466,2193 4434,2128 4402,2063 4367,1998 4329,1938 4290,1876 4249,1817 4205,1758 4160,1704 4113,1647 4063,1594 4011,1544 3958,1494 3904,1446 3847,1400 3790,1357 3730,1315 3669,1276 3606,1239 3544,1203 3480,1171 3413,1140 3347,1112 3279,1087 3212,1063 3141,1041 3071,1023 3000,1007 2930,992 2858,981 2786,973 2714,966 2641,961 2568,960 2497,961 2424,966 2352,973 2280,981 2208,992 2137,1007 2067,1023 1997,1041 1927,1063 1859,1087 1791,1112 1724,1140 1659,1171 1595,1203 1531,1239 1469,1276 1408,1315 1349,1357 1291,1400 1234,1446 1180,1494 1126,1544 1076,1594 1026,1647 979,1704 933,1758 890,1817 848,1876 809,1938 771,1998 736,2063 704,2128 673,2193 645,2259 619,2328 594,2395 574,2465 554,2535 "/>
  <polygon fill="white" fill-opacity="0.501961" points="1548,4008 1548,5809 1548,6514 3578,6514 3578,5809 2256,5809 2256,5279 3578,5279 3578,4572 2256,4572 2256,4008 3578,4008 3578,3302 1548,3302 "/>
 </g>
</svg>
