<?xml version="1.0" encoding="UTF-8"?>
<!DOCTYPE svg PUBLIC "-//W3C//DTD SVG 1.0//EN" "http://www.w3.org/TR/2001/REC-SVG-20010904/DTD/svg10.dtd">
<!-- Creator: CorelDRAW X6 -->
<svg xmlns="http://www.w3.org/2000/svg" xml:space="preserve" width="73px" height="98px" version="1.0" shape-rendering="geometricPrecision" text-rendering="geometricPrecision" image-rendering="optimizeQuality" fill-rule="evenodd" clip-rule="evenodd"
viewBox="0 0 7300 9752"
 xmlns:xlink="http://www.w3.org/1999/xlink">
 <g id="_7072.cgm:type:overlay">
  <metadata id="CorelCorpID_0Corel-Layer"/>
  <IC_ColorNameTable/>
  <PictureProperties/>
  <polygon fill="red" fill-opacity="0.501961" stroke="white" stroke-width="353.086" stroke-linecap="square" stroke-linejoin="round" stroke-opacity="0.501961" points="1292,8662 1568,8115 1882,7408 2132,6686 2381,5913 2578,5179 2722,4444 2906,3382 3011,2675 3090,1828 3168,961 3207,176 4093,176 4132,961 4210,1828 4289,2675 4394,3382 4578,4444 4722,5179 4919,5913 5168,6686 5418,7408 5732,8115 6008,8662 "/>
  <path fill="red" fill-opacity="0.501961" stroke="white" stroke-width="353.086" stroke-linecap="square" stroke-linejoin="round" stroke-opacity="0.501961" d="M4564 8662c0,-505 -409,-914 -914,-914 -505,0 -914,409 -914,914 0,505 409,914 914,914 505,0 914,-409 914,-914z"/>
  <polygon fill="red" fill-opacity="0.501961" stroke="white" stroke-width="353.086" stroke-linecap="square" stroke-linejoin="round" stroke-opacity="0.501961" points="3650,2435 3734,2435 3818,2440 3901,2451 3984,2465 4067,2486 4149,2510 4232,2540 4313,2575 4394,2615 4473,2659 4552,2709 4629,2762 4706,2821 4782,2884 4855,2951 4928,3023 4999,3099 5068,3179 5136,3264 5202,3352 5267,3445 5328,3541 5389,3641 5447,3744 5502,3851 5557,3961 5608,4075 5657,4191 5704,4310 5749,4432 5791,4557 5830,4684 5867,4812 5900,4944 5932,5077 5960,5212 5987,5349 6010,5487 6029,5627 6047,5767 6062,5909 6073,6051 6083,6194 6088,6338 6090,6481 6091,6553 6091,7252 7124,7252 7124,1280 176,1280 176,7252 1292,7252 1292,6553 1296,6338 1302,6194 1311,6051 1322,5909 1337,5767 1354,5627 1375,5487 1398,5349 1424,5212 1452,5077 1483,4944 1517,4812 1554,4684 1594,4557 1636,4432 1680,4310 1726,4191 1776,4075 1828,3961 1881,3851 1937,3744 1995,3641 2055,3541 2118,3445 2182,3352 2248,3264 2315,3179 2385,3099 2457,3023 2530,2951 2603,2884 2678,2821 2754,2762 2832,2709 2912,2659 2991,2615 3071,2575 3152,2540 3234,2510 3317,2486 3399,2465 3483,2451 3566,2440 "/>
 </g>
</svg>
