<?xml version="1.0" encoding="UTF-8"?>
<!DOCTYPE svg PUBLIC "-//W3C//DTD SVG 1.0//EN" "http://www.w3.org/TR/2001/REC-SVG-20010904/DTD/svg10.dtd">
<!-- Creator: CorelDRAW X6 -->
<svg xmlns="http://www.w3.org/2000/svg" xml:space="preserve" width="58px" height="117px" version="1.0" shape-rendering="geometricPrecision" text-rendering="geometricPrecision" image-rendering="optimizeQuality" fill-rule="evenodd" clip-rule="evenodd"
viewBox="0 0 5800 11770"
 xmlns:xlink="http://www.w3.org/1999/xlink">
 <g id="_7092.cgm:type:overlay">
  <metadata id="CorelCorpID_0Corel-Layer"/>
  <IC_ColorNameTable/>
  <PictureProperties/>
  <polygon fill="red" fill-opacity="0.501961" stroke="white" stroke-width="355.679" stroke-linecap="square" stroke-linejoin="round" stroke-opacity="0.501961" points="178,10672 455,10121 772,9409 1023,8681 1274,7903 1472,7162 1618,6422 1803,5353 1910,4641 1988,3787 2068,2914 2108,2123 2997,2123 3038,2914 3117,3787 3195,4641 3302,5353 3487,6422 3633,7162 3831,7903 4082,8681 4333,9409 4650,10121 4927,10672 "/>
  <path fill="red" fill-opacity="0.501961" stroke="white" stroke-width="355.679" stroke-linecap="square" stroke-linejoin="round" stroke-opacity="0.501961" d="M3473 10672c0,-508 -412,-921 -921,-921 -508,0 -921,412 -921,921 0,508 412,921 921,921 508,0 921,-412 921,-921z"/>
  <polygon fill="red" fill-opacity="0.501961" stroke="white" stroke-width="355.679" stroke-linecap="square" stroke-linejoin="round" stroke-opacity="0.501961" points="2345,178 2278,232 2208,294 2140,356 2073,422 2010,490 1949,560 1890,632 1834,705 1781,782 1730,860 1681,940 1636,1020 1593,1103 1554,1187 1517,1272 1484,1360 1453,1447 1425,1536 1402,1625 1381,1716 1362,1808 1348,1899 1336,1992 1328,2084 1322,2176 1321,2270 1322,2363 1326,2456 1334,2548 1346,2640 1360,2732 1377,2823 1398,2914 1422,3004 1449,3093 1479,3181 1512,3268 1548,3354 1587,3438 1629,3521 1674,3603 1721,3682 1772,3760 1825,3836 1880,3911 1938,3984 1999,4053 2063,4122 2128,4187 2196,4251 2266,4313 2338,4372 2412,4427 2488,4480 2566,4532 2646,4580 2726,4625 2809,4667 2893,4707 2979,4744 3065,4777 3153,4808 3242,4835 3332,4860 3422,4881 3513,4899 3605,4914 3697,4925 3790,4934 3883,4939 3975,4940 4068,4939 4162,4935 4254,4926 4346,4916 4438,4901 4530,4884 4620,4864 4710,4839 4799,4813 4887,4783 4974,4750 5060,4714 5144,4674 5227,4633 5308,4588 5388,4540 5466,4489 5543,4437 5622,4377 "/>
  <polygon fill="red" fill-opacity="0.501961" stroke="white" stroke-width="355.679" stroke-linecap="square" stroke-linejoin="round" stroke-opacity="0.501961" points="4363,2764 4939,2314 4180,1342 3604,1791 "/>
 </g>
</svg>
