<?xml version="1.0" encoding="UTF-8"?>
<!DOCTYPE svg PUBLIC "-//W3C//DTD SVG 1.0//EN" "http://www.w3.org/TR/2001/REC-SVG-20010904/DTD/svg10.dtd">
<!-- Creator: CorelDRAW X6 -->
<svg xmlns="http://www.w3.org/2000/svg" xml:space="preserve" width="73px" height="98px" version="1.0" shape-rendering="geometricPrecision" text-rendering="geometricPrecision" image-rendering="optimizeQuality" fill-rule="evenodd" clip-rule="evenodd"
viewBox="0 0 7300 9753"
 xmlns:xlink="http://www.w3.org/1999/xlink">
 <g id="_7096.cgm:type:overlay">
  <metadata id="CorelCorpID_0Corel-Layer"/>
  <IC_ColorNameTable/>
  <PictureProperties/>
  <polygon fill="red" fill-opacity="0.501961" stroke="white" stroke-width="352.684" stroke-linecap="square" stroke-linejoin="round" stroke-opacity="0.501961" points="1292,8663 1568,8117 1883,7409 2132,6687 2381,5914 2578,5179 2721,4445 2906,3383 3011,2676 3090,1828 3168,960 3207,176 4093,176 4132,960 4211,1828 4289,2676 4394,3383 4579,4445 4722,5179 4919,5914 5168,6687 5417,7409 5732,8117 6008,8663 "/>
  <path fill="red" fill-opacity="0.501961" stroke="white" stroke-width="352.684" stroke-linecap="square" stroke-linejoin="round" stroke-opacity="0.501961" d="M4564 8663c0,-505 -409,-914 -914,-914 -505,0 -914,409 -914,914 0,505 409,914 914,914 505,0 914,-409 914,-914z"/>
  <polygon fill="red" fill-opacity="0.501961" stroke="white" stroke-width="352.684" stroke-linecap="square" stroke-linejoin="round" stroke-opacity="0.501961" points="7124,1257 176,1257 639,4145 1300,2435 6000,2435 6661,4145 "/>
 </g>
</svg>
