<?xml version="1.0" encoding="UTF-8"?>
<!DOCTYPE svg PUBLIC "-//W3C//DTD SVG 1.0//EN" "http://www.w3.org/TR/2001/REC-SVG-20010904/DTD/svg10.dtd">
<!-- Creator: CorelDRAW X6 -->
<svg xmlns="http://www.w3.org/2000/svg" xml:space="preserve" width="51px" height="98px" version="1.0" shape-rendering="geometricPrecision" text-rendering="geometricPrecision" image-rendering="optimizeQuality" fill-rule="evenodd" clip-rule="evenodd"
viewBox="0 0 5100 9817"
 xmlns:xlink="http://www.w3.org/1999/xlink">
 <g id="_7110.cgm:type:overlay">
  <metadata id="CorelCorpID_0Corel-Layer"/>
  <IC_ColorNameTable/>
  <PictureProperties/>
  <polygon fill="red" fill-opacity="0.501961" stroke="white" stroke-width="354.416" stroke-linecap="square" stroke-linejoin="round" stroke-opacity="0.501961" points="178,8721 454,8172 771,7459 1022,6731 1273,5953 1471,5214 1616,4475 1802,3406 1906,2694 1987,1840 2065,968 2104,177 2996,177 3035,968 3113,1840 3194,2694 3298,3406 3484,4475 3629,5214 3827,5953 4078,6731 4329,7459 4646,8172 4922,8721 "/>
  <path fill="red" fill-opacity="0.501961" stroke="white" stroke-width="354.416" stroke-linecap="square" stroke-linejoin="round" stroke-opacity="0.501961" d="M3469 8721c0,-508 -412,-919 -919,-919 -508,0 -919,412 -919,919 0,508 412,919 919,919 508,0 919,-412 919,-919z"/>
  <polygon fill="red" fill-opacity="0.501961" stroke="white" stroke-width="354.416" stroke-linecap="square" stroke-linejoin="round" stroke-opacity="0.501961" points="2042,5819 2042,7230 3107,7230 3107,5819 "/>
  <polygon fill="red" fill-opacity="0.501961" stroke="white" stroke-width="354.416" stroke-linecap="square" stroke-linejoin="round" stroke-opacity="0.501961" points="1301,4693 1359,4739 1424,4798 1455,4828 1485,4858 1514,4891 1543,4924 1571,4956 1599,4991 1628,5025 1654,5062 1681,5099 1707,5135 1733,5174 1756,5212 1780,5251 1803,5291 1825,5330 1846,5371 1866,5412 1885,5452 1904,5493 1921,5535 1938,5576 1954,5619 1968,5659 1982,5702 1994,5744 2007,5785 2017,5826 2026,5866 2035,5907 2042,5948 2046,5980 3112,5980 3179,5721 3215,5611 3258,5506 3301,5405 3349,5308 3402,5214 3457,5124 3517,5041 3579,4960 3647,4884 3716,4815 3790,4749 3832,4713 3882,4671 3933,4625 3983,4577 4031,4527 4077,4476 4122,4423 4165,4368 4206,4312 4244,4255 4281,4195 4315,4136 4348,4074 4378,4014 4406,3949 4433,3885 4456,3820 4477,3755 4497,3687 4513,3620 4529,3552 4540,3485 4549,3416 4557,3347 4562,3278 4565,3209 4565,3138 4562,3069 4557,3000 4549,2932 4540,2862 4529,2794 4513,2727 4497,2660 4477,2594 4456,2527 4433,2462 4406,2397 4378,2335 4348,2272 4315,2211 4281,2151 4244,2093 4206,2035 4165,1978 4122,1924 4077,1870 4031,1820 3983,1770 3933,1721 3882,1676 3829,1630 3774,1588 3717,1547 3659,1508 3601,1472 3541,1437 3481,1404 3417,1374 3355,1346 3291,1319 3226,1296 3160,1275 3093,1255 3025,1239 2958,1223 2890,1213 2821,1204 2752,1195 2683,1191 2614,1187 2544,1187 2475,1191 2405,1195 2338,1204 2267,1213 2200,1223 2133,1239 2065,1255 1999,1275 1932,1296 1868,1319 1803,1346 1740,1374 1678,1404 1616,1437 1557,1472 1499,1508 1441,1547 1384,1588 1329,1630 1276,1676 1226,1721 1176,1770 1127,1820 1081,1870 1036,1924 994,1978 953,2035 913,2093 877,2151 843,2211 810,2272 780,2335 752,2397 725,2462 702,2527 681,2594 661,2660 645,2727 630,2794 618,2862 609,2932 601,3000 597,3069 593,3138 593,3209 597,3278 601,3347 609,3416 618,3485 630,3552 645,3620 661,3687 681,3755 702,3820 725,3885 752,3949 780,4014 810,4074 843,4136 877,4195 913,4255 953,4312 994,4368 1036,4423 1081,4476 1127,4527 1176,4577 1226,4625 1301,4693 "/>
 </g>
</svg>
