<?xml version="1.0" encoding="UTF-8"?>
<!DOCTYPE svg PUBLIC "-//W3C//DTD SVG 1.0//EN" "http://www.w3.org/TR/2001/REC-SVG-20010904/DTD/svg10.dtd">
<!-- Creator: CorelDRAW X6 -->
<svg xmlns="http://www.w3.org/2000/svg" xml:space="preserve" width="73px" height="98px" version="1.0" shape-rendering="geometricPrecision" text-rendering="geometricPrecision" image-rendering="optimizeQuality" fill-rule="evenodd" clip-rule="evenodd"
viewBox="0 0 7300 9753"
 xmlns:xlink="http://www.w3.org/1999/xlink">
 <g id="_7114.cgm:type:overlay">
  <metadata id="CorelCorpID_0Corel-Layer"/>
  <IC_ColorNameTable/>
  <PictureProperties/>
  <polygon fill="red" fill-opacity="0.501961" stroke="white" stroke-width="352.672" stroke-linecap="square" stroke-linejoin="round" stroke-opacity="0.501961" points="1292,8663 1568,8117 1882,7409 2132,6687 2381,5914 2578,5179 2721,4445 2906,3383 3011,2676 3090,1828 3169,961 3207,176 4093,176 4131,961 4210,1828 4289,2676 4394,3383 4579,4445 4722,5179 4919,5914 5168,6687 5418,7409 5732,8117 6008,8663 "/>
  <path fill="red" fill-opacity="0.501961" stroke="white" stroke-width="352.672" stroke-linecap="square" stroke-linejoin="round" stroke-opacity="0.501961" d="M4564 8663c0,-505 -409,-914 -914,-914 -505,0 -914,409 -914,914 0,505 409,914 914,914 505,0 914,-409 914,-914z"/>
  <polygon fill="red" fill-opacity="0.501961" stroke="white" stroke-width="352.672" stroke-linecap="square" stroke-linejoin="round" stroke-opacity="0.501961" points="7124,2276 7124,1280 176,1280 176,2276 "/>
  <polygon fill="red" fill-opacity="0.501961" stroke="white" stroke-width="352.672" stroke-linecap="square" stroke-linejoin="round" stroke-opacity="0.501961" points="948,2283 948,6501 999,6521 1088,6553 1178,6583 1270,6610 1362,6632 1455,6652 1548,6669 1642,6682 1736,6692 1831,6698 1927,6701 2022,6701 2117,6698 2211,6692 2305,6682 2399,6669 2493,6652 2586,6632 2678,6610 2769,6583 2859,6553 3000,6501 3000,2283 2949,2263 2859,2231 2769,2201 2678,2175 2586,2153 2493,2132 2399,2116 2305,2103 2211,2093 2117,2087 2022,2083 1927,2083 1831,2087 1736,2093 1642,2103 1548,2116 1455,2132 1362,2153 1270,2175 1178,2201 1088,2231 "/>
  <polygon fill="red" fill-opacity="0.501961" stroke="white" stroke-width="352.672" stroke-linecap="square" stroke-linejoin="round" stroke-opacity="0.501961" points="4300,6501 4300,2283 4440,2231 4530,2201 4622,2175 4714,2153 4807,2132 4900,2116 4994,2103 5088,2093 5183,2087 5278,2083 5373,2083 5469,2087 5563,2093 5657,2103 5751,2116 5845,2132 5938,2153 6029,2175 6121,2201 6211,2231 6301,2263 6351,2283 6351,6501 6211,6553 6121,6583 6029,6610 5938,6632 5845,6652 5751,6669 5657,6682 5563,6692 5469,6698 5373,6701 5278,6701 5183,6698 5088,6692 4994,6682 4900,6669 4807,6652 4714,6632 4622,6610 4530,6583 4440,6553 4351,6521 4299,6501 "/>
 </g>
</svg>
