<?xml version="1.0" encoding="UTF-8"?>
<!DOCTYPE svg PUBLIC "-//W3C//DTD SVG 1.0//EN" "http://www.w3.org/TR/2001/REC-SVG-20010904/DTD/svg10.dtd">
<!-- Creator: CorelDRAW X6 -->
<svg xmlns="http://www.w3.org/2000/svg" xml:space="preserve" width="57px" height="98px" version="1.0" shape-rendering="geometricPrecision" text-rendering="geometricPrecision" image-rendering="optimizeQuality" fill-rule="evenodd" clip-rule="evenodd"
viewBox="0 0 5700 9759"
 xmlns:xlink="http://www.w3.org/1999/xlink">
 <g id="_7125.cgm:type:overlay">
  <metadata id="CorelCorpID_0Corel-Layer"/>
  <IC_ColorNameTable/>
  <PictureProperties/>
  <polygon fill="red" fill-opacity="0.501961" stroke="white" stroke-width="352.899" stroke-linecap="square" stroke-linejoin="round" stroke-opacity="0.501961" points="491,8669 767,8122 1081,7414 1331,6692 1579,5917 1777,5182 1922,4446 2105,3385 2211,2678 2290,1828 2368,961 2407,176 3293,176 3332,961 3410,1828 3489,2678 3595,3385 3778,4446 3924,5182 4121,5917 4369,6692 4619,7414 4933,8122 5209,8669 "/>
  <path fill="red" fill-opacity="0.501961" stroke="white" stroke-width="352.899" stroke-linecap="square" stroke-linejoin="round" stroke-opacity="0.501961" d="M3764 8669c0,-505 -409,-914 -914,-914 -505,0 -914,409 -914,914 0,505 409,914 914,914 505,0 914,-409 914,-914z"/>
  <path fill="red" fill-opacity="0.501961" stroke="white" stroke-width="352.899" stroke-linecap="square" stroke-linejoin="round" stroke-opacity="0.501961" d="M5524 4391c0,-1477 -1197,-2674 -2674,-2674 -1477,0 -2674,1197 -2674,2674 0,1477 1197,2674 2674,2674 1477,0 2674,-1197 2674,-2674z"/>
  <polygon fill="red" fill-opacity="0.501961" stroke="white" stroke-width="352.899" stroke-linecap="square" stroke-linejoin="round" stroke-opacity="0.501961" points="2203,4219 2181,4242 2160,4265 2140,4289 2120,4316 2101,4341 2083,4368 2067,4394 2050,4422 2036,4450 2021,4479 2009,4508 1996,4538 1986,4569 1975,4598 1967,4629 1959,4660 1953,4692 1947,4723 1943,4754 1939,4786 1937,4817 1936,4866 1937,4898 1939,4930 1941,4962 1945,4993 1950,5024 1956,5056 1963,5087 1972,5118 1981,5148 1992,5178 2002,5208 2015,5237 2029,5266 2043,5295 2059,5323 2075,5350 2092,5377 2111,5403 2130,5429 2150,5453 2171,5478 2192,5501 2215,5524 2238,5545 2262,5566 2288,5586 2313,5605 2339,5623 2366,5641 2393,5658 2421,5673 2450,5688 2479,5701 2508,5714 2537,5724 2568,5735 2598,5744 2629,5753 2660,5760 2691,5766 2723,5771 2755,5775 2786,5777 2818,5779 2850,5780 2882,5779 2914,5777 2945,5775 2977,5771 3009,5766 3040,5760 3071,5753 3102,5744 3133,5735 3163,5724 3192,5714 3222,5701 3251,5688 3280,5673 3307,5658 3334,5641 3361,5623 3387,5605 3412,5586 3438,5566 3462,5545 3485,5524 3508,5501 3529,5478 3550,5453 3570,5429 3589,5403 3608,5377 3625,5350 3642,5323 3657,5295 3672,5266 3686,5237 3698,5208 3709,5178 3719,5148 3728,5118 3737,5087 3744,5056 3750,5024 3755,4993 3759,4962 3762,4930 3763,4898 3764,4866 3763,4834 3762,4802 3759,4770 3755,4739 3750,4707 3744,4676 3737,4645 3728,4614 3719,4584 3709,4553 3698,4524 3686,4494 3672,4465 3657,4437 3642,4408 3625,4382 3608,4355 3589,4329 3570,4303 3550,4278 3529,4254 3497,4220 3463,4179 3427,4134 3392,4088 3358,4042 3324,3994 3291,3946 3259,3896 3228,3847 3199,3797 3170,3745 3141,3693 3115,3641 3090,3588 3066,3536 3042,3482 3020,3428 2999,3375 2979,3321 2961,3267 2944,3214 2929,3160 2915,3106 2902,3054 2890,3001 2881,2949 2871,2897 2864,2846 2859,2795 2855,2744 2850,2694 2850,2600 2850,2588 2850,2646 2850,2694 2845,2744 2842,2795 2836,2846 2829,2897 2820,2949 2810,3001 2798,3054 2785,3106 2771,3160 2756,3214 2739,3267 2721,3321 2702,3375 2680,3428 2658,3482 2635,3536 2610,3588 2585,3641 2559,3693 2530,3745 2502,3797 2472,3847 2441,3896 2409,3946 2376,3994 2342,4042 2308,4088 2273,4134 2237,4179 2202,4220 "/>
 </g>
</svg>
