<?xml version="1.0" encoding="UTF-8"?>
<!DOCTYPE svg PUBLIC "-//W3C//DTD SVG 1.0//EN" "http://www.w3.org/TR/2001/REC-SVG-20010904/DTD/svg10.dtd">
<!-- Creator: CorelDRAW X6 -->
<svg xmlns="http://www.w3.org/2000/svg" xml:space="preserve" width="73px" height="98px" version="1.0" shape-rendering="geometricPrecision" text-rendering="geometricPrecision" image-rendering="optimizeQuality" fill-rule="evenodd" clip-rule="evenodd"
viewBox="0 0 7300 9788"
 xmlns:xlink="http://www.w3.org/1999/xlink">
 <g id="_7030.cgm:type:overlay">
  <metadata id="CorelCorpID_0Corel-Layer"/>
  <IC_ColorNameTable/>
  <PictureProperties/>
  <polygon fill="red" fill-opacity="0.501961" stroke="white" stroke-width="353.869" stroke-linecap="square" stroke-linejoin="round" stroke-opacity="0.501961" points="1284,8694 1562,8147 1876,7436 2127,6711 2376,5936 2573,5198 2719,4461 2904,3396 3009,2687 3089,1835 3167,965 3206,177 4094,177 4133,965 4211,1835 4291,2687 4396,3396 4581,4461 4727,5198 4924,5936 5174,6711 5424,7436 5738,8147 6016,8694 "/>
  <path fill="red" fill-opacity="0.501961" stroke="white" stroke-width="353.869" stroke-linecap="square" stroke-linejoin="round" stroke-opacity="0.501961" d="M4567 8694c0,-506 -410,-917 -917,-917 -506,0 -917,410 -917,917 0,506 410,917 917,917 506,0 917,-410 917,-917z"/>
  <polygon fill="red" fill-opacity="0.501961" stroke="white" stroke-width="353.869" stroke-linecap="square" stroke-linejoin="round" stroke-opacity="0.501961" points="6304,779 6142,869 5977,953 5809,1031 5639,1104 5466,1170 5290,1230 5113,1284 4934,1332 4754,1374 4572,1409 4389,1438 4205,1461 4020,1477 3835,1487 3650,1490 3465,1487 3280,1477 3095,1461 2911,1438 2728,1409 2547,1374 2366,1332 2187,1284 2010,1230 1834,1170 1661,1104 1491,1031 1323,953 1158,869 996,779 177,2197 336,2293 492,2393 643,2500 791,2611 935,2728 1075,2850 1210,2976 1341,3106 1467,3242 1589,3382 1705,3526 1817,3674 1924,3826 2025,3981 2120,4140 2210,4302 2293,4467 2372,4635 2444,4806 2510,4979 2571,5154 2625,5331 2673,5510 2715,5691 2750,5873 2780,6055 2801,6240 2818,6424 2827,6608 2830,6794 2830,6794 4470,6794 4473,6608 4482,6424 4499,6240 4520,6055 4550,5873 4585,5691 4627,5510 4675,5331 4729,5154 4790,4979 4856,4806 4928,4635 5007,4467 5090,4302 5181,4140 5275,3981 5376,3826 5483,3674 5595,3526 5711,3382 5833,3242 5959,3106 6090,2976 6225,2850 6365,2728 6509,2611 6657,2500 6809,2393 6965,2293 7123,2197 "/>
  <path fill="white" fill-opacity="0.501961" d="M4652 3257c0,-553 -449,-1002 -1002,-1002 -553,0 -1002,449 -1002,1002 0,553 449,1002 1002,1002 553,0 1002,-449 1002,-1002z"/>
 </g>
</svg>
