<?xml version="1.0" encoding="UTF-8"?>
<!DOCTYPE svg PUBLIC "-//W3C//DTD SVG 1.0//EN" "http://www.w3.org/TR/2001/REC-SVG-20010904/DTD/svg10.dtd">
<!-- Creator: CorelDRAW X6 -->
<svg xmlns="http://www.w3.org/2000/svg" xml:space="preserve" width="66px" height="98px" version="1.0" shape-rendering="geometricPrecision" text-rendering="geometricPrecision" image-rendering="optimizeQuality" fill-rule="evenodd" clip-rule="evenodd"
viewBox="0 0 6600 9831"
 xmlns:xlink="http://www.w3.org/1999/xlink">
 <g id="_7134.cgm:type:overlay">
  <metadata id="CorelCorpID_0Corel-Layer"/>
  <IC_ColorNameTable/>
  <PictureProperties/>
  <polygon fill="red" fill-opacity="0.501961" stroke="white" stroke-width="355.492" stroke-linecap="square" stroke-linejoin="round" stroke-opacity="0.501961" points="914,8733 1192,8182 1508,7469 1760,6741 2011,5961 2209,5220 2355,4480 2541,3410 2646,2698 2726,1842 2805,969 2844,178 3736,178 3776,969 3855,1842 3934,2698 4040,3410 4226,4480 4371,5220 4569,5961 4821,6741 5072,7469 5389,8182 5667,8733 "/>
  <path fill="red" fill-opacity="0.501961" stroke="white" stroke-width="355.492" stroke-linecap="square" stroke-linejoin="round" stroke-opacity="0.501961" d="M4211 8733c0,-509 -412,-921 -921,-921 -509,0 -921,412 -921,921 0,509 412,921 921,921 509,0 921,-412 921,-921z"/>
  <polygon fill="red" fill-opacity="0.501961" stroke="white" stroke-width="355.492" stroke-linecap="square" stroke-linejoin="round" stroke-opacity="0.501961" points="1739,6728 4861,6728 6422,4025 4861,1321 1739,1321 178,4025 "/>
 </g>
</svg>
