<?xml version="1.0" encoding="UTF-8"?>
<!DOCTYPE svg PUBLIC "-//W3C//DTD SVG 1.0//EN" "http://www.w3.org/TR/2001/REC-SVG-20010904/DTD/svg10.dtd">
<!-- Creator: CorelDRAW X6 -->
<svg xmlns="http://www.w3.org/2000/svg" xml:space="preserve" width="66px" height="98px" version="1.0" shape-rendering="geometricPrecision" text-rendering="geometricPrecision" image-rendering="optimizeQuality" fill-rule="evenodd" clip-rule="evenodd"
viewBox="0 0 6600 9832"
 xmlns:xlink="http://www.w3.org/1999/xlink">
 <g id="_7136.cgm:type:overlay">
  <metadata id="CorelCorpID_0Corel-Layer"/>
  <IC_ColorNameTable/>
  <PictureProperties/>
  <polygon fill="red" fill-opacity="0.501961" stroke="white" stroke-width="355.518" stroke-linecap="square" stroke-linejoin="round" stroke-opacity="0.501961" points="914,8733 1192,8183 1508,7469 1760,6742 2011,5962 2210,5221 2355,4481 2541,3411 2647,2698 2726,1842 2804,969 2844,178 3737,178 3777,969 3855,1842 3935,2698 4040,3411 4226,4481 4372,5221 4570,5962 4821,6742 5073,7469 5389,8183 5667,8733 "/>
  <path fill="red" fill-opacity="0.501961" stroke="white" stroke-width="355.518" stroke-linecap="square" stroke-linejoin="round" stroke-opacity="0.501961" d="M4212 8733c0,-509 -412,-921 -921,-921 -509,0 -921,412 -921,921 0,509 412,921 921,921 509,0 921,-412 921,-921z"/>
  <polygon fill="red" fill-opacity="0.501961" stroke="white" stroke-width="355.518" stroke-linecap="square" stroke-linejoin="round" stroke-opacity="0.501961" points="1739,6730 4862,6730 6422,4026 4862,1321 1739,1321 178,4026 "/>
  <polygon fill="white" fill-opacity="0.501961" points="3471,4433 4228,3412 4228,5534 4906,5534 4906,2454 4228,2454 3304,3699 2379,2454 1702,2454 1702,5534 2379,5534 2379,3412 3138,4433 "/>
 </g>
</svg>
