<?xml version="1.0" encoding="UTF-8"?>
<!DOCTYPE svg PUBLIC "-//W3C//DTD SVG 1.0//EN" "http://www.w3.org/TR/2001/REC-SVG-20010904/DTD/svg10.dtd">
<!-- Creator: CorelDRAW X6 -->
<svg xmlns="http://www.w3.org/2000/svg" xml:space="preserve" width="74px" height="110px" version="1.0" shape-rendering="geometricPrecision" text-rendering="geometricPrecision" image-rendering="optimizeQuality" fill-rule="evenodd" clip-rule="evenodd"
viewBox="0 0 7400 11085"
 xmlns:xlink="http://www.w3.org/1999/xlink">
 <g id="_7155.cgm:type:overlay">
  <metadata id="CorelCorpID_0Corel-Layer"/>
  <IC_ColorNameTable/>
  <PictureProperties/>
  <path fill="red" fill-opacity="0.501961" d="M4437 10486c0,-329 -267,-596 -596,-596 -329,0 -596,267 -596,596 0,329 267,596 596,596 329,0 596,-267 596,-596z"/>
  <polygon fill="red" fill-opacity="0.501961" points="3841,7424 3968,7774 4065,7975 4177,8176 4296,8378 4423,8579 4564,8772 4720,8966 4892,9152 5070,9338 5256,9525 5458,9703 5673,9875 5890,10046 6120,10210 6359,10366 6612,10523 6873,10672 7141,10820 7394,10947 7417,10947 7424,10955 7476,10955 7484,10947 7514,10947 7528,10940 7536,10940 7543,10933 7550,10933 7558,10925 7566,10917 7573,10917 7580,10910 7588,10910 7595,10903 7602,10895 7611,10888 7618,10881 7625,10873 7633,10865 7640,10858 7640,10850 7647,10843 7647,10836 7655,10828 7655,10820 7663,10813 7663,10806 7663,10798 7670,10791 7670,10784 7670,10776 7677,10768 7677,10761 7677,10754 7677,10746 7677,10739 7677,10732 7677,10724 7677,10716 7677,10709 7677,10701 7677,10694 7677,10679 7670,10672 7670,10664 7670,10657 7663,10649 7663,10642 7663,10635 7655,10627 7655,10620 7647,10612 7640,10605 7640,10597 7633,10590 7625,10583 7625,10575 7618,10567 7611,10567 7602,10560 7602,10552 7595,10552 7588,10545 7580,10538 7573,10538 7566,10530 7595,10552 6508,9793 5919,9137 5450,8408 4981,7580 4586,6567 4199,5182 4087,4288 4065,2963 4057,5 3626,5 3618,2963 3596,4288 3484,5182 3096,6567 2702,7580 2232,8408 1763,9137 1175,9793 88,10552 117,10530 117,10530 110,10538 102,10538 95,10545 88,10552 80,10552 80,10560 72,10567 65,10567 57,10575 57,10583 50,10590 43,10597 43,10605 35,10612 28,10620 28,10627 20,10635 20,10642 20,10649 13,10657 13,10664 13,10672 5,10679 5,10694 5,10701 5,10709 5,10716 5,10724 5,10732 5,10739 5,10746 5,10754 5,10761 5,10768 13,10776 13,10784 13,10791 20,10798 20,10806 20,10813 28,10820 28,10828 35,10836 35,10843 43,10850 43,10858 50,10865 57,10873 65,10881 72,10888 80,10895 88,10903 95,10910 102,10910 110,10917 117,10917 124,10925 132,10933 140,10933 147,10940 154,10940 169,10947 199,10947 207,10955 259,10955 266,10947 289,10947 542,10820 810,10672 1071,10523 1324,10366 1562,10210 1793,10046 2009,9875 2225,9703 2426,9525 2613,9338 2791,9152 2963,8966 3119,8772 3260,8579 3387,8378 3506,8176 3618,7975 3714,7774 "/>
 </g>
</svg>
